<?xml version="1.0" encoding="UTF-8"?>
<svg id="_욕실1" data-name="욕실1" xmlns="http://www.w3.org/2000/svg" version="1.1" xmlns:xlink="http://www.w3.org/1999/xlink" viewBox="0 0 600 540">
  <!-- Generator: Adobe Illustrator 29.6.1, SVG Export Plug-In . SVG Version: 2.1.1 Build 9)  -->
  <defs>
    <style>
      .st0 {
        clip-path: url(#clippath-6);
      }

      .st1 {
        clip-path: url(#clippath-7);
      }

      .st2 {
        fill: #ffb24d;
      }

      .st2, .st3, .st4, .st5, .st6, .st7, .st8, .st9, .st10, .st11, .st12, .st13, .st14, .st15, .st16, .st17, .st18, .st19, .st20, .st21, .st22, .st23, .st24, .st25, .st26, .st27, .st28, .st29, .st30, .st31, .st32, .st33, .st34, .st35, .st36, .st37, .st38, .st39, .st40, .st41, .st42 {
        stroke-miterlimit: 10;
      }

      .st2, .st3, .st4, .st5, .st7, .st8, .st10, .st11, .st43, .st16, .st17, .st44, .st19, .st21, .st23, .st45, .st29, .st31, .st35, .st36 {
        stroke-width: 2px;
      }

      .st2, .st5, .st6, .st15, .st33, .st35, .st36, .st37, .st42 {
        stroke: #1c0707;
      }

      .st46, .st47 {
        fill: #bdf;
      }

      .st46, .st3, .st48, .st8, .st9, .st10, .st11, .st12, .st13, .st14, .st43, .st16, .st17, .st18, .st44, .st19, .st20, .st22, .st23, .st24, .st49, .st25, .st26, .st27, .st28, .st29, .st30, .st31, .st34, .st50, .st38, .st39, .st40, .st41, .st51 {
        stroke: #000;
      }

      .st46, .st48, .st6, .st9, .st12, .st13, .st14, .st15, .st18, .st20, .st24, .st26, .st28, .st33, .st50, .st37, .st40, .st42, .st51 {
        stroke-width: 1.5px;
      }

      .st46, .st44, .st45, .st49, .st50 {
        stroke-linecap: round;
      }

      .st46, .st45, .st49, .st50 {
        stroke-linejoin: round;
      }

      .st52 {
        fill: #d988b2;
      }

      .st3, .st24 {
        fill: #9eb673;
      }

      .st48 {
        fill: #318936;
      }

      .st4, .st7, .st21, .st45, .st32 {
        stroke: #4c241e;
      }

      .st4, .st45 {
        fill: #ffe799;
      }

      .st53 {
        clip-path: url(#clippath-4);
      }

      .st5 {
        fill: #37474f;
      }

      .st6 {
        fill: #374ab7;
      }

      .st7 {
        fill: #ffd899;
      }

      .st8, .st13 {
        fill: #ece2d9;
      }

      .st9 {
        fill: #e6c5ff;
      }

      .st54, .st19, .st26, .st33 {
        fill: #fff;
      }

      .st55 {
        fill: #2e6318;
      }

      .st10 {
        fill: #e2862c;
      }

      .st11 {
        fill: #d99cc9;
      }

      .st12, .st16 {
        fill: #194a7c;
      }

      .st14, .st56 {
        fill: #f9f6f3;
      }

      .st57, .st23, .st49, .st50 {
        fill: none;
      }

      .st43 {
        fill: #5e9952;
      }

      .st15 {
        fill: #eee;
      }

      .st17 {
        fill: #3e6d52;
      }

      .st18 {
        fill: #102838;
      }

      .st58 {
        clip-path: url(#clippath-1);
      }

      .st44 {
        fill: #fff2a4;
        stroke-linejoin: bevel;
      }

      .st20 {
        fill: #ff7b93;
      }

      .st21, .st59 {
        fill: #dd9e59;
      }

      .st60 {
        fill: #430000;
      }

      .st61 {
        fill: #a77147;
      }

      .st22 {
        fill: #f2cf76;
      }

      .st25, .st30 {
        fill: #5595cf;
      }

      .st62 {
        clip-path: url(#clippath-5);
      }

      .st27 {
        fill: #edbb61;
      }

      .st28 {
        fill: #e9c058;
      }

      .st29 {
        fill: #fcd05d;
      }

      .st30, .st39 {
        stroke-width: .5px;
      }

      .st63 {
        fill: #bc8a68;
      }

      .st31 {
        fill: #ff626d;
      }

      .st32, .st64 {
        fill: #4c241e;
      }

      .st65 {
        clip-path: url(#clippath-3);
      }

      .st66 {
        fill: #fffeff;
      }

      .st34 {
        fill: #a793f0;
      }

      .st35 {
        fill: #d37300;
      }

      .st67 {
        fill: #919191;
      }

      .st68 {
        fill: #ffe6c2;
      }

      .st36 {
        fill: #00adb5;
      }

      .st37 {
        fill: #393e46;
      }

      .st69 {
        clip-path: url(#clippath-2);
      }

      .st70 {
        fill: #e28f7f;
      }

      .st38, .st39, .st40 {
        fill: #ff88b9;
      }

      .st41 {
        fill: #bdd988;
      }

      .st71 {
        fill: #af844a;
      }

      .st42 {
        fill: #00cbd4;
      }

      .st51 {
        fill: #4e7c3a;
      }

      .st72 {
        clip-path: url(#clippath);
      }

      .st73 {
        fill: #438bc9;
      }
    </style>
    <clipPath id="clippath">
      <rect class="st57" x="292.48" y="253.48" width="37" height="81"/>
    </clipPath>
    <clipPath id="clippath-1">
      <rect class="st57" x="195.37" y="234.48" width="37" height="99"/>
    </clipPath>
    <clipPath id="clippath-2">
      <path class="st47" d="M223.97,256.13h-20.2c-1.58,0-2.86,1.28-2.86,2.86v71.34c0,1.58,1.28,2.86,2.86,2.86h20.2c1.58,0,2.86-1.28,2.86-2.86v-71.34c0-1.58-1.28-2.86-2.86-2.86Z"/>
    </clipPath>
    <clipPath id="clippath-3">
      <rect class="st57" x="365.28" y="274.48" width="35" height="58"/>
    </clipPath>
    <clipPath id="clippath-4">
      <path class="st57" d="M396.33,275.63h-27.43c0,28,4.59,47.17,4.59,47.17l8.95.32h.17s.17.01.17.01l8.96-.33s4.59-19.17,4.59-47.17h0Z"/>
    </clipPath>
    <clipPath id="clippath-5">
      <path class="st57" d="M396.33,275.63h-27.43c0,28,4.59,47.17,4.59,47.17l8.95.32h.17s.17.01.17.01l8.96-.33s4.59-19.17,4.59-47.17h0Z"/>
    </clipPath>
    <clipPath id="clippath-6">
      <rect class="st57" x="485.14" y="282.48" width="40" height="51"/>
    </clipPath>
    <clipPath id="clippath-7">
      <rect class="st57" x="143.59" y="240.48" width="47" height="93"/>
    </clipPath>
  </defs>
  <g>
    <path class="st29" d="M265.15,118.22c-4.19,0-7.53,3.5-7.33,7.68l4.31,93.27h6.05l4.31-93.27c.19-4.18-3.15-7.68-7.33-7.68ZM265.15,130.55c-2.17,0-3.93-1.76-3.93-3.93s1.76-3.93,3.93-3.93,3.93,1.76,3.93,3.93-1.76,3.93-3.93,3.93Z"/>
    <path class="st10" d="M274.08,198.18c0-2.18-1.77-3.95-3.95-3.95h-9.95c-2.18,0-3.95,1.77-3.95,3.95,0,1.69,1.06,3.12,2.55,3.69v11.2h12.75v-11.2c1.49-.57,2.55-2,2.55-3.69Z"/>
    <path class="st31" d="M265.15,211.65h0c11.87,0,21.52,9.64,21.52,21.52v10.19h-43.03v-10.19c0-11.87,9.64-21.52,21.52-21.52Z"/>
    <rect class="st20" x="239.99" y="238.07" width="50.33" height="8.22" rx="4.11" ry="4.11"/>
  </g>
  <g>
    <g>
      <path class="st2" d="M516.65,220.35c0,2.57,2.08,4.64,4.64,4.64s4.64-2.08,4.64-4.64v-28.95h-9.29v28.95Z"/>
      <path class="st2" d="M525.94,179.49v-41.08c0-2.57-2.08-4.64-4.64-4.64s-4.64,2.08-4.64,4.64v41.08h9.29Z"/>
      <rect class="st35" x="517.95" y="179.49" width="6.69" height="11.91"/>
    </g>
    <polygon class="st33" points="502.29 215.39 502.29 219.73 515.89 219.73 516.59 219.73 517.04 219.73 517.04 192.85 516.59 192.85 515.89 192.85 502.29 192.85 502.29 197.19 515.89 197.19 515.89 198.49 502.29 198.49 502.29 202.83 515.89 202.83 515.89 204.12 502.29 204.12 502.29 208.46 515.89 208.46 515.89 209.76 502.29 209.76 502.29 214.1 515.89 214.1 515.89 215.39 502.29 215.39"/>
  </g>
  <g>
    <g>
      <rect class="st6" x="469.18" y="167.52" width="3.32" height="58.02"/>
      <path class="st37" d="M470.84,172.1h0c2.34,0,4.23-1.89,4.23-4.23v-26.85h-8.46v26.85c0,2.34,1.89,4.23,4.23,4.23Z"/>
      <path class="st15" d="M457.77,241.89c.87,0,.87,1.35,0,1.35h-3.8c1.61,7.85,8.56,13.75,16.88,13.75h0c9.16,0,16.64-7.14,17.2-16.16h-6.39c-.87,0-.87-1.35,0-1.35h6.42v-4.2h-3.53c-.87,0-.87-1.35,0-1.35h3.53v-4.44h-7.15c-.87,0-.87-1.35,0-1.35h7.15v-5.16h-4.98c-.87,0-.87-1.35,0-1.35h4.98v-5.65h-5.22c-.87,0-.87-1.35,0-1.35h5.22v-4.44h-3.05c-.37,0-.68-.31-.68-.68s.31-.68.68-.68h3.05v-7.58h-6.66c-.87,0-.87-1.35,0-1.35h6.66v-5.65h-2.32c-.38,0-.66-.31-.68-.68-.02-.36.32-.68.68-.68h2.32v-4.2h-6.18c-.87,0-.87-1.35,0-1.35h6.18v-.28c0-1.37-1.11-2.48-2.48-2.48h-29.51c-1.3,0-2.35,1-2.46,2.27h1.48c.37,0,.68.31.68.68s-.31.68-.68.68h-1.5v3.72h5.6c.87,0,.87,1.35,0,1.35h-5.6v7.09h2.95c.87,0,.87,1.35,0,1.35h-2.95v7.58h3.91c.87,0,.87,1.35,0,1.35h-3.91v6.85h1.74c.87,0,.87,1.35,0,1.35h-1.74v5.16h3.43c.87,0,.87,1.35,0,1.35h-3.43v3.96h5.84c.87,0,.87,1.35,0,1.35h-5.84v6.13h4.15c.87,0,.87,1.35,0,1.35h-4.15v1.58c0,.72.05,1.43.14,2.13h4.02Z"/>
      <path class="st6" d="M475.08,141.02v-6.35c0-2.34-1.89-4.23-4.23-4.23s-4.23,1.89-4.23,4.23v6.35h8.46Z"/>
    </g>
    <g>
      <path class="st17" d="M350.18,272.48h-14.49c0,39.06,5.78,53.98,5.78,53.98h14.16s5.77-14.92,5.77-53.98h-11.22Z"/>
      <path class="st27" d="M344.13,299.24c-.76-1.24-.67-2.91.12-4.13.78-1.22,2.18-1.99,3.63-2.13,2.11-.21,4.34.98,5.18,2.93.83,1.95.04,4.51-1.84,5.5-1.97,1.04-5.23.85-7.09-2.17h0Z"/>
      <path class="st50" d="M347.8,291.43c.07-.88.14-1.75.21-2.63"/>
      <path class="st50" d="M348.5,303.53c.13,1.19.13,2.39,0,3.58"/>
      <path class="st50" d="M338.64,298.23c.91-.15,1.83-.29,2.74-.44"/>
      <path class="st50" d="M341.98,304.62c.65-.82,1.38-1.58,2.18-2.25"/>
      <path class="st50" d="M354.61,298.26c1.06.07,2.11.14,3.16.2"/>
      <path class="st50" d="M353.03,302.46c.65.64,1.31,1.29,1.97,1.93"/>
      <path class="st50" d="M352.98,293.21c.7-.71,1.4-1.41,2.1-2.12"/>
      <path class="st50" d="M341.49,291.34c.5.66,1.13,1.22,1.85,1.64"/>
      <path class="st18" d="M355.08,326.46h-13.61v6.39h13.61v-6.39Z"/>
      <path class="st49" d="M340.85,273.3v2.36"/>
      <path class="st49" d="M342.77,273.3v2.36"/>
      <path class="st49" d="M344.7,273.3v2.36"/>
      <path class="st49" d="M346.62,273.3v2.36"/>
      <path class="st49" d="M348.55,273.3v2.36"/>
      <path class="st49" d="M350.47,273.3v2.36"/>
      <path class="st49" d="M352.4,273.3v2.36"/>
      <path class="st49" d="M354.32,273.3v2.36"/>
      <path class="st49" d="M356.24,273.3v2.36"/>
      <path class="st49" d="M358.17,273.3v2.36"/>
      <path class="st49" d="M338.93,273.3v2.36"/>
    </g>
    <g class="st72">
      <g>
        <path class="st44" d="M306.45,269.51h9.06c7.58,0,13.74,6.2,13.74,13.83v44.52c0,3.53-2.84,6.39-6.35,6.39h-23.84c-3.51,0-6.35-2.86-6.35-6.39v-44.52c0-7.63,6.16-13.83,13.74-13.83h0Z"/>
        <path class="st12" d="M316.48,253.71h-11v15.85h11v-15.85Z"/>
        <path class="st12" d="M326,285.09h-30.03v38.57h30.03v-38.57Z"/>
        <path class="st56" d="M310.35,316.49c-.13-2.01,1.08-3.85,2.45-5.32,1.37-1.47,2.97-2.76,3.96-4.51.99-1.76,1.27-3.82,1.88-5.75.62-1.93,1.76-3.89,3.66-4.55-2.21,3.69-.1,8.6-1.44,12.69-1.17,3.53-5.15,5.86-10.51,7.42h0v.02Z"/>
        <path class="st56" d="M311.17,310.48c-.51-1.82-2.22-3-3.87-3.91s-3.44-1.78-4.44-3.38c-.75-1.2-.94-2.66-1.47-3.97-.54-1.31-1.65-2.59-3.06-2.53,1.55-1.32,4.03-.66,5.54.7,1.52,1.36,2.46,3.25,3.8,4.79.81.93,1.78,1.73,2.48,2.75.69,1.03,1.09,2.38,1.02,5.55h0Z"/>
        <path class="st49" d="M309.76,297.86c2.54,6.98,2.14,14.86-.38,21.85"/>
        <path class="st56" d="M311.87,301.92c-.56.38-1.31.31-1.79-.18-1.43-1.48-2.1-3.73-1.62-5.75.27-1.14.85-2.18,1.25-3.28.41-1.1.61-2.36.11-3.42,1.88,1.77,3.58,3.88,4.17,6.4.52,2.22-.01,4.79-2.12,6.24h0Z"/>
        <path class="st49" d="M306.73,303.22s3.38,1.84,4.44,7.25"/>
        <path class="st49" d="M316.48,310.48s-3.95,1.77-6.13,6.02"/>
      </g>
    </g>
    <g>
      <g>
        <path class="st61" d="M560.48,342V24.91h-10.26v317.09h10.26Z"/>
        <path d="M560.48,343.01h-10.26c-.54,0-.97-.45-.97-1.02V24.91c0-.56.43-1.02.97-1.02h10.26c.54,0,.97.45.97,1.02v317.08c0,.56-.43,1.02-.97,1.02ZM551.18,340.98h8.34V25.93h-8.34v315.05Z"/>
      </g>
      <g>
        <path class="st61" d="M100.01,342V24.91h-10.27v317.09h10.27Z"/>
        <path d="M100.01,343.01h-10.27c-.53,0-.96-.45-.96-1.02V24.91c0-.56.43-1.02.96-1.02h10.27c.53,0,.97.45.97,1.02v317.08c0,.56-.44,1.02-.97,1.02ZM90.71,340.98h8.34V25.93h-8.34v315.05Z"/>
      </g>
      <g>
        <path class="st73" d="M122.55,25.59h-36.83v120.45h36.83V25.59Z"/>
        <path d="M122.55,147.48h-36.83c-.53,0-.96-.64-.96-1.44V25.59c0-.8.43-1.44.96-1.44h36.83c.54,0,.97.64.97,1.44v120.45c0,.8-.43,1.44-.97,1.44ZM86.69,144.59h34.9V27.03h-34.9v117.56Z"/>
        <path class="st66" d="M159.38,25.59h-36.83v120.45h36.83V25.59Z"/>
        <path d="M159.38,147.48h-36.83c-.54,0-.97-.64-.97-1.44V25.59c0-.8.43-1.44.97-1.44h36.83c.53,0,.96.64.96,1.44v120.45c0,.8-.43,1.44-.96,1.44ZM123.52,144.59h34.9V27.03h-34.9v117.56Z"/>
        <path class="st73" d="M196.21,25.59h-36.83v120.45h36.83V25.59Z"/>
        <path d="M196.21,147.48h-36.83c-.54,0-.97-.64-.97-1.44V25.59c0-.8.43-1.44.97-1.44h36.83c.53,0,.96.64.96,1.44v120.45c0,.8-.43,1.44-.96,1.44ZM160.34,144.59h34.9V27.03h-34.9v117.56Z"/>
        <path class="st66" d="M233.04,25.59h-36.83v120.45h36.83V25.59Z"/>
        <path d="M233.04,147.48h-36.83c-.54,0-.97-.64-.97-1.44V25.59c0-.8.43-1.44.97-1.44h36.83c.53,0,.96.64.96,1.44v120.45c0,.8-.43,1.44-.96,1.44ZM197.17,144.59h34.9V27.03h-34.9v117.56Z"/>
        <path class="st73" d="M269.87,25.59h-36.83v120.45h36.83V25.59Z"/>
        <path d="M269.87,147.48h-36.83c-.54,0-.97-.64-.97-1.44V25.59c0-.8.43-1.44.97-1.44h36.83c.53,0,.96.64.96,1.44v120.45c0,.8-.43,1.44-.96,1.44ZM234,144.59h34.9V27.03h-34.9v117.56Z"/>
        <path class="st66" d="M306.7,25.59h-36.83v120.45h36.83V25.59Z"/>
        <path d="M306.7,147.48h-36.83c-.53,0-.97-.64-.97-1.44V25.59c0-.8.44-1.44.97-1.44h36.83c.53,0,.97.64.97,1.44v120.45c0,.8-.44,1.44-.97,1.44ZM270.83,144.59h34.91V27.03h-34.91v117.56Z"/>
        <path class="st73" d="M343.53,25.59h-36.83v120.45h36.83V25.59Z"/>
        <path d="M343.52,147.48h-36.83c-.53,0-.96-.64-.96-1.44V25.59c0-.8.43-1.44.96-1.44h36.83c.54,0,.97.64.97,1.44v120.45c0,.8-.43,1.44-.97,1.44ZM307.66,144.59h34.9V27.03h-34.9v117.56Z"/>
        <path class="st66" d="M380.35,25.59h-36.83v120.45h36.83V25.59Z"/>
        <path d="M380.35,147.48h-36.83c-.53,0-.96-.64-.96-1.44V25.59c0-.8.43-1.44.96-1.44h36.83c.54,0,.97.64.97,1.44v120.45c0,.8-.43,1.44-.97,1.44ZM344.49,144.59h34.9V27.03h-34.9v117.56Z"/>
        <path class="st73" d="M417.18,25.59h-36.83v120.45h36.83V25.59Z"/>
        <path d="M417.18,147.48h-36.83c-.53,0-.96-.64-.96-1.44V25.59c0-.8.43-1.44.96-1.44h36.83c.54,0,.97.64.97,1.44v120.45c0,.8-.43,1.44-.97,1.44ZM381.32,144.59h34.9V27.03h-34.9v117.56Z"/>
        <path class="st66" d="M454.01,25.59h-36.83v120.45h36.83V25.59Z"/>
        <path d="M454.01,147.48h-36.83c-.53,0-.96-.64-.96-1.44V25.59c0-.8.43-1.44.96-1.44h36.83c.54,0,.97.64.97,1.44v120.45c0,.8-.43,1.44-.97,1.44ZM418.15,144.59h34.9V27.03h-34.9v117.56Z"/>
        <path class="st73" d="M490.84,25.59h-36.83v120.45h36.83V25.59Z"/>
        <path d="M490.84,147.48h-36.83c-.53,0-.96-.64-.96-1.44V25.59c0-.8.43-1.44.96-1.44h36.83c.54,0,.97.64.97,1.44v120.45c0,.8-.43,1.44-.97,1.44ZM454.98,144.59h34.9V27.03h-34.9v117.56Z"/>
        <path class="st66" d="M527.68,25.59h-36.83v120.45h36.83V25.59Z"/>
        <path d="M527.68,147.48h-36.83c-.54,0-.97-.64-.97-1.44V25.59c0-.8.43-1.44.97-1.44h36.83c.53,0,.96.64.96,1.44v120.45c0,.8-.43,1.44-.96,1.44ZM491.81,144.59h34.9V27.03h-34.9v117.56Z"/>
        <path class="st73" d="M564.51,25.59h-36.83v120.45h36.83V25.59Z"/>
        <path d="M564.5,147.48h-36.83c-.53,0-.96-.64-.96-1.44V25.59c0-.8.43-1.44.96-1.44h36.83c.54,0,.97.64.97,1.44v120.45c0,.8-.43,1.44-.97,1.44ZM528.64,144.59h34.9V27.03h-34.9v117.56Z"/>
        <path class="st61" d="M574.42,18.42H75.8v10.8h498.62v-10.8Z"/>
        <path d="M574.42,30.23H75.8c-.53,0-.96-.45-.96-1.01v-10.8c0-.56.43-1.01.96-1.01h498.62c.54,0,.97.45.97,1.01v10.8c0,.56-.43,1.01-.97,1.01ZM76.77,28.2h496.69v-8.77H76.77v8.77h0Z"/>
      </g>
      <g>
        <path class="st63" d="M561.92,333.09H87.54v110.51h474.38v-110.51Z"/>
        <path d="M561.92,444.62H87.54c-.53,0-.96-.45-.96-1.02v-110.51c0-.56.43-1.02.96-1.02h474.38c.54,0,.97.45.97,1.02v110.51c0,.56-.43,1.02-.97,1.02ZM88.51,442.59h472.45v-108.48H88.51v108.48h0Z"/>
        <path d="M87.54,444.62c-.53,0-.96-.45-.96-1.02v-110.51c0-.56.43-1.02.96-1.02s.97.45.97,1.02v110.51c0,.56-.43,1.02-.97,1.02Z"/>
        <path d="M119.17,444.62c-.54,0-.97-.45-.97-1.02v-110.51c0-.56.43-1.02.97-1.02s.96.45.96,1.02v110.51c0,.56-.43,1.02-.96,1.02Z"/>
        <path d="M150.79,444.62c-.54,0-.97-.45-.97-1.02v-110.51c0-.56.43-1.02.97-1.02s.96.45.96,1.02v110.51c0,.56-.43,1.02-.96,1.02Z"/>
        <path d="M182.41,444.62c-.53,0-.96-.45-.96-1.02v-110.51c0-.56.43-1.02.96-1.02s.97.45.97,1.02v110.51c0,.56-.43,1.02-.97,1.02Z"/>
        <path d="M214.04,444.62c-.53,0-.97-.45-.97-1.02v-110.51c0-.56.44-1.02.97-1.02s.96.45.96,1.02v110.51c0,.56-.43,1.02-.96,1.02Z"/>
        <path d="M245.67,444.62c-.54,0-.97-.45-.97-1.02v-110.51c0-.56.43-1.02.97-1.02s.96.45.96,1.02v110.51c0,.56-.43,1.02-.96,1.02Z"/>
        <path d="M277.29,444.62c-.53,0-.96-.45-.96-1.02v-110.51c0-.56.43-1.02.96-1.02s.97.45.97,1.02v110.51c0,.56-.43,1.02-.97,1.02Z"/>
        <path d="M308.92,444.62c-.54,0-.97-.45-.97-1.02v-110.51c0-.56.43-1.02.97-1.02s.96.45.96,1.02v110.51c0,.56-.43,1.02-.96,1.02Z"/>
        <path d="M340.55,444.62c-.54,0-.97-.45-.97-1.02v-110.51c0-.56.43-1.02.97-1.02s.96.45.96,1.02v110.51c0,.56-.43,1.02-.96,1.02Z"/>
        <path d="M372.17,444.62c-.53,0-.96-.45-.96-1.02v-110.51c0-.56.43-1.02.96-1.02s.97.45.97,1.02v110.51c0,.56-.44,1.02-.97,1.02Z"/>
        <path d="M403.79,444.62c-.53,0-.96-.45-.96-1.02v-110.51c0-.56.43-1.02.96-1.02s.97.45.97,1.02v110.51c0,.56-.43,1.02-.97,1.02Z"/>
        <path d="M435.42,444.62c-.54,0-.97-.45-.97-1.02v-110.51c0-.56.43-1.02.97-1.02s.96.45.96,1.02v110.51c0,.56-.43,1.02-.96,1.02Z"/>
        <path d="M467.04,444.62c-.53,0-.96-.45-.96-1.02v-110.51c0-.56.43-1.02.96-1.02s.97.45.97,1.02v110.51c0,.56-.43,1.02-.97,1.02Z"/>
        <path d="M498.67,444.62c-.54,0-.97-.45-.97-1.02v-110.51c0-.56.43-1.02.97-1.02s.96.45.96,1.02v110.51c0,.56-.43,1.02-.96,1.02Z"/>
        <path d="M530.3,444.62c-.54,0-.97-.45-.97-1.02v-110.51c0-.56.43-1.02.97-1.02s.96.45.96,1.02v110.51c0,.56-.43,1.02-.96,1.02Z"/>
        <path d="M561.92,445.81c-.53,0-.96-.45-.96-1.02v-110.51c0-.56.43-1.01.96-1.01s.97.45.97,1.01v110.51c0,.56-.43,1.02-.97,1.02Z"/>
      </g>
    </g>
    <g>
      <path class="st43" d="M511.36,241.06c1.54-.26,3.23.5,4.06,1.85l.49.79.67-.64c.99-.94,2.49-1.26,3.78-.85l.26.09c1.17.47,2.09,1.58,2.36,2.85l.11.57.58.03c.62.03,1.11.16,1.5.39.38.22.71.56.98,1.09h0c.55,1.04.51,2.38-.09,3.39l.44.3.47.79c.59-.22,1.4-.26,2.17-.08s1.4.54,1.73,1c.7.97.74,2.42.11,3.47l-.32.53.45.42c.28.26.54.55.75.87l.35.55.59-.27c.37-.17.79-.27,1.22-.27,1.68,0,3.11,1.45,3.11,3.31,0,.24-.02.47-.07.71l-.23,1.25,1.21-.4c.25-.09.53-.13.81-.13,1.5,0,2.79,1.29,2.79,2.97,0,.31-.05.61-.14.89l-.3.49.5.42c.73.6,1.21,1.54,1.21,2.61,0,1.86-1.43,3.31-3.11,3.31-.93,0-1.78-.43-2.35-1.14l-.76-.94-.5,1.09c-.47,1-1.42,1.66-2.5,1.66-.73,0-1.41-.3-1.91-.81l-.47-.47-.52.4c-.73.56-1.61.88-2.57.88-1.03,0-1.98-.38-2.73-1.01l-.49-.41-.48.41c-.76.64-1.66,1.01-2.73,1.01s-2.06-.41-2.82-1.09l-.45-.4-.49.35c-.41.29-.88.46-1.39.46-.76,0-1.44-.38-1.91-1l-.54-.7-.6.64c-.51.54-1.18.9-1.92,1.01l-.29.05-.19.23c-.13.17-.28.34-.43.49-1.41,1.39-3.5,1.97-5.51,1.78h0c-.94-.09-1.87-.39-2.59-.9l-.35-.25-.4.18c-.36.17-.74.29-1.14.35h0c-2.07.34-4.07-.82-4.95-2.76l-.24-.51-.55.08c-2.52.36-4.91-1.46-5.3-4.19l-.04-.26c-.24-2.58,1.41-4.9,3.76-5.4l.23-.04c.05,0,.11-.01.2-.02l.54-.04.13-.54c.1-.44.3-.87.62-1.25l.27-.31-.12-.39c-.49-1.56-.16-3.37.84-4.64h0c.99-1.27,2.64-1.99,4.22-1.86l1.18.1-.41-1.11c-.34-.92-.38-2.06-.16-3.18.22-1.12.71-2.16,1.36-2.89,1.33-1.49,3.53-2.16,5.43-1.64l.68.19.23-.67c.53-1.57,1.36-2.61,2.67-2.83h0Z"/>
      <path class="st48" d="M521.43,256.25c2.22,0,4.08,1.9,4.08,4.32,0,.11-.01.17-.02.35l-.04.89.88-.11c.21-.02.39-.04.57-.04,1.5,0,2.82.79,3.63,2.03l.35.54.59-.27c.37-.17.79-.27,1.22-.27,1.68,0,3.11,1.45,3.11,3.31,0,.24-.02.47-.07.71l-.24,1.25,1.21-.4c.26-.09.53-.13.82-.13,1.5,0,2.79,1.29,2.79,2.97,0,.33-.06.66-.16.97l-.16.48.39.32c.74.6,1.21,1.54,1.21,2.61,0,1.86-1.43,3.31-3.11,3.31-.93,0-1.77-.43-2.35-1.14l-.76-.93-.5,1.09c-.47,1-1.42,1.66-2.5,1.66-.73,0-1.41-.3-1.91-.81l-.47-.47-.52.4c-.73.56-1.61.88-2.57.88-1.03,0-1.98-.38-2.73-1.01l-.48-.41-.49.41c-.76.64-1.66,1.01-2.73,1.01s-2.06-.41-2.82-1.09l-.45-.4-.49.36c-.4.29-.88.46-1.39.46-.76,0-1.44-.38-1.91-1l-.53-.7-.61.64c-.63.66-1.48,1.06-2.42,1.06-1.86,0-3.43-1.6-3.43-3.65s1.57-3.65,3.43-3.65c.09,0,.1,0,.28.02l.79.05v-.82l.02-.33c.05-.75.31-1.44.7-2.01l.35-.51-.43-.44c-.79-.79-1.28-1.9-1.28-3.14,0-2.42,1.86-4.32,4.08-4.32.69,0,1.33.18,1.9.5l1.02.57.1-1.17c.18-2.26,1.83-3.96,4.05-3.96h0Z"/>
      <path class="st51" d="M499.62,260.3c1.75-.31,3.46.48,4.59,1.99l.32.43.51-.16c.13-.04.27-.07.43-.1h0c1.78-.31,3.52.51,4.65,2.08l.35.48.55-.23c.3-.13.63-.22.97-.28l.2-.04c2.61-.34,5.15,1.74,5.59,4.99.44,3.34-1.57,6.31-4.28,6.79h-.01c-.12.03-.14.01-.41.04l-.51.05-.13.49c-.3,1.06-.83,2.04-1.51,2.77h0c-1.53,1.64-3.76,2.32-5.91,2.09h0c-.99-.11-1.99-.45-2.77-1.05l-.37-.29-.42.21c-.39.19-.8.33-1.22.4h-.01c-2.18.39-4.34-.93-5.31-3.26l-.23-.54-.58.09c-2.65.42-5.27-1.67-5.71-4.97h0l-.03-.31c-.29-3.21,1.68-6.02,4.31-6.47.61-.11,1.22-.07,1.81.07l.77.19.14-.79c.43-2.43,2.11-4.3,4.22-4.67h0Z"/>
      <path class="st70" d="M536.65,332.01h-42.11l-5.04-56.52h52.18l-5.03,56.52Z"/>
      <path d="M536.66,333.03h-42.12c-.49,0-.91-.4-.96-.92l-5.03-56.52c-.03-.28.06-.57.24-.78.18-.21.45-.33.72-.33h52.18c.27,0,.52.12.71.33.18.21.27.49.25.78l-5.04,56.52c-.05.52-.47.92-.96.92h.01ZM495.42,331h40.35l4.86-54.49h-50.06l4.86,54.49h-.01,0Z"/>
    </g>
    <g>
      <path d="M80.4,188.53c-.17,0-.34-.05-.5-.15-.46-.29-.6-.91-.33-1.39l12.58-21.82c1.66-2.89,3.32-2.82,4.15-2.51.85.31,1.38,1.07,1.73,1.57l14.23,20.39c.32.45.23,1.09-.2,1.42-.43.33-1.04.24-1.35-.22l-14.23-20.39c-.23-.33-.53-.75-.81-.85-.56-.2-1.34.72-1.88,1.64l-12.57,21.82c-.18.32-.5.49-.83.49h.01,0Z"/>
      <path class="st67" d="M95.54,166.52c1.5,0,2.72-1.28,2.72-2.87s-1.22-2.87-2.72-2.87-2.73,1.28-2.73,2.87,1.22,2.87,2.73,2.87Z"/>
      <path d="M95.54,167.53c-2.04,0-3.7-1.74-3.7-3.88s1.66-3.88,3.7-3.88,3.69,1.74,3.69,3.88-1.65,3.88-3.69,3.88ZM95.54,161.81c-.97,0-1.77.83-1.77,1.85s.8,1.85,1.77,1.85,1.76-.83,1.76-1.85-.79-1.85-1.76-1.85Z"/>
      <path class="st71" d="M143.88,183.91l-91.19,4.77,3.66,77.42,91.19-4.77-3.66-77.42h0Z"/>
      <path d="M56.31,267.2c-.24,0-.47-.09-.65-.26-.19-.18-.31-.43-.32-.7l-3.66-77.42c-.02-.56.39-1.03.91-1.06l91.2-4.77c.54-.02.98.41,1.01.96l3.66,77.42c.01.27-.08.53-.25.73-.18.2-.42.32-.67.33l-91.19,4.77h-.05.01ZM53.66,189.72l3.56,75.4,89.26-4.67-3.56-75.4-89.26,4.67Z"/>
      <path class="st55" d="M137.11,191.41l-76.98,4.03,2.99,63.19,76.98-4.03-2.99-63.19Z"/>
      <path d="M63.08,259.71c-.51,0-.94-.42-.97-.97l-2.99-63.18c-.01-.27.08-.53.25-.73.17-.2.41-.32.67-.33l76.99-4.02c.54-.03.98.4,1.01.96l2.98,63.18c0,.27-.08.54-.25.73-.17.2-.41.32-.67.33l-76.98,4.03h-.05.01ZM61.1,196.48l2.89,61.16,75.06-3.92-2.89-61.16-75.06,3.92Z"/>
      <path class="st54" d="M87.55,214.97c.34-.02.56-.07.66-.15.1-.1.53-.14,1.29-.12.76,0,1.19.03,1.29.09.12.06.27.11.45.15.34.1.72.36,1.14.78.46.46.75.83.87,1.11.02.08.07.2.15.36.18.28.3.65.36,1.11.06.44.04.77-.06.99-.04.12-.07.36-.09.72-.02.34-.08.61-.18.81-.02.06-.11.24-.27.54-.06.14-.23.37-.51.69-.28.3-.43.49-.45.57-.06.1-.09.35-.09.75s-.01.9-.03,1.5c-.04.62-.02.97.06,1.05.08.06.54.09,1.38.09.88.02,1.4.07,1.56.15.36.16.6.4.72.72.08.14.08.32,0,.54-.06.2-.19.37-.39.51l-.21.21-1.38-.03c-1.04,0-2.16.07-3.36.21-.38.04-1.47.06-3.27.06h-2.64l-.45-.18c-.32-.16-.59-.38-.81-.66-.26-.38-.25-.75.03-1.11.12-.12.23-.19.33-.21.12-.02.35.01.69.09.32.08.57.14.75.18.2.02.46.02.78,0,.32-.04.49-.1.51-.18.04-.08.05-.39.03-.93,0-.56-.04-.97-.12-1.23-.12-.58-.08-.99.12-1.23.16-.16.2-.27.12-.33-.06-.12-.11-.18-.15-.18-.08-.02-.24-.16-.48-.42-.22-.28-.39-.5-.51-.66-.08-.1-.17-.26-.27-.48-.1-.12-.18-.32-.24-.6-.06-.3-.11-.49-.15-.57-.08-.1-.12-.32-.12-.66,0-.36.03-.62.09-.78.16-.44.26-.74.3-.9.16-.44.31-.75.45-.93.28-.42.71-.82,1.29-1.2.22-.16.49-.24.81-.24h0ZM90.46,216.68c-.4-.16-.9-.12-1.5.12-.16.06-.28.09-.36.09s-.16.04-.24.12c-.1.04-.23.09-.39.15-.34.12-.59.26-.75.42-.14.16-.29.45-.45.87-.22.54-.22,1.06,0,1.56.24.52.58.89,1.02,1.11.4.2.68.31.84.33.16,0,.53-.09,1.11-.27.56-.18.97-.48,1.23-.9.08-.14.21-.31.39-.51.16-.18.25-.35.27-.51.04-.16.1-.29.18-.39.04-.1.06-.25.06-.45,0-.22-.03-.38-.09-.48-.06-.1-.11-.23-.15-.39-.12-.34-.36-.58-.72-.72-.12-.02-.27-.07-.45-.15h0ZM89.47,223.28c-.42-.02-.71-.05-.87-.09-.16-.02-.28,0-.36.09-.1.08-.11.2-.03.36.06.08.11.37.15.87.06.48.07.78.03.9-.04.3.06.55.3.75.06.08.28.11.66.09.36-.04.57-.11.63-.21.06-.1.11-.47.15-1.11.02-.74.02-1.2,0-1.38l-.06-.24-.6-.03h0ZM92.53,229.49c.26-.12.44-.18.54-.18.34,0,.68.17,1.02.51.16.16.26.31.3.45.06.12.09.35.09.69,0,.36.02.65.06.87.06.2.09.46.09.78,0,.92.08,1.68.24,2.28.1.4.09.75-.03,1.05-.02.08-.07.16-.15.24-.06.08-.12.14-.18.18-.04.06-.1.11-.18.15s-.14.06-.18.06c-.26,0-.52-.13-.78-.39-.12-.12-.24-.3-.36-.54-.14-.26-.22-.61-.24-1.05,0-.46-.03-.76-.09-.9-.04-.1-.07-.29-.09-.57,0-.84-.06-1.31-.18-1.41-.04-.06-.17-.06-.39,0-.4.08-2.1.12-5.1.12-1.36,0-2.15,0-2.37-.03-.22-.04-.43-.18-.63-.42-.28-.34-.38-.67-.3-.99.02-.12.11-.23.27-.33.14-.1.46-.15.96-.15.44.02.79.06,1.05.12.24.02.54.02.9,0,.34-.06,1.03-.1,2.07-.12,1.04-.02,1.63-.07,1.77-.15s.43-.12.87-.12c.4.02.74-.03,1.02-.15h0ZM112.63,215.51c.36-.2.7-.16,1.02.12.26.22.42.39.48.51.06.1.11.31.15.63.12,1.48.16,2.25.12,2.31-.04.04-.06.59-.06,1.65s.02,1.79.06,2.25c.04.54,0,.94-.12,1.2-.24.64-.65.83-1.23.57-.22-.1-.41-.24-.57-.42l-.21-.3v-3c.04-1.94.03-3.27-.03-3.99-.04-.62-.03-1.01.03-1.17.08-.16.2-.28.36-.36h0ZM105.76,215.96c.08-.04.16-.06.24-.06s.24.07.48.21c.26.12.43.23.51.33.14.16.2.35.18.57,0,.2-.12.55-.36,1.05-.22.52-.39.88-.51,1.08-.1.18-.15.31-.15.39,0,.24.16.53.48.87.12.16.22.29.3.39.06.08.12.12.18.12.1,0,.37.2.81.6.18.2.33.31.45.33.14.02.24.06.3.12.02.02.17.12.45.3.26.16.52.37.78.63.26.24.4.41.42.51.08.28-.06.53-.42.75s-.68.25-.96.09c-.04,0-.11-.02-.21-.06-.1-.06-.16-.1-.18-.12-.16-.08-.24-.14-.24-.18s-.07-.08-.21-.12c-.14-.12-.29-.23-.45-.33-.26-.18-.42-.29-.48-.33-.04-.04-.17-.14-.39-.3-.12-.08-.24-.15-.36-.21-.14-.12-.37-.32-.69-.6-.38-.32-.61-.49-.69-.51s-.17.03-.27.15c-.14.14-.31.39-.51.75l-.48.75c-.06.12-.14.26-.24.42-.02.1-.07.22-.15.36-.08.12-.13.22-.15.3-.14.26-.32.44-.54.54-.18.08-.35.09-.51.03-.14-.06-.24-.09-.3-.09-.04,0-.11-.04-.21-.12-.08-.1-.16-.22-.24-.36-.08-.16-.13-.29-.15-.39-.08-.38.02-.76.3-1.14.22-.22.33-.36.33-.42,0-.1.27-.51.81-1.23.26-.34.4-.55.42-.63.06-.18.26-.46.6-.84.16-.14.25-.29.27-.45.04-.16.1-.27.18-.33s.12-.11.12-.15.05-.13.15-.27c.24-.3.41-.64.51-1.02.24-.8.5-1.26.78-1.38h0ZM110.5,226.19c.6-.06,1.17-.09,1.71-.09s.89.07,1.05.21c.18.12.34.25.48.39l.15.24v1.89c0,1.26-.04,1.98-.12,2.16-.08.16-.2.31-.36.45-.16.12-.38.18-.66.18-.26,0-.56-.04-.9-.12-.54-.1-1.07-.1-1.59,0-.26.04-.95.07-2.07.09-.92.02-1.71.04-2.37.06l-.72.06-.12.18c-.04.1-.04.41,0,.93.04.48.09.77.15.87.08.08.32.12.72.12.32,0,.62.03.9.09.26.02.5,0,.72-.06.24-.08,1.36-.12,3.36-.12h3l.36.18c.52.28.81.57.87.87.08.38-.1.7-.54.96-.2.1-.48.15-.84.15-.3-.02-.75-.06-1.35-.12-.44-.06-1.13-.08-2.07-.06s-1.53.07-1.77.15c-.18.04-.41.04-.69,0-.26-.08-.57-.11-.93-.09-1.46.08-2.44,0-2.94-.21-.12-.02-.29-.15-.51-.39-.2-.22-.3-.38-.3-.48,0-.12-.04-.23-.12-.33-.08-.16-.13-.82-.15-1.98-.02-.54-.05-.88-.09-1.02-.08-.24-.09-.5-.03-.78.06-.28.15-.49.27-.63.14-.12.3-.19.48-.21.2-.04.55-.03,1.05.03,1.14.12,1.8.18,1.98.18s.4-.02.66-.06c.34-.06.63-.09.87-.09.2,0,.55-.03,1.05-.09,1.14-.14,1.84-.21,2.1-.21.34,0,.55-.16.63-.48.02-.12.01-.3-.03-.54s-.08-.38-.12-.42c-.12-.12-1.03-.07-2.73.15-1.02.12-2.38.2-4.08.24-.64,0-1.11-.05-1.41-.15-.28-.12-.52-.33-.72-.63-.1-.16-.17-.33-.21-.51-.02-.18.05-.35.21-.51.16-.14.29-.22.39-.24.08-.02.4-.02.96,0,.56.06.97.07,1.23.03.26,0,.48.02.66.06.2.02.37.02.51,0,.2-.04.76-.08,1.68-.12.9-.04,1.68-.1,2.34-.18h0Z"/>
    </g>
    <g class="st58">
      <g>
        <g>
          <path class="st47" d="M223.97,256.13h-20.2c-1.58,0-2.86,1.28-2.86,2.86v71.34c0,1.58,1.28,2.86,2.86,2.86h20.2c1.58,0,2.86-1.28,2.86-2.86v-71.34c0-1.58-1.28-2.86-2.86-2.86Z"/>
          <g class="st69">
            <g>
              <path class="st46" d="M197.71,283.27c.59-2.53,2.86-4.39,5.3-5.26,2.45-.87,5.09-.92,7.69-1.01,2.59-.1,5.26-.27,7.61-1.37,2.12-.98,3.84-2.64,5.71-4.05,1.86-1.41,4.05-2.65,6.38-2.55"/>
              <path class="st46" d="M195.66,279.76c2.44-5.55,7.2-10.46,13.2-11.36,2.73-.41,5.61.01,8.21-.93,2.62-.96,4.56-3.15,6.58-5.09,2.01-1.93,4.48-3.77,7.27-3.68"/>
              <path class="st46" d="M196.18,324.79c1.68-4.55,5.91-8.05,10.69-8.86,3.07-.52,6.3,0,9.25-.98,3.03-1.01,5.31-3.45,7.65-5.62,2.34-2.17,5.12-4.25,8.31-4.25"/>
              <path class="st46" d="M196.75,330.62c1.69-3.77,5.72-6.37,9.85-6.35,2.81.02,5.59,1.14,8.37.76,3.27-.44,5.89-2.84,8.35-5.05,2.46-2.22,5.28-4.47,8.59-4.53"/>
            </g>
          </g>
        </g>
        <path class="st23" d="M223.97,256.13h-20.2c-1.58,0-2.86,1.28-2.86,2.86v71.34c0,1.58,1.28,2.86,2.86,2.86h20.2c1.58,0,2.86-1.28,2.86-2.86v-71.34c0-1.58-1.28-2.86-2.86-2.86Z"/>
        <path class="st18" d="M223.4,246.97h-19.06v9.15h19.06v-9.15Z"/>
        <path class="st16" d="M219.97,234.77h-12.2v12.21h12.2v-12.21Z"/>
        <path d="M223.37,292.3c-1.31-5.25-6.62-8.44-11.87-7.14-5.24,1.31-8.43,6.62-7.13,11.87,1.31,5.25,6.62,8.44,11.87,7.14,5.24-1.31,8.44-6.62,7.13-11.87ZM215.01,301.74c-3.9.63-7.57-2.03-8.21-5.93-.63-3.9,2.03-7.58,5.93-8.21,3.9-.63,7.57,2.03,8.2,5.93.63,3.9-2.02,7.58-5.92,8.21Z"/>
      </g>
    </g>
    <g class="st65">
      <g>
        <path class="st14" d="M396.33,275.63h-27.43c0,28,4.59,47.17,4.59,47.17l8.95.32h.17s.17.01.17.01l8.96-.33s4.59-19.17,4.59-47.17h0Z"/>
        <g class="st53">
          <g>
            <path class="st38" d="M371.51,317.59c.39-2.36,2.59-4.28,4.96-4.32,1.37-.03,2.73.5,4.09.3,1.44-.21,2.64-1.21,3.62-2.3.98-1.09,1.83-2.31,2.98-3.21,1.44-1.13,3.33-1.67,5.15-1.48,1.77.18,3.55,1.15,4.26,2.79.72,1.64-.04,3.91-1.74,4.42-1.08.33-2.25-.07-3.38.02-3.3.24-5.47,4.34-8.78,4.27-1.24-.03-2.36-.65-3.52-1.09-1.15-.44-2.53-.69-3.57-.01-.6.39-.99,1.04-1.46,1.58-.47.55-1.12,1.05-1.83.97-.72-.08-.94-.9-.77-1.93h-.01Z"/>
            <path class="st38" d="M367.74,295.58c.6-1.25,1.22-2.51,2.09-3.59s2.04-1.97,3.4-2.23c1.05-.21,2.16-.03,3.21-.26,2.4-.54,4.04-3.12,6.48-3.36,1.9-.18,3.6,1.12,4.95,2.48,1.36,1.35,2.69,2.9,4.52,3.41,2.33.65,4.91-.65,6.25-2.68,1.33-2.03,1.61-4.62,1.31-7.04-.29-2.34-1.17-4.76-3.08-6.14-1.82-1.32-4.22-1.45-6.48-1.46-6.59-.05-13.17.39-19.74.84-.74.05-1.5.11-2.14.46-.98.54-1.49,1.64-1.87,2.7-1.71,4.92-1.62,10.46,1.1,16.87Z"/>
          </g>
        </g>
        <path class="st39" d="M381.96,290.65c-.98-.71-2.42-.16-3.18.77-.78.92-1.12,2.13-1.66,3.21-.75,1.5-1.91,2.79-2.43,4.39-.82,2.53.33,5.58,2.62,6.91,2.3,1.33,5.48.82,7.25-1.16.94-1.05,1.51-2.44,2.65-3.26.63-.46,1.41-.7,2.04-1.16,1.94-1.41,1.89-4.56.39-6.43-1.5-1.87-4.63-1.08-7.68-3.27h0Z"/>
        <path class="st25" d="M391.88,322.8h-18.39v9.46h18.39v-9.46Z"/>
        <path class="st30" d="M380.05,299.85c-.72,1.04-1.96,1.7-3.22,1.69-1.26,0-2.5-.68-3.19-1.74-.41-.61-.56-1.57.06-1.96.36-.22.9-.2,1.09-.58.14-.29-.03-.64-.1-.96-.19-.86.53-1.79,1.4-1.82.43-.01.89.16,1.28-.02.3-.14.47-.44.7-.67.66-.63,1.81-.53,2.49.08.68.6.95,1.58.89,2.49-.07.91-.29,1.86-1.4,3.49h0Z"/>
        <path class="st49" d="M376.22,299.31c.66.99,1.94,1.51,3.09,1.26"/>
        <path class="st49" d="M377.77,297.41c.89.79,1.57,1.84,1.93,2.99"/>
        <path class="st49" d="M379.45,296.27c.75,1.05.97,2.46.3,3.72,1.97,1.38,3.38,3.56,3.84,5.94"/>
        <path class="st49" d="M383.09,304.18c-.17-2.4.64-4.85,2.2-6.67"/>
        <path class="st30" d="M386.84,297.87c-1.21-.1-2.37-.78-3.07-1.78-.69-1.01-.92-2.33-.59-3.52.16-.55.44-1.1.89-1.45.46-.35,1.11-.48,1.62-.23.44.21.74.66,1.2.79.74.22,1.58-.47,2.27-.13.78.38.61,1.58,1.15,2.25.27.33.68.49.99.78.61.55.74,1.54.38,2.29-.35.75-1.1,1.26-1.91,1.44-.8.18-1.57-.32-2.93-.44h0Z"/>
        <path class="st49" d="M385.29,297.5c-.63-1.2-.88-3.16.12-4.08"/>
        <path class="st49" d="M387.48,294.66c-1.04.59-1.78,1.69-1.81,2.88,1.4.13,2.84-.49,3.72-1.6"/>
        <path class="st49" d="M374.28,329.48h17.6"/>
        <path class="st49" d="M369.89,278.77h25.68"/>
        <path class="st49" d="M370.7,276.3v2.48"/>
        <path class="st49" d="M372.7,276.3v2.48"/>
        <path class="st49" d="M374.71,276.3v2.48"/>
        <path class="st49" d="M376.71,276.3v2.48"/>
        <path class="st49" d="M378.72,276.3v2.48"/>
        <path class="st49" d="M380.73,276.3v2.48"/>
        <path class="st49" d="M382.73,276.3v2.48"/>
        <path class="st49" d="M384.73,276.3v2.48"/>
        <path class="st49" d="M386.73,276.3v2.48"/>
        <path class="st49" d="M388.74,276.3v2.48"/>
        <path class="st49" d="M390.74,276.3v2.48"/>
        <path class="st49" d="M392.74,276.3v2.48"/>
        <path class="st49" d="M394.75,276.3v2.48"/>
      </g>
      <g>
        <g class="st62">
          <g>
            <path class="st40" d="M371.51,317.59c.39-2.36,2.59-4.28,4.96-4.32,1.37-.03,2.73.5,4.09.3,1.44-.21,2.64-1.21,3.62-2.3.98-1.09,1.83-2.31,2.98-3.21,1.44-1.13,3.33-1.67,5.15-1.48,1.77.18,3.55,1.15,4.26,2.79.72,1.64-.04,3.91-1.74,4.42-1.08.33-2.25-.07-3.38.02-3.3.24-5.47,4.34-8.78,4.27-1.24-.03-2.36-.65-3.52-1.09-1.15-.44-2.53-.69-3.57-.01-.6.39-.99,1.04-1.46,1.58-.47.55-1.12,1.05-1.83.97-.72-.08-.94-.9-.77-1.93h-.01Z"/>
            <path class="st40" d="M367.74,295.58c.6-1.25,1.22-2.51,2.09-3.59s2.04-1.97,3.4-2.23c1.05-.21,2.16-.03,3.21-.26,2.4-.54,4.04-3.12,6.48-3.36,1.9-.18,3.6,1.12,4.95,2.48,1.36,1.35,2.69,2.9,4.52,3.41,2.33.65,4.91-.65,6.25-2.68,1.33-2.03,1.61-4.62,1.31-7.04-.29-2.34-1.17-4.76-3.08-6.14-1.82-1.32-4.22-1.45-6.48-1.46-6.59-.05-13.17.39-19.74.84-.74.05-1.5.11-2.14.46-.98.54-1.49,1.64-1.87,2.7-1.71,4.92-1.62,10.46,1.1,16.87Z"/>
          </g>
        </g>
        <path class="st23" d="M396.33,275.63h-27.43c0,28,4.59,47.17,4.59,47.17l8.95.32h.17s.17.01.17.01l8.96-.33s4.59-19.17,4.59-47.17h0Z"/>
        <path class="st38" d="M381.96,290.65c-.98-.71-2.42-.16-3.18.77-.78.92-1.12,2.13-1.66,3.21-.75,1.5-1.91,2.79-2.43,4.39-.82,2.53.33,5.58,2.62,6.91,2.3,1.33,5.48.82,7.25-1.16.94-1.05,1.51-2.44,2.65-3.26.63-.46,1.41-.7,2.04-1.16,1.94-1.41,1.89-4.56.39-6.43-1.5-1.87-4.63-1.08-7.68-3.27h0Z"/>
        <path class="st25" d="M391.88,322.8h-18.39v9.46h18.39v-9.46Z"/>
        <path class="st25" d="M380.05,299.85c-.72,1.04-1.96,1.7-3.22,1.69-1.26,0-2.5-.68-3.19-1.74-.41-.61-.56-1.57.06-1.96.36-.22.9-.2,1.09-.58.14-.29-.03-.64-.1-.96-.19-.86.53-1.79,1.4-1.82.43-.01.89.16,1.28-.02.3-.14.47-.44.7-.67.66-.63,1.81-.53,2.49.08.68.6.95,1.58.89,2.49-.07.91-.29,1.86-1.4,3.49h0Z"/>
        <path class="st49" d="M376.22,299.31c.66.99,1.94,1.51,3.09,1.26"/>
        <path class="st49" d="M377.77,297.41c.89.79,1.57,1.84,1.93,2.99"/>
        <path class="st49" d="M379.45,296.27c.75,1.05.97,2.46.3,3.72,1.97,1.38,3.38,3.56,3.84,5.94"/>
        <path class="st49" d="M383.09,304.18c-.17-2.4.64-4.85,2.2-6.67"/>
        <path class="st25" d="M386.84,297.87c-1.21-.1-2.37-.78-3.07-1.78-.69-1.01-.92-2.33-.59-3.52.16-.55.44-1.1.89-1.45.46-.35,1.11-.48,1.62-.23.44.21.74.66,1.2.79.74.22,1.58-.47,2.27-.13.78.38.61,1.58,1.15,2.25.27.33.68.49.99.78.61.55.74,1.54.38,2.29-.35.75-1.1,1.26-1.91,1.44-.8.18-1.57-.32-2.93-.44h0Z"/>
        <path class="st49" d="M385.29,297.5c-.63-1.2-.88-3.16.12-4.08"/>
        <path class="st49" d="M387.48,294.66c-1.04.59-1.78,1.69-1.81,2.88,1.4.13,2.84-.49,3.72-1.6"/>
        <path class="st49" d="M374.28,329.48h17.6"/>
        <path class="st49" d="M369.89,278.77h25.68"/>
        <path class="st49" d="M370.7,276.3v2.48"/>
        <path class="st49" d="M372.7,276.3v2.48"/>
        <path class="st49" d="M374.71,276.3v2.48"/>
        <path class="st49" d="M376.71,276.3v2.48"/>
        <path class="st49" d="M378.72,276.3v2.48"/>
        <path class="st49" d="M380.73,276.3v2.48"/>
        <path class="st49" d="M382.73,276.3v2.48"/>
        <path class="st49" d="M384.73,276.3v2.48"/>
        <path class="st49" d="M386.73,276.3v2.48"/>
        <path class="st49" d="M388.74,276.3v2.48"/>
        <path class="st49" d="M390.74,276.3v2.48"/>
        <path class="st49" d="M392.74,276.3v2.48"/>
        <path class="st49" d="M394.75,276.3v2.48"/>
      </g>
    </g>
    <g>
      <path class="st22" d="M419.2,295.76c.51-1.1.34-2.37-.41-3.23-.72-.81-1.9-1.27-2.74-.88-1.23.57-2.01,1.85-2.59,2.99-.22.42-.43.87-.61,1.34-.2-1.64-.73-3.38-2.14-3.56-1.39-.17-2.18,1.72-2.45,2.71-.24.89-.32,1.87-.26,2.84-.59-1.39-1.2-2.79-2.42-3.7-1.52-1.12-2.99.16-3.5,1.57-.75,2.11.34,4.59,1.31,6.45.49.94,1.11,1.8,1.58,2.74.45.89.89,1.84,1.58,2.58.18.19.42.08.52-.09.92,1.31,2.01,2.58,3.71,2.83,1.54.23,2.91-.85,3.96-1.94.81-.28,1.69-.67,2.6-1.2,3.37-1.98,5.17-4.86,6.03-6.56,1.45-2.35.67-4.92-.78-5.61-.97-.46-2.31-.11-3.39.72Z"/>
      <path class="st28" d="M425.57,326.25c0,3.21-2.68,6.03-5.98,6.03h-14.36c-3.3,0-5.98-2.82-5.98-6.03l1.6-15.29c0-3.21,2.67-5.62,5.98-5.62h11.17c3.31,0,5.99,2.41,5.99,5.62l1.59,15.29h-.01Z"/>
      <path class="st34" d="M407.41,298.51c.74-.6,1.59-.63,2.34-.38.77.26,1.45.83,1.9,1.41.6.78,1.06,1.79,1.29,2.83.4-.43.81-.85,1.22-1.24.46-.44,1.1-1.06,1.83-1.55.72-.49,1.6-.9,2.57-.85h0c1.14.06,1.8.87,2.06,1.72.24.82.15,1.81-.32,2.45l-.2.28h-.03c-.54.63-1.24,1.12-2.01,1.5.33.02.65.04.98.07h0c.37.03.72.3.72.72s-.35.69-.72.72h0c-1.95.15-3.86.21-5.79.23.29.71.55,1.44.82,2.1.37.91.79,1.77,1.36,2.56l.22.28c.52.65,1.14,1.23,1.87,1.76l.23.16c.08.05.16.11.24.16.17.11.35.22.53.35.35.24.71.53.98.91h0c.25.35.15.75-.08.99-.21.22-.54.34-.87.27-1.09-.23-2.05-1.04-2.7-1.6l-.29-.26c-.57-.52-1.13-1.1-1.57-1.74l-.2-.33c-.58-.98-.94-2-1.25-2.99-.05.33-.11.66-.16.97-.24,1.52-.38,3.07-.46,4.61,0,.27-.13.49-.3.62-.16.14-.37.21-.56.23-.19.02-.42,0-.62-.13-.2-.12-.34-.32-.38-.57v-.11c-.06-1.65.23-3.18.51-4.74.11-.63.21-1.33.31-2,.06-.38.12-.75.19-1.09-.59-.01-1.17-.05-1.74-.1-.65-.05-1.29-.1-1.93-.11-.49,0-1.07-.02-1.64-.1-.57-.08-1.16-.22-1.67-.5h-.01c-.17-.11-.33-.3-.33-.57s.16-.46.35-.56h0c.58-.32,1.28-.4,1.92-.42.33-.01.66,0,.96,0,.32,0,.6.02.86.02h1.39c-.5-.28-.97-.58-1.38-.92l-.18-.15c-.71-.61-1.22-1.41-1.36-2.28-.13-.89.15-1.79.95-2.53l.15-.13v.03ZM418.35,300.51c-.11,0-.27.03-.45.12-1.39.63-2.67,1.76-3.73,2.98.29,0,.55,0,.78.01,1.17.01,2.32-.39,3.13-1.08.36-.31.61-.66.7-.99.08-.31.04-.62-.22-.94h0c-.06-.07-.12-.1-.21-.1h0ZM408.9,299.66c-.17.03-.34.16-.49.39-.13.21-.21.44-.23.62v.16c0,.67.43,1.17,1.16,1.63.57.36,1.23.65,1.93.96-.07-.98-.44-2.07-.98-2.75-.17-.21-.39-.48-.65-.7-.27-.23-.49-.33-.66-.32h-.08Z"/>
    </g>
    <g class="st0">
      <g>
        <path d="M510.45,285.53h-10.62v6.1h10.62v-6.1Z"/>
        <path class="st9" d="M499.19,282.76h11.9c1.5,0,2.72,1.21,2.72,2.69v.16c0,1.49-1.22,2.69-2.72,2.69h-11.9c-1.5,0-2.72-1.21-2.72-2.69v-.16c0-1.48,1.22-2.69,2.72-2.69Z"/>
        <path class="st13" d="M524.14,308.98c0,10.22-8.51,18.5-19,18.5s-19-8.28-19-18.5,8.51-18.5,19-18.5,19,8.28,19,18.5h0Z"/>
        <path class="st13" d="M515.49,330.84c0,1.21-1.38,2.37-2.6,2.37h-16.21c-1.22,0-1.88-1.16-1.88-2.37v-.46c0-1.21.66-2.16,1.88-2.16h16.21c1.22,0,2.6.95,2.6,2.16v.46Z"/>
        <path class="st26" d="M505.99,298.83h-1.16c-3.85,0-6.97,3.09-6.97,6.91v5.59c0,3.82,3.12,6.91,6.97,6.91h1.16c3.85,0,6.97-3.09,6.97-6.91v-5.59c0-3.81-3.12-6.91-6.97-6.91Z"/>
        <path class="st52" d="M505.43,314.43c-8.58-2.8-.45-12.43-.45-12.43,8.25,9.74.45,12.43.45,12.43Z"/>
      </g>
    </g>
    <g class="st1">
      <g>
        <path class="st24" d="M168.92,244.83h-5.41v12.71h5.41v-12.71Z"/>
        <path class="st3" d="M185.13,240.81h-29.72v5.35h29.72v-5.35Z"/>
        <path class="st3" d="M175.67,252.86h-18.91v19.4h18.91v-19.4Z"/>
        <path class="st8" d="M190.25,322.86c0,5.59-4.57,10.28-10.21,10.28h-25.89c-5.64,0-10.22-4.7-10.22-10.28l2.72-45.52c0-5.59,4.58-9.76,10.22-9.76h20.44c5.64,0,10.21,4.17,10.21,9.76l2.73,45.52h0Z"/>
        <path class="st19" d="M182.43,311.08c0,7.5-6.46,14.04-14.03,14.04h-2.65c-7.57,0-13.72-6.53-13.72-14.04v-11.34c0-7.5,6.15-13.43,13.72-13.43h2.65c7.57,0,14.03,5.93,14.03,13.43v11.34Z"/>
        <path class="st41" d="M167.68,318.02c-16.9-5.51-.88-24.45-.88-24.45,16.23,19.16.88,24.45.88,24.45Z"/>
      </g>
    </g>
    <g>
      <path d="M450.95,332.89c3.06-3.49,5.34-7.57,8.2-11.22,1.49-1.89,3.06-3.73,4.84-5.36,1.63-1.48,3.41-2.78,5.13-4.15,1.87-.42,3.41-2.63,1.38-3.97-1.14-.75-2.48-.34-3.61.22-.68.34-1.24.77-1.76,1.25-.14-.07-.32-.04-.42.13-.2.31-.4.61-.62.91-.62.67-1.24,1.35-1.99,1.93-.12.09-.13.22-.09.32-.13.1-.25.2-.37.3-3.33,2.56-7.49,4.62-11.76,4.39-3.75-.2-7.37-1.03-11.02.3-6.38,2.31-9.68,10.41-5.49,16.16,4.61,6.33,13.03,3.94,17.58-1.23v.02ZM440.94,336.21c-3.47,0-6.21-2.2-7.29-5.5-1.14-3.51.37-7.66,3.36-9.79,3.07-2.19,6.58-2.14,10.17-1.81,1.85.17,3.68.3,5.53.06,1.73-.23,3.39-1.02,4.94-1.8,2.76-1.4,5.42-3.24,6.99-5.94,1.27-.99,2.61-1.94,4.13-1.93,2.14.03-.84,1.43-1.25,1.74-.06.05-.12.12-.16.19-7.34,3.71-11.34,11.92-16.15,18.2-2.51,3.28-5.85,6.58-10.27,6.58h0Z"/>
      <path class="st11" d="M467.13,333.41c2.7,1.97,6.05,2.46,9,1.28,1.12-.45,1.91-1.41,2.32-2.56.83.54,1.72.97,2.64,1.28,2.94.99,6.49,1.49,9.35.4,2.07-.79,4.11-2.41,4.45-4.82.27-1.91-.51-3.57-1.71-4.98,2.49.75,5.29.52,7.36-.82,2.46-1.59,3.68-4.82,2.49-7.82-.71-1.78-1.94-3.3-3.35-4.6.59-1.26.71-2.79.13-4.54-.87-2.65-3.06-4.86-5.84-5.25-.3-.04-.61-.06-.9-.07-.87-1.74-2.08-3.32-3.13-4.16-2.05-1.64-4.77-2.36-6.91-.83-.61.44-1.15,1.02-1.59,1.69-1.11-.35-2.2-.58-3.2-.64-1.91-.12-4.08-.23-5.8.62-1.74.86-2.11,2.35-1.83,4.28.14,1,.67,1.99,1.42,2.85-1.22-.2-2.44-.32-3.64-.32-2.77-.01-6.78.49-8.01,3.39-.99,2.32-.33,5.36,1.12,7.51.35.52.78,1.02,1.26,1.41-.03.07-.05.15-.07.23-.57,2.22-.92,4.9-.52,7.24.58,3.37,2.08,7.1,4.96,9.21h0v.02Z"/>
    </g>
  </g>
  <g>
    <g>
      <path class="st21" d="M292.27,460.27c-6.95-7.6-16.02-1.23-20.77,12.3-3.96,11.31-9.66,27.97-3.94,32.03,1.22,1.26,3.15,2.66,6.04,4.43,5.94,3.65,13.04,5.06,15.78.27,2.34-4.1,3.81-11.94-2.22-14.28,2.39-2.66,4.48-5.58,5.97-8.45,5.5-10.66,4.12-20.86-.86-26.3Z"/>
      <path class="st64" d="M194.16,350.04c-28.95-25.39-61.55-31.26-72.82-13.1-11.27,18.16,3.07,53.47,32.02,78.86,6.17,5.41,12.51,9.93,18.76,13.52,9.99,20.89,24.89,37.69,39.13,42.2,20.53,6.51,31.88-15,25.35-48.04-2.67-13.52-7.93-26.87-14.61-38.38-6.19-12.11-15.73-24.46-27.83-35.08Z"/>
      <ellipse class="st21" cx="252.09" cy="436.06" rx="51.01" ry="43.6" transform="translate(-251.59 436.35) rotate(-60)"/>
      <path class="st21" d="M251.21,496.43c1.95-4.03,3.38-8.3,3.95-12.18,1.91-12.89-3.88-22.4-11.85-25.66-11.13-4.55-18.92,5.62-18.78,21.04.12,12.88.46,31.79,8.7,33.37,1.98.68,4.84,1.2,8.92,1.68,8.37.99,16.83-.54,17.32-6.05.39-4.38-1.72-11.43-8.26-12.21Z"/>
      <path class="st4" d="M288.81,423.2c-1.48,1.08-2.94,2.33-4.33,3.74-8.07,8.23-10.75,18.75-5.97,23.51,4.78,4.76,15.19,1.94,23.27-6.28,5.97-6.08,8.98-13.42,8.22-18.75.08-2.4-.23-5.01-.97-7.66-2.51-9-9.06-15.04-14.63-13.48-5.53,1.54-8.02,9.99-5.59,18.92Z"/>
    </g>
    <g>
      <path class="st7" d="M311.65,357.3c-3.52-3.38-6.57-7.23-9.52-11.12-1.4-1.85-2.96-3.58-4.66-5.19-1.58-1.5-1.78-3.88-.53-5.66,1.13-1.62,2.04-3.8,2.85-6.14,2.7-7.9-2.06-9.92-5.78-10.29-3.72-.37-7.17,3.63-7.71,8.95,0,.02,0,.04,0,.06-.21,2.16-2.4,3.52-4.37,2.62-10.51-4.79-26.41-8.43-40.7,2.88-1.03.82-2.56.18-2.73-1.12v-.02c-.23-1.72-.57-3.43-1.01-5.11-.41-1.57-.95-3.2-2.04-4.45-.49-.56-1.11-.99-1.8-1.26-.83-.32-1.76-.31-2.62-.13-1.56.34-3,1.3-4.12,2.41-1.06,1.06-1.88,2.33-2.45,3.71-1.14,2.75-1.08,5.86.2,8.55.57,1.2,1.37,2.29,2.34,3.21,1.55,1.47,1.57,3.93.21,5.58-2.92,3.54-5.26,7.52-6.88,11.8-1.25,3.32-3.26,6.28-5.59,8.95-3.55,4.07-5.57,8.74-5.57,13.7,0,12.03,11.86,22.33,28.71,26.65,7.47,4.74,16.51,7.51,26.26,7.51,15.67,0,29.51-7.17,37.91-18.13,10.41-5.28,17.06-13.32,17.06-22.33,0-5.76-2.73-11.12-7.41-15.62Z"/>
      <path class="st32" d="M265.66,354.77c-.02-.24-.05-.49-.09-.73-.01-.07-.04-.14-.05-.22-.03-.19-.07-.37-.12-.55-.14-.42-.35-.78-.63-1.12-.24-.28-.54-.52-.87-.68-.19-.09-.38-.17-.58-.22-.2-.06-.41-.08-.62-.11-.75-.08-1.51.12-2.16.49-.36.2-.69.47-.98.76,0,0,0,0,0,0-.04.04-.09.07-.13.1-.41.36-.77.77-1.13,1.18-.38.44-.77.89-1.09,1.38-.17.27-.31.55-.42.85-.11.28-.16.57-.19.87-.05.44.02.92.21,1.33.04.2.11.39.21.57.08.13.17.25.27.36,0,0,0,0,0,0,.38.65,1.01,1.11,1.7,1.38.07.06.15.1.24.14.35.12.72.2,1.09.22.37.02.74-.02,1.11-.08.68-.11,1.34-.37,1.92-.75.63-.41,1.16-.94,1.55-1.57.4-.64.63-1.36.72-2.11.01-.09,0-.19.01-.28,0-.03.01-.07.02-.1.02-.15.03-.31.03-.46,0-.02,0-.03,0-.05.01-.2.01-.39,0-.59Z"/>
      <path class="st64" d="M290.86,348.43c-.24-.06-.48-.12-.72-.15-.07-.01-.15-.01-.22-.02-.19-.04-.37-.06-.56-.06-.44,0-.85.07-1.27.23-.34.13-.67.34-.93.6-.15.15-.29.3-.4.47-.12.17-.22.36-.31.55-.32.68-.38,1.46-.25,2.2.08.4.21.8.39,1.17,0,0,0,0,0,.01.02.05.03.11.05.16.21.5.47.98.74,1.45.29.51.58,1.02.94,1.48.2.25.42.47.66.68.23.19.48.34.75.47.4.19.87.28,1.32.24.2.02.41.03.61,0,.15-.03.29-.08.43-.14,0,0,0,0,0,0,.74-.14,1.38-.59,1.87-1.15.08-.04.15-.1.21-.18.23-.29.43-.61.56-.95.14-.35.23-.71.29-1.08.12-.68.09-1.39-.07-2.06-.18-.73-.51-1.4-.97-1.98-.48-.59-1.08-1.04-1.75-1.38-.09-.04-.18-.07-.26-.11-.03-.02-.06-.03-.09-.05-.14-.07-.28-.13-.43-.18-.02,0-.03-.02-.05-.02-.18-.08-.37-.14-.56-.19Z"/>
      <ellipse id="_오른반사광" data-name="오른반사광" class="st54" cx="262.55" cy="353.23" rx="1.57" ry="1.5"/>
      <ellipse id="_왼반사광" data-name="왼반사광" class="st54" cx="288.64" cy="350.91" rx="1.57" ry="1.5" transform="translate(-61.98 61.92) rotate(-11.06)"/>
      <ellipse class="st60" cx="232.54" cy="331.74" rx="3.64" ry="5.63" transform="translate(-103.91 106.07) rotate(-21.12)"/>
      <ellipse class="st60" cx="292.05" cy="329.4" rx="5.63" ry="3.64" transform="translate(-139.24 417.63) rotate(-60)"/>
      <ellipse class="st68" cx="239.09" cy="381.06" rx="20.33" ry="19.4"/>
      <ellipse class="st68" cx="304.03" cy="371.26" rx="13.79" ry="13.55"/>
      <path id="_주둥이" data-name="주둥이" class="st59" d="M299.09,374.9c-.83,9.49-10.13,17.18-20.78,17.18s-18.6-7.69-17.77-17.18,10.13-17.18,20.78-17.18,18.6,7.69,17.77,17.18Z"/>
      <path class="st64" d="M293.56,375.12c0-.1-.14-.23-.25-.28-.12-.05-.24-.07-.38-.05-.31.03-.52.22-.57.45-.02.08-.03.17-.05.25-.02.07-.05.14-.07.22.01-.04.02-.09.04-.13-.08.27-.21.53-.36.78-.17.25-.38.49-.61.71-.25.21-.52.4-.81.58-.27.14-.55.26-.85.36-.28.08-.57.14-.86.18-.3.02-.59.02-.88,0-.34-.04-.67-.11-.98-.21-.31-.11-.6-.24-.86-.4-.25-.17-.48-.36-.68-.56-.16-.19-.29-.39-.39-.6-.02-.06-.05-.12-.07-.19,0-.03-.03-.06-.05-.09.14-.25.28-.5.38-.75.32-.76.48-1.54.52-2.32.02-.43,0-.86-.04-1.28-.04-.38-.09-.77-.2-1.15-.05-.17-.1-.33-.15-.5,3.46-.6,6.2-2.7,6.46-5.2.31-2.97-2.97-5.38-7.32-5.38s-8.14,2.41-8.45,5.38,2.97,5.38,7.32,5.38c.26,0,.52,0,.78-.03,0,.01,0,.03,0,.04.07.36.12.73.17,1.09.03.19.05.37.07.56,0,.05,0,.09.01.14,0,0,0,0,0,0,0,0,0,0,0,.02,0,.09.01.19.01.28.01.37,0,.75-.05,1.12-.02.18-.05.36-.09.54-.02.09-.04.19-.06.28,0,.02-.04.14-.02.07.02-.07,0,.01,0,.03,0,.03-.02.05-.02.08-.09.31-.22.61-.37.91-.07.15-.15.29-.24.43-.02.03-.04.06-.06.09,0,0-.02.03-.03.05-.04.06-.08.12-.12.17-.2.27-.42.54-.67.79-.06.06-.12.12-.18.17-.03.03-.06.05-.08.08.13-.12,0,0-.03.02-.14.12-.28.23-.43.34-.15.11-.3.21-.46.31-.03.02-.07.04-.1.06-.01,0-.02.01-.03.02-.08.04-.15.08-.23.12-.17.08-.34.16-.52.23-.08.03-.16.06-.25.09-.04.01-.08.03-.13.04,0,0-.01,0-.02,0-.36.11-.74.19-1.12.24-.04,0-.07,0-.11.01,0,0,0,0-.01,0-.1,0-.19.01-.29.02-.19,0-.38,0-.57,0-.09,0-.17,0-.26-.01-.02,0-.09,0-.1,0-.01,0-.03,0-.03,0-.18-.02-.36-.05-.54-.09-.08-.02-.16-.04-.24-.06-.04-.01-.09-.02-.13-.04-.02,0-.05-.02-.08-.03-.14-.05-.28-.1-.41-.17-.07-.03-.14-.07-.21-.11-.04-.02-.07-.04-.11-.06-.02,0-.03-.02-.05-.03.01,0,.01,0,.02.01-.12-.08-.24-.17-.34-.26-.05-.04-.1-.09-.14-.14-.02-.03-.05-.06-.07-.09-.08-.11-.16-.22-.22-.34-.01-.03-.03-.05-.04-.08,0,0-.01-.03-.02-.05,0-.02-.01-.03-.02-.04-.01-.03-.02-.06-.03-.09-.04-.12-.08-.25-.1-.38-.01-.06-.02-.12-.02-.18,0,0,0,0,0,0,0-.03,0-.06,0-.09,0-.13,0-.26.03-.39,0-.06.02-.12.04-.18,0,0,0-.02,0-.03,0-.02.01-.05.02-.07.04-.12.09-.24.16-.36.03-.05.06-.11.09-.16,0,0,0,0,0,0,.02-.03.05-.07.07-.1.08-.11.18-.22.28-.32,0,0,.01-.01.02-.02.02-.02.05-.04.07-.06.06-.05.12-.1.19-.14.25-.18.3-.51.07-.68-.24-.18-.61-.18-.89,0-1.28.84-1.71,2.23-1.34,3.38.18.58.55,1.13,1.11,1.53.61.44,1.38.74,2.22.87.86.13,1.76.11,2.64-.05.89-.16,1.7-.48,2.45-.91.69-.39,1.29-.88,1.78-1.43.23.36.54.69.92.96.66.47,1.48.82,2.39.94.46.06.93.09,1.4.05.54-.05,1.04-.15,1.55-.32.9-.3,1.68-.81,2.27-1.41.33-.33.6-.71.78-1.1.21-.42.29-.87.25-1.3Z"/>
    </g>
  </g>
  <g>
    <rect class="st5" x="284.13" y="452.91" width="87.64" height="6.65" rx="2.28" ry="2.28" transform="translate(815.69 177.28) rotate(95.94)"/>
    <path class="st42" d="M331.77,417.42c-3.33-.1-5.97.84-6.12,2.29l-7.47,71.79c-.15,1.45,2.24,2.92,5.52,3.5l8.08-77.59Z"/>
    <path class="st36" d="M327.23,438.86c-5.9-.51-10.8,2.96-10.8,2.96-.55,5.27-5.27,9.1-10.53,8.55l-73.64-7.67c-1.95-.2-3.7,1.22-3.91,3.17h0c-.2,1.95,1.22,3.7,3.17,3.91l73.64,7.67c5.27.55,9.1,5.27,8.55,10.53,0,0,4.08,4.4,9.96,5.12l3.56-34.23Z"/>
    <rect class="st37" x="257.16" y="428.14" width="5.13" height="41.99" rx="1.76" ry="1.76" transform="translate(733.33 237.31) rotate(95.94)"/>
  </g>
  <g>
    <path class="st4" d="M226.4,427.69c9.88-3.95,16.38-11.14,15.11-17.5-1.49-7.47-13.12-10.96-25.96-7.79-11.74,2.9-20.42,10.35-20.68,17.32-1.56,5.97,1.18,14.73,7.54,22.29,8.43,10.02,20.04,14.13,25.92,9.18,5.19-4.37,4.18-14.33-1.93-23.5Z"/>
    <path class="st45" d="M202.41,442.01c8.43,10.02,20.04,14.13,25.92,9.18,5.88-4.95,3.81-17.08-4.63-27.1,0,0-2.63-3.03-4.03-4.07"/>
  </g>
</svg>