<?xml version="1.0" encoding="UTF-8"?>
<svg id="_침실5" data-name="침실5" xmlns="http://www.w3.org/2000/svg" version="1.1" xmlns:xlink="http://www.w3.org/1999/xlink" viewBox="0 0 600 540">
  <!-- Generator: Adobe Illustrator 29.6.1, SVG Export Plug-In . SVG Version: 2.1.1 Build 9)  -->
  <defs>
    <style>
      .st0 {
        fill: #e2bd98;
      }

      .st1 {
        fill: #f4c3c3;
      }

      .st1, .st2, .st3, .st4, .st5, .st6, .st7, .st8, .st9, .st10, .st11, .st12, .st13, .st14, .st15, .st16 {
        stroke-miterlimit: 10;
      }

      .st1, .st2, .st3, .st4, .st6, .st17, .st8, .st10, .st18, .st12, .st19, .st20, .st13, .st21, .st15 {
        stroke: #000;
      }

      .st1, .st3, .st4, .st5, .st7, .st9, .st18, .st15 {
        stroke-width: 2px;
      }

      .st2 {
        stroke-width: 4px;
      }

      .st2, .st10 {
        fill: #4a3e30;
      }

      .st3 {
        fill: #fff4c9;
      }

      .st4, .st13 {
        fill: #ddd2b8;
      }

      .st5 {
        fill: #ffe799;
      }

      .st5, .st7, .st9, .st11 {
        stroke: #4c241e;
      }

      .st6 {
        stroke-width: .25px;
      }

      .st7 {
        fill: #ffd899;
      }

      .st17, .st19 {
        fill: #2f2f2d;
      }

      .st22 {
        fill: #fff;
      }

      .st23 {
        fill: #2e6318;
      }

      .st24 {
        fill: none;
      }

      .st25 {
        fill: #7698b7;
      }

      .st26 {
        fill: #ffecb8;
      }

      .st27 {
        fill: #a06447;
      }

      .st28 {
        fill: #efd7b6;
      }

      .st9, .st29 {
        fill: #dd9e59;
      }

      .st30 {
        fill: #430000;
      }

      .st10 {
        stroke-width: 1.4px;
      }

      .st11, .st31 {
        fill: #4c241e;
      }

      .st32 {
        fill: #cef0f4;
      }

      .st33 {
        fill: #e9e7d3;
      }

      .st18 {
        fill: #9a2310;
      }

      .st34 {
        fill: #878787;
      }

      .st35, .st20, .st21 {
        fill: #cbcbcb;
      }

      .st12, .st16 {
        stroke-width: .5px;
      }

      .st36 {
        fill: #9fe4fc;
      }

      .st19, .st20 {
        stroke-width: 1.5px;
      }

      .st37 {
        fill: #417b84;
      }

      .st38 {
        fill: #919191;
      }

      .st39 {
        fill: #ae7c44;
      }

      .st40 {
        fill: #3f92c5;
      }

      .st41 {
        fill: #f7957b;
      }

      .st42 {
        fill: #f7897e;
      }

      .st43 {
        fill: #fbc73f;
      }

      .st44 {
        fill: #ffe6c2;
      }

      .st14 {
        stroke-width: .75px;
      }

      .st14, .st16 {
        stroke: #000821;
      }

      .st45 {
        fill: #bbd3a1;
      }

      .st46 {
        fill: #e79920;
      }

      .st15 {
        fill: #c7f9f8;
      }

      .st47 {
        fill: #af844a;
      }

      .st48 {
        clip-path: url(#clippath);
      }

      .st49 {
        fill: #000821;
      }
    </style>
    <clipPath id="clippath">
      <rect class="st24" x="188.76" y="136.57" width="58" height="142"/>
    </clipPath>
  </defs>
  <g>
    <g id="_이불" data-name="이불">
      <path class="st41" d="M520.42,277.14c0-4.83-4.61-8.73-10.28-8.73h-66.69c-5.68,0-10.28,3.91-10.28,8.73,0,2.78,1.53,5.25,3.91,6.84-2.38,1.6-3.91,4.07-3.91,6.84,0,4.83,4.61,8.73,10.28,8.73h66.69c5.68,0,10.28-3.91,10.28-8.73,0-2.78-1.53-5.25-3.91-6.84,2.38-1.6,3.91-4.07,3.91-6.84Z"/>
      <path d="M510.14,300.7h-66.7c-6.2,0-11.24-4.43-11.24-9.88,0-2.6,1.12-5.01,3.12-6.84-2-1.83-3.12-4.25-3.12-6.84,0-5.44,5.04-9.88,11.24-9.88h66.7c6.2,0,11.24,4.43,11.24,9.88,0,2.6-1.12,5.01-3.12,6.84,2,1.83,3.12,4.25,3.12,6.84,0,5.44-5.04,9.88-11.24,9.88ZM443.44,269.56c-5.14,0-9.32,3.4-9.32,7.57,0,2.26,1.25,4.38,3.42,5.85.3.2.49.59.49,1.01s-.19.79-.49,1.01c-2.17,1.46-3.42,3.59-3.42,5.85,0,4.18,4.18,7.57,9.32,7.57h66.69c5.14,0,9.32-3.4,9.32-7.57,0-2.26-1.25-4.38-3.42-5.85-.3-.2-.49-.59-.49-1.01s.19-.79.49-1.01c2.17-1.46,3.42-3.59,3.42-5.85,0-4.18-4.18-7.57-9.32-7.57h-66.69Z"/>
      <path d="M511.53,285.14h-68.37c-.53,0-.97-.51-.97-1.16s.43-1.16.97-1.16h68.37c.53,0,.96.51.96,1.16s-.43,1.16-.96,1.16Z"/>
      <path class="st45" d="M520.42,245.98c0-4.83-4.61-8.73-10.28-8.73h-66.69c-5.68,0-10.28,3.91-10.28,8.73,0,2.78,1.53,5.25,3.91,6.85-2.38,1.6-3.91,4.06-3.91,6.84,0,4.83,4.61,8.73,10.28,8.73h66.69c5.68,0,10.28-3.91,10.28-8.73,0-2.78-1.53-5.25-3.91-6.84,2.38-1.6,3.91-4.07,3.91-6.85Z"/>
      <path d="M510.14,269.56h-66.7c-6.2,0-11.24-4.43-11.24-9.88,0-2.6,1.12-5.02,3.12-6.85-2-1.83-3.12-4.25-3.12-6.84,0-5.44,5.04-9.88,11.24-9.88h66.7c6.2,0,11.24,4.43,11.24,9.88,0,2.6-1.12,5.01-3.12,6.84,2,1.83,3.12,4.25,3.12,6.85,0,5.44-5.04,9.88-11.24,9.88ZM443.44,238.4c-5.14,0-9.32,3.4-9.32,7.57,0,2.25,1.25,4.38,3.42,5.84.3.2.49.59.49,1.01s-.19.79-.49,1.01c-2.17,1.46-3.42,3.59-3.42,5.85,0,4.18,4.18,7.57,9.32,7.57h66.69c5.14,0,9.32-3.4,9.32-7.57,0-2.26-1.25-4.38-3.42-5.85-.3-.2-.49-.59-.49-1.01s.19-.79.49-1.01c2.17-1.45,3.42-3.59,3.42-5.84,0-4.18-4.18-7.57-9.32-7.57h-66.69Z"/>
      <path d="M511.53,253.98h-68.37c-.53,0-.97-.51-.97-1.15s.43-1.16.97-1.16h68.37c.53,0,.96.51.96,1.16s-.43,1.15-.96,1.15Z"/>
      <path class="st40" d="M520.42,214.83c0-4.83-4.61-8.73-10.28-8.73h-66.69c-5.68,0-10.28,3.91-10.28,8.73,0,2.78,1.53,5.25,3.91,6.84-2.38,1.6-3.91,4.07-3.91,6.84,0,4.83,4.61,8.73,10.28,8.73h66.69c5.68,0,10.28-3.91,10.28-8.73,0-2.78-1.53-5.25-3.91-6.84,2.38-1.6,3.91-4.07,3.91-6.84Z"/>
      <path d="M510.14,238.4h-66.7c-6.2,0-11.24-4.43-11.24-9.88,0-2.6,1.12-5.01,3.12-6.84-2-1.83-3.12-4.25-3.12-6.84,0-5.44,5.04-9.88,11.24-9.88h66.7c6.2,0,11.24,4.43,11.24,9.88,0,2.6-1.12,5.01-3.12,6.84,2,1.83,3.12,4.25,3.12,6.84,0,5.44-5.04,9.88-11.24,9.88ZM443.44,207.25c-5.14,0-9.32,3.4-9.32,7.57,0,2.26,1.25,4.38,3.42,5.84.3.2.49.59.49,1.01s-.19.79-.49,1.01c-2.17,1.46-3.42,3.59-3.42,5.85,0,4.18,4.18,7.57,9.32,7.57h66.69c5.14,0,9.32-3.4,9.32-7.57,0-2.26-1.25-4.38-3.42-5.85-.3-.2-.49-.59-.49-1.01s.19-.79.49-1.01c2.17-1.45,3.42-3.59,3.42-5.84,0-4.18-4.18-7.57-9.32-7.57h-66.69Z"/>
      <path class="st42" d="M514.33,191.58h-75.08c-3.37,0-6.09,3.25-6.09,7.26s2.73,7.26,6.09,7.26h75.08c3.36,0,6.09-3.25,6.09-7.26s-2.73-7.26-6.09-7.26Z"/>
      <path d="M514.33,207.25h-75.08c-3.89,0-7.06-3.78-7.06-8.41s3.16-8.41,7.06-8.41h75.08c3.89,0,7.06,3.78,7.06,8.41s-3.17,8.41-7.06,8.41ZM439.25,192.72c-2.82,0-5.13,2.73-5.13,6.11s2.3,6.11,5.13,6.11h75.08c2.83,0,5.13-2.74,5.13-6.11s-2.3-6.11-5.13-6.11h-75.08Z"/>
      <path d="M511.53,222.83h-68.37c-.53,0-.97-.51-.97-1.15s.43-1.16.97-1.16h68.37c.53,0,.96.51.96,1.16s-.43,1.15-.96,1.15Z"/>
    </g>
    <g id="_쇼핑백" data-name="쇼핑백">
      <path class="st28" d="M317.57,294.33h-65.3l3.22-74.3h58.86l3.22,74.3Z"/>
      <path d="M317.57,295.35h-65.3c-.26,0-.52-.11-.7-.31s-.28-.47-.26-.74l3.22-74.3c.03-.54.45-.97.97-.97h58.86c.52,0,.94.43.97.97l3.22,74.3c.02.28-.08.55-.26.74-.18.2-.43.31-.7.31h-.02,0ZM253.28,293.32h63.28l-3.13-72.27h-57.02l-3.13,72.27Z"/>
      <path class="st12" d="M302.28,227.68c-.53,0-.96-.45-.96-1.01,0-13.52-7.36-24.51-16.4-24.51s-16.4,10.99-16.4,24.51c0,.56-.43,1.01-.97,1.01s-.97-.45-.97-1.01c0-14.63,8.22-26.54,18.33-26.54s18.33,11.91,18.33,26.54c0,.56-.43,1.01-.97,1.01h0Z"/>
    </g>
    <g>
      <path class="st0" d="M204.9,265.35v-7.32h-1.83v-27.72h-44.31v27.72h-1.83v7.32h1.83v20.4h-1.83v7.32h47.97v-7.32h-1.83v-20.4h1.83Z"/>
      <path class="st4" d="M203.09,230.44h-43.75v27.74h43.75v-27.74Z"/>
      <path class="st8" d="M202.44,266.84h-43.31v3.38h43.31v-3.38Z"/>
      <path class="st13" d="M202.44,272.23h-43.1v8.73h43.1v-8.73Z"/>
      <path d="M204.9,294.08h-47.97c-.54,0-.97-.45-.97-1.02v-7.31c0-.56.43-1.02.97-1.02h.87v-18.38h-.87c-.54,0-.97-.45-.97-1.02v-7.31c0-.56.43-1.02.97-1.02h.87v-26.71c0-.56.43-1.01.96-1.01h44.31c.53,0,.96.45.96,1.01v26.71h.87c.54,0,.97.45.97,1.02v7.31c0,.56-.43,1.02-.97,1.02h-.87v18.38h.87c.54,0,.97.45.97,1.02v7.31c0,.56-.43,1.02-.97,1.02h0ZM157.89,292.05h46.04v-5.28h-.87c-.53,0-.96-.45-.96-1.01v-20.41c0-.56.43-1.02.96-1.02h.87v-5.28h-.87c-.53,0-.96-.45-.96-1.02v-26.71h-42.38v26.71c0,.56-.43,1.02-.96,1.02h-.87v5.28h.87c.53,0,.96.45.96,1.02v20.41c0,.56-.43,1.01-.96,1.01h-.87v5.28h0Z"/>
    </g>
    <g id="_드림캐쳐" data-name="드림캐쳐">
      <g class="st48">
        <g>
          <path class="st10" d="M205.15,210.57c-.41,4.55-.74,9.12-1.08,13.68-.02.25.37.25.39,0,.31-4.56.64-9.12.88-13.68,0-.12-.17-.11-.18,0h-.01Z"/>
          <path class="st1" d="M208.95,254.33c-.02-.23.88,3.93.88,3.93,1.7-6.08.02-14.77-.63-16.28-.11-.26,1.07,1.54,1.48,2.12-.07-2.32-.2-20.31-5.76-21.99-.49-.15-1.01-.19-1.52-.15-6.18.53-7.76,16.61-7.78,18.95.39-.41.77-.82,1.18-1.2.18-.16-1.96,6.33-.37,17.25.35-.83,2-2.18,2-2.18-2.81,3.42-.7,9.4-.26,10.29.19-.27.41-.53.65-.77.14-.15.81,5.1,5.22,3.16,1.76-.78,3.01-3.11,3.95-5.55.92-2.4,1.2-4.98.97-7.53v-.03h0v-.02Z"/>
          <path class="st10" d="M204.04,224.36c.01-.08-.11-.12-.13-.03-2.04,13.2-2.46,26.71-1.44,40.03.02.23.37.23.35,0-.96-13.37-.49-26.71,1.21-40h.01Z"/>
          <path class="st10" d="M230,211.95c1.17,5.34,2.03,10.69,2.49,16.04.02.29.43.23.41-.06-.5-5.36-1.36-10.74-2.71-16.04-.03-.14-.22-.08-.18.06h0Z"/>
          <path class="st3" d="M237.58,263.93c.05-.29.11,4.93.07,4.94,3.42-7.11,2.34-18.23,1.59-20.01-.11-.33,1.08,1.93,1.47,2.68.76-2.88-.94-25.5-7.76-26.2-.54-.08-1.09-.03-1.62.12-5.9,2-5.98,19.36-6.52,21.83.42-.43.83-.88,1.28-1.28.08-.1-1.75,6.75-2.16,18.66.53-.81,2.51-1.99,2.51-2-3.48,3.22-2.83,9.99-2.7,11.13.28-.24.58-.45.89-.65.23-.14-.75,5.78,4.35,5.03,2.06-.33,4.14-2.67,5.79-5.34,1.63-2.62,2.56-5.71,2.8-8.85v-.04h0v-.02Z"/>
          <path class="st10" d="M233.01,228.32c0-.1-.14-.12-.14-.02.27,15.72-.94,31.03-3.83,46.38-.05.26.31.36.37.09,2.97-15.42,4.22-30.66,3.6-46.45h0Z"/>
          <path class="st10" d="M216.85,213.43c.31,3.45.56,6.9.82,10.36.01.19-.28.19-.29,0-.23-3.45-.48-6.9-.66-10.36,0-.09.13-.09.14,0h-.01Z"/>
          <path class="st15" d="M213.98,246.55c.01-.17-.67,2.97-.67,2.97-1.29-4.6-.01-11.18.47-12.32.08-.2-.81,1.17-1.11,1.6.05-1.76.15-15.38,4.36-16.64.37-.11.76-.14,1.15-.11,4.68.4,5.87,12.58,5.89,14.35-.29-.31-.58-.62-.9-.91-.13-.12,1.49,4.79.28,13.06-.27-.62-1.51-1.65-1.51-1.65,2.13,2.59.53,7.11.2,7.79-.15-.21-.31-.4-.49-.59-.11-.11-.62,3.86-3.95,2.39-1.33-.59-2.28-2.36-2.99-4.2-.69-1.81-.91-3.77-.73-5.7v-.03h0Z"/>
          <path class="st10" d="M217.7,224.51c-.01-.06.08-.09.09-.02,1.54,9.99,1.86,20.22,1.09,30.3-.01.17-.28.17-.27,0,.72-10.12.37-20.22-.92-30.27h0Z"/>
          <path class="st2" d="M219.94,156.48c-.05-.24-.18-.44-.42-.57-.19-.1-.4-.14-.62-.17-.59-.08-1.19-.06-1.78.02-.39.05-.93.11-1.1.54-.28.7.33,1.89.75,2.44.11.14.43.25.54.05.06-.12-.04-.32-.07-.43-.04-.23-.05-.46,0-.68.1-.46.58-.98,1.09-.75.26.12.37.41.39.68.02.35-.02.7-.02,1.05,0,.12.03.61.24.55.06-.02.1-.07.14-.13.45-.66.83-1.44.88-2.25.01-.12,0-.24-.02-.35h0Z"/>
          <path class="st16" d="M215.36,182.97c-.64-.52-1.2-1.11-1.71-1.76-.03-.04,0,0,0,.01-.02-.02-.03-.04-.04-.05-.03-.04-.06-.08-.1-.13-.06-.09-.13-.17-.19-.26-.11-.16-.23-.33-.33-.5-.22-.35-.42-.71-.6-1.09-.09-.19-.18-.37-.26-.57-.01-.02-.02-.04-.03-.06,0,0,.02.06,0,0-.02-.05-.04-.1-.06-.15-.04-.09-.07-.19-.11-.28-.15-.39-.27-.79-.38-1.19s-.2-.8-.27-1.2c-.02-.1-.03-.2-.05-.3-.01-.05-.01-.11-.02-.16,0,0-.01-.08,0-.02s0-.04,0-.05c-.03-.21-.05-.42-.06-.62-.06-.83-.05-1.66.04-2.48,0-.04,0-.09.01-.14,0-.02.02-.17.01-.08.02-.1.03-.2.04-.3.03-.21.07-.42.12-.64.09-.42.2-.84.32-1.25s.26-.8.42-1.19c.02-.05.04-.1.06-.15.01-.02.05-.13.02-.06.04-.1.09-.21.13-.3.09-.2.18-.39.28-.58.38-.76.83-1.5,1.32-2.19.05-.08.11-.16.17-.23.03-.04.07-.09.1-.13.01-.02.1-.13.05-.07.13-.17.27-.34.41-.5.27-.32.56-.64.85-.94.29-.31.61-.61.93-.9.16-.14.32-.29.49-.42.07-.06.15-.12.22-.18.04-.04.09-.07.13-.1,0,0,.06-.05.03-.02-.03.02.04-.03.04-.04.17-.13.34-.26.52-.38.21-.15.33-.44.18-.67-.13-.21-.45-.33-.67-.18-1.44,1.03-2.74,2.26-3.83,3.66-1.09,1.41-2,3.01-2.59,4.72-.6,1.71-.87,3.4-.81,5.15s.44,3.48,1.13,5.1c.69,1.61,1.67,3.03,2.92,4.19.15.14.31.28.47.41.2.16.5.21.69,0,.17-.18.21-.52,0-.69v-.04Z"/>
          <path class="st16" d="M220.86,183.66c1.32-1.08,2.38-2.47,3.12-4,.75-1.53,1.23-3.3,1.37-5.06s-.07-3.5-.57-5.17-1.32-3.3-2.35-4.73c-1.03-1.44-2.32-2.78-3.76-3.88-.17-.13-.34-.26-.52-.38-.21-.15-.55-.04-.67.18-.13.25-.05.51.18.67.18.12.35.25.52.38.02.01.04.03.06.04-.05-.04-.01,0,0,0,.05.04.09.07.13.1.09.07.18.14.26.21.33.27.64.55.94.85.62.59,1.19,1.23,1.71,1.9-.04-.05.03.04.04.05.03.04.07.09.1.13.07.09.13.18.2.27.12.17.24.34.35.51.24.36.46.73.67,1.11.21.38.39.75.57,1.13.05.09.08.19.12.29.02.05,0,0,0,0l.03.09s.04.1.06.15c.08.2.16.4.22.6.28.8.49,1.63.63,2.47.02.1.03.2.04.3,0-.08,0,.02,0,.05,0,.05.01.11.02.16.02.21.04.42.05.62.02.42.03.84.02,1.26s-.04.82-.1,1.23v.07s.01-.09,0,.01c0,.04-.02.09-.02.14-.02.11-.03.22-.05.32-.03.21-.08.41-.12.61-.09.4-.2.8-.32,1.18-.06.2-.13.39-.21.59-.03.09-.07.19-.11.28-.02.04-.03.08-.05.13,0,0-.03.07,0,.03.02-.05-.03.07-.03.07-.32.75-.72,1.47-1.18,2.14-.06.08-.11.16-.17.24-.03.04-.06.09-.1.13-.01.02-.03.03-.04.05-.05.06.04-.05-.01.01-.13.16-.26.32-.4.48-.27.31-.55.6-.85.88-.15.14-.31.27-.47.41-.2.16-.18.53,0,.69.21.2.48.17.69,0h0Z"/>
          <path class="st16" d="M218.47,182.31c-.08-.81-.07-1.62.02-2.43,0-.02.02-.14.01-.1,0,.04,0-.08.01-.1.01-.11.03-.22.05-.32.03-.19.07-.39.12-.58.09-.4.2-.8.33-1.19.06-.19.13-.37.2-.56.04-.09.07-.19.11-.29.03-.08,0,.03.03-.06.02-.05.04-.1.07-.15.17-.38.35-.74.55-1.1s.41-.7.64-1.03c.12-.17.24-.34.36-.5.05-.07-.02.01.04-.05.03-.04.06-.07.09-.11.06-.08.13-.16.2-.24.52-.63,1.1-1.21,1.73-1.73.08-.06.16-.13.24-.19.02-.02.04-.03.05-.05,0,0-.05.04,0,0,.04-.04.09-.07.13-.1.18-.13.35-.26.53-.38.35-.24.72-.46,1.09-.66s.75-.39,1.14-.57c.05-.02.11-.05.16-.07,0,0,.05-.02,0,0,.02,0,.04-.02.07-.03.1-.04.2-.08.3-.12.2-.08.41-.15.61-.22.82-.27,1.65-.49,2.5-.63.1-.01.2-.04.3-.05.05,0,.1-.01.15-.02h.07s0,0,.02,0c.21-.03.43-.05.65-.07.44-.04.87-.06,1.31-.07.86-.01,1.71.04,2.56.15-.07,0,.05,0,.07.01.06.01.12.01.18.02.11.01.21.03.32.05.25.05.54-.07.6-.34.05-.24-.07-.56-.34-.61-1.78-.3-3.59-.36-5.37-.13-1.78.23-3.56.74-5.2,1.55-1.64.81-2.99,1.82-4.16,3.1-1.17,1.28-2.09,2.77-2.72,4.39-.63,1.62-.92,3.28-.84,4.96.01.21.03.41.04.61.03.26.21.51.49.49.24-.01.52-.22.49-.49h0Z"/>
          <path class="st16" d="M221.87,186.72c1.67.17,3.38-.05,4.97-.59,1.59-.54,3.14-1.42,4.46-2.52,1.32-1.11,2.43-2.48,3.26-4.01.83-1.52,1.44-3.32,1.74-5.1.29-1.78.32-3.66.08-5.49-.03-.22-.06-.43-.1-.65-.04-.26-.37-.42-.6-.34-.27.09-.39.33-.34.61.02.1.04.2.05.3l.03.18s.02.17.01.09c.03.21.05.42.07.63.04.44.07.88.07,1.31.02.87-.03,1.74-.14,2.6,0,.09,0-.02-.01.07,0,.05-.01.1-.02.15-.02.11-.03.22-.05.32-.03.22-.08.43-.12.64-.09.43-.2.85-.32,1.27-.12.42-.26.82-.41,1.21-.15.4-.28.69-.48,1.1-.38.77-.83,1.52-1.33,2.21-.03.04-.06.07-.08.11,0,0-.05.06-.02.02.04-.04-.03.03-.03.04-.06.08-.13.16-.19.24-.13.16-.26.32-.4.47-.27.3-.56.58-.85.86-.15.14-.31.28-.46.41-.07.06-.15.12-.22.18-.04.03-.07.06-.11.09-.02.02-.04.03-.05.04.04-.03,0,0-.02.01-.33.25-.67.49-1.02.7-.35.22-.69.41-1.05.6-.18.09-.37.18-.55.26-.04.02-.09.04-.13.06-.02.01-.04.02-.06.03.01,0,.06-.03.01,0-.1.04-.21.08-.31.12-.75.29-1.54.51-2.33.65-.09.02-.19.03-.28.04-.04,0-.09.01-.14.02.09,0-.05,0-.08.01-.2.03-.41.04-.61.05-.4.03-.8.03-1.2.01-.2-.01-.41-.03-.61-.04-.25-.03-.5.25-.49.49.02.29.21.46.49.49h-.02v.05Z"/>
          <path class="st16" d="M221.13,184.06c.52-.64,1.11-1.21,1.75-1.72.04-.03,0,0-.01,0,.02-.01.03-.03.05-.04.04-.03.08-.06.13-.1.09-.06.17-.13.26-.19.16-.11.33-.23.5-.33.35-.22.71-.42,1.08-.6.19-.09.37-.18.56-.26.02-.01.04-.02.06-.03-.01,0-.06.03-.01,0,.05-.02.1-.04.15-.06.09-.04.19-.07.28-.11.39-.15.78-.28,1.18-.38.4-.11.79-.2,1.19-.27.1-.02.2-.04.3-.05.05-.01.11-.02.16-.03,0,0,.08,0,.02,0-.06.01.04,0,.05,0,.21-.02.42-.05.62-.06.82-.06,1.65-.05,2.47.03.04,0,.09,0,.14.01.03,0,.17.02.08.01.1.01.2.03.3.04.21.03.42.07.63.12.41.09.83.2,1.24.32s.8.26,1.18.42c.05.02.1.04.15.06.02.01.13.05.06.02.1.04.21.09.3.13.2.09.39.18.58.28.76.38,1.49.83,2.18,1.33.08.05.16.11.23.17.04.03.09.07.13.1.02.02.13.1.07.05.17.13.34.27.5.41.32.27.64.56.94.86s.61.62.89.94c.14.16.28.33.42.49.06.07.12.15.18.22.03.04.07.09.1.13,0,0,.05.06.02.02-.02-.03.03.04.03.04.13.17.26.35.38.52.15.21.43.33.67.18.21-.13.33-.45.18-.67-1.03-1.45-2.24-2.76-3.64-3.86s-2.99-2.01-4.7-2.61c-1.7-.6-3.38-.87-5.12-.81-1.74.06-3.46.45-5.07,1.14-1.6.69-3.01,1.68-4.16,2.94-.14.15-.27.31-.41.47-.16.2-.21.5,0,.69.18.17.52.21.69,0h.01l.03.04Z"/>
          <path d="M220.44,189.6c1.08,1.32,2.46,2.39,3.98,3.14,1.52.75,3.28,1.23,5.03,1.38,1.75.14,3.48-.07,5.14-.58,1.66-.51,3.28-1.33,4.71-2.36,1.43-1.03,2.76-2.34,3.86-3.78.13-.17.26-.35.38-.52.15-.21.04-.56-.18-.67-.25-.13-.51-.05-.67.18-.12.18-.25.35-.38.52-.02.02-.03.04-.04.06,0,0,.04-.05,0,0s-.07.09-.1.13c-.07.09-.14.18-.21.26-.27.33-.55.65-.84.95-.59.62-1.22,1.2-1.89,1.72.05-.04-.03.03-.05.04-.04.04-.09.07-.13.1-.09.07-.18.13-.27.2-.17.12-.34.24-.51.35-.36.24-.72.46-1.1.67-.38.21-.74.39-1.12.57-.09.04-.19.08-.28.12-.05.02,0,0,0,0-.03.02-.06.02-.09.03-.05.02-.1.04-.15.06-.2.08-.4.16-.6.23-.8.28-1.62.5-2.45.63-.1.01-.2.03-.3.04.08,0-.02,0-.05,0-.05,0-.11.02-.16.02-.21.02-.42.04-.62.05-.42.02-.83.03-1.25.02-.42,0-.82-.04-1.22-.1h-.07s.09.01-.01,0c-.04,0-.09-.02-.14-.02-.11-.01-.21-.03-.32-.05-.21-.03-.41-.08-.61-.12-.4-.09-.79-.2-1.18-.32-.2-.06-.39-.13-.59-.21-.09-.03-.19-.07-.28-.11-.04-.02-.08-.04-.13-.05,0,0-.07-.03-.03-.01.05.02-.07-.03-.07-.03-.74-.32-1.46-.72-2.12-1.19-.08-.06-.16-.11-.24-.17-.04-.03-.09-.06-.13-.1-.02-.01-.03-.03-.05-.04-.06-.05.05.04-.01-.01-.16-.13-.32-.26-.47-.4-.3-.27-.6-.55-.87-.86-.14-.15-.27-.31-.41-.47-.16-.2-.52-.18-.69,0-.2.21-.17.48,0,.69h-.02Z"/>
          <path class="st16" d="M221.79,187.19c.8-.08,1.61-.07,2.41.03.02,0,.14.01.1,0s.08.01.1.02c.11.02.22.03.32.05.19.03.39.07.58.12.4.09.79.2,1.18.33.19.06.37.13.55.2.09.04.19.07.28.11.08.03-.02-.01.06.02.05.02.1.04.15.07.38.17.74.36,1.1.56s.69.41,1.03.65c.17.12.34.24.5.36.07.05-.02-.01.05.04.04.03.07.06.11.09.08.06.16.13.24.2.63.53,1.2,1.11,1.72,1.74.06.08.13.16.19.24.01.02.03.04.04.05,0,0-.04-.05,0,0,.04.04.07.09.1.13.13.18.26.35.38.53.23.35.46.72.66,1.1.2.37.39.76.56,1.15.03.05.05.11.07.16,0,.01.02.05,0,0,.01.02.02.04.03.07.04.1.08.2.12.3.08.2.15.41.22.62.27.82.48,1.66.63,2.52.02.1.04.2.05.3.01.05.02.1.02.15,0,.02,0,.05.01.07-.01-.05,0-.01,0,.02.03.22.05.44.07.65.04.44.06.88.07,1.31.01.86-.04,1.72-.15,2.58,0-.07,0,.05-.01.07l-.03.18c-.01.11-.03.22-.05.33-.04.25.07.54.34.6.23.05.56-.07.6-.34.3-1.79.36-3.61.13-5.4-.23-1.8-.73-3.58-1.54-5.23s-1.81-3.01-3.08-4.19c-1.28-1.18-2.76-2.11-4.37-2.74-1.61-.64-3.26-.92-4.93-.85-.21,0-.41.02-.61.04-.25.02-.5.21-.49.49,0,.25.21.52.49.49h0Z"/>
          <path class="st16" d="M217.4,190.61c-.17,1.68.05,3.4.59,5,.53,1.6,1.41,3.16,2.51,4.49,1.1,1.33,2.47,2.45,3.98,3.28,1.52.84,3.3,1.45,5.07,1.75,1.77.3,3.64.33,5.45.08.22-.03.43-.06.65-.1.25-.04.42-.37.34-.61-.09-.28-.33-.39-.6-.34-.1.01-.2.03-.3.05-.06,0-.12.02-.18.02-.02,0-.17.03-.09.02-.21.03-.42.05-.63.07-.43.04-.87.07-1.3.07-.87.02-1.73-.03-2.59-.14-.09-.01.02,0-.07-.01-.05,0-.1-.02-.15-.02-.11-.01-.21-.03-.32-.05-.21-.03-.43-.08-.64-.12-.43-.09-.85-.2-1.26-.32-.42-.12-.81-.26-1.21-.41-.4-.15-.69-.29-1.09-.48-.77-.38-1.51-.83-2.2-1.34-.04-.03-.07-.06-.11-.08,0,0-.06-.05-.02-.02.04.03-.03-.03-.04-.03-.08-.06-.16-.13-.24-.19-.16-.13-.31-.26-.46-.4-.3-.27-.58-.56-.86-.86-.14-.15-.27-.31-.41-.47-.06-.07-.12-.15-.18-.22-.03-.04-.06-.07-.09-.11-.02-.02-.03-.04-.04-.05.03.04,0,.01-.01-.02-.25-.33-.48-.67-.7-1.02-.22-.36-.41-.7-.59-1.06-.09-.18-.18-.37-.26-.56-.02-.04-.04-.09-.06-.13-.01-.02-.02-.04-.03-.06,0,.01.02.06,0,.01-.04-.1-.08-.21-.12-.31-.29-.76-.51-1.54-.65-2.34-.02-.09-.03-.19-.04-.28,0-.04-.02-.09-.02-.14,0,.09,0-.05,0-.08-.03-.2-.04-.41-.05-.61-.02-.4-.03-.8-.01-1.21.01-.21.03-.41.04-.61.02-.26-.24-.5-.49-.49-.29.01-.46.22-.49.49v-.02l-.03-.02Z"/>
          <path class="st16" d="M220.04,189.87c.64.52,1.2,1.11,1.71,1.76.03.04,0,0,0,0,.01.02.03.03.04.05.03.04.06.08.1.13.06.09.13.17.19.26.11.16.23.33.33.5.22.35.42.71.6,1.09.09.19.18.37.26.57.01.02.02.04.03.06,0-.01-.02-.06,0-.01s.04.1.06.15c.04.09.07.19.11.28.15.39.27.79.38,1.19s.2.8.27,1.2c.02.1.03.2.05.3.01.05.02.11.02.16,0,0,0,.08,0,.02s0,.04,0,.05c.02.21.05.42.06.62.06.83.05,1.66-.03,2.48,0,.04-.01.09-.02.14,0,.02-.02.17-.01.08-.01.1-.03.2-.04.3-.03.21-.07.42-.12.63-.09.42-.2.84-.32,1.25s-.26.8-.42,1.19c-.02.05-.04.1-.06.15-.01.02-.05.13-.03.06-.04.1-.09.21-.13.3-.09.2-.18.39-.28.58-.38.76-.83,1.5-1.32,2.19-.05.08-.11.16-.17.23-.03.04-.07.09-.1.13-.01.02-.1.13-.05.07-.13.17-.27.34-.41.5-.27.32-.56.64-.85.94s-.61.61-.93.9c-.16.14-.32.28-.49.42-.07.06-.15.12-.22.18-.04.03-.09.07-.13.1,0,0-.06.05-.02.02.03-.02-.04.03-.04.03-.17.13-.34.26-.52.38-.21.15-.33.44-.18.67.13.21.45.33.67.18,1.44-1.03,2.74-2.26,3.83-3.66,1.09-1.41,1.99-3.01,2.59-4.72.6-1.71.87-3.4.81-5.15s-.45-3.48-1.13-5.1c-.69-1.61-1.67-3.03-2.92-4.19-.15-.14-.31-.27-.47-.41-.2-.16-.5-.21-.69,0-.17.18-.21.52,0,.69v.06Z"/>
          <path class="st16" d="M214.54,189.17c-1.32,1.08-2.38,2.47-3.12,4-.75,1.53-1.23,3.3-1.37,5.06-.14,1.76.07,3.5.57,5.17s1.32,3.3,2.35,4.73c1.03,1.44,2.32,2.77,3.76,3.88.17.13.34.26.52.38.21.15.55.04.67-.18.13-.25.05-.51-.18-.67-.18-.12-.35-.25-.52-.38-.02-.02-.04-.03-.06-.04,0,0,.05.04,0,0s-.09-.07-.13-.1c-.09-.07-.18-.14-.26-.21-.33-.27-.64-.55-.94-.85-.62-.59-1.19-1.23-1.71-1.9.04.05-.03-.03-.04-.05-.03-.04-.07-.09-.1-.13-.07-.09-.13-.18-.19-.27-.12-.17-.24-.34-.35-.51-.23-.36-.46-.73-.66-1.11-.21-.38-.39-.75-.57-1.13-.04-.09-.08-.19-.12-.28-.02-.05,0,0,0,.01-.02-.03-.02-.06-.03-.09-.02-.05-.04-.1-.06-.15-.08-.2-.16-.4-.22-.6-.28-.8-.49-1.63-.63-2.47-.01-.1-.03-.2-.04-.3.01.08,0-.03,0-.05,0-.05-.01-.11-.02-.16-.03-.21-.04-.42-.05-.62-.02-.42-.03-.84-.02-1.25,0-.42.04-.82.1-1.23,0-.03,0-.04.01-.07,0,.02-.02.09,0,0,0-.04.01-.09.02-.14.01-.11.03-.22.05-.32.03-.21.08-.41.12-.61.09-.4.2-.8.32-1.19.06-.2.13-.39.21-.59.03-.09.07-.19.11-.28.02-.04.03-.08.05-.13,0,0,.03-.07.01-.02s.03-.07.03-.07c.32-.75.72-1.47,1.18-2.14.06-.08.11-.16.17-.24.03-.04.06-.09.1-.13.01-.02.03-.03.04-.05.05-.06-.04.05,0,0,.13-.16.26-.33.4-.48.27-.3.55-.6.85-.88.15-.14.31-.28.47-.41.2-.16.18-.53,0-.69-.21-.2-.48-.17-.69,0h0l-.03-.06Z"/>
          <path class="st16" d="M216.93,190.53c.08.81.07,1.62-.03,2.43,0,.02-.01.14,0,.1,0-.04,0,.08-.01.1-.02.11-.03.22-.05.33-.03.19-.07.39-.12.58-.09.4-.2.8-.33,1.19-.06.19-.13.37-.2.56-.04.09-.07.19-.11.29-.03.08.01-.03-.02.06-.02.05-.04.1-.07.15-.17.38-.35.74-.55,1.1s-.41.7-.64,1.03c-.12.17-.24.34-.36.5-.05.07.01-.02-.04.05-.03.04-.06.07-.09.11-.06.08-.13.16-.2.24-.52.63-1.1,1.21-1.73,1.73-.08.06-.16.13-.24.19-.02.01-.04.03-.05.04.01,0,.05-.04,0,0-.04.04-.09.07-.13.1-.18.13-.35.26-.53.38-.35.24-.72.46-1.09.66-.37.2-.75.39-1.14.57-.05.02-.11.05-.16.07s-.01,0,0,0c-.03.01-.04.02-.07.03-.1.04-.2.08-.3.12-.2.08-.41.15-.61.22-.82.27-1.65.49-2.5.63-.1.02-.2.04-.3.05-.05,0-.1.01-.15.02-.02,0-.05,0-.07.01.05-.01.01,0-.02,0-.21.03-.43.05-.65.07-.43.04-.87.06-1.31.07-.86.02-1.71-.04-2.56-.15.07,0-.05,0-.07-.01-.06,0-.12-.01-.18-.02-.11-.02-.21-.04-.32-.05-.25-.04-.54.07-.6.34-.05.24.07.56.34.6,1.78.3,3.58.36,5.37.13,1.78-.23,3.56-.74,5.2-1.54s2.99-1.82,4.16-3.1c1.17-1.28,2.09-2.77,2.72-4.39.63-1.62.92-3.28.84-4.96-.01-.21-.03-.41-.04-.61-.03-.26-.21-.51-.49-.49-.24,0-.52.22-.49.49h0v-.02Z"/>
          <path class="st16" d="M213.53,186.12c-1.67-.17-3.38.05-4.97.59-1.59.54-3.14,1.42-4.46,2.52-1.32,1.11-2.43,2.48-3.26,4.01-.83,1.52-1.44,3.32-1.74,5.1-.29,1.78-.32,3.66-.08,5.49.03.22.06.43.1.65.04.26.37.42.6.34.27-.09.39-.33.34-.61-.02-.1-.03-.2-.05-.3l-.03-.18s-.02-.17-.01-.09c-.03-.21-.05-.42-.07-.63-.04-.44-.07-.88-.07-1.31-.02-.87.03-1.74.14-2.6.01-.09,0,.02.01-.07,0-.05.01-.1.02-.15.02-.11.03-.22.05-.32.03-.22.08-.43.12-.64.09-.43.2-.85.32-1.27.12-.42.26-.82.41-1.21.15-.4.28-.69.48-1.1.38-.77.83-1.52,1.34-2.21.03-.04.06-.07.08-.11,0,0,.05-.06.02-.03-.04.04.03-.03.03-.04.06-.08.13-.16.19-.24.13-.16.26-.32.4-.47.27-.3.56-.58.85-.86.15-.14.31-.28.46-.41.07-.06.15-.12.22-.18.04-.03.07-.06.11-.09.02-.01.04-.03.05-.04-.04.03,0,0,.02-.01.33-.25.66-.49,1.02-.7.35-.22.7-.41,1.05-.6.18-.09.37-.18.55-.26.04-.02.09-.04.13-.06.02-.01.04-.02.06-.03-.01,0-.06.03-.01,0,.1-.04.21-.08.31-.12.75-.29,1.54-.51,2.33-.65.09-.02.18-.03.28-.04.04,0,.09-.02.14-.02-.09.01.05,0,.08,0,.2-.03.41-.04.61-.05.4-.03.8-.03,1.2-.01.21.01.41.03.61.04.25.03.5-.25.49-.49-.02-.29-.22-.46-.49-.49h.02v-.05Z"/>
          <path class="st16" d="M214.27,188.78c-.52.64-1.1,1.21-1.75,1.72-.04.03,0,0,.01,0-.02.01-.03.03-.05.04-.04.04-.08.06-.13.1-.09.06-.17.13-.26.19-.16.11-.33.23-.5.33-.35.22-.71.42-1.08.6-.18.09-.37.18-.56.26-.02.01-.04.02-.06.03,0,0,.06-.03,0,0-.05.02-.1.04-.15.06-.09.04-.19.07-.28.11-.39.15-.78.27-1.18.38-.4.11-.79.2-1.19.27-.1.02-.19.03-.3.05-.05,0-.11.01-.16.02,0,0-.08.01-.02,0,.06,0-.04,0-.05,0-.21.03-.42.05-.62.06-.82.06-1.65.05-2.47-.03-.04,0-.09-.01-.14-.02-.02,0-.17-.02-.08-.01-.1-.02-.2-.03-.3-.04-.21-.03-.42-.07-.63-.12-.42-.09-.83-.2-1.24-.32s-.8-.26-1.18-.42c-.05-.02-.1-.04-.15-.06-.02-.01-.13-.05-.06-.03-.1-.04-.21-.09-.3-.13-.2-.09-.39-.18-.58-.28-.76-.38-1.49-.83-2.18-1.33-.08-.05-.16-.11-.23-.17-.04-.03-.09-.07-.13-.1-.02-.02-.13-.1-.07-.05-.17-.13-.34-.27-.5-.41-.32-.27-.64-.56-.94-.86-.3-.29-.61-.61-.89-.94-.14-.16-.28-.33-.42-.49-.06-.07-.12-.15-.18-.22l-.1-.13s-.05-.06-.02-.03-.03-.04-.03-.04c-.13-.17-.26-.34-.38-.52-.15-.21-.44-.33-.67-.18-.21.13-.33.45-.18.67,1.03,1.45,2.24,2.76,3.64,3.86,1.4,1.1,2.99,2.01,4.69,2.61,1.7.6,3.38.87,5.12.81,1.74-.06,3.46-.45,5.07-1.14,1.6-.69,3.01-1.68,4.16-2.94.14-.15.27-.31.41-.47.16-.2.2-.5,0-.69-.18-.17-.52-.21-.69,0h-.02,0Z"/>
          <path class="st16" d="M214.96,183.24c-1.08-1.32-2.46-2.39-3.98-3.14-1.52-.75-3.28-1.23-5.03-1.38-1.75-.14-3.48.07-5.14.58-1.66.51-3.28,1.33-4.7,2.36-1.43,1.03-2.76,2.34-3.86,3.78-.13.17-.26.34-.38.52-.15.21-.04.56.18.67.25.13.51.05.67-.18.12-.18.25-.35.38-.52.02-.02.03-.04.04-.06-.04.05,0,0,0,0,.04-.05.07-.09.1-.13.07-.09.14-.18.21-.26.27-.33.55-.65.84-.95.59-.62,1.22-1.2,1.89-1.72-.05.04.03-.03.05-.04.04-.03.09-.07.13-.1.09-.07.18-.13.27-.2.17-.12.34-.24.51-.35.36-.24.72-.46,1.1-.67.38-.21.74-.39,1.12-.57.09-.04.18-.08.28-.12.05-.03,0,0,0,0,.03-.02.06-.03.09-.03.05-.02.1-.04.15-.06.2-.08.4-.16.6-.23.8-.28,1.62-.5,2.45-.63.1-.01.2-.03.3-.04-.08.01.02,0,.05,0,.05,0,.11-.02.16-.02.21-.02.42-.04.62-.05.42-.02.83-.03,1.25-.02s.82.04,1.22.1c.03,0,.04,0,.07.01-.02,0-.09-.01,0,0,.04,0,.09.02.14.02.11.01.22.03.32.05.21.03.41.08.61.12.4.09.79.2,1.18.33.2.06.39.13.59.21.09.03.19.07.28.11.04.02.08.04.13.05,0,0,.07.03.02.01s.07.03.07.03c.74.33,1.46.72,2.12,1.19.08.06.16.11.24.17.04.03.09.06.13.1.02.02.03.03.05.04.06.05-.05-.04.01.01.16.13.32.26.47.4.3.27.6.55.87.86.14.15.27.31.41.47.16.2.52.18.69,0,.2-.21.17-.48,0-.69h.02v-.03Z"/>
          <path class="st16" d="M213.61,185.65c-.8.08-1.61.07-2.42-.02-.02,0-.14-.02-.1-.01s-.08-.01-.1-.02c-.11-.02-.22-.03-.32-.05-.19-.03-.39-.07-.58-.12-.4-.09-.79-.2-1.18-.33-.19-.06-.37-.13-.55-.2-.09-.04-.19-.07-.28-.11-.08-.03.03.01-.06-.02-.05-.02-.1-.04-.15-.07-.38-.17-.74-.35-1.1-.56s-.69-.41-1.03-.65c-.17-.12-.34-.24-.5-.36-.07-.05.01.01-.05-.04-.04-.03-.07-.06-.11-.09-.08-.06-.16-.13-.24-.2-.63-.53-1.2-1.11-1.72-1.74-.06-.08-.13-.16-.19-.24-.02-.02-.03-.04-.04-.05,0,.01.04.05,0,0-.04-.04-.07-.09-.1-.13-.13-.18-.25-.35-.38-.53-.23-.35-.46-.72-.66-1.1-.2-.37-.39-.76-.56-1.15-.02-.05-.05-.11-.07-.16s0-.01,0,0c0-.03-.02-.04-.03-.07-.04-.1-.08-.2-.12-.31-.08-.2-.15-.41-.22-.61-.27-.82-.48-1.66-.63-2.52-.01-.1-.03-.2-.05-.3,0-.05-.01-.1-.02-.15,0-.02,0-.05-.01-.07.01.05,0,0,0-.02-.03-.22-.05-.44-.07-.65-.04-.44-.06-.88-.07-1.31-.02-.86.04-1.72.15-2.58-.01.07,0-.05.01-.07,0-.06.01-.12.02-.18.02-.11.03-.22.05-.32.04-.25-.07-.54-.34-.61-.23-.05-.56.07-.6.34-.3,1.79-.36,3.61-.13,5.4.23,1.8.73,3.58,1.53,5.23.8,1.65,1.81,3.01,3.09,4.19,1.28,1.18,2.76,2.11,4.37,2.74,1.61.64,3.26.92,4.93.85.21,0,.41-.02.61-.04.25-.02.5-.21.49-.49-.01-.25-.21-.52-.49-.49h.02Z"/>
          <path class="st16" d="M217.99,182.22c.17-1.68-.05-3.4-.59-5-.53-1.6-1.41-3.16-2.51-4.49-1.1-1.33-2.47-2.45-3.98-3.28-1.52-.84-3.3-1.45-5.07-1.75-1.77-.29-3.64-.32-5.45-.08-.21.03-.43.06-.64.1-.25.04-.42.37-.34.61.09.27.33.39.6.34.1-.01.2-.03.3-.05.06-.01.12-.02.18-.02.03,0,.17-.02.09-.02.21-.03.42-.05.63-.07.43-.04.87-.07,1.31-.07.86-.02,1.73.03,2.59.14.09.01-.02,0,.07.01.05,0,.1.01.15.02.11.02.21.03.32.05.22.04.43.08.64.12.42.09.85.2,1.26.32.41.12.81.26,1.21.41s.69.29,1.1.48c.77.38,1.51.83,2.2,1.34.04.03.07.06.11.08,0,0,.06.05.02.02-.04-.04.03.03.04.03.08.06.16.13.24.19.16.13.31.27.46.4.3.27.58.56.86.86.14.15.27.31.41.47.06.07.12.15.18.22.03.04.06.07.09.11.02.02.03.04.04.05-.03-.04,0-.01.01.01.25.33.48.67.7,1.02.22.35.41.7.59,1.06.09.18.18.37.26.56.02.04.04.09.06.13,0,.02.02.04.03.06,0-.01-.03-.06,0-.01.04.1.08.21.12.31.29.76.51,1.54.65,2.34.01.09.03.19.04.28,0,.04.01.09.02.14-.01-.09,0,.05,0,.08.02.2.04.41.05.61.02.4.03.8,0,1.21,0,.21-.02.41-.04.61-.02.26.24.5.49.49.29-.01.46-.22.49-.49v.05Z"/>
          <path class="st16" d="M217.78,182.19c-1.19,0-2.28.45-3.1,1.27-.81.82-1.26,1.92-1.26,3.08s.45,2.3,1.27,3.12,1.91,1.27,3.06,1.27h.03c1.16,0,2.25-.45,3.07-1.27.81-.82,1.26-1.92,1.26-3.08s-.45-2.3-1.27-3.12-1.91-1.27-3.06-1.27h0ZM219.95,188.75c-.58.58-1.35.91-2.18.91h-.02c-.82,0-1.59-.32-2.17-.9-.58-.59-.9-1.36-.9-2.21s.32-1.6.9-2.18,1.35-.9,2.2-.9,1.59.32,2.17.9c.58.58.89,1.36.89,2.21s-.32,1.6-.89,2.18h0Z"/>
          <path class="st49" d="M237.62,166.58c-5.29-5.29-12.31-8.21-19.77-8.21h-.18c-7.46,0-14.48,2.92-19.77,8.21-5.26,5.32-8.16,12.38-8.16,19.89v.18c0,7.51,2.9,14.57,8.17,19.89,5.29,5.29,12.31,8.21,19.77,8.21h.18c7.46,0,14.48-2.92,19.77-8.21,5.26-5.32,8.16-12.38,8.16-19.89v-.18c0-7.51-2.9-14.57-8.17-19.89ZM242.96,186.82c0,6.71-2.56,13.04-7.21,17.82-4.77,4.68-11.06,7.27-17.73,7.27h-.51c-6.67,0-12.96-2.58-17.72-7.26-4.65-4.8-7.22-11.13-7.22-17.83v-.52c0-6.71,2.56-13.04,7.21-17.82,4.77-4.68,11.06-7.27,17.73-7.27h.51c6.66,0,12.96,2.58,17.72,7.26,4.66,4.8,7.22,11.13,7.22,17.83v.52Z"/>
          <path class="st14" d="M218.03,155.21c-1.43-2.02-.9-4.7.13-6.77,1.19-2.42,2.98-4.5,3.86-7.08.48-1.42.66-2.96.27-4.43-.16-.61-1.11-.35-.94.26.69,2.66-.72,5.26-2.08,7.44-1.36,2.18-2.9,4.48-3.07,7.18-.09,1.36.2,2.77.99,3.9.15.22.43.32.67.18.21-.12.33-.46.18-.67h0Z"/>
        </g>
      </g>
    </g>
    <g>
      <path class="st37" d="M99.43,108.52h-7.15v223.41h7.15V108.52h0Z"/>
      <path d="M99.43,332.95h-7.15c-.53,0-.96-.45-.96-1.02V108.52c0-.56.43-1.01.96-1.01h7.15c.53,0,.96.45.96,1.01v223.41c0,.56-.43,1.02-.96,1.02ZM93.25,330.92h5.22V109.54h-5.22v221.38Z"/>
      <g>
        <path class="st37" d="M552.43,108.52h-7.14v223.41h7.14V108.52h0Z"/>
        <path d="M552.43,332.95h-7.15c-.53,0-.97-.45-.97-1.02V108.52c0-.56.44-1.01.97-1.01h7.15c.53,0,.96.45.96,1.01v223.41c0,.56-.43,1.02-.96,1.02ZM546.25,330.92h5.22V109.54h-5.22v221.38Z"/>
      </g>
      <path class="st32" d="M555.31,444.54H89.39c-.53,0-.97-.45-.97-1.02v-148.98c0-.56.43-1.02.97-1.02h465.92c.54,0,.97.45.97,1.02v148.98c0,.56-.43,1.02-.97,1.02Z"/>
      <path d="M555.31,444.54H89.39c-.53,0-.97-.45-.97-1.02v-148.98c0-.56.43-1.02.97-1.02h465.92c.54,0,.97.45.97,1.02v148.98c0,.56-.43,1.02-.97,1.02ZM90.36,442.51h463.99v-146.96H90.36v146.96h0Z"/>
      <g>
        <path class="st26" d="M519.99,23.59H124.72l-39.9,84.73h475.05l-39.89-84.73h.01Z"/>
        <path d="M559.89,109.32H84.83c-.33,0-.64-.18-.82-.48-.17-.3-.19-.67-.05-.99L123.86,23.13c.16-.35.5-.56.86-.56h395.26c.37,0,.7.22.86.56l39.9,84.72c.15.31.13.69-.04.99-.18.3-.49.48-.82.48h0ZM86.38,107.29h471.95l-38.94-82.69H125.33l-38.94,82.69h-.01Z"/>
        <path class="st26" d="M162.23,125.14c-1.67-2.43-3.67-4.08-6.39-4.08-10.41,0-10.41,24.23-20.82,24.23s-10.41-24.23-20.82-24.23-10.41,24.23-20.82,24.23c-3.94,0-6.39-3.48-8.48-7.79v-29.29h475.07v29.27c-2.1,4.32-4.55,7.8-8.49,7.8-10.42,0-10.42-24.23-20.83-24.23s-10.42,24.23-20.83,24.23-10.41-24.23-20.82-24.23-10.42,24.23-20.83,24.23-10.41-24.23-20.82-24.23-10.41,24.23-20.82,24.23-10.41-24.23-20.83-24.23-10.41,24.23-20.82,24.23-10.41-24.23-20.82-24.23-10.41,24.23-20.83,24.23-10.41-24.23-20.82-24.23-10.41,24.23-20.82,24.23-10.41-24.23-20.83-24.23-10.41,24.23-20.82,24.23-10.41-24.23-20.82-24.23-10.41,24.23-20.83,24.23-10.41-24.23-20.82-24.23-10.41,24.23-20.82,24.23c-7.69,0-9.7-13.25-14.43-20.15h.01,0Z"/>
        <path class="st6" d="M551.47,146.31c-5.83,0-8.61-6.46-11.29-12.71-2.55-5.93-4.95-11.52-9.53-11.52s-6.99,5.6-9.54,11.52c-2.68,6.25-5.46,12.71-11.29,12.71s-8.6-6.46-11.29-12.71c-2.55-5.93-4.94-11.52-9.53-11.52s-6.99,5.6-9.54,11.52c-2.68,6.25-5.46,12.71-11.29,12.71s-8.6-6.46-11.29-12.71c-2.54-5.93-4.94-11.52-9.53-11.52s-6.99,5.6-9.54,11.52c-2.68,6.25-5.46,12.71-11.29,12.71s-8.6-6.46-11.29-12.71c-2.54-5.93-4.94-11.52-9.53-11.52s-6.99,5.6-9.53,11.52c-2.68,6.25-5.46,12.71-11.29,12.71s-8.61-6.46-11.29-12.71c-2.55-5.93-4.95-11.52-9.53-11.52s-6.99,5.6-9.54,11.52c-2.68,6.25-5.46,12.71-11.29,12.71s-8.61-6.46-11.29-12.71c-2.55-5.93-4.95-11.52-9.53-11.52s-6.99,5.6-9.53,11.52c-2.68,6.25-5.46,12.71-11.29,12.71s-8.61-6.46-11.29-12.71c-2.55-5.93-4.95-11.52-9.53-11.52s-6.99,5.6-9.53,11.52c-2.68,6.25-5.46,12.71-11.29,12.71s-8.61-6.46-11.29-12.71c-2.55-5.93-4.95-11.52-9.54-11.52s-6.99,5.6-9.53,11.52c-2.68,6.25-5.46,12.71-11.29,12.71s-8.61-6.46-11.29-12.71c-2.55-5.93-4.95-11.52-9.53-11.52s-6.99,5.6-9.53,11.52c-2.68,6.25-5.46,12.71-11.29,12.71s-8.6-6.46-11.29-12.71c-1.2-2.81-2.45-5.7-3.92-7.86-1.71-2.5-3.49-3.66-5.6-3.66-4.58,0-6.99,5.6-9.53,11.52-2.68,6.25-5.46,12.71-11.29,12.71s-8.61-6.46-11.29-12.71c-2.55-5.93-4.95-11.52-9.53-11.52s-6.99,5.6-9.53,11.52c-2.68,6.25-5.46,12.71-11.29,12.71-4.67,0-7.34-4.21-9.33-8.34-.07-.14-.1-.3-.1-.46v-29.28c0-.56.43-1.02.97-1.02h475.07c.53,0,.96.45.96,1.02v29.27c0,.16-.04.32-.1.46-2,4.13-4.67,8.35-9.35,8.35h-.04ZM530.65,120.05c5.83,0,8.61,6.46,11.29,12.71,2.55,5.93,4.95,11.52,9.53,11.52,2.85,0,5.11-2.1,7.52-7.03v-28.01H85.86v28.02c2.41,4.91,4.66,7.02,7.51,7.02,4.58,0,6.99-5.59,9.53-11.52,2.68-6.25,5.46-12.71,11.29-12.71s8.61,6.46,11.29,12.71c2.55,5.93,4.95,11.52,9.53,11.52s6.99-5.59,9.53-11.52c2.68-6.25,5.46-12.71,11.29-12.71,2.75,0,5.1,1.48,7.17,4.51,1.59,2.32,2.88,5.31,4.12,8.21,2.55,5.93,4.95,11.52,9.53,11.52s6.99-5.59,9.53-11.52c2.68-6.25,5.46-12.71,11.29-12.71s8.61,6.46,11.29,12.71c2.55,5.93,4.95,11.52,9.53,11.52s6.99-5.59,9.53-11.52c2.68-6.25,5.46-12.71,11.29-12.71s8.61,6.46,11.29,12.71c2.55,5.93,4.95,11.52,9.53,11.52s6.99-5.59,9.53-11.52c2.68-6.25,5.46-12.71,11.29-12.71s8.61,6.46,11.29,12.71c2.55,5.93,4.95,11.52,9.53,11.52s6.99-5.59,9.54-11.52c2.68-6.25,5.46-12.71,11.29-12.71s8.61,6.46,11.29,12.71c2.55,5.93,4.95,11.52,9.53,11.52s6.99-5.59,9.54-11.52c2.68-6.25,5.46-12.71,11.29-12.71s8.6,6.46,11.29,12.71c2.54,5.93,4.94,11.52,9.53,11.52s6.99-5.59,9.53-11.52c2.68-6.25,5.46-12.71,11.29-12.71s8.61,6.46,11.29,12.71c2.55,5.93,4.95,11.52,9.53,11.52s6.99-5.59,9.54-11.52c2.68-6.25,5.46-12.71,11.29-12.71s8.61,6.46,11.29,12.71c2.55,5.93,4.95,11.52,9.53,11.52s6.99-5.59,9.54-11.52c2.68-6.25,5.46-12.71,11.29-12.71s8.61,6.46,11.29,12.71c2.55,5.93,4.95,11.52,9.53,11.52s6.99-5.59,9.54-11.52c2.68-6.25,5.46-12.71,11.29-12.71h0Z"/>
      </g>
    </g>
    <g>
      <path d="M80.72,190.94c-.17,0-.34-.05-.5-.15-.46-.29-.6-.91-.33-1.39l12.58-21.82c1.67-2.89,3.32-2.81,4.15-2.51.86.31,1.38,1.07,1.74,1.57l14.23,20.39c.32.45.23,1.09-.21,1.42-.43.33-1.04.24-1.35-.22l-14.23-20.39c-.23-.33-.53-.75-.81-.85-.56-.2-1.34.72-1.87,1.64l-12.58,21.82c-.18.32-.5.49-.82.49h0Z"/>
      <path class="st47" d="M144.19,186.36l-91.19,4.77,3.66,77.42,91.19-4.77-3.67-77.42h.01Z"/>
      <path d="M56.63,269.62c-.24,0-.47-.1-.65-.26-.19-.18-.3-.43-.32-.7l-3.66-77.42c-.03-.56.39-1.03.91-1.06l91.19-4.77c.54-.02.98.41,1.01.96l3.66,77.42c.01.27-.08.54-.25.73s-.41.32-.67.33l-91.19,4.77h-.04.01ZM53.98,192.14l3.56,75.4,89.26-4.67-3.56-75.4-89.26,4.67Z"/>
      <path class="st23" d="M137.43,193.85l-76.98,4.03,2.99,63.19,76.98-4.03-2.99-63.19Z"/>
      <path d="M63.39,262.13c-.51,0-.94-.42-.96-.97l-2.99-63.18c-.01-.27.08-.53.25-.73.17-.2.41-.32.67-.33l76.99-4.02c.54-.03.98.41,1.01.96l2.99,63.18c.01.27-.08.53-.25.73-.17.2-.41.32-.67.33l-76.98,4.03h-.06ZM61.42,198.89l2.9,61.16,75.06-3.92-2.9-61.16-75.06,3.92Z"/>
      <path class="st22" d="M86.71,217.37c.12-.06.27-.07.45-.03.2.04.39.12.57.24.2.12.35.24.45.36.14.16.21.4.21.72,0,.3-.01.65-.03,1.05-.04.34-.04.56,0,.66.06.08.21.12.45.12.22,0,.47.04.75.12s.46.17.54.27c.24.22.36.43.36.63,0,.1-.05.28-.15.54-.16.28-.49.62-.99,1.02-.68.52-.85.94-.51,1.26.04.06.21.26.51.6.24.28.46.46.66.54.48.26.83.51,1.05.75.4.36.55.68.45.96-.04.16-.13.3-.27.42s-.34.18-.6.18c-.28,0-.63-.16-1.05-.48-.14-.1-.25-.16-.33-.18-.1-.06-.24-.16-.42-.3-.18-.16-.29-.24-.33-.24s-.26-.16-.66-.48c-.38-.34-.62-.5-.72-.48-.08.04-.22.16-.42.36-.18.18-.34.35-.48.51-.08.16-.18.32-.3.48-.14.14-.23.28-.27.42-.34.6-.73.9-1.17.9-.14,0-.31-.04-.51-.12-.18-.1-.37-.23-.57-.39-.18-.16-.28-.29-.3-.39s-.01-.26.03-.48c.04-.22.09-.34.15-.36.06-.04.12-.13.18-.27.08-.12.33-.39.75-.81.4-.44.66-.72.78-.84.06-.14.26-.38.6-.72.56-.6.78-.92.66-.96-.02-.04-.47-.07-1.35-.09h-1.08c-.2-.02-.35-.06-.45-.12-.1-.08-.22-.2-.36-.36-.14-.2-.23-.4-.27-.6-.04-.42.08-.72.36-.9.18-.1.53-.14,1.05-.12.56,0,.93.01,1.11.03.14.02.31.02.51,0,.2-.04.32-.09.36-.15.06-.1.13-.76.21-1.98.02-.76.15-1.19.39-1.29h0ZM94.03,218.87c.16-.02.33,0,.51.06.18.04.35.13.51.27.16.12.28.26.36.42.18.4.24.8.18,1.2-.04.22-.04.41,0,.57.04.12.07.86.09,2.22.02,1.56.09,2.77.21,3.63l.06.54-.18.36c-.24.38-.53.57-.87.57s-.64-.13-.9-.39c-.18-.18-.29-.38-.33-.6-.04-.24-.07-.74-.09-1.5-.02-3.62-.06-5.68-.12-6.18,0-.32.01-.54.03-.66.04-.12.12-.23.24-.33.1-.08.2-.14.3-.18ZM90.97,230.12c1.26-.06,2.15-.07,2.67-.03.48,0,.77.02.87.06.12.02.32.16.6.42.18.2.28.44.3.72.04.38.06.85.06,1.41,0,.66.03,1.01.09,1.05.02.04.05.41.09,1.11.04.68.06,1.22.06,1.62v.51l-.27.27c-.16.16-.32.25-.48.27-.14.04-.47.04-.99,0-.56-.02-1.32-.02-2.28,0s-1.54.07-1.74.15c-.18.08-.42.08-.72,0-.66-.16-1.24-.17-1.74-.03-.16.02-.34,0-.54-.06-.18-.02-.4-.05-.66-.09-.24,0-.5-.07-.78-.21-.3-.1-.52-.26-.66-.48-.16-.22-.24-.38-.24-.48,0-.34-.08-.83-.24-1.47-.06-.26-.09-.76-.09-1.5,0-.78-.02-1.29-.06-1.53-.06-.24-.09-.42-.09-.54,0-.44.13-.78.39-1.02l.21-.15h2.22c1.58.02,2.92.02,4.02,0h0ZM90.97,232.19c-.16,0-.41-.02-.75-.06-.32-.02-.56,0-.72.06-.14.04-.66.08-1.56.12-.88.04-1.34.09-1.38.15-.02.02-.04.31-.06.87s0,1.07.03,1.53c.02.24.03.4.03.48s.06.15.18.21c.14.06.27.09.39.09h.78c.74.04,1.33.03,1.77-.03.82-.02,1.48-.03,1.98-.03.5-.02.86-.04,1.08-.06.22-.04.38-.08.48-.12s.19-.11.27-.21c.06-.1.08-.26.06-.48-.04-.18-.07-.59-.09-1.23,0-.66-.06-1.05-.18-1.17s-.5-.16-1.14-.12h-1.17ZM112.71,217.43c.36-.2.7-.16,1.02.12.26.22.42.39.48.51.06.1.11.31.15.63.12,1.48.16,2.25.12,2.31-.04.04-.06.59-.06,1.65s.02,1.79.06,2.25c.04.54,0,.94-.12,1.2-.24.64-.65.83-1.23.57-.22-.1-.41-.24-.57-.42l-.21-.3v-3c.04-1.94.03-3.27-.03-3.99-.04-.62-.03-1.01.03-1.17.08-.16.2-.28.36-.36h0ZM105.84,217.88c.08-.04.16-.06.24-.06s.24.07.48.21c.26.12.43.23.51.33.14.16.2.35.18.57,0,.2-.12.55-.36,1.05-.22.52-.39.88-.51,1.08-.1.18-.15.31-.15.39,0,.24.16.53.48.87.12.16.22.29.3.39.06.08.12.12.18.12.1,0,.37.2.81.6.18.2.33.31.45.33.14.02.24.06.3.12.02.02.17.12.45.3.26.16.52.37.78.63.26.24.4.41.42.51.08.28-.06.53-.42.75s-.68.25-.96.09c-.04,0-.11-.02-.21-.06-.1-.06-.16-.1-.18-.12-.16-.08-.24-.14-.24-.18s-.07-.08-.21-.12c-.14-.12-.29-.23-.45-.33-.26-.18-.42-.29-.48-.33-.04-.04-.17-.14-.39-.3-.12-.08-.24-.15-.36-.21-.14-.12-.37-.32-.69-.6-.38-.32-.61-.49-.69-.51s-.17.03-.27.15c-.14.14-.31.39-.51.75,0,0-.16.25-.48.75-.06.12-.14.26-.24.42-.02.1-.07.22-.15.36-.08.12-.13.22-.15.3-.14.26-.32.44-.54.54-.18.08-.35.09-.51.03-.14-.06-.24-.09-.3-.09-.04,0-.11-.04-.21-.12-.08-.1-.16-.22-.24-.36-.08-.16-.13-.29-.15-.39-.08-.38.02-.76.3-1.14.22-.22.33-.36.33-.42,0-.1.27-.51.81-1.23.26-.34.4-.55.42-.63.06-.18.26-.46.6-.84.16-.14.25-.29.27-.45.04-.16.1-.27.18-.33s.12-.11.12-.15.05-.13.15-.27c.24-.3.41-.64.51-1.02.24-.8.5-1.26.78-1.38h0ZM110.58,228.12c.6-.06,1.17-.09,1.71-.09s.89.07,1.05.21c.18.12.34.25.48.39l.15.24v1.89c0,1.26-.04,1.98-.12,2.16-.08.16-.2.31-.36.45-.16.12-.38.18-.66.18-.26,0-.56-.04-.9-.12-.54-.1-1.07-.1-1.59,0-.26.04-.95.07-2.07.09-.92.02-1.71.04-2.37.06l-.72.06-.12.18c-.04.1-.04.41,0,.93.04.48.09.77.15.87.08.08.32.12.72.12.32,0,.62.03.9.09.26.02.5,0,.72-.06.24-.08,1.36-.12,3.36-.12h3l.36.18c.52.28.81.57.87.87.08.38-.1.7-.54.96-.2.1-.48.15-.84.15-.3-.02-.75-.06-1.35-.12-.44-.06-1.13-.08-2.07-.06s-1.53.07-1.77.15c-.18.04-.41.04-.69,0-.26-.08-.57-.11-.93-.09-1.46.08-2.44.01-2.94-.21-.12-.02-.29-.15-.51-.39-.2-.22-.3-.38-.3-.48,0-.12-.04-.23-.12-.33-.08-.16-.13-.82-.15-1.98-.02-.54-.05-.88-.09-1.02-.08-.24-.09-.5-.03-.78s.15-.49.27-.63c.14-.12.3-.19.48-.21.2-.04.55-.03,1.05.03,1.14.12,1.8.18,1.98.18s.4-.02.66-.06c.34-.06.63-.09.87-.09.2,0,.55-.03,1.05-.09,1.14-.14,1.84-.21,2.1-.21.34,0,.55-.16.63-.48.02-.12.01-.3-.03-.54-.04-.24-.08-.38-.12-.42-.12-.12-1.03-.07-2.73.15-1.02.12-2.38.2-4.08.24-.64,0-1.11-.05-1.41-.15-.28-.12-.52-.33-.72-.63-.1-.16-.17-.33-.21-.51-.02-.18.05-.35.21-.51.16-.14.29-.22.39-.24.08-.02.4-.02.96,0,.56.06.97.07,1.23.03.26,0,.48.02.66.06.2.02.37.02.51,0,.2-.04.76-.08,1.68-.12.9-.04,1.68-.1,2.34-.18h0Z"/>
      <path class="st38" d="M95.86,168.94c1.51,0,2.73-1.28,2.73-2.87s-1.22-2.87-2.73-2.87-2.73,1.28-2.73,2.87,1.22,2.87,2.73,2.87Z"/>
      <path d="M95.86,169.95c-2.03,0-3.69-1.74-3.69-3.88s1.65-3.88,3.69-3.88,3.69,1.74,3.69,3.88-1.65,3.88-3.69,3.88ZM95.86,164.22c-.97,0-1.76.83-1.76,1.85s.79,1.85,1.76,1.85,1.76-.83,1.76-1.85-.79-1.85-1.76-1.85Z"/>
    </g>
    <g id="_시계" data-name="시계">
      <path class="st8" d="M413.04,294.71h-2.45l-1.66-3.68,2.73-1.7,1.38,5.38Z"/>
      <path class="st8" d="M391.01,291.03l-1.6,3.68h-2.51l1.38-5.38,2.74,1.7h-.01Z"/>
      <circle class="st49" cx="399.95" cy="271.03" r="22.5"/>
      <path class="st21" d="M402,244.71v1h-4v-1h4Z"/>
      <path class="st35" d="M400.5,246.21h-1v4h1v-4Z"/>
      <path d="M399.5,246.21v-1h-1v1h1ZM400.5,246.21h1v-1h-1v1ZM400.5,250.21v1h1v-1h-1ZM399.5,250.21h-1v1h1v-1ZM399.5,246.21v1h1v-2h-1v1ZM400.5,246.21h-1v4h2v-4h-1ZM400.5,250.21v-1h-1v2h1v-1ZM399.5,250.21h1v-4h-2v4h1Z"/>
      <path class="st33" d="M399.98,250.95c11.24,0,20.29,8.99,20.29,20.08s-9.11,20.08-20.29,20.08-20.35-8.99-20.35-20.08,9.11-20.08,20.35-20.08Z"/>
      <path class="st20" d="M400,233.71c6.14,0,9.94.59,12.26,2.72l.22.21c1.98,2.04,2.78,5.01,2.45,9.6h0c-.03.54-.15,1.71-.26,2.76-.05.52-.1,1.01-.14,1.36-.02.18-.04.33-.05.43,0,.05,0,.09-.01.12v.03h0v.11l-1.7,2.48-.42-.27,1.57-2.24.08-.11v-.13c.05-.38.14-1.25.24-2.18.09-.88.17-1.83.17-2.34.34-4.24-.39-7.22-2.33-9.21-1.16-1.19-2.75-1.88-4.74-2.26-1.99-.39-4.42-.49-7.32-.49s-5.35.12-7.34.51c-2,.4-3.59,1.08-4.72,2.24-1.94,2-2.67,4.98-2.33,9.21.07.95.4,3.82.46,4.52v.13l.09.11,1.57,2.24-.43.28-1.76-2.49v-.05s-.01-.15-.02-.25c-.01-.11-.03-.27-.05-.45-.04-.37-.09-.85-.14-1.36-.11-1.03-.22-2.16-.26-2.7h0c-.33-4.59.47-7.57,2.45-9.61,1.14-1.17,2.67-1.91,4.72-2.35,2.06-.44,4.61-.58,7.76-.58h-.02Z"/>
      <path class="st19" d="M388.99,281.97l.22.22-2.31,2.3-.22-.22,2.31-2.3Z"/>
      <path class="st19" d="M384.57,271.15v.24h-3.28v-.24h3.28Z"/>
      <path class="st19" d="M386.9,258.07l2.32,2.3-.22.22-2.32-2.3.22-.22Z"/>
      <path class="st17" d="M400.24,262.14l.3,11.87h-1.08l.24-11.87h.54Z"/>
      <path class="st17" d="M398.02,273.34l-.07-.07,4.52-4.41-4.45,4.49h0Z"/>
      <path class="st17" d="M400,271.02c.19,0,.29.11.29.28s-.1.28-.29.28-.29-.11-.29-.28.1-.28.29-.28Z"/>
      <path class="st18" d="M405.14,246.66c1.86-2.44,5.39-3.11,8.04-1.46h0l5.46,3.4h0c2.71,1.66,3.61,5.06,2.19,7.76-6.46-3.97-9.85-6.04-15.69-9.7Z"/>
      <path class="st18" d="M379.43,256.36c-1.42-2.7-.52-6.1,2.19-7.76h0l5.46-3.4h0c2.65-1.65,6.18-.98,8.04,1.46-5.84,3.66-9.23,5.73-15.69,9.7Z"/>
      <path class="st19" d="M400.16,252.86v3.25h-.32v-3.25h.32Z"/>
      <path class="st19" d="M413.12,258.16l.22.22-2.32,2.29-.22-.22,2.32-2.29Z"/>
      <path class="st19" d="M418.71,271.15v.24h-3.28v-.24h3.28Z"/>
      <path class="st19" d="M413.3,284.24l-.21.21-2.32-2.3.21-.21,2.32,2.3Z"/>
      <path class="st19" d="M400.16,286.56v3.25h-.32v-3.25h.32Z"/>
    </g>
  </g>
  <g>
    <path class="st5" d="M324.65,418.43c-.45-1.78-1.07-3.6-1.86-5.41-4.62-10.56-13.39-16.97-19.59-14.31-6.19,2.66-7.47,13.37-2.84,23.93,3.42,7.81,9.1,13.34,14.34,14.62,2.2.97,4.73,1.66,7.47,1.96,9.29,1.03,17.33-2.8,17.97-8.55.63-5.71-6.28-11.16-15.48-12.24Z"/>
    <g>
      <path class="st25" d="M515.1,274.33h-177.11c-9.53,0-17.29,8.13-17.29,18.13v213.44c0,1.87,1.44,3.38,3.22,3.38s3.21-1.51,3.21-3.38v-213.44c0-6.26,4.87-11.37,10.86-11.37h177.11c5.98,0,10.86,5.1,10.86,11.37v213.44c0,1.87,1.44,3.38,3.21,3.38s3.22-1.51,3.22-3.38v-213.44c0-10-7.76-18.13-17.29-18.13h0Z"/>
      <path d="M529.17,510.3c-2.3,0-4.18-1.97-4.18-4.4v-213.44c0-5.71-4.44-10.35-9.89-10.35h-177.11c-5.45,0-9.89,4.64-9.89,10.35v213.44c0,2.42-1.88,4.4-4.18,4.4s-4.18-1.97-4.18-4.4v-213.44c0-10.55,8.19-19.14,18.25-19.14h177.11c10.07,0,18.26,8.59,18.26,19.14v213.44c0,2.42-1.88,4.4-4.19,4.4h0ZM337.99,280.08h177.11c6.52,0,11.82,5.55,11.82,12.38v213.44c0,1.31,1.01,2.37,2.25,2.37s2.26-1.06,2.26-2.37v-213.44c0-9.44-7.33-17.12-16.33-17.12h-177.11c-9,0-16.32,7.68-16.32,17.12v213.44c0,1.31,1.01,2.37,2.25,2.37s2.25-1.06,2.25-2.37v-213.44c0-6.83,5.31-12.38,11.82-12.38Z"/>
      <path class="st25" d="M525.45,485.45h-198.42v6.77h198.42"/>
      <path d="M525.45,493.23h-198.42c-.53,0-.97-.45-.97-1.01v-6.77c0-.56.44-1.01.97-1.01h198.42c.53,0,.96.45.96,1.01s-.43,1.01-.96,1.01h-197.46v4.74h197.46c.53,0,.96.45.96,1.02s-.43,1.01-.96,1.01Z"/>
      <path class="st25" d="M301.21,520.02c1.77,0,3.21-1.52,3.21-3.38,0-2.88,2.23-5.22,4.96-5.22h28.47c2.73,0,4.96,2.34,4.96,5.22,0,1.87,1.44,3.38,3.21,3.38s3.22-1.52,3.22-3.38c0-6.6-5.11-11.98-11.39-11.98h-28.47c-6.27,0-11.39,5.37-11.39,11.98,0,1.87,1.44,3.38,3.22,3.38h0Z"/>
      <path d="M346.01,521.04c-2.3,0-4.18-1.97-4.18-4.4s-1.79-4.2-3.99-4.2h-28.46c-2.2,0-4,1.88-4,4.2s-1.88,4.4-4.18,4.4-4.18-1.97-4.18-4.4c0-7.16,5.54-13,12.36-13h28.46c6.81,0,12.36,5.83,12.36,13,0,2.42-1.88,4.4-4.19,4.4ZM309.38,510.42h28.46c3.27,0,5.93,2.79,5.93,6.23,0,1.31,1.01,2.37,2.25,2.37s2.25-1.06,2.25-2.37c0-6.05-4.67-10.97-10.43-10.97h-28.46c-5.75,0-10.43,4.92-10.43,10.97,0,1.31,1.01,2.37,2.26,2.37s2.25-1.06,2.25-2.37c0-3.44,2.65-6.23,5.92-6.23Z"/>
      <path class="st34" d="M301.08,526.81c3.17,0,5.75-2.71,5.75-6.05s-2.58-6.05-5.75-6.05-5.75,2.71-5.75,6.05,2.57,6.05,5.75,6.05Z"/>
      <path d="M301.08,527.82c-3.71,0-6.72-3.17-6.72-7.06s3.01-7.06,6.72-7.06,6.71,3.17,6.71,7.06-3.01,7.06-6.71,7.06h0ZM301.08,515.73c-2.64,0-4.79,2.26-4.79,5.03s2.15,5.03,4.79,5.03,4.78-2.26,4.78-5.03-2.14-5.03-4.78-5.03Z"/>
      <path class="st34" d="M346.14,526.81c3.18,0,5.76-2.71,5.76-6.05s-2.58-6.05-5.76-6.05-5.75,2.71-5.75,6.05,2.58,6.05,5.75,6.05Z"/>
      <path d="M346.15,527.82c-3.71,0-6.72-3.17-6.72-7.06s3.01-7.06,6.72-7.06,6.72,3.17,6.72,7.06-3.01,7.06-6.72,7.06ZM346.15,515.73c-2.64,0-4.79,2.26-4.79,5.03s2.15,5.03,4.79,5.03,4.79-2.26,4.79-5.03-2.15-5.03-4.79-5.03Z"/>
      <path class="st25" d="M506.8,520.02c1.78,0,3.22-1.52,3.22-3.38,0-2.88,2.23-5.22,4.96-5.22h28.46c2.74,0,4.96,2.34,4.96,5.22,0,1.87,1.44,3.38,3.22,3.38s3.22-1.52,3.22-3.38c0-6.6-5.11-11.98-11.4-11.98h-28.46c-6.28,0-11.39,5.37-11.39,11.98,0,1.87,1.44,3.38,3.21,3.38h0Z"/>
      <path d="M551.61,521.04c-2.3,0-4.18-1.97-4.18-4.4s-1.79-4.2-3.99-4.2h-28.47c-2.2,0-3.99,1.88-3.99,4.2s-1.88,4.4-4.18,4.4-4.18-1.97-4.18-4.4c0-7.16,5.54-13,12.35-13h28.47c6.81,0,12.35,5.83,12.35,13,0,2.42-1.87,4.4-4.18,4.4h0ZM514.97,510.42h28.47c3.26,0,5.92,2.79,5.92,6.23,0,1.31,1.01,2.37,2.25,2.37s2.25-1.06,2.25-2.37c0-6.05-4.67-10.97-10.42-10.97h-28.47c-5.75,0-10.42,4.92-10.42,10.97,0,1.31,1.01,2.37,2.25,2.37s2.25-1.06,2.25-2.37c0-3.44,2.66-6.23,5.92-6.23Z"/>
      <path class="st34" d="M506.67,526.81c3.17,0,5.75-2.71,5.75-6.05s-2.58-6.05-5.75-6.05-5.75,2.71-5.75,6.05,2.57,6.05,5.75,6.05Z"/>
      <path d="M506.67,527.82c-3.71,0-6.72-3.17-6.72-7.06s3.01-7.06,6.72-7.06,6.71,3.17,6.71,7.06-3.01,7.06-6.71,7.06ZM506.67,515.73c-2.64,0-4.79,2.26-4.79,5.03s2.15,5.03,4.79,5.03,4.78-2.26,4.78-5.03-2.14-5.03-4.78-5.03Z"/>
      <path class="st34" d="M551.74,526.81c3.18,0,5.75-2.71,5.75-6.05s-2.57-6.05-5.75-6.05-5.75,2.71-5.75,6.05,2.57,6.05,5.75,6.05Z"/>
      <path d="M551.74,527.82c-3.71,0-6.72-3.17-6.72-7.06s3.01-7.06,6.72-7.06,6.72,3.17,6.72,7.06-3.01,7.06-6.72,7.06ZM551.74,515.73c-2.64,0-4.79,2.26-4.79,5.03s2.15,5.03,4.79,5.03,4.79-2.26,4.79-5.03-2.15-5.03-4.79-5.03Z"/>
    </g>
    <g id="_노란티" data-name="노란티">
      <path class="st46" d="M417.06,339.08l-38.65,7.75-1.47-45.38,18.23-6.99,18.99,9.96,2.9,34.66Z"/>
      <path class="st39" d="M414.16,300.99l-17.63-9.22c-2.83-1.48-6.18-1.37-8.91.29-4.98,3.01-9.87,6.17-14.68,9.47,1.5,1.35,5.3,4.76,5.3,4.76,3.03-3.61,8.57-6.03,14.91-6.03,5.99,0,11.27,2.17,14.39,5.45"/>
      <path d="M378.24,307.3c-.21,0-.44-.08-.62-.24l-5.3-4.76c-.23-.21-.35-.52-.34-.84.02-.32.18-.61.44-.79,4.8-3.29,9.75-6.49,14.72-9.5,3.03-1.83,6.71-1.96,9.83-.33l17.63,9.22c.48.25.67.86.44,1.36-.24.5-.82.7-1.3.45l-17.63-9.22c-2.54-1.33-5.53-1.23-8,.26-4.57,2.77-9.12,5.69-13.55,8.7l3.63,3.25c3.42-3.55,8.93-5.64,14.97-5.64s11.65,2.15,15.07,5.75c.37.4.37,1.04,0,1.43-.38.4-.99.39-1.36,0-3.07-3.23-8.19-5.15-13.71-5.15-5.8,0-11.24,2.18-14.18,5.68-.19.22-.45.34-.72.34h-.02v.03Z"/>
      <path class="st43" d="M357.54,376.61c-6.22-2.27-12.36-4.78-18.41-7.53-.48-.22-1-.47-1.24-.96-.23-.47-.16-1.03-.07-1.55,1.81-11.34,4.01-22.61,6.62-33.78,1.7-7.31,1.5-19.37,9.23-23.01,6.22-2.93,12.44-5.87,18.67-8.79-.35-.49-.26-1.21.07-1.72.33-.51.84-.85,1.34-1.16,1.6-1.02,3.66-1.04,5.32-1.97,4.33,14.65,9.06,29.18,14.18,43.55,5.12-14.38,9.85-28.9,14.18-43.55,1.65.93,3.72.95,5.32,1.97.5.32,1.01.66,1.34,1.16.33.51.43,1.23.07,1.72,6.22,2.93,12.44,5.86,18.67,8.79,7.73,3.64,7.53,15.71,9.23,23.01,2.6,11.17,4.81,22.44,6.62,33.78.09.52.16,1.08-.07,1.55-.24.49-.76.74-1.24.96-6.05,2.75-12.18,5.26-18.41,7.53"/>
      <path d="M357.54,377.63c-.1,0-.21-.02-.31-.05-6.22-2.27-12.44-4.81-18.48-7.56-.48-.22-1.3-.59-1.71-1.42-.39-.79-.26-1.63-.17-2.18,1.81-11.31,4.04-22.7,6.63-33.85.37-1.58.65-3.4.95-5.34,1.04-6.82,2.34-15.3,8.83-18.36l17.89-8.42c-.05-.58.11-1.2.45-1.74.45-.7,1.14-1.14,1.63-1.46.96-.61,2.02-.89,3.03-1.17.85-.22,1.65-.44,2.33-.83.25-.14.55-.16.82-.05s.47.34.56.64c4.06,13.71,8.52,27.47,13.26,40.94,4.74-13.45,9.2-27.21,13.26-40.94.09-.29.29-.52.56-.64.27-.11.57-.1.83.05.68.39,1.48.6,2.32.83,1.02.27,2.08.55,3.03,1.17.5.32,1.18.75,1.64,1.46.35.54.49,1.16.45,1.74l17.88,8.42c6.49,3.06,7.79,11.54,8.84,18.36.29,1.93.57,3.75.94,5.34,2.59,11.14,4.83,22.53,6.63,33.85.09.55.23,1.39-.16,2.18-.41.83-1.23,1.21-1.71,1.42-6.04,2.75-12.26,5.29-18.48,7.56-.5.18-1.06-.1-1.23-.63-.17-.53.09-1.11.6-1.29,6.18-2.25,12.34-4.78,18.34-7.5.25-.11.67-.3.77-.5.09-.18.02-.64-.03-.91-1.8-11.27-4.02-22.62-6.6-33.71-.39-1.66-.67-3.52-.97-5.5-1.02-6.66-2.18-14.22-7.72-16.83l-18.67-8.79c-.27-.13-.47-.38-.54-.68-.07-.3-.01-.62.17-.86.05-.08.03-.33-.11-.54-.2-.32-.58-.57-1.04-.87-.71-.45-1.58-.69-2.51-.93-.56-.15-1.14-.3-1.71-.52-4.25,14.28-8.92,28.58-13.88,42.53-.14.39-.5.66-.9.66s-.77-.26-.9-.66c-4.98-13.97-9.64-28.27-13.88-42.53-.57.22-1.15.37-1.71.52-.92.24-1.79.48-2.51.93-.46.3-.84.55-1.04.87-.14.21-.16.46-.11.54.18.24.24.57.17.86-.07.3-.27.55-.54.68l-18.67,8.79c-5.54,2.61-6.7,10.17-7.72,16.83-.3,1.98-.58,3.84-.97,5.49-2.59,11.1-4.81,22.44-6.6,33.71-.05.27-.12.72-.03.91.1.2.52.39.77.5,6,2.73,12.16,5.25,18.34,7.5.5.18.77.77.6,1.29-.14.42-.52.68-.91.68h0Z"/>
      <path d="M391.28,291.96c-.53,0-.96-.45-.96-1.01v-4.26c0-1.88,1.21-3.54,3.16-4.33,2.04-.83,3.37-2.73,3.37-4.84,0-2.9-2.5-5.26-5.56-5.26-1.95.02-3.55.8-4.89,2.39-.36.42-.97.45-1.37.08s-.43-1.01-.08-1.43c1.7-2.01,3.83-3.05,6.33-3.07,4.14,0,7.5,3.27,7.5,7.29,0,2.95-1.81,5.59-4.6,6.72-1.18.48-1.92,1.41-1.92,2.43v4.26c0,.56-.43,1.02-.97,1.02h-.01Z"/>
      <path d="M389.75,343.55c-.22,0-.44-.08-.62-.24-2.9-2.57-5.76-5.12-8.63-7.68-2.84-2.54-5.68-5.07-8.57-7.62-.34-.3-.44-.82-.23-1.24.63-1.27,1.22-2.61,1.79-3.91.37-.86.75-1.73,1.15-2.6-1.03-.08-2.08-.18-3.1-.28-1.5-.14-3.03-.29-4.51-.36-.3-.01-.58-.18-.75-.43-.17-.26-.22-.59-.13-.89l4.29-14.18c.16-.53.7-.83,1.21-.66.5.17.79.74.63,1.27l-3.91,12.93c1.11.07,2.24.19,3.34.29,1.49.14,3.02.29,4.49.36.33.01.63.2.79.51.17.3.18.67.02.97-.63,1.27-1.22,2.61-1.78,3.91-.47,1.08-.95,2.18-1.47,3.27,2.68,2.38,5.33,4.74,7.97,7.1,2.87,2.55,5.72,5.11,8.63,7.67.41.36.46,1,.12,1.43-.2.24-.47.36-.74.36h.01v.02Z"/>
      <path d="M396.75,343.55c-.27,0-.54-.12-.74-.36-.34-.43-.29-1.07.12-1.43,2.91-2.57,5.77-5.13,8.64-7.69,2.64-2.36,5.29-4.72,7.96-7.09-.52-1.09-1-2.2-1.47-3.27-.57-1.3-1.15-2.63-1.78-3.91-.16-.3-.14-.68.02-.97.16-.3.46-.49.79-.51,1.47-.07,3-.22,4.49-.36,1.1-.11,2.22-.22,3.34-.29l-3.91-12.93c-.16-.54.13-1.1.63-1.27.51-.17,1.05.13,1.21.66l4.29,14.18c.09.3.04.63-.13.89s-.45.42-.75.43c-1.47.07-3.01.22-4.51.36-1.02.1-2.06.2-3.1.28.39.87.78,1.75,1.15,2.61.57,1.3,1.16,2.63,1.79,3.91.2.42.1.94-.24,1.24-2.87,2.54-5.71,5.07-8.55,7.6-2.87,2.56-5.73,5.11-8.64,7.69-.18.16-.4.24-.62.24h.01Z"/>
      <path class="st43" d="M428.79,345.67c1.98,29.34,2.81,58.76,2.48,88.17-12.23,4.48-25.08,4.1-38.02,3.71-12.94.39-25.79.77-38.02-3.71-.33-29.41.5-58.83,2.48-88.17"/>
      <path d="M404.06,440.25c-3.63,0-7.25-.11-10.84-.22-12.71.39-25.91.78-38.31-3.77-.38-.14-.64-.52-.65-.95-.33-29.31.51-59.01,2.49-88.25.04-.56.5-.99,1.03-.94.53.04.93.53.89,1.08-1.95,28.95-2.79,58.34-2.49,87.37,11.89,4.18,24.67,3.79,37.04,3.42,12.42.37,25.21.76,37.1-3.42.3-29.03-.54-58.42-2.49-87.37-.04-.56.36-1.04.89-1.08.53-.05.99.38,1.03.94,1.98,29.24,2.81,58.94,2.49,88.25,0,.43-.26.81-.65.95-8.92,3.27-18.25,3.98-27.53,3.98h0Z"/>
      <path d="M395.27,437.13c-.54,0-.97-.45-.97-1.01l-.02-8.63c-.09-25.07-.17-50.99.43-76.54.03-1.32,0-2.67-.72-3.38-.39-.39-.41-1.02-.05-1.43.37-.41.97-.43,1.37-.05,1.3,1.28,1.37,3.21,1.33,4.91-.59,25.52-.51,51.43-.43,76.48l.03,8.62c0,.56-.43,1.02-.97,1.02h0Z"/>
    </g>
    <g id="_파란티" data-name="파란티">
      <path class="st36" d="M431.25,339.77c.48,26.24-2.33,79.97-1.43,80.58,2.33,1.59,6.99,1.64,9.75,2.02,20.32,2.81,40.99-2.74,61.37-.53.67.07,1.35-.05,1.98-.26.53-.18-.56-14.71-.61-16.18-.2-5.61-1.17-27.43-1.33-32.55-.36-11.7-.74-23.41-.77-35.12"/>
      <path class="st27" d="M447.84,321.52c-2.65-4.09-5.3-8.17-7.95-12.26,3.69-2.77,7.38-5.55,11.08-8.32.18-.14.37-.28.59-.28.27,0,.51.18.71.35,1.82,1.5,6.04,5.81,14.14,5.46,12.09-.53,12.91-5.31,14.19-7.9,3.37,2.96,13.09,10.12,16.46,13.08"/>
      <path d="M447.84,322.53c-.3,0-.61-.15-.79-.44l-7.96-12.26c-.3-.45-.19-1.08.24-1.4l11.07-8.32c.23-.17.61-.45,1.13-.47.63-.01,1.09.36,1.34.56.15.13.33.28.51.44,1.93,1.66,5.92,5.11,12.99,4.8,10.32-.45,11.86-3.94,12.98-6.5.13-.3.26-.59.39-.86.14-.27.38-.47.67-.53.29-.06.59.02.81.22,1.66,1.46,4.97,4.02,8.18,6.5,3.23,2.5,6.57,5.08,8.28,6.58.41.36.46,1,.12,1.43s-.95.49-1.36.13c-1.66-1.46-4.97-4.03-8.18-6.51-2.7-2.09-5.48-4.23-7.31-5.76-1.27,2.85-3.47,6.84-14.49,7.32-7.81.34-12.19-3.44-14.3-5.26-.18-.16-.34-.29-.48-.41-.02-.01-.05-.05-.09-.07-.02.01-.04.03-.06.04l-10.31,7.75,7.43,11.43c.3.46.19,1.1-.25,1.41-.17.12-.36.18-.54.18h-.02,0Z"/>
      <path class="st39" d="M494.94,308.27c-6.6-.8-12.38-5.19-16.75-10.45-1.69-2.03-3.24-4.23-5.29-5.82-3.22-2.5-7.21-2.44-10.59-.32-1.57.99-2.89,2.37-4.26,3.67-4.67,4.4-10.17,7.82-16.09,10,.81.94,1.05,2.48,1.75,3.53,5.31-3.5,10.74-7.12,16.79-8.84,3-.85,6.56-1.5,9.64-.72,8.44,2.12,13.61,10.92,22.44,12.33.9-1.15,1.55-2.16,2.36-3.38h0Z"/>
      <path d="M492.58,312.66s-.09,0-.15-.01c-4.88-.78-8.67-3.69-12.34-6.5-3.28-2.52-6.38-4.89-10.19-5.85-2.37-.6-5.37-.36-9.16.72-5.77,1.64-11.05,5.12-16.16,8.48l-.37.24c-.44.28-1.01.16-1.31-.28-.36-.55-.61-1.18-.84-1.79-.25-.64-.49-1.25-.82-1.64-.22-.25-.31-.6-.22-.93.08-.33.31-.6.62-.71,5.76-2.12,11.22-5.51,15.76-9.79.26-.24.51-.48.76-.72,1.12-1.08,2.28-2.2,3.65-3.06,3.87-2.43,8.23-2.29,11.66.37,1.7,1.33,3.06,3.02,4.38,4.66.35.44.71.88,1.07,1.31,3.43,4.14,9.02,9.25,16.13,10.11.33.04.63.26.77.59s.1.7-.09,1l-.27.41c-.71,1.06-1.32,1.98-2.13,3.02-.18.24-.46.37-.74.37h-.01ZM467.11,297.94c1.17,0,2.25.13,3.25.38,4.19,1.05,7.59,3.67,10.88,6.18,3.49,2.67,6.79,5.21,10.95,6.03.38-.51.73-1.01,1.07-1.52-6.96-1.42-12.38-6.43-15.79-10.53-.37-.44-.73-.89-1.09-1.34-1.3-1.62-2.53-3.15-4.05-4.34-2.78-2.16-6.34-2.26-9.52-.26-1.19.75-2.23,1.75-3.33,2.82-.26.24-.51.49-.78.74-4.43,4.18-9.69,7.54-15.27,9.76.16.34.3.7.43,1.04.07.18.14.36.21.53,5.07-3.33,10.33-6.72,16.18-8.39,2.6-.74,4.87-1.1,6.87-1.1h-.01,0Z"/>
      <path class="st36" d="M500.75,365.44c6.64-1.51,10.99-4.29,17.17-8.83,1.72-1.27,6.14-4.15,6.92-6.2-3.06-5.7-6.11-11.39-9.16-17.09-3.81-7.09-8.13-13.75-12.13-20.69-.84-1.46-1.54-3.45-2.62-4.67-1.05-1.17-2.93-1.53-4.3-2.12-5.36-2.37-10.73-4.74-16.1-7.1v2.41c0,6.42-6.54,11.62-14.62,11.62-8.96,0-16.03-6.41-14.36-13.78-3.8,1.34-7.61,2.67-11.42,4.01-2.38.83-4.79,1.68-6.88,3.14-3.09,2.14-5.25,5.45-7.26,8.71-3.74,6.1-7.21,12.37-10.56,18.71-1.7,3.23-3.37,6.47-5.03,9.73-.98,1.93-4,5.69-2.92,7.96.51,1.06,1.47,1.78,2.4,2.46,6.2,4.51,12.47,9.07,19.56,11.74"/>
      <path d="M466.04,318.38c-11,0-19.96-7.31-19.96-16.3,0-.56.43-1.01.97-1.01s.96.45.96,1.01c0,7.87,8.09,14.27,18.03,14.27s18.04-6.4,18.04-14.27c0-.56.43-1.01.96-1.01s.97.45.97,1.01c0,8.98-8.96,16.3-19.97,16.3Z"/>
      <path d="M467.46,292.86c-.54,0-.97-.45-.97-1.02v-4.45c0-1.92,1.08-3.63,2.81-4.46,1.79-.87,2.95-2.88,2.95-5.12,0-3.06-2.15-5.55-4.79-5.55-1.67.02-3.01.8-4.18,2.45-.33.45-.93.54-1.35.2-.43-.34-.52-.97-.2-1.42,1.53-2.14,3.45-3.23,5.72-3.26,3.72,0,6.74,3.4,6.74,7.58,0,3.04-1.6,5.77-4.08,6.97-1.04.5-1.68,1.5-1.68,2.61v4.45c0,.56-.43,1.02-.97,1.02h0Z"/>
      <path d="M429.45,366.45c-.11,0-.22-.02-.33-.06-7.25-2.74-13.62-7.38-19.78-11.87-.93-.68-2.09-1.52-2.72-2.83-1.09-2.28.74-5.26,2.08-7.43.33-.55.65-1.06.85-1.46,1.99-3.91,3.54-6.91,5.03-9.75,3.88-7.34,7.24-13.31,10.59-18.77,2.05-3.33,4.31-6.77,7.54-9.01,2.21-1.54,4.7-2.41,7.11-3.26,3.81-1.33,7.62-2.67,11.42-4.01.34-.11.7-.03.96.22s.37.62.29.98c-.58,2.55-.01,5.05,1.63,7.24,2.46,3.26,6.97,5.28,11.8,5.28,7.53,0,13.65-4.76,13.65-10.61v-2.41c0-.34.17-.66.44-.85.27-.19.61-.22.9-.09l16.11,7.1c.34.16.74.29,1.16.44,1.19.42,2.53.89,3.46,1.93.8.9,1.38,2.1,1.94,3.26.28.57.54,1.1.81,1.57,1.54,2.69,3.17,5.37,4.74,7.98,2.49,4.12,5.06,8.39,7.4,12.75l9.16,17.09c.14.27.16.59.06.87-.72,1.89-3.54,4.01-6.37,6.01-.34.24-.65.46-.9.64-5.78,4.25-10.42,7.38-17.51,8.99-.53.12-1.04-.23-1.15-.78-.11-.55.22-1.09.74-1.2,6.18-1.41,10.34-3.92,16.81-8.67.26-.19.57-.41.93-.66,1.51-1.08,4.52-3.21,5.45-4.69l-8.9-16.61c-2.32-4.32-4.88-8.56-7.35-12.66-1.57-2.61-3.2-5.31-4.76-8.01-.31-.54-.59-1.13-.87-1.71-.5-1.03-1.01-2.1-1.63-2.79-.59-.66-1.65-1.04-2.67-1.39-.43-.16-.88-.31-1.29-.49l-14.77-6.51v.88c0,6.97-6.99,12.64-15.58,12.64-5.49,0-10.47-2.27-13.31-6.05-1.63-2.17-2.4-4.7-2.25-7.25-3.3,1.16-6.62,2.32-9.92,3.48-2.29.8-4.66,1.63-6.66,3.02-2.92,2.03-4.96,5.14-6.98,8.42-3.33,5.42-6.68,11.35-10.53,18.65-1.48,2.82-3.03,5.82-5.02,9.72-.24.47-.57,1.02-.93,1.6-1.03,1.66-2.57,4.18-1.98,5.43.41.86,1.3,1.5,2.09,2.08,6.06,4.41,12.32,8.97,19.34,11.62.5.19.76.77.58,1.3-.14.41-.52.67-.91.67v.02Z"/>
      <path class="st12" d="M452.47,424.21c-4.36,0-8.71-.22-13.03-.82-.61-.09-1.32-.16-2.08-.22-2.7-.26-6.06-.58-8.07-1.95-.77-.52-.86-.59-.03-27.05.57-17.85,1.28-40.08,1.01-54.37-.01-.56.42-1.02.95-1.04.53-.03.97.43.98.99.27,14.35-.44,36.6-1.01,54.48-.37,11.95-.74,23.26-.54,25.47,1.68.93,4.55,1.21,6.89,1.44.78.07,1.51.14,2.15.24,10.44,1.45,21.21.64,31.62-.13,9.76-.73,19.84-1.47,29.73-.41.32.03.68.01,1.06-.07.09-2.11-.4-9.71-.6-12.74-.09-1.3-.15-2.26-.16-2.58-.09-2.5-.33-8.21-.59-14.25-.32-7.6-.65-15.47-.74-18.31l-.05-1.62c-.34-10.99-.69-22.34-.73-33.53,0-.56.43-1.01.96-1.02.54,0,.97.45.97,1.01.04,11.15.38,22.5.72,33.47l.06,1.62c.09,2.83.41,10.69.74,18.29.25,6.05.49,11.76.58,14.26.01.32.07,1.25.16,2.52.92,14.29.75,14.34-.22,14.67-.85.28-1.64.38-2.37.3-9.73-1.05-19.73-.31-29.39.41-6.25.47-12.61.94-18.98.94h.01Z"/>
      <path d="M429.29,360.05c-.14,0-.28-.03-.42-.1-4.28-2.19-8.71-4.46-12.82-7.23-2.53-1.7-4.95-3.6-7.2-5.66-.41-.36-.45-1.01-.1-1.43.35-.42.96-.47,1.36-.1,2.19,2,4.54,3.84,6.98,5.49,4.02,2.7,8.4,4.94,12.63,7.1.49.24.68.85.45,1.35-.17.36-.51.57-.87.57h-.01,0Z"/>
      <path d="M501.88,360.08c-.4,0-.78-.26-.92-.69-.17-.53.1-1.11.61-1.29,4.86-1.74,9.35-4.65,13.69-7.45,2.04-1.33,4.16-2.69,5.59-4.68.32-.45.92-.54,1.35-.2.42.34.51.97.19,1.42-1.64,2.3-4.02,3.84-6.12,5.19-4.43,2.87-9.01,5.83-14.08,7.64-.1.03-.2.06-.31.06h0Z"/>
    </g>
    <g>
      <g>
        <path class="st9" d="M301.53,491.3c1.2-3.22,2.17-7.07,2.78-11.63,1.65-12.37-.9-22.11-6.9-26.32-8.39-5.88-15.56,2.88-16.95,17.76-1.15,12.37-2.71,30.51,3.55,33.29,1.18,1.6,3.78,2.93,8.74,4.56,6.65,2.19,13.87,1.83,15.37-3.71,1.34-4.96.75-13.85-6.6-13.94Z"/>
        <path class="st31" d="M201.8,336.4c-29.27-25.02-61.95-30.46-72.98-12.16-11.03,18.3,3.76,53.43,33.03,78.44,6.24,5.33,12.63,9.77,18.94,13.28,10.25,20.76,25.38,37.36,39.67,41.69,20.61,6.24,31.68-15.41,24.73-48.36-2.85-13.48-8.27-26.77-15.1-38.19-6.35-12.03-16.04-24.25-28.28-34.72Z"/>
        <ellipse class="st9" cx="265.69" cy="434.68" rx="51.01" ry="43.6" transform="translate(-243.6 447.43) rotate(-60)"/>
        <path class="st5" d="M268.81,425.69c-.58-2.3-1.38-4.64-2.4-6.98-5.96-13.62-17.28-21.88-25.26-18.45-7.99,3.43-9.63,17.25-3.67,30.87,4.41,10.07,11.74,17.2,18.49,18.86,2.84,1.25,6.11,2.14,9.63,2.53,11.98,1.32,22.35-3.62,23.17-11.03.81-7.36-8.11-14.4-19.96-15.79Z"/>
        <path class="st9" d="M257.08,459.91c-9.09-7.87-19.73-.73-24.53,13.92-4.01,12.24-9.74,30.26-2.44,34.4,1.66,1.28,4.2,2.69,7.91,4.45,7.61,3.62,16.12,4.88,18.35-.19,1.77-4.02,2.03-11.38-3.92-14.21,3.13-3.2,5.86-6.78,7.64-10.27,5.94-11.6,3.49-22.47-3.02-28.1Z"/>
      </g>
      <g>
        <path class="st7" d="M325.24,355.93c-3.52-3.38-6.57-7.23-9.52-11.12-1.4-1.85-2.96-3.58-4.66-5.19-1.58-1.5-1.78-3.88-.53-5.66,1.13-1.62,2.04-3.8,2.85-6.14,2.7-7.9-2.06-9.92-5.78-10.29-3.72-.37-7.17,3.63-7.71,8.95,0,.02,0,.04,0,.06-.21,2.16-2.4,3.52-4.37,2.62-10.51-4.79-26.41-8.43-40.7,2.88-1.03.82-2.56.18-2.73-1.12v-.02c-.23-1.72-.57-3.43-1.01-5.11-.41-1.57-.95-3.2-2.04-4.45-.49-.56-1.11-.99-1.8-1.26-.83-.32-1.76-.31-2.62-.13-1.56.34-3,1.3-4.12,2.41-1.06,1.06-1.88,2.33-2.45,3.71-1.14,2.75-1.08,5.86.2,8.55.57,1.2,1.37,2.29,2.34,3.21,1.55,1.47,1.57,3.93.21,5.58-2.92,3.54-5.26,7.52-6.88,11.8-1.25,3.32-3.26,6.28-5.59,8.95-3.55,4.07-5.57,8.74-5.57,13.7,0,12.03,11.86,22.33,28.71,26.65,7.47,4.74,16.51,7.51,26.26,7.51,15.67,0,29.51-7.17,37.91-18.13,10.41-5.28,17.06-13.32,17.06-22.33,0-5.76-2.73-11.12-7.41-15.62Z"/>
        <path class="st11" d="M279.25,353.39c-.02-.24-.05-.49-.09-.73-.01-.07-.04-.14-.05-.22-.03-.19-.07-.37-.12-.55-.14-.42-.35-.78-.63-1.12-.24-.28-.54-.52-.87-.68-.19-.09-.38-.17-.58-.22-.2-.06-.41-.08-.62-.11-.75-.08-1.51.12-2.16.49-.36.2-.69.47-.98.76,0,0,0,0,0,0-.04.04-.09.07-.13.1-.41.36-.77.77-1.13,1.18-.38.44-.77.89-1.09,1.38-.17.27-.31.55-.42.85-.11.28-.16.57-.19.87-.05.44.02.92.21,1.33.04.2.11.39.21.57.08.13.17.25.27.36,0,0,0,0,0,0,.38.65,1.01,1.11,1.7,1.38.07.06.15.1.24.14.35.12.72.2,1.09.22.37.02.74-.02,1.11-.08.68-.11,1.34-.37,1.92-.75.63-.41,1.16-.94,1.55-1.57.4-.64.63-1.36.72-2.11.01-.09,0-.19.01-.28,0-.03.01-.07.02-.1.02-.15.03-.31.03-.46,0-.02,0-.03,0-.05.01-.2.01-.39,0-.59Z"/>
        <path class="st31" d="M304.45,347.05c-.24-.06-.48-.12-.72-.15-.07-.01-.15-.01-.22-.02-.19-.04-.37-.06-.56-.06-.44,0-.85.07-1.27.23-.34.13-.67.34-.93.6-.15.15-.29.3-.4.47-.12.17-.22.36-.31.55-.32.68-.38,1.46-.25,2.2.08.4.21.8.39,1.17,0,0,0,0,0,.01.02.05.03.11.05.16.21.5.47.98.74,1.45.29.51.58,1.02.94,1.48.2.25.42.47.66.68.23.19.48.34.75.47.4.19.87.28,1.32.24.2.02.41.03.61,0,.15-.03.29-.08.43-.14,0,0,0,0,0,0,.74-.14,1.38-.59,1.87-1.15.08-.04.15-.1.21-.18.23-.29.43-.61.56-.95.14-.35.23-.71.29-1.08.12-.68.09-1.39-.07-2.06-.18-.73-.51-1.4-.97-1.98-.48-.59-1.08-1.04-1.75-1.38-.09-.04-.18-.07-.26-.11-.03-.02-.06-.03-.09-.05-.14-.07-.28-.13-.43-.18-.02,0-.03-.02-.05-.02-.18-.08-.37-.14-.56-.19Z"/>
        <ellipse id="_오른반사광" data-name="오른반사광" class="st22" cx="276.14" cy="351.85" rx="1.57" ry="1.5"/>
        <ellipse id="_왼반사광" data-name="왼반사광" class="st22" cx="302.23" cy="349.54" rx="1.57" ry="1.5" transform="translate(-61.46 64.5) rotate(-11.06)"/>
        <ellipse class="st30" cx="246.13" cy="330.37" rx="3.64" ry="5.63" transform="translate(-102.5 110.88) rotate(-21.12)"/>
        <ellipse class="st30" cx="305.65" cy="328.03" rx="5.63" ry="3.64" transform="translate(-131.26 428.71) rotate(-60)"/>
        <ellipse class="st44" cx="252.68" cy="379.69" rx="20.33" ry="19.4"/>
        <ellipse class="st44" cx="317.62" cy="369.89" rx="13.79" ry="13.55"/>
        <path id="_주둥이" data-name="주둥이" class="st29" d="M312.69,373.53c-.83,9.49-10.13,17.18-20.78,17.18s-18.6-7.69-17.77-17.18,10.13-17.18,20.78-17.18,18.6,7.69,17.77,17.18Z"/>
        <path class="st31" d="M307.15,373.75c0-.1-.14-.23-.25-.28-.12-.05-.24-.07-.38-.05-.31.03-.52.22-.57.45-.02.08-.03.17-.05.25-.02.07-.05.14-.07.22.01-.04.02-.09.04-.13-.08.27-.21.53-.36.78-.17.25-.38.49-.61.71-.25.21-.52.4-.81.58-.27.14-.55.26-.85.36-.28.08-.57.14-.86.18-.3.02-.59.02-.88,0-.34-.04-.67-.11-.98-.21-.31-.11-.6-.24-.86-.4-.25-.17-.48-.36-.68-.56-.16-.19-.29-.39-.39-.6-.02-.06-.05-.12-.07-.19,0-.03-.03-.06-.05-.09.14-.25.28-.5.38-.75.32-.76.48-1.54.52-2.32.02-.43,0-.86-.04-1.28-.04-.38-.09-.77-.2-1.15-.05-.17-.1-.33-.15-.5,3.46-.6,6.2-2.7,6.46-5.2.31-2.97-2.97-5.38-7.32-5.38s-8.14,2.41-8.45,5.38c-.31,2.97,2.97,5.38,7.32,5.38.26,0,.52,0,.78-.03,0,.01,0,.03,0,.04.07.36.12.73.17,1.09.03.19.05.37.07.56,0,.05,0,.09.01.14,0,0,0,0,0,0,0,0,0,0,0,.02,0,.09.01.19.01.28.01.37,0,.75-.05,1.12-.02.18-.05.36-.09.54-.02.09-.04.19-.06.28,0,.02-.04.14-.02.07.02-.07,0,.01,0,.03,0,.03-.02.05-.02.08-.09.31-.22.61-.37.91-.07.15-.15.29-.24.43-.02.03-.04.06-.06.09,0,0-.02.03-.03.05-.04.06-.08.12-.12.17-.2.27-.42.54-.67.79-.06.06-.12.12-.18.17-.03.03-.06.05-.08.08.13-.12,0,0-.03.02-.14.12-.28.23-.43.34-.15.11-.3.21-.46.31-.03.02-.07.04-.1.06-.01,0-.02.01-.03.02-.08.04-.15.08-.23.12-.17.08-.34.16-.52.23-.08.03-.16.06-.25.09-.04.01-.08.03-.13.04,0,0-.01,0-.02,0-.36.11-.74.19-1.12.24-.04,0-.07,0-.11.01,0,0,0,0-.01,0-.1,0-.19.01-.29.02-.19,0-.38,0-.57,0-.09,0-.17,0-.26-.01-.02,0-.09,0-.1,0-.01,0-.03,0-.03,0-.18-.02-.36-.05-.54-.09-.08-.02-.16-.04-.24-.06-.04-.01-.09-.02-.13-.04-.02,0-.05-.02-.08-.03-.14-.05-.28-.1-.41-.17-.07-.03-.14-.07-.21-.11-.04-.02-.07-.04-.11-.06-.02,0-.03-.02-.05-.03.01,0,.01,0,.02.01-.12-.08-.24-.17-.34-.26-.05-.04-.1-.09-.14-.14-.02-.03-.05-.06-.07-.09-.08-.11-.16-.22-.22-.34-.01-.03-.03-.05-.04-.08,0,0-.01-.03-.02-.05,0-.02-.01-.03-.02-.04-.01-.03-.02-.06-.03-.09-.04-.12-.08-.25-.1-.38-.01-.06-.02-.12-.02-.18,0,0,0,0,0,0,0-.03,0-.06,0-.09,0-.13,0-.26.03-.39,0-.06.02-.12.04-.18,0,0,0-.02,0-.03,0-.02.01-.05.02-.07.04-.12.09-.24.16-.36.03-.05.06-.11.09-.16,0,0,0,0,0,0,.02-.03.05-.07.07-.1.08-.11.18-.22.28-.32,0,0,.01-.01.02-.02.02-.02.05-.04.07-.06.06-.05.12-.1.19-.14.25-.18.3-.51.07-.68-.24-.18-.61-.18-.89,0-1.28.84-1.71,2.23-1.34,3.38.18.58.55,1.13,1.11,1.53.61.44,1.38.74,2.22.87.86.13,1.76.11,2.64-.05.89-.16,1.7-.48,2.45-.91.69-.39,1.29-.88,1.78-1.43.23.36.54.69.92.96.66.47,1.48.82,2.39.94.46.06.93.09,1.4.05.54-.05,1.04-.15,1.55-.32.9-.3,1.68-.81,2.27-1.41.33-.33.6-.71.78-1.1.21-.42.29-.87.25-1.3Z"/>
      </g>
    </g>
  </g>
</svg>