<svg width="309" height="349" viewBox="0 0 309 349" fill="none" xmlns="http://www.w3.org/2000/svg">
<path d="M124.894 68.146C93.8959 12.7258 46.4536 -14.3629 18.9294 7.65862C-8.59487 29.6801 -5.76915 92.4621 25.2288 147.882C31.8363 159.695 39.1981 170.201 46.9422 179.241C50.9471 217.208 64.8632 251.542 84.5052 266.403C112.837 287.83 142.326 260.656 150.378 205.703C153.672 183.214 152.864 159.568 148.817 138.003C145.864 115.769 137.854 91.3148 124.883 68.146H124.894Z" fill="#4C241E"/>
<path d="M270.365 297.337C278.534 287.447 283.41 276.516 284.037 268.177C284.557 263.758 284.355 259.105 283.314 254.452C279.139 235.767 263.067 224.039 247.408 228.245C231.761 232.452 222.455 251 226.63 269.686C228.245 276.899 231.633 283.071 236.084 287.692C232.441 295.383 231.017 302.649 232.207 307.865C232.472 311.785 235.022 316.671 239.176 320.528C245.114 326.051 252.061 327.379 254.685 323.491C256.491 320.825 255.79 316.385 253.24 312.082C258.881 308.98 264.905 303.934 270.354 297.337H270.365Z" fill="#DD9E59" stroke="#4C241E" stroke-width="2.9" stroke-miterlimit="10"/>
<path d="M215.423 148.679C175.65 137.939 130.237 163.35 114.005 205.417C99.526 242.948 113.155 281.042 144.504 296.456C144.769 296.668 145.046 296.891 145.311 297.104C146.915 315.301 153.353 330.375 163.03 336.738C167.248 340.106 172.602 343.048 178.593 345.035C193.71 350.038 207.063 347.053 208.412 338.353C209.262 332.882 205.161 326.466 198.246 321.197C202.219 314.43 205.49 306.091 207.658 296.636C229.69 287.171 248.705 268.507 258.053 244.286C274.285 202.219 255.206 159.408 215.434 148.668L215.423 148.679Z" fill="#DD9E59" stroke="#4C241E" stroke-width="3" stroke-miterlimit="10"/>
<path d="M269.845 165.155C257.204 153.481 243.564 153.215 239.262 164.486C246.878 173.802 251.829 185.265 253.635 197.779C248.578 202.176 244.775 208.04 243.628 214.064C241.535 225.09 249.077 232.473 260.476 230.55C271.12 228.755 281.35 219.481 284.367 209.283C284.707 208.656 285.004 207.977 285.27 207.254C289.487 195.749 282.572 176.904 269.845 165.155Z" fill="#FFE799" stroke="#4C241E" stroke-width="3" stroke-miterlimit="10"/>
<path d="M197.258 202.655C196.302 198.873 194.985 195.006 193.296 191.15C183.459 168.693 164.805 155.063 151.632 160.715C138.46 166.366 135.751 189.163 145.588 211.62C152.854 228.224 164.943 239.984 176.076 242.714C180.76 244.775 186.146 246.241 191.957 246.878C211.716 249.056 228.819 240.908 230.168 228.681C231.506 216.539 216.804 203.377 197.247 202.644C177.69 201.911 197.258 202.655 197.258 202.655Z" fill="#FFE799" stroke="#4C241E" stroke-width="3" stroke-miterlimit="10"/>
<path d="M286.533 79.1725C286.76 79.3398 270.992 56.588 259.02 49.2475C262.122 47.4203 264.692 44.6477 266.233 41.3971C268.336 36.9566 268.442 31.8363 266.551 27.2897C265.606 25.0164 264.267 22.913 262.515 21.1708C260.666 19.3331 258.297 17.7502 255.716 17.1872C254.292 16.8791 252.763 16.8685 251.392 17.3997C250.245 17.8458 249.236 18.547 248.418 19.4712C246.803 21.3089 245.922 23.6566 245.274 25.9831C244.424 29.0106 243.808 32.1019 243.393 35.2145C243.191 36.7335 243.043 38.2633 242.947 39.793C242.905 40.4303 242.883 41.0677 242.862 41.7051C234.704 38.9644 225.908 37.4665 216.73 37.4665C201.284 37.4665 186.921 41.6945 174.907 48.95C174.811 47.5159 174.673 46.0818 174.482 44.6583C174.068 41.5351 173.451 38.4545 172.602 35.4269C171.943 33.1005 171.072 30.7528 169.457 28.915C168.639 27.9908 167.63 27.2897 166.483 26.8435C165.112 26.3124 163.583 26.323 162.159 26.6311C159.578 27.1835 157.219 28.7769 155.36 30.6147C153.608 32.3569 152.269 34.4496 151.324 36.7336C149.443 41.2696 149.539 46.4005 151.642 50.8409C153.523 54.8033 156.933 58.0327 160.98 59.7324C151.632 68.9106 144.907 80.4047 141.944 93.1842C132 101.205 126.073 111.243 126.073 122.153C126.073 141.986 145.64 158.983 173.42 166.101C185.732 173.908 200.646 178.498 216.719 178.498C242.554 178.498 265.383 166.674 279.235 148.594C296.402 139.883 307.376 126.625 307.376 111.774C307.376 99.1543 299.44 87.6921 286.523 79.1831C286.523 79.1831 286.307 79.0051 286.533 79.1725Z" fill="#FFD899" stroke="#4C241E" stroke-width="3" stroke-miterlimit="10"/>
<path d="M240.644 121.8L241.969 121.992C244.092 122.3 245.567 124.274 245.259 126.398L244.503 131.612C244.375 132.495 243.558 133.096 242.685 132.97L236.84 132.122C235.957 131.994 235.356 131.177 235.482 130.304L236.238 125.09C236.546 122.966 238.521 121.492 240.644 121.8Z" fill="#FFE6C2"/>
<path d="M264.48 78.3759C264.236 76.6762 263.269 75.0827 261.963 73.9779C260.89 73.075 259.626 72.4376 258.266 72.1295C257.883 71.9702 257.49 71.8321 257.076 71.779C256.747 71.7365 256.407 71.6834 256.077 71.694C256.024 71.694 255.982 71.7046 255.929 71.7152C255.61 71.7152 255.302 71.7365 254.983 71.779C254.824 71.8002 254.665 71.8427 254.516 71.8852C254.282 71.9489 254.059 72.0445 253.836 72.1401C253.793 72.1614 253.751 72.1933 253.709 72.2145C253.57 72.2676 253.432 72.3101 253.294 72.3739C252.922 72.5544 252.593 72.7882 252.285 73.0537C252.051 73.2556 251.849 73.4893 251.669 73.7442C251.669 73.7442 251.658 73.7548 251.648 73.7655C251.626 73.7973 251.605 73.8398 251.584 73.8717C251.541 73.9461 251.488 74.0098 251.446 74.0735C251.446 74.0842 251.446 74.1054 251.435 74.116C251.021 74.8065 250.808 75.6351 250.862 76.4425C250.936 77.5791 251.35 78.5883 251.807 79.6188C252.434 81.0529 253.124 82.4657 254.144 83.6555C255.249 84.9409 256.832 85.8226 258.553 85.8332C260.242 85.8332 261.984 85.0577 263.078 83.7724C263.694 83.05 264.151 82.2001 264.385 81.2759C264.629 80.3199 264.64 79.3638 264.501 78.3865L264.48 78.3759Z" fill="#4C241E" stroke="#4C241E" stroke-miterlimit="10"/>
<path d="M210.068 84.9301C210.036 84.5264 209.994 84.1227 209.909 83.7297C209.888 83.6128 209.845 83.496 209.824 83.3685C209.781 83.0604 209.718 82.7523 209.622 82.4655C209.388 81.775 209.048 81.1695 208.581 80.6171C208.188 80.1603 207.678 79.7673 207.136 79.5017C206.828 79.353 206.509 79.2255 206.18 79.1299C205.851 79.0343 205.5 78.9918 205.16 78.9493C203.928 78.8218 202.675 79.1512 201.602 79.7567C201.017 80.0966 200.465 80.5215 199.987 80.9995C199.987 80.9995 199.987 81.0102 199.976 81.0208C199.902 81.0845 199.828 81.127 199.764 81.1908C199.095 81.7857 198.489 82.4549 197.905 83.1348C197.278 83.8678 196.63 84.6008 196.109 85.4081C195.823 85.8543 195.6 86.3217 195.408 86.8103C195.228 87.2671 195.143 87.7452 195.09 88.2338C195.015 88.9562 195.122 89.7423 195.43 90.4222C195.504 90.7515 195.6 91.0702 195.77 91.357C195.897 91.5801 196.046 91.7713 196.216 91.9519C196.832 93.0248 197.884 93.779 199.02 94.2252C199.126 94.3208 199.265 94.3952 199.413 94.4483C199.987 94.6501 200.603 94.7776 201.209 94.8095C201.825 94.8307 202.441 94.7776 203.046 94.6714C204.162 94.4908 205.267 94.0552 206.212 93.4391C207.242 92.7699 208.113 91.8881 208.772 90.8471C209.431 89.7848 209.803 88.6056 209.962 87.3734C209.983 87.214 209.973 87.0653 209.983 86.9059C209.983 86.8528 210.004 86.7891 210.004 86.736C210.036 86.481 210.047 86.2261 210.047 85.9817C210.047 85.9499 210.047 85.9286 210.047 85.8968C210.068 85.5675 210.068 85.2488 210.047 84.9194L210.068 84.9301Z" fill="#4C241E" stroke="#4C241E" stroke-miterlimit="10"/>
<path d="M204.694 86.12C206.125 86.12 207.286 85.0119 207.286 83.6449C207.286 82.2779 206.125 81.1697 204.694 81.1697C203.262 81.1697 202.102 82.2779 202.102 83.6449C202.102 85.0119 203.262 86.12 204.694 86.12Z" fill="white"/>
<path d="M255.291 78.3651C256.722 78.3651 257.883 77.2569 257.883 75.8899C257.883 74.5229 256.722 73.4148 255.291 73.4148C253.859 73.4148 252.699 74.5229 252.699 75.8899C252.699 77.2569 253.859 78.3651 255.291 78.3651Z" fill="white"/>
<path d="M169.073 53.9752C172.166 52.7808 173.174 47.935 171.327 43.1517C169.479 38.3684 165.475 35.4591 162.383 36.6535C159.29 37.8479 158.281 42.6938 160.129 47.477C161.977 52.2603 165.981 55.1696 169.073 53.9752Z" fill="#430000"/>
<path d="M257.769 40.0617C260.333 35.621 260.085 30.6775 257.214 29.0201C254.343 27.3627 249.938 29.619 247.374 34.0597C244.81 38.5004 245.059 43.4439 247.929 45.1013C250.8 46.7588 255.206 44.5024 257.769 40.0617Z" fill="#430000"/>
<path d="M175.481 157.177C194.003 157.177 209.018 142.852 209.018 125.181C209.018 107.51 194.003 93.1843 175.481 93.1843C156.959 93.1843 141.944 107.51 141.944 125.181C141.944 142.852 156.959 157.177 175.481 157.177Z" fill="#FFE6C2"/>
<path d="M282.592 131.374C295.153 131.374 305.335 121.367 305.335 109.023C305.335 96.6791 295.153 86.6724 282.592 86.6724C270.03 86.6724 259.848 96.6791 259.848 109.023C259.848 121.367 270.03 131.374 282.592 131.374Z" fill="#FFE6C2"/>
<path d="M265.52 118.148C264.15 133.796 248.81 146.48 231.25 146.48C213.691 146.48 200.571 133.796 201.942 118.148C203.312 102.501 218.652 89.8167 236.211 89.8167C253.771 89.8167 266.891 102.501 265.52 118.148Z" fill="#DD9E59"/>
<path d="M256.385 118.509C256.374 118.339 256.162 118.127 255.981 118.053C255.79 117.968 255.588 117.936 255.355 117.968C254.845 118.021 254.494 118.329 254.42 118.711C254.388 118.849 254.367 118.987 254.335 119.126C254.303 119.242 254.26 119.359 254.228 119.476C254.25 119.402 254.271 119.327 254.292 119.264C254.165 119.71 253.952 120.135 253.697 120.549C253.411 120.963 253.071 121.356 252.688 121.718C252.284 122.068 251.828 122.387 251.35 122.663C250.903 122.897 250.436 123.099 249.947 123.258C249.491 123.396 249.013 123.492 248.535 123.545C248.046 123.587 247.557 123.587 247.079 123.545C246.516 123.481 245.974 123.364 245.465 123.205C244.955 123.024 244.477 122.801 244.041 122.536C243.627 122.259 243.244 121.951 242.926 121.601C242.66 121.293 242.437 120.963 242.278 120.602C242.235 120.496 242.193 120.4 242.161 120.294C242.139 120.241 242.108 120.198 242.076 120.145C242.309 119.731 242.533 119.317 242.703 118.902C243.223 117.66 243.499 116.353 243.563 115.078C243.595 114.366 243.563 113.665 243.499 112.975C243.436 112.337 243.351 111.7 243.17 111.084C243.085 110.808 243.011 110.532 242.915 110.255C248.63 109.267 253.145 105.804 253.57 101.672C254.08 96.7748 248.683 92.8018 241.491 92.8018C234.3 92.8018 228.064 96.7748 227.554 101.672C227.044 106.569 232.441 110.542 239.632 110.542C240.068 110.542 240.493 110.521 240.918 110.5C240.918 110.521 240.918 110.542 240.918 110.563C241.024 111.158 241.109 111.764 241.205 112.359C241.247 112.667 241.29 112.975 241.322 113.283C241.322 113.357 241.332 113.432 241.343 113.517C241.343 113.527 241.343 113.517 241.343 113.527C241.343 113.527 241.343 113.527 241.343 113.548C241.343 113.708 241.364 113.857 241.364 114.016C241.385 114.632 241.364 115.248 241.29 115.864C241.258 116.162 241.205 116.459 241.141 116.757C241.109 116.905 241.077 117.065 241.035 117.213C241.035 117.245 240.971 117.447 241.003 117.33C241.045 117.213 241.003 117.352 240.992 117.383C240.982 117.426 240.971 117.468 240.95 117.511C240.79 118.021 240.589 118.52 240.344 119.009C240.227 119.253 240.089 119.487 239.951 119.72C239.919 119.774 239.887 119.816 239.856 119.869C239.856 119.88 239.824 119.922 239.802 119.944C239.739 120.039 239.675 120.135 239.601 120.23C239.271 120.687 238.899 121.123 238.485 121.537C238.39 121.633 238.294 121.728 238.188 121.824C238.145 121.866 238.092 121.909 238.05 121.951C238.262 121.749 238.05 121.941 238.007 121.983C237.784 122.174 237.55 122.366 237.306 122.536C237.062 122.716 236.807 122.886 236.541 123.045C236.488 123.077 236.424 123.109 236.371 123.152C236.35 123.162 236.329 123.173 236.318 123.184C236.191 123.247 236.063 123.322 235.936 123.385C235.659 123.524 235.373 123.651 235.075 123.768C234.937 123.821 234.81 123.874 234.672 123.917C234.608 123.938 234.533 123.959 234.47 123.991C234.47 123.991 234.448 123.991 234.438 123.991C233.832 124.171 233.216 124.299 232.589 124.384C232.526 124.384 232.473 124.395 232.409 124.405C232.398 124.405 232.409 124.405 232.388 124.405C232.228 124.416 232.069 124.426 231.92 124.437C231.612 124.448 231.293 124.448 230.985 124.437C230.837 124.437 230.699 124.426 230.56 124.416C230.529 124.416 230.422 124.405 230.39 124.405C230.369 124.405 230.348 124.405 230.337 124.405C230.04 124.363 229.742 124.32 229.456 124.246C229.318 124.214 229.19 124.182 229.063 124.15C228.988 124.129 228.924 124.108 228.85 124.086C228.818 124.086 228.765 124.055 228.723 124.044C228.5 123.959 228.266 123.874 228.053 123.768C227.937 123.715 227.82 123.651 227.713 123.587C227.65 123.555 227.597 123.524 227.533 123.481C227.512 123.47 227.48 123.449 227.458 123.439C227.48 123.439 227.48 123.449 227.49 123.46C227.289 123.322 227.097 123.184 226.927 123.024C226.842 122.95 226.768 122.876 226.694 122.791C226.651 122.748 226.619 122.695 226.577 122.652C226.439 122.472 226.311 122.291 226.205 122.089C226.184 122.047 226.162 122.004 226.141 121.962C226.141 121.951 226.12 121.919 226.109 121.888C226.099 121.856 226.088 121.834 226.078 121.824C226.056 121.771 226.035 121.718 226.024 121.675C225.95 121.473 225.897 121.261 225.865 121.048C225.844 120.953 225.833 120.846 225.823 120.751C225.823 120.708 225.823 120.655 225.823 120.613C225.823 120.4 225.833 120.188 225.865 119.965C225.876 119.869 225.897 119.763 225.918 119.667C225.918 119.646 225.918 119.635 225.929 119.614C225.939 119.572 225.95 119.54 225.961 119.497C226.024 119.296 226.109 119.094 226.216 118.902C226.258 118.818 226.311 118.733 226.364 118.637C226.407 118.584 226.439 118.531 226.481 118.478C226.619 118.297 226.779 118.127 226.949 117.957C226.949 117.957 226.97 117.936 226.98 117.925C227.023 117.893 227.055 117.861 227.097 117.83C227.193 117.745 227.299 117.67 227.416 117.596C227.83 117.309 227.915 116.757 227.533 116.47C227.14 116.172 226.524 116.172 226.067 116.47C223.964 117.861 223.252 120.145 223.847 122.036C224.155 122.992 224.76 123.895 225.684 124.554C226.694 125.276 227.958 125.776 229.349 125.988C230.762 126.2 232.249 126.179 233.694 125.903C235.16 125.637 236.499 125.106 237.731 124.405C238.868 123.757 239.856 122.95 240.663 122.047C241.045 122.642 241.555 123.184 242.182 123.619C243.266 124.384 244.625 124.968 246.123 125.181C246.877 125.287 247.653 125.329 248.428 125.266C249.321 125.181 250.139 125.011 250.978 124.735C252.454 124.246 253.74 123.396 254.717 122.419C255.259 121.866 255.705 121.25 256.013 120.613C256.353 119.922 256.491 119.179 256.427 118.467L256.385 118.509Z" fill="#4C241E"/>
</svg>
