<svg width="288" height="306" viewBox="0 0 288 306" fill="none" xmlns="http://www.w3.org/2000/svg">
<path d="M162.116 183.715C162.116 183.715 159.155 192.556 209.75 220.68C242.214 238.72 285.299 248.709 285.299 248.709L286.624 252.926L273.512 266.223C273.512 266.223 202.998 250.59 165.802 215.801C146.498 197.745 149.227 194.836 149.227 194.836L149.642 187.31L162.108 183.715H162.116Z" fill="#E5B17F" stroke="#4C241E" stroke-width="2.53" stroke-linecap="round" stroke-linejoin="round"/>
<path d="M162.131 183.715C163.975 187.94 164.11 188.354 167.734 191.838C180.749 204.37 192.752 211.265 209.758 220.68C224.362 228.795 243.714 236.432 260.432 241.781C266.154 243.615 284.932 248.374 284.932 248.374L271.605 260.164C271.605 260.164 253.745 255.7 245.222 252.711C223.763 245.185 203.421 236.464 185.729 224.626C146.386 198.295 149.61 187.581 149.61 187.581C149.61 187.581 158.7 184.839 162.131 183.715Z" fill="#A95C40" stroke="#4C241E" stroke-width="2.53" stroke-linecap="round" stroke-linejoin="round"/>
<path d="M273.56 265.179C272.905 263.401 272.251 261.623 271.597 259.845L273.56 265.179Z" fill="white"/>
<path d="M273.56 265.179C272.905 263.401 272.251 261.623 271.597 259.845" stroke="#4C241E" stroke-width="2.53" stroke-linecap="round" stroke-linejoin="round"/>
<path d="M220.364 112.614C219.071 108.23 237.082 111.419 238.607 115.763C257.703 170.139 257.671 249.69 257.671 249.69L254.032 251.101L239.931 243.918C239.931 243.918 239.708 178.167 220.356 112.614H220.364Z" fill="#BF7249" stroke="#4C241E" stroke-width="2.53" stroke-linecap="round" stroke-linejoin="round"/>
<path d="M158.102 89.8151C157.033 85.8053 171.78 88.8107 173.033 92.7886C188.786 142.565 188.946 215.22 188.946 215.22L185.969 216.487L174.318 206.371C174.318 206.371 174.079 149.787 158.094 89.8072L158.102 89.8151Z" fill="white" stroke="#4C241E" stroke-width="2.53" stroke-linecap="round" stroke-linejoin="round"/>
<path d="M153.992 90.8435C152.923 86.8337 167.67 89.839 168.923 93.8169C182.793 137.654 184.572 199.26 184.804 213.314C184.836 215.219 184.836 216.248 184.836 216.248L170.391 206.466C170.391 206.466 169.968 150.823 153.992 90.8355V90.8435Z" fill="white" stroke="#4C241E" stroke-width="2.53" stroke-linecap="round" stroke-linejoin="round"/>
<path d="M274.781 128.128L252.165 135.143L123.547 78.2241L123.603 74.7085L274.981 122.316L274.781 128.128Z" fill="#E5B17F" stroke="#4C241E" stroke-width="2.53" stroke-linecap="round" stroke-linejoin="round"/>
<path d="M275.46 122.173L251.279 129.889L123.603 74.7084L143.33 69.8616L275.46 122.173Z" fill="#A95C40" stroke="#4C241E" stroke-width="2.53" stroke-linecap="round" stroke-linejoin="round"/>
<path d="M97.7786 3.10576C107.052 2.35641 114.282 0.857693 123.547 1.36789C133.027 1.89403 142.452 3.83915 150.009 8.99691C157.216 13.9155 161.956 21.1539 165.858 28.5039C178.212 51.8134 183.798 77.6262 195.569 101.159C200.884 111.793 206.893 122.133 217.307 129.132C228.328 136.53 260.313 159.528 265.396 163.69C275.005 171.558 276.385 180.63 278.891 191.487C280.942 200.384 282.251 205.908 271.318 210.54C249.396 219.819 225.75 225.407 202.216 229.425C187.988 231.857 173.671 233.69 159.346 235.372C153.098 236.106 148.453 236.943 142.723 235.061C136.427 232.997 130.498 230.27 124.784 227.209C118.783 223.988 113.013 220.401 107.315 216.814C96.398 209.942 85.4012 204.314 75.5615 196.183C69.3528 191.057 66.8869 187.629 63.8225 180.415C60.8139 173.336 57.973 166.193 55.2996 158.994C50.2241 145.339 47.0799 130.902 43.2095 116.887C38.1021 98.3847 32.9947 79.8264 30.1457 60.8375C28.3901 49.119 21.942 28.7989 32.085 18.3957C33.5693 16.8731 35.3728 15.6374 37.312 14.5851C38.5011 13.9394 39.746 13.3495 40.9909 12.8074C57.8373 5.44946 79.4718 4.5885 97.7706 3.11371L97.7786 3.10576Z" fill="#EA6161" stroke="#4C241E" stroke-width="2.53" stroke-linecap="round" stroke-linejoin="round"/>
<path d="M47.758 34.4349C53.7911 52.7062 55.2755 72.1096 57.5498 91.0984C58.9224 102.578 59.6885 114.591 61.5879 125.72C64.5884 143.354 69.616 165.834 85.3292 177.696C88.6091 180.175 92.0486 182.455 95.5998 184.584C108.751 192.436 123.563 198.12 138.294 203.286C144.678 205.526 151.214 207.718 158.133 208.124C164.11 208.475 170.136 207.479 176.081 206.45C188.538 204.298 200.971 201.994 213.373 199.539C223.157 197.602 233.818 195.712 243.315 192.85C246.531 191.878 276.505 181.148 275.387 178.031C276.872 182.2 277.774 186.664 278.883 191.479C280.934 200.376 282.243 205.9 271.31 210.532C249.388 219.811 225.742 225.399 202.208 229.417C187.979 231.849 173.663 233.682 159.338 235.364C153.09 236.097 148.445 236.934 142.715 235.053C136.419 232.988 130.49 230.262 124.776 227.201C118.775 223.98 113.005 220.393 107.307 216.806C96.3898 209.934 85.393 204.306 75.5533 196.175C69.3447 191.049 66.8788 187.621 63.8143 180.406C60.8058 173.328 57.9648 166.185 55.2914 158.986C50.2159 145.331 47.0717 130.894 43.2013 116.879C38.0939 98.3767 32.9865 79.8183 30.1376 60.8295C28.7251 51.4148 25.5569 42.311 26.4906 32.6811C26.8497 28.9981 28.7729 21.9032 33.1142 20.1175C41.3977 16.7056 46.1939 29.7554 47.7421 34.4429L47.758 34.4349Z" fill="#EA6161" stroke="#4C241E" stroke-width="2.53" stroke-linecap="round" stroke-linejoin="round"/>
<path d="M235.215 154.395C232.086 149.644 230.251 147.627 230.371 141.863C230.53 134.162 230.251 125.529 229.325 117.82C228.368 109.848 225.614 102.299 223.212 94.6939C221.752 90.0782 219.541 85.4944 218.775 80.6795C218.209 77.1479 222.845 67.5658 219.685 64.7359C217.586 62.8545 213.253 66.5694 211.896 68.1478C206.661 74.2064 200.564 73.3294 193.223 74.589C186.24 75.7848 178.387 76.3428 171.261 75.9522C164.94 75.6094 160.719 77.2914 154.518 78.6705C149.331 79.8265 144.184 81.1657 138.861 81.644C131.431 82.3057 125.829 84.6972 119.006 80.2091C117.234 79.0373 111.967 76.574 110.507 78.9177C108.304 82.4492 115.59 90.4848 116.093 94.0163C116.771 98.8472 116.005 103.814 115.965 108.621C115.902 116.537 115.487 124.5 116.923 132.416C118.312 140.061 120.594 148.44 123.02 155.806C124.84 161.314 123.674 163.73 122.062 169.087C121.56 170.769 121.049 172.546 121.368 174.332C122.03 178.015 125.063 177.688 127.529 177.393C131.288 176.939 134.639 172.331 138.454 172.602C167.183 174.659 193.614 171.199 220.491 161.952C224.074 160.716 228.663 164.296 232.414 163.777C234.872 163.435 237.88 162.972 237.425 159.265C237.21 157.464 236.188 155.885 235.215 154.403V154.395Z" fill="#FFE6D0" stroke="#4C241E" stroke-width="2.53" stroke-linecap="round" stroke-linejoin="round"/>
<path d="M37.7188 215.116C37.7188 215.116 34.3192 224.268 86.0393 255.071C119.221 274.833 163.751 286.487 163.751 286.487L164.98 290.928L150.855 304.44C150.855 304.44 77.9553 286.113 40.4321 248.725C20.9602 229.322 23.9049 226.356 23.9049 226.356L24.5992 218.512L37.7188 215.108V215.116Z" fill="#E5B17F" stroke="#4C241E" stroke-width="2.53" stroke-linecap="round" stroke-linejoin="round"/>
<path d="M37.7352 215.116C39.4988 219.58 39.6345 220.019 43.2815 223.757C56.4011 237.214 68.6588 244.755 86.0398 255.071C100.963 263.959 120.858 272.489 138.079 278.548C143.977 280.62 163.369 286.129 163.369 286.129L149.068 298.062C149.068 298.062 130.626 292.889 121.847 289.525C99.7579 281.059 78.8815 271.373 60.862 258.506C20.809 229.896 24.5518 218.791 24.5518 218.791C24.5518 218.791 34.1201 216.184 37.7272 215.108L37.7352 215.116Z" fill="#A95C40" stroke="#4C241E" stroke-width="2.53" stroke-linecap="round" stroke-linejoin="round"/>
<path d="M150.919 303.356C150.297 301.482 149.683 299.601 149.06 297.728L150.919 303.356Z" fill="white"/>
<path d="M150.919 303.356C150.297 301.482 149.683 299.601 149.06 297.728" stroke="#4C241E" stroke-width="2.53" stroke-linecap="round" stroke-linejoin="round"/>
<path d="M100.915 142.517C99.7258 137.901 118.376 141.743 119.812 146.319C137.784 203.645 134.935 286.719 134.935 286.719L131.088 288.09L116.652 280.19C116.652 280.19 118.743 211.521 100.907 142.509L100.915 142.517Z" fill="#BF7249" stroke="#4C241E" stroke-width="2.53" stroke-linecap="round" stroke-linejoin="round"/>
<path d="M36.8572 116.943C35.8836 112.726 51.1419 116.281 52.307 120.475C66.9508 172.897 64.5487 248.789 64.5487 248.789L61.4045 250.032L49.6256 239.135C49.6256 239.135 51.3733 180.04 36.8492 116.943H36.8572Z" fill="#BF7249" stroke="#4C241E" stroke-width="2.53" stroke-linecap="round" stroke-linejoin="round"/>
<path d="M157.048 160.262L133.243 166.95L1.26514 103.853L1.45667 100.178L157.463 154.203L157.048 160.262Z" fill="#E5B17F" stroke="#4C241E" stroke-width="2.53" stroke-linecap="round" stroke-linejoin="round"/>
<path d="M157.966 154.068L132.501 161.434L1.45654 100.178L22.1733 95.6824L157.966 154.068Z" fill="#A95C40" stroke="#4C241E" stroke-width="2.53" stroke-linecap="round" stroke-linejoin="round"/>
</svg>
