<svg width="428" height="261" viewBox="0 0 428 261" fill="none" xmlns="http://www.w3.org/2000/svg">
<path d="M93.2455 78.3804L47.0991 254.17L57.8815 259.322H65.2007L113.96 82.2896" fill="#E5B17F"/>
<path d="M93.2455 78.3804L47.0991 254.17L57.8815 259.322H65.2007L113.96 82.2896" stroke="#4C241E" stroke-width="2.53" stroke-linecap="round" stroke-linejoin="round"/>
<path d="M155.093 63.5403L114.035 220.134L123.68 223.427H129.544L173.97 66.9928" fill="#E5B17F"/>
<path d="M155.093 63.5403L114.035 220.134L123.68 223.427H129.544L173.97 66.9928" stroke="#4C241E" stroke-width="2.53" stroke-linecap="round" stroke-linejoin="round"/>
<path d="M322.958 78.3804L368.701 255.87L359.066 259.322H350.993L302.233 82.2896" fill="#E5B17F"/>
<path d="M322.958 78.3804L368.701 255.87L359.066 259.322H350.993L302.233 82.2896" stroke="#4C241E" stroke-width="2.53" stroke-linecap="round" stroke-linejoin="round"/>
<path d="M261.111 63.5403L302.339 220.708L292.704 223.427H286.649L242.234 66.9928" fill="#E5B17F"/>
<path d="M261.111 63.5403L302.339 220.708L292.704 223.427H286.649L242.234 66.9928" stroke="#4C241E" stroke-width="2.53" stroke-linecap="round" stroke-linejoin="round"/>
<path d="M125.816 3.73264C103.582 4.30629 81.3796 6.53712 59.6025 11.105C52.0707 12.6772 44.4434 14.515 37.8572 18.4774C12.1176 33.9764 4.52215 78.1787 1.77079 105.236C1.18653 110.993 0.782852 116.931 2.47191 122.466C4.16097 128.001 8.3783 133.11 14.051 134.258C22.5706 135.978 30.0174 128.712 35.6688 122.115C36.7524 134.343 40.481 149.024 55.5551 149.842C67.0598 150.468 77.4491 142.289 83.5361 132.515C86.1706 149.236 100.724 163.343 117.519 165.457C134.314 167.561 151.906 157.49 158.588 141.938C161.297 157.288 167.755 161.506 177.348 161.176C188.47 160.794 197.999 156.661 201.568 139.675C199.72 148.79 208.686 157.819 217.981 157.618C227.287 157.416 235.328 149.682 237.761 140.706C246.058 154.728 261.588 164.884 277.873 164.448C294.158 164.013 310.008 151.573 312.175 135.426C321.258 143.415 331.583 151.881 343.672 151.531C356.314 151.159 367.107 140.313 369.847 127.969C373.512 132.547 378.07 137.03 383.88 137.816C389.691 138.602 396.373 133.695 395.215 127.947C399.634 134.321 409.567 135.065 416.015 130.763C422.474 126.46 425.671 118.461 426.064 110.717C426.468 102.973 424.46 95.3242 422.474 87.835C419.329 75.9797 415.941 65.1549 411.245 54.0007C406.497 42.6978 405.211 31.2887 396.065 22.1529C383.657 9.75589 364.462 7.97123 346.944 7.07889C321.97 5.80413 297.77 2.0011 272.424 1.37434C246.036 0.715715 146.477 3.22274 125.794 3.75389L125.816 3.73264Z" fill="#E6EEF4" stroke="#4C241E" stroke-width="2.53" stroke-linecap="round" stroke-linejoin="round"/>
<path d="M31.5573 23.98C14.9004 34.2099 10.9168 61.7554 28.5828 73.2389C38.5791 79.7295 50.8805 81.2805 62.7252 82.6402C90.6743 85.8378 180.163 91.946 196.851 91.7867C228.285 91.4892 259.346 90.1932 290.759 89.9807C306.438 89.8745 322.479 86.2627 338.137 84.5736C356.813 82.5659 375.148 77.3181 392.028 69.064C402.035 64.1668 409.662 57.4212 407.729 44.971C407.081 40.7962 405.264 36.9082 403.883 32.9139" stroke="#4C241E" stroke-width="2.53" stroke-linecap="round" stroke-linejoin="round"/>
<path d="M6.97583 129.69C6.10474 126.567 6.35969 123.242 6.62527 120.002C8.15498 101.401 14.55 82.9379 19.0861 64.8894" fill="white"/>
<path d="M6.97583 129.69C6.10474 126.567 6.35969 123.242 6.62527 120.002C8.15498 101.401 14.55 82.9379 19.0861 64.8894" stroke="#4C241E" stroke-width="2.53" stroke-linecap="round" stroke-linejoin="round"/>
<path d="M17.0679 134.778C20.531 114.626 25.0351 94.6549 30.5803 74.9705Z" fill="white"/>
<path d="M17.0679 134.778C20.531 114.626 25.0351 94.6549 30.5803 74.9705" stroke="#4C241E" stroke-width="2.53" stroke-linecap="round" stroke-linejoin="round"/>
<path d="M36.2642 123.156C37.7301 108.582 41.5332 94.963 44.3058 80.5901Z" fill="white"/>
<path d="M36.2642 123.156C37.7301 108.582 41.5332 94.963 44.3058 80.5901" stroke="#4C241E" stroke-width="2.53" stroke-linecap="round" stroke-linejoin="round"/>
<path d="M48.2256 147.239C50.0315 125.026 55.906 105.544 60.7607 83.7983Z" fill="white"/>
<path d="M48.2256 147.239C50.0315 125.026 55.906 105.544 60.7607 83.7983" stroke="#4C241E" stroke-width="2.53" stroke-linecap="round" stroke-linejoin="round"/>
<path d="M67.8252 146.687C73.4235 122.041 73.6147 106.149 79.0325 85.6255Z" fill="white"/>
<path d="M67.8252 146.687C73.4235 122.041 73.6147 106.149 79.0325 85.6255" stroke="#4C241E" stroke-width="2.53" stroke-linecap="round" stroke-linejoin="round"/>
<path d="M91.9175 149.48C95.2744 124.272 99.3217 109.389 102.158 88.0264Z" fill="white"/>
<path d="M91.9175 149.48C95.2744 124.272 99.3217 109.389 102.158 88.0264" stroke="#4C241E" stroke-width="2.53" stroke-linecap="round" stroke-linejoin="round"/>
<path d="M109.117 161.739C113.493 137.009 113.876 113.713 118.242 88.9822Z" fill="white"/>
<path d="M109.117 161.739C113.493 137.009 113.876 113.713 118.242 88.9822" stroke="#4C241E" stroke-width="2.53" stroke-linecap="round" stroke-linejoin="round"/>
<path d="M138.659 88.823C138.001 114.254 131.298 138.91 129.311 164.225Z" fill="white"/>
<path d="M138.659 88.823C138.001 114.254 131.298 138.91 129.311 164.225" stroke="#4C241E" stroke-width="2.53" stroke-linecap="round" stroke-linejoin="round"/>
<path d="M158.014 91.2239C156.601 109.209 154.944 130.933 153.531 148.917Z" fill="white"/>
<path d="M158.014 91.2239C156.601 109.209 154.944 130.933 153.531 148.917" stroke="#4C241E" stroke-width="2.53" stroke-linecap="round" stroke-linejoin="round"/>
<path d="M176.36 92.8066C174.469 112.99 174.161 139.867 174.83 160.125Z" fill="white"/>
<path d="M176.36 92.8066C174.469 112.99 174.161 139.867 174.83 160.125" stroke="#4C241E" stroke-width="2.53" stroke-linecap="round" stroke-linejoin="round"/>
<path d="M194.674 92.7959C194.451 111.291 193.803 136.871 193.58 155.376Z" fill="white"/>
<path d="M194.674 92.7959C194.451 111.291 193.803 136.871 193.58 155.376" stroke="#4C241E" stroke-width="2.53" stroke-linecap="round" stroke-linejoin="round"/>
<path d="M214.04 92.3496C214.04 111.397 216.037 137.604 217.396 157.331Z" fill="white"/>
<path d="M214.04 92.3496C214.04 111.397 216.037 137.604 217.396 157.331" stroke="#4C241E" stroke-width="2.53" stroke-linecap="round" stroke-linejoin="round"/>
<path d="M233.639 91.2239C234.84 111.482 236.359 119.704 237.559 139.962Z" fill="white"/>
<path d="M233.639 91.2239C234.84 111.482 236.359 119.704 237.559 139.962" stroke="#4C241E" stroke-width="2.53" stroke-linecap="round" stroke-linejoin="round"/>
<path d="M254.333 90.9158C255.331 114.042 257.488 137.115 260.791 160.018Z" fill="white"/>
<path d="M254.333 90.9158C255.331 114.042 257.488 137.115 260.791 160.018" stroke="#4C241E" stroke-width="2.53" stroke-linecap="round" stroke-linejoin="round"/>
<path d="M272.88 90.9263C274.229 114.998 276.949 138.985 281.007 162.748Z" fill="white"/>
<path d="M272.88 90.9263C274.229 114.998 276.949 138.985 281.007 162.748" stroke="#4C241E" stroke-width="2.53" stroke-linecap="round" stroke-linejoin="round"/>
<path d="M288.667 90.0657C291.609 112.374 297.207 134.449 297.101 156.948Z" fill="white"/>
<path d="M288.667 90.0657C291.609 112.374 297.207 134.449 297.101 156.948" stroke="#4C241E" stroke-width="2.53" stroke-linecap="round" stroke-linejoin="round"/>
<path d="M306.811 88.1431C309.243 105.522 311.559 121.446 315.628 138.645Z" fill="white"/>
<path d="M306.811 88.1431C309.243 105.522 311.559 121.446 315.628 138.645" stroke="#4C241E" stroke-width="2.53" stroke-linecap="round" stroke-linejoin="round"/>
<path d="M324.817 86.0078C329.045 107.689 331.084 129.541 336.385 151.095Z" fill="white"/>
<path d="M324.817 86.0078C329.045 107.689 331.084 129.541 336.385 151.095" stroke="#4C241E" stroke-width="2.53" stroke-linecap="round" stroke-linejoin="round"/>
<path d="M340.539 83.9788C341.516 90.48 341.516 95.1223 342.929 101.539C346.317 116.878 349.717 132.218 353.106 147.557" fill="white"/>
<path d="M340.539 83.9788C341.516 90.48 341.516 95.1223 342.929 101.539C346.317 116.878 349.717 132.218 353.106 147.557" stroke="#4C241E" stroke-width="2.53" stroke-linecap="round" stroke-linejoin="round"/>
<path d="M358.322 81.2485C361.445 97.2893 365.269 113.192 369.773 128.903Z" fill="white"/>
<path d="M358.322 81.2485C361.445 97.2893 365.269 113.192 369.773 128.903" stroke="#4C241E" stroke-width="2.53" stroke-linecap="round" stroke-linejoin="round"/>
<path d="M375.223 77.0312C378.633 86.4326 388.311 124.739 390.998 134.512Z" fill="white"/>
<path d="M375.223 77.0312C378.633 86.4326 388.311 124.739 390.998 134.512" stroke="#4C241E" stroke-width="2.53" stroke-linecap="round" stroke-linejoin="round"/>
<path d="M388.385 72.1873C397.977 91.5849 400.261 111.747 407.708 131.007Z" fill="white"/>
<path d="M388.385 72.1873C397.977 91.5849 400.261 111.747 407.708 131.007" stroke="#4C241E" stroke-width="2.53" stroke-linecap="round" stroke-linejoin="round"/>
<path d="M403.512 62.5205C410.545 83.9684 417.078 102.038 421.635 124.219Z" fill="white"/>
<path d="M403.512 62.5205C410.545 83.9684 417.078 102.038 421.635 124.219" stroke="#4C241E" stroke-width="2.53" stroke-linecap="round" stroke-linejoin="round"/>
</svg>
