<svg width="72" height="87" viewBox="0 0 72 87" fill="none" xmlns="http://www.w3.org/2000/svg">
<path d="M2.38448 1.27028L1.26514 84.5086C7.07166 84.6973 86.7432 84.9237 86.7432 84.9237L87.2651 1.49126L2.38986 1.26489L2.38448 1.27028Z" fill="#8F4F50" stroke="#4C241E" stroke-width="2.53" stroke-linecap="round" stroke-linejoin="round"/>
<path d="M77.9067 75.9498L77.8099 10.2549L11.0376 10.4435C11.0376 10.4435 10.7093 71.9183 10.5371 75.9498H77.9121H77.9067Z" fill="#FFE6D0" stroke="#4C241E" stroke-width="2.53" stroke-linecap="round" stroke-linejoin="round"/>
<path d="M1.46436 84.1908L10.4244 75.6697" stroke="#4C241E" stroke-width="2.53" stroke-linecap="round" stroke-linejoin="round"/>
<path d="M2.70752 2.47754L10.602 9.96921" stroke="#4C241E" stroke-width="2.53" stroke-linecap="round" stroke-linejoin="round"/>
<path d="M73.1391 73.4976C68.9093 66.4695 63.1674 60.751 57.3877 55.5931C55.3859 53.8037 53.2118 52.2784 51.3498 50.2788C45.7424 44.2586 42.5566 33.7972 35.1949 32.1533C31.584 34.0505 32.3051 38.4431 32.2028 42.5231C32.0253 49.4542 30.992 56.353 29.2216 63.0524C28.2421 66.7659 27.0636 70.8459 28.748 74.2953C33.6558 75.2439 68.9147 75.6427 77.0729 75.6427C76.0719 75.066 74.14 74.0797 73.1391 73.503V73.4976Z" fill="#A95C40" stroke="#4C241E" stroke-width="2.53" stroke-linecap="round" stroke-linejoin="round"/>
<path d="M48.8259 55.4637C45.0535 51.5184 42.4435 46.4521 39.4784 40.1731C37.4711 35.9207 34.6674 36.783 33.9625 31.9539C31.1964 31.9431 29.7596 43.2453 28.5757 46.2797C26.6868 51.1142 24.7872 48.2846 22.2364 52.6503C19.9009 56.6548 16.7313 59.824 14.0998 63.5428C11.4683 67.2617 10.5965 70.7381 10.9086 75.6265L58.6469 75.3247C55.5634 69.6224 53.0987 59.9264 48.8259 55.4583V55.4637Z" fill="#E5B17F" stroke="#4C241E" stroke-width="2.53" stroke-linecap="round" stroke-linejoin="round"/>
<path d="M60.7725 37.3056C60.9716 37.2032 61.1707 37.09 61.3698 36.9661C70.4375 31.3824 59.707 18.4794 52.6789 27.0868C48.0024 32.8214 53.9435 40.852 60.7725 37.3056Z" fill="#EA6161" stroke="#4C241E" stroke-width="2.53" stroke-linecap="round" stroke-linejoin="round"/>
</svg>
