<?xml version="1.0" encoding="UTF-8"?>
<svg id="Layer_1" xmlns="http://www.w3.org/2000/svg" version="1.1" viewBox="0 0 45 45">
  <!-- Generator: Adobe Illustrator 29.6.1, SVG Export Plug-In . SVG Version: 2.1.1 Build 9)  -->
  <defs>
    <style>
      .st0, .st1 {
        fill: none;
      }

      .st1 {
        stroke: #fff;
        stroke-linecap: round;
        stroke-linejoin: round;
        stroke-width: 3px;
      }
    </style>
  </defs>
  <path class="st0" d="M29.5,7h-15c-4.14,0-7.5,3.36-7.5,7.5v15c0,4.14,3.36,7.5,7.5,7.5h15c4.14,0,7.5-3.36,7.5-7.5v-15c0-4.14-3.36-7.5-7.5-7.5Z"/>
  <path class="st0" d="M28,21.06c.19,1.25-.03,2.52-.61,3.64-.58,1.12-1.5,2.03-2.63,2.6-1.13.57-2.4.76-3.65.56s-2.4-.79-3.29-1.68c-.89-.89-1.48-2.04-1.68-3.29-.2-1.25,0-2.52.56-3.65.57-1.13,1.48-2.05,2.6-2.63,1.12-.58,2.4-.79,3.64-.61,1.27.19,2.45.78,3.36,1.69.91.91,1.5,2.09,1.69,3.36Z"/>
  <path class="st1" d="M30.25,13.75h.01M14.5,7h15c4.14,0,7.5,3.36,7.5,7.5v15c0,4.14-3.36,7.5-7.5,7.5h-15c-4.14,0-7.5-3.36-7.5-7.5v-15c0-4.14,3.36-7.5,7.5-7.5ZM28,21.06c.19,1.25-.03,2.52-.61,3.64-.58,1.12-1.5,2.03-2.63,2.6-1.13.57-2.4.76-3.65.56s-2.4-.79-3.29-1.68c-.89-.89-1.48-2.04-1.68-3.29-.2-1.25,0-2.52.56-3.65.57-1.13,1.48-2.05,2.6-2.63,1.12-.58,2.4-.79,3.64-.61,1.27.19,2.45.78,3.36,1.69.91.91,1.5,2.09,1.69,3.36Z"/>
</svg>