<svg width="32" height="32" viewBox="0 0 32 32" fill="none" xmlns="http://www.w3.org/2000/svg">
<path d="M27.7884 19.1821C27.7218 18.6621 27.6284 18.2488 27.6418 17.7155L27.6951 15.9555C27.7218 15.2221 27.8418 14.5288 27.9084 13.7955C27.9751 13.1154 27.9484 12.3821 27.9218 11.6887C27.8818 10.8221 27.7084 9.98207 27.6951 9.12874C27.6951 8.72874 27.7084 8.11541 27.5884 7.56874C27.4818 7.00874 27.2818 6.46207 26.9751 5.96874C26.6818 5.48874 26.2818 5.06207 25.8018 4.74207C25.3218 4.42207 24.7484 4.32874 24.2018 4.28874C23.8284 4.24874 23.4018 4.26207 23.0951 4.28874C22.8018 4.30207 22.4951 4.31541 22.2018 4.30207C21.6151 4.30207 21.0151 4.23541 20.4018 4.19541C19.7618 4.14207 19.1218 4.11541 18.4684 4.08874C17.8551 4.06207 17.2284 4.19541 16.6018 4.18207C16.3618 4.18207 16.1484 4.14207 15.9084 4.15541C15.6284 4.18207 15.3351 4.19541 15.0551 4.20874C14.5218 4.22207 13.9884 4.14207 13.4551 4.15541L10.9352 4.26207C10.2285 4.28874 9.61516 4.48874 8.9085 4.38207C8.61516 4.32874 8.16183 4.38207 7.8285 4.47541C7.4685 4.59541 7.12183 4.71541 6.7485 4.86207C6.2285 5.03541 5.77515 5.40874 5.33515 5.76874C4.89515 6.12874 4.56182 6.67541 4.33515 7.22207C4.08182 7.68874 3.97516 8.40874 3.97516 8.87541C3.96183 9.34207 3.97516 9.79541 3.97516 10.2221C4.00183 11.1021 4.21516 11.9154 4.09516 12.8087C4.01516 13.4621 4.10848 14.1955 4.14848 14.8755C4.17515 15.4488 4.28183 16.0755 4.20183 16.6621C4.04183 17.8488 4.01515 19.0355 4.06848 20.2221C4.10848 21.0488 4.38848 21.9155 4.32182 22.7421C4.28182 23.1421 4.24182 23.7688 4.37515 24.3155C4.49515 24.8755 4.76183 25.3955 5.13516 25.8355C5.89516 26.7421 6.98848 27.5555 8.22848 27.7955C8.60182 27.8621 8.8685 27.8888 9.12183 27.9021C9.3885 27.9155 9.64183 27.9288 9.9085 27.9421C10.4418 27.9421 10.9618 27.9155 11.4818 27.8621C12.0818 27.7955 12.6818 27.6755 13.2818 27.6755C13.7484 27.6755 14.2018 27.7421 14.6684 27.7288C15.1751 27.7288 18.1084 27.6355 18.1084 27.6355C18.8684 27.7421 19.6551 27.5955 20.4284 27.6621C21.2418 27.7288 23.2684 27.8088 24.0284 27.5021C24.1618 27.4488 24.4684 27.4621 24.5751 27.3688C24.9751 27.3288 25.2018 27.1021 25.5484 26.8888C26.0284 26.6088 26.4418 26.1955 26.7351 25.7288C26.9218 25.4355 27.0551 25.1155 27.2151 24.8088C27.3351 24.5688 27.4684 24.3288 27.5884 24.0755C27.6951 23.8088 27.7751 23.5288 27.8151 23.2355C27.8551 22.9955 27.8818 22.7821 27.9084 22.5421C27.9618 22.0888 27.9618 21.6221 27.9484 21.1688C27.9218 20.5021 27.8418 19.8488 27.7618 19.1821H27.7884ZM25.7618 15.5421C25.7884 15.7688 25.8284 15.9955 25.8418 16.2221C25.8684 16.7555 25.7218 17.2888 25.7218 17.8088V19.5555C25.7218 20.2221 25.6418 20.8888 25.6284 21.5555C25.6284 21.9288 25.6284 22.3021 25.6684 22.6621L25.7084 23.2088C25.7084 23.3421 25.7351 23.4755 25.7351 23.6088C25.7484 24.5155 24.9484 25.1421 24.2418 25.5555C24.1484 25.6221 24.0151 25.6755 23.8818 25.7555C22.8951 25.6888 21.1484 25.7155 20.6284 25.7021C19.9884 25.6755 19.4151 25.8621 18.7751 25.9155L18.1218 25.9421C16.5618 25.9688 15.0151 25.8888 13.4684 25.7955L11.1485 25.6621L9.69515 25.5955C9.41515 25.5955 9.13515 25.5821 8.85515 25.5688C8.56182 25.5688 8.44183 25.5555 8.24183 25.5288C7.84183 25.4755 7.40183 25.3955 7.12183 25.0355C6.81516 24.6221 6.57515 24.2088 6.44182 23.7555C6.37515 23.5021 6.33516 23.3555 6.3085 22.9688C6.28183 22.6088 6.2685 22.2355 6.24183 21.8755C6.1885 20.7288 6.33515 19.5955 6.33515 18.4488C6.33515 17.7955 6.25515 17.1155 6.21515 16.4488C6.17515 15.7821 6.21515 15.1288 6.21515 14.4755C6.21515 13.2887 6.42848 12.1021 6.32182 10.9287C6.26848 10.3821 6.33516 9.88874 6.3485 9.34207C6.3485 9.12874 6.3485 8.92874 6.3485 8.71541C6.3485 8.54207 6.33516 8.42207 6.3485 8.27541C6.3485 7.99541 6.40183 7.70207 6.49516 7.42207C6.68183 6.86207 7.16182 6.34207 7.77515 6.19541C8.08182 6.12874 8.37515 6.10207 8.66848 6.14207L9.8685 6.26207C10.6818 6.32874 11.4818 6.36874 12.3085 6.31541C12.7085 6.28874 13.1218 6.31541 13.5084 6.34207C13.9084 6.38207 14.2951 6.34207 14.6951 6.34207C16.1218 6.34207 17.5351 6.19541 18.9618 6.19541C19.8018 6.15541 20.6284 6.24874 21.4684 6.22207C22.0818 6.19541 22.7484 6.15541 23.3084 6.16874C23.7351 6.19541 24.1084 6.44874 24.4284 6.67541C24.8684 6.96874 25.2418 7.35541 25.4951 7.84874C25.7218 8.24874 25.7484 8.62207 25.7618 9.34207L25.8018 11.2487C25.8018 11.9554 25.8818 12.6621 25.7751 13.3555C25.6684 14.0888 25.6551 14.8488 25.7484 15.5821L25.7618 15.5421Z" fill="white"/>
<path d="M22.2551 15.2494C22.2551 15.0227 22.1884 14.7961 22.0818 14.5827C22.0284 14.4494 21.9618 14.3294 21.9351 14.1827C21.9351 14.0627 21.9484 13.9427 21.9618 13.8227C22.0284 13.3028 21.8684 12.8094 21.5618 12.4228C21.3218 12.1561 21.0551 11.9161 20.7484 11.7294C20.5218 11.5694 20.2951 11.5028 20.0951 11.3161C19.8818 11.1161 19.6551 10.9161 19.4151 10.7428C19.1084 10.5161 18.8551 10.2494 18.5218 10.0094C18.2151 9.80942 17.8284 9.68942 17.4684 9.64942C17.0151 9.58276 16.5484 9.70276 16.1084 9.71609C15.6551 9.71609 15.1884 9.64942 14.7084 9.63609C14.4818 9.62276 14.2551 9.64942 14.0284 9.70276C13.8018 9.75609 13.6418 9.96942 13.4684 10.1161C12.9618 10.5428 12.4284 10.7161 11.8551 11.0361C11.5618 11.1828 11.2951 11.3961 11.0418 11.6228C10.8018 11.8361 10.6951 12.1694 10.4951 12.4228C10.4151 12.5161 10.3218 12.5828 10.2684 12.7028C10.2151 12.8494 10.1484 12.9828 10.0818 13.1028C9.97511 13.3561 9.76178 13.556 9.69511 13.8361C9.56178 14.2494 9.4951 14.6894 9.44177 15.116C9.40177 15.4894 9.58845 15.7961 9.46845 16.1427C9.36178 16.4761 9.61511 16.7427 9.53511 17.076C9.49511 17.3027 9.53511 17.5427 9.49511 17.7827C9.45511 18.0227 9.49511 18.276 9.54845 18.5161C9.54845 18.9827 9.78845 19.4761 10.0551 19.8494C10.3218 20.2494 10.7618 20.4361 10.9884 20.8494C11.1618 21.156 11.5218 21.356 11.8151 21.5294C12.0684 21.7027 12.4018 21.7694 12.6151 21.996C13.0684 22.4227 13.6551 22.7161 14.2951 22.7961C14.7351 22.8627 15.2151 22.6227 15.6151 22.7027C16.0684 22.7961 16.5484 22.8361 16.9884 22.6761C17.4551 22.5161 17.9884 22.516 18.5084 22.4494C19.0684 22.356 19.6018 22.0894 19.9618 21.6361C20.1751 21.3961 20.3084 21.0894 20.5351 20.8761C20.6951 20.7027 20.9084 20.5827 21.0418 20.3694C21.1884 20.1427 21.3484 20.1427 21.4018 19.8894C21.4551 19.7027 21.5884 19.5294 21.7218 19.3827C21.8151 19.2761 21.7618 18.916 21.8551 18.7961C22.0951 18.4627 22.0818 18.036 22.2418 17.6761C22.3751 17.3294 22.3751 16.2494 22.1484 15.7427C22.2018 15.5827 22.2284 15.4227 22.2151 15.2627L22.2551 15.2494ZM20.3351 17.8627C20.3351 17.9427 20.2951 18.0227 20.2684 18.1027C20.0684 18.6494 19.6551 19.1027 19.2018 19.4361C18.9751 19.6094 18.7484 19.7694 18.4951 19.8761C18.3484 19.9561 18.1751 20.0094 18.0284 20.0894C17.8551 20.1561 17.6684 20.2227 17.4951 20.3161C17.3084 20.4227 17.1618 20.596 16.9218 20.556C16.3884 20.436 15.9484 20.6627 15.4151 20.7027C15.0018 20.7027 14.6418 20.4761 14.2951 20.3294C14.0951 20.2494 13.8418 20.2227 13.6151 20.1427C13.3884 20.0627 13.2284 19.8894 13.0551 19.7427C12.7351 19.4627 12.6151 19.0361 12.2951 18.7694C12.1484 18.6494 12.1218 18.4627 12.0418 18.2894C11.8284 17.7961 11.1618 17.3694 11.2551 16.7294C11.3618 16.1027 11.6684 15.6094 11.7084 15.0494C11.7084 14.9161 11.7884 14.7827 11.8684 14.6761C11.9351 14.556 11.9751 14.4361 12.0284 14.3027C12.2284 13.8761 12.4151 13.396 12.7751 13.0361C12.9618 12.7961 13.2551 12.7028 13.4818 12.5028C13.6551 12.3561 13.8284 12.2228 14.0284 12.1428C14.2284 12.0628 14.4818 12.1428 14.6684 12.1028C14.9351 12.0494 15.1884 11.9828 15.4551 11.8628C15.8818 11.7028 16.3484 11.7028 16.8018 11.7694C17.0418 11.8228 17.3218 11.8094 17.5084 12.0094C17.7084 12.2094 17.9351 12.3161 18.2018 12.3828C18.2818 12.3961 18.3751 12.4094 18.4551 12.4361C18.6284 12.5294 18.6951 12.7561 18.8284 12.8894C18.9751 13.0228 19.1484 13.1561 19.2684 13.3161C19.4151 13.5027 19.4818 13.7427 19.6018 13.9427C19.7351 14.1561 19.8951 14.3561 20.0951 14.556C20.4151 14.8894 20.2684 15.3694 20.4418 15.7694C20.4551 15.8094 20.4818 15.8627 20.5084 15.916C20.4018 16.3294 20.3484 17.0227 20.3084 17.1961C20.2151 17.4094 20.3751 17.6627 20.3351 17.8894V17.8627Z" fill="white"/>
<path d="M23.4815 8.64764C23.4815 8.64764 23.5081 8.59431 23.4948 8.52764C23.4815 8.39431 23.4681 8.20764 23.3881 8.12764C23.3348 8.06097 23.0948 7.75431 23.0281 7.68764C22.9615 7.63431 22.4948 7.47431 22.4148 7.47431C22.3081 7.46097 21.8815 7.48764 21.7615 7.47431C21.7081 7.47431 21.6548 7.47431 21.6015 7.47431C21.5481 7.47431 20.9615 7.88764 20.8948 7.94098C20.8415 7.99431 20.8148 8.07431 20.7748 8.14097C20.7615 8.16764 20.7348 8.18097 20.7215 8.20764C20.7215 8.24764 20.6948 8.27431 20.6815 8.30098C20.6548 8.36764 20.6015 8.40764 20.5881 8.47431C20.5615 8.56764 20.5481 8.67431 20.5348 8.78097C20.5348 8.87431 20.5881 8.94098 20.5481 9.02097C20.5081 9.10098 20.6015 9.15431 20.5615 9.23431C20.5481 9.28764 20.5615 9.34097 20.5348 9.40764C20.5081 9.47431 20.5348 9.52764 20.5348 9.58098C20.5348 9.70098 20.5748 9.82097 20.6415 9.90097C20.7081 9.99431 20.8281 10.021 20.8681 10.1276C20.9081 10.2076 21.0015 10.2476 21.0681 10.2876C21.1348 10.3276 21.2148 10.3276 21.2548 10.3943C21.3481 10.5143 21.4948 10.581 21.6415 10.5943C21.7481 10.5943 22.1748 10.5943 22.2815 10.541C22.3881 10.501 22.5215 10.5143 22.6415 10.501C22.7748 10.501 22.9081 10.4343 22.9881 10.3143C23.0415 10.2476 23.0548 10.1676 23.1081 10.1143C23.1481 10.0743 23.2015 10.0476 23.2281 9.99431C23.2681 9.94097 23.3881 9.64764 23.4148 9.62097C23.4815 9.54097 23.4681 9.44764 23.5081 9.35431C23.5481 9.26098 23.5081 8.84764 23.4948 8.79431C23.4948 8.74097 23.4815 8.68764 23.4548 8.63431L23.4815 8.64764Z" fill="white"/>
</svg>
