<svg width="166" height="335" viewBox="0 0 166 335" fill="none" xmlns="http://www.w3.org/2000/svg">
<path d="M1.38647 308.112C2.18473 312.348 0.430222 317 1.82718 321.02C3.0911 324.633 6.45877 326.485 9.61025 327.74C28.0535 335.091 45.3824 333.313 64.3246 331.278C72.5733 330.389 84.9547 326.377 93.0204 319.467C94.3343 318.345 94.592 310.429 93.9268 302.173" fill="#A95C40"/>
<path d="M1.38647 308.112C2.18473 312.348 0.430222 317 1.82718 321.02C3.0911 324.633 6.45877 326.485 9.61025 327.74C28.0535 335.091 45.3824 333.313 64.3246 331.278C72.5733 330.389 84.9547 326.377 93.0204 319.467C94.3343 318.345 94.592 310.429 93.9268 302.173" stroke="#4C241E" stroke-width="2.53" stroke-linecap="round" stroke-linejoin="round"/>
<path d="M42.0757 290.447C20.1817 291.601 -12.7051 303.214 7.65894 317.783C10.7356 319.984 14.5273 320.906 18.2442 321.604C34.434 324.644 51.5634 324.868 67.7033 321.446C77.191 319.436 102.004 311.744 91.0691 298.363C89.614 296.585 87.452 295.547 85.4065 294.5C75.8938 289.608 62.4065 288.735 51.8545 289.516" fill="#ECD0B9"/>
<path d="M42.0757 290.447C20.1817 291.601 -12.7051 303.214 7.65894 317.783C10.7356 319.984 14.5273 320.906 18.2442 321.604C34.434 324.644 51.5634 324.868 67.7033 321.446C77.191 319.436 102.004 311.744 91.0691 298.363C89.614 296.585 87.452 295.547 85.4065 294.5C75.8938 289.608 62.4065 288.735 51.8545 289.516" stroke="#4C241E" stroke-width="2.53" stroke-linecap="round" stroke-linejoin="round"/>
<path d="M76.2406 1.33094C65.2645 2.1865 58.3628 12.4283 53.989 21.7813C46.9044 36.9322 47.5863 50.7126 46.2808 66.611C44.7342 85.4001 44.8423 104.214 44.4431 123.053C43.7945 153.413 43.6366 183.79 43.2956 214.158C43.1044 231.875 42.9048 249.593 42.647 267.302C42.514 276.855 42.1564 286.498 42.7635 296.026C42.9464 298.908 41.8405 303.526 44.3683 305.678C45.6655 306.783 52.484 305.977 52.484 303.003C52.484 298.435 51.403 275.127 51.6192 260.89C51.9102 242.233 52.1846 223.577 52.4673 204.929C52.9579 172.111 53.407 139.284 54.014 106.473C54.305 90.7827 55.2696 61.3863 57.3567 45.7785C58.92 34.0582 61.9218 12.7772 75.2511 8.31664C81.2464 6.31479 88.8133 8.7984 91.3494 14.5381C98.3259 30.3203 99.5815 46.144 99.8726 63.222C102.367 62.7984 104.853 62.3748 107.348 61.9511C105.394 48.2455 106.142 34.5317 101.386 21.2082C97.3115 9.81178 89.3621 0.325864 76.224 1.33925L76.2406 1.33094Z" fill="#FFE6D0" stroke="#4C241E" stroke-width="2.53" stroke-linecap="round" stroke-linejoin="round"/>
<path d="M79.4 308.726C78.0945 310.986 71.4257 311.127 68.8895 310.612C66.8689 310.205 65.0146 308.759 65.1976 307.106C65.6133 303.427 70.8769 303.236 74.2612 303.742C79.1006 304.465 80.3978 306.99 79.3917 308.726H79.4Z" fill="#E5B17F" stroke="#4C241E" stroke-width="2.53" stroke-linecap="round" stroke-linejoin="round"/>
<path d="M120.985 70.2742C120.519 63.5294 113.609 56.0287 107.032 54.4421L100.089 55.115C93.9935 58.0471 88.8048 66.827 89.7694 73.5137" fill="#B74C4C"/>
<path d="M120.985 70.2742C120.519 63.5294 113.609 56.0287 107.032 54.4421L100.089 55.115C93.9935 58.0471 88.8048 66.827 89.7694 73.5137" stroke="#4C241E" stroke-width="2.53" stroke-linecap="round" stroke-linejoin="round"/>
<path d="M105.925 70.3654C96.5874 71.2293 87.3658 74.2113 82.5263 78.8629C76.1319 85.018 71.8329 94.7365 67.6836 102.42C64.2411 108.791 53.8055 122.372 58.4537 130.097C63.2932 138.129 81.595 138.611 89.5444 138.752C111.322 139.134 144.4 136.086 160.074 123.601C162.22 121.89 164.357 119.606 164.257 116.865C164.207 115.461 163.55 114.149 162.877 112.911C157.372 102.744 134.788 77.4591 129.175 73.9704C123.762 70.6063 114.781 69.5265 105.917 70.3488L105.925 70.3654Z" fill="#EA6161" stroke="#4C241E" stroke-width="2.53" stroke-linecap="round" stroke-linejoin="round"/>
<path d="M149.93 108.185C132.277 105.277 113.509 107.786 93.8189 111.383C83.325 113.293 72.3905 115.104 63.3684 121.035C57.7141 124.756 55.0449 131.7 61.88 135.421C66.7112 138.046 72.8977 138.445 78.2694 138.877C95.1576 140.222 112.254 139.176 128.851 135.762C136.809 134.126 165.413 129.383 164.274 115.835C163.891 111.258 154.079 108.874 149.922 108.185H149.93Z" fill="#B74C4C" stroke="#4C241E" stroke-width="2.53" stroke-linecap="round" stroke-linejoin="round"/>
<path d="M125.707 108.982C126.115 117.928 119.671 122.256 112.486 123.577C108.961 124.224 105.044 123.925 101.71 122.596C97.0282 120.719 93.4776 116.674 93.5524 111.64C104.138 109.348 114.557 107.944 125.358 107.205C125.525 107.686 126.19 108.849 125.707 108.99V108.982Z" fill="#FFC550" stroke="#4C241E" stroke-width="2.53" stroke-linecap="round" stroke-linejoin="round"/>
<path d="M99.6392 113.841C101.103 118.169 106.907 120.337 110.856 118.044" stroke="#4C241E" stroke-width="2.53" stroke-linecap="round" stroke-linejoin="round"/>
</svg>
