<svg width="250" height="200" viewBox="0 0 250 200" fill="none" xmlns="http://www.w3.org/2000/svg">
<path d="M100.88 16.23L82.9399 118.71" stroke="#4C241E" stroke-width="1.47" stroke-linecap="round" stroke-linejoin="round"/>
<path d="M234.24 24.3001L97.0101 13.3701L79.3501 119.39L212.07 141.66C213.37 141.88 214.61 141 214.83 139.7L234.24 24.3001Z" fill="#F1F1F1" stroke="#4C241E" stroke-width="2" stroke-linejoin="round"/>
<path d="M78.4901 120.88L11.3401 154.58C10.7801 154.86 10.8901 155.7 11.5001 155.82L147.21 183.72C147.37 183.75 147.54 183.72 147.68 183.64C152.53 180.72 200.57 151.77 212.79 144.47C213.32 144.15 213.17 143.35 212.56 143.25L78.9001 120.82C78.7601 120.8 78.6201 120.82 78.4901 120.88Z" fill="#F1F1F1" stroke="#4C241E" stroke-width="2" stroke-miterlimit="10"/>
<g opacity="0.3">
<path d="M80.0301 150.59L62.3901 161.92L103.89 171.47L119.95 158.9" fill="#BABABA"/>
<path d="M80.0301 150.59L62.3901 161.92L103.89 171.47L119.95 158.9" stroke="#4C241E" stroke-miterlimit="10" stroke-linecap="round"/>
</g>
<path d="M200.65 145.51L79.51 123.89C79.4 123.87 79.28 123.89 79.18 123.94L46.01 140.49C45.81 140.59 45.7 140.8 45.73 141.02C45.76 141.24 45.92 141.41 46.14 141.46L168.05 166.1H168.19C168.27 166.1 168.35 166.08 168.43 166.03L200.83 146.46C201.01 146.35 201.11 146.14 201.07 145.92C201.03 145.71 200.86 145.55 200.65 145.51ZM151.36 137.76L176.32 142.21C176.1 142.4 175.89 142.59 175.67 142.78C175.22 143.18 174.78 143.6 174.36 144.02C173.94 144.44 173.54 144.86 173.14 145.3C172.95 145.52 172.75 145.73 172.57 145.96C172.42 146.15 172.3 146.35 172.17 146.56L146.97 141.8H146.99C147.21 141.71 147.42 141.58 147.61 141.43C148.09 141.04 148.52 140.6 148.97 140.18C149.42 139.75 149.86 139.31 150.3 138.87C150.52 138.66 150.73 138.45 150.95 138.23C151.11 138.08 151.27 137.94 151.37 137.76H151.36ZM173.87 148.02C173.54 148.37 173.2 148.72 172.84 149.05C172.22 149.63 171.59 150.22 170.92 150.76C168.25 150.26 165.29 149.7 162.12 149.1C162.65 148.69 163.19 148.28 163.69 147.81C163.96 147.55 164.23 147.29 164.5 147.03C164.73 146.8 164.99 146.57 165.13 146.28L173.94 147.94L173.87 148.01V148.02ZM174.33 148.55C174.47 148.4 174.61 148.26 174.74 148.1L181.86 149.44C181.39 149.9 180.94 150.38 180.5 150.86C180.06 151.34 179.64 151.83 179.22 152.32C177.09 151.92 174.51 151.43 171.58 150.88C172.18 150.48 172.76 150.06 173.31 149.56C173.67 149.23 174.01 148.89 174.35 148.54L174.33 148.55ZM77.67 134.22C82.1 135.05 87.49 136.07 93.48 137.2L93.38 137.25C92.8 137.72 92.22 138.2 91.64 138.68C91.36 138.91 91.08 139.14 90.8 139.38C90.65 139.51 90.52 139.64 90.38 139.78C90.33 139.83 90.28 139.91 90.22 139.96H90.19C90.17 139.91 90.11 139.87 90.06 139.9L90.02 139.93L73.57 136.78C73.86 136.72 74.15 136.66 74.43 136.56C74.85 136.42 75.26 136.24 75.65 136.04C76.04 135.85 76.41 135.64 76.78 135.42C77.15 135.19 77.62 134.97 77.77 134.54C77.82 134.4 77.76 134.3 77.66 134.23L77.67 134.22ZM130.7 139.78L138.66 141.28C138.58 141.34 138.5 141.41 138.43 141.48C138.27 141.61 138.11 141.75 137.95 141.88C137.64 142.14 137.33 142.4 137.02 142.66C136.71 142.92 136.41 143.19 136.1 143.45C135.87 143.65 135.66 143.85 135.45 144.07C132.89 143.59 130.3 143.1 127.71 142.61C128.03 142.39 128.34 142.15 128.64 141.9C128.96 141.63 129.28 141.35 129.61 141.08C129.95 140.79 130.31 140.52 130.63 140.21C130.77 140.08 130.77 139.92 130.7 139.79V139.78ZM156.65 144.83C156.31 145.13 155.96 145.43 155.6 145.72C154.9 146.29 154.15 146.79 153.47 147.39L153.43 147.47C150.72 146.96 147.92 146.43 145.05 145.89C145.22 145.76 145.38 145.62 145.53 145.49C145.86 145.2 146.2 144.92 146.53 144.64L147.49 143.8C147.66 143.65 147.83 143.5 148 143.35C148.09 143.27 148.19 143.19 148.27 143.11L156.8 144.72C156.8 144.72 156.71 144.79 156.66 144.84L156.65 144.83ZM157.02 145.37C157.2 145.21 157.37 145.06 157.52 144.87L157.54 144.85L164.39 146.14C164.24 146.28 164.1 146.45 163.97 146.58C163.71 146.85 163.44 147.12 163.17 147.38C162.64 147.9 162.15 148.46 161.61 148.97L161.59 149C159.15 148.54 156.58 148.05 153.92 147.55C154.67 147.2 155.34 146.72 155.99 146.22C156.34 145.95 156.69 145.66 157.02 145.37ZM147.04 143.22C146.72 143.52 146.4 143.81 146.08 144.11C145.77 144.4 145.46 144.69 145.15 144.98C144.9 145.22 144.61 145.47 144.41 145.76C141.7 145.25 138.92 144.72 136.12 144.2C136.25 144.11 136.38 144.01 136.51 143.91C136.83 143.67 137.16 143.42 137.48 143.17C137.8 142.92 138.12 142.67 138.43 142.42C138.59 142.29 138.76 142.16 138.92 142.03C139.09 141.9 139.26 141.78 139.4 141.61C139.44 141.55 139.46 141.5 139.46 141.44L147.37 142.93C147.26 143.03 147.16 143.12 147.05 143.22H147.04ZM93.83 137.27C94.16 137.33 94.49 137.39 94.82 137.46C94.81 137.58 94.94 137.72 95.06 137.64C95.12 137.61 95.17 137.57 95.23 137.54C97.17 137.91 99.17 138.28 101.22 138.67C101.16 138.72 101.1 138.77 101.03 138.82C100.87 138.95 100.71 139.08 100.54 139.2C100.22 139.45 99.91 139.69 99.58 139.93C99.27 140.16 98.95 140.39 98.65 140.64C98.37 140.87 98.04 141.11 97.87 141.43L90.97 140.11C91.31 139.89 91.61 139.61 91.93 139.36C92.57 138.84 93.21 138.32 93.84 137.79C94.03 137.63 93.98 137.4 93.83 137.27ZM99.03 141.18C99.38 140.96 99.71 140.73 100.04 140.48C100.35 140.25 100.67 140.02 100.98 139.78C101.13 139.66 101.29 139.54 101.44 139.42C101.6 139.3 101.81 139.17 101.91 138.99C101.94 138.93 101.95 138.86 101.95 138.79C104.31 139.24 106.73 139.69 109.18 140.15C109.07 140.23 108.96 140.32 108.86 140.4C108.69 140.53 108.53 140.65 108.36 140.78C108.03 141.02 107.7 141.26 107.37 141.48C107.04 141.71 106.7 141.94 106.37 142.16C106.05 142.37 105.77 142.63 105.46 142.85L98.43 141.5C98.65 141.4 98.85 141.27 99.04 141.15L99.03 141.18ZM106.73 142.74C107.1 142.53 107.46 142.31 107.82 142.08C108.17 141.85 108.51 141.61 108.85 141.37C109.02 141.25 109.19 141.12 109.36 141C109.53 140.87 109.72 140.75 109.84 140.57C109.9 140.48 109.91 140.38 109.89 140.3C117.56 141.75 125.59 143.26 133.44 144.74C132.99 145.18 132.54 145.62 132.08 146.06C131.77 146.36 131.46 146.66 131.15 146.96C130.91 147.19 130.65 147.41 130.44 147.67L106.16 143.02C106.36 142.94 106.55 142.86 106.73 142.75V142.74ZM129.23 140.47C128.93 140.73 128.63 140.99 128.33 141.25C128.04 141.5 127.75 141.77 127.47 142.04C127.3 142.2 127.13 142.34 126.94 142.47C124.55 142.02 122.15 141.57 119.77 141.12C120.01 140.94 120.24 140.76 120.46 140.57C120.8 140.26 121.17 139.97 121.52 139.67C121.86 139.38 122.21 139.09 122.55 138.8C122.71 138.67 122.93 138.52 123.1 138.36L130.14 139.69C129.82 139.93 129.52 140.22 129.22 140.48L129.23 140.47ZM122.09 138.2C121.73 138.51 121.36 138.82 121.01 139.14C120.67 139.45 120.34 139.78 120.01 140.1C119.72 140.38 119.48 140.7 119.22 141.01C116 140.4 112.81 139.8 109.68 139.21C110.29 138.79 110.82 138.3 111.38 137.82C111.69 137.56 112 137.31 112.31 137.07C112.56 136.88 112.86 136.7 113.07 136.46L122.13 138.17L122.08 138.21L122.09 138.2ZM111.9 136.53C111.58 136.78 111.26 137.04 110.95 137.31C110.33 137.84 109.73 138.39 109.31 139.08V139.12C104.87 138.28 100.56 137.47 96.49 136.7C96.8 136.49 97.1 136.28 97.39 136.05C97.76 135.77 98.11 135.47 98.46 135.16C98.63 135.01 98.79 134.86 98.96 134.7C99.14 134.53 99.33 134.39 99.4 134.14C99.44 134 99.32 133.8 99.15 133.85C98.92 133.92 98.8 134.04 98.63 134.21C98.46 134.38 98.28 134.54 98.11 134.7C97.77 135.01 97.42 135.32 97.06 135.62C96.68 135.95 96.28 136.27 95.89 136.59C92.87 136.02 89.98 135.48 87.28 134.97C87.74 134.76 88.19 134.53 88.63 134.27C89.1 134 89.55 133.7 89.99 133.39C90.4 133.1 90.98 132.78 91.16 132.3L112.21 136.28C112.1 136.37 112 136.45 111.91 136.53H111.9ZM75.8 138.25L107.19 144.26C107.07 144.34 106.97 144.44 106.86 144.54C106.72 144.66 106.59 144.79 106.45 144.91C106.18 145.15 105.91 145.38 105.63 145.61C105.36 145.83 105.07 146.03 104.8 146.25C104.66 146.37 104.51 146.48 104.37 146.6C104.31 146.65 104.24 146.7 104.19 146.76C104.15 146.81 104.13 146.88 104.09 146.92L104.06 147.06L71.95 140.66C72.49 140.44 73.01 140.18 73.53 139.91C73.94 139.69 74.35 139.47 74.75 139.24C75.13 139.03 75.73 138.83 75.82 138.36L75.8 138.25ZM104.39 147.11C104.48 147.09 104.56 147.05 104.64 147C104.79 146.92 104.94 146.83 105.09 146.74C105.41 146.55 105.71 146.32 106.01 146.09C106.3 145.87 106.58 145.65 106.85 145.42C106.98 145.31 107.11 145.19 107.24 145.07C107.38 144.94 107.57 144.81 107.66 144.64C107.71 144.55 107.71 144.44 107.68 144.35L123.81 147.44C123.66 147.56 123.51 147.67 123.36 147.79C123.02 148.06 122.68 148.32 122.34 148.59C122 148.86 121.65 149.12 121.32 149.39C121.15 149.53 120.99 149.67 120.84 149.83C120.69 149.98 120.57 150.15 120.42 150.31L104.38 147.11H104.4H104.39ZM121.13 150.28C121.32 150.17 121.5 150.05 121.67 149.93C122.03 149.67 122.38 149.39 122.74 149.11C123.08 148.85 123.43 148.58 123.77 148.32C123.94 148.19 124.11 148.05 124.28 147.92C124.4 147.82 124.52 147.73 124.59 147.6L133.43 149.29C133.3 149.4 133.19 149.51 133.08 149.6C132.71 149.91 132.34 150.22 131.96 150.52C131.59 150.81 131.22 151.1 130.85 151.38C130.66 151.53 130.47 151.67 130.28 151.82C130.14 151.93 129.97 152.05 129.86 152.2L120.89 150.41C120.97 150.37 121.06 150.33 121.14 150.28H121.13ZM131.12 147.79C131.25 147.67 131.38 147.54 131.51 147.42C131.83 147.12 132.16 146.81 132.48 146.51C133.06 145.97 133.65 145.43 134.23 144.89C140.29 146.03 146.23 147.15 151.79 148.21C151.73 148.27 151.68 148.33 151.62 148.39C151.31 148.72 151 149.04 150.68 149.36C150.37 149.67 150.05 149.97 149.74 150.27C149.43 150.57 149.14 150.89 148.83 151.19L131.11 147.79H131.12ZM150.1 150.66C150.45 150.37 150.77 150.06 151.1 149.75C151.42 149.45 151.72 149.14 152.03 148.82C152.19 148.66 152.34 148.49 152.5 148.33C156.16 149.02 159.65 149.68 162.89 150.29C162.8 150.37 162.71 150.46 162.62 150.54C162.22 150.91 161.8 151.27 161.39 151.63C160.99 151.98 160.59 152.33 160.19 152.67C159.97 152.85 159.77 153.04 159.57 153.24L149.3 151.27C149.57 151.07 149.85 150.88 150.11 150.66H150.1ZM160.46 153.15C160.92 152.82 161.36 152.47 161.8 152.12C162.23 151.78 162.64 151.42 163.05 151.06C163.26 150.88 163.49 150.68 163.69 150.46C166.03 150.9 168.23 151.32 170.28 151.7C169.8 152.14 169.32 152.58 168.83 153.02C168.51 153.31 168.19 153.6 167.88 153.9C167.62 154.15 167.37 154.42 167.13 154.69L160.14 153.35C160.25 153.28 160.36 153.22 160.46 153.14V153.15ZM135.65 134.96L150.49 137.61L150.47 137.63C150.27 137.83 150.06 138.03 149.86 138.24C149.44 138.66 149.02 139.07 148.61 139.49C148.21 139.9 147.81 140.31 147.42 140.73C147.26 140.9 147.1 141.08 146.93 141.23C146.78 141.37 146.54 141.55 146.34 141.62L146.28 141.68L131.09 138.81C131.81 138.19 132.5 137.53 133.22 136.91C133.64 136.54 134.07 136.18 134.51 135.83C134.74 135.65 134.98 135.46 135.21 135.28C135.35 135.17 135.5 135.07 135.64 134.96H135.65ZM117.85 131.78L134.79 134.8C134.57 134.97 134.35 135.14 134.14 135.32C133.68 135.7 133.23 136.08 132.79 136.48C132.36 136.87 131.94 137.26 131.53 137.66C131.19 137.99 130.91 138.34 130.63 138.71L113.3 135.44C113.59 135.25 113.88 135.06 114.16 134.85C114.55 134.55 114.94 134.25 115.33 133.95C116.13 133.32 116.92 132.69 117.72 132.05C117.82 131.97 117.85 131.88 117.85 131.78ZM109.69 130.41L109.72 130.32L117.08 131.63C116.35 132.22 115.61 132.82 114.89 133.42C114.51 133.73 114.13 134.05 113.76 134.37C113.41 134.67 113.08 135 112.75 135.33L105 133.87C105.26 133.74 105.51 133.58 105.74 133.44C106.21 133.15 106.67 132.83 107.12 132.51C107.56 132.2 107.99 131.88 108.42 131.55C108.65 131.38 108.87 131.2 109.09 131.02C109.31 130.84 109.56 130.67 109.69 130.42V130.41ZM102.13 128.97L108.78 130.16C108.5 130.36 108.24 130.62 107.99 130.83C107.56 131.18 107.12 131.51 106.67 131.84C106.24 132.16 105.79 132.46 105.36 132.77C104.95 133.06 104.5 133.34 104.17 133.72L97.62 132.48C98.31 132.11 98.96 131.64 99.59 131.18C100.42 130.57 101.24 129.95 102.03 129.3C102.15 129.21 102.17 129.09 102.15 128.98L102.13 128.97ZM87.29 126.33L101.41 128.85C100.67 129.45 99.91 130.04 99.13 130.61C98.37 131.17 97.56 131.7 96.87 132.34L82.12 129.55C82.31 129.47 82.49 129.38 82.66 129.29C83.18 129.03 83.69 128.74 84.19 128.45C85.21 127.86 86.2 127.21 87.16 126.53C87.22 126.49 87.26 126.41 87.28 126.33H87.29ZM79.5 124.94L86.41 126.17C85.56 126.77 84.69 127.34 83.8 127.87C83.31 128.16 82.82 128.43 82.32 128.7C81.96 128.9 81.54 129.1 81.22 129.38L73.51 127.92L79.5 124.93V124.94ZM71.98 128.69L90.28 132.15C90.01 132.33 89.77 132.57 89.53 132.75C89.11 133.05 88.68 133.33 88.24 133.6C87.81 133.86 87.36 134.1 86.91 134.32C86.63 134.46 86.35 134.6 86.09 134.77C76.92 133.04 69.96 131.73 67.02 131.18L71.99 128.7L71.98 128.69ZM65.49 131.93C66.37 132.09 70.76 132.92 77.39 134.17C77 134.22 76.66 134.55 76.33 134.75C75.99 134.96 75.64 135.16 75.28 135.34C74.92 135.52 74.55 135.69 74.19 135.85C73.8 136.02 73.42 136.23 73.03 136.38C72.91 136.42 72.88 136.53 72.9 136.63L60.73 134.3L65.49 131.92V131.93ZM59.2 135.07L75.14 138.12C74.88 138.23 74.62 138.43 74.41 138.56C74 138.8 73.58 139.04 73.16 139.27C72.47 139.66 71.79 140.04 71.14 140.49L54.83 137.24L59.2 135.06V135.07ZM64.02 144.01L64.09 143.98C64.62 143.75 65.14 143.49 65.64 143.21C66.13 142.93 66.62 142.63 67.09 142.31C67.32 142.15 67.55 142 67.78 141.83C67.89 141.75 68.01 141.66 68.06 141.52C68.09 141.44 68.14 141.36 68.13 141.22C68.13 141.11 68.08 141 67.96 140.97C67.44 140.81 66.97 141.33 66.58 141.6C66.14 141.91 65.69 142.2 65.22 142.47C64.77 142.74 64.31 143 63.84 143.25C63.52 143.42 63.19 143.59 62.89 143.79L47.82 140.74L53.32 138L85.57 144.43L85.55 144.45C85.36 144.62 85.17 144.78 84.97 144.95C84.55 145.29 84.12 145.62 83.68 145.93C83.25 146.23 82.8 146.52 82.35 146.79C81.96 147.02 81.58 147.26 81.2 147.49L64.03 144.02L64.02 144.01ZM81.96 147.64C82.2 147.54 82.43 147.44 82.66 147.31C83.15 147.04 83.62 146.76 84.09 146.45C84.54 146.15 84.98 145.83 85.41 145.49C85.73 145.23 86.17 144.94 86.43 144.59L146.58 156.58L146.47 156.68C146.28 156.85 146.09 157.01 145.89 157.17C145.48 157.52 145.07 157.86 144.65 158.2C144.25 158.53 143.84 158.86 143.43 159.18C143.15 159.4 142.86 159.63 142.59 159.88L81.96 147.63V147.64ZM150.83 161.52V161.56L143.34 160.05C143.5 159.93 143.66 159.82 143.81 159.7C144.24 159.37 144.66 159.04 145.08 158.7C145.49 158.37 145.89 158.04 146.29 157.7C146.48 157.54 146.67 157.37 146.87 157.2C147.03 157.06 147.23 156.92 147.34 156.73L154.84 158.22C154.65 158.36 154.47 158.51 154.28 158.65C153.88 158.96 153.48 159.26 153.08 159.57C152.68 159.87 152.27 160.17 151.88 160.49C151.68 160.65 151.49 160.8 151.29 160.96C151.08 161.13 150.98 161.28 150.85 161.51L150.83 161.52ZM151.27 161.64C151.38 161.6 151.49 161.56 151.61 161.48C151.82 161.35 152.03 161.21 152.24 161.07C152.68 160.78 153.09 160.47 153.51 160.16C153.92 159.86 154.32 159.56 154.73 159.26C154.93 159.11 155.13 158.96 155.34 158.81C155.44 158.73 155.55 158.66 155.63 158.57C155.67 158.52 155.7 158.47 155.72 158.41L165.32 160.32C165.26 160.36 165.21 160.41 165.15 160.45C164.93 160.62 164.71 160.79 164.49 160.96C164.04 161.3 163.59 161.62 163.13 161.94C162.67 162.25 162.19 162.55 161.73 162.86C161.39 163.09 161.06 163.32 160.72 163.55L151.27 161.64ZM168.07 165.04L161.33 163.68C161.55 163.58 161.78 163.48 162 163.36C162.5 163.1 162.98 162.78 163.46 162.47C163.93 162.16 164.39 161.85 164.85 161.52C165.09 161.35 165.33 161.17 165.57 160.99C165.77 160.84 165.97 160.7 166.07 160.47L173.28 161.91L168.08 165.05L168.07 165.04ZM174.58 161.11L147.46 155.71C147.87 155.47 148.26 155.22 148.65 154.96C149.1 154.66 149.55 154.36 150 154.05C150.22 153.9 150.44 153.76 150.65 153.61C150.87 153.46 151.16 153.31 151.23 153.04C151.27 152.88 151.18 152.73 151.01 152.71C150.76 152.68 150.58 152.83 150.38 152.96C150.2 153.08 150.02 153.2 149.84 153.33C149.45 153.6 149.05 153.88 148.66 154.15C148.28 154.41 147.89 154.67 147.52 154.94C147.33 155.08 147.16 155.23 146.98 155.37C146.92 155.42 146.81 155.51 146.71 155.56L130.65 152.36C130.84 152.24 131.02 152.12 131.21 151.99C131.62 151.71 132.02 151.41 132.41 151.11C132.79 150.82 133.17 150.52 133.54 150.21C133.78 150.01 134.15 149.77 134.34 149.47L179.51 158.12L174.57 161.11H174.58ZM180.84 157.32L167.66 154.79C167.85 154.65 168.04 154.5 168.22 154.35C168.56 154.06 168.89 153.76 169.22 153.46C169.82 152.92 170.43 152.38 171.03 151.83C179.11 153.35 184.52 154.38 185.42 154.55L180.84 157.32ZM186.16 154.11C186.18 153.85 186.01 153.61 185.75 153.56C185.17 153.45 183.02 153.04 179.7 152.42C180.12 152.06 180.53 151.7 180.94 151.32C181.47 150.82 182.01 150.31 182.51 149.78C182.56 149.73 182.59 149.66 182.61 149.59L191.03 151.18L186.17 154.12L186.16 154.11ZM191.65 150.79V150.77C191.71 150.49 191.53 150.22 191.25 150.17L182.72 148.56C183.49 148.31 184.07 147.56 184.61 146.99L185.78 145.76C185.97 145.56 186.16 145.36 186.35 145.16C186.55 144.95 186.79 144.75 186.9 144.47C186.99 144.25 186.73 144.03 186.52 144.13C186.28 144.25 186.1 144.48 185.92 144.67C185.74 144.86 185.56 145.05 185.39 145.24L184.26 146.45C183.91 146.82 183.57 147.2 183.23 147.57C182.93 147.89 182.61 148.23 182.18 148.38L182.11 148.44L172.73 146.67C173.04 146.38 173.35 146.1 173.65 145.79C174.06 145.37 174.47 144.95 174.89 144.54C175.3 144.14 175.72 143.75 176.14 143.37C176.36 143.17 176.58 142.98 176.8 142.79C176.96 142.66 177.11 142.54 177.18 142.37L199.14 146.29L191.67 150.8L191.65 150.79Z" fill="#4C241E"/>
<path d="M147.2 190.73L10.6402 161.14L9.91016 155L147.08 184.17L147.2 190.73Z" fill="#4C241E"/>
<path d="M213.45 147.87L147.22 190.1L147.43 184.04L213.61 143.63L213.45 147.87Z" fill="#4C241E" stroke="#4C241E" stroke-linecap="round" stroke-linejoin="round"/>
<path d="M213.87 142.3L217.74 139.65L236.47 27.5101L234.62 24.1201L213.87 142.3Z" fill="#4C241E" stroke="#4C241E" stroke-width="1.31" stroke-linejoin="round"/>
<g opacity="0.8">
<path d="M228.02 27.7201C227.93 27.6001 227.8 27.5301 227.66 27.5201L102.05 17.4101C101.78 17.3901 101.53 17.5901 101.48 17.8701C101.48 17.8701 97.4799 41.4001 93.4999 65.1901C91.5099 77.0801 89.5199 89.0401 88.0399 98.1501C87.2999 102.71 86.6799 106.55 86.2599 109.32C86.0499 110.71 85.8799 111.82 85.7699 112.63C85.7099 113.03 85.6699 113.36 85.6399 113.6C85.6299 113.72 85.6199 113.83 85.6099 113.91C85.6099 114 85.5999 114.06 85.6099 114.15C85.6099 114.18 85.6099 114.22 85.6399 114.3C85.6499 114.34 85.6699 114.4 85.7399 114.49C85.7799 114.53 85.8299 114.58 85.9099 114.62C85.9799 114.66 86.0699 114.67 86.1499 114.67C86.2099 114.67 86.4299 114.7 86.7399 114.74C89.1899 115.07 98.1099 116.47 110.1 118.38C128.08 121.25 152.98 125.27 173.38 128.58C183.58 130.23 192.65 131.71 199.18 132.77C205.71 133.83 209.68 134.48 209.68 134.48C209.82 134.5 209.96 134.47 210.07 134.38C210.18 134.29 210.26 134.17 210.29 134.02L228.12 28.1201C228.15 27.9701 228.12 27.8201 228.02 27.7101V27.7201Z" stroke="#4C241E" stroke-width="1.2" stroke-miterlimit="10"/>
</g>
</svg>
