<?xml version="1.0" encoding="UTF-8"?>
<svg id="Layer_1" xmlns="http://www.w3.org/2000/svg" version="1.1" viewBox="0 0 250 200">
  <!-- Generator: Adobe Illustrator 29.6.1, SVG Export Plug-In . SVG Version: 2.1.1 Build 9)  -->
  <defs>
    <style>
      .st0 {
        fill: #bababa;
      }

      .st1 {
        stroke-width: 1.2px;
      }

      .st1, .st2, .st3, .st4, .st5, .st6, .st7 {
        stroke: #4c241e;
      }

      .st1, .st2, .st6 {
        fill: none;
      }

      .st1, .st6, .st7 {
        stroke-miterlimit: 10;
      }

      .st2 {
        stroke-width: 1.47px;
      }

      .st2, .st3, .st4, .st5 {
        stroke-linejoin: round;
      }

      .st2, .st5, .st6 {
        stroke-linecap: round;
      }

      .st3, .st7 {
        fill: #f1f1f1;
        stroke-width: 2px;
      }

      .st4 {
        stroke-width: 1.31px;
      }

      .st4, .st5, .st8 {
        fill: #4c241e;
      }

      .st9 {
        opacity: .3;
      }

      .st10 {
        opacity: .8;
      }
    </style>
  </defs>
  <path class="st2" d="M100.88,16.23l-17.94,102.48"/>
  <path class="st3" d="M234.24,24.3L97.01,13.37l-17.66,106.02,132.72,22.27c1.3.22,2.54-.66,2.76-1.96l19.41-115.4Z"/>
  <path class="st7" d="M78.49,120.88L11.34,154.58c-.56.28-.45,1.12.16,1.24l135.71,27.9c.16.03.33,0,.47-.08,4.85-2.92,52.89-31.87,65.11-39.17.53-.32.38-1.12-.23-1.22l-133.66-22.43c-.14-.02-.28,0-.41.06Z"/>
  <g class="st9">
    <path class="st0" d="M80.03,150.59l-17.64,11.33,41.5,9.55,16.06-12.57"/>
    <path class="st6" d="M80.03,150.59l-17.64,11.33,41.5,9.55,16.06-12.57"/>
  </g>
  <path class="st8" d="M200.65,145.51l-121.14-21.62c-.11-.02-.23,0-.33.05l-33.17,16.55c-.2.1-.31.31-.28.53s.19.39.41.44l121.91,24.64h.14c.08,0,.16-.02.24-.07l32.4-19.57c.18-.11.28-.32.24-.54-.04-.21-.21-.37-.42-.41ZM151.36,137.76l24.96,4.45c-.22.19-.43.38-.65.57-.45.4-.89.82-1.31,1.24s-.82.84-1.22,1.28c-.19.22-.39.43-.57.66-.15.19-.27.39-.4.6l-25.2-4.76h.02c.22-.09.43-.22.62-.37.48-.39.91-.83,1.36-1.25.45-.43.89-.87,1.33-1.31.22-.21.43-.42.65-.64.16-.15.32-.29.42-.47h0ZM173.87,148.02c-.33.35-.67.7-1.03,1.03-.62.58-1.25,1.17-1.92,1.71-2.67-.5-5.63-1.06-8.8-1.66.53-.41,1.07-.82,1.57-1.29.27-.26.54-.52.81-.78.23-.23.49-.46.63-.75l8.81,1.66-.07.07h0ZM174.33,148.55c.14-.15.28-.29.41-.45l7.12,1.34c-.47.46-.92.94-1.36,1.42s-.86.97-1.28,1.46c-2.13-.4-4.71-.89-7.64-1.44.6-.4,1.18-.82,1.73-1.32.36-.33.7-.67,1.04-1.02h-.02ZM77.67,134.22c4.43.83,9.82,1.85,15.81,2.98l-.1.05c-.58.47-1.16.95-1.74,1.43-.28.23-.56.46-.84.7-.15.13-.28.26-.42.4-.05.05-.1.13-.16.18h-.03c-.02-.05-.08-.09-.13-.06l-.04.03-16.45-3.15c.29-.06.58-.12.86-.22.42-.14.83-.32,1.22-.52.39-.19.76-.4,1.13-.62.37-.23.84-.45.99-.88.05-.14,0-.24-.11-.31h0ZM130.7,139.78l7.96,1.5c-.08.06-.16.13-.23.2-.16.13-.32.27-.48.4-.31.26-.62.52-.93.78-.31.26-.61.53-.92.79-.23.2-.44.4-.65.62-2.56-.48-5.15-.97-7.74-1.46.32-.22.63-.46.93-.71.32-.27.64-.55.97-.82.34-.29.7-.56,1.02-.87.14-.13.14-.29.07-.42h0ZM156.65,144.83c-.34.3-.69.6-1.05.89-.7.57-1.45,1.07-2.13,1.67l-.04.08c-2.71-.51-5.51-1.04-8.38-1.58.17-.13.33-.27.48-.4.33-.29.67-.57,1-.85l.96-.84c.17-.15.34-.3.51-.45.09-.08.19-.16.27-.24l8.53,1.61s-.09.07-.14.12h-.01ZM157.02,145.37c.18-.16.35-.31.5-.5l.02-.02,6.85,1.29c-.15.14-.29.31-.42.44-.26.27-.53.54-.8.8-.53.52-1.02,1.08-1.56,1.59l-.02.03c-2.44-.46-5.01-.95-7.67-1.45.75-.35,1.42-.83,2.07-1.33.35-.27.7-.56,1.03-.85ZM147.04,143.22c-.32.3-.64.59-.96.89-.31.29-.62.58-.93.87-.25.24-.54.49-.74.78-2.71-.51-5.49-1.04-8.29-1.56.13-.09.26-.19.39-.29.32-.24.65-.49.97-.74.32-.25.64-.5.95-.75.16-.13.33-.26.49-.39.17-.13.34-.25.48-.42.04-.06.06-.11.06-.17l7.91,1.49c-.11.1-.21.19-.32.29h-.01ZM93.83,137.27c.33.06.66.12.99.19-.01.12.12.26.24.18.06-.03.11-.07.17-.1,1.94.37,3.94.74,5.99,1.13-.06.05-.12.1-.19.15-.16.13-.32.26-.49.38-.32.25-.63.49-.96.73-.31.23-.63.46-.93.71-.28.23-.61.47-.78.79l-6.9-1.32c.34-.22.64-.5.96-.75.64-.52,1.28-1.04,1.91-1.57.19-.16.14-.39,0-.52ZM99.03,141.18c.35-.22.68-.45,1.01-.7.31-.23.63-.46.94-.7.15-.12.31-.24.46-.36.16-.12.37-.25.47-.43.03-.06.04-.13.04-.2,2.36.45,4.78.9,7.23,1.36-.11.08-.22.17-.32.25-.17.13-.33.25-.5.38-.33.24-.66.48-.99.7-.33.23-.67.46-1,.68-.32.21-.6.47-.91.69l-7.03-1.35c.22-.1.42-.23.61-.35v.03ZM106.73,142.74c.37-.21.73-.43,1.09-.66.35-.23.69-.47,1.03-.71.17-.12.34-.25.51-.37.17-.13.36-.25.48-.43.06-.09.07-.19.05-.27,7.67,1.45,15.7,2.96,23.55,4.44-.45.44-.9.88-1.36,1.32-.31.3-.62.6-.93.9-.24.23-.5.45-.71.71l-24.28-4.65c.2-.08.39-.16.57-.27h0ZM129.23,140.47c-.3.26-.6.52-.9.78-.29.25-.58.52-.86.79-.17.16-.34.3-.53.43-2.39-.45-4.79-.9-7.17-1.35.24-.18.47-.36.69-.55.34-.31.71-.6,1.06-.9.34-.29.69-.58,1.03-.87.16-.13.38-.28.55-.44l7.04,1.33c-.32.24-.62.53-.92.79h0ZM122.09,138.2c-.36.31-.73.62-1.08.94-.34.31-.67.64-1,.96-.29.28-.53.6-.79.91-3.22-.61-6.41-1.21-9.54-1.8.61-.42,1.14-.91,1.7-1.39.31-.26.62-.51.93-.75.25-.19.55-.37.76-.61l9.06,1.71-.05.04h0ZM111.9,136.53c-.32.25-.64.51-.95.78-.62.53-1.22,1.08-1.64,1.77v.04c-4.44-.84-8.75-1.65-12.82-2.42.31-.21.61-.42.9-.65.37-.28.72-.58,1.07-.89.17-.15.33-.3.5-.46.18-.17.37-.31.44-.56.04-.14-.08-.34-.25-.29-.23.07-.35.19-.52.36-.17.17-.35.33-.52.49-.34.31-.69.62-1.05.92-.38.33-.78.65-1.17.97-3.02-.57-5.91-1.11-8.61-1.62.46-.21.91-.44,1.35-.7.47-.27.92-.57,1.36-.88.41-.29.99-.61,1.17-1.09l21.05,3.98c-.11.09-.21.17-.3.25h-.01ZM75.8,138.25l31.39,6.01c-.12.08-.22.18-.33.28-.14.12-.27.25-.41.37-.27.24-.54.47-.82.7-.27.22-.56.42-.83.64-.14.12-.29.23-.43.35-.06.05-.13.1-.18.16-.04.05-.06.12-.1.16l-.03.14-32.11-6.4c.54-.22,1.06-.48,1.58-.75.41-.22.82-.44,1.22-.67.38-.21.98-.41,1.07-.88l-.02-.11ZM104.39,147.11c.09-.02.17-.06.25-.11.15-.08.3-.17.45-.26.32-.19.62-.42.92-.65.29-.22.57-.44.84-.67.13-.11.26-.23.39-.35.14-.13.33-.26.42-.43.05-.09.05-.2.02-.29l16.13,3.09c-.15.12-.3.23-.45.35-.34.27-.68.53-1.02.8-.34.27-.69.53-1.02.8-.17.14-.33.28-.48.44-.15.15-.27.32-.42.48l-16.04-3.2h.02-.01ZM121.13,150.28c.19-.11.37-.23.54-.35.36-.26.71-.54,1.07-.82.34-.26.69-.53,1.03-.79.17-.13.34-.27.51-.4.12-.1.24-.19.31-.32l8.84,1.69c-.13.11-.24.22-.35.31-.37.31-.74.62-1.12.92-.37.29-.74.58-1.11.86-.19.15-.38.29-.57.44-.14.11-.31.23-.42.38l-8.97-1.79c.08-.04.17-.08.25-.13h-.01ZM131.12,147.79c.13-.12.26-.25.39-.37.32-.3.65-.61.97-.91.58-.54,1.17-1.08,1.75-1.62,6.06,1.14,12,2.26,17.56,3.32-.06.06-.11.12-.17.18-.31.33-.62.65-.94.97s-.63.61-.94.91c-.31.3-.6.62-.91.92l-17.72-3.4h0ZM150.1,150.66c.35-.29.67-.6,1-.91.32-.3.62-.61.93-.93.16-.16.31-.33.47-.49,3.66.69,7.15,1.35,10.39,1.96-.09.08-.18.17-.27.25-.4.37-.82.73-1.23,1.09-.4.35-.8.7-1.2,1.04-.22.18-.42.37-.62.57l-10.27-1.97c.27-.2.55-.39.81-.61h0ZM160.46,153.15c.46-.33.9-.68,1.34-1.03.43-.34.84-.7,1.25-1.06.21-.18.44-.38.64-.6,2.34.44,4.54.86,6.59,1.24-.48.44-.96.88-1.45,1.32-.32.29-.64.58-.95.88-.26.25-.51.52-.75.79l-6.99-1.34c.11-.07.22-.13.32-.21h0ZM135.65,134.96l14.84,2.65-.02.02c-.2.2-.41.4-.61.61-.42.42-.84.83-1.25,1.25-.4.41-.8.82-1.19,1.24-.16.17-.32.35-.49.5-.15.14-.39.32-.59.39l-.06.06-15.19-2.87c.72-.62,1.41-1.28,2.13-1.9.42-.37.85-.73,1.29-1.08.23-.18.47-.37.7-.55.14-.11.29-.21.43-.32h0ZM117.85,131.78l16.94,3.02c-.22.17-.44.34-.65.52-.46.38-.91.76-1.35,1.16-.43.39-.85.78-1.26,1.18-.34.33-.62.68-.9,1.05l-17.33-3.27c.29-.19.58-.38.86-.59l1.17-.9c.8-.63,1.59-1.26,2.39-1.9.1-.08.13-.17.13-.27ZM109.69,130.41l.03-.09,7.36,1.31c-.73.59-1.47,1.19-2.19,1.79-.38.31-.76.63-1.13.95-.35.3-.68.63-1.01.96l-7.75-1.46c.26-.13.51-.29.74-.43.47-.29.93-.61,1.38-.93.44-.31.87-.63,1.3-.96.23-.17.45-.35.67-.53.22-.18.47-.35.6-.6h0ZM102.13,128.97l6.65,1.19c-.28.2-.54.46-.79.67-.43.35-.87.68-1.32,1.01-.43.32-.88.62-1.31.93-.41.29-.86.57-1.19.95l-6.55-1.24c.69-.37,1.34-.84,1.97-1.3.83-.61,1.65-1.23,2.44-1.88.12-.09.14-.21.12-.32h-.02ZM87.29,126.33l14.12,2.52c-.74.6-1.5,1.19-2.28,1.76-.76.56-1.57,1.09-2.26,1.73l-14.75-2.79c.19-.08.37-.17.54-.26.52-.26,1.03-.55,1.53-.84,1.02-.59,2.01-1.24,2.97-1.92.06-.04.1-.12.12-.2h.01ZM79.5,124.94l6.91,1.23c-.85.6-1.72,1.17-2.61,1.7-.49.29-.98.56-1.48.83-.36.2-.78.4-1.1.68l-7.71-1.46,5.99-2.99h0ZM71.98,128.69l18.3,3.46c-.27.18-.51.42-.75.6-.42.3-.85.58-1.29.85-.43.26-.88.5-1.33.72-.28.14-.56.28-.82.45-9.17-1.73-16.13-3.04-19.07-3.59l4.97-2.48h0ZM65.49,131.93c.88.16,5.27.99,11.9,2.24-.39.05-.73.38-1.06.58-.34.21-.69.41-1.05.59-.36.18-.73.35-1.09.51-.39.17-.77.38-1.16.53-.12.04-.15.15-.13.25l-12.17-2.33,4.76-2.38h0ZM59.2,135.07l15.94,3.05c-.26.11-.52.31-.73.44-.41.24-.83.48-1.25.71-.69.39-1.37.77-2.02,1.22l-16.31-3.25,4.37-2.18h0ZM64.02,144.01l.07-.03c.53-.23,1.05-.49,1.55-.77.49-.28.98-.58,1.45-.9.23-.16.46-.31.69-.48.11-.08.23-.17.28-.31.03-.08.08-.16.07-.3,0-.11-.05-.22-.17-.25-.52-.16-.99.36-1.38.63-.44.31-.89.6-1.36.87-.45.27-.91.53-1.38.78-.32.17-.65.34-.95.54l-15.07-3.05,5.5-2.74,32.25,6.43-.02.02c-.19.17-.38.33-.58.5-.42.34-.85.67-1.29.98-.43.3-.88.59-1.33.86-.39.23-.77.47-1.15.7l-17.17-3.47h-.01ZM81.96,147.64c.24-.1.47-.2.7-.33.49-.27.96-.55,1.43-.86.45-.3.89-.62,1.32-.96.32-.26.76-.55,1.02-.9l60.15,11.99-.11.1c-.19.17-.38.33-.58.49-.41.35-.82.69-1.24,1.03-.4.33-.81.66-1.22.98-.28.22-.57.45-.84.7l-60.63-12.25h0ZM150.83,161.52v.04l-7.49-1.51c.16-.12.32-.23.47-.35.43-.33.85-.66,1.27-1,.41-.33.81-.66,1.21-1,.19-.16.38-.33.58-.5.16-.14.36-.28.47-.47l7.5,1.49c-.19.14-.37.29-.56.43-.4.31-.8.61-1.2.92-.4.3-.81.6-1.2.92-.2.16-.39.31-.59.47-.21.17-.31.32-.44.55h-.02ZM151.27,161.64c.11-.04.22-.08.34-.16.21-.13.42-.27.63-.41.44-.29.85-.6,1.27-.91.41-.3.81-.6,1.22-.9.2-.15.4-.3.61-.45.1-.08.21-.15.29-.24.04-.05.07-.1.09-.16l9.6,1.91c-.06.04-.11.09-.17.13-.22.17-.44.34-.66.51-.45.34-.9.66-1.36.98-.46.31-.94.61-1.4.92-.34.23-.67.46-1.01.69l-9.45-1.91ZM168.07,165.04l-6.74-1.36c.22-.1.45-.2.67-.32.5-.26.98-.58,1.46-.89.47-.31.93-.62,1.39-.95.24-.17.48-.35.72-.53.2-.15.4-.29.5-.52l7.21,1.44-5.2,3.14h0ZM174.58,161.11l-27.12-5.4c.41-.24.8-.49,1.19-.75.45-.3.9-.6,1.35-.91.22-.15.44-.29.65-.44.22-.15.51-.3.58-.57.04-.16-.05-.31-.22-.33-.25-.03-.43.12-.63.25-.18.12-.36.24-.54.37-.39.27-.79.55-1.18.82-.38.26-.77.52-1.14.79-.19.14-.36.29-.54.43-.06.05-.17.14-.27.19l-16.06-3.2c.19-.12.37-.24.56-.37.41-.28.81-.58,1.2-.88.38-.29.76-.59,1.13-.9.24-.2.61-.44.8-.74l45.17,8.65-4.94,2.99h0ZM180.84,157.32l-13.18-2.53c.19-.14.38-.29.56-.44.34-.29.67-.59,1-.89.6-.54,1.21-1.08,1.81-1.63,8.08,1.52,13.49,2.55,14.39,2.72l-4.58,2.77ZM186.16,154.11c.02-.26-.15-.5-.41-.55-.58-.11-2.73-.52-6.05-1.14.42-.36.83-.72,1.24-1.1.53-.5,1.07-1.01,1.57-1.54.05-.05.08-.12.1-.19l8.42,1.59-4.86,2.94h0ZM191.65,150.79v-.02c.06-.28-.12-.55-.4-.6l-8.53-1.61c.77-.25,1.35-1,1.89-1.57l1.17-1.23.57-.6c.2-.21.44-.41.55-.69.09-.22-.17-.44-.38-.34-.24.12-.42.35-.6.54-.18.19-.36.38-.53.57l-1.13,1.21c-.35.37-.69.75-1.03,1.12-.3.32-.62.66-1.05.81l-.07.06-9.38-1.77c.31-.29.62-.57.92-.88.41-.42.82-.84,1.24-1.25.41-.4.83-.79,1.25-1.17.22-.2.44-.39.66-.58.16-.13.31-.25.38-.42l21.96,3.92-7.47,4.51h-.02Z"/>
  <path class="st8" d="M147.2,190.73L10.64,161.14l-.73-6.14,137.17,29.17.12,6.56Z"/>
  <path class="st5" d="M213.45,147.87l-66.23,42.23.21-6.06,66.18-40.41-.16,4.24Z"/>
  <path class="st4" d="M213.87,142.3l3.87-2.65,18.73-112.14-1.85-3.39-20.75,118.18Z"/>
  <g class="st10">
    <path class="st1" d="M228.02,27.72c-.09-.12-.22-.19-.36-.2l-125.61-10.11c-.27-.02-.52.18-.57.46,0,0-4,23.53-7.98,47.32-1.99,11.89-3.98,23.85-5.46,32.96-.74,4.56-1.36,8.4-1.78,11.17-.21,1.39-.38,2.5-.49,3.31-.06.4-.1.73-.13.97-.01.12-.02.23-.03.31,0,.09-.01.15,0,.24,0,.03,0,.07.03.15.01.04.03.1.1.19.04.04.09.09.17.13.07.04.16.05.24.05.06,0,.28.03.59.07,2.45.33,11.37,1.73,23.36,3.64,17.98,2.87,42.88,6.89,63.28,10.2,10.2,1.65,19.27,3.13,25.8,4.19,6.53,1.06,10.5,1.71,10.5,1.71.14.02.28,0,.39-.1.11-.09.19-.21.22-.36l17.83-105.9c.03-.15,0-.3-.1-.41h0Z"/>
  </g>
</svg>