<svg width="97" height="102" viewBox="0 0 97 102" fill="none" xmlns="http://www.w3.org/2000/svg">
<path d="M1.37984 86.607C0.954594 86.3195 0.872147 85.7316 1.20627 85.341C3.23272 82.9892 10.2884 75.6592 21.4881 73.0885C34.8618 70.0201 50.4875 68.7841 82.3249 73.0499C82.5115 73.0757 82.7024 73.0413 82.8673 72.9512L93.0299 67.3421C93.5984 67.0288 94.3013 67.4194 94.323 68.0631L95.1301 91.2205C95.1518 91.8514 94.5053 92.2891 93.9195 92.0402L85.3233 88.4052C85.1107 88.3151 84.8721 88.3108 84.6594 88.3966C81.5351 89.6412 56.9401 99.19 40.1644 98.5076C22.7291 97.7995 24.0005 98.469 1.80075 93.2161C1.0544 93.0401 0.885165 92.0616 1.53606 91.6539L4.19604 89.9716C4.72109 89.6412 4.73411 88.8859 4.22208 88.5383L1.38418 86.6113L1.37984 86.607Z" fill="#E9C883" stroke="#4C241E" stroke-width="2" stroke-miterlimit="10"/>
<path d="M11.9894 83.6287C12.9888 83.6287 13.7989 82.8275 13.7989 81.8392C13.7989 80.8508 12.9888 80.0496 11.9894 80.0496C10.9901 80.0496 10.1799 80.8508 10.1799 81.8392C10.1799 82.8275 10.9901 83.6287 11.9894 83.6287Z" fill="black"/>
<path d="M34.8444 51.3044C37.4306 51.8537 42.8547 53.4545 46.2654 57.5658C47.45 50.8967 45.6014 47.0085 45.6014 47.0085L44.1261 45.6052C40.2902 42.571 34.1067 41.4209 32.0672 43.4379C30.2317 46.3219 32.1974 49.7165 33.4645 51.4203C33.894 51.2529 34.3757 51.2057 34.8444 51.3087V51.3044Z" fill="#EFEFEF" stroke="#4C241E" stroke-width="2" stroke-miterlimit="10"/>
<path d="M45.5684 34.707C44.3056 34.1963 41.8219 33.1297 40.6373 32.4044C36.7059 30.0054 31.1907 29.3874 30.6916 34.8163C30.3098 38.9877 31.2948 41.8373 32.0629 43.4381C34.098 41.4167 40.2815 42.5669 44.1217 45.6053C44.6685 46.0388 45.1675 46.5065 45.5971 47.0087C47.1896 42.9059 46.5684 35.707 45.519 34.8163L45.5684 34.707Z" fill="#EFEFEF" stroke="#4C241E" stroke-width="2" stroke-miterlimit="10"/>
<path d="M46.1048 75.7537C42.1821 72.4835 35.1525 72.5694 33.9461 72.6123C30.21 75.0156 27.4068 80.0839 27.0206 85.9505C26.4782 94.1389 30.8436 100.774 36.771 100.774C42.6985 100.774 47.9403 94.1346 48.4828 85.9505C48.7388 82.0538 47.8839 78.5089 46.2784 75.8653C46.2176 75.8353 46.1612 75.8009 46.1048 75.7537Z" fill="#EFEFEF" stroke="#4C241E" stroke-width="2" stroke-miterlimit="10"/>
<path d="M46.5909 65.9C47.0075 66.2691 47.3546 66.6597 47.654 67.0588C48.0879 66.8442 48.4221 66.4236 48.4698 65.8786C48.7779 62.2694 47.7061 59.4841 47.3893 58.7546C47.3372 58.6387 47.2765 58.5271 47.2114 58.4198C46.9207 57.9649 46.5952 57.5443 46.2611 57.1409C42.8504 53.0253 37.4263 51.4245 34.8401 50.8795C34.3715 50.7808 33.8898 50.8237 33.4602 50.9911C33.0133 51.167 32.6227 51.476 32.3667 51.9052C30.0712 55.7204 32.8223 60.5828 34.1545 62.5526C34.2847 62.5269 34.4192 62.5097 34.5537 62.5097C34.6058 62.5097 34.6795 62.5097 34.762 62.5097C35.5214 61.8917 36.2547 61.8745 36.2547 61.8745C36.2547 61.8745 40.9498 60.866 46.5909 65.9043V65.9Z" fill="#EFEFEF" stroke="#4C241E" stroke-width="2" stroke-miterlimit="10"/>
<path d="M22 80.9807C22 80.9807 18.5546 86.3538 22 92.4006" stroke="#C17B46" stroke-width="2" stroke-miterlimit="10" stroke-linecap="round"/>
<path d="M55.5254 77.8351C55.5254 77.8351 61.8651 75.9039 58.385 81.4444C58.385 81.4444 64.1562 83.3756 58.0465 86.2295C58.0465 86.2295 61.8391 91.0146 55.5297 89.4181" stroke="#C17B46" stroke-width="2" stroke-miterlimit="10" stroke-linecap="round"/>
<path d="M66.582 77.0927C66.582 77.0927 72.9217 75.1615 69.4416 80.7019C69.4416 80.7019 75.2129 82.6331 69.1032 85.487C69.1032 85.487 72.8957 90.2722 66.5864 88.6757" stroke="#C17B46" stroke-width="2" stroke-miterlimit="10" stroke-linecap="round"/>
<path d="M85.1846 76.7664L90.5089 72.6035" stroke="#4C241E" stroke-width="2" stroke-miterlimit="10" stroke-linecap="round"/>
<path d="M85.1846 80.0452H91.6111" stroke="#C17B46" stroke-width="2" stroke-miterlimit="10" stroke-linecap="round"/>
<path d="M85.8354 84.2424L92.0623 86.6886" stroke="#4C241E" stroke-width="2" stroke-miterlimit="10" stroke-linecap="round"/>
<path d="M47.1577 66.3979C46.8583 65.9988 46.5068 65.6125 46.0945 65.2391C40.1104 60.9746 35.7584 61.2093 35.7584 61.2093C35.7584 61.2093 35.0294 61.2265 34.2656 61.8445C33.0376 62.8401 31.7272 65.3936 33.2676 71.9555C33.2676 71.9555 33.3327 71.9555 33.4499 71.9469C34.6518 71.9083 41.6815 71.8224 45.6085 75.0883C45.665 75.1355 45.7214 75.1699 45.7821 75.1999C47.366 75.9466 50.6104 69.4746 47.1577 66.3936V66.3979Z" fill="#EFEFEF" stroke="#4C241E" stroke-width="2" stroke-miterlimit="10"/>
<path d="M33.806 9.87595C36.3922 10.4253 41.8163 12.026 45.227 16.1374C46.4116 9.46825 44.5631 5.58008 44.5631 5.58008L43.0878 4.17673C39.2518 1.14258 33.0683 -0.00756895 31.0289 2.00948C29.1934 4.89342 31.1591 8.28807 32.4261 9.99183C32.8557 9.82445 33.3374 9.77725 33.806 9.88024V9.87595Z" fill="#EFEFEF" stroke="#4C241E" stroke-width="2" stroke-miterlimit="10"/>
<path d="M45.5526 24.4716C46.5684 25.207 46.5684 25.207 46.6157 25.6303C47.0496 25.4157 47.3837 24.9952 47.4315 24.4501C47.7396 20.8409 46.6678 18.0557 46.351 17.3261C46.2989 17.2102 46.2382 17.0986 46.1731 16.9913C45.8823 16.5364 45.5569 16.1159 45.2228 15.7125C41.8121 11.5968 36.388 9.99606 33.8018 9.45103C33.3331 9.35232 32.8515 9.39524 32.4219 9.56261C31.9749 9.73857 31.5844 10.0476 31.3284 10.4767C29.0329 14.2919 31.784 19.1543 33.1162 21.1241C33.2463 21.0984 33.3809 21.0812 33.5154 21.0812C33.5674 21.0812 33.6412 21.0812 33.7237 21.0812C34.483 20.4632 35.2164 20.4461 35.2164 20.4461C35.2164 20.4461 40.0684 20.207 45.5526 24.4759V24.4716Z" fill="#EFEFEF" stroke="#4C241E" stroke-width="2" stroke-miterlimit="10"/>
<path d="M46.6157 25.6303C46.3163 25.2312 45.9648 24.8449 45.5526 24.4716C39.5684 20.207 35.2164 20.4418 35.2164 20.4418C35.2164 20.4418 34.4874 20.4589 33.7237 21.0769C32.4956 22.0726 31.1852 24.6261 32.7256 31.1879C32.7256 31.1879 32.7907 31.1879 32.9079 31.1793C34.1099 31.1407 41.1395 31.0549 45.0666 34.3208C45.123 34.368 45.1794 34.4023 45.2401 34.4323C46.824 35.1791 50.0684 28.707 46.6157 25.626V25.6303Z" fill="#EFEFEF" stroke="#4C241E" stroke-width="2" stroke-miterlimit="10"/>
</svg>
