<svg width="97" height="66" viewBox="0 0 97 66" fill="none" xmlns="http://www.w3.org/2000/svg">
<path d="M1.3796 50.4C0.95435 50.1125 0.871903 49.5245 1.20603 49.134C3.23248 46.7822 10.2882 39.4522 21.4879 36.8815C34.8615 33.813 50.4873 32.5771 82.3247 36.8429C82.5112 36.8686 82.7022 36.8343 82.8671 36.7442L93.0297 31.1351C93.5981 30.8218 94.3011 31.2123 94.3228 31.8561L95.1299 55.0135C95.1516 55.6443 94.505 56.0821 93.9192 55.8332L85.3231 52.1982C85.1105 52.1081 84.8718 52.1038 84.6592 52.1896C81.5349 53.4342 56.9398 62.9829 40.1641 62.3006C22.7289 61.5925 24.0003 62.262 1.80051 57.0091C1.05415 56.8331 0.884921 55.8546 1.53581 55.4469L4.1958 53.7646C4.72085 53.4342 4.73387 52.6788 4.22183 52.3312L1.38394 50.4043L1.3796 50.4Z" fill="#E9C883" stroke="#4C241E" stroke-width="2" stroke-miterlimit="10"/>
<path d="M11.9892 47.4217C12.9885 47.4217 13.7987 46.6205 13.7987 45.6321C13.7987 44.6438 12.9885 43.8425 11.9892 43.8425C10.9898 43.8425 10.1797 44.6438 10.1797 45.6321C10.1797 46.6205 10.9898 47.4217 11.9892 47.4217Z" fill="black"/>
<path d="M34.8446 15.0974C37.4308 15.6467 42.8549 17.2475 46.2656 21.3588C47.4502 14.6897 45.6017 10.8015 45.6017 10.8015L44.1263 9.39816C40.2904 6.36401 34.1069 5.21387 32.0675 7.23091C30.2319 10.1149 32.1976 13.5095 33.4647 15.2133C33.8943 15.0459 34.376 14.9987 34.8446 15.1017V15.0974Z" fill="#EFEFEF" stroke="#4C241E" stroke-width="2" stroke-miterlimit="10"/>
<path d="M45.5236 -1.39077C44.2608 -1.90147 41.8222 -3.07736 40.6375 -3.80264C36.7061 -6.20164 31.1909 -6.81963 30.6919 -1.39077C30.31 2.78065 31.295 5.63027 32.0631 7.23103C34.0982 5.20969 40.2817 6.35983 44.122 9.39828C44.6687 9.83173 45.1677 10.2995 45.5973 10.8016C47.1899 6.69887 46.6388 -0.940154 45.5192 -1.39077H45.5236Z" fill="#EFEFEF" stroke="#4C241E" stroke-width="2" stroke-miterlimit="10"/>
<path d="M46.1048 39.5467C42.1821 36.2765 35.1525 36.3624 33.9461 36.4053C30.21 38.8086 27.4068 43.8769 27.0206 49.7435C26.4782 57.9319 30.8436 64.5667 36.771 64.5667C42.6985 64.5667 47.9403 57.9276 48.4828 49.7435C48.7388 45.8468 47.8839 42.3019 46.2784 39.6583C46.2176 39.6282 46.1612 39.5939 46.1048 39.5467Z" fill="#EFEFEF" stroke="#4C241E" stroke-width="2" stroke-miterlimit="10"/>
<path d="M46.5909 29.693C47.0075 30.0621 47.3546 30.4526 47.654 30.8517C48.0879 30.6372 48.4221 30.2166 48.4698 29.6716C48.7779 26.0623 47.7061 23.2771 47.3893 22.5475C47.3372 22.4317 47.2765 22.3201 47.2114 22.2128C46.9207 21.7579 46.5952 21.3373 46.2611 20.9339C42.8504 16.8183 37.4263 15.2175 34.8401 14.6725C34.3715 14.5738 33.8898 14.6167 33.4602 14.784C33.0133 14.96 32.6227 15.269 32.3667 15.6982C30.0712 19.5134 32.8223 24.3757 34.1545 26.3456C34.2847 26.3198 34.4192 26.3027 34.5537 26.3027C34.6058 26.3027 34.6795 26.3027 34.762 26.3027C35.5214 25.6847 36.2547 25.6675 36.2547 25.6675C36.2547 25.6675 40.9498 24.659 46.5909 29.6973V29.693Z" fill="#EFEFEF" stroke="#4C241E" stroke-width="2" stroke-miterlimit="10"/>
<path d="M47.6538 30.8518C47.3544 30.4527 47.0029 30.0664 46.5906 29.693C40.9496 24.6547 36.2545 25.6632 36.2545 25.6632C36.2545 25.6632 35.5255 25.6804 34.7617 26.2984C33.5337 27.294 32.2233 29.8475 33.7637 36.4094C33.7637 36.4094 33.8288 36.4094 33.946 36.4008C35.1479 36.3622 42.1776 36.2763 46.1046 39.5422C46.161 39.5894 46.2175 39.6238 46.2782 39.6538C47.862 40.4005 50.8084 35.0446 47.6538 30.8475V30.8518Z" fill="#EFEFEF" stroke="#4C241E" stroke-width="2" stroke-miterlimit="10"/>
<path d="M22 44.7737C22 44.7737 18.5546 50.1467 22 56.1936" stroke="#C17B46" stroke-width="2" stroke-miterlimit="10" stroke-linecap="round"/>
<path d="M55.5254 41.6281C55.5254 41.6281 61.8651 39.6969 58.385 45.2373C58.385 45.2373 64.1562 47.1685 58.0465 50.0224C58.0465 50.0224 61.8391 54.8076 55.5297 53.2111" stroke="#C17B46" stroke-width="2" stroke-miterlimit="10" stroke-linecap="round"/>
<path d="M66.582 40.8857C66.582 40.8857 72.9217 38.9545 69.4416 44.4949C69.4416 44.4949 75.2129 46.4261 69.1032 49.28C69.1032 49.28 72.8957 54.0651 66.5864 52.4687" stroke="#C17B46" stroke-width="2" stroke-miterlimit="10" stroke-linecap="round"/>
<path d="M85.1846 40.5593L90.5089 36.3965" stroke="#4C241E" stroke-width="2" stroke-miterlimit="10" stroke-linecap="round"/>
<path d="M85.1846 43.8381H91.6111" stroke="#C17B46" stroke-width="2" stroke-miterlimit="10" stroke-linecap="round"/>
<path d="M85.8354 48.0354L92.0623 50.4816" stroke="#4C241E" stroke-width="2" stroke-miterlimit="10" stroke-linecap="round"/>
</svg>
