<svg width="105" height="37" viewBox="0 0 105 37" fill="none" xmlns="http://www.w3.org/2000/svg">
<path d="M0.501587 21.6417C0.501587 21.0094 0.936461 20.6545 1.45228 20.6545L8.25949 20.8129C8.61501 20.8129 8.8134 20.6941 8.8134 20.2599V19.5484C8.8134 19.0747 8.97211 18.8766 9.48634 18.8766L13.7605 18.9558C14.1557 18.9558 14.3144 19.1143 14.3144 19.5881V20.4184C14.3144 20.7733 14.4334 20.8922 14.8286 20.8922L22.112 21.0506C22.5865 21.0506 22.8246 21.3279 22.8246 21.9206L22.8643 24.0154C22.8643 24.7268 22.5088 25.0026 21.9533 25.0026L1.37134 24.8441C0.857105 24.8441 0.5 24.3703 0.5 23.8569V21.6432L0.501587 21.6417ZM2.95529 5.99239C2.95529 5.55821 3.07433 5.32053 3.5092 5.32053L18.7869 5.08284C19.3408 5.08284 19.6979 5.32053 19.6979 5.95277L19.6583 8.36291C19.6583 8.87632 19.3805 9.114 18.8266 9.114H3.46952C3.11401 9.114 2.91561 8.91593 2.91561 8.52137L2.95529 5.99239ZM3.98534 35.4322V26.8581C3.98534 26.4619 4.26309 26.1466 4.69796 26.1466H19.1044C19.5392 26.1466 19.817 26.4619 19.817 26.8581V35.4322C19.817 36.0249 19.3821 36.3418 18.9456 36.3418H4.85509C4.42022 36.3418 3.98375 36.0265 3.98375 35.4322H3.98534ZM5.44868 1.48744C5.44868 0.974033 5.68675 0.77596 6.28033 0.77596L16.5316 0.500244C16.9268 0.500244 17.1649 0.737931 17.1649 1.09288L17.1252 3.93878C17.1252 4.29372 16.9268 4.45218 16.4523 4.45218L6.08194 4.61064C5.60739 4.61064 5.409 4.33334 5.409 3.93878L5.44868 1.48902V1.48744ZM11.6242 9.54976C14.9492 9.54976 17.3236 11.4069 17.3236 14.0547C17.3236 16.7025 15.0286 18.6785 11.8226 18.6785C8.4182 18.6785 6.00417 16.861 6.00417 14.332C6.00417 11.5257 8.33885 9.54976 11.6242 9.54976ZM11.5782 15.3541C12.9336 15.3541 13.8367 14.847 13.8367 14.2258C13.8367 13.4367 12.9336 12.8726 11.5782 12.8726C10.3926 12.8726 9.48793 13.3797 9.48793 14.1704C9.48793 14.847 10.391 15.3541 11.5782 15.3541ZM8.59278 32.6719H15.2683C16.1618 32.6719 16.4602 32.3154 16.4602 31.6594V30.8259C16.4602 30.1128 16.1031 29.8149 15.5063 29.8149H8.35313C7.69764 29.8149 7.34054 30.1128 7.34054 30.8259V31.6594C7.34054 32.3138 7.63892 32.6719 8.59278 32.6719Z" fill="#FFDFDF" stroke="black" stroke-miterlimit="10"/>
<path d="M27.6749 27.2859C27.6749 26.7725 27.913 26.416 28.3876 26.416L49.1679 26.1783C49.6821 26.1783 50.0392 26.4936 50.0392 27.1259L49.9995 30.4059C49.9995 30.959 49.7234 31.3535 49.2076 31.3535H28.5463C27.9924 31.3535 27.6353 31.0382 27.6353 30.4059L27.6749 27.2843V27.2859ZM30.6032 16.3397L38.4008 3.65512C38.7166 3.14172 39.3118 2.98326 39.9054 3.26056L43.0717 4.72313C43.6256 4.9212 43.705 5.27614 43.3891 5.86878L41.4497 9.42457C41.1338 10.0172 41.41 10.2153 41.9242 10.5306L46.6745 13.573C47.3474 14.0072 47.6633 14.2448 47.3871 14.8375L45.2492 19.1047C44.8144 19.9747 44.0224 20.1712 43.3891 19.6181L38.4817 15.5474C38.2436 15.3493 38.0072 15.3493 37.8484 15.6662L35.6709 19.222C35.1963 20.0127 34.444 20.2092 33.7314 19.775L30.8413 18.0367C30.208 17.6422 30.208 16.9703 30.6032 16.3381V16.3397Z" fill="#9FE283" stroke="black" stroke-miterlimit="10"/>
<path d="M55.6592 26.2573V5.15709C55.6592 4.76253 55.975 4.44562 56.4115 4.44562L67.7706 4.60407C68.4038 4.60407 68.6816 4.88137 68.6419 5.47401L68.4832 9.26748C68.4832 9.66204 68.1277 9.8205 67.8103 9.8205L61.3982 9.58281C61.1602 9.58281 61.0031 9.74127 61.0031 10.017V12.2687C61.0031 12.4667 61.1221 12.546 61.3189 12.546L67.5325 12.5856C68.1261 12.5856 68.4435 12.9009 68.4038 13.4951L68.2055 17.249C68.1658 17.6436 67.8499 17.8416 67.4532 17.8416L61.3189 17.6436C61.1205 17.6436 60.9634 17.802 60.9634 18.0381L61.0427 21.6335C61.0427 21.9108 61.2014 22.0677 61.5173 22.0677L69.3149 21.8696C69.7101 21.8696 70.0672 22.1073 70.0672 22.5811V26.2557C70.0672 26.7691 69.8291 27.0464 69.1562 27.0464L56.5305 27.2049C56.0956 27.2049 55.6592 26.8896 55.6592 26.2557V26.2573ZM72.2828 3.57568L75.2111 3.6153C75.5666 3.6153 75.884 3.85298 75.9237 4.36639L76.3586 12.4667C76.3982 12.8613 76.6363 12.9801 76.9521 12.9801H78.2187C78.6139 12.9801 78.7726 13.1782 78.8123 13.5728L79.3662 17.9589C79.4455 18.4327 79.1678 18.6704 78.6932 18.71L77.1886 18.7892C76.7538 18.8288 76.6744 19.1045 76.7141 19.5007L77.4664 33.0948C77.5061 33.6478 77.1109 34.0423 76.5157 34.0423H72.6764C72.1225 34.0423 71.6479 33.727 71.6479 33.1724L71.094 4.52326C71.094 3.93063 71.5686 3.57568 72.2812 3.57568H72.2828Z" fill="#FFE6D0" stroke="black" stroke-miterlimit="10"/>
<path d="M81.9801 27.2859C81.9801 26.7725 82.2182 26.416 82.6927 26.416L103.473 26.1783C103.987 26.1783 104.344 26.4936 104.344 27.1259L104.305 30.4059C104.305 30.959 104.027 31.3535 103.513 31.3535H82.8514C82.2975 31.3535 81.9404 31.0382 81.9404 30.4059L81.9801 27.2843V27.2859ZM84.4735 20.1727V4.84038C84.4735 4.48544 84.7512 4.12891 85.1861 4.12891L100.623 4.20814C101.256 4.20814 101.534 4.52347 101.494 5.07807L101.375 8.47698C101.375 8.83193 101.019 8.99039 100.702 8.99039L90.2126 8.83193C89.9348 8.83193 89.7777 8.99039 89.7777 9.2661V9.89835C89.7777 10.0964 89.8967 10.2137 90.1332 10.2137L99.9893 10.2533C100.583 10.2533 100.861 10.5306 100.861 11.1232L100.821 14.1656C100.821 14.5206 100.465 14.7186 100.069 14.7186L90.411 14.7582C90.0158 14.7582 89.857 14.9167 89.857 15.232V15.9039C89.857 16.1812 90.0158 16.3381 90.3316 16.3381L101.216 16.14C101.611 16.14 101.929 16.3381 101.929 16.8515V20.1712C101.929 20.645 101.73 20.9223 101.057 20.9223L85.3052 21.0807C84.8703 21.0807 84.4735 20.7654 84.4735 20.1712V20.1727Z" fill="#87BCDC" stroke="black" stroke-miterlimit="10"/>
</svg>
