<svg width="137" height="48" viewBox="0 0 137 48" fill="none" xmlns="http://www.w3.org/2000/svg">
<path d="M0.502075 28.1015C0.502075 27.2761 1.07076 26.8127 1.74529 26.8127L10.647 27.0196C11.1119 27.0196 11.3714 26.8644 11.3714 26.2976V25.3687C11.3714 24.7502 11.5789 24.4916 12.2514 24.4916L17.8406 24.595C18.3574 24.595 18.565 24.8019 18.565 25.4204V26.5045C18.565 26.9679 18.7206 27.123 19.2374 27.123L28.7618 27.3299C29.3824 27.3299 29.6937 27.6919 29.6937 28.4656L29.7456 31.2005C29.7456 32.1294 29.2807 32.4894 28.5543 32.4894L1.63944 32.2825C0.966983 32.2825 0.5 31.6639 0.5 30.9937V28.1036L0.502075 28.1015ZM3.71077 7.67054C3.71077 7.1037 3.86643 6.79339 4.43511 6.79339L24.4137 6.48308C25.138 6.48308 25.605 6.79339 25.605 7.61882L25.5531 10.7654C25.5531 11.4357 25.1899 11.746 24.4656 11.746H4.38322C3.91832 11.746 3.65888 11.4874 3.65888 10.9723L3.71077 7.67054ZM5.05775 46.1059V34.9119C5.05775 34.3947 5.42096 33.983 5.98965 33.983H24.8288C25.3975 33.983 25.7607 34.3947 25.7607 34.9119V46.1059C25.7607 46.8796 25.192 47.2934 24.6212 47.2934H6.19512C5.62644 47.2934 5.05568 46.8817 5.05568 46.1059H5.05775ZM6.97135 1.78908C6.97135 1.1188 7.28267 0.860207 8.0589 0.860207L21.4644 0.500244C21.9812 0.500244 22.2925 0.810557 22.2925 1.27396L22.2407 4.98944C22.2407 5.45284 21.9812 5.65971 21.3607 5.65971L7.79946 5.86659C7.17889 5.86659 6.91946 5.50456 6.91946 4.98944L6.97135 1.79115V1.78908ZM15.047 12.3149C19.3952 12.3149 22.5001 14.7395 22.5001 18.1964C22.5001 21.6532 19.4989 24.233 15.3065 24.233C10.8546 24.233 7.69776 21.8601 7.69776 18.5584C7.69776 14.8946 10.7508 12.3149 15.047 12.3149ZM14.9869 19.8927C16.7593 19.8927 17.9403 19.2307 17.9403 18.4198C17.9403 17.3895 16.7593 16.6531 14.9869 16.6531C13.4365 16.6531 12.2534 17.3151 12.2534 18.3474C12.2534 19.2307 13.4344 19.8927 14.9869 19.8927ZM11.0829 42.5021H19.8123C20.9808 42.5021 21.371 42.0367 21.371 41.1802V40.092C21.371 39.1611 20.904 38.7722 20.1237 38.7722H10.7695C9.9123 38.7722 9.44532 39.1611 9.44532 40.092V41.1802C9.44532 42.0346 9.83551 42.5021 11.0829 42.5021Z" fill="#E9C883" stroke="black" stroke-miterlimit="10"/>
<path d="M36.0368 35.4703C36.0368 34.8 36.3481 34.3345 36.9686 34.3345L64.1429 34.0242C64.8154 34.0242 65.2823 34.4359 65.2823 35.2613L65.2305 39.5436C65.2305 40.2656 64.8693 40.7808 64.1948 40.7808H37.1762C36.4518 40.7808 35.9849 40.3691 35.9849 39.5436L36.0368 35.4682V35.4703ZM39.866 21.1793L50.0628 4.61896C50.4759 3.94868 51.2542 3.7418 52.0304 4.10384L56.171 6.0133C56.8953 6.27189 56.9991 6.73529 56.5861 7.509L54.0498 12.1513C53.6368 12.925 53.998 13.1836 54.6704 13.5953L60.8823 17.5673C61.7623 18.1341 62.1754 18.4444 61.8142 19.2181L59.0185 24.7893C58.4499 25.925 57.4142 26.1816 56.5861 25.4596L50.1687 20.1449C49.8574 19.8864 49.5481 19.8864 49.3406 20.3001L46.493 24.9424C45.8724 25.9747 44.8887 26.2312 43.9568 25.6644L40.1773 23.395C39.3492 22.8798 39.3492 22.0027 39.866 21.1773V21.1793Z" fill="#D2AAD0" stroke="black" stroke-miterlimit="10"/>
<path d="M72.6313 34.1278V6.58024C72.6313 6.06512 73.0444 5.65137 73.6151 5.65137L88.4693 5.85825C89.2975 5.85825 89.6607 6.22028 89.6088 6.99399L89.4012 11.9466C89.4012 12.4617 88.9363 12.6686 88.5212 12.6686L80.1363 12.3583C79.825 12.3583 79.6195 12.5651 79.6195 12.9251V15.8648C79.6195 16.1234 79.7752 16.2268 80.0325 16.2268L88.158 16.2786C88.9342 16.2786 89.3493 16.6902 89.2975 17.466L89.038 22.3669C88.9861 22.882 88.5731 23.1406 88.0542 23.1406L80.0325 22.882C79.7731 22.882 79.5676 23.0889 79.5676 23.3971L79.6714 28.0911C79.6714 28.4532 79.8789 28.658 80.2919 28.658L90.4888 28.3994C91.0056 28.3994 91.4726 28.7097 91.4726 29.3283V34.1257C91.4726 34.796 91.1612 35.158 90.2812 35.158L73.7708 35.3649C73.2021 35.3649 72.6313 34.9532 72.6313 34.1257V34.1278ZM94.3699 4.51562L98.1992 4.56734C98.6641 4.56734 99.0792 4.87766 99.1311 5.54793L99.6998 16.1234C99.7517 16.6385 100.063 16.7937 100.476 16.7937H102.132C102.649 16.7937 102.857 17.0523 102.908 17.5674L103.633 23.2937C103.737 23.9123 103.373 24.2226 102.753 24.2743L100.785 24.3777C100.217 24.4294 100.113 24.7894 100.165 25.3066L101.148 43.0544C101.2 43.7764 100.684 44.2915 99.9052 44.2915H94.8846C94.1603 44.2915 93.5397 43.8799 93.5397 43.1558L92.8154 5.75274C92.8154 4.97903 93.436 4.51562 94.3679 4.51562H94.3699Z" fill="#FFE197" stroke="black" stroke-miterlimit="10"/>
<path d="M107.051 35.4703C107.051 34.8 107.362 34.3346 107.983 34.3346L135.157 34.0242C135.83 34.0242 136.297 34.4359 136.297 35.2614L136.245 39.5437C136.245 40.2657 135.881 40.7808 135.209 40.7808H108.19C107.466 40.7808 106.999 40.3691 106.999 39.5437L107.051 35.4682V35.4703ZM110.311 26.1837V6.16642C110.311 5.70302 110.675 5.23755 111.243 5.23755L131.43 5.34099C132.258 5.34099 132.621 5.75267 132.569 6.47673L132.413 10.9142C132.413 11.3776 131.948 11.5845 131.533 11.5845L117.816 11.3776C117.453 11.3776 117.248 11.5845 117.248 11.9444V12.7699C117.248 13.0285 117.403 13.1816 117.713 13.1816L130.601 13.2333C131.378 13.2333 131.741 13.5953 131.741 14.369L131.689 18.341C131.689 18.8044 131.224 19.063 130.705 19.063L118.076 19.1147C117.559 19.1147 117.352 19.3216 117.352 19.7333V20.6105C117.352 20.9725 117.559 21.1773 117.972 21.1773L132.206 20.9187C132.723 20.9187 133.138 21.1773 133.138 21.8476V26.1816C133.138 26.8002 132.878 27.1622 131.998 27.1622L111.399 27.3691C110.83 27.3691 110.311 26.9574 110.311 26.1816V26.1837Z" fill="#BEE8F7" stroke="black" stroke-miterlimit="10"/>
</svg>
