<svg width="480" height="935" viewBox="0 0 480 935" fill="none" xmlns="http://www.w3.org/2000/svg">
<path d="M671 425H-9V934H671V425Z" fill="#D1997D" stroke="#4C241E" stroke-linecap="round" stroke-linejoin="round"/>
<path d="M367.951 429.832L368.164 461.365L363.803 461.403L360.596 429.823L367.951 429.832Z" fill="#BF7249" stroke="#4C241E" stroke-linecap="round" stroke-linejoin="round"/>
<path d="M562.513 395.41C560.136 389.527 556.948 383.773 553.003 378.231C549.806 373.742 540.699 374.547 534.111 374.371C525.558 374.149 516.99 374.177 508.432 374.059C493.225 373.846 417.969 373.846 402.761 374.059C394.203 374.177 385.635 374.149 377.082 374.371C370.494 374.547 361.387 373.742 358.19 378.231C354.245 383.773 351.062 389.527 348.68 395.41C347.936 397.247 345.161 401.363 346.7 403.139C348.311 404.991 353.733 405.048 356.547 405.067C361.169 405.1 365.749 405.085 370.357 405C375.05 404.915 379.531 405.052 384.224 404.958C393.909 404.759 403.566 405.147 413.304 404.934C425.352 404.664 485.846 404.664 497.894 404.934C507.636 405.152 517.288 404.763 526.974 404.958C531.662 405.052 536.147 404.915 540.841 405C545.454 405.085 550.029 405.1 554.651 405.067C557.464 405.048 562.887 404.996 564.498 403.139C566.037 401.363 563.261 397.247 562.518 395.41H562.513Z" fill="#EA6161" stroke="#4C241E" stroke-linecap="round" stroke-linejoin="round"/>
<path d="M369.618 346.798C369.628 336.402 369.571 326.011 369.509 315.615C369.486 311.219 369.04 308.714 373.639 307.539C376.916 306.701 380.53 307.558 383.855 307.516C393.815 307.397 433.659 307.397 443.619 307.516C446.944 307.554 450.557 306.701 453.835 307.539C458.438 308.714 457.993 311.219 457.965 315.615C457.903 326.011 457.841 336.402 457.856 346.798C457.86 351.875 457.737 356.952 457.628 362.029C457.543 365.794 459.357 374.045 454.782 373.988C446.361 373.879 437.666 373.978 429.184 374.329C425.669 374.476 408.837 374.679 408.837 374.679C405.323 374.58 401.804 374.471 398.29 374.329C389.808 373.978 381.117 373.879 372.692 373.988C368.117 374.049 369.931 365.799 369.845 362.029C369.732 356.952 369.609 351.875 369.618 346.798Z" fill="#EA6161" stroke="#4C241E" stroke-linecap="round" stroke-linejoin="round"/>
<path d="M351.432 405.701C354.799 406.061 358.645 405.37 360.89 405.038C361.818 404.901 362.803 404.692 363.495 403.925C364.096 403.262 364.385 402.286 364.645 401.349C367.222 392.156 370.85 382.494 370.333 372.7C369.727 361.167 369.827 349.507 369.576 337.95C369.495 334.256 369.22 329.856 366 328.492C358.669 325.39 351.792 322.316 343.925 324.656C342.817 324.987 341.647 325.352 340.828 326.328C337.721 330.013 338.654 337.008 338.895 341.63C339.251 348.431 339.71 355.228 340.283 362.005C340.326 362.526 340.373 363.047 340.416 363.568C340.975 369.972 341.775 376.332 342.665 382.674C343.48 388.452 343.561 395.888 345.048 401.306C345.853 404.247 348.458 405.389 351.432 405.706V405.701Z" fill="#EA6161" stroke="#4C241E" stroke-linecap="round" stroke-linejoin="round"/>
<path d="M344.835 360.409C345.678 372.378 347.321 384.341 348.05 396.253C348.311 400.52 349.585 402.949 353.052 403.044C355.225 403.101 358.915 402.149 359.104 398.422C360.17 377.597 358.531 356.166 357.437 335.398C357.21 331.111 353.762 328.895 350.954 328.691C348.699 328.525 344.058 329.563 343.205 332.745C342.557 335.17 343.191 338.329 343.347 340.792C343.774 347.342 344.37 353.869 344.835 360.409Z" fill="#B74C4C" stroke="#4C241E" stroke-linecap="round" stroke-linejoin="round"/>
<path d="M546.359 346.798C546.349 336.402 546.406 326.011 546.468 315.615C546.491 311.219 546.937 308.714 542.338 307.539C539.06 306.701 535.447 307.558 532.122 307.516C522.162 307.397 482.318 307.397 472.358 307.516C469.033 307.554 465.419 306.701 462.142 307.539C457.539 308.714 457.984 311.219 458.012 315.615C458.074 326.011 458.135 336.402 458.121 346.798C458.116 351.875 458.24 356.952 458.349 362.029C458.434 365.794 456.62 374.045 461.195 373.988C469.616 373.879 478.311 373.978 486.793 374.329C490.307 374.476 507.139 374.679 507.139 374.679C510.654 374.58 514.172 374.471 517.687 374.329C526.169 373.978 534.86 373.879 543.285 373.988C547.86 374.049 546.046 365.799 546.131 362.029C546.245 356.952 546.368 351.875 546.359 346.798Z" fill="#EA6161" stroke="#4C241E" stroke-linecap="round" stroke-linejoin="round"/>
<path d="M568.405 406.421C567.614 405.446 566.202 405.294 564.943 405.218C553.642 404.555 542.314 404.351 530.999 404.602C521.082 404.825 511.411 404.091 501.442 404.333C486.613 404.692 429.364 404.692 414.535 404.333C404.566 404.091 394.894 404.82 384.977 404.602C373.658 404.351 362.334 404.555 351.034 405.218C349.774 405.294 348.358 405.446 347.572 406.421C346.572 407.653 346.203 410.305 346.317 411.849C346.833 418.986 347.643 426.521 349.376 433.484C350.631 438.523 354.965 437.77 359.331 437.898C364.195 438.04 369.064 438.172 373.933 438.286C383.869 438.523 393.81 438.712 403.751 438.864C419.423 439.105 496.563 439.105 512.235 438.864C522.176 438.712 532.112 438.523 542.053 438.286C546.922 438.168 551.786 438.04 556.655 437.898C561.021 437.77 565.355 438.523 566.61 433.484C568.343 426.521 569.153 418.986 569.669 411.849C569.783 410.305 569.414 407.653 568.414 406.421H568.405Z" fill="#EA6161" stroke="#4C241E" stroke-linecap="round" stroke-linejoin="round"/>
<path d="M424.476 379.392C429.108 379.018 433.763 378.757 438.386 378.359C440.692 378.16 443.193 378.066 445.405 377.611C447.332 377.213 448.743 376.313 450.993 376.574C452.864 376.792 456.638 377.298 456.638 375.404C456.638 374.315 454.152 373.287 453.394 372.444C452.101 371.009 451.85 369.237 451.647 367.622C451.107 363.412 450.302 359.206 449.231 355.024C448.346 351.562 446.57 348.214 445.338 344.799C444.5 342.483 442.852 340.134 442.62 337.747C442.373 335.17 444.292 330.837 438.613 333.934C433.171 336.904 424.594 336.094 417.869 336.572C410.159 337.122 402.491 337.851 394.885 338.765C392.105 339.101 389.462 339.802 386.583 339.352C384.451 339.016 382.458 337.377 380.738 338.883C378.176 341.128 383.684 344.955 384.404 347.191C385.294 349.938 385.233 352.727 385.759 355.493C386.966 361.792 388.624 368.072 390.731 374.296C391.347 376.11 392.853 377.843 393.223 379.69C393.649 381.817 391.248 385.236 396.604 384.644C398.679 384.412 399.81 382.991 401.686 382.475C403.381 382.006 405.124 382.172 406.938 382.125C412.967 381.968 418.508 379.875 424.466 379.397L424.476 379.392Z" fill="#FFC550" stroke="#4C241E" stroke-linecap="round" stroke-linejoin="round"/>
<path d="M471.808 383.782C476.44 383.408 481.095 383.148 485.718 382.75C488.024 382.551 490.525 382.456 492.737 382.001C494.664 381.604 496.075 380.704 498.325 380.964C500.196 381.182 503.97 381.689 503.97 379.794C503.97 378.705 501.484 377.677 500.726 376.834C499.433 375.399 499.182 373.628 498.979 372.013C498.439 367.802 497.634 363.597 496.563 359.415C495.678 355.953 493.902 352.604 492.67 349.189C491.832 346.873 490.184 344.524 489.952 342.137C489.705 339.561 491.624 335.227 485.945 338.325C480.503 341.294 471.926 340.484 465.201 340.963C457.491 341.512 449.823 342.241 442.217 343.155C439.437 343.492 436.794 344.193 433.915 343.743C431.783 343.406 429.79 341.768 428.07 343.274C425.508 345.519 431.016 349.346 431.736 351.581C432.626 354.328 432.565 357.118 433.091 359.884C434.298 366.183 435.956 372.463 438.063 378.686C438.679 380.5 440.185 382.234 440.555 384.081C440.981 386.207 438.58 389.627 443.936 389.035C446.011 388.803 447.142 387.382 449.018 386.866C450.713 386.397 452.456 386.562 454.27 386.515C460.299 386.359 465.84 384.265 471.798 383.787L471.808 383.782Z" fill="#D0E6F6" stroke="#4C241E" stroke-linecap="round" stroke-linejoin="round"/>
<path d="M460.41 362.823C455.665 356.325 448.991 351.883 440.575 349.619C428.844 346.46 419.315 345.707 411.439 347.312L411.231 347.398L411.032 347.26C410.795 347 410.497 346.806 410.179 346.597C409.507 346.157 408.749 345.664 408.702 344.499C408.678 343.907 408.763 343.291 408.844 342.695C409.005 341.515 409.156 340.398 408.574 339.413C408.219 338.821 407.778 338.527 407.215 338.517C405.064 338.494 401.901 342.363 400.688 344.248L400.532 344.49L400.276 344.362C398.623 343.542 394.854 342.567 392.945 342.974L392.533 343.059L392.58 342.425C392.699 340.933 392.94 337.826 391.974 337.452C391.661 337.333 390.866 337.452 389.057 339.592C388.204 340.606 387.674 341.71 387.12 342.879C386.722 343.713 386.31 344.58 385.775 345.39C385.083 346.436 384.112 347.189 383.17 347.914C382.166 348.691 381.218 349.42 380.565 350.486C379.575 352.101 379.116 354.057 379.262 356.003C379.333 356.946 379.556 357.869 379.916 358.75C380.03 359.034 380.219 359.323 380.413 359.631C380.589 359.911 380.773 360.2 380.915 360.498L381.029 360.739L380.75 360.924C378.173 363.406 375.009 365.068 371.95 366.674C371.045 367.147 370.141 367.621 369.246 368.123C368.999 368.26 368.715 368.412 368.407 368.573C366.466 369.601 363.539 371.15 363.165 373.058C363.056 373.622 363.146 374.043 363.449 374.356C363.993 374.92 365.263 375.128 366.849 374.91L367.631 374.801L367.138 375.412C366.442 376.279 366.305 377.008 366.721 377.648C367.981 379.58 373.214 378.358 375.455 377.832C375.706 377.775 375.928 377.723 376.113 377.681C377.164 377.449 378.239 377.098 379.277 376.757C380.963 376.203 382.701 375.625 384.491 375.526C387.205 375.36 389.753 376.307 392.22 377.226L393.404 377.667L392.452 377.918C391.548 378.159 390.615 378.363 389.715 378.562C387.498 379.049 385.211 379.556 383.146 380.603C381.725 381.328 380.21 382.554 380.205 383.828C380.205 385.088 381.346 385.557 382.729 385.997C384.472 386.556 386.073 386.244 387.773 385.917C388.583 385.761 389.421 385.6 390.293 385.533C390.416 385.524 390.544 385.514 390.667 385.51C392.159 385.443 393.49 385.898 394.778 386.338C395.266 386.504 395.725 386.66 396.194 386.793L396.933 387.001L396.26 387.371C394.801 388.171 393.722 389.412 393.224 390.866C392.557 392.813 392.656 394.489 393.523 395.844C395.195 398.463 399.253 399.306 401.522 399.576C405.188 400.012 408.839 399.462 412.079 397.989C412.604 397.753 413.111 397.483 413.599 397.222C415.351 396.294 417.004 395.422 419.277 395.901C419.898 396.033 420.49 396.204 421.063 396.365C422.304 396.72 423.474 397.056 424.8 396.985C427.239 396.862 429.597 395.811 431.421 394.035C431.691 393.769 431.942 393.471 432.202 393.154C432.695 392.566 433.201 391.956 433.883 391.553C434.982 390.904 436.161 390.914 437.303 390.918C437.525 390.918 437.743 390.918 437.966 390.918C438.709 390.909 439.486 390.933 440.244 390.956C442.034 391.008 443.886 391.07 445.553 390.691C447.144 390.331 448.338 389.379 449.602 388.37C450.308 387.807 451.037 387.224 451.847 386.75C453.046 386.045 454.338 385.514 455.584 385.003C457.857 384.07 460.003 383.189 461.646 381.337C466.614 375.744 464.261 368.104 460.401 362.823H460.41Z" fill="#FFE6D0"/>
<path d="M399.95 364.784C401.527 364.884 403.454 365.215 404.993 364.746C406.267 364.353 407.489 363.785 408.607 363.06C409.043 362.776 409.474 362.464 409.767 362.037C410.449 361.052 410.274 359.745 410.07 358.57C411.889 358.727 413.248 358.234 413.031 356.25C412.86 354.734 411.998 353.294 411.245 351.997C410.577 350.85 410.454 351.225 410.8 349.827C411.037 348.871 411.662 348.426 410.871 347.45C410.572 347.08 408.114 345.859 408.247 345.413C408.82 343.5 409.573 337.106 406.116 339.171C404.108 340.369 401.612 342.742 400.627 344.826C399.907 344.026 392.287 342.808 392.287 343.538C392.287 343.007 394.55 338.304 393.191 337.158C391.69 335.894 387.669 341.714 386.949 343.434C386.655 344.135 386.447 344.878 386.049 345.527C385.182 346.943 383.567 347.706 382.308 348.795C378.827 351.798 378.509 357.694 381.645 361.028C380.806 362.52 380.56 365.348 381.209 366.925" fill="#FFE6D0"/>
<path d="M399.95 364.784C401.527 364.884 403.454 365.215 404.993 364.746C406.267 364.353 407.489 363.785 408.607 363.06C409.043 362.776 409.474 362.464 409.767 362.037C410.449 361.052 410.274 359.745 410.07 358.57C411.889 358.727 413.248 358.234 413.031 356.25C412.86 354.734 411.998 353.294 411.245 351.997C410.577 350.85 410.454 351.225 410.8 349.827C411.037 348.871 411.662 348.426 410.871 347.45C410.572 347.08 408.114 345.859 408.247 345.413C408.82 343.5 409.573 337.106 406.116 339.171C404.108 340.369 401.612 342.742 400.627 344.826C399.907 344.026 392.287 342.808 392.287 343.538C392.287 343.007 394.55 338.304 393.191 337.158C391.69 335.894 387.669 341.714 386.949 343.434C386.655 344.135 386.447 344.878 386.049 345.527C385.182 346.943 383.567 347.706 382.308 348.795C378.827 351.798 378.509 357.694 381.645 361.028C380.806 362.52 380.56 365.348 381.209 366.925" stroke="#4C241E" stroke-linecap="round" stroke-linejoin="round"/>
<path d="M391.865 347.275C391.993 347.052 391.827 346.73 391.572 346.697C391.529 347.118 391.581 347.554 391.723 347.952C391.775 348.099 391.865 348.264 392.021 348.283C392.13 348.298 392.23 348.245 392.325 348.189C392.883 347.843 393.376 347.393 393.769 346.877C392.959 347.109 392.254 347.677 391.86 348.416" fill="#4C241E"/>
<path d="M391.865 347.275C391.993 347.052 391.827 346.73 391.572 346.697C391.529 347.118 391.581 347.554 391.723 347.952C391.775 348.099 391.865 348.264 392.021 348.283C392.13 348.298 392.23 348.245 392.325 348.189C392.883 347.843 393.376 347.393 393.769 346.877C392.959 347.109 392.254 347.677 391.86 348.416" stroke="#4C241E" stroke-linecap="round" stroke-linejoin="round"/>
<path d="M392.362 348.108C391.491 349.264 391.353 350.907 392.026 352.181" stroke="#4C241E" stroke-linecap="round" stroke-linejoin="round"/>
<path d="M389.251 351.495C390.331 350.85 391.198 349.865 391.69 348.719" stroke="#4C241E" stroke-linecap="round" stroke-linejoin="round"/>
<path d="M406.234 342.576C406.419 342.529 406.556 342.609 406.632 342.87C406.798 343.49 405.983 345.03 405.732 345.589C405.59 345.911 405.571 346.739 405.216 346.896C405.017 346.981 403.464 346.138 403.412 346.346C403.53 345.868 405.368 342.794 406.234 342.572V342.576Z" fill="#4C241E" stroke="#4C241E" stroke-linecap="round" stroke-linejoin="round"/>
<path d="M390.6 341.596C390.373 342.453 390.316 344.67 388.938 344.116C389.113 343.093 389.592 342.079 390.269 341.279C390.311 341.227 390.359 341.174 390.425 341.165C390.61 341.137 390.648 341.416 390.6 341.596Z" fill="#4C241E" stroke="#4C241E" stroke-linecap="round" stroke-linejoin="round"/>
<path d="M398.595 349.581C398.25 349.861 397.871 350.348 398.16 350.685C398.363 350.926 398.766 350.86 399.036 350.694C399.32 350.519 399.557 350.23 399.576 349.898C399.595 349.567 399.353 349.216 399.022 349.188C398.685 349.164 398.377 349.562 398.543 349.846" fill="#4C241E"/>
<path d="M398.595 349.581C398.25 349.861 397.871 350.348 398.16 350.685C398.363 350.926 398.766 350.86 399.036 350.694C399.32 350.519 399.557 350.23 399.576 349.898C399.595 349.567 399.353 349.216 399.022 349.188C398.685 349.164 398.377 349.562 398.543 349.846" stroke="#4C241E" stroke-linecap="round" stroke-linejoin="round"/>
<path d="M387.006 347.668C386.66 347.947 386.281 348.435 386.57 348.771C386.774 349.013 387.176 348.946 387.446 348.781C387.731 348.605 387.967 348.317 387.986 347.985C388.01 347.653 387.764 347.303 387.432 347.275C387.096 347.251 386.741 348.639 386.906 348.923" fill="#4C241E"/>
<path d="M387.006 347.668C386.66 347.947 386.281 348.435 386.57 348.771C386.774 349.013 387.176 348.946 387.446 348.781C387.731 348.605 387.967 348.317 387.986 347.985C388.01 347.653 387.764 347.303 387.432 347.275C387.096 347.251 386.741 348.639 386.906 348.923" stroke="#4C241E" stroke-linecap="round" stroke-linejoin="round"/>
<path d="M380.963 361.047C377.752 364.344 373.366 366.077 369.411 368.303C367.574 369.336 365.424 370.51 364.027 372.116C361.261 375.294 367.569 375.204 369.208 373.982" fill="#FFE6D0"/>
<path d="M380.963 361.047C377.752 364.344 373.366 366.077 369.411 368.303C367.574 369.336 365.424 370.51 364.027 372.116C361.261 375.294 367.569 375.204 369.208 373.982" stroke="#4C241E" stroke-linecap="round" stroke-linejoin="round"/>
<path d="M387.174 363.823C383.12 365.94 379.071 368.052 375.017 370.169C372.407 371.533 369.745 372.93 367.704 375.043C367.24 375.521 366.785 376.165 366.989 376.795C367.235 377.562 368.244 377.738 369.063 377.742C372.303 377.771 375.552 377.307 378.654 376.374C380.487 375.824 382.286 375.109 384.186 374.858C387.633 374.399 391.048 376.104 394.344 377.193" fill="#FFE6D0"/>
<path d="M387.174 363.823C383.12 365.94 379.071 368.052 375.017 370.169C372.407 371.533 369.745 372.93 367.704 375.043C367.24 375.521 366.785 376.165 366.989 376.795C367.235 377.562 368.244 377.738 369.063 377.742C372.303 377.771 375.552 377.307 378.654 376.374C380.487 375.824 382.286 375.109 384.186 374.858C387.633 374.399 391.048 376.104 394.344 377.193" stroke="#4C241E" stroke-linecap="round" stroke-linejoin="round"/>
<path d="M413.353 363.941C409.062 364.296 404.979 366.646 402.55 370.155C401.754 371.301 401.134 372.566 400.258 373.655C398.264 376.142 395.157 377.506 392.078 378.415C388.957 379.334 382.507 379.765 380.788 382.952C380.513 383.464 380.243 384.108 380.575 384.581C381.015 385.207 383.08 385.917 383.823 386.064C385.784 386.462 388.209 385.486 390.17 385.297C391.742 385.145 393.471 385.287 394.953 385.851C396.412 386.405 397.421 387.423 399.102 386.765" fill="#FFE6D0"/>
<path d="M413.353 363.941C409.062 364.296 404.979 366.646 402.55 370.155C401.754 371.301 401.134 372.566 400.258 373.655C398.264 376.142 395.157 377.506 392.078 378.415C388.957 379.334 382.507 379.765 380.788 382.952C380.513 383.464 380.243 384.108 380.575 384.581C381.015 385.207 383.08 385.917 383.823 386.064C385.784 386.462 388.209 385.486 390.17 385.297C391.742 385.145 393.471 385.287 394.953 385.851C396.412 386.405 397.421 387.423 399.102 386.765" stroke="#4C241E" stroke-linecap="round" stroke-linejoin="round"/>
<path d="M449.067 379.48C448.011 381.266 444.696 381.167 443.152 380.125C442.787 379.878 442.451 379.566 442.034 379.419C438.762 378.268 436.877 382.909 433.4 382.194C431.615 381.825 430.118 380.683 428.243 380.622C425.699 380.537 423.109 381.37 421.162 383.004C420.594 383.478 420.035 384.041 419.306 384.169C418.865 384.25 418.411 384.16 417.975 384.065C415.967 383.639 413.964 383.127 411.908 383.08C408.252 382.999 405.775 386.13 402.28 386.627C400.703 386.85 399.159 386.485 397.634 387.016C394.314 388.171 392.836 390.705 393.144 394.073C393.485 397.824 397.401 398.638 400.546 399.192C404.752 399.931 409.223 399.301 412.993 397.284C414.423 396.521 415.83 395.546 417.449 395.451C419.045 395.356 420.547 396.128 422.1 396.507C425.321 397.298 428.934 396.265 431.241 393.902C432.273 392.841 433.13 391.487 434.527 390.975C435.238 390.715 436.019 390.705 436.777 390.7C439.112 390.682 441.447 390.667 443.786 390.648C447.902 390.62 448.745 388.266 451.71 386.571C455.541 384.382 459.411 384.169 462.129 380.376C464.076 377.662 464.672 374.498 464.062 371.254C462.821 364.661 457.313 358.911 452.24 355.013C446.803 350.841 437.469 348.866 430.653 347.881C424.279 346.957 417.719 346.133 411.43 347.554" fill="#FFE6D0"/>
<path d="M449.067 379.48C448.011 381.266 444.696 381.167 443.152 380.125C442.787 379.878 442.451 379.566 442.034 379.419C438.762 378.268 436.877 382.909 433.4 382.194C431.615 381.825 430.118 380.683 428.243 380.622C425.699 380.537 423.109 381.37 421.162 383.004C420.594 383.478 420.035 384.041 419.306 384.169C418.865 384.25 418.411 384.16 417.975 384.065C415.967 383.639 413.964 383.127 411.908 383.08C408.252 382.999 405.775 386.13 402.28 386.627C400.703 386.85 399.159 386.485 397.634 387.016C394.314 388.171 392.836 390.705 393.144 394.073C393.485 397.824 397.401 398.638 400.546 399.192C404.752 399.931 409.223 399.301 412.993 397.284C414.423 396.521 415.83 395.546 417.449 395.451C419.045 395.356 420.547 396.128 422.1 396.507C425.321 397.298 428.934 396.265 431.241 393.902C432.273 392.841 433.13 391.487 434.527 390.975C435.238 390.715 436.019 390.705 436.777 390.7C439.112 390.682 441.447 390.667 443.786 390.648C447.902 390.62 448.745 388.266 451.71 386.571C455.541 384.382 459.411 384.169 462.129 380.376C464.076 377.662 464.672 374.498 464.062 371.254C462.821 364.661 457.313 358.911 452.24 355.013C446.803 350.841 437.469 348.866 430.653 347.881C424.279 346.957 417.719 346.133 411.43 347.554" stroke="#4C241E" stroke-linecap="round" stroke-linejoin="round"/>
<path d="M373.698 129.477L351.631 160.337H343.319L351.002 129.477H373.698Z" fill="#BF7249" stroke="#4C241E" stroke-linecap="round" stroke-linejoin="round"/>
<path d="M538.061 134.722L336.051 133.16L331 124.943L543.111 125.336L538.061 134.722Z" fill="#A95C40" stroke="#4C241E" stroke-linecap="round" stroke-linejoin="round"/>
</svg>
