<svg width="60" height="60" viewBox="0 0 60 60" fill="none" xmlns="http://www.w3.org/2000/svg">
<g clip-path="url(#clip0_631_24314)">
<path d="M51.248 21.9362C49.358 18.3181 46.6248 15.2191 43.3246 12.9638C44.2987 12.3148 45.1128 11.3413 45.5926 10.2056C46.2614 8.64796 46.2904 6.84698 45.6944 5.25694C45.4036 4.46191 44.9674 3.71556 44.415 3.11524C43.8334 2.46624 43.092 1.91459 42.2778 1.71989C41.8271 1.60631 41.3474 1.60631 40.9112 1.80101C40.5478 1.96326 40.2279 2.20664 39.9808 2.53114C39.4719 3.18014 39.1957 4.00761 38.9922 4.81886C38.7305 5.88971 38.5269 6.96056 38.3961 8.06386C38.3379 8.59928 38.2798 9.13471 38.2507 9.67013C38.2507 9.89728 38.2362 10.1244 38.2216 10.3354C35.6483 9.37808 32.886 8.84266 29.9929 8.84266C25.1371 8.84266 20.6156 10.3354 16.8211 12.8827C16.792 12.3797 16.7484 11.8767 16.6902 11.3738C16.5594 10.2705 16.3704 9.19961 16.0942 8.12876C15.8906 7.31751 15.6144 6.49003 15.1056 5.84103C14.8439 5.51653 14.524 5.27316 14.1751 5.11091C13.7389 4.93244 13.2592 4.93244 12.8085 5.02979C11.9943 5.22449 11.2529 5.77613 10.6713 6.42513C10.1189 7.04168 9.69727 7.77181 9.39196 8.56683C8.79589 10.1569 8.82496 11.9579 9.49373 13.5155C10.0898 14.9108 11.1656 16.0466 12.4305 16.6469C9.47919 19.8756 7.37112 23.9157 6.44066 28.3938C3.31491 31.2169 1.43945 34.7377 1.43945 38.5668C1.43945 45.5436 7.60374 51.5144 16.3559 54.013C20.2376 56.755 24.9335 58.3613 29.9929 58.3613C38.1344 58.3613 45.3164 54.2077 49.6779 47.8475C55.0862 44.781 58.5318 40.1244 58.5318 34.9C58.5318 30.9898 56.5836 27.3878 53.3416 24.5484C52.4983 23.8183 51.7714 22.9422 51.2335 21.9038L51.248 21.9362Z" fill="#FFD899" stroke="#4C241E" stroke-width="2" stroke-miterlimit="10"/>
</g>
<defs>
<clipPath id="clip0_631_24314">
<rect width="60" height="60" fill="white"/>
</clipPath>
</defs>
</svg>
