<svg width="258" height="521" viewBox="0 0 258 521" fill="none" xmlns="http://www.w3.org/2000/svg">
<path d="M210.555 303.229C206.602 298.067 199.887 295.504 193.317 294.01C181.313 291.293 151.385 291.514 151.385 291.514C139.038 291.395 126.547 291.31 114.543 294.01C107.973 295.487 101.258 298.067 97.3046 303.229C89.9219 312.889 97.07 346.149 97.3949 358.034C97.9906 379.171 99.1458 400.292 100.951 421.378C103.153 447.202 109.29 471.328 113.911 496.54C114.796 501.396 115.807 506.489 119.092 510.326C122.738 514.571 128.569 516.557 134.255 517.695C140.717 519.002 147.36 519.426 153.948 519.053C160.537 519.426 167.179 519.002 173.642 517.695C179.309 516.557 185.158 514.571 188.804 510.326C192.09 506.489 193.082 501.396 193.985 496.54C198.606 471.328 204.743 447.202 206.945 421.378C208.75 400.292 209.906 379.171 210.501 358.034C210.826 346.149 217.974 312.889 210.592 303.229H210.555Z" fill="#6890A9" stroke="#4C241E" stroke-width="2.53" stroke-linecap="round" stroke-linejoin="round"/>
<path d="M198.209 310.648C197.252 309.833 196.043 309.018 194.545 308.22C189.942 305.775 184.436 305.504 179.147 305.283C162.234 304.604 143.046 301.785 126.186 304.349C106.763 307.303 117.161 318.305 128.244 321.887C146.132 327.66 170.194 326.132 188.642 324.128C197.974 323.11 205.303 316.777 198.209 310.665V310.648Z" fill="#4C241E" stroke="#4C241E" stroke-width="2.53" stroke-linecap="round" stroke-linejoin="round"/>
<path d="M9.21656 165.079C8.0252 179.408 3.60277 193.33 2.0143 207.609C0.479976 221.361 1.59915 235.232 2.7183 249.018C5.37177 281.921 8.04326 314.825 10.6967 347.711C36.4553 319.511 40.5889 279.663 56.0765 245.453C75.427 202.736 113.821 165.69 115.41 119.272C115.897 105.418 114.976 91.7678 99.9039 85.5539C80.8242 77.71 71.4197 96.4877 59.9213 108.101C59.4881 108.542 59.0368 108.984 58.4231 109.153C55.4086 110.002 58.7842 88.7797 50.4988 81.8187C42.5204 75.1124 27.7728 74.0258 19.2528 79.0343C-5.89199 93.7882 11.1299 142.125 9.21656 165.062V165.079Z" fill="#466B40" stroke="#4C241E" stroke-width="2.53" stroke-linecap="round" stroke-linejoin="round"/>
<path d="M11.8155 177.931C13.3137 180.054 16.4185 181.259 21.8337 180.97C22.8265 186.251 21.0755 190.105 18.6387 194.807C16.2921 199.324 14.8661 205.605 19.0719 208.695C21.0034 210.122 23.6748 210.427 25.516 211.938C29.2525 215.011 27.5016 220.682 25.7688 225.062C18.4582 243.534 18.6748 262.601 18.9997 281.973C19.0358 284.315 20.0105 287.456 22.4835 287.27C23.6207 287.185 24.5052 286.353 25.2633 285.538C39.2347 270.41 31.527 247.439 44.7221 234.485C47.4839 231.769 51.1301 230.037 54.1807 227.609C66.69 217.677 66.1485 199.324 61.4372 184.57C60.7152 182.278 59.9751 179.578 61.5274 177.694C63.2603 175.588 66.6358 175.877 69.4698 175.843C77.3219 175.758 84.9394 171.293 88.4954 164.722C95.0839 152.549 102.665 140.24 92.3402 127.49C91.0586 125.894 89.5242 124.383 88.9827 122.447C86.5278 113.805 103.64 109.629 95.5352 100.97C92.5748 97.8122 87.5206 97.0312 83.1523 97.9989C75.4266 99.7307 64.8488 111.615 57.087 110.07C54.9931 109.646 24.9565 69.1533 32.8627 102.838C22.7723 107.133 8.18724 115.384 19.5412 126.386C21.2019 127.999 23.3319 129.204 24.7579 131.004C28.0071 135.181 26.4908 141.106 23.9817 145.724C20.3355 152.447 6.68904 170.631 11.8335 177.914L11.8155 177.931Z" fill="#59804B" stroke="#4C241E" stroke-width="2.53" stroke-linecap="round" stroke-linejoin="round"/>
<path d="M40.5723 200.07C53.262 162.804 40.8249 121.632 66.5834 87.2175C75.4103 75.4348 92.3962 67.7099 106.44 73.4994C118.57 78.5079 124.472 91.3432 128.047 103.347C133.498 121.683 136.097 140.783 135.736 159.832C135.393 177.659 132.469 195.35 131.151 213.126C128.57 248.254 132.325 283.483 136.061 318.509" stroke="#4C241E" stroke-width="2.53" stroke-linecap="round" stroke-linejoin="round"/>
<path d="M37.3584 217.167C32.7916 242.906 26.0587 265.215 20.6434 297.235C19.2535 305.419 16.2209 330.988 13.6758 338.916" stroke="#4C241E" stroke-width="2.53" stroke-linecap="round" stroke-linejoin="round"/>
<path d="M255.449 204.535C257.2 185.011 255.936 165.096 253.517 145.843C249.709 115.469 257.308 84.6029 253.716 53.4483C252.723 44.9423 251.045 36.0289 245.304 29.4244C240.16 23.4991 231.622 20.1035 223.734 21.7674C215.845 23.4312 209.347 30.6129 209.798 38.2869C209.943 40.7148 210.701 43.1426 210.34 45.5365C209.961 47.9474 207.831 50.4092 205.304 50.0018C189.112 47.472 191.224 11.7503 167.957 33.8896C153.426 47.7097 161.115 71.411 166.657 87.2175C175.195 111.615 183.769 135.656 196.802 158.253C212.452 185.384 223.914 213.653 237.452 241.463C239.023 244.705 241.441 248.458 245.178 248.356C250.972 234.281 254.095 219.527 255.449 204.535Z" fill="#466B40" stroke="#4C241E" stroke-width="2.53" stroke-linecap="round" stroke-linejoin="round"/>
<path d="M176.746 49.611C178.082 48.0999 179.634 47.0473 181.439 46.7417C190.609 45.1797 195.519 57.7604 201.295 62.1237C204.869 64.8232 210.266 61.6823 212.288 57.7944C233.696 16.5209 254.419 75.9947 241.404 78.5754C238.498 79.1527 235.52 78.083 232.559 77.8793C229.599 77.6756 225.971 78.9829 225.61 81.7842C225.465 82.9557 225.917 84.0933 226.458 85.1629C230.628 93.4142 240.068 95.6892 243.787 104.008C252.614 123.822 233.805 134.229 232.216 151.937C230.664 169.289 240.014 186.878 240.52 204.28C240.574 206.046 240.466 208.016 239.112 209.238C236.097 211.938 231.566 208.05 229.635 204.552C222.794 192.073 221.332 177.812 215.05 165.486C204.49 140.358 183.786 133.397 196.71 105.01C206.711 83.0406 179.761 106.572 176.493 95.893C174.688 89.9846 185.501 87.2002 186.566 81.1391C187.125 77.9303 184.544 74.8402 181.421 73.5329C178.299 72.2256 174.761 72.2766 171.331 72.3615C170.049 67.5397 171.764 55.2816 176.746 49.611Z" fill="#59804B" stroke="#4C241E" stroke-width="2.53" stroke-linecap="round" stroke-linejoin="round"/>
<path d="M148.117 312.957C147.503 260.529 146.871 208.118 146.258 155.69C145.951 129.476 145.644 103.262 145.337 77.0649C145.12 58.0665 140.535 35.2481 149.669 17.5231C154.326 8.49077 163.749 0.952539 174.309 1.27512C183.731 1.56375 191.98 8.01539 196.637 15.8083C201.295 23.6012 203.027 32.6165 204.67 41.4451C211.475 78.1005 213.804 114.807 222.053 151.157" stroke="#4C241E" stroke-width="2.53" stroke-linecap="round" stroke-linejoin="round"/>
<path d="M225.61 185.724C229.653 170.63 234.003 144.332 225.194 130.07C219.942 121.581 208.118 116.539 198.443 120.24C193.461 122.141 189.598 125.961 186.187 129.9C182.54 134.128 179.219 138.593 176.277 143.279C175.41 144.654 174.49 146.131 172.955 146.827C169.616 148.338 166.024 145.401 163.641 142.753C147.197 124.484 115.915 100.325 101.402 137.422C96.0589 151.072 99.5788 166.42 105.481 179.867C111.384 193.313 119.615 205.877 124.128 219.782C128.496 233.279 129.218 247.541 131.204 261.531C137.233 304.128 154.959 344.366 172.54 384.027C190.248 317.932 207.938 251.836 225.646 185.724H225.61Z" fill="#466B40" stroke="#4C241E" stroke-width="2.53" stroke-linecap="round" stroke-linejoin="round"/>
<path d="M156.603 267.371C157.306 269.035 158.047 270.784 158.823 272.635C166.386 290.92 158.769 315.385 172.632 331.073C181.693 309.935 185.375 282.991 183.877 259.969C182.776 242.787 199.744 235.673 197.397 218.678C195.484 204.994 185.971 200.155 189.256 185.028C189.437 184.179 189.672 183.279 190.321 182.651C192.181 180.851 195.249 182.617 197.704 183.585C220.647 192.702 202.524 164.502 202.415 164.654C206.332 158.322 219.365 160.07 221.062 152.923C221.766 149.968 219.871 147.048 218.066 144.536C215.033 140.308 211.513 135.741 206.224 134.586C188.318 130.664 181.477 157.337 159.96 151.055C147.812 147.507 139.021 130.291 124.472 135.894C109.995 141.463 110.284 156.726 120.194 163.653C124.328 166.539 137.775 169.85 138.66 175.401C140.23 185.164 121.078 183.89 126.422 195.436C127.703 198.186 130.934 199.697 132.613 202.244C134.743 205.47 134.039 209.595 134.797 213.33C135.555 217.066 139.617 220.953 143.119 219.069C146.079 217.473 146.223 212.838 149.454 211.819C151.873 211.055 154.473 213.161 155.014 215.504C155.574 217.846 154.707 220.274 153.841 222.532C146.097 242.923 149.797 251.395 156.584 267.354L156.603 267.371Z" fill="#59804B" stroke="#4C241E" stroke-width="2.53" stroke-linecap="round" stroke-linejoin="round"/>
<path d="M132.684 121.242C128.604 91.2926 162.287 73.3469 170.843 110.546C174.815 127.812 173.713 152.43 173.497 170.342C172.576 242.618 171.656 314.893 170.735 387.151" stroke="#4C241E" stroke-width="2.53" stroke-linecap="round" stroke-linejoin="round"/>
<path d="M117.197 208.627C119.056 245.317 120.915 281.989 122.774 318.679" stroke="#4C241E" stroke-width="2.53" stroke-linecap="round" stroke-linejoin="round"/>
</svg>
