<svg width="459" height="298" viewBox="0 0 459 298" fill="none" xmlns="http://www.w3.org/2000/svg">
<path d="M57.335 235.755L57.7418 296.036L49.416 296.108L43.2959 235.737L57.335 235.755Z" fill="#BF7249" stroke="#4C241E" stroke-width="2.53" stroke-linecap="round" stroke-linejoin="round"/>
<path d="M428.708 169.951C424.17 158.706 418.086 147.705 410.555 137.112C404.453 128.529 387.069 130.068 374.495 129.733C358.169 129.308 341.815 129.362 325.48 129.136C296.452 128.728 152.807 128.728 123.779 129.136C107.444 129.362 91.0908 129.308 74.7646 129.733C62.19 130.068 44.806 128.529 38.704 137.112C31.1737 147.705 25.0988 158.706 20.5517 169.951C19.1324 173.464 13.835 181.332 16.773 184.727C19.8466 188.267 30.1974 188.376 35.5672 188.412C44.3902 188.475 53.1319 188.448 61.9278 188.285C70.8864 188.122 79.4383 188.385 88.3969 188.204C106.884 187.823 125.316 188.566 143.902 188.158C166.9 187.642 282.368 187.642 305.366 188.158C323.961 188.575 342.385 187.832 360.871 188.204C369.821 188.385 378.382 188.122 387.341 188.285C396.146 188.448 404.878 188.475 413.701 188.412C419.071 188.376 429.422 188.276 432.495 184.727C435.433 181.332 430.136 173.464 428.717 169.951H428.708Z" fill="#EA6161" stroke="#4C241E" stroke-width="2.53" stroke-linecap="round" stroke-linejoin="round"/>
<path d="M60.5173 77.0211C60.5354 57.1477 60.4269 37.2834 60.3094 17.41C60.2642 9.00795 59.4144 4.2184 68.1922 1.97303C74.4479 0.370478 81.3454 2.00925 87.6915 1.92777C106.703 1.70142 182.756 1.70142 201.767 1.92777C208.113 2.0002 215.011 0.370478 221.267 1.97303C230.053 4.2184 229.204 9.00795 229.149 17.41C229.032 37.2834 228.914 57.1477 228.941 77.0211C228.95 86.727 228.715 96.4328 228.508 106.139C228.345 113.336 231.807 129.108 223.075 129C207.001 128.792 190.404 128.982 174.213 129.652C167.506 129.932 135.377 130.322 135.377 130.322C128.67 130.132 121.953 129.923 115.245 129.652C99.0548 128.982 82.4664 128.792 66.3842 129C57.6516 129.118 61.1139 113.346 60.9512 106.139C60.7342 96.4328 60.4992 86.727 60.5173 77.0211Z" fill="#EA6161" stroke="#4C241E" stroke-width="2.53" stroke-linecap="round" stroke-linejoin="round"/>
<path d="M25.804 189.625C32.2314 190.313 39.5719 188.991 43.8568 188.357C45.6287 188.095 47.509 187.696 48.8288 186.23C49.9769 184.962 50.5284 183.097 51.0256 181.304C55.9433 163.731 62.868 145.261 61.8826 126.537C60.7255 104.491 60.9153 82.1999 60.4362 60.1083C60.2825 53.0463 59.7582 44.6352 53.611 42.0276C39.6171 36.0973 26.491 30.2213 11.4756 34.6939C9.36022 35.3277 7.12734 36.0249 5.56342 37.89C-0.36682 44.9339 1.41406 58.3066 1.8751 67.1432C2.5531 80.1447 3.42998 93.1371 4.52382 106.093C4.60518 107.089 4.69558 108.085 4.77694 109.081C5.84366 121.322 7.37142 133.481 9.07093 145.605C10.6258 156.65 10.7795 170.865 13.6181 181.223C15.1549 186.845 20.1269 189.027 25.804 189.634V189.625Z" fill="#EA6161" stroke="#4C241E" stroke-width="2.53" stroke-linecap="round" stroke-linejoin="round"/>
<path d="M13.2111 103.042C14.8202 125.921 17.9571 148.792 19.3493 171.562C19.8465 179.72 22.2782 184.365 28.8955 184.546C33.0449 184.654 40.087 182.835 40.4486 175.709C42.4826 135.899 39.3548 94.9298 37.2665 55.2283C36.8326 47.0345 30.2515 42.7972 24.8908 42.4079C20.5878 42.091 11.7286 44.0738 10.1014 50.1581C8.86287 54.7937 10.0742 60.8327 10.3726 65.5407C11.1862 78.0623 12.3252 90.5387 13.2111 103.042Z" fill="#B74C4C" stroke="#4C241E" stroke-width="2.53" stroke-linecap="round" stroke-linejoin="round"/>
<path d="M401.054 235.755L400.647 296.036L408.973 296.108L415.093 235.737L401.054 235.755Z" fill="#BF7249" stroke="#4C241E" stroke-width="2.53" stroke-linecap="round" stroke-linejoin="round"/>
<path d="M397.872 77.0211C397.854 57.1477 397.963 37.2834 398.08 17.41C398.125 9.00795 398.975 4.2184 390.197 1.97303C383.942 0.370478 377.044 2.00925 370.698 1.92777C351.687 1.70142 275.633 1.70142 256.622 1.92777C250.276 2.0002 243.379 0.370478 237.123 1.97303C228.336 4.2184 229.186 9.00795 229.24 17.41C229.358 37.2834 229.475 57.1477 229.448 77.0211C229.439 86.727 229.674 96.4328 229.882 106.139C230.045 113.336 226.582 129.108 235.315 129C251.388 128.792 267.986 128.982 284.176 129.652C290.884 129.932 323.012 130.322 323.012 130.322C329.72 130.132 336.436 129.923 343.144 129.652C359.335 128.982 375.923 128.792 392.005 129C400.738 129.118 397.276 113.346 397.438 106.139C397.655 96.4328 397.89 86.727 397.872 77.0211Z" fill="#EA6161" stroke="#4C241E" stroke-width="2.53" stroke-linecap="round" stroke-linejoin="round"/>
<path d="M432.577 189.625C426.149 190.313 418.809 188.991 414.524 188.357C412.752 188.095 410.872 187.696 409.552 186.23C408.404 184.962 407.852 183.097 407.355 181.304C402.437 163.731 395.513 145.261 396.498 126.537C397.655 104.491 397.465 82.1999 397.944 60.1083C398.098 53.0463 398.622 44.6352 404.77 42.0276C418.763 36.0973 431.889 30.2213 446.905 34.6939C449.02 35.3277 451.253 36.0249 452.817 37.89C458.747 44.9339 456.967 58.3066 456.505 67.1432C455.827 80.1447 454.951 93.1371 453.857 106.093C453.775 107.089 453.685 108.085 453.604 109.081C452.537 121.322 451.009 133.481 449.31 145.605C447.755 156.65 447.601 170.865 444.762 181.223C443.226 186.845 438.254 189.027 432.577 189.634V189.625Z" fill="#EA6161" stroke="#4C241E" stroke-width="2.53" stroke-linecap="round" stroke-linejoin="round"/>
<path d="M445.179 103.042C443.569 125.921 440.433 148.792 439.04 171.562C438.543 179.72 436.111 184.365 429.494 184.546C425.345 184.654 418.303 182.835 417.941 175.709C415.907 135.899 419.035 94.9298 421.123 55.2283C421.557 47.0345 428.138 42.7972 433.499 42.4079C437.802 42.091 446.661 44.0738 448.288 50.1581C449.527 54.7937 448.315 60.8327 448.017 65.5407C447.203 78.0623 446.064 90.5387 445.179 103.042Z" fill="#B74C4C" stroke="#4C241E" stroke-width="2.53" stroke-linecap="round" stroke-linejoin="round"/>
<path d="M439.953 191.001C438.444 189.136 435.75 188.846 433.345 188.701C411.776 187.434 390.152 187.045 368.555 187.524C349.626 187.95 331.166 186.547 312.137 187.008C283.833 187.696 174.557 187.696 146.253 187.008C127.224 186.547 108.764 187.941 89.8343 187.524C68.2287 187.045 46.614 187.434 25.0446 188.701C22.64 188.846 19.937 189.136 18.4364 191.001C16.5289 193.355 15.8238 198.425 16.0408 201.377C17.0261 215.021 18.572 229.426 21.8806 242.735C24.2762 252.369 32.5478 250.929 40.8827 251.174C50.1668 251.445 59.4599 251.699 68.753 251.916C87.7189 252.369 106.694 252.731 125.669 253.021C155.582 253.482 302.826 253.482 332.739 253.021C351.714 252.731 370.68 252.369 389.655 251.916C398.948 251.69 408.232 251.445 417.525 251.174C425.86 250.929 434.132 252.369 436.527 242.735C439.836 229.426 441.382 215.021 442.367 201.377C442.584 198.425 441.879 193.355 439.971 191.001H439.953Z" fill="#EA6161" stroke="#4C241E" stroke-width="2.53" stroke-linecap="round" stroke-linejoin="round"/>
<path d="M165.229 139.33C174.07 138.615 182.956 138.117 191.779 137.356C196.182 136.976 200.955 136.795 205.176 135.926C208.856 135.165 211.55 133.445 215.844 133.943C219.414 134.36 226.619 135.328 226.619 131.707C226.619 129.624 221.873 127.66 220.427 126.048C217.959 123.305 217.48 119.919 217.091 116.831C216.061 108.782 214.524 100.742 212.481 92.7477C210.79 86.1293 207.4 79.7282 205.05 73.2003C203.45 68.7729 200.304 64.2822 199.861 59.719C199.391 54.7936 203.052 46.5093 192.213 52.4306C181.826 58.1074 165.455 56.5592 152.618 57.4736C137.901 58.5239 123.265 59.9181 108.747 61.6656C103.44 62.3084 98.3959 63.6484 92.8996 62.7883C88.8316 62.1454 85.0257 59.0128 81.7442 61.8919C76.8536 66.1835 87.3671 73.4991 88.7412 77.7725C90.4407 83.0238 90.3232 88.3566 91.3266 93.6441C93.6318 105.686 96.7958 117.691 100.819 129.588C101.994 133.056 104.869 136.37 105.574 139.901C106.387 143.966 101.804 150.503 112.028 149.371C115.988 148.927 118.148 146.211 121.728 145.224C124.964 144.328 128.291 144.645 131.753 144.554C143.261 144.256 153.838 140.254 165.211 139.339L165.229 139.33Z" fill="#FFC550" stroke="#4C241E" stroke-width="2.53" stroke-linecap="round" stroke-linejoin="round"/>
<path d="M255.574 147.723C264.415 147.008 273.302 146.51 282.125 145.749C286.527 145.369 291.3 145.188 295.522 144.319C299.201 143.558 301.895 141.838 306.189 142.336C309.76 142.752 316.965 143.721 316.965 140.1C316.965 138.017 312.219 136.053 310.773 134.441C308.305 131.698 307.825 128.311 307.437 125.224C306.406 117.175 304.869 109.135 302.826 101.141C301.136 94.5221 297.746 88.121 295.395 81.5931C293.795 77.1657 290.649 72.675 290.207 68.1118C289.736 63.1865 293.398 54.9021 282.559 60.8234C272.172 66.5002 255.8 64.952 242.963 65.8664C228.246 66.9167 213.611 68.311 199.092 70.0584C193.786 70.7012 188.742 72.0412 183.245 71.1811C179.177 70.5383 175.371 67.4056 172.09 70.2848C167.199 74.5763 177.713 81.8919 179.087 86.1654C180.786 91.4167 180.669 96.7494 181.672 102.037C183.978 114.079 187.142 126.084 191.164 137.981C192.34 141.449 195.214 144.762 195.919 148.293C196.733 152.359 192.15 158.896 202.374 157.764C206.333 157.32 208.494 154.604 212.074 153.617C215.31 152.721 218.637 153.038 222.099 152.947C233.607 152.648 244.184 148.647 255.556 147.732L255.574 147.723Z" fill="#D0E6F6" stroke="#4C241E" stroke-width="2.53" stroke-linecap="round" stroke-linejoin="round"/>
<path d="M398.442 128.266C389.384 115.844 376.647 107.352 360.583 103.024C338.191 96.9849 320.002 95.5453 304.969 98.6146L304.571 98.7775L304.191 98.515C303.739 98.017 303.17 97.6458 302.564 97.2474C301.28 96.4054 299.834 95.4638 299.744 93.2365C299.698 92.1048 299.861 90.9278 300.015 89.787C300.322 87.5326 300.612 85.3958 299.5 83.5126C298.822 82.3808 297.981 81.8195 296.905 81.8014C292.801 81.7561 286.762 89.1532 284.448 92.7567L284.15 93.2184L283.662 92.974C280.507 91.4076 273.311 89.5425 269.668 90.3212L268.881 90.4841L268.972 89.2709C269.198 86.4189 269.659 80.4795 267.814 79.7643C267.218 79.5379 265.699 79.7643 262.246 83.8566C260.619 85.7942 259.606 87.9038 258.548 90.1401C257.789 91.7336 257.003 93.3904 255.981 94.9387C254.661 96.9396 252.808 98.3792 251.009 99.7644C249.093 101.249 247.285 102.644 246.037 104.681C244.148 107.768 243.271 111.507 243.551 115.229C243.687 117.03 244.112 118.796 244.799 120.48C245.016 121.023 245.377 121.575 245.748 122.164C246.082 122.698 246.435 123.25 246.706 123.821L246.923 124.282L246.39 124.636C241.472 129.38 235.433 132.558 229.593 135.627C227.867 136.532 226.14 137.438 224.431 138.398C223.961 138.66 223.419 138.95 222.831 139.258C219.125 141.222 213.538 144.183 212.824 147.832C212.616 148.909 212.788 149.715 213.367 150.313C214.406 151.39 216.829 151.788 219.857 151.372L221.349 151.164L220.409 152.332C219.08 153.988 218.818 155.383 219.613 156.605C222.018 160.299 232.007 157.963 236.283 156.958C236.762 156.849 237.187 156.75 237.539 156.668C239.546 156.225 241.598 155.555 243.578 154.903C246.796 153.844 250.114 152.739 253.531 152.549C258.711 152.232 263.575 154.043 268.284 155.799L270.544 156.641L268.727 157.121C267.001 157.583 265.22 157.972 263.502 158.352C259.272 159.285 254.905 160.254 250.964 162.255C248.252 163.64 245.359 165.985 245.35 168.42C245.35 170.829 247.529 171.725 250.168 172.567C253.495 173.635 256.551 173.038 259.796 172.413C261.342 172.114 262.942 171.807 264.605 171.68C264.84 171.662 265.084 171.644 265.319 171.635C268.167 171.508 270.707 172.377 273.166 173.219C274.097 173.536 274.974 173.835 275.869 174.088L277.279 174.487L275.996 175.193C273.211 176.723 271.15 179.095 270.201 181.875C268.926 185.596 269.116 188.801 270.77 191.39C273.962 196.397 281.709 198.009 286.039 198.525C293.036 199.358 300.006 198.307 306.189 195.492C307.193 195.039 308.16 194.523 309.091 194.025C312.436 192.25 315.591 190.584 319.93 191.499C321.114 191.752 322.244 192.078 323.338 192.386C325.707 193.065 327.939 193.708 330.471 193.572C335.126 193.337 339.628 191.327 343.109 187.932C343.624 187.425 344.103 186.854 344.6 186.248C345.54 185.125 346.508 183.957 347.809 183.187C349.907 181.947 352.158 181.965 354.336 181.974C354.761 181.974 355.177 181.974 355.602 181.974C357.021 181.956 358.504 182.001 359.95 182.047C363.367 182.146 366.902 182.264 370.084 181.54C373.121 180.851 375.399 179.032 377.813 177.103C379.16 176.026 380.552 174.912 382.098 174.007C384.385 172.658 386.853 171.644 389.231 170.666C393.57 168.882 397.665 167.198 400.802 163.658C410.285 152.965 405.792 138.361 398.424 128.266H398.442Z" fill="#FFE6D0"/>
<path d="M283.037 132.015C286.048 132.205 289.727 132.838 292.665 131.942C295.097 131.191 297.429 130.104 299.562 128.719C300.394 128.176 301.217 127.578 301.777 126.763C303.079 124.88 302.745 122.381 302.356 120.136C305.827 120.435 308.422 119.493 308.006 115.699C307.68 112.802 306.035 110.05 304.598 107.569C303.323 105.378 303.088 106.093 303.748 103.422C304.2 101.593 305.393 100.742 303.884 98.8772C303.314 98.1709 298.622 95.835 298.875 94.984C299.969 91.3262 301.407 79.1034 294.807 83.0509C290.974 85.3415 286.21 89.8776 284.33 93.8613C282.956 92.3312 268.411 90.0043 268.411 91.3986C268.411 90.3846 272.732 81.394 270.137 79.203C267.272 76.7856 259.597 87.9129 258.223 91.1994C257.662 92.5394 257.264 93.9609 256.505 95.2013C254.851 97.9084 251.768 99.3661 249.363 101.448C242.719 107.189 242.113 118.461 248.098 124.835C246.498 127.687 246.028 133.092 247.266 136.107" fill="#FFE6D0"/>
<path d="M283.037 132.015C286.048 132.205 289.727 132.838 292.665 131.942C295.097 131.191 297.429 130.104 299.562 128.719C300.394 128.176 301.217 127.578 301.777 126.763C303.079 124.88 302.745 122.381 302.356 120.136C305.827 120.435 308.422 119.493 308.006 115.699C307.68 112.802 306.035 110.05 304.598 107.569C303.323 105.378 303.088 106.093 303.748 103.422C304.2 101.593 305.393 100.742 303.884 98.8772C303.314 98.1709 298.622 95.835 298.875 94.984C299.969 91.3262 301.407 79.1034 294.807 83.0509C290.974 85.3415 286.21 89.8776 284.33 93.8613C282.956 92.3312 268.411 90.0043 268.411 91.3986C268.411 90.3846 272.732 81.394 270.137 79.203C267.272 76.7856 259.597 87.9129 258.223 91.1994C257.662 92.5394 257.264 93.9609 256.505 95.2013C254.851 97.9084 251.768 99.3661 249.363 101.448C242.719 107.189 242.113 118.461 248.098 124.835C246.498 127.687 246.028 133.092 247.266 136.107" stroke="#4C241E" stroke-width="2.53" stroke-linecap="round" stroke-linejoin="round"/>
<path d="M267.607 98.5421C267.851 98.1165 267.534 97.5009 267.046 97.4375C266.965 98.2433 267.064 99.0763 267.335 99.8368C267.435 100.117 267.607 100.434 267.905 100.471C268.113 100.498 268.303 100.398 268.483 100.289C269.55 99.6285 270.49 98.7684 271.241 97.7816C269.695 98.2252 268.348 99.3117 267.598 100.724" fill="#4C241E"/>
<path d="M267.607 98.5421C267.851 98.1165 267.534 97.5009 267.046 97.4375C266.965 98.2433 267.064 99.0763 267.335 99.8368C267.435 100.117 267.607 100.434 267.905 100.471C268.113 100.498 268.303 100.398 268.483 100.289C269.55 99.6285 270.49 98.7684 271.241 97.7816C269.695 98.2252 268.348 99.3117 267.598 100.724" stroke="#4C241E" stroke-width="2.53" stroke-linecap="round" stroke-linejoin="round"/>
<path d="M268.556 100.136C266.892 102.345 266.63 105.487 267.914 107.922" stroke="#4C241E" stroke-width="2.53" stroke-linecap="round" stroke-linejoin="round"/>
<path d="M262.616 106.609C264.677 105.378 266.332 103.495 267.272 101.304" stroke="#4C241E" stroke-width="2.53" stroke-linecap="round" stroke-linejoin="round"/>
<path d="M295.034 89.5607C295.387 89.4701 295.649 89.6241 295.794 90.122C296.11 91.3081 294.555 94.2506 294.076 95.319C293.805 95.9346 293.769 97.5191 293.091 97.8179C292.711 97.9808 289.746 96.3692 289.646 96.7676C289.872 95.8532 293.38 89.9772 295.034 89.5516V89.5607Z" fill="#4C241E" stroke="#4C241E" stroke-width="2.53" stroke-linecap="round" stroke-linejoin="round"/>
<path d="M265.193 87.6864C264.759 89.3252 264.65 93.5624 262.02 92.5031C262.354 90.5474 263.267 88.6099 264.56 87.0798C264.641 86.9802 264.732 86.8806 264.858 86.8625C265.211 86.8082 265.283 87.3423 265.193 87.6864Z" fill="#4C241E" stroke="#4C241E" stroke-width="2.53" stroke-linecap="round" stroke-linejoin="round"/>
<path d="M280.452 102.951C279.792 103.486 279.069 104.418 279.62 105.061C280.009 105.523 280.777 105.396 281.293 105.079C281.835 104.744 282.287 104.192 282.323 103.558C282.359 102.924 281.898 102.254 281.266 102.2C280.624 102.155 280.036 102.915 280.353 103.458" fill="#4C241E"/>
<path d="M280.452 102.951C279.792 103.486 279.069 104.418 279.62 105.061C280.009 105.523 280.777 105.396 281.293 105.079C281.835 104.744 282.287 104.192 282.323 103.558C282.359 102.924 281.898 102.254 281.266 102.2C280.624 102.155 280.036 102.915 280.353 103.458" stroke="#4C241E" stroke-width="2.53" stroke-linecap="round" stroke-linejoin="round"/>
<path d="M258.332 99.2936C257.672 99.8278 256.949 100.76 257.5 101.403C257.889 101.865 258.657 101.738 259.173 101.421C259.715 101.086 260.167 100.534 260.203 99.9002C260.248 99.2664 259.778 98.5964 259.145 98.5421C258.504 98.4968 257.826 101.15 258.142 101.693" fill="#4C241E"/>
<path d="M258.332 99.2936C257.672 99.8278 256.949 100.76 257.5 101.403C257.889 101.865 258.657 101.738 259.173 101.421C259.715 101.086 260.167 100.534 260.203 99.9002C260.248 99.2664 259.778 98.5964 259.145 98.5421C258.504 98.4968 257.826 101.15 258.142 101.693" stroke="#4C241E" stroke-width="2.53" stroke-linecap="round" stroke-linejoin="round"/>
<path d="M246.796 124.871C240.667 131.173 232.296 134.486 224.748 138.742C221.24 140.715 217.136 142.961 214.469 146.03C209.19 152.105 221.231 151.933 224.359 149.597" fill="#FFE6D0"/>
<path d="M246.796 124.871C240.667 131.173 232.296 134.486 224.748 138.742C221.24 140.715 217.136 142.961 214.469 146.03C209.19 152.105 221.231 151.933 224.359 149.597" stroke="#4C241E" stroke-width="2.53" stroke-linecap="round" stroke-linejoin="round"/>
<path d="M258.653 130.177C250.915 134.224 243.186 138.262 235.447 142.309C230.466 144.916 225.386 147.587 221.49 151.625C220.604 152.54 219.736 153.771 220.125 154.975C220.595 156.442 222.52 156.777 224.084 156.786C230.268 156.84 236.469 155.953 242.39 154.169C245.889 153.119 249.324 151.752 252.949 151.272C259.53 150.394 266.048 153.653 272.34 155.736" fill="#FFE6D0"/>
<path d="M258.653 130.177C250.915 134.224 243.186 138.262 235.447 142.309C230.466 144.916 225.386 147.587 221.49 151.625C220.604 152.54 219.736 153.771 220.125 154.975C220.595 156.442 222.52 156.777 224.084 156.786C230.268 156.84 236.469 155.953 242.39 154.169C245.889 153.119 249.324 151.752 252.949 151.272C259.53 150.394 266.048 153.653 272.34 155.736" stroke="#4C241E" stroke-width="2.53" stroke-linecap="round" stroke-linejoin="round"/>
<path d="M308.621 130.403C300.431 131.082 292.638 135.573 288.001 142.282C286.482 144.473 285.298 146.89 283.625 148.973C279.819 153.726 273.889 156.334 268.013 158.072C262.056 159.828 249.743 160.652 246.462 166.746C245.937 167.723 245.422 168.955 246.055 169.86C246.896 171.055 250.837 172.413 252.256 172.694C255.999 173.455 260.627 171.589 264.37 171.227C267.371 170.938 270.671 171.209 273.5 172.287C276.285 173.346 278.21 175.293 281.419 174.034" fill="#FFE6D0"/>
<path d="M308.621 130.403C300.431 131.082 292.638 135.573 288.001 142.282C286.482 144.473 285.298 146.89 283.625 148.973C279.819 153.726 273.889 156.334 268.013 158.072C262.056 159.828 249.743 160.652 246.462 166.746C245.937 167.723 245.422 168.955 246.055 169.86C246.896 171.055 250.837 172.413 252.256 172.694C255.999 173.455 260.627 171.589 264.37 171.227C267.371 170.938 270.671 171.209 273.5 172.287C276.285 173.346 278.21 175.293 281.419 174.034" stroke="#4C241E" stroke-width="2.53" stroke-linecap="round" stroke-linejoin="round"/>
<path d="M376.792 160.109C374.776 163.522 368.448 163.332 365.501 161.34C364.805 160.869 364.163 160.272 363.368 159.991C357.121 157.791 353.523 166.664 346.888 165.297C343.479 164.591 340.623 162.409 337.043 162.291C332.189 162.128 327.244 163.721 323.528 166.845C322.443 167.75 321.377 168.828 319.985 169.072C319.144 169.226 318.276 169.054 317.444 168.873C313.611 168.058 309.787 167.08 305.864 166.99C298.885 166.836 294.157 172.821 287.486 173.771C284.475 174.197 281.528 173.5 278.618 174.514C272.28 176.723 269.46 181.567 270.048 188.004C270.698 195.175 278.175 196.732 284.177 197.791C292.205 199.204 300.738 198 307.934 194.143C310.664 192.685 313.349 190.82 316.441 190.639C319.487 190.458 322.353 191.933 325.318 192.658C331.465 194.17 338.363 192.196 342.765 187.678C344.736 185.65 346.372 183.061 349.039 182.083C350.395 181.585 351.887 181.567 353.333 181.558C357.79 181.521 362.247 181.494 366.712 181.458C374.568 181.404 376.177 176.904 381.836 173.663C389.15 169.48 396.535 169.072 401.724 161.82C405.44 156.632 406.579 150.584 405.413 144.382C403.044 131.779 392.531 120.788 382.849 113.336C372.471 105.36 354.653 101.584 341.644 99.701C329.477 97.9355 316.956 96.3601 304.951 99.0763" fill="#FFE6D0"/>
<path d="M376.792 160.109C374.776 163.522 368.448 163.332 365.501 161.34C364.805 160.869 364.163 160.272 363.367 159.991C357.121 157.791 353.523 166.664 346.888 165.297C343.479 164.591 340.623 162.409 337.043 162.291C332.189 162.128 327.244 163.721 323.528 166.845C322.443 167.75 321.377 168.828 319.985 169.072C319.144 169.226 318.276 169.054 317.444 168.873C313.611 168.058 309.787 167.08 305.864 166.99C298.885 166.836 294.157 172.821 287.486 173.771C284.475 174.197 281.528 173.5 278.618 174.514C272.28 176.723 269.46 181.567 270.048 188.004C270.698 195.175 278.175 196.732 284.177 197.791C292.205 199.204 300.738 198 307.934 194.143C310.664 192.685 313.349 190.82 316.441 190.639C319.487 190.458 322.353 191.933 325.318 192.658C331.465 194.17 338.363 192.196 342.765 187.678C344.736 185.65 346.372 183.061 349.039 182.083C350.395 181.585 351.887 181.567 353.333 181.558C357.79 181.521 362.247 181.494 366.712 181.458C374.568 181.404 376.177 176.904 381.836 173.663C389.15 169.48 396.535 169.072 401.724 161.82C405.44 156.632 406.579 150.584 405.413 144.382C403.044 131.779 392.531 120.788 382.849 113.336C372.471 105.36 354.653 101.584 341.644 99.701C329.477 97.9355 316.956 96.3601 304.951 99.0763" stroke="#4C241E" stroke-width="2.53" stroke-linecap="round" stroke-linejoin="round"/>
</svg>
