<svg width="369" height="422" viewBox="0 0 369 422" fill="none" xmlns="http://www.w3.org/2000/svg">
<path d="M335.712 32.2429H59.9902V363.857H335.712V32.2429Z" fill="#87BCDC" stroke="#4C241E" stroke-width="2.17" stroke-linecap="round" stroke-linejoin="round"/>
<path d="M320.026 50.6082H214.284V345.492H320.026V50.6082Z" fill="#E6EEF4" stroke="#4C241E" stroke-width="2.17" stroke-linecap="round" stroke-linejoin="round"/>
<path d="M181.418 50.6082H75.6768V345.492H181.418V50.6082Z" fill="#E6EEF4" stroke="#4C241E" stroke-width="2.17" stroke-linecap="round" stroke-linejoin="round"/>
<path d="M197.851 32.2429V362.875" stroke="#4C241E" stroke-width="2.17" stroke-linecap="round" stroke-linejoin="round"/>
<path d="M367.085 16.3721C366.979 9.5163 367.832 1.2514 362.477 1.08563C360.19 1.01458 353.686 6.65082 353.686 6.65082H14.4946C14.4946 6.65082 7.99018 1.01458 5.70355 1.08563C0.348341 1.2514 1.20137 9.5163 1.09474 16.3721C1.05919 18.2785 1.09474 20.2678 1.77007 21.9729C4.47137 28.7458 13.7364 21.0138 13.7364 21.0138H354.432C354.432 21.0138 363.709 28.7458 366.398 21.9729C367.074 20.2678 367.109 18.2785 367.074 16.3721H367.085Z" fill="#F2915C" stroke="#4C241E" stroke-width="2.17" stroke-linecap="round" stroke-linejoin="round"/>
<path d="M249.697 110.796C267.706 69.0337 281.118 4.43008 281.118 4.43008C281.118 4.43008 34.3753 0.641009 34.2331 7.3074C33.5696 39.5618 35.9628 397.179 37.0054 406.888C61.8384 400.719 112.168 416.894 133.755 400.423C132.096 375.107 130.319 349.223 122.132 326.074C114.81 305.365 102.263 283.033 109.514 262.276C174.298 255.764 221.251 176.726 249.685 110.796H249.697Z" fill="#FFC550" stroke="#4C241E" stroke-width="2.17" stroke-linecap="round" stroke-linejoin="round"/>
<path d="M34.695 263.981C35.4888 271.737 33.9012 282.098 34.695 289.853C35.5243 298 100.036 295.939 111.753 289.853C113.992 276.438 112.736 272.459 112.5 261.104C95.9126 271.571 35.0741 267.687 34.695 263.981Z" fill="#F2915C" stroke="#4C241E" stroke-width="2.17" stroke-linecap="round" stroke-linejoin="round"/>
<path d="M49.7061 204.564C49.8838 221.52 50.488 238.476 51.5069 255.397" stroke="#4C241E" stroke-width="2.17" stroke-linecap="round" stroke-linejoin="round"/>
<path d="M72.4185 252.685C77.2524 239.992 80.392 226.245 81.6597 212.213" stroke="#4C241E" stroke-width="2.17" stroke-linecap="round" stroke-linejoin="round"/>
<path d="M93.4365 252.969C101.979 241.72 109.514 229.205 115.817 215.742" stroke="#4C241E" stroke-width="2.17" stroke-linecap="round" stroke-linejoin="round"/>
<path d="M49.7772 307.105C49.5758 317.004 49.3625 326.892 49.1611 336.79" stroke="#4C241E" stroke-width="2.17" stroke-linecap="round" stroke-linejoin="round"/>
<path d="M70.3096 304.986C73.2241 315.607 75.2264 326.643 76.269 337.82" stroke="#4C241E" stroke-width="2.17" stroke-linecap="round" stroke-linejoin="round"/>
<path d="M87.7495 305.282C94.5738 312.931 99.3485 323.541 101.102 334.943" stroke="#4C241E" stroke-width="2.17" stroke-linecap="round" stroke-linejoin="round"/>
</svg>
