<svg width="32" height="32" viewBox="0 0 32 32" fill="none" xmlns="http://www.w3.org/2000/svg">
<g clip-path="url(#clip0_759_27895)">
<path d="M28.5772 13.7567C28.5239 12.7167 28.6572 12.6767 28.5505 11.6367C28.4172 10.3833 27.7639 8.55666 27.2039 7.97C26.2172 7.03666 25.4572 7.22333 24.4305 7.06333C23.3772 6.93 23.3772 7.06333 22.3505 6.98333C21.3239 6.91666 21.3372 6.73 20.3105 6.69C19.2839 6.65 19.2839 6.69 18.2705 6.69L16.2305 6.66333C15.2039 6.66333 15.2705 6.70333 14.2439 6.71666C13.2172 6.73 13.0439 6.71666 12.0172 6.75666C10.9905 6.78333 11.1105 6.75666 10.0839 6.79666C9.05721 6.85 9.05723 6.89 8.03056 6.95666C6.99056 7.06333 7.01721 6.97 5.89721 7.19666C5.29721 7.35666 5.04389 7.57 4.80389 7.75666C4.57723 7.95666 4.33723 8.15666 3.96389 8.62333C3.31056 9.59666 3.24388 9.69 3.01721 10.73C2.87055 11.7833 2.95056 11.7833 2.85723 12.8233C2.79056 13.85 2.68389 13.85 2.65723 14.8767C2.63056 15.9033 2.83056 15.9167 2.85723 16.9433C2.88389 17.6277 2.91501 18.3123 2.95056 18.9967C3.03056 20.0233 2.80389 20.0367 2.95056 21.09C3.04389 21.6233 3.08389 21.89 3.21723 22.1833C3.36389 22.4633 3.48388 23.0367 3.83055 23.53C4.20388 24.0233 4.41723 24.1967 4.67056 24.37C4.92389 24.53 5.19056 24.69 5.76389 24.8767C6.87056 25.1167 6.85723 24.9833 7.88389 25.09C8.91056 25.17 8.95055 25.1433 9.97721 25.1967C11.0039 25.2367 11.0039 25.17 12.0306 25.1967C13.0572 25.2233 13.0572 25.1567 14.0705 25.17C15.0839 25.17 15.0972 25.21 16.1239 25.1967C17.1505 25.1967 17.1505 25.25 18.1639 25.2367C18.8484 25.2189 19.5284 25.2056 20.2039 25.1967C21.2305 25.1567 21.2305 25.2233 22.2572 25.17C23.2839 25.1033 23.2839 25.05 24.3239 24.93C25.3905 24.73 25.6039 24.8233 26.5772 24.1833C27.0439 23.81 27.2439 23.5833 27.4439 23.3567C27.6305 23.1167 27.6972 22.6367 27.8705 22.05C28.1105 20.97 28.0039 21.13 28.1239 20.09C28.2172 19.0633 28.3772 18.9167 28.4305 17.89C28.4705 16.8633 28.4439 16.8633 28.4572 15.8233C28.4439 14.7967 28.5905 14.85 28.5505 13.81L28.5772 13.7567ZM19.4305 16.1967C19.2705 16.3433 18.9505 16.49 18.8839 16.5833C18.8039 16.6633 18.7239 16.7433 18.6172 16.7967C18.5239 16.85 18.4172 16.9033 18.3105 16.9433C18.0972 17.0367 17.8705 17.13 17.6705 17.25C17.4705 17.37 17.3105 17.53 17.1105 17.65C16.9639 17.7433 16.7905 17.85 16.6305 17.9167C16.4572 17.9967 16.2705 18.05 16.0972 18.1433L15.6839 18.3567C15.5639 18.4233 15.4839 18.5033 15.3639 18.5833C15.2305 18.69 15.0839 18.7967 14.9372 18.89C14.7372 19.0233 14.5105 19.1167 14.2705 19.17C14.2172 19.17 14.1505 19.1967 14.0972 19.2233C14.0305 19.25 13.9639 19.3033 13.9105 19.3433C13.8172 19.41 13.7105 19.4767 13.6039 19.53C13.5239 19.57 13.5239 19.5833 13.3505 19.6367C13.1772 19.6767 13.0172 19.57 12.9772 19.45C12.9505 19.3167 12.9105 19.2367 12.8705 19.1433C12.7772 18.9433 12.7639 18.7433 12.7905 18.53C12.8172 18.33 12.7639 18.1167 12.7905 17.9167C12.8039 17.85 12.8172 17.77 12.8305 17.7033C12.8439 17.61 12.8572 17.4767 12.8305 17.3833C12.8039 17.25 12.7505 17.1433 12.7505 17.01C12.7505 16.89 12.7639 16.77 12.7639 16.65C12.7639 16.49 12.7239 16.33 12.7105 16.17C12.6705 15.89 12.6839 15.61 12.7105 15.33C12.7505 15.0767 12.8039 14.81 12.7772 14.5567C12.7506 14.3167 12.7772 14.0767 12.7905 13.8367C12.8172 13.6233 12.7239 13.3967 12.7105 13.17V12.93C12.7105 12.7833 12.6972 12.6233 12.7105 12.49C12.7505 12.2767 13.0039 12.09 13.2172 12.1433C13.3905 12.1567 13.7639 12.3967 13.8439 12.4233C14.0039 12.5033 14.1905 12.57 14.3239 12.6767C14.5105 12.8233 14.7372 12.8767 14.9372 12.9833C15.1372 13.09 15.3639 13.2233 15.5372 13.37C15.6305 13.4367 15.7505 13.5033 15.8305 13.5967C15.9239 13.6767 16.0305 13.7433 16.1239 13.81C16.2572 13.93 16.4305 13.9433 16.5639 14.05C16.7105 14.17 16.8839 14.1967 17.0439 14.2767L17.6439 14.5833C17.7639 14.65 17.8839 14.7433 18.0039 14.81C18.0705 14.8367 18.1372 14.8767 18.2039 14.9033C18.2572 14.93 18.3105 14.97 18.3639 14.9967C18.5105 15.0767 18.6705 15.13 18.8039 15.2233L19.0439 15.3833C19.1772 15.4633 19.3239 15.5433 19.3905 15.6367C19.5372 15.77 19.5239 16.1033 19.3639 16.2233L19.4305 16.1967Z" fill="white"/>
</g>
<defs>
<clipPath id="clip0_759_27895">
<rect width="31.9767" height="31.9933" fill="white"/>
</clipPath>
</defs>
</svg>
