<?xml version="1.0" encoding="UTF-8"?>
<svg id="Layer_1" xmlns="http://www.w3.org/2000/svg" version="1.1" viewBox="0 0 45 45">
  <!-- Generator: Adobe Illustrator 29.6.1, SVG Export Plug-In . SVG Version: 2.1.1 Build 9)  -->
  <defs>
    <style>
      .st0 {
        fill: #fff;
      }

      .st1 {
        stroke-width: 3px;
      }

      .st1, .st2 {
        fill: none;
        stroke: #fff;
        stroke-linecap: round;
        stroke-linejoin: round;
      }

      .st2 {
        stroke-width: 2px;
      }
    </style>
  </defs>
  <path class="st0" d="M19.13,27.39l8.62-4.86-8.62-4.86v9.73Z"/>
  <path class="st1" d="M38.31,14.6c-.18-.71-.54-1.35-1.05-1.88-.51-.52-1.15-.9-1.86-1.1-2.58-.62-12.9-.62-12.9-.62,0,0-10.32,0-12.9.68-.71.2-1.35.58-1.86,1.1-.51.52-.87,1.17-1.05,1.88-.47,2.6-.7,5.23-.69,7.87-.02,2.66.21,5.31.69,7.93.2.68.57,1.31,1.08,1.81.51.5,1.14.86,1.83,1.05,2.58.68,12.9.68,12.9.68,0,0,10.32,0,12.9-.68.71-.2,1.35-.58,1.86-1.1.51-.52.87-1.17,1.05-1.88.47-2.58.7-5.19.69-7.81.02-2.66-.21-5.31-.69-7.93Z"/>
  <path class="st2" d="M19.13,27.39l8.62-4.86-8.62-4.86v9.73Z"/>
</svg>