<?xml version="1.0" encoding="UTF-8"?>
<svg id="Layer_1" data-name="Layer 1" xmlns="http://www.w3.org/2000/svg" viewBox="0 0 43 43">
  <defs>
    <style>
      .cls-1 {
        fill: #fff;
      }

      .cls-2 {
        fill: #742209;
      }

      .cls-3 {
        stroke-width: 2px;
      }

      .cls-3, .cls-4 {
        fill: none;
        stroke: #742209;
        stroke-linecap: round;
        stroke-linejoin: round;
      }

      .cls-4 {
        stroke-width: 3px;
      }
    </style>
  </defs>
  <path class="cls-2" d="M32.25,0H10.75C4.81,0,0,4.81,0,10.75v21.5c0,5.94,4.81,10.75,10.75,10.75h21.5c5.94,0,10.75-4.81,10.75-10.75V10.75c0-5.94-4.81-10.75-10.75-10.75Z"/>
  <path class="cls-2" d="M18.13,26.39l8.62-4.86-8.62-4.86v9.73Z"/>
  <path class="cls-4" d="M37.31,13.6c-.18-.71-.54-1.35-1.05-1.88-.51-.52-1.15-.9-1.86-1.1-2.58-.62-12.9-.62-12.9-.62,0,0-10.32,0-12.9.68-.71.2-1.35.58-1.86,1.1-.51.52-.87,1.17-1.05,1.88-.47,2.6-.7,5.23-.69,7.87-.02,2.66.21,5.31.69,7.93.2.68.57,1.31,1.08,1.81.51.5,1.14.86,1.83,1.05,2.58.68,12.9.68,12.9.68,0,0,10.32,0,12.9-.68.71-.2,1.35-.58,1.86-1.1.51-.52.87-1.17,1.05-1.88.47-2.58.7-5.19.69-7.81.02-2.66-.21-5.31-.69-7.93Z"/>
  <path class="cls-1" d="M37.31,13.6c-.18-.71-.54-1.35-1.05-1.88-.51-.52-1.15-.9-1.86-1.1-2.58-.62-12.9-.62-12.9-.62,0,0-10.32,0-12.9.68-.71.2-1.35.58-1.86,1.1-.51.52-.87,1.17-1.05,1.88-.47,2.6-.7,5.23-.69,7.87-.02,2.66.21,5.31.69,7.93.2.68.57,1.31,1.08,1.81.51.5,1.14.86,1.83,1.05,2.58.68,12.9.68,12.9.68,0,0,10.32,0,12.9-.68.71-.2,1.35-.58,1.86-1.1.51-.52.87-1.17,1.05-1.88.47-2.58.7-5.19.69-7.81.02-2.66-.21-5.31-.69-7.93Z"/>
  <path class="cls-2" d="M18.13,26.39l8.62-4.86-8.62-4.86v9.73Z"/>
  <path class="cls-3" d="M18.13,26.39l8.62-4.86-8.62-4.86v9.73Z"/>
</svg>