<svg width="158" height="345" viewBox="0 0 158 345" fill="none" xmlns="http://www.w3.org/2000/svg">
<path d="M66.9245 260.633C44.9451 257.841 44.1184 233.976 43.0105 218.801C42.8401 216.488 42.8486 213.803 44.9196 212.324C50.7234 208.185 64.6235 208.268 71.7653 208.293C84.8729 208.342 97.5287 207.5 110.517 209.796C120.642 211.589 116.917 222.121 117.258 228.722C117.727 237.305 113.866 243.269 110.636 251.241C108.855 255.635 107.236 257.676 101.909 258.51C90.5744 260.295 78.4299 262.095 66.916 260.633H66.9245Z" fill="#EA6161" stroke="#4C241E" stroke-width="3" stroke-linecap="round" stroke-linejoin="round"/>
<path d="M63.0127 214.373C78.2509 213.29 104.296 214.026 108.131 215.471C110.167 216.24 112.613 217.776 111.812 219.569C111.463 220.353 110.551 220.841 109.656 221.188C103.196 223.683 92.4152 222.311 85.0774 223.046C79.0861 223.65 53.817 222.319 51.371 219.965C48.5671 217.264 52.6324 215.116 63.0042 214.381L63.0127 214.373Z" fill="#4C241E" stroke="#4C241E" stroke-width="3" stroke-linecap="round" stroke-linejoin="round"/>
<path d="M90.1057 184.7C90.0545 187.765 89.9693 190.829 89.8841 193.886C89.7562 198.9 93.9663 216.603 88.4267 219.61C87.6597 220.023 86.6967 220.048 85.7933 220.056C82.9553 220.081 80.1173 220.097 77.2708 220.122C75.4555 220.139 73.3505 220.031 72.2852 218.759C71.6119 217.95 71.5608 216.884 71.5523 215.893C71.4159 200.156 74.0152 184.204 74.7141 168.426C75.4726 151.186 76.947 133.978 78.4299 116.779C79.2821 106.809 80.0662 96.8296 80.9866 86.8588C81.8303 77.7967 81.5406 68.9246 85.4183 60.2342C86.6882 59.4081 88.0006 61.242 88.1881 62.605C89.2023 69.7672 88.7932 76.2767 89.1511 83.381C89.7222 94.6322 89.8755 105.9 89.7307 117.159C89.5517 131.335 87.2251 145.808 89.0744 159.785C90.1653 168.063 90.2505 176.389 90.1057 184.716V184.7Z" fill="#BF7249" stroke="#4C241E" stroke-width="3" stroke-linecap="round" stroke-linejoin="round"/>
<path d="M52.7517 143.255C49.5387 143.982 46.7603 145.692 44.0758 147.369C38.7663 150.69 33.1926 154.358 31.0023 159.703C28.2155 166.526 31.8716 174.209 37.3856 179.661C41.1185 183.353 46.5984 186.583 52.121 185.443C55.1976 184.807 57.5839 183.353 60.865 183.502C63.6945 183.626 65.9274 185.386 68.9188 185.229C82.6484 184.518 84.0973 169.525 80.015 160.884C77.5946 155.762 73.0692 151.095 79.7679 146.221C75.4896 149.269 58.9304 141.868 52.7517 143.264V143.255Z" fill="#59804B" stroke="#4C241E" stroke-width="3" stroke-linecap="round" stroke-linejoin="round"/>
<path d="M104.159 133.433C105.685 135.523 107.347 137.588 109.545 139.166C114.514 142.718 122.125 143.198 127.63 140.29C133.136 137.382 136.127 131.318 134.738 125.875C132.82 118.382 124.315 113.888 117.65 108.824C115.878 107.478 114.156 106.016 112.017 105.156C108.037 103.554 103.102 104.363 99.6168 106.676C92.867 111.162 87.9665 124.792 88.4182 131.88C95.6197 127.51 98.9009 126.255 104.151 133.442L104.159 133.433Z" fill="#59804B" stroke="#4C241E" stroke-width="3" stroke-linecap="round" stroke-linejoin="round"/>
<path d="M76.1544 117.465C74.2624 121.951 57.3453 123.719 54.1749 127.378C46.3428 136.407 48.6694 150.26 33.0051 154.3C24.602 156.464 17.2897 153.036 14.6136 146.188C13.233 142.652 14.2983 140.86 10.8126 138.208C7.11386 135.391 3.21059 136.25 1.88108 131.046C0.747595 126.626 2.18787 121.777 5.63947 118.374C17.5794 106.61 52.2659 105.834 67.862 110.609C70.1631 111.311 72.5408 112.054 74.3135 113.516C76.1629 115.053 76.6316 116.342 76.1544 117.465Z" fill="#59804B" stroke="#4C241E" stroke-width="3" stroke-linecap="round" stroke-linejoin="round"/>
<path d="M38.1868 96.0697C47.0672 94.5579 52.8795 86.1815 62.4929 86.7349C66.4217 86.9662 70.1375 88.288 73.8959 89.3123C75.055 89.6262 76.4356 89.8823 77.3816 89.2214C78.4213 88.4945 78.285 87.0984 77.8759 85.9997C75.4981 79.6389 67.6489 76.1941 63.0127 70.8329C58.4106 65.5046 57.03 58.2847 51.5159 53.6504C43.8287 47.1822 26.3065 43.8778 21.4401 54.8565C20.5794 56.806 21.5936 59.1686 20.5794 61.1512C19.1561 63.9351 16.4374 64.6373 14.3835 66.8264C6.84115 74.8559 13.7103 84.7523 21.2186 91.0636C25.6758 94.8058 32.0847 97.1188 38.1868 96.0779V96.0697Z" fill="#59804B" stroke="#4C241E" stroke-width="3" stroke-linecap="round" stroke-linejoin="round"/>
<path d="M120.284 49.0655C125.022 48.5286 129.82 50.379 134.192 55.9716C136.042 58.3424 134.985 61.3989 137.789 63.5633C163.356 83.3479 125.525 91.493 105.915 93.1865C101.764 93.5417 97.4179 94.723 94.8952 97.54C93.7703 98.8039 93.0629 100.324 91.8186 101.505C90.5743 102.686 88.4352 103.446 86.833 102.629C87.7704 94.8635 91.1709 87.2553 92.8243 79.6718C95.0145 69.6019 107.432 50.536 120.284 49.0655Z" fill="#59804B" stroke="#4C241E" stroke-width="3" stroke-linecap="round" stroke-linejoin="round"/>
<path d="M89.0573 99.7789C89.5516 91.0472 96.7531 83.8025 103.835 77.5573C107.304 74.5008 110.883 71.4774 115.128 69.2717C119.372 67.0744 124.409 65.7444 129.3 66.3887" stroke="#4C241E" stroke-width="3" stroke-linecap="round" stroke-linejoin="round"/>
<path d="M85.7592 48.7434C86.3387 36.4679 88.0006 23.2258 81.2849 12.7511C78.5322 8.45546 68.8336 -0.00360394 62.1179 1.73117C55.7601 3.37507 58.2402 10.5207 49.3939 10.9915C31.4115 11.9498 33.2608 23.1184 39.4822 35.014C42.252 40.3174 46.9479 44.9104 52.4279 48.2478C62.2628 54.2369 78.1998 57.2934 80.9184 69.065C81.4383 69.2385 81.9582 69.412 82.4695 69.5855C85.8104 67.2311 86.066 62.9438 85.7763 59.2264C85.5206 55.8808 85.5973 52.3534 85.7677 48.7434H85.7592Z" fill="#59804B" stroke="#4C241E" stroke-width="3" stroke-linecap="round" stroke-linejoin="round"/>
<path d="M90.6937 71.4359C87.4723 62.6712 94.5885 56.3599 101.202 51.1391C103.247 49.5282 105.429 47.9008 108.054 47.3061C111.48 46.5295 115.187 47.6695 117.923 49.7017C120.659 51.7338 122.551 54.559 124.051 57.4668C126.965 63.1172 128.286 70.5685 123.48 75.0293C120.556 77.7389 115.699 78.5319 111.923 76.9211C108.148 75.3019 105.847 71.7828 102.574 69.4285C99.3014 67.0659 93.5488 66.4298 91.6738 69.825" fill="#59804B"/>
<path d="M90.6937 71.4359C87.4723 62.6712 94.5885 56.3599 101.202 51.1391C103.247 49.5282 105.429 47.9008 108.054 47.3061C111.48 46.5295 115.187 47.6695 117.923 49.7017C120.659 51.7338 122.551 54.559 124.051 57.4668C126.965 63.1172 128.286 70.5685 123.48 75.0293C120.556 77.7389 115.699 78.5319 111.923 76.9211C108.148 75.3019 105.847 71.7828 102.574 69.4285C99.3014 67.0659 93.5488 66.4298 91.6738 69.825" stroke="#4C241E" stroke-width="3" stroke-linecap="round" stroke-linejoin="round"/>
<path d="M151.433 171.218C156.283 166.675 156.41 155.258 154.212 149.501C150.786 140.538 143.286 137.564 133.724 136.754C120.897 135.664 110.338 131.591 97.6566 136.366C93.6936 137.861 89.9608 139.811 86.5859 142.148C95.5089 146.931 94.8698 156.2 93.8726 164.164C93.5317 166.84 92.8414 169.483 92.8073 172.168C92.671 182.354 102.847 191.391 114.471 193.109C127.195 195.001 128.278 180.338 138.121 176.588C142.655 174.861 148.093 174.366 151.442 171.218H151.433Z" fill="#59804B" stroke="#4C241E" stroke-width="3" stroke-linecap="round" stroke-linejoin="round"/>
<path d="M34.1301 68.6355C42.1583 68.049 49.3001 72.675 55.5556 77.0615C61.4701 81.2084 67.9046 85.5619 75.5067 86.008" stroke="#4C241E" stroke-width="3" stroke-linecap="round" stroke-linejoin="round"/>
<path d="M62.51 21.9949C70.0012 29.0579 75.1999 37.93 77.3646 47.3308C78.7708 53.4355 82.819 62.3572 81.2509 68.9328" stroke="#4C241E" stroke-width="3" stroke-linecap="round" stroke-linejoin="round"/>
<path d="M28.0536 128.758C28.1814 125.693 31.241 123.339 34.309 121.802C39.7719 119.06 46.0871 117.589 52.4022 117.597C56.2714 117.597 60.1321 118.134 63.9928 117.944C67.8535 117.746 71.8931 116.689 74.3561 114.111" stroke="#4C241E" stroke-width="3" stroke-linecap="round" stroke-linejoin="round"/>
<path d="M55.5726 169.533C53.6891 164.568 57.9759 159.372 62.9445 156.382C67.9131 153.4 73.8533 151.516 77.9697 147.683" stroke="#4C241E" stroke-width="3" stroke-linecap="round" stroke-linejoin="round"/>
<path d="M92.5687 66.9338C92.3897 63.6625 96.1311 61.3825 99.4293 59.7717C101.125 58.9373 102.881 58.0947 104.815 57.9213C108.83 57.5743 112.307 60.1682 115.221 62.5803" stroke="#4C241E" stroke-width="3" stroke-linecap="round" stroke-linejoin="round"/>
<path d="M90.1227 126.833C92.6794 124.792 95.4322 122.934 98.3298 121.273C101.193 119.629 104.5 118.134 107.901 118.564C111.267 118.993 114.088 121.249 117.48 121.488" stroke="#4C241E" stroke-width="3" stroke-linecap="round" stroke-linejoin="round"/>
<path d="M89.3812 140.348C94.4606 141.727 99.54 143.107 104.611 144.486C106.179 144.916 107.773 145.345 109.17 146.097C115.86 149.691 115.673 158.769 121.886 162.957" stroke="#4C241E" stroke-width="3" stroke-linecap="round" stroke-linejoin="round"/>
<path d="M43.9735 233.645C40.9906 233.356 37.8884 234.248 35.6896 236.016C24.832 244.772 61.223 243.352 64.1121 243.409C76.4185 243.665 88.725 243.781 101.031 244.054C105.838 244.161 124.357 244.186 126.65 239.518C128.781 235.173 121.502 231.489 117.531 232.637" stroke="#4C241E" stroke-width="3" stroke-linecap="round" stroke-linejoin="round"/>
<path d="M29.7837 332.833L45.286 243.864" stroke="#4C241E" stroke-width="3" stroke-linecap="round" stroke-linejoin="round"/>
<path d="M132.582 332.833L117.079 243.864" stroke="#4C241E" stroke-width="3" stroke-linecap="round" stroke-linejoin="round"/>
<path d="M81.2423 342.547L82.0434 245.004" stroke="#4C241E" stroke-width="3" stroke-linecap="round" stroke-linejoin="round"/>
</svg>
