<?xml version="1.0" encoding="UTF-8"?>
<svg id="Layer_1" xmlns="http://www.w3.org/2000/svg" version="1.1" viewBox="0 0 83.93 62.02">
  <!-- Generator: Adobe Illustrator 29.6.1, SVG Export Plug-In . SVG Version: 2.1.1 Build 9)  -->
  <defs>
    <style>
      .st0, .st1, .st2, .st3 {
        stroke: #4c241e;
        stroke-miterlimit: 10;
      }

      .st0, .st4 {
        fill: #dd9e59;
      }

      .st5 {
        fill: #feecec;
      }

      .st6 {
        fill: #fff;
      }

      .st7 {
        fill: #430000;
      }

      .st1 {
        fill: #ffd899;
      }

      .st2, .st8 {
        fill: #4c241e;
      }

      .st3 {
        fill: #ffe799;
      }

      .st9 {
        fill: #ffe6c2;
      }
    </style>
  </defs>
  <path class="st8" d="M50.24,19.24C58.31,5.26,70.66-1.57,77.82,3.98c7.16,5.56,6.43,21.39-1.64,35.38-1.72,2.98-3.64,5.63-5.65,7.91-1.04,9.58-4.67,18.24-9.78,21.99-7.37,5.41-15.05-1.45-17.15-15.31-.86-5.67-.65-11.64.41-17.08.77-5.61,2.85-11.78,6.23-17.62h0Z"/>
  <path class="st0" d="M12.38,77.06c-2.13-2.5-3.4-5.25-3.56-7.36-.14-1.11-.08-2.29.19-3.46,1.09-4.71,5.27-7.67,9.35-6.61,4.07,1.06,6.49,5.74,5.41,10.45-.42,1.82-1.3,3.38-2.46,4.54.95,1.94,1.32,3.77,1.01,5.09-.07.99-.73,2.22-1.81,3.19-1.54,1.39-3.35,1.73-4.04.75-.47-.67-.29-1.79.38-2.88-1.47-.78-3.04-2.06-4.45-3.72h0Z"/>
  <path class="st0" d="M26.68,39.56c10.35-2.71,22.17,3.7,26.4,14.31,3.77,9.47.22,19.08-7.94,22.97-.07.05-.14.11-.21.16-.42,4.59-2.09,8.39-4.61,10-1.1.85-2.49,1.59-4.05,2.09-3.93,1.26-7.41.51-7.76-1.69-.22-1.38.85-3,2.65-4.33-1.03-1.71-1.89-3.81-2.45-6.2-5.74-2.39-10.68-7.1-13.12-13.21-4.22-10.61.74-21.41,11.09-24.12h0Z"/>
  <rect class="st5" x=".11" y="59.05" width="83.93" height="35.06"/>
  <path class="st3" d="M12.52,43.71c3.29-2.95,6.84-3.01,7.96-.17-1.98,2.35-3.27,5.24-3.74,8.4,1.32,1.11,2.31,2.59,2.61,4.11.54,2.78-1.42,4.64-4.39,4.16-2.77-.45-5.43-2.79-6.22-5.37-.09-.16-.17-.33-.24-.51-1.1-2.9.7-7.66,4.01-10.62Z"/>
  <path class="st3" d="M48.41,40.05c.16-.49.58-1.93,1.01-2.91,2.52-5.68,7.35-9.15,10.79-7.75,3.44,1.4,4.18,7.15,1.66,12.83-1.86,4.2-4.99,7.19-7.88,7.9-1.22.53-2.62.91-4.13,1.08-5.14.58-9.6-1.44-9.97-4.53-.37-3.06,3.44-6.01,8.52-6.62Z"/>
  <path class="st1" d="M8.63,21.73c.98-.54,3.18-4.93,5.79-6.68.4-.27.44-.86.08-1.19-.43-.39-.79-.86-1.04-1.37-.55-1.12-.57-2.41-.08-3.56.25-.57.6-1.1,1.05-1.54.48-.46,1.1-.86,1.77-1,.37-.08.77-.08,1.12.05.3.11.56.29.77.52.42.46.65,1.06.82,1.64.22.76.38,1.54.49,2.33.05.38.09.77.12,1.16.01.16.02.32.02.48,2.12-.69,4.41-1.07,6.8-1.07,4.02,0,7.76,1.07,10.89,2.9.02-.36.06-.72.11-1.08.11-.79.27-1.57.49-2.33.17-.59.4-1.18.82-1.64.21-.23.47-.41.77-.52.36-.13.76-.13,1.12-.05.67.14,1.29.54,1.77,1,.46.44.8.97,1.05,1.54.49,1.14.46,2.44-.08,3.56-.35.72-.9,1.34-1.58,1.79-.4.27-.48.81-.14,1.17,1.93,2.05,3.36,4.49,4.1,7.17.1.36.31.68.59.92,2.32,1.96,3.68,4.36,3.68,6.95,0,4.92-4.92,9.15-11.96,10.99-.24.06-.47.16-.68.28-3.14,1.85-6.91,2.94-10.95,2.94-6.66,0-12.56-2.93-16.17-7.42-.06-.08-.14-.14-.24-.19-4.39-2.2-7.18-5.51-7.18-9.22,0-3.18,2.07-6.08,5.43-8.22l.45-.29Z"/>
  <path class="st9" d="M20.12,32.78l-.34.05c-.55.08-.94.58-.86,1.11l.2,1.32c.03.22.25.37.47.34l1.52-.21c.23-.03.39-.24.35-.46l-.2-1.32c-.08-.54-.59-.91-1.15-.83Z"/>
  <path class="st2" d="M13.92,21.82c.06-.43.32-.83.65-1.11.28-.23.61-.39.96-.47.1-.04.2-.07.31-.09.08-.01.17-.02.26-.02.01,0,.02,0,.04,0,.08,0,.16,0,.25.02.04,0,.08.02.12.03.06.02.12.04.18.06.01,0,.02.01.03.02.04.01.07.02.11.04.1.05.18.1.26.17.06.05.11.11.16.17,0,0,0,0,0,0,0,0,.01.02.02.03.01.02.02.03.04.05,0,0,0,0,0,.01.11.17.16.38.15.59-.02.29-.13.54-.25.8-.16.36-.34.72-.61,1.02-.29.32-.7.55-1.15.55-.44,0-.89-.2-1.18-.52-.16-.18-.28-.4-.34-.63-.06-.24-.07-.48-.03-.73h0Z"/>
  <path class="st2" d="M28.12,23.17s.02-.06.02-.09c.01-.08.03-.16.05-.23.06-.17.15-.33.27-.47.1-.12.24-.21.38-.28.08-.04.16-.07.25-.09.09-.02.18-.03.27-.05.32-.03.65.05.93.2.15.09.3.19.42.31,0,0,0,0,0,0,.02.02.04.03.06.04.17.15.33.32.48.49.16.18.33.37.47.57.07.11.13.23.18.35.05.12.07.24.08.36.02.18,0,.38-.09.55-.02.08-.04.16-.09.24-.03.06-.07.1-.12.15-.16.27-.43.46-.73.57-.03.02-.06.04-.1.06-.15.05-.31.08-.47.09-.16,0-.32,0-.48-.03-.29-.05-.58-.16-.82-.31-.27-.17-.5-.39-.67-.65-.32-.38-.3-1.8-.3-1.8Z"/>
  <path class="st2" d="M28.08,23.47"/>
  <path class="st6" d="M29.47,23.78c-.37,0-.67-.28-.67-.62s.3-.62.67-.62.68.28.68.62-.3.62-.68.62Z"/>
  <path class="st6" d="M16.31,21.82c-.37,0-.68-.28-.68-.62s.3-.62.68-.62.68.28.68.62-.3.62-.68.62Z"/>
  <path class="st7" d="M38.75,15.67c-.81-.3-1.07-1.52-.59-2.73.48-1.21,1.52-1.94,2.33-1.64.81.3,1.07,1.52.59,2.73-.48,1.21-1.52,1.94-2.33,1.64Z"/>
  <path class="st7" d="M15.66,12.16c-.67-1.12-.6-2.37.14-2.79.75-.42,1.89.15,2.56,1.27.67,1.12.6,2.37-.14,2.79-.75.42-1.89-.15-2.56-1.27Z"/>
  <path class="st9" d="M37.08,41.7c-4.82,0-8.73-3.61-8.73-8.07s3.91-8.07,8.73-8.07,8.73,3.61,8.73,8.07-3.91,8.07-8.73,8.07Z"/>
  <path class="st9" d="M9.2,35.19c-3.27,0-5.92-2.52-5.92-5.64s2.65-5.64,5.92-5.64,5.92,2.52,5.92,5.64-2.65,5.64-5.92,5.64Z"/>
  <path class="st4" d="M13.64,31.85c.36,3.95,4.35,7.15,8.92,7.15s7.98-3.2,7.63-7.15c-.36-3.95-4.35-7.15-8.92-7.15s-7.99,3.2-7.63,7.15Z"/>
  <path class="st8" d="M16.02,31.95s.06-.1.1-.12c.05-.02.1-.03.16-.02.13.01.22.09.24.19,0,.03.01.07.02.1,0,.03.02.06.03.09,0-.02-.01-.04-.02-.05.03.11.09.22.15.32.07.1.16.2.26.29.1.09.22.17.35.24.12.06.24.11.36.15.12.03.24.06.37.07.13.01.25.01.38,0,.15-.02.29-.05.42-.09.13-.05.26-.1.37-.17.11-.07.21-.15.29-.24.07-.08.13-.16.17-.25.01-.03.02-.05.03-.08,0-.01.01-.02.02-.04-.06-.1-.12-.21-.16-.31-.14-.31-.21-.64-.22-.96,0-.18,0-.36.02-.53.02-.16.04-.32.09-.48.02-.07.04-.14.07-.21-1.49-.25-2.66-1.12-2.77-2.17-.13-1.24,1.27-2.24,3.14-2.24s3.49,1,3.63,2.24c.13,1.24-1.27,2.24-3.14,2.24-.11,0-.22,0-.34-.01v.02c-.03.15-.05.3-.07.45-.01.08-.02.16-.03.23,0,.02,0,.04,0,.06h0s0,.09,0,.13c0,.16,0,.31.02.47,0,.07.02.15.04.23,0,.04.02.08.03.12,0,0,.02.06,0,.03-.01-.03,0,0,0,.01,0,.01,0,.02.01.03.04.13.09.25.16.38.03.06.07.12.1.18,0,.01.02.02.02.04,0,0,0,.01.01.02.02.02.03.05.05.07.09.12.18.23.29.33.03.02.05.05.08.07.01.01.02.02.04.03-.06-.05,0,0,.01,0,.06.05.12.1.18.14.06.05.13.09.2.13.01,0,.03.02.04.03,0,0,.01,0,.01,0,.03.02.07.03.1.05.07.03.15.07.22.1.04.01.07.03.1.04.02,0,.04.01.05.02h0c.16.05.32.08.48.1.02,0,.03,0,.05,0h0s.08,0,.12,0c.08,0,.16,0,.24,0,.04,0,.07,0,.11,0,0,0,.04,0,.04,0h.01c.08-.01.15-.02.23-.04.04,0,.07-.02.1-.02.02,0,.04-.01.06-.02,0,0,.02,0,.03-.01.06-.02.12-.04.17-.07.03-.01.06-.03.09-.05.02,0,.03-.02.05-.03,0,0,.01,0,.02-.01,0,0,0,0,0,0,.05-.03.1-.07.15-.11.02-.02.04-.04.06-.06.01-.01.02-.02.03-.03.04-.05.07-.09.1-.14,0-.01.01-.02.02-.03,0,0,0-.01,0-.02s0-.01,0-.02c0-.01.01-.03.01-.04.02-.05.03-.1.04-.16,0-.02,0-.05.01-.08v-.03c0-.05,0-.11-.01-.16,0-.02,0-.05-.01-.08,0,0,0,0,0-.01,0-.01,0-.02,0-.03-.02-.05-.04-.1-.07-.15-.01-.02-.03-.04-.04-.07-.01-.01-.02-.03-.03-.04-.04-.05-.08-.09-.12-.13,0,0,0,0,0,0-.01,0-.02-.02-.03-.02-.02-.02-.05-.04-.08-.06-.11-.07-.13-.21-.03-.28.1-.07.26-.07.38,0,.55.35.73.93.58,1.4-.08.24-.24.47-.48.64-.26.18-.59.31-.95.36-.37.05-.75.05-1.13-.02-.38-.07-.73-.2-1.05-.38-.29-.16-.55-.37-.76-.59-.1.15-.23.29-.39.4-.28.19-.64.34-1.03.39-.2.03-.4.04-.6.02-.23-.02-.44-.06-.66-.13-.39-.12-.72-.34-.97-.58-.14-.14-.26-.29-.34-.46-.09-.17-.12-.36-.11-.54h.01Z"/>
</svg>