<svg width="1305" height="809" viewBox="0 0 1305 809" fill="none" xmlns="http://www.w3.org/2000/svg">
<g clip-path="url(#clip0_1127_6965)">
<path d="M1280.62 43.4697H24.383C11.5876 43.4697 1.21484 52.8563 1.21484 64.4353V786.935C1.21484 798.514 11.5876 807.901 24.383 807.901H1280.62C1293.41 807.901 1303.79 798.514 1303.79 786.935V64.4353C1303.79 52.8563 1293.41 43.4697 1280.62 43.4697Z" fill="#96AFD7" stroke="#3A3530" stroke-width="2" stroke-linecap="round" stroke-linejoin="round"/>
<path d="M1272.98 43.3345H31.0529C18.2575 43.3345 7.88477 52.7211 7.88477 64.3V774.931C7.88477 786.51 18.2575 795.896 31.0529 795.896H1272.98C1285.77 795.896 1296.14 786.51 1296.14 774.931V64.3C1296.14 52.7211 1285.77 43.3345 1272.98 43.3345Z" fill="#96AFD7" stroke="#3A3530" stroke-width="2" stroke-linecap="round" stroke-linejoin="round"/>
<path d="M1267.73 765.209H36.2285C36.2285 765.209 235.418 597.907 652.295 633.616C652.295 633.616 1133.89 627.343 1267.74 765.209H1267.73Z" fill="#EFEFEF" stroke="#3A3530" stroke-width="2" stroke-linecap="round" stroke-linejoin="round"/>
<path d="M673.706 65.6528V743.736C673.706 743.736 936.795 678.777 1167.45 740.338C1198.26 748.555 1241.31 758.531 1268.14 764.584L1266.64 85.5532C1266.64 85.5532 929.695 -85.8064 673.706 65.6359V65.6528Z" fill="#EFEFEF" stroke="#3A3530" stroke-width="2" stroke-linecap="round" stroke-linejoin="round"/>
<path d="M1207 62.8633V749.637" stroke="#3A3530" stroke-width="2" stroke-linecap="round" stroke-linejoin="round"/>
<path d="M1229.4 74.0054L1230.86 754.642" stroke="#3A3530" stroke-width="2" stroke-linecap="round" stroke-linejoin="round"/>
<path d="M1249.02 84.0654V759.647" stroke="#3A3530" stroke-width="2" stroke-linecap="round" stroke-linejoin="round"/>
<path d="M630.322 65.6528V743.736C630.322 743.736 348.007 682.649 117.354 744.193C86.5438 752.41 62.7218 758.531 35.8916 764.584L37.3863 85.5532C37.3863 85.5532 374.333 -85.8064 630.322 65.6359V65.6528Z" fill="#EFEFEF" stroke="#3A3530" stroke-width="2" stroke-linecap="round" stroke-linejoin="round"/>
<path d="M651.827 65.213C383.619 -65.9908 118.12 44.8223 118.12 44.8223V745.072C314.395 696.344 624.698 745.14 650.931 749.4V749.688C650.931 749.688 651.23 749.637 651.827 749.536C652.425 749.637 652.724 749.688 652.724 749.688V749.4C678.975 745.14 989.633 696.344 1186.11 745.072V44.8223C1186.11 44.8223 920.335 -65.9908 651.827 65.213Z" fill="white" stroke="#3A3530" stroke-width="2" stroke-linecap="round" stroke-linejoin="round"/>
<path d="M97.0254 62.8628V749.417" stroke="#3A3530" stroke-width="2" stroke-linecap="round" stroke-linejoin="round"/>
<path d="M74.624 74.0049L75.3901 755.453" stroke="#3A3530" stroke-width="2" stroke-linecap="round" stroke-linejoin="round"/>
<path d="M55.0059 84.0649V759.071" stroke="#3A3530" stroke-width="2" stroke-linecap="round" stroke-linejoin="round"/>
</g>
<defs>
<clipPath id="clip0_1127_6965">
<rect width="1305" height="809" fill="white"/>
</clipPath>
</defs>
</svg>
