<svg width="114" height="70" viewBox="0 0 114 70" fill="none" xmlns="http://www.w3.org/2000/svg">
<g clip-path="url(#clip0_1139_7105)">
<path d="M3.2388 30.9197C3.92952 30.6951 4.57421 30.4705 5.20353 29.909C6.35474 28.8421 6.95336 28.3368 7.56734 27.8502C8.13527 27.3822 8.70319 26.9143 9.793 25.9036C10.8982 24.8929 11.4507 24.3502 12.0033 23.8448C12.5712 23.302 13.1238 22.778 14.2597 21.7298C15.3802 20.7004 15.9635 20.1764 16.5314 19.671C17.0993 19.1657 17.6672 18.6603 18.7877 17.6309L23.2851 13.4945C24.3596 12.5026 24.8815 11.9598 25.388 11.417C25.9252 10.8368 26.4931 10.2379 27.6597 9.17101C28.8263 8.08545 29.4709 7.59882 30.0696 7.11219C30.6528 6.64428 31.2208 6.21379 32.2952 5.22182C32.9092 4.66032 33.2929 3.79936 33.6613 2.97583C34.2599 1.62823 35.5186 -1.17925 38.3736 0.617538C41.2286 2.39561 40.1388 5.27797 39.6169 6.66299C39.2945 7.52395 38.9722 8.40363 38.9569 9.33946C38.9415 10.9491 38.5885 12.1469 38.3275 13.0079C38.0922 13.819 38.1638 14.4491 38.5424 14.8983C38.921 15.3475 39.4634 15.4286 40.1695 15.1416C40.9216 14.8047 41.9346 14.3555 43.3161 14.3555C44.8203 14.3555 45.5571 14.3929 46.3092 14.4491C47.0153 14.4865 47.7367 14.5427 49.1489 14.5427C50.561 14.5427 51.3592 14.5427 52.0959 14.5614C52.8174 14.5614 53.5388 14.5801 54.997 14.5801C56.4552 14.5801 57.0385 14.4865 57.7599 14.4117C58.512 14.3181 59.2948 14.2058 60.8298 14.2058C62.2726 14.2058 62.994 14.1871 63.7154 14.1683C64.4522 14.1496 65.189 14.1309 66.6625 14.1309C68.1361 14.1309 68.8728 14.1309 69.6096 14.1496C70.331 14.1496 71.0525 14.1683 72.5106 14.1683H78.3588C79.8323 14.1683 80.9068 14.7111 81.6896 15.1229C82.4878 15.5346 82.6873 15.6282 82.9943 15.3662C83.4855 15.4972 84.0074 15.5721 84.5599 15.6095C85.0818 15.7592 85.619 15.8341 86.1716 15.8154H86.8777C87.8908 15.8154 88.8424 15.5721 89.748 15.1416C94.8133 14.9544 99.8326 13.8502 104.898 13.7566C106.771 13.7191 108.843 13.6817 110.715 14.056C111.467 14.655 112.266 15.1978 113.079 15.6844C113.048 16.4705 113.018 17.2753 113.018 18.8475C113.018 20.4758 113.064 21.2994 113.11 22.1229C113.156 23.0026 113.202 23.8822 113.202 25.6416C113.202 27.401 113.141 28.3181 113.094 29.179C113.048 30.0213 112.987 30.8074 112.987 32.4357C112.987 34.0641 113.033 34.8502 113.094 35.6924C113.156 36.5534 113.202 37.4705 113.202 39.2298C113.202 40.9892 113.141 41.9063 113.094 42.7673C113.048 43.6095 112.987 44.3956 112.987 46.024C112.987 46.9785 113.233 47.671 113.494 48.4197C113.969 49.7673 114.675 51.8074 112.711 54.1469C110.761 56.4678 109.134 55.794 107.968 55.2887C107.338 55.0266 106.755 54.7833 105.942 54.7833C104.453 54.7833 103.701 54.7084 102.964 54.6523C102.258 54.5961 101.582 54.54 100.216 54.54C98.8502 54.54 98.2055 54.6336 97.5148 54.7272C96.7627 54.8207 95.9952 54.933 94.491 54.933C92.9868 54.933 92.2346 54.8582 91.4979 54.7833C90.7918 54.7084 90.1318 54.6523 88.7657 54.6523C87.3075 54.6523 86.5861 54.6336 85.8493 54.5961C85.1432 54.5774 84.4371 54.54 83.025 54.54C81.6128 54.54 80.8914 54.54 80.1854 54.5587C79.4639 54.5587 78.7425 54.5774 77.2997 54.5774C75.9489 54.5774 75.2889 54.6523 74.5828 54.7459C73.846 54.8395 73.0786 54.933 71.559 54.933C70.0394 54.933 69.2719 54.8395 68.5352 54.7459C67.8444 54.6523 67.1844 54.5774 65.8337 54.5774C64.4829 54.5774 63.7461 54.6336 63.0554 54.671C62.3187 54.7272 61.5819 54.7646 60.1083 54.7646C58.6348 54.7646 57.898 54.7084 57.1613 54.671C56.4705 54.6336 55.7645 54.5774 54.383 54.5774C53.0016 54.5774 52.2187 54.5774 51.482 54.54C50.7759 54.54 50.0698 54.5026 48.6423 54.5026C47.2148 54.5026 46.5395 54.54 45.8487 54.5774C45.112 54.6149 44.3752 54.671 42.9017 54.671C41.5663 54.671 40.5992 54.2592 39.8932 53.9598C38.9569 53.5667 38.9569 53.5667 38.4043 54.278C37.9847 54.802 37.9029 55.4758 38.1587 56.2994C38.4503 57.2352 38.8341 58.5079 38.8187 60.3047C38.8187 61.3528 39.0643 62.2512 39.3099 63.1122C39.7857 64.778 40.5225 67.3234 37.8517 69.3448C37.207 69.8314 36.6084 70.0748 36.0405 70.0748C35.8256 70.0748 35.6107 70.0373 35.3958 69.9812C34.2139 69.6068 33.646 68.3341 33.1548 67.2298C32.7864 66.4063 32.4027 65.5453 31.804 65.0026C30.7296 64.0293 30.177 63.5614 29.6091 63.1122C29.0258 62.6256 28.4425 62.1389 27.3067 61.1282C26.2476 60.1737 25.695 59.7245 25.127 59.294C24.5284 58.8261 23.9144 58.3582 22.7786 57.3101C21.5967 56.2432 21.0595 55.6068 20.5376 54.9892C20.0617 54.4277 19.6013 53.9036 18.5729 52.9678C17.5137 51.9945 16.9458 51.5641 16.3932 51.1149C15.7946 50.6469 15.196 50.1603 14.0448 49.1309C13.001 48.1764 12.4484 47.7646 11.8805 47.3528C11.2665 46.9036 10.6372 46.4357 9.48602 45.3689C8.41156 44.3956 7.87433 43.6095 7.44454 42.9731C6.95336 42.2432 6.67706 41.8502 5.54121 41.2512C4.81979 40.8769 4.14442 40.671 3.54579 40.4838C2.0569 40.0346 8.26967e-05 39.417 0.0461309 35.5801C0.0768297 32.0427 2.08759 31.3876 3.3002 30.9945L3.2388 30.9197Z" fill="#231815"/>
<path d="M6.13955 31.3875C8.39591 29.31 8.47266 29.4597 10.729 27.3822C12.97 25.3046 12.9547 25.2672 15.1957 23.2084C17.452 21.1308 17.4674 21.1683 19.7238 19.1094C21.228 17.7244 22.7271 16.3456 24.2211 14.9731C26.4775 12.8955 26.3547 12.7084 28.5957 10.6308C30.8521 8.55329 30.9749 8.75917 33.2312 6.70035C35.4876 4.62281 35.1806 0.692327 37.6979 2.26452C40.2152 3.83671 37.483 5.83939 37.437 9.30195C37.4063 12.7645 35.4569 13.8126 37.483 16.2271C39.5705 18.7164 40.4148 16.2271 43.3311 16.2271C46.2475 16.2271 46.2475 16.3955 49.1639 16.3955C52.0803 16.3955 52.0803 16.433 54.9967 16.433C57.9131 16.433 57.9131 16.0586 60.8295 16.0586C63.7458 16.0586 63.7458 15.9838 66.6622 15.9838C69.5786 15.9838 69.5786 16.0399 72.495 16.0399C75.4114 16.0399 75.4114 16.0399 78.3431 16.0399C80.5227 16.0399 81.5972 17.5934 82.8866 17.3688C83.4698 17.5185 84.0685 17.5747 84.6978 17.4811C92.219 16.3581 100.124 16.0399 107.86 15.6656C108.443 15.8902 109.073 16.0212 109.763 16.0774C110.27 16.5078 110.822 16.9009 111.467 17.1629C111.467 17.6308 111.452 18.1362 111.452 18.81C111.452 22.1977 111.636 22.1977 111.636 25.6041C111.636 29.0105 111.421 28.9918 111.421 32.3982C111.421 35.8046 111.636 35.7859 111.636 39.1923C111.636 42.5987 111.421 42.5987 111.421 45.9864C111.421 49.3741 113.601 50.4036 111.605 52.7618C109.548 55.195 108.75 52.8741 105.895 52.8741C103.04 52.8741 103.025 52.6308 100.17 52.6308C97.315 52.6308 97.2996 53.0052 94.4447 53.0052C91.5897 53.0052 91.5743 52.7244 88.7193 52.7244C85.8643 52.7244 85.849 52.6121 82.994 52.6121C80.139 52.6121 80.1237 52.6683 77.2533 52.6683C74.383 52.6683 74.383 53.0239 71.5126 53.0239C68.6423 53.0239 68.6423 52.6495 65.772 52.6495C62.9016 52.6495 62.9016 52.8367 60.0466 52.8367C57.1917 52.8367 57.1763 52.6495 54.306 52.6495C51.4356 52.6495 51.4356 52.5934 48.5653 52.5934C45.6949 52.5934 45.695 52.7618 42.8246 52.7618C39.9543 52.7618 39.2022 50.4223 37.2067 52.949C35.1039 55.6442 37.2374 56.5052 37.2067 60.2298C37.176 63.9544 39.5552 65.7512 36.9611 67.7164C34.628 69.4945 34.8429 65.4517 32.648 63.449C30.453 61.4463 30.3609 61.5586 28.1659 59.556C25.9556 57.5533 25.8482 57.7405 23.6379 55.7378C21.4275 53.7351 21.6271 53.3982 19.4321 51.3955C17.2218 49.3929 17.1144 49.58 14.9041 47.5586C12.6937 45.556 12.5402 45.7993 10.3299 43.7966C8.11962 41.7939 8.6108 40.7832 6.07815 39.4544C3.26921 37.9945 1.48868 38.8929 1.51938 35.5239C1.55008 32.08 3.88318 33.4651 6.1242 31.3875H6.13955Z" fill="#96AFD7"/>
</g>
<defs>
<clipPath id="clip0_1139_7105">
<rect width="114" height="70" fill="white" transform="matrix(-1 0 0 1 114 0)"/>
</clipPath>
</defs>
</svg>
