<svg width="19" height="19" viewBox="0 0 19 19" fill="none" xmlns="http://www.w3.org/2000/svg">
<path d="M10.4808 0.779585C11.8605 0.604827 13.2539 1.20191 14.5243 2.98832C15.0617 3.7456 14.7566 4.72619 15.5717 5.41551C23.0075 11.7456 12.0017 14.3524 6.30072 14.8961C5.09404 15.0126 3.82817 15.3864 3.09505 16.2893C2.7672 16.6922 2.56229 17.1776 2.19801 17.5563C1.83373 17.9349 1.21446 18.1776 0.75 17.9155C1.02321 15.4301 2.01132 12.998 2.49399 10.5708C3.13148 7.34755 6.74241 1.2456 10.4808 0.779585Z" fill="#59804B" stroke="#4C241E" stroke-width="1.5" stroke-linecap="round" stroke-linejoin="round"/>
<path d="M1.39648 17.0078C1.53764 14.2117 3.63681 11.8962 5.69499 9.89617C6.70587 8.92044 7.74407 7.94957 8.97807 7.24569C10.2121 6.5418 11.6783 6.11947 13.099 6.32335" stroke="#4C241E" stroke-width="1.5" stroke-linecap="round" stroke-linejoin="round"/>
</svg>
