<?xml version="1.0" encoding="UTF-8"?>
<svg xmlns="http://www.w3.org/2000/svg" version="1.1" viewBox="0 0 382.96 222.26">
  <!-- Generator: Adobe Illustrator 29.6.1, SVG Export Plug-In . SVG Version: 2.1.1 Build 9)  -->
  <defs>
    <style>
      .st0, .st1 {
        fill: #bf7249;
      }

      .st2 {
        fill: #a95c40;
      }

      .st2, .st1 {
        stroke: #4c241e;
        stroke-linecap: round;
        stroke-linejoin: round;
        stroke-width: 2.53px;
      }

      .st3 {
        fill: #e5b17f;
      }

      .st4 {
        display: none;
      }

      .st5 {
        fill: #4c241e;
      }
    </style>
  </defs>
  <g id="_x30_" class="st4">
    <g>
      <g>
        <path class="st3" d="M55.2,62.95c-.29,0-.57-.12-.78-.32-.21-.21-.32-.49-.32-.78v-21.18c0-.61.49-1.1,1.1-1.1l101.87-.22c.29,0,.57.12.78.32.21.21.32.49.32.78v21.18c0,.61-.49,1.1-1.1,1.1,0,0-101.87.22-101.87.22Z"/>
        <path class="st5" d="M157.08,40.45v21.18l-101.87.22v-21.18l101.87-.22M157.08,38.25h0l-101.87.22c-1.21,0-2.2.99-2.2,2.2v21.18c0,.58.23,1.14.65,1.56.41.41.97.64,1.55.64h0l101.87-.22c1.21,0,2.2-.99,2.2-2.2v-21.18c0-.58-.23-1.14-.65-1.56-.41-.41-.97-.64-1.55-.64h0Z"/>
      </g>
      <g>
        <path class="st3" d="M184,78.01c-.18,0-.37-.05-.54-.14l-26.92-15.06c-.35-.19-.56-.56-.56-.96v-21.18c0-.39.21-.75.54-.95.17-.1.36-.15.56-.15s.37.05.54.14l26.92,15.06c.35.19.56.56.56.96v21.18c0,.39-.21.75-.54.95-.17.1-.36.15-.56.15h0Z"/>
        <path class="st5" d="M157.08,40.67l26.92,15.06v21.18l-26.92-15.06v-21.18M157.08,38.47c-.38,0-.77.1-1.11.3-.67.39-1.09,1.12-1.09,1.9v21.18c0,.8.43,1.53,1.13,1.92l26.92,15.06c.33.19.7.28,1.07.28s.77-.1,1.11-.3c.67-.39,1.09-1.12,1.09-1.9v-21.18c0-.8-.43-1.53-1.13-1.92l-26.92-15.06c-.33-.19-.7-.28-1.07-.28h0Z"/>
      </g>
    </g>
    <g>
      <g>
        <rect class="st3" x="54.1" y="61.71" width="104.07" height="95.94" rx="1.1" ry="1.1"/>
        <path class="st5" d="M157.08,62.81v93.74H55.2V62.81h101.87M157.08,60.61H55.2c-1.22,0-2.2.98-2.2,2.2v93.74c0,1.22.98,2.2,2.2,2.2h101.87c1.22,0,2.2-.98,2.2-2.2V62.81c0-1.22-.98-2.2-2.2-2.2h.01Z"/>
      </g>
      <g>
        <path class="st3" d="M157.08,157.67c-.61,0-1.1-.49-1.1-1.1V62.78c0-.39.21-.75.54-.95.17-.1.36-.15.56-.15s.37.05.54.14l26.92,15.09c.35.19.56.56.56.96v78.7c0,.61-.49,1.1-1.1,1.1h-26.92,0Z"/>
        <path class="st5" d="M157.08,62.78l26.92,15.09v78.7h-26.92V62.78M157.08,60.58c-.38,0-.77.1-1.11.3-.67.39-1.09,1.12-1.09,1.9v93.79c0,1.22.98,2.2,2.2,2.2h26.92c1.22,0,2.2-.98,2.2-2.2v-78.7c0-.8-.43-1.53-1.12-1.92l-26.92-15.09c-.33-.19-.71-.28-1.08-.28h0Z"/>
      </g>
    </g>
  </g>
  <g id="_x31_">
    <g>
      <g>
        <rect class="st3" x="54.11" y="61.69" width="104.07" height="95.94" rx="1.1" ry="1.1"/>
        <path class="st5" d="M157.09,62.79v93.74H55.21V62.79h101.87M157.09,60.59H55.21c-1.22,0-2.2.98-2.2,2.2v93.74c0,1.22.98,2.2,2.2,2.2h101.87c1.22,0,2.2-.98,2.2-2.2V62.79c0-1.22-.98-2.2-2.2-2.2h.01Z"/>
      </g>
      <g>
        <path class="st3" d="M157.09,157.65c-.61,0-1.1-.49-1.1-1.1V62.76c0-.39.21-.75.54-.95.17-.1.36-.15.56-.15s.37.05.54.14l26.92,15.09c.35.19.56.56.56.96v78.7c0,.61-.49,1.1-1.1,1.1h-26.92,0Z"/>
        <path class="st5" d="M157.09,62.76l26.92,15.09v78.7h-26.92V62.76M157.09,60.56c-.38,0-.77.1-1.11.3-.67.39-1.09,1.12-1.09,1.9v93.79c0,1.22.98,2.2,2.2,2.2h26.92c1.22,0,2.2-.98,2.2-2.2v-78.7c0-.8-.43-1.53-1.12-1.92l-26.92-15.09c-.33-.19-.71-.28-1.08-.28h0Z"/>
      </g>
    </g>
    <g>
      <g>
        <path class="st3" d="M82.13,52.88c-.29,0-.57-.12-.78-.32-.21-.21-.32-.49-.32-.78v-21.18c0-.61.49-1.1,1.1-1.1l101.87-.22c.29,0,.57.12.78.32.21.21.32.49.32.78v21.18c0,.61-.49,1.1-1.1,1.1,0,0-101.87.22-101.87.22Z"/>
        <path class="st5" d="M184.01,30.39v21.18l-101.87.22v-21.18l101.87-.22M184.01,28.19h0l-101.87.22c-1.21,0-2.2.99-2.2,2.2v21.18c0,.58.23,1.14.65,1.56.41.41.97.64,1.55.64h0l101.87-.22c1.21,0,2.2-.99,2.2-2.2v-21.18c0-.58-.23-1.14-.65-1.56-.41-.41-.97-.64-1.55-.64h0Z"/>
      </g>
      <g>
        <path class="st3" d="M82.13,52.88c-.19,0-.37-.05-.54-.14l-26.92-15.06c-.35-.19-.56-.56-.56-.96V15.54c0-.39.21-.75.54-.95.17-.1.36-.15.56-.15s.37.05.54.14l26.92,15.06c.35.19.56.56.56.96v21.18c0,.39-.21.75-.54.95-.17.1-.36.15-.56.15Z"/>
        <path class="st5" d="M55.21,15.54l26.92,15.06v21.18l-26.92-15.06V15.54M55.21,13.34c-.38,0-.77.1-1.11.3-.67.39-1.09,1.12-1.09,1.9v21.18c0,.8.43,1.53,1.13,1.92l26.92,15.06c.33.19.7.28,1.07.28s.77-.1,1.11-.3c.67-.39,1.09-1.12,1.09-1.9v-21.18c0-.8-.43-1.53-1.13-1.92l-26.91-15.06c-.33-.19-.7-.28-1.07-.28h0Z"/>
      </g>
      <g>
        <path class="st3" d="M55.21,38.14c-.29,0-.57-.12-.78-.32-.21-.21-.32-.49-.32-.78V15.54c0-.29.12-.57.32-.78s.49-.32.78-.32l101.87.11c.61,0,1.1.49,1.1,1.1v21.18c0,.61-.49,1.1-1.1,1.1l-101.87.22h0Z"/>
        <path class="st5" d="M55.21,15.54l101.87.11v21.18l-101.87.22V15.54M55.21,13.34c-.58,0-1.14.23-1.55.64-.41.41-.65.97-.65,1.56v21.5c0,.58.23,1.14.65,1.56.41.41.97.64,1.55.64h0l101.87-.22c1.21,0,2.2-.99,2.2-2.2V15.65c0-1.21-.98-2.2-2.2-2.2l-101.87-.11h0Z"/>
      </g>
      <g>
        <path class="st3" d="M184.01,52.66c-.19,0-.37-.05-.54-.14l-26.07-14.64c-.35-.2-.57-.57-.56-.97l.22-21.33c0-.39.21-.75.55-.94.17-.1.36-.15.55-.15s.38.05.55.15l25.85,14.79c.34.2.55.56.55.95v21.18c0,.39-.21.75-.54.95-.17.1-.36.15-.56.15h0Z"/>
        <path class="st5" d="M158.16,15.59l25.85,14.79v21.18l-26.07-14.64.22-21.33M158.16,13.39c-.38,0-.75.1-1.09.29-.68.39-1.1,1.11-1.11,1.89l-.22,21.33c0,.8.42,1.55,1.12,1.94l26.07,14.64c.33.19.71.28,1.08.28s.77-.1,1.11-.3c.67-.39,1.09-1.12,1.09-1.9v-21.18c0-.79-.42-1.52-1.11-1.91l-25.85-14.79c-.34-.19-.72-.29-1.09-.29h0Z"/>
      </g>
    </g>
  </g>
  <g id="_x32_" class="st4">
    <g>
      <g>
        <path class="st0" d="M78.94,48.52c-.46,0-.88-.29-1.03-.72l-14.4-39.56c-.12-.34-.07-.71.13-1.01.21-.29.54-.47.9-.47h100.07c.46,0,.88.29,1.03.72l14.4,39.56c.12.34.07.71-.13,1.01-.21.29-.54.47-.9.47h-100.07Z"/>
        <path class="st5" d="M164.61,7.86l14.4,39.56h-100.07l-14.4-39.56h100.07M164.61,5.66h-100.07c-.72,0-1.39.35-1.8.94s-.51,1.34-.27,2.01l14.4,39.56c.32.87,1.14,1.45,2.07,1.45h100.07c.72,0,1.39-.35,1.8-.94s.51-1.34.27-2.01l-14.4-39.56c-.32-.87-1.14-1.45-2.07-1.45h0Z"/>
      </g>
      <g>
        <path class="st3" d="M81.81,69c-.29,0-.57-.12-.78-.32-.21-.21-.32-.49-.32-.78v-21.18c0-.61.49-1.1,1.1-1.1l99.59-.21c.56,0,1.03.42,1.09.98l2.29,21.17c.03.31-.07.62-.27.85-.21.23-.5.37-.82.37l-101.87.22h0Z"/>
        <path class="st5" d="M181.39,46.51l2.29,21.17-101.87.22v-21.18l99.59-.21M181.39,44.31h0l-99.59.21c-1.21,0-2.2.99-2.2,2.2v21.18c0,.58.23,1.14.65,1.56.41.41.97.64,1.55.64h0l101.87-.22c.62,0,1.22-.27,1.63-.73.42-.46.62-1.08.55-1.7l-2.29-21.17c-.12-1.12-1.06-1.96-2.19-1.96h.02Z"/>
      </g>
      <g>
        <path class="st3" d="M81.81,69c-.43,0-.84-.26-1.01-.67l-17.27-40.8c-.06-.14-.09-.28-.09-.43V6.33c0-.52.37-.97.88-1.08.07-.01.15-.02.22-.02.43,0,.84.26,1.01.67l17.27,40.8c.06.14.09.28.09.43v20.77c0,.52-.37.97-.88,1.08-.07.01-.15.02-.22.02Z"/>
        <path class="st5" d="M64.54,6.33l17.27,40.8v20.77l-17.27-40.8V6.33M64.54,4.13c-.15,0-.29.01-.44.04-1.03.21-1.76,1.11-1.76,2.16v20.77c0,.29.06.59.17.86l17.27,40.8c.35.83,1.16,1.34,2.03,1.34.15,0,.29-.01.44-.04,1.03-.21,1.76-1.11,1.76-2.16v-20.77c0-.29-.06-.59-.17-.86L66.57,5.47c-.35-.83-1.16-1.34-2.03-1.34h0Z"/>
      </g>
      <g>
        <path class="st3" d="M64.54,27.91c-.29,0-.57-.12-.78-.32-.21-.21-.32-.49-.32-.78V5.64c0-.61.49-1.1,1.1-1.1l101.87-.22c.29,0,.57.12.78.32.21.21.32.49.32.78v21.18c0,.61-.49,1.1-1.1,1.1l-101.87.22h0Z"/>
        <path class="st5" d="M166.41,5.42v21.18l-101.87.22V5.64l101.87-.22M166.41,3.22h0l-101.87.22c-1.21,0-2.2.99-2.2,2.2v21.18c0,.58.23,1.14.65,1.56s.97.64,1.55.64h0l101.87-.22c1.21,0,2.2-.99,2.2-2.2V5.42c0-.58-.23-1.14-.65-1.56-.41-.41-.97-.64-1.55-.64h0Z"/>
      </g>
      <g>
        <path class="st3" d="M183.68,68.8c-.44,0-.84-.26-1.02-.68l-16.92-41.16c-.05-.13-.08-.27-.08-.41l-.08-21.12c0-.53.37-.99.9-1.08.07-.01.14-.02.21-.02.45,0,.86.27,1.02.7l17,43.92c.05.13.07.26.07.4v18.37c0,.53-.37.98-.89,1.08-.07.01-.14.02-.21.02v-.02Z"/>
        <path class="st5" d="M166.68,5.42l17,43.92v18.37l-16.92-41.16-.08-21.12M166.68,3.22c-.14,0-.27,0-.41.04-1.04.2-1.8,1.11-1.79,2.17l.08,21.12c0,.28.06.57.17.83l16.92,41.16c.34.84,1.16,1.36,2.03,1.36.14,0,.28-.01.43-.04,1.03-.2,1.77-1.11,1.77-2.16v-18.37c0-.27-.05-.54-.15-.79l-17-43.92c-.33-.86-1.16-1.41-2.05-1.41h0Z"/>
      </g>
    </g>
    <g>
      <g>
        <rect class="st3" x="54.11" y="61.69" width="104.07" height="95.94" rx="1.1" ry="1.1"/>
        <path class="st5" d="M157.09,62.79v93.74H55.21V62.79h101.87M157.09,60.59H55.21c-1.22,0-2.2.98-2.2,2.2v93.74c0,1.22.98,2.2,2.2,2.2h101.87c1.22,0,2.2-.98,2.2-2.2V62.79c0-1.22-.98-2.2-2.2-2.2h.01Z"/>
      </g>
      <g>
        <path class="st3" d="M157.09,157.65c-.61,0-1.1-.49-1.1-1.1V62.76c0-.39.21-.75.54-.95.17-.1.36-.15.56-.15s.37.05.54.14l26.92,15.09c.35.19.56.56.56.96v78.7c0,.61-.49,1.1-1.1,1.1h-26.92,0Z"/>
        <path class="st5" d="M157.09,62.76l26.92,15.09v78.7h-26.92V62.76M157.09,60.56c-.38,0-.77.1-1.11.3-.67.39-1.09,1.12-1.09,1.9v93.79c0,1.22.98,2.2,2.2,2.2h26.92c1.22,0,2.2-.98,2.2-2.2v-78.7c0-.8-.43-1.53-1.12-1.92l-26.92-15.09c-.33-.19-.71-.28-1.08-.28h0Z"/>
      </g>
    </g>
  </g>
  <g id="_x33_" class="st4">
    <g>
      <g>
        <path class="st0" d="M84.04,73.31c-.36,0-.7-.18-.9-.47-.21-.29-.26-.67-.13-1.01l14.4-39.56c.16-.43.57-.72,1.03-.72h100.07c.36,0,.7.18.9.47.21.29.25.67.13,1.01l-14.4,39.56c-.16.43-.57.72-1.03.72h-100.07Z"/>
        <path class="st5" d="M198.51,32.65h0M198.51,32.65l-14.4,39.56h-100.07l14.4-39.56h100.07M198.51,30.45h-100.07c-.92,0-1.75.58-2.07,1.45l-14.4,39.56c-.25.67-.15,1.43.27,2.01.41.59,1.08.94,1.8.94h100.07c.92,0,1.75-.58,2.07-1.45l14.36-39.46c.11-.26.17-.55.17-.85,0-1.22-.98-2.2-2.2-2.2h0ZM198.51,34.85h0Z"/>
      </g>
      <g>
        <path class="st3" d="M101.31,34.5c-.61,0-1.1-.49-1.1-1.1V12.22c0-.29.12-.57.32-.78.21-.21.49-.32.78-.32l101.87.22c.61,0,1.1.49,1.1,1.1v21.18c0,.29-.12.57-.32.78-.21.21-.49.32-.78.32,0,0-101.87-.22-101.87-.22Z"/>
        <path class="st5" d="M101.31,12.22l101.87.22v21.18l-101.87-.22V12.22M101.31,10.02c-.58,0-1.14.23-1.55.64-.41.41-.65.97-.65,1.56v21.18c0,1.21.98,2.2,2.2,2.2l101.87.22h0c.58,0,1.14-.23,1.55-.64s.65-.97.65-1.56V12.44c0-1.21-.98-2.2-2.2-2.2l-101.87-.22h0Z"/>
      </g>
      <g>
        <path class="st3" d="M84.04,76.12c-.07,0-.14,0-.22-.02-.51-.1-.89-.55-.89-1.08v-21.18c0-.14.03-.29.08-.42l17.28-41.62c.17-.42.58-.68,1.02-.68.07,0,.14,0,.22.02.51.1.89.55.89,1.08v21.18c0,.14-.03.29-.08.42l-17.27,41.61c-.17.42-.58.68-1.02.68h0Z"/>
        <path class="st5" d="M101.31,12.22v21.18l-17.27,41.61v-21.18l17.27-41.61M101.31,10.02c-.87,0-1.69.52-2.03,1.36l-17.27,41.61c-.11.27-.17.55-.17.84v21.18c0,1.05.74,1.95,1.77,2.16.14.03.29.04.43.04.87,0,1.69-.52,2.03-1.36l17.27-41.61c.11-.27.17-.55.17-.84V12.22c0-1.05-.74-1.95-1.77-2.16-.14-.03-.29-.04-.43-.04h0Z"/>
      </g>
      <g>
        <path class="st3" d="M84.04,75.59c-.61,0-1.1-.49-1.1-1.1v-21.18c0-.29.12-.57.32-.78.21-.21.49-.32.78-.32l101.87.22c.61,0,1.1.49,1.1,1.1v21.18c0,.29-.12.57-.32.78-.21.21-.49.32-.78.32l-101.87-.22Z"/>
        <path class="st5" d="M84.04,53.31l101.87.22v21.18l-101.87-.22v-21.18M84.04,51.11c-.58,0-1.14.23-1.55.64s-.65.97-.65,1.56v21.18c0,1.21.98,2.2,2.2,2.2l101.87.22h0c.58,0,1.14-.23,1.55-.64.41-.41.65-.97.65-1.56v-21.18c0-1.21-.98-2.2-2.2-2.2l-101.87-.22h0Z"/>
      </g>
      <g>
        <path class="st3" d="M186.18,75.81c-.07,0-.14,0-.22-.02-.52-.1-.89-.56-.88-1.08l.08-21.12c0-.14.03-.28.08-.41l16.92-41.16c.17-.42.58-.68,1.02-.68.07,0,.14,0,.21.02.52.1.89.55.89,1.08v20.94c0,.14-.03.29-.08.42l-17,41.35c-.17.42-.58.68-1.02.68v-.02Z"/>
        <path class="st5" d="M203.18,12.42v20.94l-17,41.35.08-21.12,16.92-41.16M203.18,10.22c-.88,0-1.69.53-2.03,1.36l-16.92,41.16c-.11.26-.16.54-.17.83l-.08,21.12c0,1.05.74,1.96,1.77,2.17.14.03.29.04.43.04.88,0,1.69-.53,2.03-1.36l17-41.35c.11-.27.17-.55.17-.84V12.42c0-1.05-.74-1.95-1.77-2.16-.14-.03-.29-.04-.43-.04h0Z"/>
      </g>
    </g>
    <g>
      <g>
        <rect class="st3" x="54.11" y="61.65" width="104.07" height="95.94" rx="1.1" ry="1.1"/>
        <path class="st5" d="M157.09,62.75v93.74H55.21V62.75h101.87M157.09,60.55H55.21c-1.22,0-2.2.98-2.2,2.2v93.74c0,1.22.98,2.2,2.2,2.2h101.87c1.22,0,2.2-.98,2.2-2.2V62.75c0-1.22-.98-2.2-2.2-2.2h.01Z"/>
      </g>
      <g>
        <path class="st3" d="M157.09,157.61c-.61,0-1.1-.49-1.1-1.1V62.72c0-.39.21-.75.54-.95.17-.1.36-.15.56-.15s.37.05.54.14l26.92,15.09c.35.19.56.56.56.96v78.7c0,.61-.49,1.1-1.1,1.1h-26.92,0Z"/>
        <path class="st5" d="M157.09,62.72l26.92,15.09v78.7h-26.92V62.72M157.09,60.52c-.38,0-.77.1-1.11.3-.67.39-1.09,1.12-1.09,1.9v93.79c0,1.22.98,2.2,2.2,2.2h26.92c1.22,0,2.2-.98,2.2-2.2v-78.7c0-.8-.43-1.53-1.12-1.92l-26.92-15.09c-.33-.19-.71-.28-1.08-.28h0Z"/>
      </g>
    </g>
  </g>
  <g id="_x34_" class="st4">
    <g>
      <g>
        <path class="st3" d="M124.98,64.85c-.61,0-1.1-.49-1.1-1.1v-21.18c0-.29.12-.57.32-.78.21-.21.49-.32.78-.32l94.54.22c.61,0,1.1.49,1.1,1.1v21.18c0,.29-.12.57-.32.78-.21.21-.49.32-.78.32l-94.54-.22Z"/>
        <path class="st5" d="M124.98,42.57l94.54.22v21.18l-94.54-.22v-21.18M124.98,40.37c-.58,0-1.14.23-1.55.64s-.65.97-.65,1.56v21.18c0,1.21.98,2.2,2.19,2.2l94.54.22h0c.58,0,1.14-.23,1.55-.64.41-.41.65-.97.65-1.56v-21.18c0-1.21-.98-2.2-2.19-2.2l-94.54-.22h0Z"/>
      </g>
      <g>
        <path class="st3" d="M87.7,77.7c-.22,0-.44-.07-.63-.2-.29-.21-.47-.54-.47-.9v-21.18c0-.46.29-.88.73-1.04l35.77-12.85c.12-.04.25-.06.37-.06.22,0,.44.07.63.2.29.21.47.54.47.9v21.18c0,.46-.29.88-.73,1.04l-35.77,12.85c-.12.04-.25.06-.37.06Z"/>
        <path class="st5" d="M123.47,42.57v21.18l-35.77,12.85v-21.18l35.77-12.85M123.47,40.37c-.25,0-.5.04-.74.13l-35.77,12.85c-.87.31-1.46,1.14-1.46,2.07v21.18c0,.72.35,1.39.93,1.8.38.26.82.4,1.27.4.25,0,.5-.04.74-.13l35.77-12.85c.87-.31,1.46-1.14,1.46-2.07v-21.18c0-.72-.35-1.39-.93-1.8-.38-.26-.82-.4-1.27-.4h0Z"/>
      </g>
      <g>
        <path class="st3" d="M87.7,77.59c-.61,0-1.1-.49-1.1-1.1v-21.18c0-.29.12-.57.32-.78.21-.21.49-.32.78-.32l98.17.22c.61,0,1.1.49,1.1,1.1v21.18c0,.29-.12.57-.32.78-.21.21-.49.32-.78.32,0,0-98.17-.22-98.17-.22Z"/>
        <path class="st5" d="M87.7,55.31l98.16.22v21.18l-98.16-.22v-21.18M87.7,53.11c-.58,0-1.14.23-1.55.64s-.65.97-.65,1.56v21.18c0,1.21.98,2.2,2.2,2.2l98.16.22h0c.58,0,1.14-.23,1.55-.64.41-.41.65-.97.65-1.56v-21.18c0-1.21-.98-2.2-2.2-2.2l-98.16-.22h0Z"/>
      </g>
      <g>
        <path class="st3" d="M185.87,77.7c-.22,0-.44-.07-.62-.19-.3-.21-.47-.54-.47-.91v-21.18c0-.46.28-.87.71-1.03l33.65-12.74c.13-.05.26-.07.39-.07.22,0,.44.07.62.19.3.21.47.54.47.91v21.18c0,.46-.28.87-.71,1.03l-33.65,12.74c-.13.05-.26.07-.39.07Z"/>
        <path class="st5" d="M219.52,42.68v21.18l-33.65,12.74v-21.18l33.65-12.74M219.52,40.48c-.26,0-.53.05-.78.14l-33.65,12.74c-.86.32-1.42,1.14-1.42,2.06v21.18c0,.72.36,1.4.95,1.81.37.26.81.39,1.25.39.26,0,.53-.05.78-.14l33.65-12.74c.86-.32,1.42-1.14,1.42-2.06v-21.18c0-.72-.36-1.4-.95-1.81-.37-.26-.81-.39-1.25-.39h0Z"/>
      </g>
    </g>
    <g>
      <g>
        <rect class="st3" x="54.11" y="61.67" width="104.07" height="95.94" rx="1.1" ry="1.1"/>
        <path class="st5" d="M157.09,62.77v93.74H55.21V62.77h101.87M157.09,60.57H55.21c-1.22,0-2.2.98-2.2,2.2v93.74c0,1.22.98,2.2,2.2,2.2h101.87c1.22,0,2.2-.98,2.2-2.2V62.77c0-1.22-.98-2.2-2.2-2.2h.01Z"/>
      </g>
      <g>
        <path class="st3" d="M157.09,157.63c-.61,0-1.1-.49-1.1-1.1V62.74c0-.39.21-.75.54-.95.17-.1.36-.15.56-.15s.37.05.54.14l26.92,15.09c.35.19.56.56.56.96v78.7c0,.61-.49,1.1-1.1,1.1h-26.92,0Z"/>
        <path class="st5" d="M157.09,62.74l26.92,15.09v78.7h-26.92V62.74M157.09,60.54c-.38,0-.77.1-1.11.3-.67.39-1.09,1.12-1.09,1.9v93.79c0,1.22.98,2.2,2.2,2.2h26.92c1.22,0,2.2-.98,2.2-2.2v-78.7c0-.8-.43-1.53-1.12-1.92l-26.92-15.09c-.33-.19-.71-.28-1.08-.28h0Z"/>
      </g>
    </g>
  </g>
  <g id="Layer_3">
    <path class="st1" d="M79.72,164.53l-38.82,54.36h-14.62l13.52-54.36h39.93Z"/>
    <path class="st1" d="M302.66,164.53l38.82,54.36h14.62l-13.53-54.36h-39.92Z"/>
    <path class="st2" d="M368.88,173.77l-355.39-2.75-8.89-14.47,373.16.69-8.89,16.53Z"/>
  </g>
</svg>