<?xml version="1.0" encoding="UTF-8"?>
<svg id="Layer_1" xmlns="http://www.w3.org/2000/svg" version="1.1" viewBox="0 0 250 200">
  <!-- Generator: Adobe Illustrator 30.1.0, SVG Export Plug-In . SVG Version: 2.1.1 Build 136)  -->
  <defs>
    <style>
      .st0 {
        stroke-width: 1.4px;
      }

      .st0, .st1, .st2, .st3, .st4, .st5, .st6, .st7 {
        stroke: #4c241e;
      }

      .st0, .st1, .st2, .st6 {
        stroke-linejoin: round;
      }

      .st0, .st8, .st6 {
        fill: #4c241e;
      }

      .st1 {
        stroke-width: 1.57px;
      }

      .st1, .st2, .st4, .st7 {
        fill: #f1f1f1;
      }

      .st1, .st3, .st5, .st6 {
        stroke-linecap: round;
      }

      .st2, .st4 {
        stroke-width: 2px;
      }

      .st3, .st4, .st5, .st7 {
        stroke-miterlimit: 10;
      }

      .st3, .st5 {
        fill: #bababa;
        opacity: .3;
      }

      .st3, .st6, .st7 {
        stroke-width: 1.07px;
      }
    </style>
  </defs>
  <path class="st7" d="M12.37,142.09l128.83-34.21c.15-.04.3-.02.45.04l61.06,27.63"/>
  <path class="st4" d="M139.57,102.03l71.49,31.48c3,.33-1.32,1.14-1.98,1.32l-122.71,40.27c-.17.05-.35.03-.52-.05-5.47-2.79-59.59-30.47-73.35-37.44-.6-.3-.49-1.18.16-1.34l128.83-34.21c.15-.04.3-.02-1.93-.03Z"/>
  <polygon class="st6" points="11.47 142.18 85.2 181.35 85.26 174.92 11.54 136.67 11.47 142.18"/>
  <polyline class="st5" points="78.03 137.05 60.81 128.45 101.19 116.81 116.97 124.36"/>
  <path class="st7" d="M86.06,181.99"/>
  <polyline class="st3" points="141.99 134.72 160.41 145.6 129.7 158.85 113.02 146.52"/>
  <polyline class="st8" points="213.27 137.79 213.95 132.48 85.02 175.83 85.43 181.82"/>
  <path class="st8" d="M49.49,146.22c.07.23.27.46.49.57l38.31,19.63c.09.04.17.07.24.07l.12-.02,93.66-32.56c.17-.06.22-.26.13-.49-.09-.24-.29-.46-.52-.56l-37.43-16.32c-.11-.05-.22-.06-.31-.04l-94.54,29.25c-.17.05-.23.24-.15.47ZM89.26,135.48c.3.22.59.44.89.66.61.45,1.22.91,1.84,1.35.6.44,1.21.9,1.83,1.29.24.15.49.28.73.37h.02s-19.53,6.38-19.53,6.38c-.22-.21-.43-.43-.66-.63-.27-.24-.56-.46-.84-.69-.57-.46-1.14-.89-1.72-1.32-.59-.44-1.19-.87-1.79-1.28-.29-.2-.57-.39-.86-.59l19.48-6.03c.18.19.39.33.61.49ZM74.2,147.11l6.83-2.23c.28.31.62.55.94.78.37.27.74.54,1.11.81.67.48,1.35.89,2.03,1.32-2.46.8-4.75,1.55-6.82,2.22-.86-.55-1.71-1.16-2.55-1.76-.48-.34-.95-.7-1.42-1.06l-.1-.08ZM75.59,148.83c.73.51,1.45.94,2.18,1.35-2.27.74-4.27,1.39-5.92,1.93-.62-.51-1.24-1.03-1.87-1.52-.63-.5-1.27-1-1.92-1.47l5.51-1.8c.19.16.39.32.58.47.47.36.95.71,1.43,1.05ZM151.16,127.94c.36.46.87.67,1.32.9.43.22.87.43,1.3.62.45.19.89.37,1.33.5.3.09.58.15.87.2l-12.73,4.21-.05-.03c-.06-.02-.09.02-.08.07h-.03c-.08-.04-.16-.12-.23-.17-.19-.15-.38-.29-.57-.42-.36-.24-.73-.48-1.09-.71-.75-.49-1.5-.98-2.25-1.46l-.12-.05c4.65-1.51,8.83-2.87,12.26-3.99-.05.07-.05.19.06.34ZM107.98,136.63c.44.32.9.6,1.34.9.42.28.84.56,1.26.84.39.26.78.51,1.18.73-2.01.65-4.01,1.31-6,1.95-.29-.23-.59-.44-.88-.64-.4-.27-.8-.55-1.21-.81-.4-.27-.81-.53-1.21-.8-.21-.14-.42-.27-.63-.41-.1-.07-.2-.14-.3-.2l6.17-2.01c0,.14.09.31.28.45ZM87.49,142.78l6.61-2.16c.12.09.24.16.36.25.22.15.45.31.67.46l1.26.86c.43.3.87.58,1.31.88.2.14.41.28.63.41-2.22.72-4.39,1.43-6.49,2.12l-.08-.08c-.9-.62-1.81-1.13-2.71-1.71-.46-.29-.92-.6-1.37-.91-.06-.04-.12-.08-.18-.12ZM88.96,144.38c.83.52,1.66,1,2.49,1.34-2.06.67-4.05,1.32-5.95,1.94l-.03-.03c-.73-.53-1.45-1.11-2.18-1.64-.37-.27-.74-.55-1.1-.83-.19-.14-.39-.31-.59-.46l5.31-1.73.02.02c.23.19.46.35.7.52.44.31.89.6,1.34.88ZM94.8,140.39l6.13-2c.03.06.08.13.14.18.2.18.42.3.63.44.21.13.42.27.63.4.41.26.81.51,1.22.77.41.26.81.5,1.22.75.16.1.32.2.49.29-2.17.71-4.32,1.41-6.42,2.09-.33-.3-.71-.56-1.05-.8-.42-.3-.84-.6-1.26-.9-.43-.31-.87-.61-1.3-.92-.14-.1-.29-.2-.43-.3ZM138.82,132.24c.82.54,1.64,1.07,2.47,1.61.4.26.81.54,1.22.77l-5.34,1.76c-.32-.34-.73-.59-1.09-.82-.39-.25-.78-.48-1.17-.72-.4-.25-.81-.49-1.21-.75-.21-.13-.41-.26-.62-.39-.08-.05-.16-.1-.24-.15,1.59-.52,3.14-1.02,4.64-1.51.07.03.13.07.2.1.15.08.19-.08.12-.21.26-.08.51-.17.77-.25-.06.15,0,.4.26.56ZM136.76,136.52l-5.44,1.8c-.38-.23-.76-.49-1.15-.71-.41-.23-.82-.46-1.22-.69-.41-.23-.82-.47-1.23-.72-.21-.13-.42-.26-.63-.39-.13-.08-.27-.18-.41-.26,1.9-.62,3.78-1.23,5.61-1.83.03.08.08.15.14.22.18.19.42.32.63.44.2.12.39.24.59.36.39.24.78.48,1.18.71.41.25.82.49,1.24.7.22.12.47.25.71.35ZM130.77,138.49l-18.79,6.21c-.32-.27-.67-.5-.99-.73-.42-.31-.85-.62-1.27-.92-.62-.45-1.24-.91-1.86-1.36,6.08-1.98,12.31-4.01,18.26-5.95.03.09.08.19.19.29.2.18.42.31.64.44.21.13.42.25.63.38.42.25.85.49,1.27.72.43.24.86.46,1.29.67.21.1.43.19.64.26ZM108.13,136.04l5.45-1.78c.24.17.5.32.71.45.45.29.9.59,1.35.89.46.31.92.6,1.38.92.3.2.59.39.89.57-1.85.6-3.7,1.21-5.56,1.81-.23-.13-.46-.27-.69-.44-.38-.28-.76-.55-1.15-.81-.4-.27-.79-.53-1.19-.8-.4-.27-.8-.56-1.21-.81ZM114.34,134.02l7.02-2.29c.31.25.66.43.97.63.4.25.8.51,1.2.77.73.49,1.45,1,2.2,1.42-2.43.79-4.9,1.6-7.39,2.41-.38-.32-.75-.65-1.15-.94-.46-.33-.91-.67-1.37-1-.47-.33-.95-.65-1.42-.96l-.06-.04ZM122.04,131.5l16.32-5.32c.4.52,1.08.83,1.58,1.13.54.32,1.09.61,1.64.88.51.26,1.03.49,1.54.69-2.1.68-4.34,1.41-6.68,2.17-.51-.32-1.02-.65-1.52-.99-.46-.31-.93-.62-1.39-.94-.24-.17-.47-.33-.71-.51-.23-.17-.4-.3-.64-.36-.17-.05-.18.17-.07.32.19.26.43.41.68.59.22.16.45.32.67.47.46.32.92.63,1.39.92.37.23.75.45,1.12.66-3.16,1.03-6.49,2.12-9.93,3.24l-.03-.04c-.73-.74-1.53-1.3-2.34-1.84-.41-.28-.82-.54-1.23-.8-.12-.08-.25-.16-.39-.25ZM154.84,131.99c.32.5.94.68,1.39.9.47.23.94.45,1.41.66.59.27,1.18.52,1.76.74l-24.72,8.48-.1-.15c-.06-.05-.11-.12-.17-.17-.08-.07-.16-.11-.24-.16-.18-.12-.37-.24-.55-.35-.35-.22-.7-.43-1.05-.65-.36-.23-.72-.47-1.07-.71-.18-.12-.37-.25-.55-.38-.14-.1-.29-.21-.43-.29l24.28-8.03.04.12ZM134.43,142.85l-12.35,4.24c-.21-.16-.4-.34-.61-.5-.21-.16-.43-.31-.64-.45-.43-.28-.87-.55-1.3-.82-.44-.27-.87-.55-1.31-.82-.19-.12-.38-.24-.57-.36l12.48-4.13c.01.1.07.21.16.31.17.18.4.31.59.45.17.12.35.24.52.35.36.24.72.47,1.08.69.38.23.76.47,1.14.66.18.09.35.18.53.26.1.05.18.09.28.11h.02ZM121.73,147.21l-6.91,2.37c-.18-.15-.38-.27-.56-.39-.24-.15-.48-.3-.72-.45-.47-.29-.94-.58-1.41-.88-.48-.31-.97-.62-1.45-.94-.14-.09-.3-.21-.47-.32l6.84-2.26c.12.14.27.23.43.33.22.14.44.27.65.41.44.27.87.54,1.31.81.45.28.9.57,1.35.83.22.13.44.25.65.36.1.05.19.09.28.13ZM97.75,149.41c-.43-.31-.84-.64-1.27-.95-.43-.32-.86-.62-1.29-.94-.44-.33-.88-.66-1.32-1-.08-.06-.16-.13-.24-.19,4.31-1.41,8.92-2.91,13.61-4.44.79.56,1.57,1.11,2.36,1.67.44.31.88.63,1.32.94.18.12.35.26.53.38l-13.71,4.53ZM97.41,149.52l-7.95,2.63c-.28-.2-.55-.4-.83-.58-.53-.35-1.06-.71-1.58-1.07-.54-.37-1.09-.74-1.63-1.12-.12-.09-.24-.17-.37-.26,2.52-.82,5.22-1.7,8.06-2.63.22.17.44.34.66.51.43.33.85.65,1.28.96.44.32.89.64,1.34.94.34.22.68.42,1.02.62ZM89.01,152.3l-5.4,1.79c-.35-.28-.7-.56-1.06-.82-.43-.31-.85-.61-1.28-.91-.65-.45-1.29-.91-1.94-1.36,1.59-.52,3.3-1.07,5.11-1.67.29.23.59.43.86.62.54.37,1.09.74,1.63,1.09.56.36,1.13.71,1.7,1.05.13.08.26.14.39.21ZM101.45,131.52c.3.18.6.37.89.56.56.36,1.12.72,1.68,1.1.95.64,1.89,1.33,2.84,1.96l-11.77,3.84-.08-.06c-.21-.07-.51-.25-.71-.4-.23-.16-.46-.34-.69-.52-.55-.44-1.12-.86-1.68-1.29-.58-.44-1.15-.86-1.73-1.29-.28-.21-.56-.42-.84-.63l-.02-.02,11.58-3.58c.18.12.36.22.54.33ZM115.05,127.18c1.02.65,2.04,1.3,3.06,1.94.49.31.99.62,1.48.92.35.22.7.41,1.06.6l-13.43,4.38c-.43-.39-.86-.76-1.33-1.1-.57-.42-1.13-.82-1.71-1.22-.59-.41-1.18-.8-1.77-1.19-.28-.18-.56-.36-.83-.53l13.22-4.09c.04.1.12.2.25.28ZM122.05,125.64c.29.18.57.36.86.54.54.33,1.08.66,1.62.98.56.33,1.12.65,1.69.95.28.15.58.3.87.43l-6.01,1.96c-.46-.34-.91-.68-1.37-.99-.49-.33-.98-.65-1.47-.97-.94-.62-1.89-1.23-2.83-1.83l5.75-1.78.07.09c.24.27.55.44.83.62ZM127.34,123.44c1.03.66,2.06,1.31,3.1,1.92.78.46,1.59.95,2.38,1.31l-5.08,1.66c-.49-.39-1.03-.68-1.53-.97-.54-.32-1.08-.62-1.62-.94-.56-.33-1.11-.68-1.67-1.03-.33-.21-.69-.48-1.03-.68l5.19-1.6c.04.12.12.25.27.34ZM138.86,119.73c1.19.7,2.38,1.35,3.58,1.94.59.29,1.18.58,1.77.84.19.08.4.17.6.25l-11.43,3.73c-.93-.67-1.91-1.2-2.86-1.77-.97-.58-1.93-1.18-2.89-1.8l11.02-3.41c.06.09.13.17.21.21ZM151.49,120.58l-5.97,1.95c-.42-.28-.89-.49-1.31-.68-.57-.27-1.14-.54-1.71-.83-1.05-.53-2.1-1.11-3.15-1.72l5.39-1.67,6.76,2.95ZM158.82,123.78c-2.28.74-7.68,2.49-14.78,4.81-.31-.16-.63-.31-.95-.44-.51-.22-1.02-.46-1.53-.72-.52-.26-1.04-.55-1.56-.85-.3-.18-.64-.43-.96-.61l14.18-4.63,5.6,2.44ZM165.92,126.88l-9.41,3.11c-.04-.11-.12-.22-.24-.27-.43-.15-.86-.35-1.29-.52-.4-.16-.81-.32-1.22-.5-.41-.18-.81-.38-1.22-.59-.39-.21-.85-.54-1.22-.58,5.14-1.67,8.55-2.78,9.23-3l5.37,2.34ZM172.57,129.77l-12.56,4.31c-.79-.46-1.59-.84-2.39-1.23-.49-.24-.97-.47-1.46-.71-.25-.13-.58-.34-.86-.44l12.33-4.08,4.93,2.15ZM154.84,142.13c-.46-.23-.91-.48-1.37-.71-.54-.27-1.07-.56-1.6-.87-.55-.31-1.09-.65-1.63-1-.25-.17-.51-.34-.76-.51l-.02-.02,24.82-8.51,6.2,2.71-11.58,4.02c-.37-.21-.74-.37-1.11-.54-.53-.25-1.07-.51-1.6-.78-.54-.28-1.09-.57-1.63-.88-.48-.27-1.15-.81-1.52-.61-.08.04-.07.16-.01.28.07.15.15.24.22.33.11.14.26.24.4.32.28.17.57.33.85.49.57.32,1.15.62,1.72.9.58.28,1.17.54,1.75.76l.08.03-13.19,4.59ZM107.67,158.53c-.36-.26-.73-.49-1.09-.72-.52-.33-1.05-.67-1.57-1.01-.54-.35-1.07-.7-1.61-1.06-.25-.17-.5-.34-.76-.51l-.15-.1,46.3-15.88c.41.37.94.66,1.35.93.54.35,1.09.67,1.64.97.56.31,1.12.6,1.69.86.26.12.52.23.78.32l-46.58,16.19ZM100.65,160.11c-.25-.17-.5-.32-.76-.49-.51-.32-1.01-.63-1.52-.94-.51-.31-1.01-.62-1.52-.94-.24-.15-.47-.29-.71-.44l5.77-1.98c.19.2.44.34.65.49.25.17.5.34.76.51.52.35,1.04.69,1.56,1.02.54.34,1.08.68,1.62,1.02.19.12.39.24.59.36l-5.75,2-.03-.04c-.23-.24-.4-.4-.67-.58ZM93.74,163.37c-.41-.23-.82-.47-1.23-.7-.56-.32-1.13-.61-1.69-.93-.57-.32-1.13-.65-1.69-.99-.28-.17-.56-.35-.84-.52-.07-.05-.14-.09-.21-.14l7.39-2.53c.05.06.1.12.16.17.12.1.25.17.38.25.25.15.51.31.76.46.51.31,1.02.61,1.53.92.53.31,1.05.63,1.58.92.25.14.51.28.76.42.15.08.26.12.38.16l-7.26,2.52ZM81.95,162.18l5.55-1.9c.2.24.45.39.71.54.3.18.6.36.9.54.56.33,1.13.65,1.7.96.57.31,1.16.63,1.73.89.25.11.5.21.75.31l-5.18,1.8-6.15-3.15ZM74.55,158.4l34.94-11.55c.32.32.77.57,1.08.77.48.31.97.62,1.45.92.5.31,1,.61,1.5.89.22.13.45.25.67.37l-12.36,4.24c-.12-.05-.26-.14-.34-.19-.23-.15-.46-.3-.69-.44-.47-.28-.94-.54-1.4-.81-.48-.28-.97-.55-1.45-.83-.22-.13-.44-.25-.66-.37-.24-.13-.47-.29-.68-.24-.14.03-.14.2-.02.37.2.29.53.44.8.59.27.15.53.3.8.45.55.31,1.09.61,1.64.92.48.27.95.52,1.43.76l-20.87,7.16-5.84-2.99ZM67.58,154.82c.69-.23,4.89-1.6,11.15-3.64.8.56,1.61,1.12,2.41,1.68.44.31.88.61,1.33.91.24.16.48.31.72.45l-10.2,3.37-5.42-2.78ZM60.96,151.43l6.52-2.13c.05.07.11.14.18.2.71.55,1.44,1.07,2.16,1.59.55.39,1.1.76,1.65,1.14-2.58.84-4.24,1.38-4.69,1.53-.2.07-.23.33-.08.61l-5.74-2.94ZM51.38,146.52l17.14-5.3c.15.17.34.29.54.43.29.2.58.4.88.6.57.39,1.13.8,1.7,1.21.58.42,1.15.86,1.72,1.29.42.32.83.62,1.25.91l-7.27,2.37-.09-.06c-.45-.14-.9-.49-1.33-.82-.49-.38-.98-.78-1.48-1.16l-1.61-1.25c-.25-.2-.51-.39-.76-.59-.26-.2-.52-.44-.8-.56-.24-.1-.36.15-.16.39.24.29.55.5.83.72.27.21.54.41.8.62l1.65,1.28c.76.59,1.64,1.37,2.45,1.6l-6.61,2.16c-.22.07-.24.37-.05.67l.02.02-8.83-4.52Z"/>
  <polygon class="st0" points="236.67 22.64 104.61 50.19 107.76 52.35 240.25 23.28 236.67 22.64"/>
  <g>
    <path class="st1" d="M235.32,27.21"/>
    <path class="st2" d="M107.76,52.35l132.59-28.54-26.92,109.76-127.31,41.66c-1.46.34-2.51-.53-2.33-1.94l23.98-120.95Z"/>
    <polygon class="st0" points="84 174.78 80.53 172.46 104.61 50.19 107.68 52.32 84 174.78"/>
  </g>
  <path class="st8" d="M190.15,90.16c-.9-3.91-3.14-7.14-6.4-9.33,1.16-.67,2.22-1.63,3-2.74,1.06-1.51,1.52-3.2,1.29-4.67-.11-.73-.37-1.4-.8-1.94-.45-.57-1.08-1.05-1.87-1.18-.43-.07-.93-.05-1.42.16-.41.17-.8.42-1.14.75-.68.64-1.16,1.43-1.57,2.22-.53,1.02-.99,2.05-1.39,3.09-.19.51-.37,1.01-.53,1.52-.07.21-.13.42-.19.63-2.41-.74-5.14-1.06-8.12-.87-5.01.31-10.02,2-14.52,4.64.09-.47.17-.94.22-1.41.13-1.02.19-2.03.17-3.01-.02-.75-.1-1.51-.47-2.09-.19-.29-.46-.5-.79-.62-.4-.15-.9-.11-1.38.02-.88.24-1.78.81-2.54,1.45-.71.61-1.33,1.33-1.82,2.1-.99,1.54-1.39,3.23-1.08,4.65.28,1.27,1.11,2.27,2.28,2.75-3.8,3.22-6.95,7.15-8.98,11.43-3.9,2.85-6.66,6.29-7.58,9.89-1.67,6.55,3.25,11.77,11.66,13.56,3.34,2.33,7.78,3.54,13,3.22,8.38-.52,16.77-4.89,22.78-11.14,6.3-3.23,10.97-7.83,12.22-12.73,1.06-4.17-.55-7.79-4.02-10.34Z"/>
</svg>