<?xml version="1.0" encoding="UTF-8"?>
<svg id="Layer_1" xmlns="http://www.w3.org/2000/svg" version="1.1" xmlns:xlink="http://www.w3.org/1999/xlink" viewBox="0 0 250 200">
  <!-- Generator: Adobe Illustrator 30.1.0, SVG Export Plug-In . SVG Version: 2.1.1 Build 136)  -->
  <defs>
    <style>
      .st0 {
        fill: #c3f39d;
      }

      .st1 {
        fill: #73bb70;
      }

      .st2 {
        fill: #b0b7cf;
      }

      .st3 {
        fill: #85cb7c;
      }

      .st4 {
        fill: #e1e4f3;
      }

      .st5 {
        fill: #72c26a;
      }

      .st6 {
        fill: #73c36a;
      }

      .st7 {
        fill: #b6f6f6;
      }

      .st8 {
        fill: #fff;
      }

      .st9, .st10, .st11, .st12, .st13, .st14, .st15, .st16 {
        stroke: #4c241e;
      }

      .st9, .st12, .st13, .st16 {
        stroke-miterlimit: 10;
      }

      .st9, .st17 {
        fill: #e6ffef;
      }

      .st9, .st16 {
        stroke-width: 1.2px;
      }

      .st18 {
        fill: #94d77b;
      }

      .st19 {
        fill: #246b72;
      }

      .st10, .st11, .st14, .st15 {
        stroke-linejoin: round;
      }

      .st10, .st12 {
        stroke-width: 2px;
      }

      .st10, .st12, .st14 {
        fill: #f1f1f1;
      }

      .st20 {
        fill: #c6cbe1;
      }

      .st21 {
        fill: #469f64;
      }

      .st22 {
        opacity: .8;
      }

      .st11, .st13, .st14 {
        stroke-linecap: round;
      }

      .st11, .st23, .st15 {
        fill: #4c241e;
      }

      .st24 {
        fill: #085579;
      }

      .st25 {
        fill: #817754;
      }

      .st26 {
        fill: #b8f09c;
      }

      .st27 {
        fill: #cdfdff;
      }

      .st13 {
        fill: #bababa;
        opacity: .3;
      }

      .st14 {
        stroke-width: 1.47px;
      }

      .st15 {
        stroke-width: 1.31px;
      }

      .st16 {
        fill: none;
      }

      .st28 {
        fill: #368b74;
      }

      .st29 {
        fill: #665a3a;
      }

      .st30 {
        clip-path: url(#clippath);
      }
    </style>
    <clipPath id="clippath">
      <path class="st9" d="M228.02,27.72c-.09-.12-.22-.19-.36-.2l-125.61-10.11c-.27-.02-.52.18-.57.46,0,0-4,23.53-7.98,47.32-1.99,11.89-3.98,23.85-5.46,32.96-.74,4.56-1.36,8.4-1.78,11.17-.21,1.39-.38,2.5-.49,3.31-.06.4-.1.73-.13.97-.01.12-.02.23-.03.31,0,.09-.01.15,0,.24,0,.03,0,.07.03.15.01.04.03.1.1.19.04.04.09.09.17.13.07.04.16.05.24.05h0s0,0,0,0c.06,0,.28.03.59.07,2.45.33,11.37,1.73,23.36,3.64,17.98,2.87,42.88,6.89,63.28,10.2,10.2,1.65,19.27,3.13,25.8,4.19,6.53,1.06,10.5,1.71,10.5,1.71.14.02.28-.01.39-.1.11-.09.19-.21.22-.36l17.83-105.9c.03-.15,0-.3-.1-.41Z"/>
    </clipPath>
  </defs>
  <path class="st14" d="M77.99,153.89"/>
  <line class="st14" x1="100.88" y1="16.23" x2="82.94" y2="118.71"/>
  <path class="st10" d="M234.24,24.3L97.01,13.37l-17.66,106.02,132.72,22.27c1.3.22,2.54-.66,2.76-1.96l19.41-115.4Z"/>
  <path class="st12" d="M78.49,120.88L11.34,154.58c-.56.28-.45,1.12.16,1.24l135.71,27.9c.16.03.33,0,.47-.08,4.85-2.92,52.89-31.87,65.11-39.17.53-.32.38-1.12-.23-1.22l-133.66-22.43c-.14-.02-.28,0-.41.06Z"/>
  <polyline class="st13" points="80.03 150.59 62.39 161.92 103.89 171.47 119.95 158.9"/>
  <path class="st23" d="M200.65,145.51l-121.14-21.62c-.11-.02-.23,0-.33.05l-33.17,16.55c-.2.1-.31.31-.28.53.03.22.19.39.41.44l121.91,24.64h.14c.08,0,.16-.02.24-.07l32.4-19.57c.18-.11.28-.32.24-.54-.04-.21-.21-.37-.42-.41ZM151.36,137.76l24.96,4.45c-.22.19-.43.38-.65.57-.45.4-.89.82-1.31,1.24-.42.42-.82.84-1.22,1.28-.19.22-.39.43-.57.66-.15.19-.27.39-.4.6l-25.2-4.76h.02c.22-.09.43-.22.62-.37.48-.39.91-.83,1.36-1.25.45-.43.89-.87,1.33-1.31.22-.21.43-.42.65-.64.16-.15.32-.29.42-.47ZM173.87,148.02c-.33.35-.67.7-1.03,1.03-.62.58-1.25,1.17-1.92,1.71-2.67-.5-5.63-1.06-8.8-1.66.53-.41,1.07-.82,1.57-1.29.27-.26.54-.52.81-.78.23-.23.49-.46.63-.75l8.81,1.66-.07.07ZM174.33,148.55c.14-.15.28-.29.41-.45l7.12,1.34c-.47.46-.92.94-1.36,1.42-.44.48-.86.97-1.28,1.46-2.13-.4-4.71-.89-7.64-1.44.6-.4,1.18-.82,1.73-1.32.36-.33.7-.67,1.04-1.02ZM77.67,134.22c4.43.83,9.82,1.85,15.81,2.98l-.1.05c-.58.47-1.16.95-1.74,1.43-.28.23-.56.46-.84.7-.15.13-.28.26-.42.4-.05.05-.1.13-.16.18h-.03c-.02-.05-.08-.09-.13-.06l-.04.03-16.45-3.15c.29-.06.58-.12.86-.22.42-.14.83-.32,1.22-.52.39-.19.76-.4,1.13-.62.37-.23.84-.45.99-.88.05-.14-.01-.24-.11-.31ZM130.7,139.78l7.96,1.5c-.08.06-.16.13-.23.2-.16.13-.32.27-.48.4-.31.26-.62.52-.93.78-.31.26-.61.53-.92.79-.23.2-.44.4-.65.62-2.56-.48-5.15-.97-7.74-1.46.32-.22.63-.46.93-.71.32-.27.64-.55.97-.82.34-.29.7-.56,1.02-.87.14-.13.14-.29.07-.42ZM156.65,144.83c-.34.3-.69.6-1.05.89-.7.57-1.45,1.07-2.13,1.67l-.04.08c-2.71-.51-5.51-1.04-8.38-1.58.17-.13.33-.27.48-.4.33-.29.67-.57,1-.85l.96-.84c.17-.15.34-.3.51-.45.09-.08.19-.16.27-.24l8.53,1.61s-.09.07-.14.12ZM157.02,145.37c.18-.16.35-.31.5-.5l.02-.02,6.85,1.29c-.15.14-.29.31-.42.44-.26.27-.53.54-.8.8-.53.52-1.02,1.08-1.56,1.59l-.02.03c-2.44-.46-5.01-.95-7.67-1.45.75-.35,1.42-.83,2.07-1.33.35-.27.7-.56,1.03-.85ZM147.04,143.22c-.32.3-.64.59-.96.89-.31.29-.62.58-.93.87-.25.24-.54.49-.74.78-2.71-.51-5.49-1.04-8.29-1.56.13-.09.26-.19.39-.29.32-.24.65-.49.97-.74.32-.25.64-.5.95-.75.16-.13.33-.26.49-.39.17-.13.34-.25.48-.42.04-.06.06-.11.06-.17l7.91,1.49c-.11.1-.21.19-.32.29ZM93.83,137.27c.33.06.66.12.99.19-.01.12.12.26.24.18.06-.03.11-.07.17-.1,1.94.37,3.94.74,5.99,1.13-.06.05-.12.1-.19.15-.16.13-.32.26-.49.38-.32.25-.63.49-.96.73-.31.23-.63.46-.93.71-.28.23-.61.47-.78.79l-6.9-1.32c.34-.22.64-.5.96-.75.64-.52,1.28-1.04,1.91-1.57.19-.16.14-.39-.01-.52ZM99.03,141.18c.35-.22.68-.45,1.01-.7.31-.23.63-.46.94-.7.15-.12.31-.24.46-.36.16-.12.37-.25.47-.43.03-.06.04-.13.04-.2,2.36.45,4.78.9,7.23,1.36-.11.08-.22.17-.32.25-.17.13-.33.25-.5.38-.33.24-.66.48-.99.7-.33.23-.67.46-1,.68-.32.21-.6.47-.91.69l-7.03-1.35c.22-.1.42-.23.61-.35ZM106.73,142.74c.37-.21.73-.43,1.09-.66.35-.23.69-.47,1.03-.71.17-.12.34-.25.51-.37.17-.13.36-.25.48-.43.06-.09.07-.19.05-.27,7.67,1.45,15.7,2.96,23.55,4.44-.45.44-.9.88-1.36,1.32-.31.3-.62.6-.93.9-.24.23-.5.45-.71.71l-24.28-4.65c.2-.08.39-.16.57-.27ZM129.23,140.47c-.3.26-.6.52-.9.78-.29.25-.58.52-.86.79-.17.16-.34.3-.53.43-2.39-.45-4.79-.9-7.17-1.35.24-.18.47-.36.69-.55.34-.31.71-.6,1.06-.9.34-.29.69-.58,1.03-.87.16-.13.38-.28.55-.44l7.04,1.33c-.32.24-.62.53-.92.79ZM122.09,138.2c-.36.31-.73.62-1.08.94-.34.31-.67.64-1,.96-.29.28-.53.6-.79.91-3.22-.61-6.41-1.21-9.54-1.8.61-.42,1.14-.91,1.7-1.39.31-.26.62-.51.93-.75.25-.19.55-.37.76-.61l9.06,1.71-.05.04ZM111.9,136.53c-.32.25-.64.51-.95.78-.62.53-1.22,1.08-1.64,1.77v.04c-4.44-.84-8.75-1.65-12.82-2.42.31-.21.61-.42.9-.65.37-.28.72-.58,1.07-.89.17-.15.33-.3.5-.46.18-.17.37-.31.44-.56.04-.14-.08-.34-.25-.29-.23.07-.35.19-.52.36-.17.17-.35.33-.52.49-.34.31-.69.62-1.05.92-.38.33-.78.65-1.17.97-3.02-.57-5.91-1.11-8.61-1.62.46-.21.91-.44,1.35-.7.47-.27.92-.57,1.36-.88.41-.29.99-.61,1.17-1.09l21.05,3.98c-.11.09-.21.17-.3.25ZM75.8,138.25l31.39,6.01c-.12.08-.22.18-.33.28-.14.12-.27.25-.41.37-.27.24-.54.47-.82.7-.27.22-.56.42-.83.64-.14.12-.29.23-.43.35-.06.05-.13.1-.18.16-.04.05-.06.12-.1.16l-.03.14-32.11-6.4c.54-.22,1.06-.48,1.58-.75.41-.22.82-.44,1.22-.67.38-.21.98-.41,1.07-.88l-.02-.11ZM104.39,147.11c.09-.02.17-.06.25-.11.15-.08.3-.17.45-.26.32-.19.62-.42.92-.65.29-.22.57-.44.84-.67.13-.11.26-.23.39-.35.14-.13.33-.26.42-.43.05-.09.05-.2.02-.29l16.13,3.09c-.15.12-.3.23-.45.35-.34.27-.68.53-1.02.8-.34.27-.69.53-1.02.8-.17.14-.33.28-.48.44-.15.15-.27.32-.42.48l-16.04-3.2h.02ZM121.13,150.28c.19-.11.37-.23.54-.35.36-.26.71-.54,1.07-.82.34-.26.69-.53,1.03-.79.17-.13.34-.27.51-.4.12-.1.24-.19.31-.32l8.84,1.69c-.13.11-.24.22-.35.31-.37.31-.74.62-1.12.92-.37.29-.74.58-1.11.86-.19.15-.38.29-.57.44-.14.11-.31.23-.42.38l-8.97-1.79c.08-.04.17-.08.25-.13ZM131.12,147.79c.13-.12.26-.25.39-.37.32-.3.65-.61.97-.91.58-.54,1.17-1.08,1.75-1.62,6.06,1.14,12,2.26,17.56,3.32-.06.06-.11.12-.17.18-.31.33-.62.65-.94.97-.31.31-.63.61-.94.91-.31.3-.6.62-.91.92l-17.72-3.4ZM150.1,150.66c.35-.29.67-.6,1-.91.32-.3.62-.61.93-.93.16-.16.31-.33.47-.49,3.66.69,7.15,1.35,10.39,1.96-.09.08-.18.17-.27.25-.4.37-.82.73-1.23,1.09-.4.35-.8.7-1.2,1.04-.22.18-.42.37-.62.57l-10.27-1.97c.27-.2.55-.39.81-.61ZM160.46,153.15c.46-.33.9-.68,1.34-1.03.43-.34.84-.7,1.25-1.06.21-.18.44-.38.64-.6,2.34.44,4.54.86,6.59,1.24-.48.44-.96.88-1.45,1.32-.32.29-.64.58-.95.88-.26.25-.51.52-.75.79l-6.99-1.34c.11-.07.22-.13.32-.21ZM135.65,134.96l14.84,2.65-.02.02c-.2.2-.41.4-.61.61-.42.42-.84.83-1.25,1.25-.4.41-.8.82-1.19,1.24-.16.17-.32.35-.49.5-.15.14-.39.32-.59.39l-.06.06-15.19-2.87c.72-.62,1.41-1.28,2.13-1.9.42-.37.85-.73,1.29-1.08.23-.18.47-.37.7-.55.14-.11.29-.21.43-.32ZM117.85,131.78l16.94,3.02c-.22.17-.44.34-.65.52-.46.38-.91.76-1.35,1.16-.43.39-.85.78-1.26,1.18-.34.33-.62.68-.9,1.05l-17.33-3.27c.29-.19.58-.38.86-.59.39-.3.78-.6,1.17-.9.8-.63,1.59-1.26,2.39-1.9.1-.08.13-.17.13-.27ZM109.69,130.41l.03-.09,7.36,1.31c-.73.59-1.47,1.19-2.19,1.79-.38.31-.76.63-1.13.95-.35.3-.68.63-1.01.96l-7.75-1.46c.26-.13.51-.29.74-.43.47-.29.93-.61,1.38-.93.44-.31.87-.63,1.3-.96.23-.17.45-.35.67-.53.22-.18.47-.35.6-.6ZM102.13,128.97l6.65,1.19c-.28.2-.54.46-.79.67-.43.35-.87.68-1.32,1.01-.43.32-.88.62-1.31.93-.41.29-.86.57-1.19.95l-6.55-1.24c.69-.37,1.34-.84,1.97-1.3.83-.61,1.65-1.23,2.44-1.88.12-.09.14-.21.12-.32ZM87.29,126.33l14.12,2.52c-.74.6-1.5,1.19-2.28,1.76-.76.56-1.57,1.09-2.26,1.73l-14.75-2.79c.19-.08.37-.17.54-.26.52-.26,1.03-.55,1.53-.84,1.02-.59,2.01-1.24,2.97-1.92.06-.04.1-.12.12-.2ZM79.5,124.94l6.91,1.23c-.85.6-1.72,1.17-2.61,1.7-.49.29-.98.56-1.48.83-.36.2-.78.4-1.1.68l-7.71-1.46,5.99-2.99ZM71.98,128.69l18.3,3.46c-.27.18-.51.42-.75.6-.42.3-.85.58-1.29.85-.43.26-.88.5-1.33.72-.28.14-.56.28-.82.45-9.17-1.73-16.13-3.04-19.07-3.59l4.97-2.48ZM65.49,131.93c.88.16,5.27.99,11.9,2.24-.39.05-.73.38-1.06.58-.34.21-.69.41-1.05.59-.36.18-.73.35-1.09.51-.39.17-.77.38-1.16.53-.12.04-.15.15-.13.25l-12.17-2.33,4.76-2.38ZM59.2,135.07l15.94,3.05c-.26.11-.52.31-.73.44-.41.24-.83.48-1.25.71-.69.39-1.37.77-2.02,1.22l-16.31-3.25,4.37-2.18ZM64.02,144.01l.07-.03c.53-.23,1.05-.49,1.55-.77.49-.28.98-.58,1.45-.9.23-.16.46-.31.69-.48.11-.08.23-.17.28-.31.03-.08.08-.16.07-.3,0-.11-.05-.22-.17-.25-.52-.16-.99.36-1.38.63-.44.31-.89.6-1.36.87-.45.27-.91.53-1.38.78-.32.17-.65.34-.95.54l-15.07-3.05,5.5-2.74,32.25,6.43-.02.02c-.19.17-.38.33-.58.5-.42.34-.85.67-1.29.98-.43.3-.88.59-1.33.86-.39.23-.77.47-1.15.7l-17.17-3.47ZM81.96,147.64c.24-.1.47-.2.7-.33.49-.27.96-.55,1.43-.86.45-.3.89-.62,1.32-.96.32-.26.76-.55,1.02-.9l60.15,11.99-.11.1c-.19.17-.38.33-.58.49-.41.35-.82.69-1.24,1.03-.4.33-.81.66-1.22.98-.28.22-.57.45-.84.7l-60.63-12.25ZM150.83,161.52v.04s-7.49-1.51-7.49-1.51c.16-.12.32-.23.47-.35.43-.33.85-.66,1.27-1,.41-.33.81-.66,1.21-1,.19-.16.38-.33.58-.5.16-.14.36-.28.47-.47l7.5,1.49c-.19.14-.37.29-.56.43-.4.31-.8.61-1.2.92-.4.3-.81.6-1.2.92-.2.16-.39.31-.59.47-.21.17-.31.32-.44.55ZM151.27,161.64c.11-.04.22-.08.34-.16.21-.13.42-.27.63-.41.44-.29.85-.6,1.27-.91.41-.3.81-.6,1.22-.9.2-.15.4-.3.61-.45.1-.08.21-.15.29-.24.04-.05.07-.1.09-.16l9.6,1.91c-.06.04-.11.09-.17.13-.22.17-.44.34-.66.51-.45.34-.9.66-1.36.98-.46.31-.94.61-1.4.92-.34.23-.67.46-1.01.69l-9.45-1.91ZM168.07,165.04l-6.74-1.36c.22-.1.45-.2.67-.32.5-.26.98-.58,1.46-.89.47-.31.93-.62,1.39-.95.24-.17.48-.35.72-.53.2-.15.4-.29.5-.52l7.21,1.44-5.2,3.14ZM174.58,161.11l-27.12-5.4c.41-.24.8-.49,1.19-.75.45-.3.9-.6,1.35-.91.22-.15.44-.29.65-.44.22-.15.51-.3.58-.57.04-.16-.05-.31-.22-.33-.25-.03-.43.12-.63.25-.18.12-.36.24-.54.37-.39.27-.79.55-1.18.82-.38.26-.77.52-1.14.79-.19.14-.36.29-.54.43-.06.05-.17.14-.27.19l-16.06-3.2c.19-.12.37-.24.56-.37.41-.28.81-.58,1.2-.88.38-.29.76-.59,1.13-.9.24-.2.61-.44.8-.74l45.17,8.65-4.94,2.99ZM180.84,157.32l-13.18-2.53c.19-.14.38-.29.56-.44.34-.29.67-.59,1-.89.6-.54,1.21-1.08,1.81-1.63,8.08,1.52,13.49,2.55,14.39,2.72l-4.58,2.77ZM186.16,154.11c.02-.26-.15-.5-.41-.55-.58-.11-2.73-.52-6.05-1.14.42-.36.83-.72,1.24-1.1.53-.5,1.07-1.01,1.57-1.54.05-.05.08-.12.1-.19l8.42,1.59-4.86,2.94ZM191.65,150.79v-.02c.06-.28-.12-.55-.4-.6l-8.53-1.61c.77-.25,1.35-1,1.89-1.57l1.17-1.23c.19-.2.38-.4.57-.6.2-.21.44-.41.55-.69.09-.22-.17-.44-.38-.34-.24.12-.42.35-.6.54-.18.19-.36.38-.53.57l-1.13,1.21c-.35.37-.69.75-1.03,1.12-.3.32-.62.66-1.05.81l-.07.06-9.38-1.77c.31-.29.62-.57.92-.88.41-.42.82-.84,1.24-1.25.41-.4.83-.79,1.25-1.17.22-.2.44-.39.66-.58.16-.13.31-.25.38-.42l21.96,3.92-7.47,4.51Z"/>
  <polygon class="st23" points="147.2 190.73 10.64 161.14 9.91 155 147.08 184.17 147.2 190.73"/>
  <polygon class="st11" points="213.45 147.87 147.22 190.1 147.43 184.04 213.61 143.63 213.45 147.87"/>
  <polygon class="st15" points="213.87 142.3 217.74 139.65 236.47 27.51 234.62 24.12 213.87 142.3"/>
  <g class="st22">
    <path class="st17" d="M228.02,27.72c-.09-.12-.22-.19-.36-.2l-125.61-10.11c-.27-.02-.52.18-.57.46,0,0-4,23.53-7.98,47.32-1.99,11.89-3.98,23.85-5.46,32.96-.74,4.56-1.36,8.4-1.78,11.17-.21,1.39-.38,2.5-.49,3.31-.06.4-.1.73-.13.97-.01.12-.02.23-.03.31,0,.09-.01.15,0,.24,0,.03,0,.07.03.15.01.04.03.1.1.19.04.04.09.09.17.13.07.04.16.05.24.05h0s0,0,0,0c.06,0,.28.03.59.07,2.45.33,11.37,1.73,23.36,3.64,17.98,2.87,42.88,6.89,63.28,10.2,10.2,1.65,19.27,3.13,25.8,4.19,6.53,1.06,10.5,1.71,10.5,1.71.14.02.28-.01.39-.1.11-.09.19-.21.22-.36l17.83-105.9c.03-.15,0-.3-.1-.41Z"/>
    <g class="st30">
      <g>
        <g>
          <path class="st27" d="M237.67,31.23l.65-6.19L79.61,8.46l-.91,8.71c53.36-2.43,106.89,2.31,158.97,14.07Z"/>
          <path class="st27" d="M236.83,39.26l.84-8.03c-52.07-11.76-105.61-16.5-158.97-14.07l-.15,1.47c53.33.73,106.5,7.66,158.28,20.63Z"/>
          <path class="st7" d="M76.75,35.81l-.9,8.61c28,7.03,54.81,19.23,78.92,35.91,25.47-7.77,52.33-9.95,78.43-6.34l1.89-18.07c-52.17-12.5-105.08-22.96-158.34-20.11Z"/>
          <path class="st7" d="M236.6,41.44l.23-2.18c-51.78-12.96-104.95-19.89-158.28-20.63l-1.08,10.37c53.36-3.19,106.98,1,159.14,12.43Z"/>
          <path class="st27" d="M235.09,55.91l1.51-14.48c-52.16-11.43-105.78-15.62-159.14-12.43l-.71,6.8c53.26-2.85,106.17,7.61,158.34,20.11Z"/>
        </g>
        <g>
          <path class="st3" d="M98.17,61.01c3.54,2.65,6.69,6.04,10.71,7.75,4.85,2.07,10.32,1.45,15.55,1.74,9.72.53,19.2,4.46,26.75,10.97,1.19-.39,2.39-.77,3.59-1.14-24.11-16.68-50.92-28.88-78.92-35.91l-1.03,9.85c8.23-.69,16.63,1.7,23.35,6.74Z"/>
          <path class="st1" d="M124.43,70.5c-5.24-.29-10.7.34-15.55-1.74-4.02-1.72-7.17-5.1-10.71-7.75-6.72-5.04-15.12-7.43-23.35-6.74l-1.78,17.04c24.59-4.27,50.25.2,72.29,12.18,1.94-.71,3.89-1.38,5.85-2.02-7.54-6.51-17.02-10.43-26.75-10.97Z"/>
        </g>
        <path class="st24" d="M74.3,59.25c2.04.18,4.24,1.6,5.13,3.58,1.01-.44,2.19-.38,3.13.18.94.55,1.63,1.58,1.81,2.73,1.22-.92,3,.03,3.35,1.57,1.98-1.76,4.96-2.04,7.15-.68,2.19,1.36,3.43,4.28,2.97,6.98l-25.06.19,1.52-14.53Z"/>
        <path class="st28" d="M154.77,80.33c-3.17.97-6.32,2.02-9.45,3.16,4.66,2.53,9.15,5.4,13.44,8.59.87.65,1.73,1.31,2.58,1.98,23.2-2.71,46.64-2.76,69.77-.12l.71-6.79,1.38-13.16c-26.1-3.6-52.96-1.43-78.43,6.34Z"/>
        <g>
          <path class="st8" d="M123.35,34.81l-35.99-3.76c2.14-1.77,5.1-2,7.39-.54.26-1.02,1-1.92,1.9-2.33.9-.41,1.97-.34,2.81.18.92-1.97,3.14-3.15,5.13-2.72,1.99.43,3.57,2.42,3.66,4.62.88-.67,2.05-.72,3-.22.96.5,1.61,1.6,1.64,2.75,3.31-1.4,7.76-.41,10.45,2.03Z"/>
          <path class="st8" d="M231.65,39.07l-35.99-3.76c2.14-1.77,5.1-2,7.39-.54.26-1.02,1-1.92,1.9-2.33.9-.41,1.97-.34,2.81.18.92-1.97,3.14-3.15,5.13-2.72,1.99.43,3.57,2.42,3.66,4.62.88-.67,2.05-.72,3-.22.96.5,1.61,1.6,1.64,2.75,3.31-1.4,7.76-.41,10.45,2.03Z"/>
          <path class="st8" d="M199.5,49.4l-21.11-2.21,4.06-.58c.23-.65.7-1.25,1.31-1.48s1.3-.15,1.85.2c.86-1.6,2.61-2.44,4.28-2.12,1.67.33,3.06,1.88,3.29,3.69.55-.57,1.52-.73,2.22-.44.7.29,1.21,1.05,1.25,1.86l2.85,1.06Z"/>
        </g>
        <g>
          <path class="st21" d="M125.02,97.71c-9.78-4.12-20.07-6.88-30.53-8.23,5.72,1.64,11.31,3.95,16.67,6.55,3.5,1.69,6.94,3.51,10.37,5.36,11.94-3.02,24.03-5.31,36.18-6.88-10.94-.1-21.9.97-32.7,3.2Z"/>
          <path class="st5" d="M157.72,94.51c1.21-.16,2.42-.31,3.63-.45-.85-.67-1.71-1.33-2.58-1.98-4.29-3.19-8.78-6.06-13.44-8.59-22.03-11.98-47.7-16.45-72.29-12.18l-1.68,16.05c7.75-1.07,15.55-.06,23.13,2.12,10.46,1.34,20.75,4.11,30.53,8.23,10.8-2.23,21.76-3.3,32.7-3.2Z"/>
        </g>
        <path class="st18" d="M72.21,79.91c12.39-4.83,25.68-7.07,38.73-6.29-12.63-2.23-25.69-1.85-38.26,1.11l-.47,5.18Z"/>
        <path class="st19" d="M157.71,94.92c-.04-.71-.47-1.37-1.08-1.64-.6-.27-1.35-.15-1.86.31.33-.53.67-1.09.69-1.72.02-.63-.43-1.31-1.01-1.26-.32.03-.59.27-.82.52-.57.61-1.02,1.35-1.31,2.16.25-.43-.11-1.04-.58-1.12-.47-.08-.92.23-1.24.61-.72.85-.94,2.16-.54,3.22,2.52-.52,5.19-.98,7.75-1.07Z"/>
        <g>
          <path class="st18" d="M179.45,119.17c17.34.6,34.86-3.79,50.34-12.52l1.33-12.72c-23.13-2.64-46.56-2.59-69.77.12-11.82,1.38-23.58,3.45-35.2,6.2,15.55,11.6,34.27,18.26,53.31,18.91Z"/>
          <path class="st21" d="M179.45,119.17c-19.03-.65-37.76-7.31-53.31-18.91-1.54.36-3.07.74-4.61,1.13,9.41,5.06,18.73,10.35,28.72,13.89,25.54,9.06,54.15,5.92,79.21-5.52l.32-3.11c-15.47,8.72-33,13.11-50.34,12.52Z"/>
        </g>
        <path class="st0" d="M198.82,95.8c-.91.01-1.87.06-2.68.53-.81.47-1.42,1.5-1.17,2.44.26.97,1.29,1.47,1.66,2.4.43,1.08-.22,2.4-1.16,3.03-.94.63-2.09.74-3.19.84-2.52.22-5.03.45-7.55.67-.94.08-1.91.18-2.75.66-.84.49-1.5,1.48-1.35,2.48.18,1.23,1.42,1.89,2.52,2.27,6.6,2.29,13.73,1.91,20.69,1.52,6.29-.36,12.76-.77,18.48-3.7,1.96-1,4.35-2.89,4.19-5.51-.14-2.36-2.51-4.12-4.4-4.86-1.51-.59-3.14-.41-4.72-.57-2.81-.29-5.55-1.15-8.35-1.55-3.39-.49-6.81-.7-10.24-.65Z"/>
        <g>
          <g>
            <path class="st29" d="M209.5,98.48c.08-3.53-.38-7.1-1.63-10.31-.77-.16-2.09-.25-2.86-.41.41,3.03.38,6.14-.08,9.18,1.24,1.13,2.93,1.69,4.56,1.54Z"/>
            <path class="st25" d="M204.94,96.94c-.15,1.01-.35,2.02-.6,3.01.46.9,1.32,1.63,2.26,1.84.94.21,1.97-.04,2.75-.67.08-.87.14-1.76.16-2.64-1.64.15-3.32-.41-4.56-1.54Z"/>
          </g>
          <g>
            <path class="st21" d="M217.77,90.59c-1.66.77-3.66.53-5.18-.48-.72,1.29-1.95,2.25-3.31,2.57-1.36.32-2.76-.2-3.89-1.06-1.33,1.12-3.14,1.55-4.77,1.14-1.63-.42-2.93-1.69-3.62-3.33,1.38-.7,2.5-1.94,3.28-3.36-1.51,1.29-3.48,1.99-5.36,1.68-1.88-.31-3.61-1.73-4.18-3.68-.57-1.95-.12-4.84,1.55-5.87-.78-1.34-1.04-3.02-.71-4.58.26-1.24.89-2.38,1.75-3.25-1.21.47-2.28,1.39-2.94,2.59-.95,1.72-1.03,3.96-.19,5.73-2.03,1.7-2.9,4.84-2.05,7.42.84,2.58,3.34,4.39,5.89,4.28.83,2.25,2.64,4.05,4.8,4.77,2.15.72,4.61.34,6.53-1,1.46.51,3.44,1.02,4.97.81,1.53-.21,3.08-1.38,3.29-3.03,1.65,1.04,3.91.86,5.43-.44,1.23-1.05,1.91-2.77,1.84-4.43-.55,1.54-1.69,2.85-3.1,3.51Z"/>
            <path class="st6" d="M221.34,79.1c.98-1.68,1.91-3.53,1.83-5.5-.08-1.97-1.56-3.96-3.38-3.76.47-2.62-.74-5.47-2.88-6.77-2.14-1.29-5.06-.93-6.92.86-.33-1.33-1.44-2.38-2.7-2.56-1.27-.18-2.75.13-3.42,1.32-1.5-1.26-3.8-1.3-5.37-.1-1.58,1.21-2.31,3.56-1.72,5.52-.98-.37-2.13.87-1.79,1.92-.57.02-1.13.14-1.66.35-.87.86-1.49,2.01-1.75,3.25-.33,1.56-.06,3.24.71,4.58-1.67,1.03-2.12,3.92-1.55,5.87.57,1.95,2.3,3.37,4.18,3.68,1.88.31,3.86-.4,5.36-1.68-.78,1.42-1.9,2.65-3.28,3.36.68,1.64,1.99,2.91,3.62,3.33,1.63.42,3.44-.01,4.77-1.14,1.13.85,2.53,1.38,3.89,1.06,1.36-.32,2.59-1.28,3.31-2.57,1.52,1.01,3.52,1.25,5.18.48,1.41-.66,2.55-1.96,3.1-3.51-.02-.4-.08-.8-.18-1.18,1.92-1.15,2.11-5.06.65-6.79Z"/>
          </g>
          <g>
            <path class="st21" d="M214.38,72.72c-.19-.53-.54-1.04-1.01-1.39-.47-.35-1.04-.53-1.57-.53-.35,0-.68.07-.96.2-.14-.71-.46-1.43-.97-1.98-.6-.66-1.4-1.05-2.17-1.15-.77-.1-1.5.09-2.01.43.59.1,1.19.27,1.76.55.57.28,1.09.66,1.52,1.13.43.47.77,1.05,1.02,1.66.25.61.4,1.27.48,1.91.33-.54.52-1.33.44-2.16,0-.03,0-.06-.01-.09.69.12,1.4.38,1.99.82.71.53,1.26,1.33,1.61,2.12.11-.43.09-.97-.1-1.5Z"/>
            <path class="st21" d="M198.7,71.08c-.56-.13-1.23-.03-1.79.33-.56.36-.95.96-1.12,1.55-.17.6-.11,1.2.09,1.62.11-.46.28-.91.54-1.32.25-.4.58-.76.95-1,.37-.24.82-.39,1.26-.44.45-.05.9,0,1.32.11-.24-.39-.7-.73-1.27-.85Z"/>
          </g>
        </g>
        <g>
          <path class="st26" d="M125.95,122c16.77,5,33.95,8.5,51.3,10.45,16.98,1.91,34.99,2.13,50.44-5.78l1.77-16.92c-25.05,11.44-53.67,14.58-79.21,5.52-9.99-3.54-19.31-8.83-28.72-13.89-3.43-1.85-6.88-3.66-10.37-5.36-12.47-6.04-26.2-10.54-39.8-8.67l-2.28,21.85c19.28-.3,38.17,7.21,56.87,12.79Z"/>
          <path class="st18" d="M177.25,132.45c-17.35-1.95-34.53-5.45-51.3-10.45-18.71-5.58-37.59-13.09-56.87-12.79l-1.41,13.46,158.71,16.59,1.31-12.58c-15.45,7.9-33.46,7.68-50.44,5.78Z"/>
        </g>
        <g>
          <path class="st20" d="M186.66,127.43c-.16,1.51-1.67,1.33-3.53,1.13s-3.38-.33-3.22-1.84,1.8-2.57,3.66-2.38,3.25,1.58,3.09,3.08Z"/>
          <g>
            <g>
              <path class="st20" d="M96.46,103.67c.79-.41,1.68-.59,2.55-.53-.47-1.46-2.01-2.63-3.95-2.84-2.47-.26-4.64,1.15-4.85,3.15s1.67,2.16,4.02,2.41c.52-.94,1.31-1.72,2.23-2.2Z"/>
              <path class="st2" d="M96.46,103.67c-.92.47-1.7,1.25-2.23,2.2.08,0,.16.02.24.03,2.47.26,4.47.5,4.68-1.5.04-.43,0-.85-.14-1.25-.87-.06-1.76.12-2.55.53Z"/>
            </g>
            <path class="st4" d="M102.37,106.65c-.16,1.51-1.67,1.33-3.53,1.13s-3.38-.33-3.22-1.84,1.8-2.57,3.66-2.38,3.25,1.58,3.09,3.08Z"/>
          </g>
        </g>
      </g>
    </g>
    <path class="st16" d="M228.02,27.72c-.09-.12-.22-.19-.36-.2l-125.61-10.11c-.27-.02-.52.18-.57.46,0,0-4,23.53-7.98,47.32-1.99,11.89-3.98,23.85-5.46,32.96-.74,4.56-1.36,8.4-1.78,11.17-.21,1.39-.38,2.5-.49,3.31-.06.4-.1.73-.13.97-.01.12-.02.23-.03.31,0,.09-.01.15,0,.24,0,.03,0,.07.03.15.01.04.03.1.1.19.04.04.09.09.17.13.07.04.16.05.24.05h0s0,0,0,0c.06,0,.28.03.59.07,2.45.33,11.37,1.73,23.36,3.64,17.98,2.87,42.88,6.89,63.28,10.2,10.2,1.65,19.27,3.13,25.8,4.19,6.53,1.06,10.5,1.71,10.5,1.71.14.02.28-.01.39-.1.11-.09.19-.21.22-.36l17.83-105.9c.03-.15,0-.3-.1-.41Z"/>
  </g>
</svg>