<?xml version="1.0" encoding="UTF-8"?>
<svg id="Layer_1" xmlns="http://www.w3.org/2000/svg" version="1.1" viewBox="0 0 250 200">
  <!-- Generator: Adobe Illustrator 30.1.0, SVG Export Plug-In . SVG Version: 2.1.1 Build 136)  -->
  <defs>
    <style>
      .st0 {
        stroke-width: 1.52px;
      }

      .st0, .st1, .st2, .st3, .st4, .st5, .st6, .st7, .st8, .st9, .st10 {
        stroke: #4c241e;
      }

      .st0, .st1, .st2, .st3, .st5, .st7, .st8, .st10 {
        stroke-linejoin: round;
      }

      .st0, .st1, .st2, .st4, .st5, .st7, .st9, .st10 {
        stroke-linecap: round;
      }

      .st0, .st5, .st6, .st7 {
        fill: #f1f1f1;
      }

      .st1 {
        stroke-width: .99px;
      }

      .st1, .st3, .st11, .st10 {
        fill: #4c241e;
      }

      .st2 {
        stroke-width: 1.35px;
      }

      .st2, .st8 {
        fill: #fff;
      }

      .st3 {
        stroke-width: 1.2px;
      }

      .st4, .st6, .st9 {
        stroke-miterlimit: 10;
      }

      .st4, .st9 {
        fill: #bababa;
        opacity: .3;
      }

      .st4, .st10 {
        stroke-width: 1.03px;
      }

      .st5 {
        stroke-width: 1.58px;
      }

      .st6, .st8 {
        stroke-width: 2px;
      }

      .st7 {
        stroke-width: 1.63px;
      }
    </style>
  </defs>
  <path class="st5" d="M92.55,72.23"/>
  <path class="st7" d="M81.21,113.14"/>
  <path class="st0" d="M92.95,101.64"/>
  <path class="st6" d="M125.41,110.16l65.49,22.14c.62.22.61,1.1-.01,1.31l-91.68,48.74c-.17.06-.34.05-.5-.02-5.4-2.42-58.91-26.42-72.51-32.46-.59-.26-.53-1.12.09-1.3l98.69-38.42c.14-.04.29-.04.43.01Z"/>
  <polyline class="st4" points="142.35 144.37 161.07 155.62 132.11 164.31 113.59 151.67"/>
  <path class="st11" d="M58.72,158.93c.05.21.21.41.41.5l33.91,15.38c.08.03.15.05.22.04l.11-.03,89.19-38.86c.16-.07.22-.26.16-.48-.06-.22-.24-.41-.44-.49l-33.36-12.32c-.1-.04-.2-.04-.28,0l-89.75,35.8c-.16.06-.23.24-.18.46ZM96.35,145.36c.26.18.52.37.77.55.53.38,1.06.76,1.59,1.13.53.36,1.05.75,1.59,1.07.21.13.43.23.65.29h.02s-18.57,7.71-18.57,7.71c-.18-.19-.37-.37-.56-.54-.24-.2-.48-.39-.72-.58-.49-.38-.99-.75-1.49-1.11-.51-.37-1.03-.72-1.55-1.07-.25-.16-.5-.33-.75-.48l18.5-7.38c.15.16.34.28.52.42ZM81.51,157.68l6.49-2.69c.23.27.53.46.8.66.32.23.64.45.96.67.58.4,1.18.73,1.77,1.08-2.34.97-4.52,1.87-6.49,2.69-.75-.45-1.49-.96-2.22-1.46-.42-.28-.83-.58-1.23-.89l-.09-.06ZM82.66,159.19c.63.42,1.27.77,1.92,1.09-2.16.9-4.06,1.68-5.63,2.33-.53-.44-1.07-.87-1.61-1.29-.55-.42-1.1-.84-1.66-1.23l5.24-2.18c.16.14.33.27.5.4.41.3.82.6,1.24.87ZM154.21,132.94c.3.41.76.57,1.15.75.38.18.77.34,1.16.48.4.15.8.27,1.2.37.27.06.53.09.79.11l-12.1,5.07-.04-.02c-.05-.02-.08.02-.08.07h-.02c-.07-.03-.14-.1-.2-.14-.16-.12-.33-.24-.5-.35-.32-.2-.63-.39-.95-.58-.66-.4-1.31-.8-1.97-1.2l-.1-.04c4.42-1.83,8.39-3.48,11.65-4.83-.05.08-.06.19.03.32ZM113.58,144.86c.38.27.78.49,1.17.74.37.23.74.46,1.1.69.34.21.68.42,1.03.59-1.91.79-3.81,1.58-5.7,2.36-.25-.19-.51-.37-.77-.53-.35-.22-.7-.45-1.05-.67-.35-.22-.7-.44-1.06-.65-.18-.11-.36-.22-.55-.33-.09-.05-.18-.11-.27-.17l5.87-2.44c0,.13.06.29.22.4ZM94.14,152.43l6.28-2.61c.1.07.21.13.31.2.19.13.39.25.59.38l1.1.71c.38.24.76.48,1.14.72.18.11.36.23.55.34-2.11.88-4.18,1.73-6.17,2.56l-.06-.07c-.78-.51-1.59-.91-2.38-1.39-.4-.24-.8-.49-1.2-.75-.05-.03-.11-.06-.16-.1ZM95.38,153.83c.73.42,1.46.81,2.2,1.06-1.96.81-3.85,1.6-5.65,2.35l-.03-.02c-.64-.44-1.25-.93-1.89-1.37-.32-.23-.64-.46-.96-.69-.16-.12-.34-.27-.51-.39l5.05-2.09.02.02c.19.16.4.3.6.43.39.25.78.49,1.17.72ZM101.09,149.55l5.83-2.42c.02.06.06.11.12.16.17.15.36.25.55.36.18.11.37.22.55.33.35.21.71.42,1.07.63.36.21.71.41,1.07.61.14.08.28.16.43.23-2.06.86-4.11,1.7-6.11,2.53-.28-.26-.61-.47-.91-.67-.36-.25-.73-.5-1.09-.75-.38-.25-.75-.51-1.13-.76-.12-.08-.25-.17-.37-.25ZM142.46,138.07c.72.44,1.44.88,2.16,1.31.35.21.71.44,1.07.62l-5.07,2.13c-.27-.3-.63-.49-.94-.69-.34-.21-.68-.39-1.03-.59-.35-.2-.71-.4-1.06-.61-.18-.11-.36-.21-.54-.32-.07-.04-.14-.08-.21-.12,1.51-.63,2.98-1.24,4.41-1.83.06.03.12.05.17.08.13.06.18-.09.13-.21.24-.1.49-.2.73-.3-.07.14-.03.38.19.51ZM140.22,142.31l-5.17,2.17c-.34-.19-.67-.4-1.01-.57-.36-.18-.72-.37-1.08-.55-.36-.18-.72-.38-1.08-.58-.18-.1-.37-.21-.55-.31-.12-.07-.24-.15-.36-.21,1.81-.75,3.59-1.49,5.33-2.21.02.07.06.14.11.2.15.17.37.26.55.37.17.1.34.2.51.3.34.2.69.39,1.03.58.36.2.72.39,1.09.56.2.09.42.2.63.27ZM134.52,144.69l-17.87,7.49c-.27-.23-.58-.42-.86-.61-.37-.26-.74-.51-1.11-.77-.54-.38-1.08-.76-1.62-1.13,5.78-2.4,11.7-4.85,17.36-7.2.02.09.06.18.15.26.17.16.37.26.56.36.18.1.37.21.56.31.37.2.74.39,1.12.58.38.19.76.36,1.14.52.19.08.38.14.57.19ZM113.77,144.29l5.18-2.15c.21.14.44.26.62.37.39.24.79.48,1.18.73.4.25.81.49,1.21.76.26.17.52.32.78.46-1.75.73-3.52,1.46-5.28,2.19-.2-.1-.4-.22-.6-.36-.33-.23-.66-.46-1-.67-.34-.22-.69-.44-1.03-.66-.35-.22-.7-.47-1.05-.67ZM119.67,141.84l6.68-2.77c.26.22.58.36.85.51.35.2.7.41,1.05.63.64.4,1.27.83,1.92,1.16-2.31.96-4.66,1.93-7.03,2.92-.33-.27-.65-.56-.99-.8-.4-.28-.79-.56-1.19-.83-.41-.27-.83-.53-1.24-.79l-.05-.03ZM126.99,138.8l15.51-6.44c.33.46.93.7,1.37.94.48.25.96.49,1.45.7.46.2.91.37,1.37.53-2,.83-4.12,1.71-6.35,2.63-.45-.26-.89-.53-1.33-.81-.4-.25-.81-.51-1.21-.78-.21-.14-.41-.28-.62-.42-.2-.14-.35-.25-.56-.29-.16-.03-.18.18-.09.31.16.23.36.35.58.5.19.13.39.26.58.39.4.26.81.52,1.22.75.33.19.66.36.99.53-3,1.24-6.17,2.56-9.44,3.91l-.02-.04c-.62-.64-1.32-1.1-2.02-1.55-.36-.23-.72-.45-1.08-.66-.11-.06-.22-.13-.34-.21ZM157.3,136.48c.26.45.82.57,1.21.73.42.17.83.35,1.25.51.53.21,1.05.4,1.57.55l-23.53,10.15-.08-.13c-.05-.04-.1-.1-.15-.15-.06-.06-.14-.09-.21-.14-.16-.1-.32-.19-.48-.29-.3-.18-.61-.35-.92-.53-.31-.19-.63-.39-.94-.59-.16-.1-.32-.21-.48-.31-.12-.08-.25-.17-.38-.24l23.09-9.68.03.11ZM137.57,148.52l-11.75,5.07c-.18-.13-.35-.29-.53-.42-.18-.13-.37-.26-.56-.37-.38-.23-.76-.44-1.14-.67-.38-.22-.76-.44-1.14-.67-.17-.1-.33-.19-.5-.29l11.87-4.98c0,.09.05.2.13.28.15.15.34.26.51.37.15.1.3.2.45.29.31.2.63.38.95.56.33.19.66.38,1,.53.16.07.31.14.47.2.09.04.16.07.25.08h.01ZM125.48,153.74l-6.57,2.84c-.15-.13-.33-.23-.49-.32-.21-.12-.42-.24-.64-.36-.41-.23-.82-.47-1.23-.71-.42-.25-.85-.5-1.27-.77-.12-.08-.26-.17-.41-.27l6.5-2.73c.1.12.24.2.37.28.19.11.38.22.57.33.38.22.76.44,1.15.66.39.23.79.46,1.18.68.19.1.38.2.58.28.08.04.17.07.25.1ZM103.12,157.86c-.37-.25-.73-.53-1.1-.79-.37-.26-.75-.52-1.12-.79-.38-.27-.76-.55-1.14-.84-.07-.05-.14-.11-.21-.16,4.1-1.7,8.48-3.52,12.94-5.37.68.46,1.37.92,2.05,1.39.38.26.76.52,1.14.78.15.1.31.21.46.32l-13.04,5.47ZM102.79,158l-7.56,3.17c-.24-.17-.48-.33-.72-.48-.46-.29-.92-.58-1.38-.88-.47-.31-.95-.61-1.42-.92-.11-.07-.21-.14-.32-.22,2.39-.99,4.96-2.06,7.66-3.18.19.15.38.29.57.43.37.27.74.54,1.11.8.38.27.77.53,1.16.77.3.18.6.34.9.5ZM94.81,161.35l-5.14,2.15c-.31-.23-.61-.47-.92-.69-.37-.26-.74-.51-1.12-.76-.56-.38-1.13-.75-1.69-1.13,1.51-.63,3.13-1.3,4.86-2.01.25.19.51.36.75.52.47.31.95.61,1.43.9.49.29.99.58,1.49.85.11.06.23.11.34.17ZM107.94,140.57c.26.15.52.3.78.45.49.29.98.59,1.47.9.83.53,1.64,1.1,2.47,1.62l-11.19,4.64-.07-.05c-.19-.04-.45-.2-.63-.32-.2-.14-.4-.29-.59-.44-.48-.37-.96-.73-1.45-1.08-.5-.36-1-.72-1.5-1.08-.24-.17-.49-.35-.73-.52h-.02s10.99-4.4,10.99-4.4c.16.1.32.18.47.27ZM120.86,135.29c.89.53,1.78,1.06,2.68,1.58.43.25.87.5,1.3.75.31.17.62.33.93.48l-12.76,5.3c-.37-.33-.74-.64-1.14-.93-.49-.35-.99-.69-1.48-1.01-.51-.34-1.03-.66-1.55-.98-.24-.15-.49-.29-.73-.43l12.55-5.01c.03.09.1.18.21.25ZM127.46,133.24c.25.15.5.3.75.44.47.27.95.54,1.43.79.49.26.99.52,1.49.75.25.12.51.24.77.34l-5.71,2.37c-.4-.28-.79-.57-1.19-.82-.43-.27-.86-.53-1.29-.8-.82-.51-1.65-1-2.48-1.5l5.46-2.18.06.08c.2.23.48.37.72.52ZM132.52,130.7c.9.54,1.81,1.06,2.72,1.56.69.37,1.4.76,2.1,1.04l-4.83,2c-.42-.33-.9-.55-1.34-.79-.48-.25-.95-.5-1.43-.76-.49-.27-.98-.55-1.46-.84-.29-.17-.6-.39-.9-.56l4.92-1.96c.02.11.09.22.22.3ZM143.47,126.19c1.05.56,2.1,1.08,3.16,1.54.52.23,1.05.45,1.57.65.17.06.35.13.54.19l-10.86,4.51c-.81-.56-1.67-.98-2.51-1.44-.85-.47-1.69-.95-2.53-1.46l10.46-4.17c.05.08.11.15.17.18ZM155.09,125.93l-5.68,2.36c-.37-.23-.79-.38-1.16-.54-.51-.21-1.02-.42-1.52-.64-.93-.41-1.86-.87-2.78-1.36l5.12-2.04,6.02,2.22ZM161.62,128.34c-2.17.89-7.3,3.02-14.05,5.82-.28-.13-.56-.24-.84-.34-.45-.17-.91-.35-1.36-.55-.46-.2-.92-.43-1.38-.68-.26-.14-.56-.35-.84-.5l13.48-5.6,4.99,1.84ZM167.95,130.68l-8.95,3.75c-.02-.1-.09-.2-.2-.23-.38-.1-.77-.26-1.15-.38-.36-.12-.72-.24-1.09-.37-.36-.14-.72-.29-1.08-.46-.35-.16-.74-.44-1.08-.44,4.89-2.02,8.13-3.36,8.77-3.63l4.79,1.77ZM173.87,132.87l-11.95,5.15c-.7-.37-1.4-.66-2.11-.96-.43-.18-.86-.36-1.29-.55-.22-.1-.51-.27-.76-.34l11.73-4.92,4.39,1.62ZM156.51,146.1c-.4-.18-.81-.38-1.21-.55-.48-.21-.95-.44-1.42-.69-.48-.25-.96-.53-1.43-.81-.22-.14-.44-.28-.67-.42h-.02s23.63-10.2,23.63-10.2l5.53,2.04-11.02,4.8c-.32-.16-.65-.29-.98-.42-.48-.19-.95-.39-1.42-.61-.48-.22-.96-.45-1.44-.7-.42-.22-1-.68-1.36-.45-.08.05-.07.16-.04.27.05.14.12.21.18.29.09.13.22.2.35.27.25.14.5.27.75.39.51.26,1.01.49,1.52.71.52.22,1.04.42,1.56.58l.07.02-12.56,5.47ZM111.59,165.67c-.31-.21-.64-.4-.95-.59-.46-.27-.92-.54-1.37-.82-.47-.29-.94-.58-1.41-.87-.22-.14-.44-.28-.66-.42l-.13-.09,44.07-19.01c.35.32.82.55,1.18.77.48.28.96.54,1.44.78.49.25.99.47,1.49.67.23.1.46.17.69.24l-44.36,19.33ZM104.97,167.77c-.22-.14-.44-.27-.66-.4-.44-.26-.89-.51-1.33-.76-.45-.25-.89-.51-1.33-.76-.21-.12-.41-.24-.62-.36l5.49-2.37c.16.17.38.29.56.41.22.14.44.28.66.42.45.29.91.57,1.37.84.47.28.94.56,1.42.83.17.1.34.19.51.29l-5.47,2.39-.02-.04c-.19-.21-.34-.35-.57-.49ZM98.32,171.45c-.36-.18-.72-.38-1.09-.56-.5-.25-1-.48-1.5-.74-.5-.26-.99-.52-1.49-.8-.25-.14-.49-.28-.74-.43-.06-.04-.13-.07-.19-.11l7.03-3.03c.04.05.09.1.14.15.1.09.22.14.33.21.22.13.45.25.67.37.45.25.89.5,1.34.74.46.25.92.51,1.39.74.22.11.45.23.67.33.13.06.24.09.34.12l-6.92,3.01ZM87.5,171.33l5.28-2.28c.17.21.39.33.61.45.26.15.53.3.79.44.5.27,1,.53,1.5.77.51.25,1.02.5,1.53.7.22.09.44.16.67.23l-4.93,2.15-5.44-2.47ZM80.96,168.36l33.23-13.93c.27.27.67.47.94.64.42.26.85.51,1.27.75.44.25.88.49,1.32.72.2.1.39.2.59.29l-11.77,5.08c-.1-.03-.23-.11-.3-.16-.2-.12-.4-.25-.61-.36-.41-.22-.82-.43-1.23-.65-.43-.22-.85-.44-1.28-.67-.19-.1-.38-.2-.58-.3-.21-.11-.42-.23-.61-.17-.13.04-.14.2-.05.35.16.26.46.37.7.49.23.12.47.24.7.36.48.24.96.49,1.45.73.42.21.84.42,1.26.6l-19.87,8.57-5.17-2.35ZM74.78,165.56c.66-.27,4.65-1.93,10.6-4.4.7.46,1.4.93,2.1,1.39.39.25.77.51,1.16.75.21.13.42.25.63.37l-9.7,4.07-4.79-2.17ZM68.93,162.9l6.2-2.57c.04.06.09.13.16.17.61.47,1.25.9,1.88,1.33.48.33.95.63,1.43.94-2.45,1.02-4.03,1.67-4.46,1.85-.19.08-.24.34-.12.59l-5.09-2.31ZM60.44,159.05l16.27-6.49c.12.15.29.25.47.36.26.16.51.33.76.49.49.33.99.66,1.47,1.01.5.35,1,.71,1.49,1.08.36.27.72.51,1.09.76l-6.91,2.87-.08-.05c-.4-.1-.79-.39-1.16-.67-.43-.32-.85-.65-1.28-.98l-1.39-1.05c-.22-.17-.44-.33-.66-.5-.22-.17-.45-.37-.7-.46-.21-.08-.34.17-.18.38.2.26.47.43.72.61.23.17.46.35.7.52l1.43,1.07c.66.49,1.41,1.16,2.14,1.32l-6.29,2.61c-.21.09-.25.37-.1.64v.02s-7.8-3.55-7.8-3.55Z"/>
  <polygon class="st1" points="97.58 188.42 197.79 134.91 198.24 130.03 98.14 182.33 97.58 188.42"/>
  <polygon class="st10" points="25.44 154.34 97.58 188.42 98.15 182.25 25.24 149.03 25.44 154.34"/>
  <polygon class="st3" points="224.79 15.31 123.51 54.04 128.62 57.5 230.98 17.98 224.79 15.31"/>
  <polyline class="st9" points="91.44 143.32 72.49 134.47 101.77 122.36 120.57 130.56"/>
  <g>
    <path class="st2" d="M226.66,22.38"/>
    <path class="st8" d="M128.15,57.68l102.67-39.09-32.58,111.72-100.2,51.77c-1.13.45-1.82-.33-1.53-1.75l31.64-122.66Z"/>
    <polygon class="st3" points="96.5 181.8 93.2 181.85 123.51 54.08 127.98 58.32 96.5 181.8"/>
  </g>
  <path class="st11" d="M182.23,91.87c-.23-3.83-1.55-6.88-3.75-8.8.95-.76,1.85-1.81,2.56-2.97.96-1.59,1.5-3.32,1.49-4.76,0-.72-.12-1.37-.38-1.87-.27-.53-.69-.96-1.27-1.03-.32-.04-.69.03-1.08.27-.33.2-.65.49-.94.83-.58.69-1.03,1.52-1.43,2.34-.51,1.06-.97,2.13-1.39,3.19-.2.52-.39,1.04-.57,1.56-.07.22-.14.43-.21.65-1.73-.54-3.74-.64-5.99-.22-3.79.71-7.74,2.8-11.42,5.79.12-.48.23-.95.33-1.43.21-1.03.37-2.04.46-3.02.07-.75.09-1.5-.12-2.05-.11-.27-.28-.46-.52-.56-.28-.12-.66-.04-1.04.13-.69.31-1.43.95-2.07,1.65-.61.67-1.15,1.43-1.61,2.24-.92,1.61-1.41,3.33-1.34,4.73.06,1.25.58,2.18,1.4,2.56-3.22,3.52-6.02,7.7-8.03,12.13-3.24,3.16-5.71,6.81-6.8,10.48-1.99,6.67,1.11,11.49,7.21,12.6,2.24,2.06,5.44,2.91,9.38,2.17,6.34-1.19,13.13-6.22,18.34-12.95,5.09-3.72,9.11-8.69,10.6-13.69,1.27-4.25.47-7.74-1.85-10.01Z"/>
</svg>