<?xml version="1.0" encoding="UTF-8"?>
<svg id="Layer_1" xmlns="http://www.w3.org/2000/svg" version="1.1" xmlns:xlink="http://www.w3.org/1999/xlink" viewBox="0 0 250 200">
  <!-- Generator: Adobe Illustrator 30.1.0, SVG Export Plug-In . SVG Version: 2.1.1 Build 136)  -->
  <defs>
    <style>
      .st0 {
        fill: #c3f39d;
      }

      .st1 {
        fill: #73bb70;
      }

      .st2 {
        fill: #b0b7cf;
      }

      .st3 {
        stroke-width: 1.52px;
      }

      .st3, .st4, .st5, .st6, .st7, .st8, .st9, .st10 {
        stroke: #4c241e;
      }

      .st3, .st5, .st7 {
        fill: #f1f1f1;
      }

      .st3, .st5, .st9, .st10 {
        stroke-linejoin: round;
      }

      .st3, .st8, .st9 {
        stroke-linecap: round;
      }

      .st11 {
        fill: #85cb7c;
      }

      .st12 {
        fill: #e1e4f3;
      }

      .st13 {
        fill: #72c26a;
      }

      .st14 {
        fill: #73c36a;
      }

      .st15 {
        fill: #b6f6f6;
      }

      .st16 {
        fill: #fff;
      }

      .st4, .st6 {
        stroke-width: 1.07px;
      }

      .st4, .st6, .st7, .st8 {
        stroke-miterlimit: 10;
      }

      .st4, .st17 {
        fill: #e6ffef;
      }

      .st18 {
        fill: #94d77b;
      }

      .st19 {
        fill: #246b72;
      }

      .st5, .st7 {
        stroke-width: 2px;
      }

      .st20 {
        fill: #c6cbe1;
      }

      .st21 {
        fill: #469f64;
      }

      .st22 {
        opacity: .8;
      }

      .st23 {
        fill: #085579;
      }

      .st24 {
        fill: #817754;
      }

      .st25 {
        fill: #b8f09c;
      }

      .st6 {
        fill: none;
      }

      .st26 {
        fill: #cdfdff;
      }

      .st8 {
        fill: #bababa;
        opacity: .3;
      }

      .st27, .st9, .st10 {
        fill: #4c241e;
      }

      .st9 {
        stroke-width: 1.03px;
      }

      .st10 {
        stroke-width: 1.17px;
      }

      .st28 {
        fill: #368b74;
      }

      .st29 {
        fill: #665a3a;
      }

      .st30 {
        clip-path: url(#clippath);
      }
    </style>
    <clipPath id="clippath">
      <path class="st4" d="M213.14,36.53c-.06-.13-.15-.21-.26-.24L117.8,14.53c-.21-.05-.41.14-.47.42,0,0-4.61,23.88-9.22,48.03-2.31,12.07-4.62,24.21-6.35,33.47-.87,4.63-1.59,8.53-2.1,11.35-.25,1.41-.45,2.54-.59,3.36-.07.41-.12.74-.16.99-.02.13-.03.23-.04.32-.01.09-.02.15-.02.24,0,.04,0,.07,0,.16,0,.04.02.11.06.2.02.05.06.11.12.15.05.04.12.07.18.07h0s0,0,0,0c.05,0,.21.05.45.13,1.85.56,8.56,2.81,17.57,5.86,13.52,4.58,32.23,10.97,47.56,16.22,7.67,2.62,14.49,4.96,19.39,6.64,4.9,1.68,7.89,2.71,7.89,2.71.1.04.21.01.31-.07.09-.08.16-.2.19-.35l20.62-107.48c.03-.15.01-.31-.05-.44Z"/>
    </clipPath>
  </defs>
  <path class="st3" d="M192.86,148.76"/>
  <path class="st5" d="M217.89,32.97L113.65,10.56l-19.89,107.77,100.11,33.73c.98.33,1.98-.47,2.23-1.8l21.79-117.29Z"/>
  <path class="st7" d="M93.8,117.66l-72.76,28.98c-.61.24-.56,1.12.07,1.31l101.9,40.99c.17.05.34.04.5-.04,5.3-2.6,57.75-28.37,71.08-34.86.58-.28.49-1.13-.14-1.3l-100.22-35.11c-.14-.04-.29-.03-.43.03Z"/>
  <polyline class="st8" points="79.09 148.59 59.41 157.38 87.45 169.69 107.05 159.49"/>
  <path class="st27" d="M182.8,154.26l-89.91-33.25c-.08-.03-.18-.02-.28.02l-33.37,13.24c-.2.08-.37.28-.44.5-.06.22,0,.41.16.47l89.36,36.32.11.02c.07,0,.15-.01.22-.05l33.92-16.31c.19-.09.35-.3.4-.51.05-.21-.02-.39-.18-.45ZM145.8,141.78l18.53,6.85c-.25.17-.5.33-.75.5-.52.36-1.04.73-1.55,1.11-.5.37-1,.75-1.48,1.15-.24.2-.48.39-.72.6-.19.17-.38.36-.56.56l-18.6-7.18h.02c.22-.07.44-.18.65-.31.54-.34,1.06-.74,1.59-1.11.53-.38,1.06-.78,1.59-1.17.26-.19.52-.38.77-.57.19-.14.37-.26.52-.43ZM160.07,154.17c-.41.32-.82.63-1.23.92-.73.52-1.48,1.05-2.22,1.52-1.97-.76-4.16-1.6-6.5-2.51.59-.36,1.19-.71,1.77-1.13.32-.23.64-.46.96-.7.27-.2.57-.41.8-.68l6.5,2.51-.09.07ZM160.24,154.74c.17-.13.34-.27.5-.41l5.25,2.03c-.56.41-1.11.85-1.66,1.28-.55.43-1.08.88-1.61,1.33-1.57-.61-3.47-1.34-5.64-2.17.65-.34,1.28-.71,1.91-1.15.42-.29.83-.59,1.24-.91ZM87.37,131.11c3.27,1.26,7.25,2.79,11.68,4.5l-.1.04c-.66.41-1.31.83-1.97,1.25-.32.2-.64.4-.95.61-.17.11-.33.24-.5.36-.06.05-.13.12-.2.16h-.02c0-.06-.03-.1-.08-.08l-.04.02-12.12-4.73c.26-.03.52-.07.79-.13.4-.1.8-.24,1.2-.4.39-.15.77-.32,1.16-.51.39-.19.85-.36,1.15-.78.09-.13.09-.24.03-.32ZM128.25,141.79l5.88,2.27c-.09.06-.18.12-.27.17-.18.12-.36.23-.55.35-.35.22-.71.45-1.06.68-.35.23-.7.46-1.05.7-.26.17-.52.36-.77.55-1.89-.73-3.8-1.46-5.71-2.2.35-.19.69-.4,1.03-.62.37-.24.74-.48,1.1-.72.39-.25.79-.49,1.17-.77.16-.12.23-.28.22-.41ZM147.34,149.32c-.4.27-.8.53-1.2.78-.79.5-1.6.92-2.38,1.45l-.06.07c-2-.77-4.07-1.57-6.18-2.38.19-.11.37-.24.55-.36.38-.25.76-.5,1.14-.75l1.1-.74c.2-.13.39-.26.59-.39.1-.07.21-.14.31-.21l6.29,2.43c-.05.03-.11.06-.16.1ZM147.44,149.9c.21-.14.41-.28.6-.45l.02-.02,5.06,1.95c-.18.13-.35.28-.51.4-.32.24-.64.48-.96.72-.63.46-1.25.97-1.89,1.43l-.03.03c-1.8-.7-3.7-1.43-5.66-2.18.74-.27,1.47-.68,2.2-1.12.39-.24.78-.49,1.17-.75ZM140.17,146.79c-.38.26-.75.53-1.13.79-.37.26-.73.52-1.09.78-.3.21-.63.43-.91.7-2-.77-4.05-1.56-6.12-2.36.14-.08.29-.16.43-.25.36-.21.71-.42,1.07-.64.36-.22.71-.43,1.07-.65.18-.11.37-.23.55-.34.19-.12.38-.22.55-.38.06-.05.09-.11.12-.16l5.84,2.25c-.12.09-.25.17-.37.26ZM99.3,135.71c.24.09.48.19.73.28-.06.12,0,.27.13.2.06-.03.12-.06.17-.09,1.44.55,2.91,1.12,4.42,1.7-.07.04-.14.08-.21.13-.18.11-.36.22-.54.33-.35.22-.71.43-1.06.64-.34.2-.69.4-1.03.61-.31.2-.67.41-.94.71l-5.08-1.98c.36-.19.71-.43,1.07-.65.72-.45,1.44-.91,2.16-1.37.22-.14.26-.38.19-.52ZM101.99,140.1c.37-.18.73-.39,1.09-.59.34-.2.69-.4,1.03-.61.17-.1.34-.21.51-.31.18-.11.4-.21.55-.38.05-.06.09-.13.11-.2,1.74.67,3.53,1.36,5.34,2.06-.12.07-.24.15-.36.22-.18.11-.37.22-.55.33-.36.21-.72.41-1.08.6-.36.19-.72.39-1.08.58-.34.18-.67.41-1.01.6l-5.18-2.02c.21-.08.43-.19.63-.28ZM107.64,142.4c.38-.17.76-.36,1.14-.55.37-.2.75-.4,1.12-.61.19-.11.37-.21.56-.32.19-.11.39-.21.56-.38.09-.09.13-.18.15-.26,5.66,2.18,11.59,4.47,17.39,6.7-.54.39-1.08.79-1.62,1.18-.37.27-.74.53-1.11.8-.28.2-.58.4-.86.64l-17.9-6.98c.19-.06.38-.12.57-.21ZM126.79,142.32c-.34.23-.69.46-1.03.69-.34.22-.67.46-1,.7-.2.14-.4.27-.6.38-1.77-.68-3.53-1.36-5.29-2.04.26-.15.52-.31.78-.48.4-.27.81-.53,1.21-.79.39-.26.78-.51,1.18-.76.19-.12.41-.24.62-.39l5.19,2c-.35.21-.71.46-1.05.7ZM121.88,139.38c-.41.27-.83.54-1.24.83-.4.28-.79.57-1.19.86-.34.25-.66.54-.99.82-2.38-.92-4.73-1.82-7.04-2.72.65-.35,1.28-.8,1.92-1.21.35-.23.7-.45,1.05-.66.27-.16.59-.31.85-.54l6.69,2.58-.05.03ZM114.25,136.73c-.36.22-.72.45-1.08.69-.71.47-1.41.95-2.02,1.61l-.02.04c-3.27-1.26-6.45-2.49-9.46-3.65.33-.18.66-.36.99-.56.41-.25.81-.51,1.22-.78.2-.13.39-.27.58-.41.22-.15.42-.28.58-.52.09-.14.07-.34-.09-.31-.22.05-.36.16-.56.3-.2.15-.41.29-.61.44-.4.28-.8.55-1.21.81-.44.29-.88.57-1.33.85-2.23-.86-4.36-1.68-6.36-2.45.46-.17.91-.35,1.37-.56.48-.23.97-.47,1.45-.74.44-.25,1.04-.51,1.37-.97l15.54,6c-.12.08-.24.15-.34.22ZM84.28,134.93l23.14,9.03c-.13.07-.25.16-.38.25-.16.11-.32.22-.48.33-.31.21-.62.41-.94.61-.31.19-.61.36-.92.56-.16.1-.32.2-.48.3-.07.04-.15.08-.21.14-.05.05-.09.11-.15.15l-.08.13-23.57-9.48c.52-.17,1.05-.37,1.57-.59.42-.17.83-.36,1.25-.55.39-.18.95-.31,1.21-.77l.03-.11ZM104.04,146.52c.08-.01.16-.05.25-.08.16-.07.31-.14.47-.22.34-.16.67-.36,1-.56.32-.19.63-.38.94-.59.15-.1.3-.2.45-.31.17-.12.37-.23.51-.39.08-.09.12-.19.13-.29l11.89,4.64c-.17.1-.34.2-.5.3-.38.23-.76.47-1.14.7-.38.23-.76.46-1.14.7-.19.12-.38.25-.56.39-.18.14-.35.3-.53.43l-11.78-4.73h.01ZM116.39,151.29c.19-.09.39-.19.58-.3.4-.22.79-.47,1.18-.71.38-.23.76-.46,1.15-.69.19-.11.38-.23.57-.35.14-.09.27-.17.37-.29l6.51,2.54c-.15.1-.28.2-.41.28-.42.27-.84.54-1.27.8-.41.25-.82.5-1.23.75-.21.13-.42.25-.64.38-.16.1-.34.2-.49.33l-6.59-2.65c.08-.03.17-.06.25-.1ZM125.47,149.79c.16-.11.31-.22.46-.33.38-.27.76-.54,1.14-.81.68-.48,1.37-.96,2.05-1.44,4.47,1.73,8.86,3.42,12.97,5-.07.06-.14.11-.21.17-.38.3-.76.59-1.14.87-.37.28-.75.54-1.12.82-.37.27-.73.56-1.1.82l-13.06-5.1ZM139.75,154.49c.39-.25.78-.53,1.16-.81.37-.27.75-.55,1.11-.83.19-.15.38-.3.57-.45,2.7,1.04,5.28,2.03,7.67,2.96-.11.07-.21.15-.32.23-.47.33-.95.64-1.42.96-.46.31-.92.62-1.38.91-.25.16-.49.33-.72.5l-7.57-2.95c.3-.17.6-.34.9-.53ZM147.2,157.96c.5-.28,1-.59,1.49-.89.48-.3.95-.62,1.43-.94.24-.16.5-.34.75-.54,1.73.67,3.35,1.29,4.86,1.88-.56.39-1.13.78-1.69,1.17-.37.26-.75.52-1.12.79-.31.23-.61.47-.92.71l-5.15-2.01c.11-.06.23-.11.34-.18ZM134.14,137.47l11.01,4.07h-.02c-.24.2-.49.38-.73.56-.5.37-1,.74-1.5,1.12-.49.37-.97.74-1.45,1.12-.2.16-.39.31-.59.45-.18.13-.44.28-.63.33l-.07.05-11.21-4.33c.83-.54,1.64-1.13,2.47-1.69.49-.32.97-.64,1.47-.94.26-.16.52-.32.78-.48.16-.09.32-.18.47-.28ZM120.93,132.58l12.57,4.65c-.24.15-.49.3-.73.45-.52.33-1.03.67-1.55,1.02-.5.34-.99.69-1.48,1.05-.4.3-.77.62-1.14.96l-12.79-4.94c.31-.16.62-.32.93-.51.43-.26.87-.52,1.3-.79.89-.55,1.79-1.1,2.68-1.66.11-.07.17-.16.21-.25ZM114.84,130.43l.06-.08,5.47,2.02c-.83.52-1.65,1.04-2.48,1.57-.43.27-.86.55-1.29.83-.41.27-.8.56-1.19.86l-5.72-2.21c.26-.11.52-.24.77-.36.5-.24.99-.52,1.49-.79.48-.27.95-.54,1.43-.83.25-.15.5-.3.75-.46.24-.15.52-.3.72-.54ZM109.27,128.27l4.93,1.82c-.31.18-.62.41-.9.59-.49.3-.97.59-1.46.88-.48.27-.95.53-1.43.8-.44.25-.92.49-1.34.83l-4.83-1.87c.71-.3,1.41-.71,2.1-1.1.91-.52,1.82-1.07,2.72-1.64.13-.08.2-.2.22-.31ZM98.25,124.19l10.48,3.87c-.84.53-1.68,1.04-2.53,1.53-.83.48-1.69.93-2.51,1.5l-10.88-4.2c.18-.07.37-.14.54-.21.52-.21,1.05-.45,1.57-.69,1.06-.49,2.11-1.03,3.16-1.63.06-.04.13-.11.17-.19ZM92.47,122.06l5.12,1.9c-.92.51-1.85,1-2.78,1.44-.51.24-1.01.46-1.52.68-.37.16-.79.33-1.16.57l-5.69-2.2,6.03-2.39ZM84.91,125.06l13.51,5.21c-.29.15-.58.37-.84.52-.46.26-.92.5-1.38.72-.45.21-.91.41-1.36.59-.28.11-.56.23-.84.36-6.77-2.61-11.91-4.59-14.08-5.42l5-1.98ZM78.37,127.65c.65.25,3.9,1.49,8.79,3.38-.34.01-.74.3-1.08.47-.36.18-.72.34-1.09.49-.36.15-.72.28-1.09.4-.38.13-.77.3-1.15.42-.11.03-.18.14-.2.24l-8.97-3.5,4.79-1.9ZM72.05,130.16l11.75,4.58c-.25.08-.54.26-.76.36-.43.2-.86.39-1.29.59-.71.32-1.41.64-2.11,1.02l-11.98-4.81,4.39-1.74ZM72.48,139.52l.07-.02c.52-.18,1.04-.39,1.56-.62.51-.23,1.02-.48,1.52-.75.25-.13.5-.27.75-.41.12-.07.26-.15.35-.28.06-.08.12-.16.17-.3.04-.11.04-.22-.04-.27-.36-.21-.94.26-1.36.49-.48.26-.96.51-1.44.74-.47.23-.95.44-1.42.65-.33.14-.66.27-.98.45l-11.05-4.49,5.53-2.19,23.67,9.52h-.02c-.22.16-.44.31-.67.45-.47.3-.95.59-1.43.85-.47.26-.94.5-1.42.72-.4.19-.81.4-1.21.59l-12.59-5.12ZM85.62,144.86c.23-.07.46-.16.69-.26.5-.22,1-.46,1.49-.72.48-.25.96-.53,1.44-.82.36-.23.83-.47,1.18-.8l44.15,17.75-.13.09c-.22.15-.44.29-.66.43-.47.31-.94.61-1.41.91-.46.29-.91.58-1.37.86-.31.19-.64.39-.95.61l-44.44-18.06ZM136.12,165.35l-.02.04-5.49-2.23c.17-.1.35-.2.51-.3.47-.28.95-.57,1.42-.87.46-.29.91-.58,1.37-.88.22-.14.44-.29.66-.44.19-.13.4-.25.56-.42l5.5,2.21c-.21.13-.41.25-.62.38-.44.27-.89.53-1.33.8-.44.26-.89.52-1.33.8-.22.14-.44.27-.66.41-.23.15-.38.29-.57.51ZM136.43,165.52c.11-.03.21-.06.34-.13.22-.11.45-.23.67-.35.47-.24.93-.51,1.39-.78.45-.26.89-.52,1.34-.78.22-.13.45-.26.67-.39.11-.07.23-.12.33-.21.05-.05.1-.1.14-.15l7.05,2.83c-.06.04-.12.08-.19.12-.25.15-.49.3-.74.45-.49.29-.99.57-1.49.84-.5.27-1,.51-1.5.78-.36.19-.72.4-1.09.59l-6.93-2.82ZM148.74,170.52l-4.94-2.01c.22-.08.44-.16.67-.25.51-.21,1.02-.48,1.53-.74.5-.26,1-.53,1.5-.81.26-.15.53-.3.79-.46.22-.13.44-.25.61-.47l5.29,2.13-5.44,2.62ZM155.56,167.24l-19.91-8c.42-.19.84-.41,1.26-.63.48-.26.96-.51,1.45-.77.23-.12.47-.25.7-.37.24-.13.53-.25.69-.51.1-.15.08-.31-.05-.35-.19-.05-.4.08-.61.19-.19.1-.39.21-.58.31-.43.23-.85.47-1.28.7-.41.23-.83.44-1.23.68-.2.12-.4.25-.61.38-.07.04-.19.13-.3.16l-11.79-4.74c.2-.1.4-.2.59-.31.44-.24.88-.49,1.32-.76.42-.26.85-.52,1.27-.79.27-.17.67-.38.94-.66l33.29,12.99-5.17,2.49ZM162.12,164.09l-9.71-3.79c.21-.12.42-.25.63-.39.39-.25.77-.52,1.16-.78.7-.48,1.4-.96,2.1-1.44,5.96,2.3,9.96,3.84,10.62,4.1l-4.8,2.31ZM167.68,161.41c.12-.26.07-.51-.12-.58-.43-.17-2.01-.78-4.47-1.72.48-.32.96-.64,1.43-.98.63-.45,1.26-.9,1.88-1.38.06-.05.11-.11.15-.18l6.21,2.4-5.09,2.45ZM173.43,158.65v-.02c.17-.27.12-.56-.09-.64l-6.3-2.43c.73-.18,1.48-.86,2.14-1.37l1.43-1.11c.23-.18.46-.36.7-.54.25-.19.52-.37.72-.63.16-.21.03-.46-.18-.38-.24.09-.47.3-.7.48-.22.17-.44.34-.66.52l-1.39,1.09c-.43.34-.85.68-1.28,1.01-.37.29-.76.59-1.16.7l-.08.06-6.93-2.67c.36-.25.73-.51,1.09-.79.5-.38.99-.76,1.49-1.12.49-.36.98-.71,1.47-1.05.25-.17.51-.35.76-.52.18-.12.35-.22.47-.38l16.3,6.03-7.82,3.76Z"/>
  <polygon class="st27" points="123.95 195.55 19.63 152.2 19.63 147.1 123.95 189.19 123.95 195.55"/>
  <polygon class="st9" points="195.56 158.5 124.11 194.95 124.11 189.84 195.56 153.61 195.56 158.5"/>
  <polygon class="st10" points="195.99 151.65 200.24 148.76 220.85 38.33 218.4 32.94 195.99 151.65"/>
  <g class="st22">
    <path class="st17" d="M213.14,36.53c-.06-.13-.15-.21-.26-.24L117.8,14.53c-.21-.05-.41.14-.47.42,0,0-4.61,23.88-9.22,48.03-2.31,12.07-4.62,24.21-6.35,33.47-.87,4.63-1.59,8.53-2.1,11.35-.25,1.41-.45,2.54-.59,3.36-.07.41-.12.74-.16.99-.02.13-.03.23-.04.32-.01.09-.02.15-.02.24,0,.04,0,.07,0,.16,0,.04.02.11.06.2.02.05.06.11.12.15.05.04.12.07.18.07h0s0,0,0,0c.05,0,.21.05.45.13,1.85.56,8.56,2.81,17.57,5.86,13.52,4.58,32.23,10.97,47.56,16.22,7.67,2.62,14.49,4.96,19.39,6.64,4.9,1.68,7.89,2.71,7.89,2.71.1.04.21.01.31-.07.09-.08.16-.2.19-.35l20.62-107.48c.03-.15.01-.31-.05-.44Z"/>
    <g class="st30">
      <g>
        <g>
          <path class="st26" d="M247.34,49.75l1.42-5.92L112.61,11.13l-2,8.33c46.89,3.25,92.93,13.45,136.73,30.29Z"/>
          <path class="st26" d="M245.49,57.43l1.84-7.68c-43.8-16.84-89.84-27.04-136.73-30.29l-.34,1.4c46.43,6.3,91.85,18.59,135.23,36.56Z"/>
          <path class="st15" d="M106.32,37.3l-1.98,8.24c23.46,9.74,45.15,24.36,63.87,43.03,23.3-4.85,47.03-4.14,69.3,2.09l4.15-17.29c-43.78-17.57-88.49-33.24-135.34-36.06Z"/>
          <path class="st15" d="M244.99,59.51l.5-2.08c-43.38-17.98-88.8-30.26-135.23-36.56l-2.38,9.92c46.99,2.51,93.19,12.18,137.11,28.72Z"/>
          <path class="st26" d="M241.67,73.36l3.33-13.85c-43.92-16.54-90.12-26.21-137.11-28.72l-1.56,6.51c46.86,2.83,91.56,18.5,135.34,36.06Z"/>
        </g>
        <g>
          <path class="st11" d="M121.52,63.93c2.72,2.94,5,6.54,8.27,8.63,3.95,2.52,8.8,2.48,13.33,3.31,8.41,1.54,16.13,6.33,21.81,13.42,1.1-.25,2.19-.5,3.29-.73-18.72-18.67-40.42-33.28-63.87-43.03l-2.26,9.42c7.27.2,14.27,3.39,19.44,8.97Z"/>
          <path class="st1" d="M143.11,75.87c-4.53-.83-9.38-.8-13.33-3.31-3.27-2.08-5.54-5.69-8.27-8.63-5.17-5.58-12.16-8.77-19.44-8.97l-3.92,16.31c22.04-1.56,43.81,5.47,61.38,19.37,1.79-.48,3.59-.93,5.39-1.34-5.68-7.09-13.4-11.88-21.81-13.42Z"/>
        </g>
        <path class="st23" d="M100.94,59.73c1.75.39,3.48,1.99,3.98,4,.94-.32,1.96-.14,2.71.5.75.64,1.2,1.7,1.2,2.83,1.19-.77,2.61.34,2.7,1.87,1.97-1.49,4.61-1.46,6.33.09,1.72,1.55,2.4,4.5,1.63,7.07l-21.89-2.45,3.34-13.91Z"/>
        <path class="st28" d="M168.22,88.56c-2.9.6-5.79,1.29-8.68,2.07,3.71,2.94,7.23,6.18,10.53,9.72.67.72,1.33,1.45,1.98,2.19,20.62-.19,41.07,2.22,60.88,7.2l1.56-6.5,3.02-12.59c-22.27-6.23-46-6.94-69.3-2.09Z"/>
        <g>
          <path class="st16" d="M147.12,41.22l-30.87-7.41c2.11-1.49,4.72-1.4,6.52.25.37-.96,1.13-1.75,1.98-2.05.84-.3,1.77-.12,2.43.47,1.08-1.81,3.17-2.72,4.85-2.1,1.68.62,2.78,2.72,2.56,4.85.86-.56,1.89-.48,2.65.1.76.59,1.18,1.72,1.05,2.83,3.09-1.01,6.82.42,8.83,3.06Z"/>
          <path class="st16" d="M241,56.7l-30.87-7.41c2.11-1.49,4.72-1.4,6.52.25.37-.96,1.13-1.75,1.98-2.05.84-.3,1.77-.12,2.43.47,1.08-1.81,3.17-2.72,4.85-2.1,1.68.62,2.78,2.72,2.56,4.85.86-.56,1.89-.48,2.65.1.76.59,1.18,1.72,1.05,2.83,3.09-1.01,6.82.42,8.83,3.06Z"/>
          <path class="st16" d="M211.52,63.32l-18.11-4.35,3.62-.13c.29-.6.78-1.14,1.34-1.29s1.16-.01,1.58.39c.97-1.46,2.62-2.09,4.03-1.6,1.41.49,2.41,2.14,2.36,3.92.56-.5,1.43-.55,2-.19.57.35.91,1.14.83,1.93l2.34,1.33Z"/>
        </g>
        <g>
          <path class="st21" d="M139.85,102.26c-7.96-5.01-16.55-8.77-25.49-11.16,4.76,2.19,9.32,5.01,13.64,8.09,2.82,2,5.57,4.13,8.31,6.27,10.83-1.67,21.7-2.62,32.52-2.86-9.53-1.24-19.24-1.36-28.97-.33Z"/>
          <path class="st13" d="M168.82,102.59c1.08-.02,2.15-.04,3.23-.05-.65-.74-1.31-1.47-1.98-2.19-3.3-3.54-6.82-6.78-10.53-9.72-17.56-13.9-39.33-20.93-61.38-19.37l-3.69,15.36c6.91-.22,13.57,1.57,19.88,4.47,8.94,2.4,17.53,6.15,25.49,11.16,9.73-1.03,19.44-.91,28.97.33Z"/>
        </g>
        <path class="st18" d="M96.25,79.49c11.48-3.37,23.39-4.15,34.66-2.02-10.71-3.48-22.15-4.48-33.53-2.94l-1.13,4.96Z"/>
        <path class="st19" d="M168.76,103c.06-.69-.22-1.37-.71-1.7-.49-.33-1.16-.28-1.67.11.36-.48.74-.99.84-1.6.11-.61-.19-1.32-.71-1.32-.28,0-.55.2-.79.41-.58.53-1.08,1.2-1.44,1.95.28-.39.05-1.02-.35-1.14-.4-.12-.84.12-1.17.46-.75.75-1.12,1.99-.92,3.05,2.27-.24,4.67-.4,6.91-.22Z"/>
        <g>
          <path class="st18" d="M184.36,128.74c15.04,2.39,30.94-.01,45.65-6.83l2.92-12.17c-19.81-4.98-40.26-7.39-60.88-7.2-10.5.1-21.05.87-31.57,2.31,11.96,12.86,27.37,21.26,43.88,23.89Z"/>
          <path class="st21" d="M184.36,128.74c-16.51-2.63-31.93-11.04-43.88-23.89-1.39.19-2.78.39-4.18.61,7.51,5.89,14.9,11.98,23.13,16.45,21.03,11.45,46.42,11.41,69.86,2.97l.71-2.97c-14.71,6.82-30.61,9.23-45.65,6.83Z"/>
        </g>
        <path class="st0" d="M204.5,108.15c-.8-.08-1.64-.14-2.41.23-.77.37-1.45,1.3-1.36,2.24.1.97.93,1.56,1.12,2.5.23,1.09-.52,2.3-1.43,2.81-.91.51-1.92.5-2.9.48-2.23-.05-4.45-.1-6.68-.14-.83-.02-1.69-.03-2.49.35-.8.38-1.51,1.27-1.52,2.25-.01,1.21.98,1.98,1.89,2.46,5.44,2.91,11.72,3.29,17.84,3.64,5.53.31,11.24.6,16.63-1.64,1.84-.77,4.19-2.34,4.42-4.89.2-2.3-1.62-4.25-3.17-5.16-1.24-.73-2.68-.72-4.04-1.05-2.41-.57-4.68-1.69-7.07-2.38-2.89-.83-5.85-1.4-8.84-1.7Z"/>
        <g>
          <g>
            <path class="st29" d="M213.45,111.87c.56-3.41.65-6.92,0-10.15-.65-.24-1.79-.46-2.43-.69-.07,2.98-.52,5.98-1.34,8.88.93,1.23,2.32,1.95,3.77,1.97Z"/>
            <path class="st24" d="M209.68,109.9c-.27.97-.59,1.92-.94,2.85.28.92.92,1.72,1.72,2.02.79.3,1.73.16,2.49-.36.19-.84.36-1.68.5-2.54-1.45-.02-2.84-.74-3.77-1.97Z"/>
          </g>
          <g>
            <path class="st21" d="M221.76,105.1c-1.55.57-3.27.13-4.45-1-.81,1.18-2.01,1.97-3.24,2.14-1.23.17-2.38-.49-3.25-1.43-1.32.95-2.96,1.17-4.32.6-1.36-.58-2.33-1.94-2.69-3.6,1.3-.54,2.45-1.61,3.32-2.9-1.49,1.09-3.31,1.56-4.91,1.06-1.6-.5-2.91-2.05-3.14-4-.23-1.95.56-4.7,2.16-5.52-.49-1.38-.49-3.03.01-4.51.4-1.17,1.1-2.21,1.98-2.96-1.12.33-2.18,1.11-2.93,2.2-1.07,1.57-1.45,3.73-.96,5.52-2,1.43-3.2,4.38-2.82,6.97.38,2.58,2.3,4.6,4.54,4.76.42,2.27,1.74,4.2,3.52,5.12,1.78.92,3.98.81,5.83-.29,1.2.65,2.86,1.35,4.22,1.31,1.37-.05,2.88-1.01,3.29-2.59,1.3,1.18,3.29,1.24,4.8.14,1.22-.89,2.05-2.48,2.22-4.09-.69,1.44-1.87,2.58-3.19,3.07Z"/>
            <path class="st14" d="M226.46,94.36c1.09-1.52,2.15-3.22,2.36-5.13.2-1.91-.82-4-2.43-4,.78-2.49.11-5.37-1.58-6.85-1.69-1.48-4.28-1.43-6.15.11-.1-1.32-.92-2.46-2-2.76-1.08-.31-2.42-.17-3.17.91-1.14-1.38-3.13-1.66-4.67-.66-1.54,1-2.51,3.2-2.26,5.16-.8-.46-1.98.61-1.82,1.67-.5-.04-1,.02-1.5.17-.88.74-1.58,1.79-1.98,2.96-.5,1.47-.51,3.13-.01,4.51-1.6.82-2.39,3.57-2.16,5.52.23,1.95,1.54,3.5,3.14,4,1.6.5,3.42.02,4.91-1.06-.88,1.29-2.02,2.37-3.32,2.9.37,1.66,1.33,3.03,2.69,3.6,1.36.58,3,.35,4.32-.6.87.94,2.02,1.6,3.25,1.43,1.23-.17,2.44-.97,3.24-2.14,1.18,1.14,2.9,1.57,4.45,1,1.32-.49,2.5-1.63,3.19-3.07.04-.39.04-.78,0-1.16,1.84-.91,2.54-4.68,1.51-6.51Z"/>
          </g>
          <g>
            <path class="st21" d="M221.28,87.45c-.09-.53-.33-1.06-.69-1.45-.36-.39-.83-.62-1.29-.68-.31-.04-.6,0-.87.09-.02-.7-.21-1.43-.57-2.02-.43-.7-1.08-1.17-1.74-1.34-.66-.18-1.32-.07-1.82.21.5.16,1,.39,1.46.72.45.33.86.75,1.17,1.25.31.5.53,1.09.66,1.71.13.62.17,1.27.15,1.9.37-.49.64-1.23.68-2.05,0-.03,0-.06,0-.09.58.19,1.17.51,1.62,1,.55.59.91,1.42,1.11,2.22.15-.4.21-.93.12-1.46Z"/>
            <path class="st21" d="M207.82,84.22c-.47-.18-1.07-.16-1.6.13-.54.29-.96.83-1.19,1.39-.23.56-.26,1.15-.14,1.57.16-.44.38-.85.65-1.22.28-.36.61-.67.97-.87.36-.19.76-.29,1.16-.29.4,0,.78.09,1.14.24-.16-.4-.51-.78-.99-.96Z"/>
          </g>
        </g>
        <g>
          <path class="st25" d="M137.3,125.87c13.94,6.6,28.44,11.78,43.3,15.49,14.55,3.63,30.23,5.73,44.81-.3l3.89-16.19c-23.44,8.44-48.84,8.48-69.86-2.97-8.22-4.48-15.62-10.57-23.13-16.45-2.74-2.15-5.49-4.27-8.31-6.27-10.04-7.15-21.39-12.95-33.52-12.56l-5.02,20.91c16.86,1.73,32.3,10.98,47.84,18.34Z"/>
          <path class="st18" d="M180.6,141.36c-14.86-3.71-29.36-8.89-43.3-15.49-15.55-7.36-30.98-16.61-47.84-18.34l-3.09,12.87,136.15,32.7,2.89-12.04c-14.58,6.03-30.26,3.93-44.81.3Z"/>
        </g>
        <g>
          <path class="st20" d="M189.51,137.49c-.35,1.44-1.64,1.11-3.24.72s-2.9-.67-2.55-2.11,1.92-2.3,3.52-1.92,2.61,1.86,2.27,3.31Z"/>
          <g>
            <g>
              <path class="st20" d="M114.11,105.03c.75-.31,1.55-.39,2.3-.24-.21-1.46-1.39-2.76-3.06-3.16-2.12-.51-4.21.63-4.67,2.54s1.15,2.27,3.17,2.75c.59-.86,1.38-1.53,2.25-1.89Z"/>
              <path class="st2" d="M114.11,105.03c-.87.36-1.66,1.03-2.25,1.89.07.02.14.03.21.05,2.12.51,3.83.95,4.29-.96.1-.41.11-.82.05-1.22-.75-.15-1.55-.07-2.3.24Z"/>
            </g>
            <path class="st12" d="M118.86,108.54c-.35,1.44-1.64,1.11-3.24.72s-2.9-.67-2.55-2.11,1.92-2.3,3.52-1.92,2.61,1.86,2.27,3.31Z"/>
          </g>
        </g>
      </g>
    </g>
    <path class="st6" d="M213.14,36.53c-.06-.13-.15-.21-.26-.24L117.8,14.53c-.21-.05-.41.14-.47.42,0,0-4.61,23.88-9.22,48.03-2.31,12.07-4.62,24.21-6.35,33.47-.87,4.63-1.59,8.53-2.1,11.35-.25,1.41-.45,2.54-.59,3.36-.07.41-.12.74-.16.99-.02.13-.03.23-.04.32-.01.09-.02.15-.02.24,0,.04,0,.07,0,.16,0,.04.02.11.06.2.02.05.06.11.12.15.05.04.12.07.18.07h0s0,0,0,0c.05,0,.21.05.45.13,1.85.56,8.56,2.81,17.57,5.86,13.52,4.58,32.23,10.97,47.56,16.22,7.67,2.62,14.49,4.96,19.39,6.64,4.9,1.68,7.89,2.71,7.89,2.71.1.04.21.01.31-.07.09-.08.16-.2.19-.35l20.62-107.48c.03-.15.01-.31-.05-.44Z"/>
  </g>
</svg>