<?xml version="1.0" encoding="UTF-8"?>
<svg id="Layer_1" xmlns="http://www.w3.org/2000/svg" version="1.1" xmlns:xlink="http://www.w3.org/1999/xlink" viewBox="0 0 250 200">
  <!-- Generator: Adobe Illustrator 30.1.0, SVG Export Plug-In . SVG Version: 2.1.1 Build 136)  -->
  <defs>
    <style>
      .st0 {
        fill: #c3f39d;
      }

      .st1 {
        fill: #73bb70;
      }

      .st2 {
        fill: none;
      }

      .st2, .st3, .st4, .st5, .st6, .st7, .st8 {
        stroke: #4c241e;
      }

      .st2, .st6 {
        stroke-width: .91px;
      }

      .st2, .st6, .st7, .st8 {
        stroke-miterlimit: 10;
      }

      .st9 {
        fill: #b0b7cf;
      }

      .st10 {
        fill: #85cb7c;
      }

      .st11 {
        fill: #e1e4f3;
      }

      .st12 {
        fill: #72c26a;
      }

      .st13 {
        fill: #73c36a;
      }

      .st14 {
        fill: #b6f6f6;
      }

      .st15 {
        fill: #fff;
      }

      .st16 {
        fill: #94d77b;
      }

      .st17 {
        fill: #246b72;
      }

      .st3, .st4, .st5 {
        stroke-linejoin: round;
      }

      .st3, .st7 {
        fill: #f1f1f1;
        stroke-width: 2px;
      }

      .st18 {
        fill: #c6cbe1;
      }

      .st4 {
        stroke-width: .99px;
      }

      .st4, .st5, .st19 {
        fill: #4c241e;
      }

      .st20 {
        fill: #469f64;
      }

      .st21 {
        opacity: .8;
      }

      .st5 {
        stroke-width: .8px;
      }

      .st5, .st8 {
        stroke-linecap: round;
      }

      .st22 {
        fill: #085579;
      }

      .st23 {
        fill: #817754;
      }

      .st6, .st24 {
        fill: #e6ffef;
      }

      .st25 {
        fill: #b8f09c;
      }

      .st26 {
        fill: #cdfdff;
      }

      .st8 {
        fill: #bababa;
        opacity: .3;
      }

      .st27 {
        fill: #368b74;
      }

      .st28 {
        fill: #665a3a;
      }

      .st29 {
        clip-path: url(#clippath);
      }
    </style>
    <clipPath id="clippath">
      <path class="st6" d="M188.3,34.38c-.04-.15-.11-.25-.18-.27l-63.99-22.67c-.14-.05-.27.17-.29.51,0,0-1.99,28.03-3.98,56.37-.99,14.17-1.98,28.41-2.72,39.27-.37,5.43-.68,10.01-.89,13.31-.11,1.65-.19,2.98-.24,3.95-.03.48-.05.87-.06,1.16,0,.15-.01.27-.02.37,0,.11,0,.18,0,.29,0,.04,0,.08.01.18,0,.05.02.12.05.24.02.05.05.12.09.17.04.05.08.08.12.08h0s0,0,0,0c.03,0,.14.06.3.13,1.25.6,5.8,3.03,11.91,6.34,9.16,4.96,21.85,11.89,32.25,17.58,5.2,2.84,9.82,5.38,13.15,7.2,3.33,1.82,5.35,2.94,5.35,2.94.07.04.14,0,.2-.09.06-.09.1-.24.11-.41l8.89-126.14c.01-.18,0-.36-.05-.51Z"/>
    </clipPath>
  </defs>
  <g id="Layer_2">
    <g>
      <path class="st3" d="M193.76,31.01L120.19,5.15l-8.58,124.44,71.28,38.98c.68.35,1.32-.6,1.43-2.13l9.44-135.43Z"/>
      <path class="st7" d="M111.05,129.6l-79.73,3.11c-.69.02-1.1.54-.62.77l59.98,44.89c.13.06.3.09.48.08,6.27-.44,78.85-6.42,94.59-7.49.68-.05,1.04-.56.54-.78l-74.84-40.52c-.11-.05-.26-.08-.41-.07Z"/>
      <polyline class="st8" points="86.4 146.8 62.44 147.31 81.3 160.65 106.06 159.32"/>
      <path class="st19" d="M173.07,166.87l-62.97-34.32c-.06-.03-.15-.05-.26-.04l-36.8,1.19c-.22,0-.48.08-.65.19-.17.11-.21.22-.1.29l58.84,35.9,2.11.03c.06.01.14.02.22.01l38.91-2.77c.22-.02.47-.1.63-.2.16-.11.19-.22.08-.28ZM146.53,153.39l12.98,7.07c-.31.05-.62.09-.94.14-.65.1-1.31.21-1.97.32-.64.11-1.29.23-1.93.36-.32.06-.64.13-.96.2-.26.06-.53.13-.79.2l-12.87-7.27h.02c.23,0,.48-.02.74-.05.66-.09,1.34-.21,2.01-.32.68-.11,1.36-.23,2.04-.35.33-.06.66-.11.99-.17.24-.04.47-.08.69-.14ZM152.79,162.71c-.53.1-1.06.19-1.59.28-.93.15-1.87.3-2.79.43-1.37-.77-2.88-1.62-4.5-2.54.72-.09,1.44-.17,2.18-.29.41-.07.82-.14,1.23-.21.35-.06.73-.12,1.08-.23l4.5,2.54-.11.02ZM152.65,163.06c.22-.04.44-.08.67-.13l3.63,2.05c-.72.12-1.44.26-2.16.4-.71.14-1.43.29-2.14.43-1.09-.61-2.4-1.36-3.9-2.2.76-.07,1.52-.15,2.31-.28.53-.08,1.05-.17,1.58-.27ZM99.86,137.04c2.26,1.27,5.02,2.83,8.08,4.56h-.12c-.8.11-1.61.22-2.42.33-.39.05-.78.1-1.17.16-.21.03-.42.07-.63.11-.08.02-.18.04-.26.05h-.02s.02-.06-.04-.06h-.05s-8.36-4.76-8.36-4.76c.25.03.5.06.77.07.41.02.84.01,1.28,0,.43-.01.86-.04,1.3-.07.45-.03.95-.04,1.43-.22.15-.05.2-.12.19-.17ZM130.83,150.23l4.07,2.3c-.11.01-.22.03-.33.05-.22.03-.45.06-.67.09-.43.06-.87.12-1.3.18-.44.06-.87.13-1.31.19-.32.05-.65.1-.98.16-1.31-.74-2.63-1.48-3.95-2.23.41-.04.83-.09,1.25-.15.46-.06.91-.13,1.37-.19.48-.07.96-.13,1.45-.21.21-.04.35-.11.41-.18ZM143.96,157.78c-.5.08-.99.15-1.48.21-.97.13-1.91.21-2.89.36l-.1.03c-1.38-.78-2.81-1.59-4.28-2.41.23-.03.46-.06.68-.1.47-.07.94-.13,1.42-.2l1.38-.2c.24-.04.49-.07.73-.11.13-.02.26-.04.39-.06l4.36,2.46c-.07,0-.13.02-.2.03ZM143.73,158.11c.26-.04.51-.08.78-.13h.03s3.5,1.97,3.5,1.97c-.22.04-.46.09-.67.13-.41.08-.82.15-1.23.22-.81.14-1.63.3-2.44.44h-.04c-1.25-.69-2.56-1.44-3.92-2.2.81-.01,1.68-.11,2.56-.21.48-.06.96-.12,1.44-.2ZM138.87,155.11c-.48.08-.95.15-1.43.23-.46.07-.92.15-1.38.23-.38.06-.79.12-1.18.22-1.39-.78-2.8-1.58-4.23-2.39.17-.02.34-.04.51-.06.43-.05.86-.1,1.29-.16.43-.05.86-.11,1.3-.16.22-.03.45-.06.67-.09.23-.03.45-.05.69-.1.08-.02.14-.04.19-.07l4.04,2.28c-.16.02-.31.05-.47.07ZM108.12,141.7c.17.09.34.19.5.28-.11.05-.14.14,0,.13.07,0,.13-.01.2-.02.99.56,2.02,1.14,3.06,1.73-.08,0-.17.02-.26.03-.22.03-.44.06-.66.08-.43.05-.86.11-1.28.15-.41.05-.82.09-1.24.15-.39.05-.82.1-1.22.22l-3.51-2c.42-.04.87-.11,1.3-.16.88-.12,1.77-.24,2.65-.36.27-.04.43-.16.44-.25ZM108.22,144.58c.42-.03.85-.08,1.29-.13.41-.05.83-.09,1.24-.14.21-.02.42-.05.62-.08.22-.03.46-.04.69-.11.08-.02.15-.05.2-.09,1.21.68,2.44,1.38,3.7,2.08-.14.02-.3.04-.44.06-.22.03-.45.05-.67.08-.43.05-.86.09-1.28.13-.42.04-.85.08-1.27.12-.4.04-.81.1-1.22.15l-3.57-2.03c.23,0,.48-.02.71-.04ZM112.06,146.85c.43-.02.87-.06,1.31-.1.44-.04.88-.08,1.32-.13.22-.02.44-.05.67-.07.23-.03.46-.05.69-.11.12-.03.21-.07.27-.12,3.92,2.21,8.02,4.53,12.03,6.79-.69.12-1.38.23-2.06.35-.47.08-.94.16-1.41.24-.36.06-.73.11-1.1.19l-12.34-7.03c.2,0,.4,0,.62-.01ZM129.24,150.26c-.43.06-.86.13-1.29.19-.42.06-.84.13-1.26.2-.25.04-.5.07-.73.1-1.22-.69-2.44-1.38-3.66-2.07.31-.04.63-.07.95-.12.5-.08,1-.14,1.5-.21.48-.07.97-.14,1.45-.2.23-.03.5-.06.76-.1l3.59,2.03c-.43.05-.87.13-1.31.19ZM126.39,147.77c-.51.07-1.03.15-1.54.23-.5.08-1.01.17-1.51.25-.44.07-.88.18-1.32.27-1.64-.93-3.27-1.85-4.87-2.75.77-.07,1.56-.2,2.36-.32.43-.06.86-.12,1.29-.17.33-.04.69-.06,1.04-.14l4.63,2.61h-.06ZM120.96,144.95c-.44.06-.88.11-1.33.18-.88.13-1.76.26-2.65.51l-.04.02c-2.27-1.28-4.47-2.52-6.55-3.69.39-.04.78-.08,1.17-.13.5-.06,1-.13,1.5-.21.24-.04.49-.08.73-.12.28-.04.52-.08.79-.18.15-.06.24-.17.08-.18-.22-.01-.4.02-.66.06-.26.04-.52.09-.78.13-.5.08-1.01.15-1.51.22-.55.08-1.09.15-1.63.22-1.54-.87-3.02-1.7-4.4-2.48.5,0,1-.03,1.52-.06.55-.04,1.11-.08,1.68-.14.53-.05,1.2-.09,1.74-.28l10.75,6.07c-.15.02-.29.04-.42.06ZM95.1,138.57l15.96,9.09c-.15.02-.31.04-.47.07-.2.03-.4.06-.6.09-.39.06-.78.11-1.16.16-.37.05-.74.09-1.11.14-.2.03-.39.05-.59.08-.09.01-.17.02-.26.04-.07.02-.14.04-.21.06l-.14.06-16.11-9.41c.56,0,1.13-.01,1.72-.04.46-.02.93-.05,1.4-.07.44-.02,1.02,0,1.49-.2l.09-.06ZM106.68,148.45c.08,0,.17,0,.26,0,.18,0,.35-.02.53-.03.39-.03.79-.08,1.19-.12.38-.05.77-.09,1.15-.15.19-.03.38-.06.57-.08.21-.03.45-.06.66-.12.12-.03.21-.08.26-.13l8.2,4.67c-.2.02-.4.05-.61.07-.46.06-.93.12-1.39.17-.46.06-.92.11-1.39.17-.23.03-.47.07-.7.11-.23.04-.47.1-.7.14l-8.05-4.7h.01ZM115.23,153.27c.22-.01.45-.03.67-.06.47-.05.95-.11,1.43-.17.46-.06.92-.11,1.39-.17.23-.03.46-.06.69-.09.17-.02.33-.04.49-.09l4.49,2.56c-.18.03-.36.06-.51.08-.52.07-1.04.14-1.55.21-.5.06-1,.12-1.5.18-.26.03-.51.06-.77.09-.19.03-.41.05-.62.09l-4.5-2.63c.09,0,.18,0,.28,0ZM124.13,154.09c.2-.03.4-.07.59-.1.48-.08.97-.16,1.45-.23.86-.14,1.73-.28,2.59-.42,3.1,1.75,6.13,3.46,8.97,5.06-.09.02-.18.04-.27.05-.49.09-.99.18-1.48.27-.48.08-.95.16-1.43.24-.47.08-.94.17-1.41.25l-9.01-5.13ZM134.45,159.22c.48-.07.97-.15,1.46-.23.48-.08.95-.16,1.43-.25.25-.05.5-.09.75-.14,1.87,1.05,3.65,2.06,5.31,3-.13.02-.27.04-.4.07-.59.09-1.18.18-1.77.27-.57.09-1.15.17-1.72.25-.3.04-.61.09-.91.14l-5.22-2.97c.36-.04.71-.08,1.08-.13ZM139.29,162.46c.6-.06,1.2-.14,1.8-.22.59-.08,1.18-.16,1.77-.25.3-.04.63-.09.95-.16,1.19.67,2.32,1.31,3.37,1.9-.71.11-1.42.22-2.13.34-.47.07-.94.15-1.41.23-.4.07-.8.15-1.2.22l-3.55-2.02c.13-.01.26-.02.4-.03ZM138.37,148.94l7.71,4.2h-.03c-.31.06-.63.11-.94.17-.64.11-1.29.22-1.93.34-.63.11-1.26.23-1.88.35-.26.05-.52.1-.77.14-.23.04-.54.08-.74.07l-.09.02-7.76-4.38c1.03-.15,2.06-.32,3.1-.47.61-.09,1.21-.17,1.81-.25.32-.04.63-.08.95-.12.19-.02.38-.04.57-.07ZM129.12,143.9l8.81,4.8c-.3.04-.59.08-.89.12-.64.09-1.28.18-1.92.28-.62.1-1.25.2-1.88.31-.51.09-1.02.2-1.52.32l-8.85-4.99c.36-.03.72-.06,1.1-.11.52-.06,1.05-.13,1.58-.19,1.09-.14,2.17-.28,3.26-.42.13-.02.24-.06.32-.1ZM124.79,141.63l.09-.03,3.83,2.09c-1.01.13-2.02.27-3.04.41-.53.07-1.06.14-1.59.22-.5.07-1.01.16-1.52.25l-3.96-2.23c.29-.01.59-.04.88-.06.57-.04,1.16-.1,1.75-.16.57-.06,1.14-.12,1.71-.19.3-.04.61-.08.92-.12.3-.04.62-.07.93-.16ZM120.95,139.45l3.45,1.88c-.37.04-.77.11-1.12.16-.59.08-1.18.15-1.77.21-.57.06-1.13.12-1.7.18-.53.06-1.08.1-1.63.21l-3.35-1.89c.79-.04,1.64-.13,2.46-.22,1.09-.12,2.19-.25,3.29-.4.16-.02.28-.07.36-.13ZM113.23,135.24l7.34,4c-1.03.14-2.05.26-3.07.38-1,.11-2,.2-3.03.37l-7.53-4.25c.2,0,.4,0,.59-.01.58-.02,1.17-.05,1.77-.09,1.21-.08,2.43-.18,3.68-.32.07,0,.17-.04.25-.07ZM109.18,133.03l3.59,1.96c-1.1.11-2.18.21-3.25.28-.58.04-1.15.07-1.72.1-.41.02-.87.04-1.33.1l-3.94-2.22,6.65-.22ZM100.84,133.3l9.35,5.28c-.34.03-.71.1-1.03.13-.54.06-1.08.11-1.61.14-.52.03-1.03.06-1.53.08-.31.01-.62.02-.94.05-4.68-2.64-8.24-4.65-9.75-5.49l5.51-.18ZM93.63,133.54c.45.25,2.7,1.52,6.09,3.43-.31-.05-.82.03-1.22.06-.42.03-.83.06-1.23.07-.4.01-.79.02-1.18.02-.41,0-.85.03-1.25.02-.12,0-.23.04-.31.09l-6.19-3.52,5.28-.17ZM86.66,133.76l8.1,4.62c-.27,0-.62.04-.87.06-.49.03-.98.06-1.46.09-.8.05-1.6.09-2.43.18l-8.18-4.78,4.84-.16ZM82.12,138.94h.07c.56,0,1.13-.02,1.72-.06.58-.03,1.16-.08,1.76-.13.29-.03.59-.06.89-.09.15-.02.31-.04.46-.09.09-.03.19-.06.31-.13.09-.05.15-.11.11-.15-.21-.18-.97-.03-1.47.02-.56.06-1.12.1-1.68.14-.54.04-1.08.07-1.61.09-.37.02-.73.03-1.11.07l-7.52-4.44,6.1-.2,16.18,9.45h-.03c-.28.05-.55.09-.82.12-.58.08-1.16.15-1.73.21-.56.06-1.11.1-1.65.14-.46.03-.93.07-1.39.1l-8.57-5.06ZM91.08,144.22c.24,0,.49,0,.76-.02.56-.03,1.13-.07,1.71-.12.57-.05,1.14-.11,1.72-.19.44-.06.99-.11,1.48-.22l30.18,17.63-.16.03c-.27.04-.55.08-.82.12-.58.08-1.16.16-1.74.24-.56.08-1.12.15-1.68.22-.38.05-1.67.1-2.07.16l-29.37-17.85ZM125.5,164.48l-.85.02-3.74-2.2c1.02-.02,1.23-.05,1.43-.07.57-.07,1.15-.14,1.73-.22.56-.07,1.12-.15,1.68-.23.27-.04.55-.08.82-.12.23-.03.49-.06.73-.13l3.76,2.2c-.25.03-.5.06-.75.09-.54.07-1.08.13-1.61.19-.54.06-1.07.12-1.61.19-.27.03-.54.07-.81.11-.29.04-.49.09-.78.17ZM124.57,164.63c1.22,0,1.33,0,1.48,0,.26-.02.52-.05.78-.07.54-.05,1.1-.11,1.65-.17.54-.06,1.07-.12,1.61-.18.27-.03.54-.06.8-.09.13-.02.27-.03.41-.06.07-.02.14-.04.2-.06l4.82,2.81c-.08,0-.15.02-.23.03-.3.04-.6.07-.9.11-.59.07-1.19.13-1.77.19-.59.06-1.16.1-1.75.16-.43.04-.86.09-2.39.13l-4.72-2.78ZM132.74,169.58l-3.36-1.98c1.57,0,1.81,0,2.06-.02.57-.02,1.17-.08,1.76-.13.58-.05,1.17-.11,1.76-.17.31-.03.63-.07.95-.11.27-.03.53-.06.79-.15l3.62,2.11-7.58.44ZM141.89,169.02l-13.6-7.95c.48-.03.97-.07,1.46-.12.57-.05,1.13-.11,1.7-.16.27-.03.55-.05.83-.08.28-.03.6-.04.89-.15.17-.07.24-.16.14-.2-.15-.06-.4-.03-.65,0-.23.02-.45.04-.68.07-.5.05-1.01.1-1.51.15-.49.05-.97.09-1.46.15-.24.03-.49.06-.74.1-.08.01-.24.03-.35.04l-8.06-4.71c.23-.02.46-.04.69-.06.52-.05,1.05-.11,1.58-.17.51-.06,1.03-.13,1.55-.2.33-.04.8-.09,1.19-.19l22.96,13.08-5.94.42ZM149.41,168.49l-6.7-3.82c.25-.03.51-.06.76-.1.48-.07.96-.14,1.45-.22.88-.14,1.76-.27,2.64-.41,4.13,2.33,6.89,3.89,7.35,4.15l-5.5.39ZM155.79,168.03c.24-.12.33-.26.2-.34-.3-.17-1.39-.79-3.09-1.75.6-.09,1.19-.17,1.8-.27.8-.13,1.6-.26,2.4-.41.08-.02.16-.04.23-.07l4.3,2.43-5.84.42ZM162.39,167.56h.02c.28-.13.39-.29.25-.37l-4.36-2.46c.74.03,1.78-.2,2.64-.36l1.86-.35c.3-.06.6-.11.91-.17.32-.06.66-.11.97-.21.26-.09.27-.24.04-.24-.27,0-.58.08-.87.14-.29.05-.57.11-.86.16l-1.81.34c-.56.11-1.12.22-1.67.32-.48.09-.99.19-1.41.17l-.1.02-4.79-2.71c.46-.07.92-.15,1.39-.23.64-.12,1.29-.23,1.93-.34.62-.11,1.25-.21,1.87-.3.32-.05.64-.1.95-.14.22-.03.43-.06.62-.12l11.42,6.22-8.97.64Z"/>
      <g>
        <path class="st19" d="M90.9,183.83c-.12,0-.24-.04-.34-.11l-59.84-45.69c-.12-.09-.19-.22-.21-.37l-.53-4.24c-.03-.22.08-.44.27-.55.09-.05.18-.08.28-.08.12,0,.23.04.33.11l60.22,45.05c.13.1.22.26.22.42l.16,4.88c0,.21-.11.41-.3.51-.08.04-.17.06-.25.06Z"/>
        <path class="st19" d="M30.52,133.35l60.22,45.05.16,4.88-59.84-45.69-.53-4.24M30.52,132.25c-.19,0-.38.05-.56.15-.38.22-.6.65-.54,1.09l.53,4.24c.04.29.19.56.43.74l59.84,45.69c.2.15.43.23.67.23.17,0,.35-.04.51-.12.38-.2.61-.59.6-1.02l-.16-4.88c-.01-.34-.17-.65-.44-.85l-60.22-45.05c-.2-.15-.43-.22-.66-.22h0Z"/>
      </g>
      <polygon class="st5" points="186.64 174.92 90.92 183.95 91.17 178.44 187.2 170.8 186.64 174.92"/>
      <polygon class="st4" points="184.01 170.28 191.05 167.72 199.1 32.21 193.79 30.57 184.01 170.28"/>
      <g class="st21">
        <path class="st24" d="M188.3,34.38c-.04-.15-.11-.25-.18-.27l-63.99-22.67c-.14-.05-.27.17-.29.51,0,0-1.99,28.03-3.98,56.37-.99,14.17-1.98,28.41-2.72,39.27-.37,5.43-.68,10.01-.89,13.31-.11,1.65-.19,2.98-.24,3.95-.03.48-.05.87-.06,1.16,0,.15-.01.27-.02.37,0,.11,0,.18,0,.29,0,.04,0,.08.01.18,0,.05.02.12.05.24.02.05.05.12.09.17.04.05.08.08.12.08h0s0,0,0,0c.03,0,.14.06.3.13,1.25.6,5.8,3.03,11.91,6.34,9.16,4.96,21.85,11.89,32.25,17.58,5.2,2.84,9.82,5.38,13.15,7.2,3.33,1.82,5.35,2.94,5.35,2.94.07.04.14,0,.2-.09.06-.09.1-.24.11-.41l8.89-126.14c.01-.18,0-.36-.05-.51Z"/>
        <g class="st29">
          <g>
            <g>
              <path class="st26" d="M250.35,59l1.08-6.93L120.3,8.81l-1.52,9.75c44.78,5.46,89.09,19.08,131.57,40.44Z"/>
              <path class="st26" d="M248.95,67.98l1.4-8.98c-42.48-21.36-86.79-34.98-131.57-40.44l-.26,1.64c44.49,9.04,88.3,25.09,130.43,47.78Z"/>
              <path class="st14" d="M115.54,39.42l-1.5,9.63c22.78,12.29,44.12,30.27,62.81,52.91,21.95-4.9,44.57-3.23,66.06,4.87l3.14-20.22c-42.5-22.22-85.78-42.23-130.52-47.19Z"/>
              <path class="st14" d="M248.58,70.41l.38-2.43c-42.13-22.69-85.94-38.73-130.43-47.78l-1.8,11.61c44.85,4.59,89.28,17.6,131.86,38.6Z"/>
              <path class="st26" d="M246.06,86.62l2.52-16.2c-42.58-21.01-87.01-34.02-131.86-38.6l-1.18,7.61c44.74,4.96,88.02,24.97,130.52,47.19Z"/>
            </g>
            <g>
              <path class="st10" d="M131.25,71.33c2.73,3.56,5.07,7.88,8.27,10.45,3.88,3.1,8.49,3.23,12.84,4.37,8.08,2.1,15.65,8.01,21.39,16.57,1.03-.26,2.07-.51,3.1-.74-18.69-22.64-40.03-40.62-62.81-52.91l-1.71,11.02c6.93.49,13.74,4.49,18.92,11.25Z"/>
              <path class="st1" d="M152.36,86.14c-4.35-1.13-8.97-1.26-12.84-4.37-3.21-2.57-5.54-6.89-8.27-10.45-5.18-6.75-11.99-10.76-18.92-11.25l-2.96,19.07c20.91-1.07,41.96,7.96,59.33,24.95,1.68-.51,3.37-.97,5.06-1.39-5.74-8.55-13.31-14.46-21.39-16.57Z"/>
            </g>
            <path class="st22" d="M111.46,65.66c1.69.52,3.4,2.47,3.97,4.85.88-.35,1.86-.09,2.6.68.74.77,1.22,2.05,1.28,3.38,1.1-.86,2.5.49,2.66,2.3,1.8-1.69,4.32-1.56,6.03.33,1.71,1.88,2.49,5.38,1.88,8.38l-20.95-3.65,2.53-16.27Z"/>
            <path class="st27" d="M176.85,101.97c-2.73.61-5.46,1.32-8.16,2.14,3.67,3.59,7.17,7.54,10.48,11.82.67.87,1.33,1.75,1.99,2.64,19.62.5,39.19,4.04,58.29,10.6l1.18-7.6,2.29-14.72c-21.49-8.11-44.11-9.78-66.06-4.87Z"/>
            <g>
              <path class="st15" d="M154.55,45.47l-29.73-9.81c1.94-1.68,4.43-1.48,6.22.52.31-1.11,1-2.02,1.79-2.35.79-.32,1.68-.08,2.33.64.94-2.1,2.89-3.1,4.52-2.3,1.63.79,2.78,3.3,2.66,5.8.79-.63,1.77-.51,2.53.21.75.72,1.21,2.06,1.13,3.38,2.89-1.08,6.51.73,8.55,3.91Z"/>
              <path class="st15" d="M244.64,66.97l-29.73-9.81c1.94-1.68,4.43-1.48,6.22.52.31-1.11,1-2.02,1.79-2.35.79-.32,1.68-.08,2.33.64.94-2.1,2.89-3.1,4.52-2.3,1.63.79,2.78,3.3,2.66,5.8.79-.63,1.77-.51,2.53.21.75.72,1.21,2.06,1.13,3.38,2.89-1.08,6.51.73,8.55,3.91Z"/>
              <path class="st15" d="M216.89,73.74l-17.44-5.75,3.44-.03c.25-.7.69-1.31,1.22-1.48s1.1.03,1.53.51c.85-1.69,2.39-2.37,3.76-1.75,1.37.63,2.39,2.6,2.43,4.7.51-.57,1.33-.59,1.89-.16.56.44.92,1.38.88,2.31l2.29,1.65Z"/>
            </g>
            <g>
              <path class="st20" d="M150.49,117.12c-7.81-6.18-16.17-10.9-24.79-14.04,4.63,2.75,9.11,6.23,13.36,10,2.77,2.46,5.49,5.05,8.2,7.68,10.23-1.59,20.53-2.33,30.82-2.24-9.13-1.79-18.37-2.27-27.59-1.4Z"/>
              <path class="st12" d="M178.08,118.52c1.02,0,2.05.02,3.07.05-.65-.9-1.32-1.78-1.99-2.64-3.31-4.28-6.81-8.23-10.48-11.82-17.37-16.99-38.42-26.02-59.33-24.95l-2.79,17.96c6.57-.02,12.99,2.32,19.13,5.96,8.62,3.14,16.98,7.86,24.79,14.04,9.22-.87,18.46-.39,27.59,1.4Z"/>
            </g>
            <path class="st16" d="M107.92,88.78c10.77-3.57,22.07-4.08,32.9-1.18-10.35-4.48-21.3-6.05-32.06-4.63l-.84,5.8Z"/>
            <path class="st17" d="M178.04,118.99c.03-.81-.28-1.63-.76-2.03-.48-.4-1.12-.38-1.58.07.32-.55.65-1.14.73-1.85.07-.71-.24-1.56-.74-1.58-.27-.01-.52.21-.73.46-.53.61-.97,1.38-1.28,2.25.25-.45,0-1.2-.39-1.36-.38-.16-.79.12-1.09.5-.68.86-.97,2.31-.73,3.57,2.15-.21,4.42-.31,6.57-.02Z"/>
            <g>
              <path class="st16" d="M194.1,149.86c14.43,3.34,29.45,1.06,43.13-6.46l2.21-14.23c-19.09-6.56-38.67-10.1-58.29-10.6-9.99-.25-19.99.29-29.94,1.62,11.98,15.56,27.05,26,42.89,29.67Z"/>
              <path class="st20" d="M194.1,149.86c-15.84-3.67-30.91-14.11-42.89-29.67-1.32.18-2.63.37-3.95.57,7.42,7.2,14.75,14.63,22.78,20.19,20.55,14.22,44.72,15.06,66.64,5.93l.54-3.47c-13.68,7.52-28.7,9.8-43.13,6.46Z"/>
            </g>
            <path class="st0" d="M212.3,126.31c-.76-.12-1.56-.22-2.28.19-.72.41-1.32,1.48-1.19,2.59.14,1.14.95,1.87,1.18,2.98.27,1.3-.39,2.69-1.23,3.26-.84.57-1.81.52-2.73.46-2.12-.13-4.24-.27-6.36-.4-.79-.05-1.61-.09-2.35.33-.74.42-1.38,1.44-1.34,2.6.05,1.43,1.02,2.36,1.91,2.96,5.31,3.61,11.31,4.29,17.15,4.91,5.28.56,10.73,1.09,15.75-1.36,1.72-.84,3.88-2.61,3.98-5.61.09-2.7-1.74-5.06-3.25-6.19-1.21-.9-2.59-.95-3.9-1.37-2.32-.76-4.54-2.16-6.84-3.04-2.79-1.07-5.63-1.85-8.5-2.31Z"/>
            <g>
              <g>
                <path class="st28" d="M221,131c.37-4,.29-8.12-.47-11.96-.63-.3-1.72-.6-2.35-.9.08,3.51-.22,7.03-.86,10.41.94,1.48,2.3,2.37,3.68,2.45Z"/>
                <path class="st23" d="M217.32,128.55c-.22,1.13-.47,2.24-.76,3.33.31,1.1.96,2.05,1.73,2.44.77.38,1.65.25,2.35-.34.15-.98.27-1.97.36-2.97-1.38-.08-2.74-.97-3.68-2.45Z"/>
              </g>
              <g>
                <path class="st20" d="M228.59,123.31c-1.45.62-3.11.04-4.28-1.34-.71,1.36-1.82,2.25-2.99,2.41-1.16.16-2.29-.65-3.16-1.8-1.21,1.07-2.76,1.28-4.08.56-1.32-.73-2.3-2.37-2.73-4.34,1.21-.59,2.26-1.82,3.03-3.31-1.37,1.23-3.08,1.73-4.63,1.08-1.54-.64-2.87-2.52-3.18-4.82-.31-2.3.32-5.51,1.8-6.42-.53-1.64-.61-3.59-.2-5.31.32-1.36.95-2.57,1.75-3.41-1.05.35-2.03,1.23-2.68,2.49-.95,1.81-1.2,4.34-.66,6.47-1.84,1.62-2.84,5.05-2.36,8.11.48,3.06,2.41,5.5,4.55,5.77.5,2.69,1.86,5.01,3.59,6.15,1.74,1.14,3.82,1.09,5.54-.14,1.18.8,2.78,1.69,4.08,1.69,1.3,0,2.69-1.1,3.01-2.94,1.29,1.44,3.19,1.58,4.57.34,1.12-1,1.84-2.85,1.92-4.75-.59,1.67-1.66,2.98-2.89,3.51Z"/>
                <path class="st13" d="M232.57,110.83c.96-1.75,1.9-3.72,2-5.96.1-2.24-.96-4.74-2.5-4.79.62-2.9-.14-6.33-1.82-8.12-1.68-1.8-4.14-1.83-5.85-.09-.16-1.56-.99-2.93-2.04-3.33-1.04-.4-2.31-.28-2.97.97-1.15-1.66-3.06-2.06-4.48-.94-1.42,1.13-2.24,3.69-1.91,6-.78-.57-1.85.65-1.66,1.9-.47-.06-.95-.01-1.42.14-.8.85-1.42,2.05-1.75,3.41-.41,1.72-.33,3.67.2,5.31-1.48.91-2.11,4.12-1.8,6.42.31,2.3,1.63,4.18,3.18,4.82,1.54.64,3.26.14,4.63-1.08-.77,1.49-1.81,2.72-3.03,3.31.43,1.97,1.41,3.61,2.73,4.34,1.32.73,2.87.51,4.08-.56.87,1.14,1.99,1.95,3.16,1.8,1.16-.16,2.27-1.05,2.99-2.41,1.18,1.38,2.83,1.96,4.28,1.34,1.24-.53,2.3-1.84,2.89-3.51.02-.46,0-.92-.05-1.37,1.7-1.01,2.2-5.42,1.13-7.61Z"/>
              </g>
              <g>
                <path class="st20" d="M227.3,102.5c-.11-.63-.36-1.26-.72-1.73-.36-.47-.82-.76-1.26-.84-.29-.06-.57-.02-.82.08-.05-.83-.26-1.69-.64-2.4-.44-.84-1.08-1.41-1.72-1.64-.64-.24-1.26-.13-1.72.18.49.2.97.49,1.42.9.45.4.86.91,1.17,1.51.32.6.55,1.31.7,2.04.15.74.22,1.5.23,2.24.32-.56.55-1.43.56-2.39,0-.04,0-.07,0-.11.56.25,1.13.64,1.59,1.23.55.71.93,1.7,1.16,2.65.13-.47.16-1.09.04-1.72Z"/>
                <path class="st20" d="M214.35,98.23c-.46-.23-1.02-.23-1.52.1-.5.33-.88.94-1.07,1.59-.19.65-.2,1.35-.06,1.85.13-.51.32-.99.56-1.41.25-.42.55-.77.88-.99.33-.22.71-.31,1.09-.3.38.01.75.13,1.1.33-.17-.48-.52-.94-.98-1.16Z"/>
              </g>
            </g>
            <g>
              <path class="st25" d="M149.17,144.84c13.58,8.26,27.62,14.87,41.94,19.76,14.02,4.78,29.04,7.8,42.64,1.21l2.94-18.93c-21.92,9.13-46.09,8.29-66.64-5.93-8.04-5.56-15.36-12.99-22.78-20.19-2.71-2.62-5.43-5.22-8.2-7.68-9.89-8.77-20.97-16-32.49-15.96l-3.8,24.46c16.13,2.62,31.26,14.06,46.4,23.27Z"/>
              <path class="st16" d="M191.11,164.6c-14.32-4.89-28.37-11.5-41.94-19.76-15.14-9.21-30.26-20.65-46.4-23.27l-2.34,15.06,131.13,43.26,2.19-14.08c-13.59,6.59-28.62,3.57-42.64-1.21Z"/>
            </g>
            <g>
              <path class="st18" d="M199.4,160.34c-.26,1.69-1.51,1.25-3.05.74s-2.79-.89-2.53-2.58,1.72-2.64,3.26-2.14,2.58,2.29,2.31,3.97Z"/>
              <g>
                <g>
                  <path class="st18" d="M126.12,119.49c.7-.34,1.46-.41,2.18-.2-.27-1.73-1.45-3.3-3.06-3.83-2.04-.67-3.98.59-4.32,2.83s1.2,2.71,3.15,3.35c.52-.99,1.24-1.75,2.05-2.15Z"/>
                  <path class="st9" d="M126.12,119.49c-.81.4-1.53,1.16-2.05,2.15.07.02.13.04.2.07,2.04.67,3.69,1.25,4.04-.98.07-.48.07-.97,0-1.44-.72-.2-1.48-.14-2.18.2Z"/>
                </g>
                <path class="st11" d="M130.8,123.78c-.26,1.69-1.51,1.25-3.05.74s-2.79-.89-2.53-2.58,1.72-2.64,3.26-2.14,2.58,2.29,2.31,3.97Z"/>
              </g>
            </g>
          </g>
        </g>
        <path class="st2" d="M188.3,34.38c-.04-.15-.11-.25-.18-.27l-63.99-22.67c-.14-.05-.27.17-.29.51,0,0-1.99,28.03-3.98,56.37-.99,14.17-1.98,28.41-2.72,39.27-.37,5.43-.68,10.01-.89,13.31-.11,1.65-.19,2.98-.24,3.95-.03.48-.05.87-.06,1.16,0,.15-.01.27-.02.37,0,.11,0,.18,0,.29,0,.04,0,.08.01.18,0,.05.02.12.05.24.02.05.05.12.09.17.04.05.08.08.12.08h0s0,0,0,0c.03,0,.14.06.3.13,1.25.6,5.8,3.03,11.91,6.34,9.16,4.96,21.85,11.89,32.25,17.58,5.2,2.84,9.82,5.38,13.15,7.2,3.33,1.82,5.35,2.94,5.35,2.94.07.04.14,0,.2-.09.06-.09.1-.24.11-.41l8.89-126.14c.01-.18,0-.36-.05-.51Z"/>
      </g>
    </g>
  </g>
</svg>