<?xml version="1.0" encoding="UTF-8"?>
<svg id="Layer_1" xmlns="http://www.w3.org/2000/svg" version="1.1" viewBox="0 0 240 310">
  <!-- Generator: Adobe Illustrator 30.1.0, SVG Export Plug-In . SVG Version: 2.1.1 Build 136)  -->
  <defs>
    <style>
      .st0 {
        fill: #466b40;
      }

      .st0, .st1, .st2, .st3, .st4 {
        stroke: #4c241e;
        stroke-linecap: round;
        stroke-linejoin: round;
        stroke-width: 2.2px;
      }

      .st1 {
        fill: none;
      }

      .st2 {
        fill: #59804b;
      }

      .st3 {
        fill: #4c241e;
      }

      .st4 {
        fill: #6890a9;
      }
    </style>
  </defs>
  <g>
    <path class="st4" d="M149.93,174.3c-2.19-3.04-5.91-4.55-9.55-5.43-6.65-1.6-23.23-1.47-23.23-1.47-6.84-.07-13.76-.12-20.41,1.47-3.64.87-7.36,2.39-9.55,5.43-4.09,5.69-.13,25.28.05,32.28.33,12.45.97,24.89,1.97,37.31,1.22,15.21,4.62,29.42,7.18,44.27.49,2.86,1.05,5.86,2.87,8.12,2.02,2.5,5.25,3.67,8.4,4.34,3.58.77,7.26,1.02,10.91.8,3.65.22,7.33-.03,10.91-.8,3.14-.67,6.38-1.84,8.4-4.34,1.82-2.26,2.37-5.26,2.87-8.12,2.56-14.85,5.96-29.06,7.18-44.27,1-12.42,1.64-24.86,1.97-37.31.18-7,4.14-26.59.05-32.28Z"/>
    <path class="st3" d="M143.09,178.67c-.53-.48-1.2-.96-2.03-1.43-2.55-1.44-5.6-1.6-8.53-1.73-9.37-.4-20-2.06-29.34-.55-10.76,1.74-5,8.22,1.14,10.33,9.91,3.4,23.24,2.5,33.46,1.32,5.17-.6,9.23-4.33,5.3-7.93Z"/>
  </g>
  <g id="_x31_">
    <g>
      <g>
        <path class="st0" d="M180.43,125.52c2.23-11.33-1.12-23.72,2.72-34.48,7.38-20.71,7.22-36.05,6.06-54.08-.32-5.03-.35-10.36-3.08-14.57-2.45-3.78-6.94-6.29-11.39-5.79-4.45.49-8.49,4.31-8.74,8.83-.08,1.43.19,2.89-.17,4.28-.36,1.39-1.69,2.7-3.06,2.31-8.75-2.46-5.29-23.24-19.53-11.7-8.89,7.21-6.18,21.55-4.15,31.14,3.13,14.8,6.3,29.4,12.02,43.42,6.87,16.83,11.36,34.08,17.03,51.18.66,1.99,1.74,4.34,3.82,4.5,4.09-7.89,6.77-16.34,8.48-25.03Z"/>
        <path class="st2" d="M147.06,30.05c.83-.81,1.76-1.32,2.77-1.39,5.15-.36,7.04,7.3,9.94,10.21,1.79,1.8,4.97.29,6.33-1.87,14.45-22.86,22.03,13.21,14.7,13.93-1.64.16-3.21-.64-4.83-.94-1.62-.3-3.7.24-4.08,1.87-.16.67.02,1.38.25,2.03,1.76,5.09,6.82,6.99,8.33,12.09,3.58,12.14-2.46,18.46-3.16,28.91-1.17,17.49,2.53,13.88-5.1,29.61-.45.93,1.48,9.77.65,10.39-1.84,1.4-5.83-8.73-6.66-10.9-2.96-7.72-2.85-16.16-5.51-23.75-4.2-15.35-15.15-20.68-6.21-36.51,6.92-12.26-9.43-.12-10.54-6.56-.61-3.57,5.52-4.54,6.49-8.03.51-1.84-.71-3.81-2.34-4.77-1.64-.96-3.59-1.14-5.48-1.3-.4-2.9,1.34-9.97,4.45-12.99Z"/>
        <path class="st1" d="M131.35,187.29c-.34-30.88-.69-61.75-1.03-92.63-.17-15.44-.34-30.88-.51-46.31-.12-11.19-2.66-24.63,2.4-35.07,2.58-5.32,7.8-9.76,13.65-9.57,5.22.17,9.79,3.97,12.37,8.56,2.58,4.59,3.54,9.9,4.45,15.1,3.77,21.59,3.84,82.1,8.41,103.51"/>
      </g>
      <g>
        <g>
          <path class="st0" d="M54.91,88.34c.47,8.45-.87,16.91-.63,25.36.23,8.14,1.93,16.16,3.62,24.12,4.04,19.01,8.07,38.02,12.11,57.03,11.93-18.36,11.09-41.93,16.92-63.03,7.29-26.36,25.46-50.81,22.71-78.02-.82-8.12-2.39-16.03-11.16-18.54-11.09-3.18-14.79,8.48-20.19,16.1-.2.29-.42.58-.74.73-1.59.72-1.39-11.92-6.49-15.38-4.91-3.33-13.09-2.88-17.37.67-12.66,10.47.47,37.43,1.22,50.96Z"/>
          <path class="st1" d="M74.44,116.68c-.49,15.36-2.45,28.88-2.92,47.98-.12,4.88.21,20.03-.57,24.85"/>
        </g>
        <g>
          <path class="st2" d="M57.5,96.82c.99,1.13,2.79,1.6,5.74,1.03.96,3.01.3,5.39-.68,8.31-.94,2.81-1.23,6.58,1.33,8.08,1.17.69,2.66.67,3.79,1.42,2.29,1.52,1.78,4.96,1.17,7.64-2.57,11.32-.96,22.44.74,33.73.21,1.36.98,3.13,2.33,2.83.62-.13,1.04-.69,1.39-1.22,6.48-9.86.46-22.7,6.69-31.23,1.3-1.79,3.17-3.07,4.65-4.71,6.09-6.72,4.35-17.39.61-25.66-.58-1.28-1.19-2.81-.49-4.02.79-1.36,2.66-1.44,4.22-1.66,4.3-.63,8.14-3.79,9.58-7.89,2.66-7.6,5.86-15.33-.8-22.02-.83-.83-1.79-1.61-2.24-2.69-2.02-4.86,7.04-8.56,1.92-13.02-1.87-1.63-4.71-1.71-7.03-.82-4.11,1.58-8.98,9.3-13.37,8.96-1.19-.09-20.84-21.52-13.87-2.44-5.21,3.25-12.57,9.14-5.47,14.73,1.04.82,2.3,1.36,3.22,2.32,2.11,2.2,1.74,5.77.72,8.65-1.48,4.19-7.55,15.82-4.15,19.69Z"/>
          <path class="st1" d="M74.85,108.55c4.05-22.69-6-45.81,5.45-67.79,3.92-7.53,12.65-13.28,20.81-10.94,7.05,2.03,11.3,9.09,14.2,15.83,4.43,10.31,7.35,21.26,8.64,32.41,1.2,10.43.98,20.97,1.66,31.45,1.33,20.69-2.43,54.07,2.37,74.24"/>
          <path class="st1" d="M74.42,118.77c-.49,15.36-2.45,28.88-2.92,47.98-.12,4.88.21,20.03-.57,24.85"/>
        </g>
      </g>
      <g>
        <path class="st0" d="M161.37,122.32c5.22-7.53,12.91-21.2,11.29-30.77-.96-5.71-6.06-10.78-11.85-10.63-2.98.08-5.77,1.44-8.35,2.95-2.77,1.62-5.41,3.44-7.91,5.45-.74.59-1.52,1.23-2.46,1.31-2.04.19-3.3-2.13-3.99-4.06-4.75-13.27-15.98-32.68-31.19-15.04-5.59,6.49-6.94,15.64-6.66,24.2.28,8.56,1.95,17.09,1.42,25.64-.52,8.29-3.1,16.3-4.96,24.4-5.68,24.66-4.8,50.31-3.89,75.6,22.85-33.01,45.7-66.02,68.55-99.04Z"/>
        <path class="st2" d="M108.7,153.93c.02,1.06.05,2.16.06,3.33.14,11.55-8.87,23.57-4.92,34.92,9.07-9.9,16.55-24.04,20.54-37.03,2.98-9.69,13.26-10.31,15.55-20.14,1.84-7.92-2.1-12.44,2.73-20.14.27-.43.58-.88,1.04-1.1,1.33-.63,2.56.94,3.63,1.95,10.02,9.49,6.44-9.59,6.36-9.52,3.34-2.73,9.74.77,12.1-2.84.98-1.5.6-3.47.18-5.2-.7-2.92-1.59-6.12-4.09-7.79-8.48-5.64-17.54,7.73-27.41.09-5.57-4.32-6.57-15.52-15.27-15.27-8.66.25-11.67,8.73-7.96,14.47,1.55,2.4,7.83,6.84,7.15,10.07-1.2,5.69-10.88,1.26-10.49,8.67.09,1.77,1.46,3.23,1.81,4.96.44,2.19-.78,4.34-1.16,6.54s.92,5.14,3.13,4.79c1.86-.3,2.9-2.83,4.79-2.76,1.42.05,2.32,1.71,2.12,3.11-.2,1.4-1.15,2.57-2.06,3.65-8.24,9.74-8.06,15.14-7.84,25.26Z"/>
        <path class="st1" d="M119.95,63.55c.26-17.79,20.97-23.22,22.98-.89.92,10.17-1.5,23.43-3.53,35.07-7.33,41.98-32.85,80.79-45.74,121.44"/>
      </g>
    </g>
  </g>
</svg>