<?xml version="1.0" encoding="UTF-8"?>
<svg id="Layer_1" xmlns="http://www.w3.org/2000/svg" version="1.1" viewBox="0 0 240 310">
  <!-- Generator: Adobe Illustrator 30.1.0, SVG Export Plug-In . SVG Version: 2.1.1 Build 136)  -->
  <defs>
    <style>
      .st0 {
        fill: #466b40;
      }

      .st0, .st1, .st2, .st3, .st4 {
        stroke: #4c241e;
        stroke-linecap: round;
        stroke-linejoin: round;
        stroke-width: 2.2px;
      }

      .st1 {
        fill: none;
      }

      .st2 {
        fill: #59804b;
      }

      .st3 {
        fill: #4c241e;
      }

      .st4 {
        fill: #6890a9;
      }
    </style>
  </defs>
  <g>
    <path class="st4" d="M149.93,174.3c-2.19-3.04-5.91-4.55-9.55-5.43-6.65-1.6-23.23-1.47-23.23-1.47-6.84-.07-13.76-.12-20.41,1.47-3.64.87-7.36,2.39-9.55,5.43-4.09,5.69-.13,25.28.05,32.28.33,12.45.97,24.89,1.97,37.31,1.22,15.21,4.62,29.42,7.18,44.27.49,2.86,1.05,5.86,2.87,8.12,2.02,2.5,5.25,3.67,8.4,4.34,3.58.77,7.26,1.02,10.91.8,3.65.22,7.33-.03,10.91-.8,3.14-.67,6.38-1.84,8.4-4.34,1.82-2.26,2.37-5.26,2.87-8.12,2.56-14.85,5.96-29.06,7.18-44.27,1-12.42,1.64-24.86,1.97-37.31.18-7,4.14-26.59.05-32.28Z"/>
    <path class="st3" d="M143.09,178.67c-.53-.48-1.2-.96-2.03-1.43-2.55-1.44-5.6-1.6-8.53-1.73-9.37-.4-20-2.06-29.34-.55-10.76,1.74-5,8.22,1.14,10.33,9.91,3.4,23.24,2.5,33.46,1.32,5.17-.6,9.23-4.33,5.3-7.93Z"/>
  </g>
  <g id="_x32_">
    <g>
      <g>
        <path class="st0" d="M190.44,122.03c-.07-11.54-5.8-23.03-4.18-34.33,3.12-21.76-.08-36.77-4.8-54.21-1.32-4.87-2.4-10.09-5.91-13.67-3.15-3.21-8.05-4.78-12.31-3.42-4.26,1.37-7.46,5.91-6.82,10.39.21,1.42.76,2.8.68,4.23-.08,1.43-1.12,2.98-2.54,2.87-9.07-.67-9.8-21.73-21.47-7.59-7.28,8.83-1.78,22.35,2.12,31.35,6.01,13.88,12.02,27.56,20.41,40.16,10.07,15.13,17.9,31.15,26.85,46.77,1.04,1.82,2.57,3.9,4.63,3.65,2.44-8.54,3.39-17.36,3.34-26.22Z"/>
        <path class="st2" d="M138.78,35.08c.65-.96,1.46-1.65,2.44-1.92,4.97-1.37,8.35,5.75,11.77,8.03,2.11,1.41,4.93-.71,5.84-3.09,9.62-25.28,24.21,8.57,17.17,10.73-1.58.48-3.27,0-4.92.04-1.65.03-3.58.97-3.63,2.64-.02.69.3,1.34.65,1.94,2.74,4.64,8.07,5.49,10.56,10.19,5.92,11.19,1.25,18.58,2.64,28.96,2.33,17.38,5.23,13.11.88,30.03-.26,1.01,3.39,9.28,2.71,10.06-1.52,1.74-7.45-7.4-8.69-9.36-4.44-6.98-6-15.27-10.12-22.19-7.17-14.21-18.95-17.26-13.33-34.55,4.35-13.39-9.26,1.76-11.64-4.34-1.31-3.38,4.51-5.55,4.77-9.16.14-1.91-1.45-3.59-3.24-4.21-1.79-.61-3.75-.4-5.62-.19-.96-2.76-.66-10.04,1.78-13.62Z"/>
        <path class="st1" d="M122.45,186.58c-.34-30.88-.69-61.75-1.03-92.63-.17-15.44-.34-30.88-.51-46.31-.12-11.19-2.66-24.63,2.4-35.07,2.58-5.32,7.8-9.76,13.65-9.57,5.22.17,9.79,3.97,12.37,8.56,2.58,4.59,3.91,9.85,4.45,15.1,2.2,21.44,19.61,82.47,29.68,104.4"/>
      </g>
      <g>
        <path class="st0" d="M46.75,82.49c-.92,8.41-3.63,16.53-4.77,24.92-1.1,8.07-.74,16.26-.38,24.39.87,19.41,1.74,38.83,2.61,58.24,14.78-16.16,17.8-39.55,27.01-59.41,11.5-24.81,33.44-45.96,35.18-73.25.52-8.15.27-16.2-7.97-20.12-10.42-4.95-15.97,5.95-22.56,12.58-.25.25-.51.51-.85.6-1.68.45.58-11.99-3.88-16.23-4.3-4.09-12.44-4.98-17.25-2.18-14.2,8.25-5.66,37-7.14,50.47Z"/>
        <path class="st1" d="M61.38,113.65c-3,15.07-7.14,28.09-10.73,46.85-.92,4.79-3.07,19.8-4.63,24.42"/>
      </g>
      <path class="st2" d="M47.92,91.29c.79,1.28,2.49,2.03,5.49,1.96.45,3.12-.58,5.36-2.03,8.09-1.39,2.62-2.29,6.29-.01,8.18,1.04.87,2.51,1.1,3.51,2.02,2.01,1.88.94,5.18-.1,7.73-4.39,10.75-4.62,21.98-4.79,33.39-.02,1.38.46,3.24,1.84,3.18.63-.03,1.14-.51,1.57-.97,8.01-8.67,4.17-22.32,11.71-29.72,1.58-1.55,3.63-2.51,5.36-3.89,7.11-5.63,7.14-16.45,4.81-25.21-.36-1.36-.72-2.96.18-4.05,1-1.21,2.86-.98,4.43-.95,4.35.09,8.65-2.41,10.74-6.22,3.87-7.06,8.29-14.16,2.81-21.85-.68-.96-1.5-1.88-1.77-3.02-1.2-5.13,8.35-7.29,4.03-12.53-1.58-1.91-4.37-2.46-6.8-1.96-4.31.89-10.38,7.7-14.65,6.65-1.16-.28-17.03-24.64-13.28-4.67-5.67,2.36-13.89,6.96-7.81,13.63.89.98,2.05,1.72,2.8,2.81,1.73,2.51.77,5.98-.7,8.65-2.15,3.89-10.04,14.37-7.32,18.74Z"/>
      <path class="st1" d="M116.37,78.68c-3.05,9.46-13.86,79.62-8.02,103.18"/>
      <path class="st1" d="M51.82,155.84c4.56-22.37,15.92-95.94,27.07-117.13,3.82-7.26,11.86-12.45,19.06-9.59,6.22,2.47,9.73,9.79,12.04,16.69,3.54,10.56,7.73,21.73,6.38,32.87"/>
      <g>
        <path class="st0" d="M156.87,114.77c3.02-8.65,6.81-23.87,2.7-32.67-2.45-5.24-8.71-8.78-14.25-7.09-2.85.87-5.18,2.92-7.27,5.06-2.24,2.3-4.3,4.76-6.18,7.36-.55.77-1.14,1.59-2.02,1.92-1.92.73-3.75-1.17-4.93-2.85-8.11-11.53-24.1-27.25-34.07-6.21-3.67,7.74-2.53,16.92.02,25.1,2.55,8.18,6.43,15.95,8.18,24.34,1.71,8.13,1.35,16.54,1.71,24.84,1.08,25.29,8.75,49.77,16.36,73.91,13.25-37.9,26.49-75.8,39.74-113.7Z"/>
        <path class="st2" d="M114.49,159.26c.3,1.01.62,2.07.94,3.19,3.21,11.1-2.28,25.08,4.54,34.97,6.11-11.95,9.56-27.57,9.95-41.16.29-10.13,10.04-13.46,9.63-23.55-.33-8.12-5.33-11.43-2.72-20.14.15-.49.32-1,.71-1.34,1.12-.96,2.72.22,4.02.91,12.18,6.48,3.66-10.96,3.6-10.87,2.49-3.52,9.59-1.85,10.91-5.96.55-1.7-.35-3.5-1.21-5.07-1.45-2.63-3.01-6.53-6.01-6.42-10.55.39-16.12,17.35-26.4,7.37-5.06-4.91-10.46-13.21-18.78-10.66-8.28,2.55-8.93,11.52-3.82,16.07,2.13,1.9,9.37,4.51,9.57,7.8.35,5.8-10.15,4.11-7.81,11.14.56,1.68,2.26,2.72,3.06,4.3,1.01,1.99.4,4.39.62,6.61s2.26,4.71,4.29,3.78c1.71-.79,2.04-3.5,3.88-3.93,1.38-.32,2.69,1.03,2.88,2.44.18,1.4-.42,2.78-1.02,4.06-5.35,11.58-3.75,16.74-.84,26.43Z"/>
        <path class="st1" d="M112.88,73.1c.83-17.77,18.7-30.73,20-8.35.59,10.19-1.53,23.54-4.66,34.94-11.29,41.19-3.34,84.26-11.46,125.72"/>
      </g>
    </g>
  </g>
</svg>