<?xml version="1.0" encoding="UTF-8"?>
<svg id="Layer_1" xmlns="http://www.w3.org/2000/svg" version="1.1" viewBox="0 0 240 310">
  <!-- Generator: Adobe Illustrator 30.1.0, SVG Export Plug-In . SVG Version: 2.1.1 Build 136)  -->
  <defs>
    <style>
      .st0 {
        fill: #466b40;
      }

      .st0, .st1, .st2, .st3, .st4 {
        stroke: #4c241e;
        stroke-linecap: round;
        stroke-linejoin: round;
        stroke-width: 2.2px;
      }

      .st1 {
        fill: none;
      }

      .st2 {
        fill: #59804b;
      }

      .st3 {
        fill: #4c241e;
      }

      .st4 {
        fill: #6890a9;
      }
    </style>
  </defs>
  <g>
    <path class="st4" d="M149.93,174.3c-2.19-3.04-5.91-4.55-9.55-5.43-6.65-1.6-23.23-1.47-23.23-1.47-6.84-.07-13.76-.12-20.41,1.47-3.64.87-7.36,2.39-9.55,5.43-4.09,5.69-.13,25.28.05,32.28.33,12.45.97,24.89,1.97,37.31,1.22,15.21,4.62,29.42,7.18,44.27.49,2.86,1.05,5.86,2.87,8.12,2.02,2.5,5.25,3.67,8.4,4.34,3.58.77,7.26,1.02,10.91.8,3.65.22,7.33-.03,10.91-.8,3.14-.67,6.38-1.84,8.4-4.34,1.82-2.26,2.37-5.26,2.87-8.12,2.56-14.85,5.96-29.06,7.18-44.27,1-12.42,1.64-24.86,1.97-37.31.18-7,4.14-26.59.05-32.28Z"/>
    <path class="st3" d="M143.09,178.67c-.53-.48-1.2-.96-2.03-1.43-2.55-1.44-5.6-1.6-8.53-1.73-9.37-.4-20-2.06-29.34-.55-10.76,1.74-5,8.22,1.14,10.33,9.91,3.4,23.24,2.5,33.46,1.32,5.17-.6,9.23-4.33,5.3-7.93Z"/>
  </g>
  <g id="_x33_">
    <g>
      <g>
        <path class="st0" d="M195.33,116.47c-1.49-11.45-8.6-22.13-8.39-33.55.41-21.98-4.62-36.47-11.45-53.2-1.91-4.67-3.62-9.71-7.56-12.84-3.53-2.8-8.58-3.75-12.64-1.87-4.06,1.88-6.68,6.79-5.48,11.15.38,1.38,1.1,2.68,1.2,4.11.1,1.43-.75,3.1-2.16,3.17-9.08.45-12.41-20.35-22.24-4.88-6.13,9.66.99,22.4,5.97,30.85,7.68,13.04,15.33,25.87,25.21,37.34,11.87,13.77,21.61,28.7,32.42,43.1,1.26,1.68,3.03,3.56,5.05,3.05,1.37-8.78,1.22-17.65.08-26.43Z"/>
        <path class="st2" d="M133.34,36.57c.53-1.03,1.25-1.81,2.18-2.2,4.77-1.97,9,4.68,12.67,6.52,2.27,1.13,4.8-1.31,5.41-3.79,6.42-26.27,25.08,5.51,18.36,8.53-1.5.67-3.24.41-4.88.65-1.63.24-3.43,1.41-3.28,3.07.06.69.46,1.3.88,1.84,3.29,4.26,8.69,4.45,11.74,8.81,7.26,10.37,3.53,18.29,6.2,28.41,4.46,16.95,6.81,12.36,4.58,29.69-.13,1.03,4.51,8.79,3.93,9.65-1.3,1.91-8.31-6.42-9.78-8.21-5.26-6.38-7.84-14.42-12.78-20.77-8.86-13.21-20.94-14.79-17.5-32.64,2.66-13.82-8.98,2.89-12.08-2.87-1.72-3.19,3.79-6.06,3.6-9.68-.1-1.91-1.88-3.39-3.74-3.77-1.86-.39-3.77.06-5.6.51-1.3-2.62-1.9-9.88.08-13.73Z"/>
        <path class="st1" d="M116.08,184.92c-.34-29.4-.69-58.79-1.03-88.19-.17-14.7-.34-29.4-.51-44.09-.12-10.65-2.66-23.45,2.4-33.39,2.58-5.06,7.8-9.29,13.65-9.11,5.22.16,9.79,3.78,12.37,8.15,2.58,4.37,3.91,9.38,4.45,14.37,2.2,20.41,36.5,87.41,46.57,108.29"/>
      </g>
      <g>
        <path class="st0" d="M45.31,75.36c-2.34,8.13-6.39,15.68-8.95,23.74-2.46,7.76-3.5,15.89-4.52,23.97-2.45,19.28-4.9,38.56-7.35,57.84,17.31-13.4,24.27-35.94,36.73-53.95,15.56-22.49,40.78-39.59,47.13-66.2,1.9-7.94,3.02-15.92-4.43-21.18-9.42-6.65-16.75,3.14-24.37,8.55-.29.2-.59.41-.94.44-1.74.16,2.61-11.71-1.06-16.65-3.54-4.76-11.41-7.02-16.62-5.09-15.4,5.72-11.88,35.49-15.62,48.52Z"/>
        <path class="st1" d="M54.42,108.54c-5.52,14.34-11.82,26.47-18.55,44.34-1.72,4.57-6.39,18.98-8.72,23.28"/>
      </g>
      <path class="st2" d="M44.97,84.22c.56,1.39,2.11,2.43,5.08,2.87-.09,3.16-1.49,5.18-3.38,7.63-1.81,2.34-3.32,5.81-1.41,8.06.88,1.03,2.29,1.51,3.11,2.59,1.66,2.19.05,5.27-1.41,7.6-6.15,9.85-8.3,20.87-10.41,32.09-.26,1.36-.1,3.27,1.27,3.44.63.08,1.21-.31,1.71-.69,9.37-7.18,7.91-21.28,16.6-27.29,1.82-1.26,4-1.86,5.94-2.92,7.96-4.34,9.84-14.99,9.03-24.02-.13-1.4-.2-3.04.86-3.96,1.19-1.02,2.99-.48,4.53-.18,4.27.82,8.93-.9,11.64-4.3,5.01-6.3,10.58-12.55,6.49-21.06-.51-1.06-1.16-2.11-1.23-3.28-.31-5.26,9.47-5.76,6.1-11.67-1.23-2.15-3.89-3.17-6.36-3.09-4.4.14-11.54,5.82-15.57,4.06-1.09-.48-12.59-27.18-12.29-6.87-5.99,1.36-14.87,4.49-10.02,12.1.71,1.12,1.73,2.04,2.28,3.25,1.27,2.77-.26,6.02-2.17,8.4-2.78,3.47-12.34,12.45-10.4,17.23Z"/>
      <path class="st1" d="M37.82,148.5c8.3-21.27,32.02-91.83,46.61-110.82,5-6.5,13.81-10.24,20.41-6.2,5.71,3.49,7.92,11.3,9.02,18.5,1.69,11.01,1.92,22.33.69,33.48-1.15,10.44-3.56,20.68-5.18,31.05-3.2,20.48-3.28,41.31-3.36,62.02"/>
      <g>
        <path class="st0" d="M154.67,106.31c1.76-8.99,3.35-24.59-1.96-32.72-3.17-4.84-9.87-7.46-15.11-5-2.7,1.27-4.72,3.63-6.47,6.04-1.89,2.59-3.58,5.32-5.07,8.16-.44.84-.9,1.73-1.73,2.19-1.8.99-3.88-.63-5.28-2.13-9.66-10.26-27.72-23.56-34.6-1.31-2.53,8.18-.11,17.11,3.58,24.84,3.68,7.73,8.63,14.88,11.56,22.93,2.84,7.81,3.68,16.18,5.21,24.35,4.66,24.88,15.73,48.02,26.68,70.84,7.73-39.4,15.46-78.79,23.2-118.19Z"/>
        <path class="st2" d="M119.04,156.36c.44.96.91,1.96,1.39,3.03,4.75,10.53,1.3,25.15,9.46,33.97,4.35-12.7,5.55-28.65,4.01-42.15-1.15-10.07,8.03-14.75,6.19-24.68-1.48-7.99-6.9-10.56-5.55-19.55.08-.51.18-1.04.51-1.43.97-1.11,2.72-.17,4.11.33,12.98,4.68,2.07-11.37,2.02-11.27,1.97-3.84,9.23-3.19,9.95-7.45.3-1.76-.84-3.42-1.92-4.84-1.81-2.4-3.91-6.04-6.86-5.5-10.38,1.89-13.5,19.46-25.08,11.05-5.7-4.14-12.23-11.59-20.1-7.88-7.84,3.7-7.2,12.67-1.5,16.45,2.38,1.58,9.92,3.13,10.58,6.37,1.17,5.69-9.46,5.51-6.15,12.14.79,1.58,2.62,2.37,3.64,3.82,1.28,1.83,1.02,4.29,1.55,6.46s2.91,4.35,4.78,3.13c1.58-1.02,1.53-3.76,3.28-4.45,1.32-.52,2.81.64,3.19,2,.38,1.36-.02,2.81-.43,4.17-3.65,12.22-1.33,17.1,2.92,26.29Z"/>
        <path class="st1" d="M109.05,72.46c.5-12.23,9.37-17.75,13.93-10.62,3.91,6.12-4.94,12.35,2.72,35.22,13.12,39.16-2.33,85.01,5.85,125.4"/>
      </g>
    </g>
  </g>
</svg>