<?xml version="1.0" encoding="UTF-8"?>
<svg id="Layer_1" xmlns="http://www.w3.org/2000/svg" version="1.1" viewBox="0 0 240 310">
  <!-- Generator: Adobe Illustrator 30.1.0, SVG Export Plug-In . SVG Version: 2.1.1 Build 136)  -->
  <defs>
    <style>
      .st0 {
        fill: #466b40;
      }

      .st0, .st1, .st2, .st3, .st4 {
        stroke: #4c241e;
        stroke-linecap: round;
        stroke-linejoin: round;
        stroke-width: 2.2px;
      }

      .st1 {
        fill: none;
      }

      .st2 {
        fill: #59804b;
      }

      .st3 {
        fill: #4c241e;
      }

      .st4 {
        fill: #6890a9;
      }
    </style>
  </defs>
  <g>
    <path class="st4" d="M149.93,174.3c-2.19-3.04-5.91-4.55-9.55-5.43-6.65-1.6-23.23-1.47-23.23-1.47-6.84-.07-13.76-.12-20.41,1.47-3.64.87-7.36,2.39-9.55,5.43-4.09,5.69-.13,25.28.05,32.28.33,12.45.97,24.89,1.97,37.31,1.22,15.21,4.62,29.42,7.18,44.27.49,2.86,1.05,5.86,2.87,8.12,2.02,2.5,5.25,3.67,8.4,4.34,3.58.77,7.26,1.02,10.91.8,3.65.22,7.33-.03,10.91-.8,3.14-.67,6.38-1.84,8.4-4.34,1.82-2.26,2.37-5.26,2.87-8.12,2.56-14.85,5.96-29.06,7.18-44.27,1-12.42,1.64-24.86,1.97-37.31.18-7,4.14-26.59.05-32.28Z"/>
    <path class="st3" d="M143.09,178.67c-.53-.48-1.2-.96-2.03-1.43-2.55-1.44-5.6-1.6-8.53-1.73-9.37-.4-20-2.06-29.34-.55-10.76,1.74-5,8.22,1.14,10.33,9.91,3.4,23.24,2.5,33.46,1.32,5.17-.6,9.23-4.33,5.3-7.93Z"/>
  </g>
  <g id="_x34_">
    <g>
      <g>
        <path class="st0" d="M214.35,114.8c-3.52-10.99-12.44-20.23-14.28-31.5-3.55-21.7-11.1-35.05-20.83-50.27-2.72-4.25-5.31-8.9-9.74-11.27-3.97-2.12-9.11-2.15-12.77.43-3.66,2.58-5.35,7.88-3.39,11.95.62,1.29,1.56,2.44,1.92,3.83.36,1.39-.18,3.18-1.56,3.5-8.85,2.07-15.87-17.79-22.75-.8-4.3,10.61,5,21.85,11.41,29.27,9.9,11.44,19.73,22.69,31.51,32.2,14.15,11.42,26.41,24.35,39.64,36.58,1.54,1.42,3.62,2.95,5.51,2.1-.23-8.88-1.97-17.58-4.67-26.01Z"/>
        <path class="st2" d="M139,47.34c.34-1.11.9-2.01,1.75-2.56,4.33-2.8,9.69,2.99,13.64,4.13,2.44.71,4.49-2.15,4.64-4.7,1.6-27,25.67.92,19.6,5.09-1.36.93-3.12.99-4.68,1.51-1.56.53-3.12,2-2.67,3.61.19.67.69,1.19,1.2,1.65,4,3.6,9.35,2.82,13.13,6.56,9,8.9,6.76,17.35,11.2,26.84,7.43,15.88,8.92,10.93,9.84,28.38.05,1.04,6.01,7.84,5.6,8.78-.93,2.11-9.33-4.83-11.1-6.32-6.32-5.33-10.31-12.77-16.3-18.13-6.18-20.36-14.01-4.3-24.92-19.46-6.84-9.51-6.7-3.29-10.56-10.16-1.77-3.16,2.64-6.65,1.8-10.17-.44-1.86-2.46-2.99-4.35-3.04-1.89-.05-3.69.74-5.42,1.51-1.75-2.35-3.64-9.38-2.39-13.52Z"/>
        <path class="st1" d="M120.09,184.92c-.34-29.4-.69-58.79-1.03-88.19-.17-14.7-.34-29.4-.51-44.09-.12-10.65-2.66-23.45,2.4-33.39,2.58-5.06,7.8-9.29,13.65-9.11,5.22.16,9.79,3.78,12.37,8.15,2.58,4.37,2.48,11.44,3.02,16.44,2.2,20.41,58.96,85.21,69.03,106.09"/>
      </g>
      <g>
        <path class="st0" d="M53.09,73.2c-3.23,7.82-8.1,14.86-11.55,22.59-3.31,7.44-5.25,15.4-7.18,23.32-4.59,18.88-9.18,37.77-13.77,56.65,18.7-11.38,28.14-33,42.53-49.5,17.98-20.61,44.95-34.79,54.24-60.51,2.77-7.68,4.78-15.48-2.03-21.55-8.62-7.67-17,1.25-25.17,5.78-.31.17-.63.34-.98.34-1.74-.04,3.9-11.35.81-16.67-2.98-5.12-10.55-8.26-15.95-6.92-15.94,3.96-15.77,33.94-20.95,46.47Z"/>
        <path class="st1" d="M58.43,107.19c-7.09,13.64-14.71,24.98-23.39,41.99-2.22,4.35-8.48,18.15-11.27,22.16"/>
      </g>
      <path class="st2" d="M51.76,81.97c.4,1.45,1.82,2.65,4.73,3.42-.44,3.13-2.06,4.99-4.21,7.2-2.06,2.13-3.95,5.4-2.3,7.85.76,1.12,2.11,1.76,2.8,2.92,1.41,2.37-.54,5.24-2.25,7.39-7.22,9.1-10.58,19.81-13.93,30.72-.41,1.32-.47,3.24.87,3.56.61.15,1.24-.17,1.78-.49,10.11-6.08,10.24-20.27,19.55-25.26,1.95-1.05,4.19-1.4,6.23-2.23,8.4-3.43,11.45-13.8,11.66-22.86.03-1.41.14-3.05,1.3-3.84,1.3-.88,3.02-.14,4.52.32,4.15,1.3,8.98.11,12.05-2.97,5.69-5.7,11.92-11.28,8.81-20.2-.39-1.11-.92-2.22-.85-3.4.28-5.26,10.05-4.67,7.37-10.91-.98-2.28-3.51-3.58-5.98-3.78-4.39-.35-12.12,4.49-15.93,2.29-1.03-.6-9.47-28.42-11.45-8.2-6.1.68-15.28,2.8-11.31,10.91.58,1.19,1.49,2.22,1.9,3.48.96,2.9-.93,5.95-3.09,8.11-3.15,3.14-13.65,10.99-12.26,15.95Z"/>
      <path class="st1" d="M39.32,142.72c8.3-21.27,41.64-82.94,56.24-101.93,5-6.5,13.81-10.24,20.41-6.2,5.71,3.49,7.92,11.3,9.02,18.5,1.69,11.01,1.92,22.33.69,33.48-1.15,10.44-3.56,20.68-5.18,31.05-3.2,20.48-3.28,41.31-3.36,62.02"/>
      <g>
        <path class="st0" d="M163.73,100.05c.15-9.16-1.04-24.8-7.71-31.86-3.97-4.21-11.03-5.6-15.75-2.25-2.44,1.72-4,4.4-5.31,7.09-1.4,2.88-2.59,5.87-3.55,8.93-.28.9-.58,1.87-1.32,2.46-1.59,1.29-3.93.06-5.57-1.16-11.32-8.4-31.44-18.29-34.29,4.82-1.05,8.5,2.91,16.86,7.91,23.82,4.99,6.96,11.12,13.12,15.42,20.53,4.18,7.19,6.48,15.27,9.43,23.04,8.98,23.67,23.96,44.49,38.77,65.02.66-40.14,1.32-80.29,1.97-120.43Z"/>
        <path class="st2" d="M137.49,155.6c.61.86,1.24,1.77,1.9,2.74,6.54,9.53,5.72,24.52,15.3,31.77,2.04-13.27.4-29.18-3.49-42.2-2.91-9.71,5.3-15.94,1.74-25.38-2.87-7.61-8.65-9.18-8.92-18.27-.01-.51,0-1.05.25-1.49.76-1.26,2.65-.64,4.1-.4,13.6,2.32.03-11.55,0-11.45,1.26-4.13,8.52-4.77,8.48-9.09-.02-1.79-1.43-3.21-2.74-4.43-2.21-2.04-4.91-5.25-7.73-4.2-9.89,3.69-9.85,21.54-22.74,15.3-6.34-3.07-14.09-9.25-21.18-4.21-7.06,5.02-4.85,13.74,1.42,16.46,2.62,1.13,10.31,1.33,11.54,4.4,2.16,5.4-8.34,7.09-3.91,13.03,1.06,1.42,3,1.87,4.26,3.12,1.58,1.58,1.76,4.04,2.67,6.08s3.63,3.76,5.26,2.24c1.38-1.29.84-3.97,2.45-4.96,1.21-.74,2.88.13,3.5,1.41.61,1.28.47,2.77.31,4.18-1.44,12.67,1.71,17.07,7.51,25.36Z"/>
        <path class="st1" d="M117.55,77.39c-1.32-11.85,3.98-14.98,9-8.97,4.31,5.16.97,9.47,8.74,30.97,12.42,34.38,14.1,79.07,26.26,118.89"/>
      </g>
    </g>
  </g>
</svg>