<?xml version="1.0" encoding="UTF-8"?>
<svg id="Layer_1" xmlns="http://www.w3.org/2000/svg" version="1.1" viewBox="0 0 240 310">
  <!-- Generator: Adobe Illustrator 30.1.0, SVG Export Plug-In . SVG Version: 2.1.1 Build 136)  -->
  <defs>
    <style>
      .st0 {
        fill: #466b40;
      }

      .st0, .st1, .st2, .st3, .st4 {
        stroke: #4c241e;
        stroke-linecap: round;
        stroke-linejoin: round;
        stroke-width: 2.2px;
      }

      .st1 {
        fill: none;
      }

      .st2 {
        fill: #59804b;
      }

      .st3 {
        fill: #4c241e;
      }

      .st4 {
        fill: #6890a9;
      }
    </style>
  </defs>
  <g>
    <path class="st4" d="M149.93,174.3c-2.19-3.04-5.91-4.55-9.55-5.43-6.65-1.6-23.23-1.47-23.23-1.47-6.84-.07-13.76-.12-20.41,1.47-3.64.87-7.36,2.39-9.55,5.43-4.09,5.69-.13,25.28.05,32.28.33,12.45.97,24.89,1.97,37.31,1.22,15.21,4.62,29.42,7.18,44.27.49,2.86,1.05,5.86,2.87,8.12,2.02,2.5,5.25,3.67,8.4,4.34,3.58.77,7.26,1.02,10.91.8,3.65.22,7.33-.03,10.91-.8,3.14-.67,6.38-1.84,8.4-4.34,1.82-2.26,2.37-5.26,2.87-8.12,2.56-14.85,5.96-29.06,7.18-44.27,1-12.42,1.64-24.86,1.97-37.31.18-7,4.14-26.59.05-32.28Z"/>
    <path class="st3" d="M143.09,178.67c-.53-.48-1.2-.96-2.03-1.43-2.55-1.44-5.6-1.6-8.53-1.73-9.37-.4-20-2.06-29.34-.55-10.76,1.74-5,8.22,1.14,10.33,9.91,3.4,23.24,2.5,33.46,1.32,5.17-.6,9.23-4.33,5.3-7.93Z"/>
  </g>
  <g id="_x35_">
    <g>
      <path class="st0" d="M223,110.87c-4.69-10.55-14.55-18.77-17.6-29.77-5.87-21.19-14.82-33.65-26.13-47.73-3.16-3.93-6.24-8.28-10.9-10.15-4.18-1.68-9.29-1.16-12.65,1.81-3.36,2.96-4.47,8.41-2.08,12.25.76,1.22,1.82,2.26,2.32,3.6.5,1.34.17,3.18-1.17,3.65-8.58,3.02-17.69-15.98-22.71,1.66-3.13,11.01,7.33,21.19,14.51,27.87,11.07,10.31,22.06,20.43,34.8,28.61,15.3,9.82,28.89,21.36,43.35,32.08,1.69,1.25,3.92,2.55,5.71,1.49-1.19-8.81-3.85-17.26-7.45-25.36Z"/>
      <path class="st2" d="M140.82,51.94c.22-1.14.68-2.09,1.46-2.73,4.01-3.25,9.96,1.92,14,2.64,2.5.44,4.23-2.62,4.11-5.17-1.32-27.01,25.62-1.86,20.03,2.95-1.25,1.08-2.99,1.32-4.49,2.01-1.5.69-2.89,2.33-2.27,3.87.26.64.81,1.11,1.37,1.52,4.37,3.15,9.6,1.8,13.76,5.1,9.91,7.87,8.6,16.52,14.03,25.47,9.1,14.98,10.05,9.91,12.85,27.15.17,1.03,6.82,7.14,6.51,8.13-.7,2.2-9.79-3.79-11.72-5.08-6.86-4.61-11.63-11.59-18.17-16.27-8.34-19.57-14.39-2.77-26.88-16.66-7.83-8.71-7.01-2.54-11.59-8.96-2.1-2.95,1.91-6.89.69-10.31-.64-1.8-2.77-2.71-4.66-2.55-1.89.16-3.59,1.13-5.23,2.09-1.99-2.14-4.64-8.93-3.83-13.19Z"/>
      <path class="st1" d="M125.98,185.57c-2.68-29.28.82-55.1-1.86-84.38-1.34-14.64-2.68-29.28-4.02-43.91-.97-10.61-4.52-23.17-.27-33.47,2.17-5.25,7.1-11.08,12.88-10.17,6.13.96,8.56,4.14,10.75,7.31,2.89,4.17,4.47,11.4,6.54,15.98,8.81,19.46,65.68,76.61,78.34,98.25"/>
    </g>
    <g>
      <path class="st0" d="M52.69,70.83c-4.38,7.24-10.26,13.46-14.83,20.58-4.4,6.85-7.52,14.43-10.62,21.96-7.4,17.97-14.79,35.94-22.19,53.92,20.21-8.42,32.81-28.36,49.54-42.49,20.89-17.65,49.7-27.58,62.78-51.6,3.9-7.17,7.07-14.58,1.25-21.6-7.36-8.88-16.99-1.34-25.76,1.9-.33.12-.68.25-1.02.18-1.72-.3,5.58-10.63,3.32-16.35-2.17-5.52-9.18-9.76-14.72-9.25-16.35,1.5-20.73,31.16-27.74,42.76Z"/>
      <path class="st1" d="M52.82,105.24c-9.07,12.4-18.32,22.46-29.48,37.96-2.85,3.96-11.13,16.66-14.49,20.19"/>
    </g>
    <path class="st2" d="M50.04,79.29c.18,1.49,1.4,2.89,4.15,4.09-.91,3.02-2.79,4.62-5.25,6.48-2.36,1.79-4.72,4.74-3.46,7.42.58,1.23,1.82,2.06,2.33,3.31,1.03,2.55-1.33,5.09-3.35,6.97-8.51,7.9-13.46,17.98-18.42,28.26-.6,1.24-.95,3.13.33,3.66.59.24,1.25.02,1.83-.22,10.92-4.48,13.19-18.48,23.15-22.01,2.08-.74,4.35-.75,6.5-1.26,8.82-2.11,13.41-11.9,14.98-20.83.24-1.39.6-2.99,1.87-3.6,1.42-.68,3.01.32,4.42,1,3.91,1.91,8.86,1.46,12.36-1.11,6.48-4.77,13.49-9.35,11.76-18.63-.22-1.16-.57-2.34-.33-3.49,1.07-5.16,10.64-3.09,8.93-9.67-.62-2.4-2.93-4.07-5.34-4.64-4.29-1.01-12.66,2.61-16.09-.14-.93-.74-5.06-29.53-10.08-9.84-6.13-.25-15.53.45-12.83,9.07.4,1.27,1.13,2.42,1.35,3.73.51,3.01-1.82,5.74-4.28,7.55-3.59,2.63-15.16,8.8-14.54,13.91Z"/>
    <path class="st1" d="M26.57,138.28c16.57-20.34,61.45-77.92,74.01-96.48,4.6-6.79,14.24-9.64,20.66-5.32,5.55,3.73,7.43,11.63,8.22,18.87,1.21,11.07.96,22.39-.75,33.48-1.6,10.38-4.45,20.5-6.51,30.79-4.08,20.32-5.06,41.13-6.02,61.82"/>
    <g>
      <path class="st0" d="M170.24,102.54c-.14-9.16-3.05-24.63-10.27-31.13-4.3-3.87-11.45-4.68-15.88-.97-2.29,1.92-3.63,4.72-4.71,7.5-1.16,2.99-2.1,6.06-2.81,9.18-.21.92-.43,1.91-1.11,2.56-1.48,1.42-3.91.38-5.65-.7-11.97-7.45-32.83-15.68-33.79,7.59-.35,8.56,4.27,16.57,9.81,23.1,5.54,6.53,12.15,12.18,17.04,19.21,4.75,6.82,7.7,14.7,11.27,22.2,10.87,22.86,27.49,42.4,43.92,61.66-3.91-37.58-7.13-76.48-7.81-120.19Z"/>
      <path class="st2" d="M148.6,160.03c.67.81,1.38,1.67,2.12,2.57,7.29,8.96,7.69,23.98,17.83,30.42.96-13.39-1.97-29.12-6.91-41.78-3.69-9.44,3.98-16.31-.33-25.44-3.48-7.35-9.37-8.44-10.37-17.48-.06-.51-.1-1.05.13-1.51.66-1.32,2.59-.86,4.06-.73,13.75,1.21-.91-11.52-.93-11.42.92-4.22,8.11-5.45,7.72-9.75-.16-1.78-1.68-3.09-3.09-4.19-2.37-1.86-5.32-4.84-8.04-3.56-9.56,4.48-8.07,22.27-21.42,17.09-6.57-2.55-14.79-8.08-21.45-2.48-6.63,5.58-3.72,14.09,2.75,16.29,2.71.92,10.39.49,11.86,3.45,2.59,5.21-7.74,7.74-2.84,13.31,1.17,1.33,3.14,1.62,4.5,2.77,1.71,1.44,2.08,3.88,3.15,5.84s3.92,3.46,5.43,1.81c1.27-1.39.51-4.02,2.04-5.14,1.14-.84,2.88-.1,3.6,1.12.72,1.22.7,2.72.65,4.14-.4,12.75,3.09,16.87,9.54,24.66Z"/>
      <path class="st1" d="M122.37,83.69c-2.28-11.7,2.75-15.26,8.24-9.67,4.71,4.79,1.74,9.36,11.23,30.16,15.17,33.26,20.47,77.66,35.83,116.36"/>
    </g>
  </g>
</svg>