<?xml version="1.0" encoding="UTF-8"?>
<svg id="_x30_" xmlns="http://www.w3.org/2000/svg" version="1.1" viewBox="0 0 400 410">
  <!-- Generator: Adobe Illustrator 29.6.1, SVG Export Plug-In . SVG Version: 2.1.1 Build 9)  -->
  <defs>
    <style>
      .st0 {
        fill: #f2915c;
      }

      .st0, .st1, .st2, .st3, .st4 {
        stroke: #4c241e;
        stroke-linecap: round;
        stroke-linejoin: round;
        stroke-width: 2.2px;
      }

      .st1 {
        fill: #87bcdc;
      }

      .st2 {
        fill: none;
      }

      .st3 {
        fill: #ffc550;
      }

      .st4 {
        fill: #e6eef4;
      }
    </style>
  </defs>
  <g>
    <rect class="st1" x="45.51" y="32.3" width="232.72" height="280.06"/>
    <g>
      <rect class="st4" x="175.74" y="47.81" width="89.25" height="249.04"/>
      <rect class="st4" x="58.75" y="47.81" width="89.25" height="249.04"/>
    </g>
    <line class="st2" x1="161.87" y1="32.3" x2="161.87" y2="311.53"/>
  </g>
  <g>
    <path class="st0" d="M314.95,17.47c-.09-5.79.63-12.77-3.89-12.91-1.93-.06-7.42,4.7-7.42,4.7H17.35s-5.49-4.76-7.42-4.7c-4.52.14-3.8,7.12-3.89,12.91-.03,1.61,0,3.29.57,4.73,2.28,5.72,10.1-.81,10.1-.81h287.56s7.83,6.53,10.1.81c.57-1.44.6-3.12.57-4.73Z"/>
    <g>
      <path class="st3" d="M215.88,96.37c15.2-35.27,26.52-89.83,26.52-89.83,0,0-208.26-3.2-208.38,2.43-.56,27.24,1.46,329.26,2.34,337.46,20.96-5.21,63.44,8.45,81.66-5.46-1.4-21.38-2.9-43.24-9.81-62.79-6.18-17.49-16.77-36.35-10.65-53.88,54.68-5.5,94.31-72.25,118.31-127.93Z"/>
      <path class="st0" d="M34.4,225.74c.67,6.55-.67,15.3,0,21.85.7,6.88,55.15,5.14,65.04,0,1.89-11.33-.38-12.97-.58-22.56-14,8.84-64.14,3.84-64.46.71Z"/>
      <path class="st2" d="M47.07,175.57c.15,14.32.66,28.64,1.52,42.93"/>
      <path class="st2" d="M66.25,216.2c4.08-10.72,6.73-22.33,7.8-34.18"/>
      <path class="st2" d="M83.99,216.44c7.21-9.5,13.57-20.07,18.89-31.44"/>
      <path class="st2" d="M47.13,262.16c-.17,8.36-.35,16.71-.52,25.07"/>
      <path class="st2" d="M64.47,260.37c2.46,8.97,4.15,18.29,5.03,27.73"/>
      <path class="st2" d="M79.18,260.62c5.76,6.46,9.79,15.42,11.27,25.05"/>
    </g>
  </g>
</svg>