<?xml version="1.0" encoding="UTF-8"?>
<svg id="_x33_" xmlns="http://www.w3.org/2000/svg" version="1.1" xmlns:xlink="http://www.w3.org/1999/xlink" viewBox="0 0 400 410">
  <!-- Generator: Adobe Illustrator 29.6.1, SVG Export Plug-In . SVG Version: 2.1.1 Build 9)  -->
  <defs>
    <style>
      .st0 {
        fill: #f2915c;
      }

      .st0, .st1, .st2, .st3, .st4 {
        stroke: #4c241e;
        stroke-linecap: round;
        stroke-linejoin: round;
        stroke-width: 2.2px;
      }

      .st5 {
        fill: #c3f39d;
      }

      .st6 {
        fill: #73bb70;
      }

      .st7 {
        fill: #b0b7cf;
      }

      .st8 {
        fill: #85cb7c;
      }

      .st9 {
        fill: #e1e4f3;
      }

      .st10 {
        fill: #72c26a;
      }

      .st11 {
        fill: #73c36a;
      }

      .st12 {
        fill: #b6f6f6;
      }

      .st13 {
        fill: #fff;
      }

      .st1 {
        fill: #87bcdc;
      }

      .st14 {
        fill: #94d77b;
      }

      .st15 {
        fill: #246b72;
      }

      .st16 {
        fill: #c6cbe1;
      }

      .st17 {
        fill: #469f64;
      }

      .st2 {
        fill: none;
      }

      .st18 {
        fill: #085579;
      }

      .st19 {
        fill: #817754;
      }

      .st3 {
        fill: #ffc550;
      }

      .st20 {
        fill: #b8f09c;
      }

      .st21 {
        fill: #cdfdff;
      }

      .st22 {
        fill: #368b74;
      }

      .st23 {
        fill: #665a3a;
      }

      .st24 {
        clip-path: url(#clippath);
      }

      .st4 {
        fill: #e6eef4;
      }
    </style>
    <clipPath id="clippath">
      <rect class="st2" x="163.47" y="33.26" width="116.36" height="279.23"/>
    </clipPath>
  </defs>
  <g>
    <g class="st24">
      <g>
        <g>
          <path class="st21" d="M427.77,46.38v-15.38H2.06v21.64c140.92-19.68,284.27-21.78,425.71-6.26Z"/>
          <path class="st21" d="M427.77,66.32v-19.95C286.34,30.86,142.98,32.96,2.06,52.64v3.65c141.72-11.9,284.71-8.52,425.71,10.04Z"/>
          <path class="st12" d="M2.06,98.96v21.39c76.26,10.09,150.77,33.19,219.37,67.99,65.43-25.65,136.09-37.89,206.33-35.73v-44.91c-141.9-17.32-285.18-29.44-425.71-8.75Z"/>
          <path class="st12" d="M427.77,71.73v-5.4C286.77,47.76,143.78,44.39,2.06,56.28v25.77c140.69-21.55,284.14-25.04,425.71-10.33Z"/>
          <path class="st21" d="M427.77,107.7v-35.98c-141.57-14.71-285.02-11.23-425.71,10.33v16.91c140.53-20.69,283.81-8.58,425.71,8.75Z"/>
        </g>
        <g>
          <path class="st8" d="M65.89,155.4c10.13,5.61,19.43,13.12,30.56,16.31,13.46,3.85,27.77.91,41.75.27,25.95-1.19,52.19,6.02,74.01,20.09,3.06-1.27,6.13-2.52,9.22-3.73C152.84,153.54,78.32,130.44,2.06,120.35v24.48c21.64-3.8,44.59-.08,63.83,10.57Z"/>
          <path class="st6" d="M138.21,171.98c-13.98.64-28.3,3.58-41.75-.27-11.14-3.19-20.43-10.7-30.56-16.31-19.24-10.66-42.18-14.37-63.83-10.57v42.35c64.05-16.82,133.4-12.41,195.19,11.37,4.95-2.24,9.95-4.39,14.97-6.47-21.82-14.07-48.06-21.27-74.01-20.09Z"/>
        </g>
        <path class="st18" d="M2.06,157.21c5.46-.09,11.69,2.85,14.59,7.47,2.54-1.35,5.7-1.49,8.35-.37,2.65,1.12,4.76,3.48,5.56,6.24,2.98-2.59,7.96-.71,9.31,3,4.76-4.83,12.6-6.3,18.79-3.52,6.18,2.78,10.29,9.63,9.82,16.4l-66.44,6.89v-36.12Z"/>
        <path class="st22" d="M221.43,188.34c-8.15,3.19-16.21,6.59-24.18,10.2,13.06,5.02,25.77,10.92,38.03,17.66,2.49,1.37,4.95,2.77,7.4,4.2,60.82-12.62,122.97-18.77,185.08-18.22v-49.57c-70.24-2.16-140.91,10.08-206.33,35.73Z"/>
        <g>
          <path class="st13" d="M125.44,84.54H28.91c5.19-4.9,12.97-6.22,19.45-3.24.41-2.56,2.11-4.97,4.39-6.2,2.28-1.23,5.14-1.34,7.51-.28,1.89-5.09,7.45-8.55,12.85-8.01,5.4.54,10.16,5.04,11,10.41,2.15-1.88,5.24-2.3,7.91-1.31,2.67.99,4.72,3.52,5.12,6.34,8.41-4.29,20.47-2.99,28.29,2.3Z"/>
          <path class="st13" d="M413.97,67.2h-96.53c5.19-4.9,12.97-6.22,19.45-3.24.41-2.56,2.11-4.97,4.39-6.2,2.28-1.23,5.14-1.34,7.51-.28,1.89-5.09,7.45-8.55,12.85-8.01,5.4.54,10.16,5.04,11,10.41,2.15-1.88,5.24-2.3,7.91-1.31,2.67.99,4.72,3.52,5.12,6.34,8.41-4.29,20.47-2.99,28.29,2.3Z"/>
          <path class="st13" d="M331.53,100.82h-56.62l10.61-2.46c.44-1.65,1.51-3.25,3.06-3.97s3.41-.71,4.96.01c1.83-4.16,6.25-6.68,10.77-6.31,4.52.37,8.63,3.84,9.76,8.23,1.29-1.55,3.83-2.18,5.77-1.65,1.94.53,3.51,2.26,3.83,4.25l7.86,1.88Z"/>
        </g>
        <g>
          <path class="st17" d="M147.3,238.7c-27.09-7.62-55.16-11.77-83.29-12.38,15.63,2.57,31.11,6.81,46.06,11.82,9.75,3.26,19.39,6.85,29.01,10.5,30.84-10.49,62.28-19.23,94.1-26.2-29.06,2.58-57.83,8-85.88,16.27Z"/>
          <path class="st10" d="M233.18,222.43c3.17-.69,6.33-1.38,9.51-2.03-2.45-1.44-4.92-2.84-7.4-4.2-12.26-6.74-24.98-12.63-38.03-17.66-61.79-23.78-131.13-28.19-195.19-11.37v39.88c20.28-4.62,41.23-4.15,61.95-.74,28.14.61,56.2,4.76,83.29,12.38,28.05-8.26,56.82-13.69,85.88-16.27Z"/>
        </g>
        <path class="st14" d="M2.25,208.51c31.53-15.04,66.19-23.98,101.03-25.4-34.13-2.24-68.67,2.06-101.21,12.56l.18,12.84Z"/>
        <path class="st15" d="M233.28,223.47c-.3-1.73-1.63-3.24-3.31-3.76-1.68-.52-3.63-.01-4.85,1.25.73-1.38,1.47-2.86,1.35-4.41-.12-1.56-1.5-3.12-3.03-2.83-.84.16-1.5.82-2.04,1.48-1.34,1.65-2.33,3.59-2.88,5.64.56-1.13-.59-2.53-1.84-2.6-1.26-.07-2.39.8-3.13,1.81-1.68,2.29-1.9,5.55-.54,8.04,6.53-1.93,13.51-3.74,20.27-4.62Z"/>
        <g>
          <path class="st14" d="M297.68,277.47c46.16-2.99,91.45-18.28,130.09-43.69v-31.6c-62.11-.55-124.27,5.6-185.08,18.22-30.97,6.43-61.6,14.54-91.69,24.29,44.47,24.52,96.01,36.07,146.68,32.79Z"/>
          <path class="st17" d="M297.68,277.47c-50.68,3.28-102.22-8.27-146.68-32.79-3.98,1.29-7.95,2.61-11.91,3.95,26.37,10.03,52.56,20.62,80.05,26.76,70.28,15.71,145.33.64,208.64-33.91v-7.72c-38.64,25.41-83.93,40.7-130.09,43.69Z"/>
        </g>
        <path class="st5" d="M342.59,215.06c-2.42.27-4.94.62-6.96,1.99-2.02,1.37-3.36,4.05-2.42,6.3.97,2.32,3.84,3.29,5.08,5.47,1.45,2.55.08,5.96-2.24,7.75-2.33,1.79-5.33,2.36-8.22,2.88-6.61,1.19-13.22,2.39-19.84,3.58-2.47.45-5.03.93-7.11,2.33-2.08,1.41-3.58,4.01-2.9,6.44.83,2.99,4.3,4.27,7.33,4.93,18.14,3.93,36.97,1.18,55.32-1.59,16.58-2.5,33.65-5.16,48-13.84,4.91-2.97,10.74-8.22,9.6-14.61-1.03-5.77-7.8-9.48-13.02-10.81-4.18-1.07-8.45-.19-12.69-.18-7.52.02-15.04-1.4-22.57-1.67-9.13-.32-18.28.02-27.35,1.03Z"/>
        <g>
          <g>
            <path class="st23" d="M371.7,218.9c-.77-8.7-2.99-17.36-7.18-24.93-2.08-.2-5.61-.07-7.69-.27,1.92,7.35,2.7,15,2.33,22.59,3.61,2.47,8.24,3.41,12.54,2.61Z"/>
            <path class="st19" d="M359.16,216.29c-.12,2.53-.37,5.06-.75,7.56,1.48,2.11,3.94,3.67,6.5,3.94,2.56.27,5.22-.61,7.11-2.36-.02-2.17-.12-4.35-.32-6.53-4.3.8-8.93-.14-12.54-2.61Z"/>
          </g>
          <g>
            <path class="st17" d="M391.45,197.37c-4.19,2.32-9.57,2.25-13.87.16-1.55,3.36-4.55,6.03-8.07,7.17-3.52,1.15-7.38.21-10.62-1.59-3.22,3.1-7.9,4.63-12.34,4.02-4.43-.61-8.26-3.4-10.52-7.26,3.47-2.08,6.09-5.41,7.77-9.09-3.65,3.55-8.69,5.79-13.77,5.51-5.08-.28-10.06-3.32-12.12-7.97-2.06-4.65-1.67-11.86,2.47-14.82-2.43-3.1-3.59-7.16-3.16-11.08.34-3.11,1.69-6.08,3.75-8.43-3.08,1.48-5.67,4.01-7.1,7.13-2.05,4.48-1.63,10.01,1.08,14.13-4.91,4.7-6.34,12.65-3.39,18.77,2.96,6.12,10.07,9.94,16.81,9.02,2.84,5.33,8.14,9.28,14.05,10.49,5.92,1.21,12.34-.36,17.04-4.15,4.01.88,9.4,1.64,13.41.72,4.01-.92,7.79-4.19,7.88-8.3,4.67,2.14,10.61,1.11,14.29-2.47,2.97-2.89,4.3-7.29,3.66-11.36-1.03,3.94-3.69,7.45-7.25,9.42Z"/>
            <path class="st11" d="M397.73,168.23c2.14-4.38,4.08-9.17,3.33-13.98-.75-4.81-5.25-9.34-10.02-8.38.53-6.57-3.48-13.26-9.53-15.89-6.05-2.62-13.68-.99-18.11,3.89-1.23-3.19-4.47-5.49-7.89-5.6-3.41-.12-7.26,1.02-8.71,4.11-4.34-2.72-10.43-2.23-14.29,1.14-3.85,3.37-5.14,9.35-3.03,14.01-2.7-.66-5.41,2.67-4.21,5.18-1.49.2-2.95.64-4.3,1.29-2.06,2.34-3.41,5.32-3.75,8.43-.43,3.91.73,7.98,3.16,11.08-4.14,2.96-4.53,10.17-2.47,14.82,2.06,4.65,7.04,7.69,12.12,7.97,5.08.28,10.12-1.96,13.77-5.51-1.67,3.69-4.3,7.01-7.77,9.09,2.27,3.86,6.09,6.65,10.52,7.26,4.43.61,9.11-.91,12.34-4.02,3.23,1.81,7.09,2.74,10.62,1.59,3.52-1.15,6.52-3.81,8.07-7.17,4.3,2.1,9.68,2.16,13.87-.16,3.57-1.97,6.23-5.48,7.25-9.42-.16-.98-.42-1.94-.81-2.86,4.78-3.32,4.19-12.99-.15-16.86Z"/>
          </g>
          <g>
            <path class="st17" d="M377.49,154.32c-.64-1.25-1.72-2.41-3.07-3.15-1.35-.74-2.91-1.04-4.3-.9-.93.08-1.79.35-2.5.73-.56-1.71-1.62-3.39-3.13-4.63-1.77-1.47-4.02-2.23-6.09-2.27-2.08-.06-3.97.6-5.22,1.59,1.6.09,3.24.36,4.82.9,1.58.54,3.08,1.34,4.35,2.38,1.26,1.05,2.33,2.37,3.16,3.82.83,1.45,1.41,3.01,1.8,4.56.73-1.42,1.02-3.4.57-5.43-.02-.07-.04-.15-.06-.23,1.86.12,3.81.57,5.5,1.5,2.04,1.12,3.7,2.94,4.87,4.79.16-1.08-.04-2.42-.69-3.67Z"/>
            <path class="st17" d="M335.43,154.32c-1.52-.17-3.27.24-4.65,1.27-1.38,1.04-2.26,2.59-2.53,4.1-.28,1.52.04,2.98.69,3.95.16-1.16.5-2.32,1.06-3.38.56-1.06,1.33-2.01,2.25-2.71.93-.69,2.06-1.16,3.23-1.4,1.17-.24,2.38-.25,3.54-.07-.75-.89-2.06-1.62-3.6-1.77Z"/>
          </g>
        </g>
        <g>
          <path class="st20" d="M156.52,298.18c45.89,7.98,92.43,12.17,139.01,12.5,45.58.33,93.44-3.76,132.25-27.15v-42.04c-63.31,34.55-138.36,49.61-208.64,33.91-27.49-6.14-53.68-16.74-80.05-26.76-9.62-3.66-19.27-7.24-29.01-10.5-34.76-11.64-72.43-19.18-108-11.08v54.3c51.08-5.7,103.27,7.92,154.45,16.82Z"/>
          <path class="st14" d="M295.52,310.69c-46.57-.34-93.12-4.53-139.01-12.5-51.18-8.9-103.37-22.52-154.45-16.82v33.44h425.71v-31.26c-38.81,23.4-86.66,27.48-132.25,27.15Z"/>
        </g>
        <g>
          <path class="st16" d="M319.1,295.92c0,3.75-4.05,3.69-9.05,3.69s-9.05.06-9.05-3.69,4.05-6.78,9.05-6.78,9.05,3.04,9.05,6.78Z"/>
          <g>
            <g>
              <path class="st16" d="M73.18,260.68c1.99-1.21,4.3-1.87,6.63-1.95-1.66-3.47-6.08-5.95-11.28-5.95-6.62,0-11.99,4.02-11.99,8.99s5.02,4.88,11.34,4.88c1.13-2.45,2.99-4.57,5.3-5.97Z"/>
              <path class="st7" d="M73.18,260.68c-2.31,1.4-4.17,3.52-5.3,5.97.22,0,.43,0,.66,0,6.62,0,11.99.08,11.99-4.88,0-1.07-.26-2.08-.72-3.03-2.33.08-4.64.74-6.63,1.95Z"/>
            </g>
            <path class="st9" d="M89.69,266.5c0,3.75-4.05,3.69-9.05,3.69s-9.05.06-9.05-3.69,4.05-6.78,9.05-6.78,9.05,3.04,9.05,6.78Z"/>
          </g>
        </g>
      </g>
    </g>
    <rect class="st2" x="163.47" y="33.26" width="116.36" height="279.23"/>
  </g>
  <g>
    <polygon class="st1" points="280.23 313.49 366.59 378.05 366.59 98 280.23 33.43 280.23 313.49"/>
    <polygon class="st4" points="352.39 103.69 352.39 352.73 290.47 306.66 290.47 57.62 352.39 103.69"/>
  </g>
  <g>
    <rect class="st1" x="47.11" y="33.26" width="116.36" height="279.23"/>
    <rect class="st4" x="60.35" y="48.76" width="89.25" height="249.04"/>
  </g>
  <g>
    <path class="st0" d="M314.93,17.75c-.09-5.79.63-12.77-3.89-12.91-1.93-.06-7.42,4.7-7.42,4.7H17.33s-5.49-4.76-7.42-4.7c-4.52.14-3.8,7.12-3.89,12.91-.03,1.61,0,3.29.57,4.73,2.28,5.72,10.1-.81,10.1-.81h287.56s7.83,6.53,10.1.81c.57-1.44.6-3.12.57-4.73Z"/>
    <g>
      <path class="st3" d="M122.97,137.9c2.93-15.79,11.36-77.17,18.78-131.07,0,0-107.65-3.2-107.76,2.43-.56,27.24,1.46,329.26,2.34,337.46,20.96-5.21,63.44,8.45,81.66-5.46-3.46-17.11,1.86-34.19-12.08-55.3-13.83-20.94-31.55-43.23-15.48-65.27,15.08-24.48,21.89-25.45,32.54-82.79Z"/>
      <path class="st0" d="M34.34,229.29c.54,6.55-.54,15.3,0,21.85.57,6.88,44.59,5.14,52.59,0,1.53-11.33.67-14.69.51-24.28-11.32,8.84-52.84,5.56-53.1,2.43Z"/>
      <path class="st2" d="M51.49,175.85c3.1,31.36-2.85,34.04-2.92,42.93"/>
      <path class="st2" d="M57.35,223.59c9.04-15.25,35.92-32.74,39.69-106.72"/>
      <path class="st2" d="M113.66,29.9"/>
      <path class="st2" d="M108.61,174.97"/>
      <path class="st2" d="M47.11,262.44c-.17,8.36-.35,16.71-.52,25.07"/>
      <path class="st2" d="M71.21,270.07c2.46,8.97,2.93,21.94,3.81,31.39"/>
      <path class="st2" d="M79.16,260.9c2.75,8.39,16.25,34.23,20.34,36.91"/>
    </g>
  </g>
</svg>