<?xml version="1.0" encoding="UTF-8"?>
<svg id="Layer_1" xmlns="http://www.w3.org/2000/svg" version="1.1" xmlns:xlink="http://www.w3.org/1999/xlink" viewBox="0 0 45 45">
  <!-- Generator: Adobe Illustrator 29.6.1, SVG Export Plug-In . SVG Version: 2.1.1 Build 9)  -->
  <defs>
    <style>
      .st0 {
        fill: #fff;
      }

      .st1 {
        mask: url(#mask);
      }

      .st2 {
        fill: #e72b2b;
      }
    </style>
    <mask id="mask" x="1.4" y="1.4" width="42.2" height="42.2" maskUnits="userSpaceOnUse">
      <g id="mask0_631_14403">
        <path class="st0" d="M22.5,1.4C10.84,1.4,1.4,10.84,1.4,22.5s9.45,21.1,21.1,21.1,21.1-9.45,21.1-21.1S34.15,1.4,22.5,1.4Z"/>
      </g>
    </mask>
  </defs>
  <g>
    <path class="st2" d="M22.5,43.67c-11.68,0-21.17-9.5-21.17-21.17S10.82,1.33,22.5,1.33s21.17,9.5,21.17,21.17-9.5,21.17-21.17,21.17Z"/>
    <path d="M22.5,2.65c10.95,0,19.85,8.9,19.85,19.85s-8.9,19.85-19.85,19.85S2.65,33.45,2.65,22.5,11.55,2.65,22.5,2.65M22.5,0C10.07,0,0,10.07,0,22.5s10.07,22.5,22.5,22.5,22.5-10.07,22.5-22.5S34.93,0,22.5,0h0Z"/>
  </g>
  <g class="st1">
    <path class="st0" d="M26.85,23.18l5.37-5.37c.41-.41.41-1.08,0-1.49l-2.86-2.86c-.4-.4-1.09-.4-1.49,0l-5.37,5.37-5.37-5.37c-.4-.4-1.09-.4-1.49,0l-2.86,2.86c-.2.2-.31.46-.31.75s.11.55.31.75l5.37,5.37-5.37,5.37c-.41.41-.41,1.08,0,1.49l2.86,2.86c.4.4,1.09.4,1.49,0l5.37-5.37,5.37,5.37c.2.2.46.31.75.31s.55-.11.75-.31l2.86-2.86c.41-.41.41-1.08,0-1.49l-5.37-5.37h-.01Z"/>
  </g>
</svg>