<svg width="75" height="130" viewBox="0 0 75 130" fill="none" xmlns="http://www.w3.org/2000/svg">
<path d="M28.6942 114.23C29.1734 114.088 29.5745 114.296 29.8973 114.854C30.0182 115.034 30.0903 115.453 30.1137 116.113C30.1371 116.793 30.169 117.173 30.2094 117.253C30.2499 117.353 30.2613 117.623 30.2435 118.063C30.245 118.363 30.2397 119.303 30.2277 120.883C30.2356 122.463 30.2506 123.443 30.2725 123.823C30.2738 124.083 30.2559 124.493 30.2187 125.053C30.1814 125.593 30.1529 125.893 30.1332 125.953C30.0737 126.054 29.9642 126.144 29.8046 126.225C29.645 126.306 29.455 126.307 29.2346 126.228C28.9942 126.149 28.8137 126.05 28.6931 125.93C28.5724 125.791 28.4815 125.611 28.4204 125.392C28.3592 125.152 28.3074 124.812 28.2652 124.373C28.2424 123.813 28.2704 123.422 28.3493 123.202C28.4081 122.962 28.4367 122.682 28.4351 122.362C28.4342 122.182 28.4285 121.042 28.4179 118.942C28.4081 117.002 28.3727 115.922 28.3116 115.702C28.1493 115.243 28.1872 114.843 28.4255 114.502C28.5246 114.321 28.6142 114.231 28.6942 114.23ZM25.6671 114.815C25.707 114.795 25.847 114.794 26.0871 114.813C26.2871 114.812 26.4875 114.891 26.6883 115.05C26.8891 115.209 27.0199 115.369 27.0807 115.528C27.1831 116.008 27.2421 117.798 27.2577 120.898C27.2644 122.217 27.2798 123.287 27.3039 124.107C27.3265 124.627 27.2883 124.977 27.1892 125.158C27.0109 125.499 26.7817 125.67 26.5017 125.671C26.0216 125.634 25.6704 125.415 25.4484 125.017C25.3877 124.877 25.3463 124.587 25.3241 124.147C25.3217 123.687 25.3398 123.297 25.3782 122.977C25.4954 122.436 25.4438 122.107 25.2232 121.988C25.123 121.948 24.8128 121.92 24.2927 121.902C23.7125 121.865 23.2822 121.807 23.0018 121.729C22.6614 121.65 22.4413 121.612 22.3413 121.612C22.2413 121.613 22.1211 121.583 21.9808 121.524C21.8604 121.444 21.7602 121.405 21.6802 121.405C21.5002 121.406 21.2113 121.628 20.8135 122.07C20.5354 122.431 20.2171 122.783 19.8588 123.124C19.5206 123.466 19.212 123.748 18.9331 123.969C18.6742 124.19 18.4648 124.321 18.3051 124.362C18.0454 124.423 17.7847 124.285 17.5229 123.946C17.3016 123.687 17.2504 123.447 17.3693 123.227C17.4882 123.006 17.8464 122.644 18.4439 122.141C19.121 121.578 19.6281 120.986 19.9649 120.364C20.0837 120.123 20.3018 119.732 20.619 119.191C20.7378 118.95 20.7972 118.82 20.7971 118.8C20.7969 118.76 20.8458 118.549 20.9439 118.169C21.0821 117.808 21.1505 117.498 21.1492 117.238C21.1282 117.038 21.1076 116.928 21.0875 116.908C21.0673 116.868 21.0071 116.829 20.9069 116.789C20.7868 116.77 20.617 116.801 20.3974 116.882C20.1776 116.923 20.0276 116.923 19.9474 116.884C19.8271 116.824 19.2769 116.787 18.2968 116.772C17.2765 116.717 16.6862 116.65 16.5258 116.571C16.1447 116.353 15.9534 116.094 15.9519 115.794C15.9503 115.474 16.0492 115.273 16.2488 115.192C16.3886 115.152 16.8086 115.149 17.5088 115.186C18.2289 115.202 18.6691 115.24 18.8294 115.299C18.9897 115.359 19.1598 115.378 19.3397 115.357C19.4995 115.316 19.7894 115.295 20.2094 115.293C20.6294 115.29 21.0392 115.258 21.4389 115.196C21.8788 115.174 22.1991 115.223 22.3997 115.342C22.5401 115.421 22.6807 115.55 22.8216 115.73C22.9824 115.889 23.0631 116.018 23.0636 116.118C23.064 116.198 23.0247 116.329 22.9456 116.509C22.8865 116.689 22.8574 116.869 22.8583 117.049C22.8591 117.209 22.9097 117.329 23.0101 117.409C23.1306 117.508 23.4208 117.547 23.8807 117.524C24.7406 117.5 25.26 117.377 25.4389 117.157C25.5384 117.076 25.547 116.796 25.4646 116.316C25.3601 115.417 25.4276 114.917 25.6671 114.815ZM25.4209 119.557C25.4197 119.317 25.3889 119.157 25.3285 119.077C25.2681 118.997 24.8379 118.96 24.0379 118.964L22.778 118.97L22.6287 119.121C22.5292 119.221 22.44 119.381 22.3611 119.602L22.2425 119.872L22.3632 120.022C22.4637 120.121 22.5841 120.191 22.7243 120.23C23.0048 120.329 23.4451 120.386 24.0452 120.404C24.6452 120.401 25.025 120.359 25.1846 120.278C25.2644 120.237 25.324 120.157 25.3634 120.037C25.4229 119.937 25.442 119.777 25.4209 119.557ZM41.1244 111.108C41.264 111.028 41.3938 110.987 41.5138 110.986C41.8538 110.985 42.1948 111.183 42.5368 111.581L42.7781 111.85L42.7854 113.29C42.8101 114.23 42.8626 114.72 42.9428 114.759C43.0031 114.819 43.3832 114.847 44.0832 114.844C44.7432 114.84 45.1335 114.888 45.254 114.988C45.3944 115.067 45.5046 115.107 45.5846 115.106C45.6646 115.106 45.7749 115.165 45.9155 115.285C46.0761 115.404 46.1766 115.513 46.2171 115.613C46.2379 115.773 46.2389 115.963 46.22 116.183C46.2211 116.403 46.1819 116.553 46.1023 116.634C45.8634 116.855 45.4138 116.947 44.7536 116.91C43.8933 116.855 43.4032 116.827 43.2832 116.828C43.1832 116.828 43.1034 116.869 43.0438 116.949C42.9642 117.029 42.9353 117.249 42.9571 117.609C42.9588 117.949 42.9906 118.299 43.0524 118.659C43.1783 119.818 43.2017 120.508 43.1228 120.728C43.0241 120.969 42.8047 121.09 42.4647 121.092C41.7447 121.095 41.3231 120.787 41.2 120.168C41.1788 119.928 41.1678 119.728 41.167 119.568C41.1662 119.408 41.1253 119.238 41.0444 119.059C41.0035 118.879 40.9363 117.439 40.8427 114.74C40.7968 113.58 40.743 112.82 40.6812 112.461C40.6194 112.101 40.5882 111.861 40.5876 111.741C40.6463 111.501 40.8253 111.29 41.1244 111.108ZM34.7066 111.56C34.7664 111.52 34.8863 111.499 35.0663 111.499C35.2663 111.498 35.4264 111.517 35.5466 111.556C35.707 111.635 35.8677 111.775 36.0287 111.974C36.2097 112.173 36.3104 112.322 36.3309 112.422C36.3518 112.602 36.2537 112.963 36.0364 113.504C35.7989 114.005 35.651 114.416 35.5926 114.736C35.5732 114.856 35.6139 114.996 35.7147 115.155C35.7955 115.315 35.9566 115.544 36.1982 115.843C36.4597 116.142 36.6305 116.301 36.7106 116.32C36.9514 116.479 37.2125 116.698 37.4939 116.976C37.6747 117.136 37.8252 117.245 37.9455 117.304C38.0857 117.344 38.206 117.403 38.3064 117.482C38.4669 117.582 38.6778 117.761 38.9392 118.019C39.2205 118.278 39.3913 118.447 39.4517 118.527C39.573 118.786 39.4744 119.057 39.1558 119.338C38.8371 119.6 38.5075 119.671 38.1669 119.553C38.0066 119.494 37.8763 119.435 37.776 119.375C37.6756 119.296 37.5954 119.256 37.5354 119.256C37.4954 119.257 37.3548 119.147 37.1137 118.928C36.9328 118.749 36.7119 118.58 36.4511 118.422C36.2705 118.303 35.9793 118.064 35.5775 117.706C35.2156 117.328 34.9646 117.119 34.8244 117.08C34.7241 117.02 34.6241 117.031 34.5245 117.111C34.4449 117.192 34.3655 117.312 34.2863 117.472C33.8113 118.455 33.5148 119.156 33.3969 119.577C33.2791 120.018 33.1209 120.358 32.9221 120.599C32.8027 120.72 32.623 120.781 32.383 120.782C32.163 120.783 31.9426 120.704 31.7218 120.545C31.5412 120.426 31.4107 120.327 31.3303 120.247C31.2699 120.168 31.2195 120.088 31.1791 120.008C31.1586 119.908 31.1479 119.768 31.147 119.588C31.1456 119.328 31.1945 119.098 31.2935 118.897C31.3924 118.677 31.4417 118.537 31.4414 118.477C31.4411 118.417 31.5105 118.296 31.6495 118.116C31.7685 117.915 31.828 117.805 31.8279 117.785C31.8277 117.745 31.8673 117.675 31.9468 117.574C32.0262 117.454 32.0658 117.374 32.0656 117.334C32.0653 117.274 32.1545 117.103 32.333 116.822C32.5117 116.561 32.6306 116.341 32.6897 116.16C32.8869 115.599 33.065 115.219 33.224 115.018C33.3632 114.857 33.502 114.636 33.6406 114.356C33.7791 114.055 33.8977 113.764 33.9962 113.484C34.0948 113.203 34.1636 112.953 34.2025 112.733C34.2214 112.513 34.2902 112.282 34.409 112.042C34.5277 111.781 34.6269 111.621 34.7066 111.56ZM32.9634 122.849C33.0632 122.809 33.2431 122.788 33.5031 122.786C33.7631 122.785 33.9332 122.804 34.0134 122.844C34.3543 123.022 34.5755 123.271 34.6772 123.591C34.6981 123.77 34.7092 123.99 34.7105 124.25C34.7121 124.57 34.7534 124.83 34.8344 125.03C34.8956 125.27 34.9273 125.609 34.9295 126.049C34.9331 126.749 34.9752 127.169 35.0559 127.309C35.1565 127.428 35.4266 127.457 35.8663 127.395C36.2262 127.373 36.9362 127.359 37.9961 127.354C39.096 127.329 39.7658 127.285 40.0055 127.224C40.3451 127.142 40.7151 127.141 41.1155 127.219C41.4158 127.277 41.7157 127.246 42.015 127.124C42.3347 127.063 42.7146 127.031 43.1546 127.028C43.5746 127.026 43.8749 127.085 44.0555 127.204C44.6376 127.621 44.7599 128.08 44.4224 128.582C44.2634 128.783 44.0841 128.914 43.8844 128.975C43.6847 129.036 43.3148 129.058 42.7747 129.04C42.1947 129.043 41.7449 129.075 41.4252 129.137C41.1054 129.179 40.3256 129.223 39.0858 129.269C37.8259 129.295 37.0861 129.339 36.8664 129.4C36.6466 129.441 36.3965 129.422 36.1161 129.343C35.8159 129.305 35.5459 129.296 35.306 129.318C35.0261 129.339 34.7261 129.34 34.406 129.322C34.0659 129.304 33.8155 129.225 33.6548 129.086C33.2934 128.808 33.0814 128.419 33.0189 127.919C32.9972 127.579 32.9561 127.349 32.8955 127.23C32.8748 127.09 32.874 126.94 32.8932 126.78C32.9526 126.659 32.9609 126.329 32.9182 125.789C32.8954 125.229 32.8631 124.77 32.8213 124.41C32.6567 123.511 32.7041 122.99 32.9634 122.849ZM57.1676 114.478C57.3667 114.297 57.5563 114.207 57.7363 114.206C58.0363 114.204 58.3271 114.363 58.6087 114.681C58.7293 114.801 58.7903 115 58.7917 115.28C58.813 115.54 58.8298 116.88 58.8419 119.3C58.8529 121.48 58.8892 122.72 58.9507 123.02C59.0321 123.299 59.0743 123.739 59.0773 124.339L59.1422 125.299L58.9634 125.54C58.7449 125.841 58.5256 125.992 58.3056 125.993C58.1856 125.994 58.0354 125.954 57.855 125.875C57.6945 125.776 57.544 125.667 57.4034 125.547C57.2827 125.408 57.2121 125.288 57.1916 125.188C57.1911 125.088 57.1703 122.949 57.1292 118.769C57.1195 116.829 57.0841 115.759 57.0231 115.559C56.9006 115.06 56.9488 114.7 57.1676 114.478ZM47.4808 115.127C47.7006 115.086 48.1707 115.113 48.8912 115.21C49.1113 115.229 49.3113 115.228 49.4912 115.207C49.6711 115.186 49.8312 115.195 49.9714 115.234C50.0917 115.294 50.4218 115.322 50.9618 115.319C51.5018 115.317 51.8516 115.285 52.0113 115.224C52.1311 115.184 52.3611 115.172 52.7012 115.191C53.0612 115.189 53.3314 115.228 53.5118 115.307C54.0127 115.484 54.2639 115.733 54.2655 116.053C54.2664 116.233 54.2081 116.563 54.0905 117.044C53.9728 117.504 53.8645 117.835 53.7655 118.035C53.706 118.136 53.5874 118.406 53.4096 118.847C53.2916 119.248 53.1433 119.589 52.9647 119.869C52.8259 120.11 52.7567 120.251 52.7569 120.291C52.7571 120.331 52.7075 120.411 52.6081 120.531C52.5285 120.612 52.4491 120.732 52.3699 120.892C52.2114 121.193 51.9632 121.544 51.6252 121.946C51.6252 121.946 51.5953 121.976 51.5356 122.037C51.4958 122.077 51.4461 122.137 51.3865 122.217C51.3469 122.298 51.3074 122.378 51.2678 122.458C50.7709 123.08 50.413 123.492 50.194 123.693C49.995 123.894 49.7955 123.995 49.5955 123.996C49.3955 123.997 49.2052 123.938 49.0246 123.819C48.844 123.7 48.7333 123.561 48.6925 123.401C48.5711 123.121 48.57 122.901 48.6891 122.741C48.7087 122.661 48.9872 122.349 49.5245 121.807C50.1015 121.224 50.4198 120.872 50.4792 120.752C50.5384 120.612 50.6475 120.421 50.8063 120.18C50.9654 119.999 51.1241 119.749 51.2825 119.428C51.4608 119.087 51.6191 118.746 51.7574 118.405C51.8956 118.065 51.9843 117.804 52.0234 117.624C52.0808 117.104 51.9993 116.814 51.779 116.755C51.6589 116.736 51.0189 116.729 49.8589 116.735C48.7189 116.741 48.0588 116.724 47.8786 116.685C47.7184 116.646 47.5579 116.546 47.3971 116.387C47.2163 116.228 47.1254 116.039 47.1243 115.819C47.1224 115.439 47.2412 115.208 47.4808 115.127Z" fill="black"/>
<g clip-path="url(#clip0_631_14294)">
<path d="M3.96864 27.2705C3.44003 13.2995 -0.0403296 0.762898 10.2394 1.13693C11.0513 1.16559 54.9073 2.77238 55.0775 2.77807C58.993 2.92212 63.6779 2.47356 66.0282 6.4001C67.7711 9.30913 66.8295 12.1203 66.8519 15.2669C66.9152 22.6328 67.612 27.1171 68.2013 59.6276C68.3107 65.7568 70.5552 77.2726 63.4633 80.7424C60.7859 82.051 56.6752 80.8547 53.6568 80.7454C-3.66758 78.6497 6.4721 92.8083 3.96864 27.2705Z" fill="#494949"/>
<path d="M57.2421 38.8853C57.215 38.6892 51.6164 39.718 50.8493 38.1713C50.6376 37.7472 51.276 33.2235 50.9485 33.1793C52.9197 33.32 54.9106 33.4736 56.8799 33.2479C57.3984 34.822 56.7808 35.6689 57.2356 38.8853L57.2421 38.8853Z" fill="#EE9C35"/>
<path d="M45.1914 39.135C45.1642 38.9389 39.5656 39.9677 38.7985 38.4211C38.5869 37.9969 39.2253 33.4733 38.8977 33.4291C40.8689 33.5698 42.8598 33.7234 44.8291 33.4977C45.3477 35.0717 44.73 35.9187 45.1848 39.1351L45.1914 39.135Z" fill="#BFD351"/>
<path d="M33.1409 39.3782C33.1137 39.1821 27.5152 40.2109 26.7545 38.6643C26.5429 38.2401 27.1813 33.7164 26.8538 33.6723C28.8249 33.8129 30.8158 33.9665 32.7852 33.7409C33.3037 35.3149 32.6861 36.1619 33.1409 39.3782Z" fill="#D7D7D7"/>
<path d="M21.0908 39.628C21.0636 39.4318 15.4651 40.4606 14.6979 38.914C14.4863 38.4898 15.1247 33.9662 14.7971 33.922C16.7683 34.0627 18.7592 34.2163 20.7285 33.9906C21.2471 35.5646 20.6294 36.4116 21.0842 39.628L21.0908 39.628Z" fill="#D7D7D7"/>
<path d="M56.1944 66.1244C56.2042 65.4637 50.2968 70.1706 49.8387 64.9982C49.7138 63.5857 51.3039 47.8641 50.9827 47.7741C52.9601 47.8493 54.9508 47.9702 57.007 46.7824C57.2188 52.4467 56.417 54.4198 56.1944 66.1244Z" fill="#F34B43"/>
<path d="M45.2441 53.4158C45.2169 53.2197 39.6184 54.2485 38.8512 52.7019C38.6396 52.2777 39.278 47.754 38.9505 47.7099C40.9216 47.8505 42.9125 48.0041 44.8818 47.7785C45.4004 49.3525 44.7827 50.1995 45.2376 53.4158L45.2441 53.4158Z" fill="#D7D7D7"/>
<path d="M33.1936 53.659C33.1664 53.4629 27.5679 54.4917 26.8073 52.945C26.5956 52.5208 27.234 47.9972 26.9065 47.953C28.8777 48.0937 30.8686 48.2473 32.8379 48.0216C33.3564 49.5956 32.7388 50.4426 33.1936 53.659Z" fill="#D7D7D7"/>
<path d="M21.1494 53.9087C21.1222 53.7126 15.5237 54.7414 14.7565 53.1948C14.5449 52.7706 15.1833 48.2469 14.8557 48.2028C16.8269 48.3434 18.8178 48.4971 20.7871 48.2714C21.3057 49.8454 20.688 50.6924 21.1428 53.9088L21.1494 53.9087Z" fill="#D7D7D7"/>
<path d="M45.303 67.6966C45.2758 67.5005 39.6773 68.5293 38.9166 66.9826C38.705 66.5585 39.3434 62.0348 39.0159 61.9906C40.9871 62.1313 42.9779 62.2849 44.9473 62.0592C45.2132 62.8691 45.2331 62.9279 45.172 63.7786C45.0738 65.0875 45.1197 66.4022 45.303 67.6966Z" fill="#D7D7D7"/>
<path d="M33.2519 67.9397C33.2247 67.7436 27.6262 68.7724 26.859 67.2258C26.6474 66.8016 27.2858 62.278 26.9583 62.2338C28.9294 62.3744 30.9203 62.5281 32.8897 62.3024C33.4082 63.8764 32.7906 64.7234 33.2454 67.9398L33.2519 67.9397Z" fill="#D7D7D7"/>
<path d="M21.2011 68.1895C21.174 67.9934 15.5754 69.0222 14.8082 67.4755C14.5966 67.0514 15.235 62.5277 14.9075 62.4835C16.8787 62.6242 18.8695 62.7778 20.8389 62.5521C21.3574 64.1262 20.7398 64.9731 21.1946 68.1895L21.2011 68.1895Z" fill="#D7D7D7"/>
<path d="M57.1366 25.7887C55.9219 26.3639 46.7596 24.29 14.3337 23.987C12.7428 23.9753 11.4789 22.5751 11.5293 20.8804L11.7458 13.186C11.7898 11.5242 13.0794 10.2028 14.6375 10.2147C28.595 10.3414 42.5485 10.9392 56.5107 12.0014C58.017 12.1182 59.1499 13.4995 59.1057 15.109C59.0278 17.8505 60.0167 24.4202 57.1366 25.7887Z" fill="#CEEFFA"/>
<path d="M69.2195 63.0504C68.8936 58.139 68.9236 44.5971 67.966 23.4452C67.3328 9.48786 68.7261 9.28466 66.7455 5.97776C64.4415 2.1295 60.2448 2.05227 56.5392 1.98568C56.0547 1.97501 55.5768 1.97084 55.112 1.95353C54.8762 1.94162 11.0792 0.334545 10.2673 0.305879C7.64166 0.2012 5.74657 0.871374 4.40539 2.33691C0.290635 6.819 3.21648 11.9398 3.67755 51.4967C3.98888 78.2189 4.03236 81.6532 22.7415 81.5601C63.7996 81.3556 55.8107 82.2131 60.3211 82.1906C69.4662 82.1451 69.8146 72.0295 69.2129 63.0504L69.2195 63.0504ZM53.6912 79.9144C4.83946 78.1296 5.77352 88.1145 5.34678 51.4753C4.89733 12.9259 2.09342 7.32029 5.63524 3.46254C6.62483 2.37819 8.12152 1.89317 10.2102 1.97436C11.0221 2.00302 54.8846 3.60978 55.0483 3.6155C55.5263 3.63275 56.0108 3.64342 56.5083 3.64748C59.9389 3.7089 63.4874 3.76973 65.3096 6.82883C66.9997 9.64653 65.6423 9.19535 66.2971 23.5189C67.2911 45.4164 67.1893 57.6896 67.5572 63.1568C69.0088 84.9212 60.337 80.156 53.6978 79.9143L53.6912 79.9144Z" fill="black"/>
<path d="M56.8383 32.836C55.183 33.0274 53.1203 32.9134 51.2081 32.779L50.9789 32.7605C50.6383 32.736 50.3981 33.1363 50.6156 33.4296C51.1331 37.3914 47.69 40.058 56.3145 39.3282C56.6417 39.3004 56.8969 39.2795 57.0999 39.2785C57.1457 39.2913 57.1916 39.3042 57.244 39.3039C57.244 39.3039 57.2571 39.3039 57.2636 39.3038C57.4928 39.3027 57.6817 39.1186 57.6805 38.8831C57.6802 38.8176 57.6668 38.7588 57.6403 38.7001C57.2662 35.9151 57.8982 32.7129 56.8383 32.8294L56.8383 32.836ZM56.2514 38.4977C49.1843 39.0824 51.5548 37.9388 51.4677 33.6281C53.19 33.7504 55.0431 33.8393 56.5873 33.6942C56.8682 34.8769 56.4674 35.8798 56.7749 38.4558C56.631 38.4631 56.4543 38.477 56.258 38.4976L56.2514 38.4977Z" fill="black"/>
<path d="M45.2349 33.3647C45.175 33.1753 44.9911 33.0519 44.7883 33.0791C43.1396 33.2705 41.0769 33.163 39.1712 33.022L38.9354 33.0036C38.7324 32.9784 38.5172 33.1496 38.4922 33.3787C38.4796 33.4899 38.5129 33.5944 38.5722 33.6726C39.0959 37.5756 35.6073 40.2948 44.2711 39.5778C44.5983 39.55 44.8535 39.5291 45.0565 39.5281C45.3712 39.6312 45.7689 39.3152 45.5903 38.9497C45.1687 35.8248 45.7734 34.9975 45.2349 33.3647ZM39.4177 33.8778C41.14 34 42.9997 34.0889 44.5373 33.9439C44.8249 35.1396 44.4173 36.1098 44.725 38.7055C37.173 39.2075 39.5273 38.7444 39.4243 33.8777L39.4177 33.8778Z" fill="black"/>
<path d="M32.7372 33.329C31.082 33.5204 29.0128 33.4129 27.0939 33.272L26.8778 33.2535C26.5372 33.2225 26.2971 33.6293 26.5146 33.9226C26.6168 34.7202 26.1112 38.3208 26.3757 38.8493C27.2091 40.5396 31.7813 39.7906 32.9988 39.7715C33.0447 39.7909 33.1037 39.7971 33.1495 39.7969C33.3721 39.7958 33.5741 39.6116 33.5729 39.3761C33.5726 39.3107 33.5592 39.2519 33.5327 39.1931C33.1586 36.4081 33.8103 33.2255 32.7307 33.3225L32.7372 33.329ZM27.3667 34.1277C29.089 34.2499 30.942 34.3323 32.4863 34.1938C32.7738 35.3895 32.3663 36.3597 32.6739 38.9554C25.1221 39.4967 27.4693 38.9159 27.3732 34.1276L27.3667 34.1277Z" fill="black"/>
<path d="M15.0626 33.5215L14.8334 33.503C14.4732 33.4721 14.2593 33.8853 14.4702 34.1721C14.5587 34.8455 14.0867 38.6094 14.3314 39.0989C15.1581 40.7826 19.5143 40.0347 20.9544 40.021C21.2429 40.1177 21.5299 39.9004 21.5351 39.6256C21.5347 39.5602 21.5213 39.5014 21.4949 39.4426C20.4544 31.7349 23.8445 34.145 15.0692 33.5215L15.0626 33.5215ZM15.0891 38.768C14.9888 38.3629 15.334 35.4042 15.3091 34.3707C17.0249 34.493 18.8845 34.5819 20.4288 34.4368C20.7097 35.6195 20.3088 36.6224 20.6164 39.1984C19.6151 39.2623 15.5782 39.7076 15.0891 38.768Z" fill="black"/>
<path d="M57.2082 46.4151C57.0835 46.3437 56.9264 46.3445 56.7958 46.4171C55.3271 47.2684 53.8941 47.3932 52.6896 47.3992C52.1986 47.4017 51.7141 47.3845 51.2296 47.3673L51.0004 47.3553C50.791 47.3694 50.6018 47.5012 50.5701 47.7107C50.5575 47.7958 50.571 47.8743 50.604 47.9461C50.6729 48.613 50.2964 53.1484 49.9875 56.8069C49.5987 61.4994 49.3645 64.3921 49.4201 65.033C49.6283 67.387 50.9205 67.8778 51.9679 67.8726C53.1593 67.8666 54.4981 67.2254 55.3862 66.8023C55.6083 66.6965 55.876 66.5643 56.0198 66.5113C56.0657 66.5307 56.1247 66.5435 56.177 66.5432C56.4323 66.5354 56.5951 66.3645 56.6005 66.1355C56.7148 60.2406 56.9662 56.8638 57.1751 54.1478C57.3779 51.5039 57.5188 49.5929 57.4129 46.7673C57.4122 46.6234 57.3264 46.4864 57.1951 46.4151L57.2082 46.4151ZM56.35 54.08C56.1473 56.7435 55.8955 60.0419 55.7801 65.7078C55.5971 65.7742 55.3685 65.88 55.0289 66.0452C54.2126 66.4352 52.9718 67.0302 51.9636 67.0352C51.309 67.0385 50.4111 66.8271 50.2511 64.9569C50.1956 64.3422 50.5104 60.5463 50.8192 56.8747C51.2635 51.5016 51.4484 49.211 51.4302 48.2036C51.8492 48.2212 52.2683 48.2322 52.6872 48.2301C53.8394 48.2243 55.1874 48.1195 56.6046 47.4517C56.6627 49.885 56.5277 51.6716 56.3499 54.0734L56.35 54.08Z" fill="black"/>
<path d="M45.2865 47.6455C45.2267 47.4561 45.0428 47.3392 44.8399 47.3599C43.1847 47.5513 41.1089 47.4439 39.1966 47.3029L38.9805 47.2844C38.7644 47.2658 38.5623 47.4304 38.5373 47.6595C38.5247 47.7708 38.558 47.8753 38.6173 47.9535C39.1274 51.7583 35.6066 54.5824 44.3162 53.8586C44.6434 53.8308 44.8986 53.8099 45.1015 53.8089C45.1474 53.8218 45.2064 53.828 45.2522 53.8343C45.5141 53.833 45.781 53.5373 45.6355 53.2371C45.4315 51.74 45.8185 49.2849 45.28 47.6521L45.2865 47.6455ZM39.4694 48.1586C41.1851 48.2809 43.0448 48.3697 44.589 48.2246C44.8765 49.4204 44.469 50.3906 44.7766 52.9862C37.0479 53.4958 39.5717 52.8879 39.4759 48.1585L39.4694 48.1586Z" fill="black"/>
<path d="M27.1596 47.5527L26.9369 47.5342C26.7142 47.5092 26.5122 47.6868 26.4937 47.9093C26.4811 48.0206 26.5144 48.1186 26.5737 48.2033C27.0844 52.1063 23.6219 54.8254 32.2726 54.1019C32.5998 54.0741 32.855 54.0532 33.0579 54.0522C33.3727 54.1619 33.7638 53.8328 33.5918 53.4739C32.5513 45.7399 35.948 48.1697 27.1596 47.5462L27.1596 47.5527ZM27.4192 48.4084C29.135 48.5307 30.9946 48.6196 32.5389 48.4745C32.8264 49.6703 32.4188 50.6405 32.7265 53.2361C25.1876 53.7382 27.5222 53.249 27.4258 48.4084L27.4192 48.4084Z" fill="black"/>
<path d="M21.1855 48.1385C21.1257 47.9491 20.9418 47.8257 20.739 47.8529C19.0902 48.0443 17.0276 47.9368 15.1218 47.7958L14.8861 47.7774C14.6765 47.7654 14.4678 47.9234 14.4428 48.1525C14.4303 48.2638 14.4635 48.3683 14.5229 48.4465C14.9583 51.7087 12.2098 54.5093 17.8461 54.4812C18.7167 54.4769 19.5871 54.4071 20.2218 54.3516C20.549 54.3238 20.8042 54.3029 21.0071 54.3019C21.053 54.3213 21.1054 54.3211 21.1578 54.3273C21.3933 54.3 21.5824 54.1421 21.5812 53.9066C21.5809 53.8411 21.5675 53.7823 21.541 53.7236C21.1194 50.5986 21.724 49.7713 21.1855 48.1385ZM20.1521 53.5212C19.5305 53.57 18.6798 53.6462 17.8419 53.6504C13.7832 53.6706 15.4546 52.7791 15.3684 48.6582C17.0907 48.7804 18.9504 48.8693 20.488 48.7242C20.7755 49.92 20.368 50.8902 20.6757 53.4858C20.5317 53.4931 20.355 53.5071 20.1587 53.5277L20.1521 53.5212Z" fill="black"/>
<path d="M44.8992 61.6406C43.2439 61.8321 41.1812 61.718 39.269 61.5836L39.0463 61.5651C38.8105 61.5401 38.6215 61.7111 38.6031 61.9402C38.5905 62.0515 38.6237 62.1494 38.6831 62.2342C38.7716 62.901 38.2996 66.6715 38.5442 67.161C39.371 68.8447 43.7272 68.0968 45.1673 68.0831C45.5017 68.1927 45.8732 67.8572 45.7012 67.5048C45.5446 66.3149 46.0506 61.491 44.8992 61.6341L44.8992 61.6406ZM39.302 66.8366C39.2485 66.6145 39.3344 65.4758 39.4022 64.6446C39.4821 63.5975 39.5375 62.9038 39.5221 62.4394C41.2444 62.5616 43.1106 62.6505 44.6548 62.5054C44.9542 63.459 44.5009 64.4426 44.8293 67.267C44.1815 67.3095 39.8044 67.8023 39.302 66.8366Z" fill="black"/>
<path d="M32.8484 61.8904C31.1997 62.0818 29.137 61.9678 27.2313 61.8334L26.9955 61.8149C26.786 61.8029 26.5773 61.9609 26.5523 62.19C26.5397 62.3013 26.573 62.4058 26.6323 62.484C26.7208 63.1508 26.2488 66.9214 26.4935 67.4108C27.3268 69.101 31.899 68.3521 33.1165 68.3329C33.4051 68.4427 33.829 68.1266 33.6504 67.7611C33.2763 64.9696 33.8951 61.7413 32.8484 61.8904ZM27.4713 62.6892C29.1871 62.8115 31.0467 62.9003 32.5909 62.7553C32.8718 63.938 32.471 64.9409 32.7785 67.5169C25.2267 68.0582 27.5807 67.5166 27.4778 62.6891L27.4713 62.6892Z" fill="black"/>
<path d="M21.2379 62.4192C21.178 62.2298 21.0007 62.1129 20.7913 62.1336C19.136 62.325 17.0668 62.211 15.148 62.0766L14.9319 62.0581C14.7288 62.0329 14.5136 62.2041 14.4886 62.4332C14.4761 62.5445 14.5093 62.649 14.5686 62.7272C15.072 66.4863 11.5317 69.3562 20.2676 68.6323C20.5947 68.6045 20.8499 68.5836 21.0529 68.5826C21.3414 68.6793 21.635 68.4816 21.6335 68.1872C21.6332 68.1218 21.6198 68.063 21.5933 68.0042C21.1717 64.8793 21.7764 64.052 21.2379 62.4192ZM15.4207 62.9323C17.143 63.0545 18.9961 63.1369 20.5403 62.9984C20.8278 64.1941 20.4203 65.1643 20.728 67.76C13.2152 68.2553 15.5233 67.7074 15.4272 62.9322L15.4207 62.9323Z" fill="black"/>
<path d="M59.9372 15.1311C59.9988 13.0635 58.517 11.3177 56.572 11.1703C42.6752 10.1143 28.5712 9.51075 14.594 9.3841C12.5908 9.39408 10.9757 11.0572 10.9143 13.164L10.6978 20.8584C10.6364 22.9653 12.2233 24.8022 14.3313 24.8178C47.641 25.123 55.8808 27.3062 57.5005 26.5393C60.9356 24.9063 59.8612 18.252 59.9437 15.131L59.9372 15.1311ZM56.812 25.0184C56.812 25.0184 55.3063 25.0259 52.5033 24.7847C16.9541 21.7562 12.251 25.1095 12.3673 20.9025C12.9323 16.0979 11.4471 11.0614 14.6351 11.0456C20.5276 11.1994 34.0783 11.1254 56.4494 12.8261C58.5713 12.9921 58.2495 15.3881 58.3174 17.1671C58.4231 19.9535 58.5883 24.1722 56.8119 25.0119L56.812 25.0184Z" fill="black"/>
</g>
<defs>
<clipPath id="clip0_631_14294">
<rect width="66.8707" height="82.1461" fill="white" transform="matrix(0.999988 -0.00498025 0.00503605 0.999987 2.18945 0.333008)"/>
</clipPath>
</defs>
</svg>
