<svg width="1920" height="1081" viewBox="0 0 1920 1081" fill="none" xmlns="http://www.w3.org/2000/svg">
<g opacity="0.5">
<path d="M1920 58.536V0H0V82.3608C635.546 7.47361 1282.12 -0.5184 1920 58.536Z" fill="#DCFEFF"/>
<path d="M1920 134.438V58.5359C1282.12 -0.518471 635.546 7.47354 0 82.3607V96.2495C639.155 50.9759 1284.07 63.8063 1920 134.438Z" fill="#DCFEFF"/>
<path d="M0 258.638V340.049C343.936 378.454 680.013 466.366 989.389 598.774C1284.48 501.185 1603.2 454.594 1920 462.802V291.924C1280.03 226.001 633.805 179.885 0 258.638Z" fill="#CBF7F7"/>
<path d="M1920 155.001V134.438C1284.07 63.8063 639.155 50.9543 0 96.2495V194.313C634.522 112.298 1281.51 99.0359 1920 155.001Z" fill="#CBF7F7"/>
<path d="M1920 291.924V155.001C1281.51 99.0359 634.522 112.277 0 194.313V258.638C633.805 179.885 1280.03 226.001 1920 291.924Z" fill="#DCFEFF"/>
<path d="M287.872 473.407C333.568 494.77 375.475 523.346 425.702 535.464C486.4 550.13 550.963 538.942 614.016 536.501C731.059 531.986 849.382 559.418 947.814 612.943C961.613 608.105 975.463 603.353 989.389 598.752C680.013 466.344 343.936 378.454 0 340.049V433.188C97.6128 418.738 201.114 432.864 287.872 473.429V473.407Z" fill="#9DCB80"/>
<path d="M614.016 536.522C550.963 538.963 486.374 550.13 425.702 535.486C375.475 523.346 333.568 494.791 287.872 473.429C201.114 432.886 97.6128 418.738 0 433.188V594.346C288.896 530.323 601.651 547.106 880.333 637.61C902.682 629.078 925.184 620.892 947.84 612.965C849.408 559.44 731.085 532.008 614.042 536.522H614.016Z" fill="#8CBB74"/>
<path d="M0 480.319C24.6016 479.995 52.7104 491.162 65.8176 508.745C77.2864 503.604 91.52 503.064 103.501 507.341C115.482 511.596 124.954 520.582 128.589 531.101C142.054 521.251 164.48 528.401 170.598 542.527C192.051 524.146 227.43 518.551 255.334 529.135C283.213 539.719 301.722 565.79 299.648 591.538L0 617.76V480.319Z" fill="#325677"/>
<path d="M989.388 598.774C952.652 610.934 916.275 623.873 880.307 637.589C939.187 656.705 996.556 679.147 1051.85 704.786C1063.07 709.992 1074.2 715.306 1085.23 720.77C1359.51 672.754 1639.86 649.318 1920 651.434V462.802C1603.2 454.594 1284.48 501.185 989.388 598.774Z" fill="#5A8B74"/>
<path d="M556.442 203.753H121.088C144.486 185.112 179.609 180.079 208.819 191.441C210.662 181.678 218.342 172.541 228.633 167.832C238.925 163.145 251.827 162.734 262.502 166.774C271.027 147.398 296.09 134.222 320.461 136.296C344.832 138.37 366.285 155.477 370.074 175.889C379.75 168.739 393.702 167.119 405.76 170.899C417.818 174.658 427.034 184.291 428.877 195.026C466.79 178.697 521.19 183.643 556.442 203.774V203.753Z" fill="white"/>
<path d="M1857.77 137.765H1422.41C1445.81 119.124 1480.93 114.091 1510.14 125.453C1511.99 115.69 1519.67 106.553 1529.96 101.844C1540.25 97.1567 1553.15 96.7463 1563.83 100.786C1572.35 81.4103 1597.41 68.2343 1621.79 70.3079C1646.16 72.3815 1667.61 89.4887 1671.4 109.901C1681.08 102.751 1695.03 101.131 1707.09 104.911C1719.14 108.67 1728.36 118.303 1730.2 129.038C1768.12 112.709 1822.52 117.655 1857.77 137.786V137.765Z" fill="white"/>
<path d="M1485.93 265.723H1230.57L1278.41 256.37C1280.38 250.085 1285.22 243.994 1292.21 241.272C1299.2 238.55 1307.62 238.55 1314.56 241.337C1322.8 225.526 1342.72 215.914 1363.15 217.339C1383.55 218.743 1402.06 231.941 1407.16 248.681C1412.99 242.784 1424.41 240.386 1433.19 242.417C1441.97 244.447 1449.01 251.035 1450.47 258.617L1485.93 265.788V265.723Z" fill="white"/>
<path d="M655.053 790.409C532.864 761.421 406.298 745.632 279.398 743.299C349.875 753.084 419.712 769.219 487.117 788.27C531.072 800.69 574.566 814.32 617.984 828.23C757.094 788.313 898.867 755.049 1042.38 728.525C911.309 738.331 781.542 758.981 655.053 790.43V790.409Z" fill="#6A9F67"/>
<path d="M1042.38 728.525C1056.67 725.89 1070.95 723.298 1085.26 720.792C1074.23 715.327 1063.09 709.992 1051.88 704.808C996.582 679.169 939.238 656.748 880.333 637.61C601.651 547.106 288.896 530.323 0 594.346V746.107C91.4432 728.525 185.984 730.317 279.398 743.299C406.298 745.632 532.864 761.421 655.053 790.409C781.542 758.959 911.309 738.309 1042.38 728.503V728.525Z" fill="#8EC26F"/>
<path d="M0.844591 675.54C143.053 618.3 299.341 584.28 456.499 578.88C302.592 570.348 146.79 586.699 0.0253906 626.681L0.870191 675.54H0.844591Z" fill="#AAD780"/>
<path d="M1042.84 732.434C1041.48 725.846 1035.47 720.101 1027.92 718.135C1020.34 716.17 1011.56 718.07 1006.05 722.887C1009.33 717.638 1012.68 712.001 1012.15 706.082C1011.61 700.164 1005.39 694.202 998.477 695.326C994.662 695.93 991.718 698.436 989.286 700.963C983.245 707.249 978.79 714.614 976.307 722.434C978.816 718.135 973.67 712.8 967.987 712.541C962.33 712.282 957.21 715.565 953.856 719.431C946.278 728.136 945.306 740.556 951.424 750.038C980.89 742.694 1012.38 735.826 1042.84 732.456V732.434Z" fill="#446B71"/>
<path d="M1333.27 937.958C1541.48 926.575 1745.72 868.385 1920 771.682V651.434C1639.89 649.339 1359.54 672.754 1085.24 720.77C945.537 745.222 807.425 776.088 671.693 813.197C872.244 906.487 1104.69 950.465 1333.27 937.958Z" fill="#AAD780"/>
<path d="M1333.27 937.958C1104.72 950.443 872.269 906.487 671.693 813.197C653.748 818.1 635.828 823.111 617.959 828.23C736.922 866.376 855.015 906.703 978.996 930.074C1295.97 989.842 1634.46 932.537 1919.97 801.058V771.703C1745.69 868.406 1541.45 926.597 1333.25 937.98L1333.27 937.958Z" fill="#6A9F67"/>
<path d="M1491.01 696.818C1481.32 697.853 1471.26 699.19 1463.18 704.387C1455.1 709.584 1449.75 719.783 1453.52 728.323C1457.4 737.121 1468.88 740.808 1473.83 749.11C1479.61 758.813 1474.14 771.73 1464.86 778.544C1455.56 785.337 1443.53 787.515 1432 789.498C1405.56 794.027 1379.13 798.577 1352.69 803.105C1342.79 804.809 1332.58 806.62 1324.25 811.968C1315.93 817.315 1309.96 827.213 1312.66 836.421C1315.97 847.763 1329.84 852.658 1341.95 855.16C1414.46 870.082 1489.76 859.623 1563.13 849.143C1629.41 839.655 1697.68 829.52 1755.05 796.571C1774.68 785.294 1797.98 765.326 1793.42 741.067C1789.31 719.158 1762.24 705.034 1741.36 699.988C1724.64 695.934 1707.59 699.255 1690.64 699.276C1660.55 699.341 1630.5 693.972 1600.39 692.937C1563.9 691.708 1527.32 693.001 1491.03 696.861L1491.01 696.818Z" fill="#D2F4A1"/>
<path d="M1612.82 715.068C1610.02 681.955 1601.96 648.994 1586.75 620.201C1579.21 619.445 1566.4 619.942 1558.84 619.186C1565.8 647.158 1568.65 676.253 1567.31 705.154C1580.43 714.528 1597.22 718.135 1612.82 715.09V715.068Z" fill="#635A3E"/>
<path d="M1567.31 705.154C1566.85 714.787 1565.95 724.399 1564.57 733.925C1569.94 741.938 1578.89 747.878 1588.16 748.915C1597.45 749.952 1607.09 746.582 1613.95 739.93C1613.89 731.678 1613.5 723.384 1612.8 715.068C1597.2 718.114 1580.41 714.528 1567.29 705.132L1567.31 705.154Z" fill="#7E7656"/>
<path d="M1684.49 633.161C1669.29 641.974 1649.76 641.736 1634.14 633.766C1628.52 646.553 1617.64 656.705 1604.86 661.068C1592.09 665.431 1578.06 661.867 1566.34 654.999C1554.64 666.814 1537.66 672.603 1521.57 670.27C1505.48 667.959 1491.59 657.331 1483.37 642.643C1495.96 634.716 1505.5 622.08 1511.56 608.04C1498.33 621.54 1480.01 630.094 1461.6 629.014C1443.16 627.934 1425.09 616.378 1417.61 598.687C1410.13 580.997 1411.55 553.543 1426.59 542.29C1417.75 530.496 1413.55 515.031 1415.12 500.127C1416.35 488.311 1421.24 476.971 1428.74 468.051C1417.55 473.667 1408.15 483.322 1402.98 495.159C1395.54 512.223 1397.07 533.239 1406.9 548.921C1389.08 566.806 1383.88 597.067 1394.6 620.352C1405.33 643.637 1431.17 658.174 1455.6 654.675C1465.9 674.957 1485.12 689.991 1506.61 694.57C1528.08 699.171 1551.38 693.209 1568.44 678.802C1583.01 682.15 1602.58 685.023 1617.1 681.523C1631.65 678.024 1645.37 665.583 1645.7 649.944C1662.65 658.087 1684.2 654.178 1697.55 640.527C1708.31 629.532 1713.17 612.792 1710.82 597.283C1707.09 612.274 1697.45 625.623 1684.49 633.139V633.161Z" fill="#6A9F67"/>
<path d="M1707.32 522.266C1715.07 505.613 1722.13 487.361 1719.39 469.044C1716.65 450.727 1700.34 433.512 1683.01 437.141C1684.95 412.15 1670.38 386.662 1648.42 376.682C1626.48 366.703 1598.77 372.924 1582.68 391.478C1578.21 379.361 1566.44 370.591 1554.04 370.159C1541.64 369.727 1527.69 374.026 1522.43 385.819C1506.69 375.473 1484.57 377.33 1470.58 390.161C1456.59 402.991 1451.91 425.736 1459.6 443.47C1449.81 440.942 1439.96 453.643 1444.33 463.169C1438.91 463.925 1433.64 465.61 1428.71 468.094C1421.24 477.014 1416.35 488.354 1415.1 500.17C1413.53 515.074 1417.73 530.539 1426.57 542.333C1411.55 553.586 1410.11 581.04 1417.59 598.73C1425.07 616.421 1443.16 627.977 1461.58 629.057C1480.01 630.137 1498.31 621.583 1511.54 608.083C1505.46 622.102 1495.94 634.759 1483.35 642.686C1491.57 657.374 1505.46 667.98 1521.55 670.313C1537.64 672.624 1554.62 666.835 1566.32 655.042C1578.04 661.91 1592.07 665.474 1604.84 661.111C1617.62 656.748 1628.5 646.618 1634.12 633.809C1649.74 641.779 1669.27 642.017 1684.47 633.204C1697.41 625.687 1707.07 612.338 1710.8 597.348C1710.25 593.633 1709.26 589.961 1707.83 586.483C1725.18 573.847 1723.06 537.062 1707.28 522.31L1707.32 522.266Z" fill="#8FC36F"/>
<path d="M1633.85 469.325C1631.54 464.573 1627.61 460.166 1622.71 457.337C1617.8 454.507 1612.16 453.406 1607.09 453.902C1603.71 454.205 1600.6 455.242 1598.02 456.689C1596 450.166 1592.13 443.794 1586.67 439.085C1580.24 433.512 1572.09 430.596 1564.59 430.423C1557.05 430.186 1550.18 432.713 1545.63 436.45C1551.44 436.774 1557.4 437.832 1563.12 439.884C1568.85 441.936 1574.31 444.96 1578.9 448.934C1583.48 452.909 1587.35 457.963 1590.36 463.471C1593.37 468.979 1595.49 474.919 1596.89 480.838C1599.55 475.438 1600.6 467.899 1598.95 460.166C1598.89 459.886 1598.81 459.605 1598.74 459.302C1605.5 459.778 1612.57 461.462 1618.69 465.005C1626.1 469.26 1632.12 476.194 1636.36 483.235C1636.94 479.11 1636.22 474.034 1633.87 469.282L1633.85 469.325Z" fill="#6A9F67"/>
<path d="M1481.19 469.303C1475.67 468.677 1469.34 470.21 1464.32 474.142C1459.29 478.094 1456.12 484.013 1455.13 489.758C1454.1 495.526 1455.27 501.098 1457.64 504.792C1458.22 500.364 1459.45 495.958 1461.49 491.94C1463.51 487.922 1466.31 484.294 1469.65 481.637C1473.01 479.002 1477.11 477.23 1481.37 476.323C1485.64 475.416 1490.03 475.373 1494.23 476.042C1491.51 472.63 1486.75 469.886 1481.19 469.303Z" fill="#6A9F67"/>
<path d="M696.602 1016.78C903.552 1047.15 1113.5 1063.07 1323.55 1064.36C1529.14 1065.61 1744.95 1050.06 1920 961.027V801.058C1634.48 932.537 1296 989.863 979.021 930.074C855.014 906.682 736.922 866.376 617.984 828.23C574.592 814.32 531.072 800.669 487.117 788.27C330.368 743.99 160.435 715.284 0 746.107V952.754C230.4 931.046 465.766 982.908 696.602 1016.76V1016.78Z" fill="#CAF1A0"/>
<path d="M1323.55 1064.36C1113.5 1063.07 903.552 1047.15 696.602 1016.78C465.766 982.908 230.4 931.068 0 952.776V1080.02H1920V961.049C1744.95 1050.08 1529.14 1065.64 1323.55 1064.38V1064.36Z" fill="#AAD780"/>
<path d="M1413 1008.44C1413 1022.85 1398.44 1022.63 1380.5 1022.63C1362.56 1022.63 1348 1022.87 1348 1008.44C1348 994.02 1362.56 982.367 1380.5 982.367C1398.44 982.367 1413 994.041 1413 1008.44Z" fill="#C7CBE0"/>
<path d="M324.378 879.573C331.848 874.972 340.509 872.445 349.235 872.164C342.999 858.967 326.463 849.506 306.948 849.506C282.111 849.506 262 864.82 262 883.72C262 902.62 280.813 902.296 304.5 902.318C308.735 892.987 315.716 884.93 324.378 879.595V879.573Z" fill="#C7CBE0"/>
<path d="M324.377 879.573C315.716 884.908 308.735 892.965 304.5 902.296C305.309 902.296 306.117 902.296 306.947 902.296C331.784 902.296 351.895 902.599 351.895 883.699C351.895 879.638 350.916 875.772 349.213 872.164C340.488 872.467 331.826 874.972 324.356 879.573H324.377Z" fill="#B2B7CE"/>
<path d="M386.266 901.735C386.266 915.991 371.071 915.775 352.342 915.775C333.614 915.775 318.419 916.012 318.419 901.735C318.419 887.457 333.614 875.923 352.342 875.923C371.071 875.923 386.266 887.479 386.266 901.735Z" fill="#E2E4F3"/>
</g>
</svg>
