<svg width="19" height="19" viewBox="0 0 19 19" fill="none" xmlns="http://www.w3.org/2000/svg">
<path d="M17.9171 8.18511C17.2823 7.46 16.7682 7.15872 15.6842 7.15872H13.6189C13.0825 7.15872 12.6801 6.59957 12.7852 5.99957C12.7852 5.99957 13.5831 3.40809 13.5831 2.48638C13.5831 1.56468 13.1048 0.5 11.9537 0.5C11.12 0.5 10.8295 1.0617 10.6104 1.53149L8.13612 7.04383C8.00648 7.29404 7.86343 7.47277 7.08113 7.47277H6.5V18.5H14.0793C14.9689 18.5 15.7847 17.9357 16.2005 17.037L18.268 11.2362C18.6658 10.3757 18.5541 8.91277 17.9171 8.18511Z" stroke="#484E66" stroke-linecap="round" stroke-linejoin="round"/>
<path d="M6.5 6.5H0.5V18.5H6.5V6.5Z" fill="#BFD1F7" stroke="#484E66" stroke-linecap="round" stroke-linejoin="round"/>
</svg>
