<?xml version="1.0" encoding="UTF-8"?>
<svg id="Layer_1" data-name="Layer 1" xmlns="http://www.w3.org/2000/svg" xmlns:xlink="http://www.w3.org/1999/xlink" viewBox="0 0 334.93 221.18">
  <defs>
    <style>
      .cls-1 {
        fill: #73b8d6;
        font-family: 'Ownglyph_smartiam-Rg', 'Ownglyph smartiam';
        font-size: 88.28px;
      }

      .cls-1, .cls-2 {
        isolation: isolate;
      }

      .cls-3 {
        fill: #fff;
        stroke: url(#linear-gradient);
        stroke-miterlimit: 10;
        stroke-width: 3px;
      }
    </style>
    <linearGradient id="linear-gradient" x1="0" y1="112.45" x2="334.93" y2="112.45" gradientTransform="translate(0 223.04) scale(1 -1)" gradientUnits="userSpaceOnUse">
      <stop offset="0" stop-color="#8fd7f2"/>
      <stop offset=".04" stop-color="#69cdef"/>
      <stop offset=".67" stop-color="#89d6f1"/>
      <stop offset="1" stop-color="#98daf3"/>
    </linearGradient>
  </defs>
  <path class="cls-3" d="M183.32,24.16C173.48,5.58,147.77-2.84,127.46,3.69c-16.6,5.34-27.47,20-25.78,35.93-14.11,2.9-38.71,9.74-60.16,26.95-23.18,18.59-54.44,58.73-32.66,87.07,16.47,21.43,53.82,23.81,61.88,24.18.07,1.15,1.96,23.96,26.64,34.55,18.23,7.82,41.18,5.67,57.58-5.53,6.28,3.33,32.99,16.69,67.9,11.75,23.29-3.3,38.83-13.12,45.55-17.97,15.6,7.09,26.17,6.15,31.8,4.84,27.57-6.43,39.4-45.76,30.08-74.63-8.95-27.75-36.48-42.88-46.16-47.68,12.19-18.54,12.63-40.06-.26-54.59-18.74-21.13-64.24-25.35-99.78-2.99l-.77-1.41Z"/>
  <g class="cls-2">
    <text class="cls-1" transform="translate(127.36 143.32)"><tspan x="0" y="0">욕실</tspan></text>
  </g>
</svg>