<?xml version="1.0" encoding="UTF-8"?>
<svg id="Layer_1" data-name="Layer 1" xmlns="http://www.w3.org/2000/svg" xmlns:xlink="http://www.w3.org/1999/xlink" viewBox="0 0 334.93 277.17">
  <defs>
    <style>
      .cls-1 {
        fill: #73b8d6;
      }

      .cls-2 {
        stroke: url(#linear-gradient);
      }

      .cls-2, .cls-3, .cls-4 {
        fill: #fff;
        stroke-miterlimit: 10;
        stroke-width: 3px;
      }

      .cls-5 {
        isolation: isolate;
      }

      .cls-3 {
        stroke: url(#linear-gradient-3);
      }

      .cls-4 {
        stroke: url(#linear-gradient-2);
      }
    </style>
    <linearGradient id="linear-gradient" x1="0" y1="-687.54" x2="334.93" y2="-687.54" gradientTransform="translate(0 -576.96) scale(1 -1)" gradientUnits="userSpaceOnUse">
      <stop offset="0" stop-color="#8fd7f2"/>
      <stop offset=".04" stop-color="#69cdef"/>
      <stop offset=".67" stop-color="#89d6f1"/>
      <stop offset="1" stop-color="#98daf3"/>
    </linearGradient>
    <linearGradient id="linear-gradient-2" x1="67.71" y1="-800.6" x2="102.32" y2="-800.6" gradientTransform="translate(-401.95 -415.08) rotate(-29.87) scale(1 -1)" xlink:href="#linear-gradient"/>
    <linearGradient id="linear-gradient-3" x1="-693.03" y1="1639.24" x2="-680.1" y2="1639.24" gradientTransform="translate(-1630.84 846.28) rotate(93.83) scale(1 -1)" xlink:href="#linear-gradient"/>
  </defs>
  <path class="cls-2" d="M183.32,24.16C173.48,5.58,147.77-2.84,127.46,3.69c-16.6,5.34-27.47,20-25.78,35.93-14.11,2.9-38.71,9.74-60.16,26.95-23.18,18.59-54.44,58.73-32.66,87.07,16.47,21.43,53.82,23.81,61.88,24.18.07,1.15,1.96,23.96,26.64,34.55,18.23,7.82,41.18,5.67,57.58-5.53,6.28,3.33,32.99,16.69,67.9,11.75,23.29-3.3,38.83-13.12,45.55-17.97,15.6,7.09,26.17,6.15,31.8,4.84,27.57-6.43,39.4-45.76,30.08-74.63-8.95-27.75-36.48-42.88-46.16-47.68,12.19-18.54,12.63-40.06-.26-54.59-18.74-21.13-64.24-25.35-99.78-2.99l-.77-1.41h0Z"/>
  <path class="cls-4" d="M56.01,241.99c2.05,6.87,5.09,8.64,11.36,9.75s13.89-3.73,15.92-7.81c.9-1.82,3.49-8.2,1.33-13.69-.65-1.66-1.32-3.45-2.59-4.74-2.69-2.76-6.6-4.25-8.46-4.31-5.34-.18-7.61,1.19-10.84,3.93-3.05,2.6-8.75,10.07-6.72,16.88h0Z"/>
  <path class="cls-3" d="M51.72,265.95c-2.16-.66-3.15-.18-4.53,1.27s-1.44,4.28-.73,5.52c.32.55,1.53,2.34,3.35,2.74.54.13,1.13.25,1.69.15,1.19-.22,2.26-.99,2.6-1.46.98-1.37,1.01-2.2.86-3.52-.14-1.25-1.11-4.03-3.24-4.69h0Z"/>
  <g class="cls-5">
    <g class="cls-5">
      <g class="cls-5">
        <path class="cls-1" d="M146.36,84.54c1.03,1,1.78,2.86,2.25,5.56.18.77.32,1.22.44,1.37s.41.25.88.31c1.06.06,1.79.16,2.21.31.41.15.88.49,1.41,1.02,1.65,1.71,2.3,3.33,1.94,4.86-.35,1.53-1.65,2.88-3.88,4.06-.06,0-.12.03-.18.09-1.06.53-1.77.91-2.12,1.15-.35.24-.49.63-.4,1.19.09.56.37,1.08.84,1.54.47.47,1.38,1.41,2.74,2.83.12.06.21.12.26.18,2.24,2.24,3.52,3.88,3.84,4.94.32,1.06-.07,2.24-1.19,3.53s-2.46,1.75-4.02,1.37-3.84-1.78-6.84-4.19c-1-.76-1.63-1.12-1.9-1.06-.26.06-.87.71-1.81,1.94-1.18,1.53-2.1,2.55-2.78,3.05s-1.49.78-2.43.84c-.88,0-1.96-.51-3.22-1.54-1.27-1.03-1.99-1.96-2.16-2.78-.18-1,.21-2.32,1.15-3.97.94-1.65,2.27-3.29,3.97-4.94,2.18-2.18,3.3-3.44,3.35-3.8,0-.12-.77-.15-2.29-.09-4,.18-6-1.38-6-4.68,0-1.65.62-2.96,1.85-3.93,1.24-.97,2.88-1.46,4.94-1.46h1.24v-2.03c0-3.88,1.15-6.06,3.44-6.53,1.94-.41,3.43-.12,4.46.88v-.02ZM165.78,124.18c1.21.35,2.07,1.09,2.6,2.21.35.59.59,2.37.71,5.34.12,2.97.12,6.14,0,9.49-.18,2.94-.38,4.87-.62,5.78-.24.91-.79,1.84-1.68,2.78-1.24,1.12-2.72,1.81-4.46,2.07-1.74.26-6.17.43-13.29.49h-2.56c-5.89.06-9.31-.37-10.28-1.28s-1.46-4.08-1.46-9.49c.06-1,.09-1.79.09-2.38s-.03-1.44-.09-2.56v-3.27c0-.65.06-1.49.18-2.52s.18-1.72.18-2.07.19-.84.57-1.46.65-1,.79-1.15c.15-.15.59-.38,1.32-.71.74-.32,1.31-.5,1.72-.53s1.22-.12,2.43-.27c1.21-.15,2.21-.22,3-.22s2.07-.03,3.84-.09c1.29-.06,2.3-.09,3-.09,5.06-.18,7.86-.29,8.39-.35,2.53-.18,4.4-.09,5.61.26v.02ZM151.97,133.89c-.35,0-.79.03-1.32.09-3.3.18-5.21.41-5.74.71-.53.29-.74,1.24-.62,2.83v.71c0,.06.03.18.09.35.06,2.18.46,3.43,1.19,3.75.74.32,3.19.34,7.37.04h.71c2.41-.18,3.93-.35,4.55-.53.62-.18.96-.56,1.02-1.15.18-.88.29-2.18.35-3.88.06-1.71,0-2.68-.13-2.91-.15-.23-.68-.41-1.59-.53s-1.49-.06-1.72.18c-.06.06-1.44.18-4.15.35h-.01ZM168.92,84.98c1.06.47,1.77,1.27,2.12,2.38.41,1.12.66,6.08.75,14.88.09,8.8-.04,13.99-.4,15.58-.41,1.71-1.49,2.84-3.22,3.4-1.74.56-3.16.22-4.28-1.02-.83-1-1.35-2.26-1.59-3.8-.24-1.53-.35-4.83-.35-9.89,0-4.59.03-8.11.09-10.55s.23-4.49.53-6.14c.29-1.65.68-2.77,1.15-3.35.47-.59,1.15-1.09,2.03-1.5,1.06-.47,2.12-.47,3.18,0h0Z"/>
        <path class="cls-1" d="M196.37,85.16c.94.88,1.46,1.97,1.54,3.27.09,1.29-.22,3.88-.93,7.77-.06.47.04.9.31,1.28s1.49,1.75,3.66,4.1c.29.35.68.78,1.15,1.28s.85.91,1.15,1.24c.29.32.5.54.62.66,1.12,1.24,1.73,2.46,1.85,3.66.12,1.21-.26,2.22-1.15,3.05-1.94,1.83-4.36,1.71-7.24-.35-.77-.53-2-1.59-3.71-3.18-.88-.82-1.38-1.21-1.5-1.15-.12,0-.57.6-1.37,1.81-.79,1.21-1.19,1.87-1.19,1.99,0,.06-.26.41-.79,1.06-1.18,1.29-2.58,1.94-4.19,1.94s-2.87-.68-3.75-2.03c-.35-.41-.56-1.16-.62-2.25s.03-1.9.26-2.43c.06-.06.19-.31.4-.75.21-.44.37-.78.49-1.02.35-.71.97-1.88,1.85-3.53,1.94-3.47,3.21-6,3.8-7.59.35-.88.76-2.24,1.24-4.06.47-1.71.96-2.94,1.46-3.71.5-.76,1.22-1.41,2.16-1.94,1.35-.82,2.85-.53,4.5.88h0ZM212.08,117.91c1.41.29,2.41.68,3,1.15,1,.88,1.65,1.9,1.94,3.05.29,1.15.41,3.25.35,6.31,0,3.36-.12,5.56-.35,6.62-.24,1.06-.83,2.03-1.77,2.91-.47.47-1.03.9-1.68,1.28s-1.15.57-1.5.57c-.24,0-.44.09-.62.26-.24.24-3.09.47-8.56.71-4.53.18-7.18.35-7.95.53s-1.06.74-.88,1.68c.06.59.54.94,1.46,1.06.91.12,3.78.18,8.61.18,5.65,0,9.24.13,10.77.4,1.53.26,2.56.9,3.09,1.9,1,1.82.56,3.62-1.32,5.38-1.12,1-2.09,1.57-2.91,1.72s-3.38.31-7.68.49c-.71,0-1.68.03-2.91.09-8.89.29-14.08.04-15.58-.75s-2.28-3.69-2.34-8.7v-1.68c0-1.35,0-2.34-.04-2.96-.03-.62,0-1.38.04-2.29.06-.91.1-1.54.13-1.9.03-.35.15-.82.35-1.41.21-.59.37-.96.49-1.1.12-.15.41-.4.88-.75s.85-.56,1.15-.62c.29-.06.82-.18,1.59-.35.76-.18,1.41-.29,1.94-.35s1.35-.18,2.47-.35c2.06-.23,5.38-.47,9.98-.71,1.77-.06,2.85-.18,3.27-.35.41-.18.65-.59.71-1.24.06-.53.06-.82,0-.88-.12-.06-2.5.03-7.15.26-4.65.24-8.47.44-11.48.62-2.29.18-3.92-.63-4.86-2.43-.94-1.79-.65-3.49.88-5.08.59-.65,1.37-1.09,2.34-1.32s2.9-.47,5.78-.71c.29,0,.84-.04,1.63-.13.79-.09,1.5-.15,2.12-.18s1.13-.07,1.54-.13c1.65-.18,3.77-.32,6.36-.44,2.65-.18,4.03-.29,4.15-.35.29-.29,1.15-.29,2.56,0h0ZM216.32,81.14c.82.15,1.41.34,1.77.57.82.59,1.34,1.62,1.54,3.09.21,1.47.37,5.62.49,12.45.29,5.06.35,8.86.18,11.39-.18,2.53-.46,4.12-.84,4.77-.38.65-1.19,1.27-2.43,1.85-2.71,1.24-4.62.65-5.74-1.77-.59-1.18-.91-6.21-.97-15.1s.18-13.68.71-14.39c1-1.41,2.21-2.38,3.62-2.91.29-.12.85-.1,1.68.04h0Z"/>
      </g>
    </g>
  </g>
</svg>