<svg width="1450" height="1450" viewBox="0 0 1450 1450" fill="none" xmlns="http://www.w3.org/2000/svg">
<g clip-path="url(#clip0_1850_5361)">
<path d="M725 1450C1125.41 1450 1450 1125.41 1450 725C1450 324.594 1125.41 0 725 0C324.594 0 0 324.594 0 725C0 1125.41 324.594 1450 725 1450Z" fill="#F6F8F2"/>
<path d="M948.62 402.96C960.21 402.96 972.35 404.06 984.88 406.33C1203.13 445.88 1244.32 798.27 720.04 1159.04C195.84 798.27 253.241 449.24 471.411 409.7C484.171 407.43 496.31 406.33 507.9 406.33C663.811 406.33 719.961 599.99 719.961 599.99C719.961 599.99 790.28 402.96 948.54 402.96" stroke="#719246" stroke-width="65.22" stroke-linecap="round" stroke-linejoin="round"/>
</g>
<defs>
<clipPath id="clip0_1850_5361">
<rect width="1450" height="1450" fill="white"/>
</clipPath>
</defs>
</svg>
