<svg width="1450" height="1450" viewBox="0 0 1450 1450" fill="none" xmlns="http://www.w3.org/2000/svg">
<g clip-path="url(#clip0_1850_5330)">
<path d="M725 1450C1125.41 1450 1450 1125.41 1450 725C1450 324.594 1125.41 0 725 0C324.594 0 0 324.594 0 725C0 1125.41 324.594 1450 725 1450Z" fill="#FFF7F3"/>
<path d="M250.779 351.56H400.809L524.079 867.69" stroke="#FF8800" stroke-width="60" stroke-linecap="round" stroke-linejoin="round"/>
<path d="M896.609 505.359H1075.89C1075.89 505.359 1119.56 505.359 1112.73 557.469C1108.18 592.619 1041.51 843.509 1041.51 843.509C1041.51 843.509 1031.31 867.679 990.629 867.679H473.199" stroke="#FF8800" stroke-width="60" stroke-linecap="round" stroke-linejoin="round"/>
<path d="M473.27 982.12H1007.92" stroke="#FF8800" stroke-width="60" stroke-linecap="round" stroke-linejoin="round"/>
<path d="M473.27 982.12C441.69 982.12 416.09 956.52 416.09 924.94C416.09 893.36 441.69 867.76 473.27 867.76" stroke="#FF8800" stroke-width="60" stroke-linecap="round" stroke-linejoin="round"/>
<path d="M682.369 505.359H437.529" stroke="#FF8800" stroke-width="60" stroke-linecap="round" stroke-linejoin="round"/>
<path d="M579.439 1201.75C618.916 1201.75 650.919 1169.75 650.919 1130.27C650.919 1090.79 618.916 1058.79 579.439 1058.79C539.962 1058.79 507.959 1090.79 507.959 1130.27C507.959 1169.75 539.962 1201.75 579.439 1201.75Z" stroke="#FF8800" stroke-width="60" stroke-linecap="round" stroke-linejoin="round"/>
<path d="M906.55 1201.75C946.028 1201.75 978.03 1169.75 978.03 1130.27C978.03 1090.79 946.028 1058.79 906.55 1058.79C867.073 1058.79 835.07 1090.79 835.07 1130.27C835.07 1169.75 867.073 1201.75 906.55 1201.75Z" stroke="#FF8800" stroke-width="60" stroke-linecap="round" stroke-linejoin="round"/>
<path d="M783.479 436.75V676" stroke="#FF8800" stroke-width="60" stroke-linecap="round" stroke-linejoin="round"/>
<path d="M707.84 647.409L784.13 724.989L859.11 647.409" stroke="#FF8800" stroke-width="60" stroke-linecap="round" stroke-linejoin="round"/>
</g>
<defs>
<clipPath id="clip0_1850_5330">
<rect width="1450" height="1450" fill="white"/>
</clipPath>
</defs>
</svg>
