<svg width="631" height="1516" viewBox="0 0 631 1516" fill="none" xmlns="http://www.w3.org/2000/svg">
<rect width="632" height="1516" fill="#A3C17E"/>
<path d="M248 1524.16L-6.80705 205C-3.30908 633.618 -11.3268 1487.24 -6.2804 1517.65C-2.63015 1539.66 157.539 1525.9 248 1524.16Z" fill="#FBEDDC"/>
<path d="M29.4353 1055.19C24.468 1055.19 24.468 1055.31 19.5008 1055.31C14.5335 1055.31 14.5335 1055.46 9.56623 1055.46C4.59898 1055.46 4.59905 1053.1 -0.372173 1053.1C-5.33943 1053.1 -5.33945 1053.61 -10.3107 1053.61C-12.2968 1053.61 -15.0718 1053.49 -15.492 1051.42C-16.939 1044.23 -15.7972 1043.59 -17.2442 1036.4C-17.6525 1034.36 -16.709 1032.37 -14.7467 1032.37C-9.83493 1032.37 -9.83493 1033.3 -4.92714 1033.3C-0.0193467 1033.3 -0.0153755 1032.73 4.89241 1032.73C9.8002 1032.73 9.80418 1033.45 14.7159 1033.45C19.6277 1033.45 19.6276 1031.83 24.5394 1031.83C26.5017 1031.83 28.0874 1034.77 28.5473 1036.8C30.1727 1044 29.7841 1044.25 31.4095 1051.44C31.8773 1053.51 31.4135 1055.19 29.4313 1055.19L29.4353 1055.19Z" fill="#D8C4AB"/>
<path d="M48.7732 842.104C43.8059 842.104 43.8059 842.223 38.8387 842.223C33.8714 842.223 33.8714 842.368 28.9041 842.368C23.9369 842.368 23.9369 840.008 18.9657 840.008C13.9985 840.008 13.9984 840.516 9.02722 840.516C7.04111 840.516 4.26608 840.404 3.84586 838.334C2.3989 831.136 3.54065 830.503 2.09368 823.305C1.68536 821.268 2.62888 819.277 4.5912 819.277C9.50296 819.277 9.50296 820.213 14.4108 820.213C19.3185 820.213 19.3225 819.64 24.2303 819.64C29.1381 819.64 29.1421 820.358 34.0538 820.358C38.9656 820.358 38.9655 818.737 43.8772 818.737C45.8396 818.737 47.4253 821.676 47.8852 823.713C49.5105 830.911 49.122 831.155 50.7474 838.347C51.2152 840.423 50.7514 842.098 48.7692 842.098L48.7732 842.104Z" fill="#D8C4AB"/>
<path d="M131.802 1284.79C126.676 1284.79 126.676 1285.62 121.55 1285.62C116.424 1285.62 116.424 1287.54 111.299 1287.54C106.173 1287.54 106.173 1287.1 101.043 1287.1C95.9172 1287.1 95.9172 1286.76 90.7874 1286.76C88.7379 1286.76 86.391 1284.56 86.0342 1282.35C84.7894 1274.69 85.3048 1274.46 84.06 1266.8C83.7072 1264.63 84.9401 1262.22 86.9659 1262.22C92.0322 1262.22 92.0322 1264.4 97.0985 1264.4C102.165 1264.4 102.165 1261.63 107.231 1261.63C112.298 1261.63 112.298 1262.37 117.364 1262.37C122.43 1262.37 122.43 1262.83 127.497 1262.83C129.519 1262.83 131.933 1264.46 132.337 1266.63C133.772 1274.28 132.646 1274.87 134.081 1282.53C134.494 1284.74 133.855 1284.79 131.806 1284.79H131.802Z" fill="#E7D3B8"/>
<path d="M210.802 1391.16C205.676 1391.16 205.676 1391.99 200.55 1391.99C195.424 1391.99 195.424 1393.91 190.299 1393.91C185.173 1393.91 185.173 1393.47 180.043 1393.47C174.917 1393.47 174.917 1393.13 169.787 1393.13C167.738 1393.13 165.391 1390.93 165.034 1388.72C163.789 1381.06 164.305 1380.83 163.06 1373.17C162.707 1371 163.94 1368.59 165.966 1368.59C171.032 1368.59 171.032 1370.78 176.099 1370.78C181.165 1370.78 181.165 1368 186.231 1368C191.298 1368 191.298 1368.74 196.364 1368.74C201.43 1368.74 201.43 1369.2 206.497 1369.2C208.519 1369.2 210.933 1370.83 211.337 1373C212.772 1380.66 211.646 1381.24 213.081 1388.9C213.494 1391.11 212.855 1391.16 210.806 1391.16H210.802Z" fill="#E7D3B8"/>
<path d="M61.5459 1164.56C56.3527 1164.56 56.3527 1165.06 51.1555 1165.06C45.9623 1165.06 45.9623 1166.17 40.7651 1166.17C35.5719 1166.17 35.5718 1166.32 30.3746 1166.32C25.1774 1166.32 25.1775 1166.5 19.9842 1166.5C14.7871 1166.5 14.7871 1163.61 9.59385 1163.61C7.50864 1163.61 6.18462 1163.27 5.68512 1160.99C4.92794 1157.53 3.15192 1158.61 2.39474 1155.15C1.8992 1152.89 4.18262 1151.12 6.24802 1151.12C11.4016 1151.12 11.4016 1149.81 16.5591 1149.81C21.7167 1149.81 21.7127 1150.96 26.8703 1150.96C32.0278 1150.96 32.0278 1150.26 37.1814 1150.26C42.335 1150.26 42.3389 1151.15 47.4925 1151.15C52.6461 1151.15 52.65 1149.15 57.8036 1149.15C59.873 1149.15 61.5498 1152.6 62.1127 1154.86C62.973 1158.31 62.5053 1158.63 63.3616 1162.09C63.9284 1164.37 63.6271 1164.56 61.5459 1164.56Z" fill="#EAC598"/>
<path d="M35.8019 573.163C30.6761 573.163 30.6762 573.987 25.5503 573.987C20.4245 573.987 20.4245 575.912 15.2986 575.912C10.1728 575.912 10.1729 575.471 5.04306 575.471C-0.0827611 575.471 -0.0828068 575.134 -5.2126 575.134C-7.26213 575.134 -9.60899 572.933 -9.96578 570.724C-11.2106 563.065 -10.6952 562.828 -11.94 555.168C-12.2928 552.999 -11.0599 550.593 -9.03413 550.593C-3.96777 550.593 -3.96784 552.775 1.09852 552.775C6.16488 552.775 6.1649 550 11.2313 550C16.2976 550 16.2977 550.738 21.364 550.738C26.4304 550.738 26.4304 551.2 31.4968 551.2C33.5185 551.2 35.9328 552.828 36.3371 554.997C37.7722 562.656 36.6463 563.243 38.0814 570.902C38.4937 573.111 37.8554 573.163 35.8059 573.163H35.8019Z" fill="#E7D3B8"/>
<path d="M24.2197 712.801C19.0265 712.801 19.0265 713.302 13.8293 713.302C8.6361 713.302 8.63612 714.41 3.43894 714.41C-1.75428 714.41 -1.75436 714.561 -6.95155 714.561C-12.1487 714.561 -12.1487 714.739 -17.3419 714.739C-22.5391 714.739 -22.5391 711.852 -27.7323 711.852C-29.8175 711.852 -31.1416 711.516 -31.6411 709.228C-32.3982 705.774 -34.1743 706.849 -34.9314 703.395C-35.427 701.127 -33.1436 699.361 -31.0782 699.361C-25.9246 699.361 -25.9246 698.055 -20.767 698.055C-15.6095 698.055 -15.6135 699.202 -10.4559 699.202C-5.29838 699.202 -5.29837 698.504 -0.144797 698.504C5.00878 698.504 5.01275 699.387 10.1663 699.387C15.3199 699.387 15.3239 697.396 20.4774 697.396C22.5468 697.396 24.2236 700.837 24.7866 703.098C25.6468 706.552 25.1791 706.875 26.0354 710.329C26.6023 712.617 26.301 712.801 24.2197 712.801Z" fill="#EAC598"/>
<path d="M148.493 1088.05C142.896 1088.05 142.896 1089.18 137.302 1089.18C131.705 1089.18 131.705 1088.92 126.111 1088.92C124.054 1088.92 122.163 1086.57 122.147 1084.34C122.091 1076.59 122.056 1076.59 122 1068.84C121.984 1066.65 123.859 1064.99 125.897 1064.99C131.427 1064.99 131.427 1064.45 136.957 1064.45C142.488 1064.45 142.488 1065.73 148.018 1065.73C150.051 1065.73 152.2 1066.61 152.248 1068.81C152.422 1076.55 152.16 1076.57 152.335 1084.32C152.386 1086.55 150.559 1088.05 148.497 1088.05H148.493Z" fill="#E7D3B8"/>
<path d="M10.574 1251.34C2.25566 1251.34 2.25575 1251.99 -6.06255 1251.99C-14.3808 1251.99 -14.3809 1253.51 -22.6992 1253.51C-31.0175 1253.51 -31.0174 1253.16 -39.3422 1253.16C-47.6605 1253.16 -47.6605 1252.9 -55.9853 1252.9C-59.3113 1252.9 -63.1198 1251.15 -63.6988 1249.4C-65.7189 1243.34 -64.8825 1243.15 -66.9026 1237.09C-67.4752 1235.37 -65.4744 1233.47 -62.1869 1233.47C-53.9651 1233.47 -53.9652 1235.2 -45.7434 1235.2C-37.5217 1235.2 -37.5216 1233 -29.2998 1233C-21.078 1233 -21.078 1233.58 -12.8562 1233.58C-4.63439 1233.58 -4.63435 1233.95 3.58745 1233.95C6.86845 1233.95 10.7863 1235.24 11.4425 1236.96C13.7714 1243.02 11.9443 1243.48 14.2731 1249.55C14.9422 1251.29 13.9064 1251.34 10.5804 1251.34H10.574Z" fill="#E7D3B8"/>
<path d="M119.229 967.255C113.307 967.255 113.307 967.898 107.385 967.898C101.462 967.898 101.462 969.401 95.5402 969.401C89.6179 969.401 89.618 969.056 83.6911 969.056C77.7689 969.056 77.7688 968.794 71.842 968.794C69.474 968.794 66.7625 967.075 66.3503 965.352C64.9121 959.374 65.5075 959.189 64.0693 953.211C63.6617 951.518 65.0862 949.64 67.4267 949.64C73.2802 949.64 73.2802 951.343 79.1337 951.343C84.9873 951.343 84.9873 949.177 90.8408 949.177C96.6944 949.177 96.6944 949.753 102.548 949.753C108.401 949.753 108.402 950.114 114.255 950.114C116.591 950.114 119.38 951.384 119.848 953.077C121.506 959.055 120.205 959.513 121.863 965.491C122.339 967.214 121.602 967.255 119.234 967.255H119.229Z" fill="#E7D3B8"/>
<path d="M69.2197 1388.4C64.0265 1388.4 64.0265 1388.91 58.8293 1388.91C53.6361 1388.91 53.6361 1390.01 48.4389 1390.01C43.2457 1390.01 43.2456 1390.16 38.0485 1390.16C32.8513 1390.16 32.8513 1390.34 27.6581 1390.34C22.4609 1390.34 22.4609 1387.46 17.2677 1387.46C15.1825 1387.46 13.8584 1387.12 13.3589 1384.83C12.6018 1381.38 10.8257 1382.45 10.0686 1379C9.57303 1376.73 11.8564 1374.96 13.9218 1374.96C19.0754 1374.96 19.0754 1373.66 24.233 1373.66C29.3905 1373.66 29.3865 1374.81 34.5441 1374.81C39.7016 1374.81 39.7016 1374.11 44.8552 1374.11C50.0088 1374.11 50.0127 1374.99 55.1663 1374.99C60.3199 1374.99 60.3239 1373 65.4774 1373C67.5468 1373 69.2236 1376.44 69.7866 1378.7C70.6468 1382.16 70.1791 1382.48 71.0354 1385.93C71.6023 1388.22 71.301 1388.4 69.2197 1388.4Z" fill="#EAC598"/>
<path d="M129.802 1471.16C124.676 1471.16 124.676 1471.99 119.55 1471.99C114.424 1471.99 114.424 1473.91 109.299 1473.91C104.173 1473.91 104.173 1473.47 99.0431 1473.47C93.9172 1473.47 93.9172 1473.13 88.7874 1473.13C86.7379 1473.13 84.391 1470.93 84.0342 1468.72C82.7894 1461.06 83.3048 1460.83 82.06 1453.17C81.7072 1451 82.9401 1448.59 84.9659 1448.59C90.0322 1448.59 90.0322 1450.78 95.0985 1450.78C100.165 1450.78 100.165 1448 105.231 1448C110.298 1448 110.298 1448.74 115.364 1448.74C120.43 1448.74 120.43 1449.2 125.497 1449.2C127.519 1449.2 129.933 1450.83 130.337 1453C131.772 1460.66 130.646 1461.24 132.081 1468.9C132.494 1471.11 131.855 1471.16 129.806 1471.16H129.802Z" fill="#E7D3B8"/>
</svg>
