<svg width="1024" height="1200" viewBox="0 0 1024 1200" fill="none" xmlns="http://www.w3.org/2000/svg">
<rect x="-1.92969" y="-6.74609" width="1027.16" height="1230.72" fill="#A3C17E"/>
<path d="M73 678C12.6617 515.975 15.9768 441.234 -3.5 333.5L-14 1203.16C129.242 1211.35 314.909 1214.4 306.5 1203.16C295.989 1189.1 250.77 1074.74 218 1009C185.23 943.256 147.197 877.24 73 678Z" fill="#FBEDDC"/>
<path d="M71.7229 718.799C66.4424 718.799 66.4423 718.889 61.1618 718.889C55.8813 718.889 55.8813 719 50.6008 719C45.3203 719 45.3204 717.202 40.0356 717.202C34.7551 717.202 34.7551 717.589 29.4704 717.589C27.359 717.589 24.409 717.504 23.9623 715.927C22.4241 710.444 23.6378 709.962 22.0996 704.48C21.6655 702.928 22.6685 701.412 24.7546 701.412C29.9761 701.412 29.9761 702.125 35.1934 702.125C40.4107 702.125 40.4149 701.688 45.6322 701.688C50.8495 701.688 50.8537 702.235 56.0753 702.235C61.2968 702.235 61.2967 701 66.5182 701C68.6043 701 70.29 703.239 70.7789 704.791C72.5067 710.274 72.0937 710.459 73.8216 715.937C74.3189 717.519 73.8258 718.794 71.7187 718.794L71.7229 718.799Z" fill="#D8C4AB"/>
<path d="M103.214 1159.68C94.5052 1159.68 94.5053 1160.34 85.7967 1160.34C77.0881 1160.34 77.088 1161.89 68.3794 1161.89C59.6708 1161.89 59.6709 1161.54 50.9556 1161.54C42.247 1161.54 42.2469 1161.27 33.5316 1161.27C30.0495 1161.27 26.0622 1159.49 25.4561 1157.71C23.3412 1151.53 24.2168 1151.34 22.102 1145.17C21.5025 1143.42 23.5972 1141.48 27.0389 1141.48C35.6465 1141.48 35.6464 1143.24 44.2539 1143.24C52.8615 1143.24 52.8615 1141 61.4691 1141C70.0767 1141 70.0767 1141.6 78.6843 1141.6C87.2918 1141.6 87.2919 1141.97 95.8995 1141.97C99.3344 1141.97 103.436 1143.28 104.123 1145.03C106.561 1151.2 104.648 1151.68 107.087 1157.85C107.787 1159.63 106.703 1159.68 103.221 1159.68H103.214Z" fill="#E7D3B8"/>
<path d="M184.608 1030.88C177.358 1030.88 177.359 1031.51 170.109 1031.51C162.859 1031.51 162.859 1033 155.61 1033C148.36 1033 148.36 1032.66 141.105 1032.66C133.855 1032.66 133.855 1032.4 126.6 1032.4C123.701 1032.4 120.382 1030.7 119.877 1029C118.117 1023.08 118.845 1022.9 117.085 1016.99C116.586 1015.31 118.33 1013.46 121.195 1013.46C128.36 1013.46 128.36 1015.14 135.526 1015.14C142.691 1015.14 142.691 1013 149.857 1013C157.022 1013 157.022 1013.57 164.188 1013.57C171.354 1013.57 171.354 1013.93 178.519 1013.93C181.379 1013.93 184.793 1015.18 185.365 1016.86C187.395 1022.77 185.802 1023.22 187.832 1029.13C188.415 1030.84 187.512 1030.88 184.614 1030.88H184.608Z" fill="#E7D3B8"/>
<path d="M246.141 1101.49C237.271 1101.49 237.271 1101.86 228.395 1101.86C219.526 1101.86 219.526 1102.69 210.649 1102.69C201.78 1102.69 201.78 1102.8 192.904 1102.8C184.027 1102.8 184.027 1102.93 175.158 1102.93C166.282 1102.93 166.282 1100.78 157.412 1100.78C153.851 1100.78 151.59 1100.53 150.737 1098.82C149.444 1096.25 146.41 1097.05 145.117 1094.47C144.271 1092.78 148.171 1091.46 151.698 1091.46C160.5 1091.46 160.5 1090.49 169.308 1090.49C178.117 1090.49 178.11 1091.35 186.919 1091.35C195.727 1091.35 195.727 1090.83 204.529 1090.83C213.33 1090.83 213.337 1091.48 222.139 1091.48C230.941 1091.48 230.947 1090 239.749 1090C243.283 1090 246.147 1092.57 247.109 1094.25C248.578 1096.83 247.779 1097.07 249.242 1099.64C250.21 1101.35 249.695 1101.49 246.141 1101.49Z" fill="#EAC598"/>
<path d="M119.166 902.547C112.048 902.547 112.048 902.923 104.925 902.923C97.8073 902.923 97.8073 903.753 90.6841 903.753C83.5663 903.753 83.5662 903.867 76.443 903.867C69.3197 903.867 69.3198 904 62.202 904C55.0788 904 55.0788 901.836 47.961 901.836C45.103 901.836 43.2884 901.584 42.6037 899.869C41.566 897.28 39.1318 898.086 38.094 895.496C37.4148 893.797 40.5444 892.472 43.3752 892.472C50.4387 892.472 50.4387 891.494 57.5076 891.494C64.5765 891.494 64.571 892.354 71.6399 892.354C78.7088 892.354 78.7088 891.83 85.7722 891.83C92.8357 891.83 92.8411 892.492 99.9046 892.492C106.968 892.492 106.973 891 114.037 891C116.873 891 119.171 893.579 119.943 895.274C121.122 897.863 120.481 898.105 121.655 900.694C122.432 902.409 122.019 902.547 119.166 902.547Z" fill="#EAC598"/>
<path d="M25.166 567.547C18.0482 567.547 18.0483 567.923 10.925 567.923C3.80726 567.923 3.80728 568.753 -3.31593 568.753C-10.4337 568.753 -10.4338 568.867 -17.557 568.867C-24.6803 568.867 -24.6802 569 -31.798 569C-38.9212 569 -38.9212 566.836 -46.039 566.836C-48.897 566.836 -50.7116 566.584 -51.3963 564.869C-52.434 562.28 -54.8682 563.086 -55.906 560.496C-56.5852 558.797 -53.4556 557.472 -50.6248 557.472C-43.5613 557.472 -43.5613 556.494 -36.4924 556.494C-29.4235 556.494 -29.429 557.354 -22.3601 557.354C-15.2912 557.354 -15.2912 556.83 -8.22776 556.83C-1.16432 556.83 -1.15888 557.492 5.90457 557.492C12.968 557.492 12.9735 556 20.0369 556C22.8731 556 25.1714 558.579 25.943 560.274C27.122 562.863 26.4809 563.105 27.6546 565.694C28.4315 567.409 28.0186 567.547 25.166 567.547Z" fill="#EAC598"/>
<path d="M109.143 971.041C99.6048 971.041 99.6049 971.903 90.0738 971.903C80.536 971.903 80.536 971.706 71.0049 971.706C67.4992 971.706 64.2771 969.907 64.2501 968.204C64.1555 962.282 64.0947 962.282 64.0002 956.356C63.9732 954.678 67.1682 953.413 70.6401 953.413C80.0631 953.413 80.0631 953 89.4861 953C98.9091 953 98.9091 953.978 108.332 953.978C111.797 953.978 115.458 954.653 115.539 956.331C115.837 962.252 115.391 962.267 115.688 968.189C115.776 969.897 112.662 971.041 109.149 971.041H109.143Z" fill="#E7D3B8"/>
<path d="M274.285 1197.9C262.674 1197.9 262.674 1198.5 251.062 1198.5C239.451 1198.5 239.451 1199.9 227.839 1199.9C216.228 1199.9 216.228 1199.58 204.607 1199.58C192.996 1199.58 192.996 1199.34 181.375 1199.34C176.733 1199.34 171.416 1197.73 170.608 1196.12C167.788 1190.53 168.956 1190.36 166.136 1184.77C165.337 1183.19 168.13 1181.43 172.719 1181.43C184.195 1181.43 184.195 1183.02 195.672 1183.02C207.149 1183.02 207.149 1181 218.625 1181C230.102 1181 230.102 1181.54 241.579 1181.54C253.056 1181.54 253.056 1181.88 264.533 1181.88C269.113 1181.88 274.581 1183.06 275.497 1184.64C278.748 1190.23 276.198 1190.66 279.449 1196.25C280.383 1197.86 278.937 1197.9 274.294 1197.9H274.285Z" fill="#E7D3B8"/>
<path d="M27.7482 870.984C18.6606 870.984 18.6607 871.589 9.57309 871.589C0.485497 871.589 0.485422 873 -8.60217 873C-17.6898 873 -17.6897 872.676 -26.7843 872.676C-35.8719 872.676 -35.872 872.43 -44.9666 872.43C-48.6002 872.43 -52.761 870.815 -53.3935 869.196C-55.6004 863.58 -54.6867 863.406 -56.8936 857.789C-57.5191 856.199 -55.3333 854.435 -51.7418 854.435C-42.7596 854.435 -42.7598 856.035 -33.7776 856.035C-24.7954 856.035 -24.7954 854 -15.8132 854C-6.83105 854 -6.83101 854.541 2.15116 854.541C11.1333 854.541 11.1334 854.88 20.1155 854.88C23.7 854.88 27.9802 856.074 28.6971 857.664C31.2413 863.28 29.2452 863.71 31.7895 869.327C32.5204 870.946 31.3888 870.984 27.7552 870.984H27.7482Z" fill="#E7D3B8"/>
<path d="M77.4324 801.023C71.9575 801.023 71.9575 801.511 66.4784 801.511C61.0034 801.511 61.0034 802.591 55.5243 802.591C50.0493 802.591 50.0492 802.739 44.5701 802.739C39.091 802.739 39.091 802.913 33.616 802.913C28.1369 802.913 28.1369 800.097 22.662 800.097C20.4636 800.097 19.0678 799.769 18.5412 797.539C17.7429 794.17 15.8705 795.218 15.0723 791.85C14.5499 789.638 16.9572 787.916 19.1346 787.916C24.5678 787.916 24.5678 786.643 30.0051 786.643C35.4425 786.643 35.4383 787.761 40.8756 787.761C46.313 787.761 46.313 787.08 51.7461 787.08C57.1793 787.08 57.1835 787.941 62.6166 787.941C68.0498 787.941 68.054 786 73.4872 786C75.6688 786 77.4366 789.356 78.0301 791.56C78.937 794.929 78.4439 795.244 79.3466 798.612C79.9443 800.843 79.6266 801.023 77.4324 801.023Z" fill="#EAC598"/>
<path d="M22.7992 1050.88C15.958 1050.88 15.958 1051.51 9.11682 1051.51C2.2756 1051.51 2.27554 1053 -4.56568 1053C-11.4069 1053 -11.4068 1052.66 -18.2533 1052.66C-25.0946 1052.66 -25.0946 1052.4 -31.9411 1052.4C-34.6766 1052.4 -37.8088 1050.7 -38.285 1049C-39.9464 1043.08 -39.2585 1042.9 -40.9199 1036.99C-41.3908 1035.31 -39.7453 1033.46 -37.0416 1033.46C-30.2797 1033.46 -30.2798 1035.14 -23.518 1035.14C-16.7561 1035.14 -16.7561 1033 -9.99422 1033C-3.23236 1033 -3.23233 1033.57 3.52953 1033.57C10.2914 1033.57 10.2914 1033.93 17.0533 1033.93C19.7517 1033.93 22.9738 1035.18 23.5135 1036.86C25.4289 1042.77 23.9262 1043.22 25.8415 1049.13C26.3918 1050.84 25.5399 1050.88 22.8045 1050.88H22.7992Z" fill="#E7D3B8"/>
</svg>
