<svg width="1920" height="1195" viewBox="0 0 1920 1195" fill="none" xmlns="http://www.w3.org/2000/svg">
<path d="M1927 -36H-3V996.021H1927V-36Z" fill="url(#paint0_linear_1462_8893)"/>
<path d="M1018.67 513.697L1019.13 509.54L1016.54 505.965L1015.57 502.077L1014.04 498.361L1012.93 494.455L1010.61 491.058L1009.6 487.042L1008.04 483.271L1006.2 479.763L1004.06 476.409L1001.35 473.386L999.263 470.02L996.722 466.941L993.969 464.047L991.183 461.214L988.494 458.314L986.384 454.616L982.44 452.85L979.603 449.784L975.807 447.975L972.282 445.799L968.885 443.37L964.549 442.665L961.101 440.28L957.163 438.87L953.464 436.92L949.559 435.417L945.14 434.976L941.183 433.357L936.982 432.431L933.206 430.181L928.87 429.721L924.617 429.046L920.68 427.109L916.415 426.477L912.22 425.514L907.974 424.742L903.58 425.171L899.354 424.3L895.063 424.037L890.759 424.38L886.448 423.184L882.144 423.607L877.815 423.73L873.247 425.073L873.948 420.499L871.819 416.66L871.677 412.496L870.732 408.462L869.355 404.531L866.84 401.097L865.276 397.234L863.481 393.432L859.834 390.839L858.225 386.822L855.234 383.811L851.779 381.267L848.164 378.986L844.998 376.22L841.511 373.835L837.883 371.652L834.319 369.285L830.182 367.703L826.322 365.453L821.632 365.404L817.618 363.441L813.321 362.344L808.862 361.994L804.494 361.283L800.087 360.75L795.642 360.848L791.222 361.05L786.732 359.83L782.26 360.179L777.944 361.467L773.756 363L769.079 362.681L764.897 364.232L761.114 365.422L757.46 363.607L754.745 360.369L751.548 357.579L748.974 354.004L745.417 351.527L741.222 350.013L737.69 347.517L733.753 345.69L729.436 344.751L725.654 342.452L721.24 342.017L716.904 341.581L712.71 340.134L708.322 340.171L703.98 340.649L699.573 340.447L695.468 342.078L691.004 342.299L686.764 343.525L683.56 346.738L679.398 348.633L676.059 345.634L673.203 342.391L669.304 340.471L665.071 339.257L661.571 336.725L657.332 335.744L653.201 334.603L649.258 332.813L644.941 332.34L640.714 331.543L636.61 329.741L632.203 330.047L627.944 328.821L623.544 330.078L619.24 328.882L614.91 329.998L610.684 329.685L606.457 329.618L602.249 330.041L598.036 330.317L593.719 329.918L589.685 331.537L585.471 331.917L581.341 332.788L577.153 333.426L573.267 335.143L569.124 336.001L565.431 338.086L561.333 339.086L557.235 340.22L553.42 341.98L549.605 343.764L546.305 346.407L542.883 348.805L539.19 350.889L536.533 354.152L532.718 356.224L530.453 359.775L527.089 362.356L524.818 365.821L521.53 368.574L520.508 372.793L518.256 376.202L515.226 379.237L513.495 382.272L510.124 380.617L505.987 379.133L501.999 377.422L497.824 376.177L493.848 374.227L489.576 373.154L485.008 373.89L480.711 373.259L476.381 372.185L472.032 373.277L467.613 372.743L463.199 372.964L459.191 375.098L454.984 376.073L450.654 376.84L446.203 377.79L442.439 380.218L438.997 383.045L435.041 384.995L431.567 387.638L427.404 389.496L424.85 393.15L420.527 395.07L418.192 398.829L416.101 402.655L412.839 405.659L410.871 409.492L408.458 413.11L406.451 416.954L405.525 420.296L403.723 417.242L402.385 413.22L400.269 409.498L397.592 406.125L394.433 403.17L391.731 399.779L388.405 396.952L384.481 394.904L381.548 391.403L377.334 389.808L372.991 388.594L368.996 386.761L365.239 384.492L360.987 383.407L356.998 381.629L352.964 379.905L348.686 378.918L344.253 378.538L339.988 377.618L335.62 377.207L331.387 376.012L327.109 374.791L322.689 374.742L318.276 375.662L313.869 374.767L309.61 376.251L305.345 376.938L301.105 377.765L297.007 379.072L292.645 379.955L289.474 382.996L285.601 383.959L282.687 381.696L280.023 378.544L277.984 374.902L274.857 372.118L272.541 368.592L269.575 365.618L266.166 363.123L262.196 361.326L258.838 358.855L255.268 356.66L251.839 354.256L248.506 351.595L244.093 350.896L240.471 348.731L236.81 346.53L232.68 345.426L228.73 343.795L224.639 342.568L220.225 342.691L215.986 342.329L211.881 341.091L207.603 341.232L203.364 340.711L199.066 339.846L194.807 340.668L190.613 341.532L186.392 342.096L181.947 341.735L177.855 343.077L173.957 344.929L169.962 346.346L165.671 347.069L161.804 348.848L157.616 350.013L154.194 352.606L150.925 355.335L147.136 357.224L143.244 359.02L139.924 361.614L136.811 364.429L133.594 367.108L129.869 369.31L127.868 373.142L124.433 375.834L122.471 372.057L119.434 369.199L115.742 367.114L112.666 364.386L109.662 361.375L105.738 359.762L101.839 358.186L97.9598 356.592L93.7138 355.991L90.0468 353.728L85.4212 353.833L81.3039 352.122L77.0643 350.712L72.664 350.043L68.0706 351.08L63.7474 349.853L59.3084 350.062L54.8822 349.565L50.4046 349.258L46.0493 350.38L41.8419 351.932L37.3836 352.116L33.099 353.146L28.8658 354.36L24.7099 355.826L20.7791 357.769L16.5138 359.167L12.8597 361.62L9.2313 364.085L6.45853 367.507L2.34763 369.518L0.256798 373.43L-3.49383 375.987L-4.7033 380.304L-7 382.695V490.672L1019.25 521.767L1019.84 517.701L1018.67 513.697Z" fill="#7DB29B"/>
<path d="M1923 451.569L1921.28 449.778L1918.75 447.424L1916.9 444.462L1913.79 442.726L1911.36 440.255L1908.03 438.955L1905.42 436.57L1902.38 434.761L1899.06 433.48L1895.58 432.719L1892.01 432.431L1888.56 431.695L1885.03 431.008L1881.55 432.37L1878.02 432.284L1874.45 432.517L1871.01 434.117L1871.48 430.389L1872.09 426.814L1870.61 423.411L1870.16 419.922L1869.33 416.482L1867.38 413.434L1866.47 409.976L1864.77 406.83L1862.22 404.218L1859.84 401.569L1857.48 398.902L1854.94 396.382L1852.59 393.567L1849.69 391.335L1846.38 389.686L1843.2 387.865L1839.5 387.067L1836.19 385.541L1833.04 383.468L1829.29 383.106L1825.85 382.211L1822.33 381.696L1818.84 381.046L1815.31 380.39L1811.74 379.862L1808.18 381.009L1804.54 380.23L1801.04 381.083L1797.47 381.481L1793.9 382.015L1790.82 384.05L1787.13 384.627L1783.86 386.246L1780.49 387.674L1777.94 390.379L1774.91 392.279L1772.15 394.518L1769.13 396.504L1767.01 399.35L1764.25 401.692L1761.83 404.384L1760.64 408.063L1758.82 404.776L1756.17 402.465L1753.32 400.441L1750.78 398.111L1748.44 395.388L1745.34 393.641L1742.13 392.077L1738.75 390.888L1735.04 390.875L1731.79 389.122L1728.12 389.772L1724.72 388.686L1721.33 389.851L1717.89 389.814L1714.46 390.225L1711.16 391.157L1708.19 392.948L1705.07 394.211L1701.62 394.916L1698.84 396.872L1696.39 399.202L1693.34 400.772L1690.92 402.391L1688.6 400.367L1685.89 398.037L1683.23 395.664L1680.3 393.592L1676.93 392.114L1674.23 389.753L1671.11 387.969L1667.82 386.473L1664.47 385.117L1661.41 383.272L1658.4 381.267L1655.24 379.513L1651.83 378.287L1648.55 376.735L1644.87 376.257L1641.24 375.748L1638.05 373.773L1634.24 374.049L1630.96 372.118L1627.3 371.897L1623.61 372.038L1619.99 371.866L1616.5 370.199L1612.86 369.972L1609.2 370.634L1605.57 370.714L1601.94 370.677L1598.31 370.873L1594.71 371.302L1591.22 372.253L1587.49 371.799L1583.93 372.382L1580.43 373.283L1577.02 374.442L1573.83 376.232L1570.05 376.238L1567 378.28L1563.63 379.47L1560.01 380.089L1557.08 382.235L1553.68 383.388L1550.21 384.498L1547.55 386.982L1544.48 388.754L1541.32 390.372L1538.01 391.838L1535.7 394.653L1532.63 396.437L1529.89 398.644L1526.89 400.582L1523.99 402.648L1521.19 404.838L1519.06 407.67L1516.76 410.301L1514.99 413.355L1512.21 415.617L1509.97 418.309L1508.06 421.216L1506.25 424.625L1503.23 422.166L1500.58 419.812L1497.4 418.205L1493.79 417.5L1491 415.09L1487.46 414.336L1484.11 413.146L1480.5 412.889L1477.08 411.767L1473.51 411.472L1469.92 411.895L1466.38 411.877L1462.84 411.914L1459.27 412.043L1455.68 412.226L1452.41 413.778L1448.59 413.864L1445.51 415.985L1442.12 417.291L1438.43 418.168L1435.95 421.001L1432.51 422.424L1430.05 425.097L1427.45 427.532L1424.2 429.359L1421.89 432.1L1419.79 434.976L1417.71 437.852L1415.34 440.556L1413.92 443.806L1412.17 446.872L1410.79 450.612L1407.74 447.975L1405.14 445.523L1402.04 443.714L1398.83 442.101L1395.58 440.568L1392.19 439.342L1388.61 438.71L1385.17 437.692L1381.84 436.086L1378.21 435.693L1374.56 435.681L1371 434.657L1367.35 435.135L1363.71 434.957L1360.06 434.718L1356.55 436.171L1352.89 436.018L1349.18 435.847L1345.72 437.061L1342.35 438.514L1338.55 438.33L1335.03 439.231L1331.82 441.476L1328.07 442.187L1324.6 443.634L1321.43 445.658L1318.12 447.35L1314.24 448.184L1311.57 450.882L1308.71 453.212L1305.59 454.831L1302.98 457.063L1300.72 459.608L1299.01 462.551L1296.51 464.942L1295.06 467.996L1293.25 470.835L1291.63 473.791L1290.37 476.899L1289.66 480.174L1289.39 483.516L1288.06 486.625L1286.85 489.832L1287.96 493.241L1286.7 496.54L1287.54 499.937L1283.96 500.409L1280.33 500.047L1277.2 501.967L1273.74 502.58L1270.46 503.782L1267.03 504.775L1264.36 507.093L1261.6 509.153L1258.45 510.784L1255.75 512.998L1254.08 516.101L1251.88 518.682L1249.95 521.454L1247.62 524.017L1246.21 527.095L1245.18 530.302L1243.72 533.331L1242.35 536.44L1242.22 539.825L1240.62 543.001L1241.56 546.423L1240.75 549.777L1241.52 553.082L1241.69 556.467L1923 596.618V451.569Z" fill="#8CBAA4"/>
<path d="M1877.24 508.712C1882.05 492.849 1882.48 472.178 1864.93 463.422C1860.44 461.184 1855.91 460.055 1850.84 461.098C1849.1 461.453 1838.79 465.274 1839.81 468.002C1837.89 462.888 1832.01 459.749 1826.31 459.724C1820.61 459.7 1815.18 462.318 1810.85 465.844C1803.85 471.528 1799.17 479.745 1797.98 488.434" fill="#89AC90"/>
<path d="M1781.27 575.2L1864.5 520.013C1868.12 500.464 1856.7 487.851 1847.95 483.044C1839.21 478.236 1827.64 478.543 1819.18 483.816C1818.96 477.733 1814.86 471.92 1809.03 469.431C1803.2 466.935 1795.93 467.879 1791.01 471.767C1796.02 461.263 1790.13 447.988 1779.82 441.954C1769.51 435.92 1756.14 436.19 1744.78 440.182C1734.21 443.891 1723.78 452.942 1725.59 463.538C1713.39 459.46 1698.4 466.212 1693.96 477.782C1691.64 483.804 1688.55 491.315 1690.14 497.545C1686.83 491.456 1679.17 487.82 1672.09 488.967C1669.88 475.808 1658.52 464.495 1644.83 461.809C1631.13 459.123 1616.01 465.249 1608.54 476.513C1599.65 473.864 1589.32 476.243 1582.68 482.467C1579.51 485.441 1577.25 489.243 1576.04 493.314C1574.9 497.147 1576.6 503.499 1574.13 506.314C1572.05 508.693 1564.23 509.999 1561.16 511.931C1556.7 514.739 1552.79 518.363 1549.78 522.576C1543.95 530.737 1541.51 541.051 1543.13 550.807" fill="#79A582"/>
<path d="M1372.08 563.451C1368.43 554.836 1369.37 544.583 1374.53 536.698C1379.69 528.818 1388.94 523.502 1398.66 522.84C1404.42 522.447 1409.85 524.931 1414.12 527.365C1417.63 517.137 1427.49 509.184 1438.85 508.117C1450.1 507.062 1461.73 512.992 1467.05 522.502C1475.56 514.666 1490.87 515.095 1498.88 523.398C1501.62 509.018 1513.36 496.552 1528.06 492.401C1542.77 488.25 1559.74 492.615 1570.25 503.248C1573.68 491.824 1589.33 486.576 1600.83 491.168C1612.32 495.761 1619.26 507.608 1620.63 519.418C1637.38 519.185 1652.61 534.233 1651.75 550.175C1671.1 546.803 1683.51 565.922 1679.42 583.042" fill="#709C7A"/>
<path d="M1233.65 545.325C1234.45 531.547 1228.15 518.786 1215.42 512.219C1223.3 495.068 1210.67 472.436 1191.35 469.069C1188.43 460.301 1180.78 453.096 1171.55 450.41C1162.31 447.73 1151.75 449.643 1144.19 455.377C1133.43 445.394 1117.31 440.948 1102.62 443.91C1087.93 446.872 1075.08 457.155 1069.48 470.437C1058.46 466.948 1045.56 469.615 1037.05 477.139C1028.55 484.663 1024.79 496.724 1027.61 507.455C1028.12 509.374 1023.85 508.135 1021.85 508.675" fill="#7D9E79"/>
<path d="M1717.35 580.246C1717.98 573.017 1728.88 566.652 1737.44 569.546C1738.91 564.8 1741.88 560.072 1747.02 557.607C1752.17 555.142 1759.76 555.817 1762.89 559.98C1755.78 548.71 1764.9 532.822 1779.99 530.192C1785.03 529.315 1791.08 530.075 1793.92 533.607C1788.65 522.944 1798.23 509.472 1811.96 507.283C1825.69 505.094 1840.06 513.489 1842.7 524.796C1844.72 520.835 1847.76 516.855 1852.6 515.248C1857.44 513.642 1864.2 515.672 1864.96 519.927C1857.81 507.97 1861.9 492.18 1874.35 483.663C1886.8 475.146 1906.41 474.735 1919.37 482.719C1920.65 483.51 1921.87 484.387 1923 485.337C1923 528.916 1923 617.448 1923 617.448" fill="#618C63"/>
<path d="M1734.82 586.194C1738.59 574.844 1738.66 560.324 1730.25 550.727C1724.58 544.258 1715.36 540.775 1706.58 541.793C1710.59 534.288 1707.95 524.146 1700.71 519.308C1693.48 514.47 1682.57 515.543 1676.53 521.693C1668.61 513.114 1654.2 510.778 1643.74 516.37C1633.29 521.963 1627.88 534.907 1631.44 545.822C1621.13 542.48 1608.72 551.169 1608.98 561.55C1599.9 559.827 1589.72 565.444 1586.07 573.556C1585.56 574.678 1586.13 576.69 1587.23 576.064" fill="#63906B"/>
<path d="M1078.3 516.168C1080.54 505.223 1087.91 494.897 1098.72 490.623C1109.53 486.349 1123.55 489.359 1129.96 498.698C1131.58 487.869 1140.82 478.794 1151.8 475.624C1189.25 464.82 1228.09 507.375 1225.21 540.597" fill="#6B8D68"/>
<path d="M1283.4 550.77C1283.97 536.685 1278.84 521.926 1267.54 512.826C1261.34 507.835 1253.24 504.977 1245.15 504.793C1241.28 504.708 1237.39 505.217 1233.74 506.449C1229.94 507.731 1227.61 510.508 1224.2 509.073C1221.5 507.939 1218.89 504.327 1216.06 502.813C1212.86 501.102 1209.38 499.894 1205.81 499.091C1198.79 497.509 1191.18 497.454 1184.24 499.459C1170.64 503.395 1160.32 515.972 1159.58 529.499" fill="#62895D"/>
<path d="M-7 996H1923V587.942C1842.37 578.572 1760.62 581.92 1679.85 577.524C1589.11 572.581 1498.41 566.554 1408.02 557.282C1339.9 550.298 1271.62 544.332 1203.84 534.625C1065.43 514.801 927.274 492.836 788.018 478.984C594.948 459.779 400.539 456.345 206.419 456.247C135.099 456.21 63.6766 456.658 -7 464.813V996Z" fill="#A3C17E"/>
<path d="M95.6116 504.358L-7 512.158V410.632C7.96393 410.749 23.1273 418.837 28.8465 431.99C36.187 426.023 47.857 426.931 55.7121 432.278C60.55 435.571 64.1269 440.176 66.7195 445.308C68.3472 448.509 69.5953 451.912 70.5281 455.334C89.5128 462.109 103.866 486.711 95.6181 504.364L95.6116 504.358Z" fill="#649568"/>
<path d="M230.081 559.772L-7 584.416V479.696C4.16826 474.073 19.3574 474.993 26.627 484.681C29.7922 465.451 46.9178 450.649 66.7195 445.308C72.5932 443.72 78.7048 442.966 84.7522 443.174C97.0591 443.603 109.521 447.503 118.514 455.524C127.515 463.544 132.52 475.974 129.747 487.403C140.883 480.131 156.233 479.193 168.25 485.055C180.274 490.911 188.47 503.316 188.805 516.186C212.119 515.592 233.086 537.728 230.088 559.778L230.081 559.772Z" fill="#598254"/>
<g opacity="0.86">
<path d="M-6.4149 138.584L-1.42264 138.873L3.20293 138.373L7.83493 137.939L12.4669 138.135L17.0989 138.842L21.7309 136.438L26.3565 136.639L30.9885 137.49L35.6205 137.418L40.2525 138.419L44.8845 137.14L49.5165 136.758L54.1485 138.878L58.7805 138.311L63.4061 138.461L68.038 137.33L72.67 137.723L77.302 137.64L81.934 138.811L86.566 136.907L91.198 138.708L95.83 136.809L100.462 138.657L105.094 136.598L109.726 137.888L114.358 137.165L118.99 137.728L123.622 137.723L128.254 138.048L132.886 138.553L137.518 136.959L142.15 138.249L146.782 136.572L151.414 136.546L156.046 136.768L160.684 137.568L165.316 138.543L169.948 137.485L174.58 137.537L179.212 138.765L183.838 138.228L188.47 136.309L193.108 138.853L197.734 136.469L202.366 137.238L206.998 137.222L211.63 138.182L216.262 136.278L220.894 137.372L225.526 136.278L230.164 138.533L234.796 136.964L239.428 137.743L244.06 138.301L248.699 137.238L253.331 137.041L257.969 138.641L262.601 137.465L267.233 136.52L271.872 138.146L276.504 137.929L281.136 136.629L285.774 137.604L290.406 137.083L295.038 137.862L299.677 137.176L304.321 138.362L309.365 138.393L307.918 133.718L306.374 129.941L302.662 127.258L300.133 123.857L294.864 122.856L292.31 119.224L287.801 117.758L283.272 116.509L279.077 114.698L274.741 113.037L269.845 113.006L265.323 111.664L260.729 112.381L256.226 111.762L251.53 110.74L247.142 112.242L242.716 113.124L238.168 113.625L234.172 115.699L229.006 114.734L224.973 116.659L220.945 118.517L216.571 119.306L214.113 116.319L212.402 112.903L210.343 109.574L206.889 107.077L202.964 105.054L200.089 102.247L196.943 99.5791L193.443 97.1694L189.21 95.709L185.298 93.7069L180.345 94.0784L176.227 92.4427L171.673 92.6285L167.272 90.6831L162.904 92.4014L158.175 91.5913L154.225 93.7534L150.198 95.2292L146.428 97.0661L142.234 98.2839L138.644 100.363L134.089 101.566L132.063 105.08L127.572 106.674L126.523 110.575L123.333 114.203L120.515 110.126L116.623 108.16L112.029 107.799L107.648 107.908L103.151 107.123L99.1561 108.867L95.6049 110.838L92.1502 112.835L88.9271 115.4L86.09 112.335L83.5938 109.239L81.2071 105.911L75.9639 105.142L73.3262 101.875L69.3505 100.013L64.6413 99.4604L60.4081 98.3355L56.4516 96.158L52.0191 94.7183L47.3099 94.5996L42.62 94.868L38.5026 97.3654L33.8899 97.4996L29.4381 98.3459L25.1406 99.6462L21.7181 102.19L17.4978 103.697L13.7472 105.813L9.78423 107.835L7.5197 111.2L5.71193 114.683L1.48523 116.762L1.36943 120.901L-2.23967 123.501L-3.30117 127.072L-4.95453 130.478L-6.86523 133.951L-6.4149 138.584Z" fill="white"/>
</g>
<g opacity="0.82">
<path d="M1764.66 231.497L1760.16 231.513L1755.56 231.213L1750.96 233.071L1746.36 230.847L1741.76 232.09L1737.16 231.285L1732.56 232.581L1727.95 230.831L1723.35 233.035L1718.75 232.467L1714.15 232.823L1709.55 231.027L1704.95 230.924L1700.34 232.777L1695.74 231.445L1691.13 233.04L1686.53 230.94L1681.93 232.121L1677.33 230.888L1672.73 231.089L1668.12 230.759L1663.52 232.947L1658.92 232.183L1654.32 231.44L1649.72 232.292L1645.12 230.666L1640.52 230.981L1635.92 232.065L1631.32 233.019L1626.71 231.827L1622.11 232.689L1617.51 231.961L1612.9 232.41L1608.31 230.671L1603.7 232.668L1599.1 232.483L1594.49 230.991L1589.89 230.981L1585.29 232.416L1580.68 233.004L1576.08 231.807L1571.47 230.971L1566.87 232.581L1562.27 232.287L1557.66 232.059L1553.06 232.374L1548.46 232.488L1543.85 232.756L1539.24 232.818L1534.64 232.735L1530.03 231.125L1525.92 230.697L1527.06 228.365L1528.97 225.104L1531.36 222.09L1532.42 217.952L1537.21 216.62L1540.77 214.298L1544.85 212.585L1548.67 210.067L1553.6 210.248L1557.95 208.586L1562.76 209.701L1567.32 209.505L1572.01 208.648L1576.72 208.772L1581.36 209.417L1585.45 211.569L1589.88 212.869L1592.12 209.711L1593.6 206.058L1598.25 204.685L1601.36 202.157L1604.92 199.943L1608.83 198.003L1613.6 198.302L1617.8 196.79L1622.28 197.569L1626.47 198.648L1631.09 197.709L1635.44 198.503L1638.61 201.424L1643.65 201.45L1645.52 205.248L1649.06 207.203L1652.1 210.067L1653.58 206.811L1653.87 202.931L1656.05 199.628L1659.42 197.017L1662.3 194.05L1666.03 191.749L1670.99 191.47L1675.06 189.984L1679.45 189.189L1683.91 188.147L1688.43 189.483L1693.24 188.936L1698.29 189.019L1702 191.867L1706.29 193.544L1709.6 196.326L1714.61 197.76L1717.65 200.877L1719.18 204.732L1721.37 208.142L1722.45 212.823L1726.97 209.381L1731.6 209.67L1735.97 211.161L1740.26 211.44L1744.67 211.342L1748.91 212.136L1752.51 214.216L1756.07 216.295L1759.99 218.267L1761.86 221.631L1763.91 224.799L1766.29 228.143L1764.66 231.497Z" fill="white"/>
</g>
<path d="M1920 951H-10V1195H1920V951Z" fill="#FBEDDC"/>
<path d="M1013.03 1106.52C1005.1 1106.52 1005.1 1107.02 997.165 1107.02C989.231 1107.02 989.231 1105.34 981.305 1105.34C973.371 1105.34 973.371 1105.61 965.444 1105.61C961.795 1105.61 958.248 1104.76 958.313 1102.91C958.56 1096.5 958.921 1096.5 959.168 1090.09C959.24 1088.27 962.512 1087.1 966.117 1087.1C973.957 1087.1 973.957 1085.99 981.797 1085.99C989.637 1085.99 989.637 1085.89 997.477 1085.89C1005.32 1085.89 1005.32 1087.69 1013.16 1087.69C1016.76 1087.69 1018.97 1088.28 1018.96 1090.1C1018.95 1096.51 1019.51 1096.51 1019.5 1102.94C1019.5 1104.79 1016.67 1106.52 1013.03 1106.52V1106.52Z" fill="#E7D3B8"/>
<path d="M1215.37 1106.86C1207.63 1106.86 1207.63 1105.84 1199.9 1105.84C1192.16 1105.84 1192.16 1105.46 1184.42 1105.46C1176.68 1105.46 1176.68 1107.09 1168.94 1107.09C1161.2 1107.09 1161.2 1106.09 1153.47 1106.09C1149.82 1106.09 1147.19 1104.76 1147.06 1102.91C1146.59 1096.49 1146.07 1096.51 1145.61 1090.1C1145.48 1088.28 1148.37 1087.65 1151.97 1087.65C1159.62 1087.65 1159.62 1087.46 1167.27 1087.46C1174.92 1087.46 1174.92 1087.44 1182.57 1087.44C1190.22 1087.44 1190.22 1087.84 1197.86 1087.84C1205.51 1087.84 1205.51 1086.6 1213.16 1086.6C1216.76 1086.6 1220.96 1088.2 1221.18 1090.02C1221.93 1096.43 1221.19 1096.49 1221.95 1102.91C1222.16 1104.76 1219.02 1106.87 1215.37 1106.87L1215.37 1106.86Z" fill="#D8C4AB"/>
<path d="M1462.59 1123.98C1456.43 1123.98 1450.28 1123.98 1444.13 1123.99C1434.9 1123.99 1434.9 1123.52 1425.68 1123.52C1416.45 1123.52 1416.45 1124.99 1407.22 1124.99C1397.99 1124.99 1397.99 1125.79 1388.76 1125.79C1385.08 1125.79 1381.34 1123.26 1380.94 1121.37C1379.55 1114.81 1378.64 1114.94 1377.27 1108.38C1376.88 1106.52 1380.86 1106.22 1384.5 1106.22C1393.62 1106.22 1393.62 1105.83 1402.73 1105.83C1411.85 1105.83 1411.86 1104.06 1420.97 1104.06C1430.08 1104.06 1430.09 1104.48 1439.21 1104.48C1448.33 1104.48 1448.33 1105.27 1457.45 1105.27C1461.1 1105.27 1465.92 1106.09 1466.4 1107.95C1468.12 1114.5 1468.3 1114.47 1470.01 1121.03C1470.51 1122.93 1466.26 1123.97 1462.58 1123.97L1462.59 1123.98Z" fill="#D8C4AB"/>
<path d="M470.995 993.398C462.474 993.398 462.475 993.282 453.954 993.282C445.434 993.282 445.434 993.253 436.913 993.253C428.393 993.253 428.393 994.077 419.873 994.077C411.352 994.077 411.352 994.989 402.832 994.989C399.43 994.989 397.772 993.183 398.416 991.575C400.653 985.978 401.167 986.111 403.397 980.514C404.026 978.929 406.176 976.467 409.543 976.467C417.969 976.467 417.969 977.57 426.395 977.57C434.821 977.57 434.821 977.75 443.248 977.75C451.674 977.75 451.674 977.291 460.107 977.291C468.541 977.291 468.534 978.29 476.967 978.29C480.333 978.29 481.752 978.447 481.202 980.032C479.904 983.763 478.61 987.495 477.322 991.226C476.757 992.841 474.39 993.386 470.988 993.386L470.995 993.398Z" fill="#E7D3B8"/>
<path d="M660.571 1209.49C650.878 1209.49 650.878 1209.35 641.185 1209.35C631.491 1209.35 631.491 1209.32 621.798 1209.32C612.105 1209.32 612.105 1210.24 602.412 1210.24C592.719 1210.24 592.719 1211.26 583.026 1211.26C579.153 1211.26 577.104 1208.96 577.633 1206.88C579.443 1199.65 580.036 1199.74 581.846 1192.5C582.36 1190.45 584.619 1187.6 588.441 1187.6C598.011 1187.6 598.011 1188.83 607.588 1188.83C617.165 1188.83 617.158 1189.04 626.735 1189.04C636.313 1189.04 636.313 1188.53 645.883 1188.53C655.453 1188.53 655.46 1189.65 665.03 1189.65C668.852 1189.65 670.633 1190.14 670.228 1192.18C669.267 1197 668.312 1201.82 667.361 1206.64C666.948 1208.73 664.436 1209.49 660.564 1209.49H660.571Z" fill="#E7D3B8"/>
<path d="M985.846 1138.1C976.544 1138.1 976.543 1138.96 967.234 1138.96C957.932 1138.96 957.932 1139.91 948.622 1139.91C939.313 1139.91 939.313 1138.73 930.011 1138.73C920.701 1138.73 920.701 1138.28 911.399 1138.28C907.686 1138.28 903.61 1137.62 903.748 1135.7C904.211 1129.03 905.644 1129.09 906.107 1122.43C906.238 1120.54 909.054 1119.41 912.724 1119.41C921.918 1119.41 921.918 1118.93 931.111 1118.93C940.305 1118.93 940.305 1119.98 949.506 1119.98C958.706 1119.98 958.699 1119.75 967.9 1119.75C977.101 1119.75 977.094 1119.73 986.295 1119.73C989.965 1119.73 991.434 1120.51 991.398 1122.4C991.275 1129.07 993.07 1129.09 992.947 1135.76C992.911 1137.68 989.559 1138.1 985.838 1138.1H985.846Z" fill="#E7D3B8"/>
<path d="M687.777 1076.46C678.808 1076.46 678.808 1077.4 669.846 1077.4C660.877 1077.4 660.877 1076.23 651.915 1076.23C642.945 1076.23 642.945 1075.78 633.976 1075.78C625.007 1075.78 625.007 1077.66 616.038 1077.66C612.455 1077.66 610.181 1075.33 610.623 1073.54C612.172 1067.35 612.404 1067.38 613.96 1061.19C614.402 1059.44 617.131 1057.87 620.678 1057.87C629.539 1057.87 629.539 1058.91 638.407 1058.91C647.274 1058.91 647.274 1058.68 656.135 1058.68C664.996 1058.68 665.003 1058.67 673.863 1058.67C682.724 1058.67 682.731 1059.12 691.592 1059.12C695.132 1059.12 698.027 1059.4 697.673 1061.15C696.435 1067.35 697.398 1067.47 696.16 1073.67C695.805 1075.45 691.353 1076.46 687.77 1076.46L687.777 1076.46Z" fill="#E7D3B8"/>
<path d="M954.556 1051.1C945.724 1051.1 945.724 1051.94 936.892 1051.94C928.061 1051.94 928.061 1051.53 919.229 1051.53C910.398 1051.53 910.398 1050.68 901.566 1050.68C892.734 1050.68 892.734 1050.95 883.903 1050.95C880.377 1050.95 876.656 1050.33 876.815 1048.59C877.358 1042.58 878.669 1042.66 879.212 1036.65C879.364 1034.95 881.991 1033.44 885.473 1033.44C894.204 1033.44 894.204 1034.75 902.934 1034.75C911.664 1034.75 911.664 1032.24 920.402 1032.24C929.139 1032.24 929.132 1034.49 937.87 1034.49C946.607 1034.49 946.6 1034.61 955.338 1034.61C958.827 1034.61 960.246 1034.9 960.181 1036.6C959.949 1042.61 960.97 1042.64 960.738 1048.65C960.673 1050.38 958.088 1051.1 954.563 1051.1H954.556Z" fill="#E7D3B8"/>
<path d="M221.949 976.815C213.515 976.815 213.515 979.37 205.089 979.37C196.656 979.37 196.656 977.076 188.229 977.076C179.796 977.076 179.796 976.954 171.362 976.954C162.929 976.954 162.929 976.925 154.495 976.925C151.129 976.925 149.428 976.862 150.318 975.282C153.402 969.801 152.36 969.424 155.444 963.942C156.32 962.386 160.468 961.893 163.797 961.893C172.137 961.893 172.137 962.328 180.476 962.328C188.816 962.328 188.816 960.488 197.155 960.488C205.494 960.488 205.494 961.608 213.841 961.608C222.188 961.608 222.18 961.794 230.527 961.794C233.857 961.794 235.993 962.682 235.196 964.233C232.388 969.714 231.222 969.331 228.413 974.812C227.603 976.391 225.308 976.809 221.942 976.809L221.949 976.815Z" fill="#E7D3B8"/>
<path d="M76.6325 1199.66C68.0107 1199.66 68.0107 1200.67 59.3818 1200.67C50.7601 1200.67 50.7601 1197.7 42.1311 1197.7C33.5021 1197.7 33.5021 1197.31 24.8804 1197.31C16.2515 1197.31 16.2515 1198.17 7.62976 1198.17C-0.999198 1198.17 -0.999199 1199.79 -9.62092 1199.79C-18.2499 1199.79 -18.2499 1199 -26.8716 1199C-35.5006 1199 -35.5006 1197.38 -44.1295 1197.38C-52.7585 1197.38 -52.7585 1197.9 -61.3874 1197.9C-65.2386 1197.9 -69.0174 1197.16 -67.7506 1195.1C-63.3565 1187.96 -61.1051 1188.85 -56.711 1181.7C-55.4659 1179.68 -51.9405 1177.62 -48.14 1177.62C-39.6196 1177.62 -39.6196 1180.11 -31.0992 1180.11C-22.5788 1180.11 -22.5788 1175.33 -14.0585 1175.33C-5.53809 1175.33 -5.53809 1179.62 2.98228 1179.62C11.5027 1179.62 11.5027 1179.84 20.023 1179.84C28.5434 1179.84 28.5434 1179.9 37.0638 1179.9C45.5841 1179.9 45.5841 1178.34 54.1045 1178.34C62.6249 1178.34 62.6249 1176.61 71.1453 1176.61C79.6656 1176.61 79.6656 1178.75 88.186 1178.75C91.9865 1178.75 92.2037 1178.78 91.1323 1180.8C87.3535 1187.95 91.2988 1189.29 87.52 1196.44C86.4269 1198.5 80.4764 1199.66 76.6252 1199.66H76.6325Z" fill="#E7D3B8"/>
<path d="M1069.23 983.469C1060.77 983.469 1060.77 983.974 1052.32 983.974C1043.85 983.974 1043.85 982.494 1035.4 982.494C1026.94 982.494 1026.94 982.302 1018.47 982.302C1010.01 982.302 1010.01 982.732 1001.55 982.732C998.168 982.732 995.272 982.105 995.301 980.514C995.402 974.998 995.895 975.003 995.996 969.482C996.025 967.92 998.443 967.711 1001.79 967.711C1010.16 967.711 1010.16 967.449 1018.52 967.449C1026.89 967.449 1026.89 965.893 1035.26 965.893C1043.63 965.893 1043.63 966.898 1052 966.898C1060.38 966.898 1060.37 966.544 1068.75 966.544C1072.09 966.544 1073.42 967.937 1073.48 969.505C1073.66 975.021 1076.62 974.963 1076.81 980.479C1076.86 982.07 1072.62 983.469 1069.24 983.469H1069.23Z" fill="#E7D3B8"/>
<path d="M1523.2 1030.08C1514.48 1030.08 1514.48 1030.62 1505.77 1030.62C1497.06 1030.62 1497.06 1029.03 1488.35 1029.03C1479.63 1029.03 1479.63 1028.82 1470.92 1028.82C1462.2 1028.82 1462.2 1029.28 1453.49 1029.28C1450 1029.28 1446.64 1028.65 1446.19 1026.97C1444.65 1021.12 1445.16 1021.03 1443.62 1015.18C1443.18 1013.52 1445.29 1013.37 1448.74 1013.37C1457.35 1013.37 1457.35 1013.09 1465.97 1013.09C1474.59 1013.09 1474.59 1011.43 1483.21 1011.43C1491.83 1011.43 1491.82 1012.51 1500.45 1012.51C1509.07 1012.51 1509.06 1012.13 1517.68 1012.13C1521.12 1012.13 1522.86 1013.88 1523.38 1015.53C1525.22 1021.38 1528.3 1020.76 1530.15 1026.61C1530.68 1028.29 1526.68 1030.08 1523.2 1030.08Z" fill="#E7D3B8"/>
<path d="M1870.99 968.315C1862.62 968.315 1862.61 968.849 1854.23 968.849C1845.86 968.849 1845.86 967.275 1837.47 967.275C1829.09 967.275 1829.09 967.066 1820.72 967.066C1812.33 967.066 1812.33 967.519 1803.96 967.519C1800.61 967.519 1797.09 967.02 1796.31 965.458C1793.59 960.046 1794.08 959.89 1791.37 954.478C1790.6 952.945 1792.35 952.933 1795.67 952.933C1803.96 952.933 1803.96 952.655 1812.25 952.655C1820.53 952.655 1820.53 951 1828.82 951C1837.11 951 1837.11 952.068 1845.4 952.068C1853.69 952.068 1853.69 951.697 1861.98 951.697C1865.29 951.697 1867.28 953.537 1868.12 955.07C1871.11 960.482 1874 959.454 1876.99 964.871C1877.85 966.428 1874.34 968.315 1870.98 968.315H1870.99Z" fill="#E7D3B8"/>
<path d="M236.643 1028.1C227.935 1028.1 227.935 1028.57 219.226 1028.57C210.517 1028.57 210.517 1029.46 201.809 1029.46C193.1 1029.46 193.1 1029.03 184.384 1029.03C175.669 1029.03 175.676 1028.13 166.96 1028.13C163.478 1028.13 162.407 1028.29 163.312 1026.6C166.453 1020.76 164.484 1020.08 167.633 1014.23C168.524 1012.58 172.99 1011.84 176.429 1011.84C185.043 1011.84 185.043 1011.46 193.65 1011.46C202.258 1011.46 202.265 1012.83 210.879 1012.83C219.494 1012.83 219.494 1010.19 228.108 1010.19C236.723 1010.19 236.723 1012.55 245.337 1012.55C248.776 1012.55 249.623 1012.5 248.819 1014.16C245.974 1020 245.938 1019.99 243.093 1025.84C242.275 1027.52 240.118 1028.1 236.636 1028.1H236.643Z" fill="#D8C4AB"/>
<path d="M807.199 1011.03C798.584 1011.03 798.584 1012.54 789.977 1012.54C781.363 1012.54 781.363 1012.19 772.755 1012.19C764.141 1012.19 764.141 1011.93 755.526 1011.93C746.912 1011.93 746.912 1012.01 738.297 1012.01C734.859 1012.01 732.513 1010.16 732.817 1008.51C733.867 1002.79 732.984 1002.69 734.034 996.969C734.33 995.349 738.015 995.274 741.417 995.274C749.938 995.274 749.938 993.102 758.451 993.102C766.964 993.102 766.971 993.683 775.484 993.683C783.998 993.683 784.005 994.043 792.525 994.043C801.046 994.043 801.046 993.52 809.566 993.52C812.968 993.52 814.394 995.338 814.185 996.957C813.424 1002.68 813.178 1002.65 812.418 1008.37C812.201 1010.02 810.637 1011.04 807.199 1011.04V1011.03Z" fill="#E7D3B8"/>
<path d="M149.017 1120.56C139.816 1120.56 139.816 1119.91 130.622 1119.91C121.421 1119.91 121.421 1119.5 112.228 1119.5C103.027 1119.5 103.027 1120.09 93.8261 1120.09C84.6253 1120.09 84.6253 1118.35 75.4244 1118.35C71.747 1118.35 71.0955 1118.42 72.1524 1116.53C75.8226 1110.02 75.2507 1109.81 78.9209 1103.3C79.9633 1101.45 82.8589 1099.46 86.4857 1099.46C95.578 1099.46 95.578 1099.93 104.663 1099.93C113.748 1099.93 113.755 1100.88 122.848 1100.88C131.94 1100.88 131.94 1100.57 141.032 1100.57C150.124 1100.57 150.124 1098.74 159.217 1098.74C162.851 1098.74 164.689 1101.01 163.741 1102.85C160.404 1109.37 160.882 1109.53 157.544 1116.05C156.582 1117.93 152.687 1120.56 149.009 1120.56H149.017Z" fill="#D8C4AB"/>
<path d="M1097.92 1158.96C1087.7 1158.96 1087.7 1159.95 1077.48 1159.95C1067.26 1159.95 1067.26 1159.73 1057.05 1159.73C1053.29 1159.73 1049.84 1157.65 1049.81 1155.69C1049.71 1148.87 1049.64 1148.87 1049.54 1142.04C1049.51 1140.11 1052.94 1138.65 1056.66 1138.65C1066.76 1138.65 1066.76 1138.17 1076.85 1138.17C1086.95 1138.17 1086.95 1139.3 1097.05 1139.3C1100.76 1139.3 1104.69 1140.08 1104.78 1142.01C1105.09 1148.83 1104.62 1148.85 1104.93 1155.67C1105.03 1157.64 1101.69 1158.96 1097.93 1158.96H1097.92Z" fill="#E7D3B8"/>
<path d="M373.231 1081.56C365.434 1081.56 365.434 1081.13 357.645 1081.13C349.849 1081.13 349.849 1081.64 342.059 1081.64C334.263 1081.64 334.263 1082.82 326.474 1082.82C322.883 1082.82 319.922 1080.34 320.682 1078.55C323.332 1072.31 323.571 1072.38 326.213 1066.15C326.966 1064.38 330.875 1062.65 334.422 1062.65C342.125 1062.65 342.125 1063.2 349.834 1063.2C357.544 1063.2 357.537 1062.63 365.246 1062.63C372.956 1062.63 372.948 1063.97 380.658 1063.97C384.212 1063.97 387.484 1064.73 386.797 1066.49C384.372 1072.73 383.836 1072.59 381.418 1078.83C380.723 1080.62 376.829 1081.56 373.238 1081.56H373.231Z" fill="#E7D3B8"/>
<path d="M238.043 1180.75C230.283 1180.75 230.283 1182.04 222.523 1182.04C214.762 1182.04 214.762 1180.67 207.002 1180.67C199.242 1180.67 199.242 1180.12 191.482 1180.12C183.721 1180.12 183.721 1180.76 175.961 1180.76C172.153 1180.76 168.635 1179.18 169.612 1177.16C173.015 1170.17 173.413 1170.29 176.815 1163.29C177.778 1161.31 182.44 1159.51 186.204 1159.51C193.871 1159.51 193.871 1159.44 201.537 1159.44C209.203 1159.44 209.203 1160.13 216.869 1160.13C224.535 1160.13 224.535 1159.42 232.201 1159.42C239.868 1159.42 239.868 1161.12 247.534 1161.12C251.298 1161.12 254.823 1161.92 253.948 1163.9C250.849 1170.89 250.169 1170.7 247.07 1177.7C246.173 1179.71 241.851 1180.76 238.043 1180.76V1180.75Z" fill="#E7D3B8"/>
<path d="M807.436 1159.47C798.018 1159.47 798.018 1160.88 788.6 1160.88C779.182 1160.88 779.182 1159.37 769.764 1159.37C760.346 1159.37 760.346 1158.77 750.928 1158.77C741.51 1158.77 741.51 1159.47 732.092 1159.47C728.328 1159.47 724.115 1158.19 724.455 1156.23C725.628 1149.4 726.091 1149.44 727.271 1142.62C727.604 1140.68 731.86 1138.73 735.574 1138.73C744.876 1138.73 744.876 1138.64 754.186 1138.64C763.495 1138.64 763.488 1139.41 772.797 1139.41C782.107 1139.41 782.107 1138.62 791.409 1138.62C800.711 1138.62 800.718 1140.49 810.021 1140.49C813.734 1140.49 817.947 1140.9 817.708 1142.83C816.883 1149.66 816.101 1149.6 815.276 1156.43C815.037 1158.4 811.201 1159.45 807.436 1159.45V1159.47Z" fill="#D8C4AB"/>
<path d="M500.097 1109.06C490.172 1109.06 490.172 1110.45 480.248 1110.45C470.323 1110.45 470.323 1110.14 460.398 1110.14C450.473 1110.14 450.473 1109.89 440.549 1109.89C436.893 1109.89 433.867 1107.82 434.519 1105.97C436.77 1099.53 437.552 1099.7 439.803 1093.26C440.44 1091.43 443.705 1089.4 447.31 1089.4C457.119 1089.4 457.119 1090.99 466.928 1090.99C476.737 1090.99 476.737 1088.97 486.546 1088.97C496.355 1088.97 496.355 1089.51 506.163 1089.51C509.776 1089.51 512.338 1091.41 511.781 1093.23C509.805 1099.67 510.391 1099.79 508.415 1106.23C507.843 1108.09 503.746 1109.06 500.09 1109.06H500.097Z" fill="#E7D3B8"/>
<path d="M1687.03 1148.32C1677.67 1148.32 1677.67 1149.04 1668.31 1149.04C1658.95 1149.04 1658.95 1150.74 1649.59 1150.74C1640.23 1150.74 1640.23 1150.35 1630.86 1150.35C1621.5 1150.35 1621.5 1150.05 1612.13 1150.05C1608.39 1150.05 1604.1 1148.11 1603.45 1146.17C1601.18 1139.42 1602.12 1139.21 1599.85 1132.47C1599.2 1130.56 1601.45 1128.44 1605.15 1128.44C1614.4 1128.44 1614.4 1130.36 1623.66 1130.36C1632.91 1130.36 1632.91 1127.91 1642.16 1127.91C1651.41 1127.91 1651.41 1128.56 1660.66 1128.56C1669.91 1128.56 1669.91 1128.97 1679.16 1128.97C1682.86 1128.97 1687.26 1130.41 1688 1132.32C1690.62 1139.06 1688.57 1139.58 1691.19 1146.33C1691.94 1148.27 1690.78 1148.32 1687.03 1148.32H1687.03Z" fill="#E7D3B8"/>
<path d="M1800.74 1096.46C1791.67 1096.46 1791.67 1096.56 1782.6 1096.56C1773.53 1096.56 1773.53 1096.69 1764.45 1096.69C1755.38 1096.69 1755.38 1094.61 1746.31 1094.61C1737.24 1094.61 1737.24 1095.06 1728.16 1095.06C1724.53 1095.06 1719.46 1094.96 1718.7 1093.13C1716.05 1086.79 1718.14 1086.24 1715.5 1079.9C1714.75 1078.1 1716.47 1076.35 1720.06 1076.35C1729.03 1076.35 1729.03 1077.17 1737.99 1077.17C1746.95 1077.17 1746.96 1076.67 1755.92 1076.67C1764.88 1076.67 1764.89 1077.3 1773.86 1077.3C1782.83 1077.3 1782.83 1075.87 1791.8 1075.87C1795.38 1075.87 1798.28 1078.46 1799.12 1080.26C1802.08 1086.6 1801.37 1086.81 1804.34 1093.15C1805.2 1094.97 1804.35 1096.45 1800.73 1096.45L1800.74 1096.46Z" fill="#D8C4AB"/>
<path d="M1871.82 1022.49C1863.15 1022.49 1863.15 1022.98 1854.48 1022.98C1845.8 1022.98 1845.8 1022.37 1837.12 1022.37C1828.45 1022.37 1828.45 1023.74 1819.77 1023.74C1811.1 1023.74 1811.1 1022.28 1802.42 1022.28C1798.95 1022.28 1796.83 1021.07 1796.02 1019.4C1793.22 1013.6 1792.42 1013.85 1789.63 1008.05C1788.83 1006.41 1790.42 1004.12 1793.86 1004.12C1802.43 1004.12 1802.43 1004.49 1811.01 1004.49C1819.59 1004.49 1819.59 1004.77 1828.17 1004.77C1836.75 1004.77 1836.75 1004.69 1845.32 1004.69C1853.9 1004.69 1853.9 1005.43 1862.48 1005.43C1865.91 1005.43 1870.07 1006.35 1870.94 1008C1874.04 1013.8 1871.96 1014.51 1875.06 1020.31C1875.95 1021.98 1875.27 1022.5 1871.81 1022.5L1871.82 1022.49Z" fill="#E7D3B8"/>
<path d="M1369.45 1199.92C1359.82 1199.92 1359.82 1200.04 1350.19 1200.04C1340.56 1200.04 1340.56 1200.17 1330.93 1200.17C1321.29 1200.17 1321.29 1198.05 1311.66 1198.05C1302.02 1198.05 1302.02 1198.51 1292.39 1198.51C1288.54 1198.51 1283.56 1197.99 1283.25 1195.93C1282.2 1188.79 1284.43 1188.57 1283.38 1181.43C1283.09 1179.41 1285.31 1177.37 1289.12 1177.37C1298.63 1177.37 1298.63 1178.21 1308.15 1178.21C1317.67 1178.21 1317.66 1177.69 1327.18 1177.69C1336.7 1177.69 1336.7 1178.34 1346.21 1178.34C1355.72 1178.34 1355.73 1176.88 1365.24 1176.88C1369.04 1176.88 1371.71 1179.56 1372.11 1181.58C1373.53 1188.72 1372.77 1188.82 1374.18 1195.96C1374.59 1198.02 1373.31 1199.92 1369.46 1199.92L1369.45 1199.92Z" fill="#D8C4AB"/>
<path d="M1354.38 1083.98C1345.36 1083.98 1345.36 1084.32 1336.36 1084.32C1327.35 1084.32 1327.35 1085.08 1318.34 1085.08C1309.33 1085.08 1309.33 1085.19 1300.32 1085.19C1291.3 1085.19 1291.3 1085.31 1282.29 1085.31C1278.69 1085.31 1277.24 1083.06 1276.96 1081.26C1276.01 1075.01 1275.49 1075.06 1274.54 1068.81C1274.27 1067.03 1275.78 1064.49 1279.34 1064.49C1288.24 1064.49 1288.24 1066.18 1297.15 1066.18C1306.06 1066.18 1306.06 1065.28 1314.97 1065.28C1323.88 1065.28 1323.88 1066.07 1332.78 1066.07C1341.69 1066.07 1341.69 1065.59 1350.6 1065.59C1354.15 1065.59 1356.74 1067.23 1357.1 1069C1358.37 1075.25 1360.05 1075.03 1361.31 1081.29C1361.68 1083.09 1357.97 1083.99 1354.37 1083.99L1354.38 1083.98Z" fill="#EAC598"/>
<path d="M1929.77 1054.67C1921.75 1054.67 1921.75 1054.72 1913.72 1054.72C1905.7 1054.72 1905.7 1054.8 1897.68 1054.8C1894.14 1054.8 1891.46 1052.7 1890.53 1050.97C1887.32 1044.94 1887.03 1045.04 1883.83 1039.01C1882.92 1037.3 1884.38 1035.41 1887.87 1035.41C1895.81 1035.41 1895.81 1036.41 1903.74 1036.41C1911.68 1036.41 1911.68 1035.88 1919.61 1035.88C1923.11 1035.88 1926.46 1037.6 1927.42 1039.31C1930.79 1045.34 1931.12 1045.22 1934.49 1051.25C1935.46 1052.99 1933.31 1054.67 1929.77 1054.67Z" fill="#E7D3B8"/>
<path d="M1228.84 1047.68C1220.85 1047.68 1220.85 1047.73 1212.85 1047.73C1204.86 1047.73 1204.86 1047.79 1196.87 1047.79C1193.35 1047.79 1191.25 1046.01 1191.07 1044.29C1190.46 1038.3 1190.17 1038.32 1189.57 1032.35C1189.39 1030.65 1191.46 1028.68 1194.94 1028.68C1202.84 1028.68 1202.84 1029.57 1210.74 1029.57C1218.64 1029.57 1218.65 1029.1 1226.54 1029.1C1230.03 1029.1 1232.79 1030.72 1233.01 1032.41C1233.78 1038.39 1234.1 1038.36 1234.88 1044.34C1235.1 1046.06 1232.35 1047.68 1228.83 1047.68H1228.84Z" fill="#E7D3B8"/>
<path d="M1922.74 1178.85C1913.26 1178.85 1913.26 1179.29 1903.77 1179.29C1894.28 1179.29 1894.28 1180.27 1884.79 1180.27C1875.31 1180.27 1875.31 1180.4 1865.82 1180.4C1856.33 1180.4 1856.33 1180.56 1846.84 1180.56C1837.35 1180.56 1837.35 1178.02 1827.87 1178.02C1824.06 1178.02 1821.65 1177.72 1820.73 1175.71C1819.35 1172.66 1816.11 1173.61 1814.72 1170.57C1813.82 1168.57 1817.99 1167.01 1821.76 1167.01C1831.17 1167.01 1831.17 1165.86 1840.59 1165.86C1850.01 1165.86 1850 1166.87 1859.42 1166.87C1868.84 1166.87 1868.84 1166.26 1878.25 1166.26C1887.66 1166.26 1887.67 1167.04 1897.08 1167.04C1906.49 1167.04 1906.49 1165.28 1915.91 1165.28C1919.68 1165.28 1922.75 1168.31 1923.77 1170.31C1925.34 1173.35 1924.49 1173.63 1926.05 1176.68C1927.09 1178.69 1926.54 1178.85 1922.74 1178.85Z" fill="#EAC598"/>
<defs>
<linearGradient id="paint0_linear_1462_8893" x1="962" y1="-150.033" x2="962" y2="337.277" gradientUnits="userSpaceOnUse">
<stop offset="0.31" stop-color="#A4E5F9"/>
<stop offset="0.47" stop-color="#B4E9FA"/>
<stop offset="0.79" stop-color="#DFF5FC"/>
<stop offset="1" stop-color="white"/>
</linearGradient>
</defs>
</svg>
