<svg width="1920" height="1353" viewBox="0 0 1920 1353" fill="none" xmlns="http://www.w3.org/2000/svg">
<g clip-path="url(#clip0_1724_3796)">
<path d="M1927 -36H-3V996.021H1927V-36Z" fill="url(#paint0_linear_1724_3796)"/>
<path d="M1018.67 689.249L1019.13 683.528L1016.54 678.608L1015.57 673.258L1014.04 668.144L1012.93 662.769L1010.61 658.093L1009.6 652.566L1008.04 647.376L1006.2 642.549L1004.06 637.933L1001.35 633.773L999.263 629.14L996.722 624.904L993.969 620.921L991.183 617.022L988.494 613.031L986.384 607.942L982.44 605.512L979.603 601.292L975.807 598.803L972.282 595.807L968.885 592.465L964.549 591.495L961.101 588.212L957.163 586.271L953.464 583.588L949.559 581.52L945.14 580.913L941.183 578.685L936.982 577.411L933.206 574.314L928.87 573.681L924.617 572.752L920.68 570.086L916.415 569.217L912.22 567.892L907.974 566.828L903.58 567.419L899.354 566.221L895.063 565.858L890.759 566.33L886.448 564.685L882.144 565.267L877.815 565.436L873.247 567.284L873.948 560.989L871.819 555.706L871.677 549.976L870.732 544.423L869.355 539.014L866.84 534.288L865.276 528.972L863.481 523.74L859.834 520.17L858.225 514.643L855.234 510.5L851.779 506.997L848.164 503.858L844.998 500.052L841.511 496.77L837.883 493.766L834.319 490.508L830.182 488.331L826.322 485.234L821.632 485.166L817.618 482.466L813.321 480.955L808.862 480.474L804.494 479.496L800.087 478.761L795.642 478.896L791.222 479.175L786.732 477.496L782.26 477.977L777.944 479.749L773.756 481.858L769.079 481.42L764.897 483.555L761.114 485.192L757.46 482.694L754.745 478.238L751.548 474.399L748.974 469.479L745.417 466.07L741.222 463.985L737.69 460.551L733.753 458.036L729.436 456.745L725.654 453.58L721.24 452.981L716.904 452.382L712.71 450.39L708.322 450.441L703.98 451.099L699.573 450.821L695.468 453.065L691.004 453.369L686.764 455.057L683.56 459.479L679.398 462.086L676.059 457.96L673.203 453.496L669.304 450.854L665.071 449.184L661.571 445.698L657.332 444.348L653.201 442.779L649.258 440.314L644.941 439.665L640.714 438.568L636.61 436.087L632.203 436.509L627.944 434.821L623.544 436.551L619.24 434.905L614.91 436.441L610.684 436.011L606.457 435.918L602.249 436.5L598.036 436.88L593.719 436.331L589.685 438.559L585.471 439.082L581.341 440.281L577.153 441.158L573.267 443.521L569.124 444.703L565.431 447.572L561.333 448.947L557.235 450.508L553.42 452.93L549.605 455.386L546.305 459.023L542.883 462.323L539.19 465.192L536.533 469.681L532.718 472.534L530.453 477.42L527.089 480.972L524.818 485.74L521.53 489.529L520.508 495.335L518.256 500.027L515.226 504.204L513.495 508.381L510.124 506.103L505.987 504.061L501.999 501.706L497.824 499.993L493.848 497.31L489.576 495.833L485.008 496.846L480.711 495.976L476.381 494.5L472.032 496.002L467.613 495.268L463.199 495.571L459.191 498.508L454.984 499.85L450.654 500.905L446.203 502.213L442.439 505.554L438.997 509.445L435.041 512.128L431.567 515.765L427.404 518.322L424.85 523.352L420.527 525.993L418.192 531.166L416.101 536.432L412.839 540.567L410.871 545.841L408.458 550.82L406.451 556.111L405.525 560.71L403.723 556.508L402.385 550.972L400.269 545.85L397.592 541.208L394.433 537.141L391.731 532.474L388.405 528.584L384.481 525.765L381.548 520.947L377.334 518.753L372.991 517.082L368.996 514.559L365.239 511.436L360.987 509.943L356.998 507.495L352.964 505.124L348.686 503.765L344.253 503.242L339.988 501.976L335.62 501.411L331.387 499.766L327.109 498.086L322.689 498.019L318.276 499.285L313.869 498.052L309.61 500.095L305.345 501.04L301.105 502.179L297.007 503.976L292.645 505.192L289.474 509.377L285.601 510.702L282.687 507.588L280.023 503.251L277.984 498.238L274.857 494.407L272.541 489.555L269.575 485.462L266.166 482.027L262.196 479.555L258.838 476.154L255.268 473.133L251.839 469.825L248.506 466.162L244.093 465.2L240.471 462.221L236.81 459.192L232.68 457.673L228.73 455.428L224.639 453.74L220.225 453.909L215.986 453.411L211.881 451.707L207.603 451.901L203.364 451.184L199.066 449.994L194.807 451.124L190.613 452.314L186.392 453.091L181.947 452.593L177.855 454.441L173.957 456.989L169.962 458.939L165.671 459.935L161.804 462.382L157.616 463.985L154.194 467.555L150.925 471.31L147.136 473.909L143.244 476.382L139.924 479.951L136.811 483.825L133.594 487.512L129.869 490.542L127.868 495.816L124.433 499.521L122.471 494.323L119.434 490.39L115.742 487.521L112.666 483.766L109.662 479.622L105.738 477.403L101.839 475.234L97.9598 473.04L93.7138 472.213L90.0468 469.099L85.4212 469.242L81.3039 466.888L77.0643 464.947L72.664 464.027L68.0706 465.453L63.7474 463.766L59.3084 464.053L54.8822 463.369L50.4046 462.947L46.0493 464.491L41.8419 466.626L37.3836 466.88L33.099 468.297L28.8658 469.968L24.7099 471.985L20.7791 474.66L16.5138 476.584L12.8597 479.96L9.2313 483.352L6.45853 488.061L2.34763 490.829L0.256798 496.213L-3.49383 499.732L-4.7033 505.673L-7 508.964V657.562L1019.25 700.355L1019.84 694.76L1018.67 689.249Z" fill="#7DB29B"/>
<path d="M1923 603.748L1921.28 601.284L1918.75 598.043L1916.9 593.967L1913.79 591.579L1911.36 588.178L1908.03 586.389L1905.42 583.107L1902.38 580.617L1899.06 578.854L1895.58 577.807L1892.01 577.41L1888.56 576.398L1885.03 575.453L1881.55 577.326L1878.02 577.208L1874.45 577.529L1871.01 579.731L1871.48 574.6L1872.09 569.681L1870.61 564.997L1870.16 560.195L1869.33 555.461L1867.38 551.267L1866.47 546.508L1864.77 542.179L1862.22 538.584L1859.84 534.938L1857.48 531.267L1854.94 527.799L1852.59 523.926L1849.69 520.854L1846.38 518.584L1843.2 516.078L1839.5 514.981L1836.19 512.879L1833.04 510.027L1829.29 509.529L1825.85 508.297L1822.33 507.588L1818.84 506.694L1815.31 505.791L1811.74 505.065L1808.18 506.643L1804.54 505.571L1801.04 506.744L1797.47 507.293L1793.9 508.027L1790.82 510.829L1787.13 511.622L1783.86 513.85L1780.49 515.816L1777.94 519.537L1774.91 522.153L1772.15 525.234L1769.13 527.968L1767.01 531.883L1764.25 535.107L1761.83 538.812L1760.64 543.875L1758.82 539.352L1756.17 536.17L1753.32 533.385L1750.78 530.179L1748.44 526.432L1745.34 524.027L1742.13 521.875L1738.75 520.238L1735.04 520.221L1731.79 517.807L1728.12 518.702L1724.72 517.208L1721.33 518.812L1717.89 518.761L1714.46 519.326L1711.16 520.609L1708.19 523.073L1705.07 524.812L1701.62 525.782L1698.84 528.474L1696.39 531.681L1693.34 533.841L1690.92 536.069L1688.6 533.284L1685.89 530.077L1683.23 526.812L1680.3 523.959L1676.93 521.926L1674.23 518.677L1671.11 516.221L1667.82 514.162L1664.47 512.297L1661.41 509.757L1658.4 506.997L1655.24 504.584L1651.83 502.896L1648.55 500.761L1644.87 500.103L1641.24 499.403L1638.05 496.685L1634.24 497.065L1630.96 494.407L1627.3 494.103L1623.61 494.297L1619.99 494.061L1616.5 491.765L1612.86 491.453L1609.2 492.365L1605.57 492.474L1601.94 492.424L1598.31 492.694L1594.71 493.284L1591.22 494.592L1587.49 493.968L1583.93 494.77L1580.43 496.01L1577.02 497.605L1573.83 500.069L1570.05 500.078L1567 502.888L1563.63 504.525L1560.01 505.377L1557.08 508.331L1553.68 509.917L1550.21 511.445L1547.55 514.862L1544.48 517.301L1541.32 519.529L1538.01 521.546L1535.7 525.419L1532.63 527.875L1529.89 530.913L1526.89 533.58L1523.99 536.423L1521.19 539.436L1519.06 543.335L1516.76 546.955L1514.99 551.157L1512.21 554.271L1509.97 557.976L1508.06 561.976L1506.25 566.668L1503.23 563.284L1500.58 560.044L1497.4 557.833L1493.79 556.862L1491 553.546L1487.46 552.508L1484.11 550.871L1480.5 550.516L1477.08 548.972L1473.51 548.567L1469.92 549.149L1466.38 549.124L1462.84 549.174L1459.27 549.352L1455.68 549.605L1452.41 551.74L1448.59 551.858L1445.51 554.778L1442.12 556.575L1438.43 557.782L1435.95 561.681L1432.51 563.638L1430.05 567.318L1427.45 570.668L1424.2 573.183L1421.89 576.955L1419.79 580.913L1417.71 584.87L1415.34 588.592L1413.92 593.064L1412.17 597.284L1410.79 602.431L1407.74 598.803L1405.14 595.427L1402.04 592.938L1398.83 590.718L1395.58 588.609L1392.19 586.921L1388.61 586.052L1385.17 584.651L1381.84 582.44L1378.21 581.9L1374.56 581.883L1371 580.474L1367.35 581.132L1363.71 580.887L1360.06 580.558L1356.55 582.558L1352.89 582.347L1349.18 582.111L1345.72 583.782L1342.35 585.782L1338.55 585.529L1335.03 586.769L1331.82 589.858L1328.07 590.837L1324.6 592.828L1321.43 595.613L1318.12 597.942L1314.24 599.09L1311.57 602.803L1308.71 606.009L1305.59 608.237L1302.98 611.309L1300.72 614.811L1299.01 618.862L1296.51 622.153L1295.06 626.355L1293.25 630.262L1291.63 634.33L1290.37 638.608L1289.66 643.115L1289.39 647.714L1288.06 651.992L1286.85 656.406L1287.96 661.098L1286.7 665.638L1287.54 670.313L1283.96 670.963L1280.33 670.465L1277.2 673.106L1273.74 673.95L1270.46 675.604L1267.03 676.971L1264.36 680.161L1261.6 682.996L1258.45 685.241L1255.75 688.287L1254.08 692.557L1251.88 696.11L1249.95 699.924L1247.62 703.452L1246.21 707.688L1245.18 712.101L1243.72 716.27L1242.35 720.549L1242.22 725.207L1240.62 729.578L1241.56 734.287L1240.75 738.903L1241.52 743.451L1241.69 748.11L1923 803.367V603.748Z" fill="#8CBAA4"/>
<path d="M1877.24 682.389C1882.05 660.558 1882.48 632.111 1864.93 620.06C1860.44 616.98 1855.91 615.427 1850.84 616.862C1849.1 617.351 1838.79 622.609 1839.81 626.364C1837.89 619.326 1832.01 615.005 1826.31 614.972C1820.61 614.938 1815.18 618.541 1810.85 623.393C1803.85 631.216 1799.17 642.524 1797.98 654.482" fill="#89AC90"/>
<path d="M1781.27 773.89L1864.5 697.941C1868.12 671.039 1856.7 653.68 1847.95 647.064C1839.21 640.448 1827.64 640.87 1819.18 648.127C1818.96 639.756 1814.86 631.756 1809.03 628.33C1803.2 624.895 1795.93 626.195 1791.01 631.545C1796.02 617.09 1790.13 598.82 1779.82 590.516C1769.51 582.212 1756.14 582.583 1744.78 588.077C1734.21 593.183 1723.78 605.638 1725.59 620.22C1713.39 614.609 1698.4 623.9 1693.96 639.824C1691.64 648.111 1688.55 658.448 1690.14 667.022C1686.83 658.642 1679.17 653.638 1672.09 655.216C1669.88 637.106 1658.52 621.537 1644.83 617.841C1631.13 614.144 1616.01 622.575 1608.54 638.077C1599.65 634.431 1589.32 637.705 1582.68 646.271C1579.51 650.364 1577.25 655.596 1576.04 661.199C1574.9 666.473 1576.6 675.216 1574.13 679.089C1572.05 682.363 1564.23 684.161 1561.16 686.819C1556.7 690.684 1552.79 695.671 1549.78 701.469C1543.95 712.701 1541.51 726.895 1543.13 740.321" fill="#79A582"/>
<path d="M1372.08 757.722C1368.43 745.865 1369.37 731.755 1374.53 720.903C1379.69 710.059 1388.94 702.743 1398.66 701.832C1404.42 701.292 1409.85 704.709 1414.12 708.059C1417.63 693.984 1427.49 683.038 1438.85 681.57C1450.1 680.119 1461.73 688.279 1467.05 701.367C1475.56 690.583 1490.87 691.173 1498.88 702.599C1501.62 682.811 1513.36 665.655 1528.06 659.942C1542.77 654.229 1559.74 660.237 1570.25 674.87C1573.68 659.148 1589.33 651.925 1600.83 658.245C1612.32 664.566 1619.26 680.87 1620.63 697.123C1637.38 696.802 1652.61 717.511 1651.75 739.452C1671.1 734.81 1683.51 761.122 1679.42 784.683" fill="#709C7A"/>
<path d="M1233.65 732.776C1234.45 713.815 1228.15 696.253 1215.42 687.216C1223.3 663.612 1210.67 632.465 1191.35 627.832C1188.43 615.765 1180.78 605.849 1171.55 602.153C1162.31 598.465 1151.75 601.098 1144.19 608.988C1133.43 595.25 1117.31 589.132 1102.62 593.208C1087.93 597.284 1075.08 611.435 1069.48 629.714C1058.46 624.912 1045.56 628.583 1037.05 638.937C1028.55 649.292 1024.79 665.891 1027.61 680.659C1028.12 683.3 1023.85 681.595 1021.85 682.338" fill="#7D9E79"/>
<path d="M1717.35 780.835C1717.98 770.886 1728.88 762.126 1737.44 766.11C1738.91 759.578 1741.88 753.072 1747.02 749.679C1752.17 746.287 1759.76 747.215 1762.89 752.945C1755.78 737.435 1764.9 715.57 1779.99 711.95C1785.03 710.743 1791.08 711.789 1793.92 716.65C1788.65 701.975 1798.23 683.435 1811.96 680.422C1825.69 677.41 1840.06 688.962 1842.7 704.524C1844.72 699.072 1847.76 693.595 1852.6 691.384C1857.44 689.173 1864.2 691.967 1864.96 697.823C1857.81 681.368 1861.9 659.638 1874.35 647.916C1886.8 636.195 1906.41 635.63 1919.37 646.617C1920.65 647.705 1921.87 648.912 1923 650.22C1923 710.194 1923 832.033 1923 832.033" fill="#618C63"/>
<path d="M1734.82 789.021C1738.59 773.401 1738.66 753.418 1730.25 740.211C1724.58 731.308 1715.36 726.515 1706.58 727.916C1710.59 717.587 1707.95 703.629 1700.71 696.971C1693.48 690.313 1682.57 691.79 1676.53 700.254C1668.61 688.448 1654.2 685.233 1643.74 692.929C1633.29 700.625 1627.88 718.439 1631.44 733.46C1621.13 728.861 1608.72 740.819 1608.98 755.106C1599.9 752.734 1589.72 760.464 1586.07 771.629C1585.56 773.173 1586.13 775.941 1587.23 775.08" fill="#63906B"/>
<path d="M1078.3 692.65C1080.54 677.587 1087.91 663.376 1098.72 657.494C1109.53 651.612 1123.55 655.756 1129.96 668.608C1131.58 653.705 1140.82 641.216 1151.8 636.853C1189.25 621.984 1228.09 680.549 1225.21 726.27" fill="#6B8D68"/>
<path d="M1283.4 740.27C1283.97 720.886 1278.84 700.574 1267.54 688.051C1261.34 681.182 1253.24 677.249 1245.15 676.996C1241.28 676.878 1237.39 677.578 1233.74 679.275C1229.94 681.038 1227.61 684.861 1224.2 682.886C1221.5 681.325 1218.89 676.355 1216.06 674.27C1212.86 671.916 1209.38 670.254 1205.81 669.148C1198.79 666.971 1191.18 666.895 1184.24 669.654C1170.64 675.072 1160.32 692.38 1159.58 710.996" fill="#62895D"/>
<path d="M-7 1353H1923V791.426C1842.37 778.531 1760.62 783.139 1679.85 777.088C1589.11 770.287 1498.41 761.991 1408.02 749.232C1339.9 739.62 1271.62 731.409 1203.84 718.051C1065.43 690.768 927.274 660.541 788.018 641.478C594.948 615.047 400.539 610.322 206.419 610.187C135.099 610.136 63.6766 610.752 -7 621.976V1353Z" fill="#A3C17E"/>
<path d="M95.6116 676.397L-7 687.131V547.411C7.96393 547.571 23.1273 558.702 28.8465 576.803C36.187 568.592 47.857 569.841 55.7121 577.199C60.55 581.731 64.1269 588.069 66.7195 595.132C68.3472 599.537 69.5953 604.22 70.5281 608.929C89.5128 618.254 103.866 652.11 95.6181 676.406L95.6116 676.397Z" fill="#649568"/>
<path d="M230.081 752.658L-7 786.573V642.456C4.16826 634.718 19.3574 635.984 26.627 649.317C29.7922 622.853 46.9178 602.482 66.7195 595.132C72.5932 592.946 78.7048 591.908 84.7522 592.195C97.0591 592.786 109.521 598.153 118.514 609.191C127.515 620.229 132.52 637.334 129.747 653.064C140.883 643.055 156.233 641.764 168.25 649.832C180.274 657.891 188.47 674.962 188.805 692.675C212.119 691.857 233.086 722.321 230.088 752.667L230.081 752.658Z" fill="#598254"/>
<g opacity="0.86">
<path d="M-6.4149 138.584L-1.42264 138.873L3.20293 138.373L7.83493 137.939L12.4669 138.135L17.0989 138.842L21.7309 136.438L26.3565 136.639L30.9885 137.49L35.6205 137.418L40.2525 138.419L44.8845 137.139L49.5165 136.758L54.1485 138.878L58.7805 138.311L63.4061 138.46L68.038 137.33L72.67 137.723L77.302 137.64L81.934 138.811L86.566 136.907L91.198 138.708L95.83 136.809L100.462 138.656L105.094 136.598L109.726 137.888L114.358 137.165L118.99 137.728L123.622 137.723L128.254 138.048L132.886 138.553L137.518 136.959L142.15 138.249L146.782 136.572L151.414 136.546L156.046 136.768L160.684 137.568L165.316 138.543L169.948 137.485L174.58 137.537L179.212 138.765L183.838 138.228L188.47 136.309L193.108 138.853L197.734 136.469L202.366 137.237L206.998 137.222L211.63 138.182L216.262 136.278L220.894 137.372L225.526 136.278L230.164 138.533L234.796 136.964L239.428 137.743L244.06 138.3L248.699 137.237L253.331 137.041L257.969 138.641L262.601 137.465L267.233 136.52L271.872 138.146L276.504 137.929L281.136 136.629L285.774 137.604L290.406 137.083L295.038 137.862L299.677 137.176L304.321 138.362L309.365 138.393L307.918 133.718L306.374 129.941L302.662 127.258L300.133 123.857L294.864 122.856L292.31 119.224L287.801 117.758L283.272 116.509L279.077 114.698L274.741 113.037L269.845 113.006L265.323 111.664L260.729 112.381L256.226 111.762L251.53 110.74L247.142 112.242L242.716 113.124L238.168 113.625L234.172 115.699L229.006 114.734L224.973 116.659L220.945 118.517L216.571 119.306L214.113 116.318L212.402 112.902L210.343 109.574L206.889 107.077L202.964 105.054L200.089 102.247L196.943 99.579L193.443 97.1692L189.21 95.7089L185.298 93.7068L180.345 94.0783L176.227 92.4426L171.673 92.6283L167.272 90.683L162.904 92.4013L158.175 91.5912L154.225 93.7532L150.198 95.229L146.428 97.066L142.234 98.2838L138.644 100.363L134.089 101.566L132.063 105.08L127.572 106.674L126.523 110.575L123.333 114.203L120.515 110.126L116.623 108.16L112.029 107.799L107.648 107.907L103.151 107.123L99.1561 108.867L95.6049 110.838L92.1502 112.835L88.9271 115.4L86.09 112.335L83.5938 109.239L81.2071 105.91L75.9639 105.142L73.3262 101.875L69.3505 100.012L64.6413 99.4603L60.4081 98.3354L56.4516 96.1579L52.0191 94.7182L47.3099 94.5995L42.62 94.8678L38.5026 97.3653L33.8899 97.4995L29.4381 98.3457L25.1406 99.6461L21.7181 102.19L17.4978 103.697L13.7472 105.812L9.78423 107.835L7.5197 111.2L5.71193 114.683L1.48523 116.762L1.36943 120.901L-2.23967 123.501L-3.30117 127.072L-4.95453 130.478L-6.86523 133.95L-6.4149 138.584Z" fill="white"/>
</g>
<g opacity="0.82">
<path d="M1764.66 231.497L1760.16 231.513L1755.56 231.213L1750.96 233.071L1746.36 230.847L1741.76 232.091L1737.16 231.286L1732.56 232.581L1727.95 230.831L1723.35 233.035L1718.75 232.467L1714.15 232.823L1709.55 231.028L1704.95 230.924L1700.34 232.777L1695.74 231.446L1691.13 233.04L1686.53 230.94L1681.93 232.122L1677.33 230.888L1672.73 231.089L1668.12 230.759L1663.52 232.947L1658.92 232.183L1654.32 231.44L1649.72 232.292L1645.12 230.666L1640.52 230.981L1635.92 232.065L1631.32 233.019L1626.71 231.827L1622.11 232.689L1617.51 231.962L1612.9 232.41L1608.31 230.672L1603.7 232.668L1599.1 232.483L1594.49 230.991L1589.89 230.981L1585.29 232.416L1580.68 233.004L1576.08 231.807L1571.47 230.971L1566.87 232.581L1562.27 232.287L1557.66 232.06L1553.06 232.374L1548.46 232.488L1543.85 232.756L1539.24 232.818L1534.64 232.736L1530.03 231.126L1525.92 230.697L1527.06 228.365L1528.97 225.104L1531.36 222.09L1532.42 217.952L1537.21 216.621L1540.77 214.299L1544.85 212.585L1548.67 210.067L1553.6 210.248L1557.95 208.586L1562.76 209.701L1567.32 209.505L1572.01 208.648L1576.72 208.772L1581.36 209.417L1585.45 211.569L1589.88 212.869L1592.12 209.711L1593.6 206.058L1598.25 204.685L1601.36 202.157L1604.92 199.943L1608.83 198.003L1613.6 198.302L1617.8 196.79L1622.28 197.569L1626.47 198.648L1631.09 197.709L1635.44 198.503L1638.61 201.424L1643.65 201.45L1645.52 205.248L1649.06 207.203L1652.1 210.067L1653.58 206.811L1653.87 202.931L1656.05 199.628L1659.42 197.017L1662.3 194.05L1666.03 191.749L1670.99 191.47L1675.06 189.984L1679.45 189.189L1683.91 188.147L1688.43 189.484L1693.24 188.937L1698.29 189.019L1702 191.868L1706.29 193.545L1709.6 196.326L1714.61 197.76L1717.65 200.877L1719.18 204.732L1721.37 208.143L1722.45 212.823L1726.97 209.381L1731.6 209.67L1735.97 211.161L1740.26 211.44L1744.67 211.342L1748.91 212.136L1752.51 214.216L1756.07 216.295L1759.99 218.267L1761.86 221.631L1763.91 224.799L1766.29 228.143L1764.66 231.497Z" fill="white"/>
</g>
</g>
<defs>
<linearGradient id="paint0_linear_1724_3796" x1="962" y1="-150.033" x2="962" y2="337.277" gradientUnits="userSpaceOnUse">
<stop offset="0.31" stop-color="#A4E5F9"/>
<stop offset="0.47" stop-color="#B4E9FA"/>
<stop offset="0.79" stop-color="#DFF5FC"/>
<stop offset="1" stop-color="white"/>
</linearGradient>
<clipPath id="clip0_1724_3796">
<rect width="1923" height="1353" fill="white"/>
</clipPath>
</defs>
</svg>
