<svg width="36" height="35" viewBox="0 0 36 35" fill="none" xmlns="http://www.w3.org/2000/svg">
<path d="M5.5625 1.27759C8.30621 0.102293 11.4911 0.98026 14.3447 3.06177C17.2158 5.15607 19.8868 8.55193 21.7227 12.7366C22.2806 14.0085 22.7296 15.2855 23.0742 16.5422C26.5416 17.0301 29.6045 18.2965 31.792 20.0227C34.0761 21.8252 35.4973 24.2131 35.2148 26.7727C34.93 29.3503 32.9971 31.3819 30.3457 32.6428C27.8484 33.8304 24.6155 34.3926 21.1602 34.1213L20.4668 34.0559C18.3015 33.8188 16.2867 33.2739 14.5215 32.5061C10.1707 31.4081 5.65325 26.9105 2.96875 20.7854C1.13317 16.601 0.451191 12.3512 0.868164 8.84497C1.28285 5.35855 2.81551 2.45437 5.5625 1.27759Z" fill="#FFE799" stroke="#4C241E" stroke-width="1.5" stroke-miterlimit="10"/>
</svg>
