<svg width="114" height="129" viewBox="0 0 114 129" fill="none" xmlns="http://www.w3.org/2000/svg">
<path d="M45.9148 25.0025C34.519 4.66905 17.0777 -5.26968 6.95901 2.80992C-3.15973 10.8895 -2.12091 33.924 9.27487 54.2574C11.704 58.5915 14.4104 62.4462 17.2574 65.763C18.7297 79.6928 23.8457 92.2896 31.0667 97.7423C41.4822 105.604 52.3235 95.6337 55.2837 75.4717C56.4944 67.2207 56.1976 58.5447 54.7096 50.6327C53.6239 42.4752 50.6793 33.503 45.9109 25.0025H45.9148Z" fill="#4C241E"/>
<path d="M99.3944 109.092C102.398 105.463 104.19 101.453 104.421 98.3932C104.612 96.7718 104.538 95.0647 104.155 93.3576C102.62 86.5018 96.7114 82.1989 90.955 83.7423C85.2024 85.2858 81.7813 92.0909 83.3161 98.9466C83.9097 101.593 85.1555 103.858 86.7919 105.553C85.4523 108.375 84.929 111.041 85.3664 112.954C85.464 114.393 86.4013 116.185 87.9283 117.6C90.1114 119.627 92.6655 120.114 93.6301 118.688C94.294 117.709 94.0363 116.08 93.099 114.502C95.1727 113.364 97.3871 111.512 99.3905 109.092H99.3944Z" fill="#DD9E59" stroke="#4C241E" stroke-width="1.5" stroke-miterlimit="10"/>
<path d="M79.1964 54.5497C64.5747 50.6093 47.8794 59.9322 41.912 75.3665C36.5891 89.1365 41.5996 103.113 53.1243 108.768C53.2219 108.846 53.3235 108.928 53.4211 109.006C54.0108 115.683 56.3774 121.213 59.9352 123.548C61.4856 124.783 63.4539 125.863 65.6565 126.592C71.2138 128.428 76.1228 127.332 76.6188 124.14C76.9312 122.133 75.4238 119.779 72.8814 117.846C74.342 115.363 75.5449 112.303 76.3415 108.835C84.4412 105.362 91.4318 98.5139 94.8685 89.6276C100.836 74.1933 93.8218 58.4862 79.2002 54.5458L79.1964 54.5497Z" fill="#DD9E59" stroke="#4C241E" stroke-width="1.5" stroke-miterlimit="10"/>
<path d="M99.2025 60.5948C94.5551 56.3114 89.5406 56.214 87.959 60.3493C90.7591 63.7674 92.579 67.9729 93.2429 72.5642C91.384 74.1777 89.9859 76.3292 89.5641 78.5391C88.7947 82.5847 91.5675 85.2935 95.7579 84.5881C99.6711 83.9294 103.432 80.5268 104.541 76.7852C104.666 76.5552 104.775 76.3058 104.873 76.0408C106.423 71.8197 103.881 64.9055 99.2025 60.5948Z" fill="#FFE799" stroke="#4C241E" stroke-width="1.5" stroke-miterlimit="10"/>
<path d="M105.338 29.0481C103.155 24.5659 99.6243 20.7619 95.223 18.0687C96.3634 17.3984 97.3085 16.3811 97.8747 15.1885C98.648 13.5593 98.687 11.6807 97.9919 10.0125C97.6443 9.17845 97.1522 8.40674 96.5079 7.76754C95.8283 7.09327 94.9575 6.51253 94.0085 6.30596C93.4851 6.19293 92.9228 6.18904 92.419 6.38391C91.9972 6.54761 91.6262 6.80485 91.3255 7.14394C90.7319 7.81821 90.4077 8.67956 90.1695 9.53312C89.8571 10.6439 89.6306 11.7781 89.4783 12.9201C89.4041 13.4774 89.3494 14.0387 89.3142 14.5999C89.2986 14.8338 89.2908 15.0676 89.283 15.3015C86.2837 14.2959 83.0501 13.7464 79.6758 13.7464C73.9975 13.7464 68.7175 15.2976 64.3005 17.9596C64.2654 17.4334 64.2146 16.9073 64.1443 16.385C63.992 15.2391 63.7655 14.1088 63.4531 12.998C63.2109 12.1445 62.8907 11.2831 62.2971 10.6088C61.9964 10.2698 61.6254 10.0125 61.2036 9.84883C60.6998 9.65395 60.1374 9.65785 59.6141 9.77087C58.6651 9.97355 57.7981 10.5582 57.1147 11.2325C56.4703 11.8716 55.9782 12.6395 55.6307 13.4774C54.9394 15.1417 54.9746 17.0242 55.7478 18.6534C56.4391 20.1072 57.6927 21.292 59.1806 21.9156C55.7439 25.2831 53.2718 29.5002 52.1822 34.189C48.5268 37.1316 46.3477 40.8148 46.3477 44.8176C46.3477 52.0943 53.5413 58.3303 63.7538 60.9417C68.2801 63.8064 73.7632 65.4901 79.6719 65.4901C89.1697 65.4901 97.5623 61.1521 102.655 54.5185C108.966 51.3225 113 46.4584 113 41.0096C113 36.3794 110.083 32.1739 105.334 29.052L105.338 29.0481Z" fill="#FFD899" stroke="#4C241E" stroke-width="1.5" stroke-miterlimit="10"/>
<path d="M88.4673 44.6881L88.9543 44.7586C89.735 44.8715 90.2769 45.5958 90.1637 46.375L89.8858 48.2882C89.8387 48.6122 89.5384 48.8326 89.2176 48.7862L87.0687 48.4752C86.744 48.4282 86.5232 48.1285 86.5697 47.8083L86.8476 45.8951C86.9608 45.116 87.6866 44.5751 88.4673 44.6881Z" fill="#FFE6C2"/>
<path d="M97.2323 28.7558C97.1424 28.1322 96.7871 27.5475 96.3067 27.1422C95.9123 26.8109 95.4475 26.577 94.9476 26.464C94.807 26.4056 94.6625 26.3549 94.5102 26.3354C94.3892 26.3198 94.2642 26.3003 94.1431 26.3042C94.1236 26.3042 94.108 26.3081 94.0885 26.312C93.9713 26.312 93.858 26.3198 93.7409 26.3354C93.6823 26.3432 93.6237 26.3588 93.569 26.3744C93.4831 26.3978 93.4011 26.4328 93.3191 26.4679C93.3035 26.4757 93.2879 26.4874 93.2722 26.4952C93.2215 26.5147 93.1707 26.5303 93.1199 26.5537C92.9832 26.6199 92.8622 26.7057 92.7489 26.8031C92.663 26.8772 92.5888 26.9629 92.5224 27.0564C92.5224 27.0564 92.5185 27.0603 92.5146 27.0642C92.5068 27.0759 92.499 27.0915 92.4912 27.1032C92.4755 27.1305 92.456 27.1539 92.4404 27.1773C92.4404 27.1812 92.4404 27.189 92.4365 27.1929C92.2842 27.4462 92.2061 27.7502 92.2256 28.0464C92.2529 28.4635 92.4053 28.8337 92.5732 29.2118C92.8036 29.7379 93.0574 30.2563 93.4324 30.6928C93.8385 31.1644 94.4204 31.4879 95.0531 31.4918C95.674 31.4918 96.3145 31.2073 96.7168 30.7357C96.9433 30.4707 97.1112 30.1589 97.1971 29.8198C97.2869 29.469 97.2908 29.1182 97.2401 28.7597L97.2323 28.7558Z" fill="#4C241E" stroke="#4C241E" stroke-width="1.5" stroke-miterlimit="10"/>
<path d="M77.2298 31.1606C77.218 31.0125 77.2024 30.8644 77.1712 30.7202C77.1634 30.6773 77.1477 30.6344 77.1399 30.5877C77.1243 30.4746 77.1009 30.3616 77.0657 30.2564C76.9798 30.003 76.8548 29.7809 76.683 29.5782C76.5385 29.4106 76.351 29.2664 76.1519 29.169C76.0386 29.1144 75.9215 29.0676 75.8004 29.0325C75.6793 28.9975 75.5505 28.9819 75.4255 28.9663C74.9725 28.9195 74.5116 29.0403 74.1172 29.2625C73.9024 29.3872 73.6993 29.5431 73.5236 29.7185C73.5236 29.7185 73.5236 29.7224 73.5197 29.7263C73.4923 29.7497 73.465 29.7653 73.4416 29.7887C73.1955 30.0069 72.9729 30.2525 72.7581 30.5019C72.5277 30.7708 72.2895 31.0398 72.0981 31.336C71.9927 31.4997 71.9107 31.6712 71.8404 31.8505C71.774 32.018 71.7427 32.1934 71.7232 32.3727C71.6959 32.6378 71.7349 32.9262 71.8482 33.1756C71.8755 33.2964 71.9107 33.4134 71.9732 33.5186C72.02 33.6004 72.0747 33.6706 72.1372 33.7369C72.3637 34.1305 72.7503 34.4072 73.1682 34.5709C73.2073 34.606 73.258 34.6333 73.3127 34.6528C73.5236 34.7268 73.7501 34.7736 73.9727 34.7853C74.1992 34.7931 74.4257 34.7736 74.6483 34.7346C75.0584 34.6684 75.4645 34.5086 75.8121 34.2825C76.1909 34.037 76.5112 33.7135 76.7533 33.3315C76.9954 32.9418 77.1321 32.5091 77.1907 32.057C77.1985 31.9986 77.1946 31.944 77.1985 31.8855C77.1985 31.866 77.2063 31.8427 77.2063 31.8232C77.218 31.7296 77.2219 31.6361 77.2219 31.5464C77.2219 31.5348 77.2219 31.527 77.2219 31.5153C77.2298 31.3944 77.2298 31.2775 77.2219 31.1567L77.2298 31.1606Z" fill="#4C241E" stroke="#4C241E" stroke-width="1.5" stroke-miterlimit="10"/>
<path d="M75.2537 31.597C75.78 31.597 76.2066 31.1904 76.2066 30.6889C76.2066 30.1874 75.78 29.7808 75.2537 29.7808C74.7274 29.7808 74.3008 30.1874 74.3008 30.6889C74.3008 31.1904 74.7274 31.597 75.2537 31.597Z" fill="white"/>
<path d="M93.8513 28.7518C94.3776 28.7518 94.8042 28.3452 94.8042 27.8437C94.8042 27.3421 94.3776 26.9355 93.8513 26.9355C93.3251 26.9355 92.8984 27.3421 92.8984 27.8437C92.8984 28.3452 93.3251 28.7518 93.8513 28.7518Z" fill="white"/>
<path d="M62.1567 19.8032C63.2935 19.365 63.6644 17.5871 62.9852 15.8321C62.3059 14.0772 60.8338 13.0098 59.697 13.448C58.5602 13.8862 58.1893 15.6641 58.8685 17.4191C59.5478 19.174 61.02 20.2415 62.1567 19.8032Z" fill="#430000"/>
<path d="M94.7648 14.6986C95.7073 13.0693 95.6159 11.2555 94.5605 10.6474C93.5051 10.0393 91.8855 10.8672 90.943 12.4965C90.0004 14.1257 90.0919 15.9395 91.1472 16.5476C92.2026 17.1557 93.8222 16.3278 94.7648 14.6986Z" fill="#430000"/>
<path d="M64.5128 57.6677C71.322 57.6677 76.8419 52.4118 76.8419 45.9284C76.8419 39.4449 71.322 34.189 64.5128 34.189C57.7036 34.189 52.1836 39.4449 52.1836 45.9284C52.1836 52.4118 57.7036 57.6677 64.5128 57.6677Z" fill="#FFE6C2"/>
<path d="M103.891 48.2006C108.508 48.2006 112.252 44.5292 112.252 40.0002C112.252 35.4713 108.508 31.7998 103.891 31.7998C99.2728 31.7998 95.5293 35.4713 95.5293 40.0002C95.5293 44.5292 99.2728 48.2006 103.891 48.2006Z" fill="#FFE6C2"/>
<path d="M97.6147 43.3481C97.1109 49.0892 91.4716 53.7428 85.016 53.7428C78.5605 53.7428 73.7374 49.0892 74.2412 43.3481C74.745 37.607 80.3843 32.9534 86.8398 32.9534C93.2954 32.9534 98.1185 37.607 97.6147 43.3481Z" fill="#DD9E59"/>
<path d="M94.2532 43.4806C94.2493 43.4183 94.1712 43.3403 94.1048 43.313C94.0345 43.2819 93.9603 43.2702 93.8744 43.2819C93.6869 43.3013 93.558 43.4144 93.5307 43.5547C93.519 43.6053 93.5112 43.656 93.4994 43.7067C93.4877 43.7496 93.4721 43.7924 93.4604 43.8353C93.4682 43.808 93.476 43.7807 93.4838 43.7574C93.437 43.9211 93.3589 44.077 93.2651 44.229C93.1597 44.381 93.0347 44.5252 92.8941 44.6577C92.7457 44.7863 92.5778 44.9032 92.402 45.0046C92.238 45.0903 92.0662 45.1644 91.8865 45.2228C91.7186 45.2735 91.5429 45.3086 91.3671 45.3281C91.1875 45.3437 91.0078 45.3437 90.8321 45.3281C90.6251 45.3047 90.4259 45.2618 90.2385 45.2033C90.051 45.1371 89.8753 45.0552 89.7152 44.9578C89.5629 44.8565 89.4223 44.7434 89.3051 44.6148C89.2075 44.5018 89.1255 44.381 89.0669 44.2484C89.0513 44.2095 89.0356 44.1744 89.0239 44.1354C89.0161 44.1159 89.0044 44.1003 88.9927 44.0808C89.0786 43.9288 89.1606 43.7768 89.2231 43.6248C89.4145 43.1688 89.516 42.6894 89.5394 42.2217C89.5511 41.9606 89.5394 41.7033 89.516 41.45C89.4926 41.2162 89.4613 40.9823 89.3949 40.7562C89.3637 40.6549 89.3363 40.5536 89.3012 40.4522C91.4023 40.0898 93.062 38.8192 93.2182 37.303C93.4057 35.5063 91.4218 34.0486 88.7779 34.0486C86.134 34.0486 83.8415 35.5063 83.6541 37.303C83.4666 39.0998 85.4505 40.5575 88.0944 40.5575C88.2546 40.5575 88.4108 40.5497 88.567 40.5419C88.567 40.5497 88.567 40.5575 88.567 40.5653C88.6061 40.7835 88.6373 41.0057 88.6724 41.224C88.6881 41.337 88.7037 41.45 88.7154 41.563C88.7154 41.5903 88.7193 41.6176 88.7232 41.6488C88.7232 41.6527 88.7232 41.6488 88.7232 41.6527C88.7232 41.6527 88.7232 41.6527 88.7232 41.6605C88.7232 41.7189 88.731 41.7735 88.731 41.832C88.7388 42.058 88.731 42.2841 88.7037 42.5101C88.692 42.6193 88.6724 42.7284 88.649 42.8375C88.6373 42.8921 88.6256 42.9506 88.61 43.0051C88.61 43.0168 88.5865 43.0909 88.5982 43.048C88.6139 43.0051 88.5982 43.0558 88.5943 43.0675C88.5904 43.0831 88.5865 43.0987 88.5787 43.1143C88.5201 43.3013 88.4459 43.4845 88.3561 43.6638C88.3131 43.7535 88.2624 43.8392 88.2116 43.9249C88.1999 43.9444 88.1882 43.96 88.1765 43.9795C88.1765 43.9834 88.1647 43.999 88.1569 44.0068C88.1335 44.0419 88.1101 44.077 88.0827 44.112C87.9617 44.2796 87.825 44.4394 87.6727 44.5914C87.6375 44.6265 87.6024 44.6616 87.5633 44.6967C87.5477 44.7123 87.5282 44.7278 87.5126 44.7434C87.5907 44.6694 87.5125 44.7395 87.4969 44.7551C87.4149 44.8253 87.329 44.8954 87.2392 44.9578C87.1493 45.0241 87.0556 45.0864 86.958 45.1449C86.9385 45.1566 86.915 45.1683 86.8955 45.1839C86.8877 45.1878 86.8799 45.1917 86.876 45.1955C86.8291 45.2189 86.7823 45.2462 86.7354 45.2696C86.6339 45.3203 86.5284 45.367 86.4191 45.4099C86.3683 45.4294 86.3214 45.4489 86.2707 45.4645C86.2472 45.4723 86.2199 45.4801 86.1965 45.4918C86.1965 45.4918 86.1886 45.4918 86.1847 45.4918C85.9621 45.558 85.7356 45.6048 85.5052 45.636C85.4818 45.636 85.4622 45.6399 85.4388 45.6438C85.4349 45.6438 85.4388 45.6438 85.431 45.6438C85.3724 45.6477 85.3138 45.6516 85.2592 45.6555C85.1459 45.6594 85.0288 45.6594 84.9155 45.6555C84.8608 45.6555 84.8101 45.6516 84.7593 45.6477C84.7476 45.6477 84.7085 45.6438 84.6968 45.6438C84.689 45.6438 84.6812 45.6438 84.6773 45.6438C84.5679 45.6282 84.4586 45.6126 84.3531 45.5853C84.3024 45.5736 84.2555 45.5619 84.2086 45.5502C84.1813 45.5424 84.1579 45.5346 84.1305 45.5268C84.1188 45.5268 84.0993 45.5151 84.0837 45.5112C84.0016 45.4801 83.9157 45.4489 83.8376 45.4099C83.7947 45.3904 83.7517 45.367 83.7126 45.3437C83.6892 45.332 83.6697 45.3203 83.6463 45.3047C83.6385 45.3008 83.6267 45.293 83.6189 45.2891C83.6267 45.2891 83.6267 45.293 83.6306 45.2969C83.5564 45.2462 83.4861 45.1955 83.4237 45.1371C83.3924 45.1098 83.3651 45.0825 83.3377 45.0513C83.3221 45.0358 83.3104 45.0163 83.2948 45.0007C83.244 44.9344 83.1972 44.8682 83.1581 44.7941C83.1503 44.7785 83.1425 44.7629 83.1347 44.7473C83.1347 44.7434 83.1269 44.7317 83.123 44.72C83.119 44.7084 83.1151 44.7006 83.1112 44.6967C83.1034 44.6772 83.0956 44.6577 83.0917 44.6421C83.0644 44.568 83.0448 44.4901 83.0331 44.4121C83.0253 44.3771 83.0214 44.3381 83.0175 44.303C83.0175 44.2874 83.0175 44.2679 83.0175 44.2523C83.0175 44.1744 83.0214 44.0964 83.0331 44.0146C83.037 43.9795 83.0448 43.9405 83.0526 43.9055C83.0526 43.8977 83.0526 43.8938 83.0566 43.886C83.0605 43.8704 83.0644 43.8587 83.0683 43.8431C83.0917 43.769 83.1229 43.695 83.162 43.6248C83.1776 43.5937 83.1971 43.5625 83.2167 43.5274C83.2323 43.5079 83.244 43.4884 83.2596 43.4689C83.3104 43.4027 83.369 43.3403 83.4315 43.278C83.4315 43.278 83.4393 43.2702 83.4432 43.2663C83.4588 43.2546 83.4705 43.2429 83.4861 43.2312C83.5213 43.2 83.5603 43.1727 83.6033 43.1454C83.7556 43.0402 83.7869 42.8375 83.6463 42.7323C83.5018 42.6232 83.2753 42.6232 83.1073 42.7323C82.3341 43.2429 82.0724 44.0808 82.2911 44.7746C82.4044 45.1254 82.627 45.4567 82.9667 45.6983C83.3377 45.9634 83.8025 46.1465 84.3141 46.2245C84.8335 46.3024 85.3802 46.2947 85.9114 46.1933C86.4503 46.0959 86.9424 45.901 87.3954 45.6438C87.8133 45.406 88.1765 45.1098 88.4733 44.7785C88.6139 44.9968 88.8013 45.1956 89.0317 45.3554C89.4301 45.636 89.93 45.8503 90.4806 45.9283C90.7579 45.9673 91.043 45.9828 91.3281 45.9595C91.6561 45.9283 91.9568 45.8659 92.2654 45.7646C92.8082 45.5853 93.2807 45.2735 93.64 44.9149C93.8392 44.7123 94.0032 44.4862 94.1165 44.2523C94.2415 43.999 94.2922 43.7262 94.2688 43.465L94.2532 43.4806Z" fill="#4C241E"/>
</svg>
