<svg width="347" height="1173" viewBox="0 0 347 1173" fill="none" xmlns="http://www.w3.org/2000/svg">
<path d="M338.5 1.50005C338.5 1.50005 341.547 4.76157 341.547 11.7968C341.547 18.832 341.834 109.506 341.547 112.267C341.259 115.027 338.212 154.722 338.341 159.485C338.399 161.783 340.224 195.675 343.875 229.837C347.886 267.413 339.951 318.752 339.103 338.099C338.514 351.707 342.452 409.452 341.935 428.491C341.633 439.403 339.003 498.817 338.169 501.077C337.335 503.336 339.031 541.773 339.031 551.055C339.031 560.337 337.623 564.625 337.91 567.128C339.606 582.29 343.53 609.134 343.43 632.628C343.372 645.376 338.068 694.815 336.113 707.1C334.158 719.386 336.085 732.879 336.631 735.421C337.709 740.325 340.713 757.528 339.319 766.823C337.924 776.117 339.031 787.415 338.198 791.947C336.458 801.254 339.52 804.656 340.167 816.313C340.641 825.004 340.584 832.091 340.454 836.661C340.411 840.436 340.282 846.097 339.894 852.991C339.074 867.344 339.304 932.176 337.637 942.163C334.92 958.403 340.009 964.181 338.787 985.325C338.284 993.939 337.465 992.681 336.803 1002.95C335.941 1016.19 336.372 1024.21 337.651 1035.35C337.968 1038.18 337.536 1059.32 334.547 1080.09C332.16 1096.57 339.534 1112.9 339.908 1117.49C340.756 1127.79 341.029 1138.84 339.621 1145.88C338.212 1152.91 340 1171.5 340 1171.5L2.00048 1171L1.50049 1.5L338.5 1.50005Z" fill="#E5B17F" stroke="#742209" stroke-width="3" stroke-miterlimit="10"/>
<path d="M336.5 0C336.5 0 340.537 3.77117 340.537 10.8244C340.537 17.8776 340.825 108.785 340.537 111.552C340.248 114.319 337.192 154.116 337.322 158.891C337.38 161.195 339.21 195.174 342.872 229.423C346.894 267.096 338.937 318.567 338.086 337.963C337.495 351.607 341.445 409.5 340.926 428.587C340.623 439.527 337.985 499.094 337.149 501.359C336.313 503.624 338.014 542.16 338.014 551.465C338.014 560.771 336.601 565.07 336.889 567.58C338.591 582.78 342.526 609.693 342.425 633.247C342.368 646.028 337.048 695.593 335.087 707.911C333.127 720.228 335.059 733.756 335.606 736.304C336.688 741.221 339.701 758.468 338.302 767.786C336.904 777.105 338.014 788.431 337.178 792.975C335.433 802.306 338.504 805.717 339.153 817.403C339.628 826.117 339.571 833.222 339.441 837.804C339.398 841.588 339.268 847.264 338.879 854.176C338.057 868.565 338.288 933.563 336.616 943.577C333.891 959.858 338.994 965.65 337.769 986.849C337.264 995.485 336.443 994.224 335.779 1004.52C334.914 1017.79 335.347 1025.83 336.63 1037.01C336.947 1039.84 336.515 1061.04 333.516 1081.86C331.123 1098.37 338.518 1114.75 338.893 1119.35C339.744 1129.68 340.018 1140.76 338.605 1147.81C337.192 1154.86 338.893 1173 338.893 1173H0.000488281V0H336.5Z" fill="#E5B17F"/>
</svg>
