<svg width="81" height="89" viewBox="0 0 81 89" fill="none" xmlns="http://www.w3.org/2000/svg">
<path d="M47.9941 17.1918C56.0619 3.21055 68.4096 -3.62331 75.5733 1.93222C82.737 7.48774 82.0015 23.3262 73.9338 37.3075C72.214 40.2876 70.298 42.938 68.2824 45.2187C67.2401 54.7968 63.6182 63.4583 58.506 67.2076C51.1322 72.613 43.4571 65.7577 41.3613 51.8944C40.5042 46.221 40.7143 40.2554 41.7677 34.8151C42.5364 29.206 44.621 23.0368 47.9969 17.1918H47.9941Z" fill="#4C241E"/>
<path d="M10.1327 75.0111C8.00657 72.5161 6.73752 69.7584 6.57439 67.6547C6.43892 66.5398 6.49145 65.366 6.76241 64.1922C7.84899 59.4782 12.0322 56.5195 16.1075 57.5808C20.1801 58.642 22.6021 63.3212 21.5155 68.0352C21.0953 69.8549 20.2133 71.4119 19.0548 72.5777C20.0032 74.518 20.3737 76.3511 20.064 77.6669C19.9949 78.6558 19.3313 79.8886 18.2503 80.8614C16.7047 82.255 14.8965 82.59 14.2136 81.6091C13.7436 80.9365 13.9261 79.8163 14.5896 78.7309C13.1215 77.9483 11.5539 76.6754 10.1355 75.0111H10.1327Z" fill="#DD9E59" stroke="#4C241E" stroke-miterlimit="10"/>
<path d="M24.4323 37.5085C34.7838 34.799 46.6035 41.2095 50.8281 51.822C54.5966 61.2903 51.0493 70.9006 42.8903 74.7891C42.8212 74.8427 42.7493 74.899 42.6802 74.9526C42.2627 79.5434 40.5872 83.3462 38.0684 84.9515C36.9708 85.801 35.5773 86.5434 34.018 87.0445C30.0836 88.3068 26.6082 87.5537 26.2571 85.3588C26.0359 83.9787 27.1031 82.36 28.903 81.0307C27.869 79.3236 27.0174 77.2199 26.4534 74.8347C20.7191 72.4469 15.7701 67.7382 13.337 61.6279C9.11238 51.0154 14.078 40.2152 24.4295 37.5058L24.4323 37.5085Z" fill="#DD9E59" stroke="#4C241E" stroke-miterlimit="10"/>
<path d="M10.2682 41.665C13.5584 38.7197 17.1084 38.6528 18.2281 41.4962C16.2458 43.8465 14.9574 46.7381 14.4873 49.8951C15.8034 51.0046 16.7932 52.4839 17.0918 54.0035C17.6365 56.7852 15.6735 58.6478 12.7068 58.1627C9.93644 57.7098 7.2739 55.3702 6.48869 52.7975C6.40022 52.6394 6.3228 52.4679 6.25368 52.2856C5.15604 49.3832 6.95595 44.629 10.2682 41.665Z" fill="#FFE799" stroke="#4C241E" stroke-miterlimit="10"/>
<path d="M46.1611 37.9977C46.3211 37.5116 46.7374 36.0671 47.1707 35.0914C49.6938 29.4094 54.5263 25.9393 57.9639 27.3426C61.4015 28.7459 62.1441 34.4923 59.621 40.1743C57.7573 44.3754 54.6304 47.3626 51.7374 48.0702C50.5215 48.5981 49.1222 48.9771 47.6109 49.1478C42.4721 49.7308 38.0073 47.7044 37.6361 44.6222C37.2677 41.5613 41.075 38.6099 46.1611 37.9977Z" fill="#FFE799" stroke="#4C241E" stroke-miterlimit="10"/>
<path d="M6.3781 19.684C7.92364 16.6021 9.96959 14.2759 13.0856 12.4241C12.2782 11.9631 11.6091 11.2636 11.2082 10.4436C10.6608 9.32336 10.6332 8.03163 11.1253 6.88461C11.3714 6.3111 11.7197 5.78047 12.1759 5.34096C12.657 4.87733 13.2736 4.47802 13.9454 4.33598C14.3159 4.25826 14.714 4.25558 15.0707 4.38958C15.3693 4.50214 15.632 4.67902 15.8448 4.91217C16.2651 5.3758 16.4946 5.96807 16.6632 6.55498C16.8844 7.31876 17.0448 8.09862 17.1526 8.88385C17.2051 9.26708 17.2439 9.65299 17.2687 10.0389C17.2798 10.1997 17.2853 10.3605 17.2909 10.5213C19.4142 9.82987 21.7035 9.452 24.0923 9.452C28.1124 9.452 31.8504 10.5186 34.9775 12.349C35.0023 11.9872 35.0383 11.6254 35.0881 11.2663C35.1959 10.4784 35.3562 9.70123 35.5774 8.93744C35.7488 8.35054 35.9756 7.75827 36.3958 7.29464C36.6087 7.06149 36.8714 6.88461 37.17 6.77205C37.5266 6.63806 37.9248 6.64073 38.2953 6.71845C38.9671 6.85781 39.5809 7.2598 40.0647 7.72343C40.5209 8.16294 40.8693 8.69089 41.1154 9.26708C41.6048 10.4114 41.5799 11.7058 41.0324 12.826C40.5431 13.8257 39.6555 14.6404 38.6021 15.0692C41.0352 17.3846 42.7853 20.2843 43.5567 23.5083C46.1446 25.5317 47.6874 28.0642 47.6874 30.8165C47.6874 35.82 42.5946 40.1079 35.3645 41.9034C32.1601 43.8732 28.2783 45.0309 24.0951 45.0309C17.371 45.0309 11.4294 42.0481 7.82409 37.4869C3.35612 35.2893 0.500051 31.9448 0.500051 28.1982C0.500051 25.0144 2.56538 22.1228 5.92741 19.9761L6.3781 19.684Z" fill="#FFD899" stroke="#4C241E" stroke-miterlimit="10"/>
<path d="M17.8678 30.7274L17.523 30.7759C16.9703 30.8535 16.5866 31.3516 16.6668 31.8873L16.8636 33.2028C16.8969 33.4256 17.1095 33.5772 17.3366 33.5452L18.858 33.3314C19.0878 33.2991 19.2442 33.093 19.2112 32.8729L19.0145 31.5574C18.9343 31.0216 18.4205 30.6497 17.8678 30.7274Z" fill="#FFE6C2"/>
<path d="M11.6645 19.7723C11.728 19.3435 11.9796 18.9416 12.3197 18.6628C12.599 18.435 12.928 18.2742 13.2819 18.1965C13.3814 18.1563 13.4837 18.1215 13.5915 18.1081C13.6773 18.0974 13.7657 18.084 13.8514 18.0867C13.8653 18.0867 13.8763 18.0893 13.8901 18.092C13.9731 18.092 14.0533 18.0974 14.1362 18.1081C14.1777 18.1134 14.2192 18.1242 14.2579 18.1349C14.3187 18.151 14.3768 18.1751 14.4348 18.1992C14.4459 18.2046 14.4569 18.2126 14.468 18.218C14.5039 18.2314 14.5399 18.2421 14.5758 18.2582C14.6726 18.3037 14.7583 18.3627 14.8385 18.4297C14.8993 18.4806 14.9518 18.5396 14.9988 18.6039C14.9988 18.6039 15.0016 18.6066 15.0044 18.6092C15.0099 18.6173 15.0154 18.628 15.021 18.636C15.032 18.6548 15.0458 18.6709 15.0569 18.687C15.0569 18.6896 15.0569 18.695 15.0597 18.6977C15.1675 18.8719 15.2228 19.0809 15.209 19.2846C15.1896 19.5713 15.0818 19.8259 14.9629 20.0859C14.7998 20.4477 14.6201 20.8041 14.3546 21.1043C14.0671 21.4285 13.6551 21.651 13.2072 21.6537C12.7676 21.6537 12.3142 21.458 12.0294 21.1337C11.8691 20.9515 11.7502 20.7371 11.6893 20.504C11.6257 20.2628 11.623 20.0216 11.6589 19.775L11.6645 19.7723Z" fill="#4C241E" stroke="#4C241E" stroke-miterlimit="10"/>
<path d="M25.8254 21.4261C25.8337 21.3242 25.8447 21.2224 25.8669 21.1232C25.8724 21.0938 25.8835 21.0643 25.889 21.0321C25.9001 20.9544 25.9166 20.8767 25.9415 20.8043C26.0024 20.6301 26.0908 20.4774 26.2125 20.338C26.3148 20.2228 26.4475 20.1236 26.5885 20.0566C26.6687 20.0191 26.7516 19.9869 26.8373 19.9628C26.923 19.9387 27.0143 19.928 27.1027 19.9173C27.4235 19.8851 27.7497 19.9682 28.029 20.1209C28.181 20.2067 28.3248 20.3139 28.4492 20.4345C28.4492 20.4345 28.4492 20.4372 28.452 20.4399C28.4713 20.4559 28.4907 20.4667 28.5073 20.4827C28.6815 20.6328 28.8391 20.8016 28.9911 20.9732C29.1543 21.1581 29.3229 21.343 29.4584 21.5467C29.533 21.6592 29.5911 21.7771 29.6409 21.9004C29.6879 22.0157 29.71 22.1363 29.7238 22.2595C29.7432 22.4418 29.7155 22.6401 29.6353 22.8116C29.616 22.8947 29.5911 22.9751 29.5469 23.0474C29.5137 23.1037 29.475 23.1519 29.4307 23.1975C29.2704 23.4682 28.9967 23.6585 28.7008 23.771C28.6732 23.7951 28.6372 23.8139 28.5985 23.8273C28.4492 23.8782 28.2889 23.9104 28.1313 23.9184C27.9709 23.9238 27.8105 23.9104 27.653 23.8836C27.3626 23.838 27.0751 23.7281 26.829 23.5727C26.5608 23.4039 26.3341 23.1814 26.1627 22.9188C25.9913 22.6508 25.8945 22.3533 25.853 22.0425C25.8475 22.0023 25.8503 21.9647 25.8475 21.9245C25.8475 21.9111 25.842 21.8951 25.842 21.8817C25.8337 21.8173 25.8309 21.753 25.8309 21.6914C25.8309 21.6833 25.8309 21.678 25.8309 21.6699C25.8254 21.5869 25.8254 21.5065 25.8309 21.4234L25.8254 21.4261Z" fill="#4C241E" stroke="#4C241E" stroke-miterlimit="10"/>
<path d="M27.2249 21.726C26.8523 21.726 26.5503 21.4465 26.5503 21.1016C26.5503 20.7567 26.8523 20.4772 27.2249 20.4772C27.5975 20.4772 27.8995 20.7567 27.8995 21.1016C27.8995 21.4465 27.5975 21.726 27.2249 21.726Z" fill="white"/>
<path d="M14.0559 19.7696C13.6833 19.7696 13.3812 19.49 13.3812 19.1452C13.3812 18.8003 13.6833 18.5208 14.0559 18.5208C14.4284 18.5208 14.7305 18.8003 14.7305 19.1452C14.7305 19.49 14.4284 19.7696 14.0559 19.7696Z" fill="white"/>
<path d="M36.4956 13.6164C35.6908 13.3151 35.4282 12.0926 35.9091 10.8859C36.39 9.67917 37.4322 8.9452 38.237 9.24652C39.0418 9.54784 39.3044 10.7703 38.8235 11.9771C38.3426 13.1838 37.3004 13.9177 36.4956 13.6164Z" fill="#430000"/>
<path d="M13.4105 10.1067C12.7433 8.98638 12.808 7.73925 13.5552 7.32112C14.3023 6.903 15.4489 7.47221 16.1162 8.5925C16.7835 9.71279 16.7188 10.9599 15.9716 11.3781C15.2245 11.7962 14.0778 11.227 13.4105 10.1067Z" fill="#430000"/>
<path d="M34.8281 39.6523C30.0074 39.6523 26.0995 36.0383 26.0995 31.5803C26.0995 27.1223 30.0074 23.5083 34.8281 23.5083C39.6487 23.5083 43.5566 27.1223 43.5566 31.5803C43.5566 36.0383 39.6487 39.6523 34.8281 39.6523Z" fill="#FFE6C2"/>
<path d="M6.95013 33.1426C3.68088 33.1426 1.03063 30.6181 1.03063 27.504C1.03063 24.3898 3.68088 21.8654 6.95013 21.8654C10.2194 21.8654 12.8696 24.3898 12.8696 27.504C12.8696 30.6181 10.2194 33.1426 6.95013 33.1426Z" fill="#FFE6C2"/>
<path d="M11.3934 29.8059C11.75 33.7534 15.7424 36.9533 20.3127 36.9533C24.8829 36.9533 28.2975 33.7534 27.9408 29.8059C27.5842 25.8583 23.5918 22.6584 19.0215 22.6584C14.4513 22.6584 11.0367 25.8583 11.3934 29.8059Z" fill="#DD9E59"/>
<path d="M13.7713 29.8976C13.7741 29.8547 13.8294 29.8011 13.8764 29.7823C13.9262 29.7609 13.9787 29.7529 14.0395 29.7609C14.1722 29.7743 14.2635 29.852 14.2828 29.9485C14.2911 29.9833 14.2966 30.0182 14.3049 30.053C14.3132 30.0825 14.3243 30.112 14.3326 30.1414C14.3271 30.1227 14.3215 30.1039 14.316 30.0878C14.3492 30.2004 14.4045 30.3076 14.4708 30.4121C14.5455 30.5166 14.634 30.6158 14.7335 30.7069C14.8385 30.7954 14.9574 30.8757 15.0819 30.9454C15.198 31.0044 15.3196 31.0553 15.4468 31.0955C15.5657 31.1303 15.6901 31.1545 15.8145 31.1679C15.9417 31.1786 16.0689 31.1786 16.1933 31.1679C16.3398 31.1518 16.4809 31.1223 16.6136 31.0821C16.7463 31.0365 16.8707 30.9803 16.984 30.9133C17.0919 30.8436 17.1914 30.7659 17.2744 30.6774C17.3435 30.5997 17.4015 30.5166 17.443 30.4255C17.4541 30.3987 17.4651 30.3746 17.4734 30.3478C17.479 30.3344 17.4873 30.3237 17.4955 30.3103C17.4347 30.2058 17.3767 30.1012 17.3324 29.9967C17.1969 29.6832 17.1251 29.3535 17.1085 29.032C17.1002 28.8524 17.1085 28.6755 17.1251 28.5013C17.1416 28.3405 17.1638 28.1797 17.2108 28.0243C17.2329 27.9546 17.2522 27.8849 17.2771 27.8153C15.7897 27.566 14.6146 26.6924 14.504 25.6499C14.3713 24.4144 15.7758 23.4121 17.6476 23.4121C19.5194 23.4121 21.1424 24.4144 21.2751 25.6499C21.4078 26.8853 20.0032 27.8876 18.1315 27.8876C18.0181 27.8876 17.9075 27.8823 17.7969 27.8769C17.7969 27.8823 17.7969 27.8876 17.7969 27.893C17.7693 28.0431 17.7471 28.1958 17.7223 28.3459C17.7112 28.4236 17.7001 28.5013 17.6919 28.579C17.6919 28.5978 17.6891 28.6166 17.6863 28.638C17.6863 28.6407 17.6863 28.638 17.6863 28.6407C17.6863 28.6407 17.6863 28.6407 17.6863 28.646C17.6863 28.6862 17.6808 28.7238 17.6808 28.764C17.6753 28.9194 17.6808 29.0748 17.7001 29.2303C17.7084 29.3053 17.7223 29.3803 17.7389 29.4554C17.7471 29.4929 17.7554 29.5331 17.7665 29.5706C17.7665 29.5787 17.7831 29.6296 17.7748 29.6001C17.7637 29.5706 17.7748 29.6055 17.7776 29.6135C17.7803 29.6242 17.7831 29.6349 17.7886 29.6457C17.8301 29.7743 17.8826 29.9002 17.9462 30.0235C17.9766 30.0852 18.0126 30.1441 18.0485 30.2031C18.0568 30.2165 18.0651 30.2272 18.0734 30.2406C18.0734 30.2433 18.0817 30.254 18.0872 30.2594C18.1038 30.2835 18.1204 30.3076 18.1398 30.3317C18.2255 30.447 18.3222 30.5568 18.4301 30.6614C18.4549 30.6855 18.4798 30.7096 18.5075 30.7337C18.5185 30.7444 18.5324 30.7552 18.5434 30.7659C18.4881 30.715 18.5434 30.7632 18.5545 30.7739C18.6125 30.8222 18.6734 30.8704 18.737 30.9133C18.8005 30.9588 18.8669 31.0017 18.936 31.0419C18.9499 31.0499 18.9664 31.058 18.9803 31.0687C18.9858 31.0714 18.9913 31.0741 18.9941 31.0767C19.0273 31.0928 19.0604 31.1116 19.0936 31.1277C19.1655 31.1625 19.2402 31.1947 19.3176 31.2241C19.3535 31.2375 19.3867 31.2509 19.4226 31.2617C19.4392 31.267 19.4586 31.2724 19.4752 31.2804C19.4752 31.2804 19.4807 31.2804 19.4835 31.2804C19.6411 31.326 19.8014 31.3581 19.9645 31.3796C19.9811 31.3796 19.995 31.3823 20.0115 31.3849C20.0143 31.3849 20.0115 31.3849 20.0171 31.3849C20.0585 31.3876 20.1 31.3903 20.1387 31.393C20.2189 31.3957 20.3018 31.3957 20.382 31.393C20.4207 31.393 20.4567 31.3903 20.4926 31.3876C20.5009 31.3876 20.5286 31.3849 20.5369 31.3849C20.5424 31.3849 20.5479 31.3849 20.5507 31.3849C20.6281 31.3742 20.7055 31.3635 20.7802 31.3447C20.8161 31.3367 20.8493 31.3287 20.8825 31.3206C20.9018 31.3153 20.9184 31.3099 20.9378 31.3045C20.9461 31.3045 20.9599 31.2965 20.9709 31.2938C21.029 31.2724 21.0898 31.2509 21.1451 31.2241C21.1755 31.2107 21.206 31.1947 21.2336 31.1786C21.2502 31.1705 21.264 31.1625 21.2806 31.1518C21.2861 31.1491 21.2944 31.1437 21.3 31.1411C21.2944 31.1411 21.2944 31.1437 21.2917 31.1464C21.3442 31.1116 21.394 31.0767 21.4382 31.0365C21.4603 31.0178 21.4797 30.999 21.499 30.9776C21.5101 30.9669 21.5184 30.9535 21.5294 30.9428C21.5654 30.8972 21.5986 30.8516 21.6262 30.8007C21.6317 30.79 21.6373 30.7793 21.6428 30.7685C21.6428 30.7659 21.6483 30.7578 21.6511 30.7498C21.6538 30.7418 21.6566 30.7364 21.6594 30.7337C21.6649 30.7203 21.6704 30.7069 21.6732 30.6962C21.6926 30.6453 21.7064 30.5917 21.7147 30.5381C21.7202 30.514 21.723 30.4872 21.7257 30.463C21.7257 30.4523 21.7257 30.4389 21.7257 30.4282C21.7257 30.3746 21.723 30.321 21.7147 30.2647C21.7119 30.2406 21.7064 30.2138 21.7009 30.1897C21.7009 30.1843 21.7009 30.1816 21.6981 30.1763C21.6953 30.1656 21.6926 30.1575 21.6898 30.1468C21.6732 30.0959 21.6511 30.045 21.6234 29.9967C21.6124 29.9753 21.5986 29.9539 21.5847 29.9297C21.5737 29.9163 21.5654 29.9029 21.5543 29.8895C21.5184 29.844 21.4769 29.8011 21.4327 29.7582C21.4327 29.7582 21.4271 29.7529 21.4244 29.7502C21.4133 29.7421 21.405 29.7341 21.394 29.7261C21.3691 29.7046 21.3414 29.6859 21.311 29.6671C21.2032 29.5947 21.1811 29.4554 21.2806 29.383C21.3829 29.308 21.5433 29.308 21.6621 29.383C22.2096 29.7341 22.3948 30.3103 22.24 30.7873C22.1598 31.0285 22.0022 31.2563 21.7617 31.4225C21.499 31.6047 21.17 31.7307 20.8078 31.7842C20.4401 31.8378 20.053 31.8325 19.677 31.7628C19.2955 31.6958 18.9471 31.5618 18.6264 31.3849C18.3305 31.2215 18.0734 31.0178 17.8633 30.79C17.7637 30.9401 17.631 31.0767 17.4679 31.1866C17.1859 31.3796 16.832 31.527 16.4421 31.5806C16.2458 31.6074 16.044 31.6181 15.8422 31.602C15.6099 31.5806 15.397 31.5377 15.1786 31.468C14.7943 31.3447 14.4598 31.1303 14.2054 30.8838C14.0644 30.7444 13.9483 30.589 13.8681 30.4282C13.7796 30.254 13.7437 30.0664 13.7603 29.8869L13.7713 29.8976Z" fill="#4C241E"/>
</svg>
