<svg width="33" height="36" viewBox="0 0 33 36" fill="none" xmlns="http://www.w3.org/2000/svg">
<path d="M27 1C26.1779 2.05425 23.88 5.30014 22.1355 8.2464C21.1686 9.87949 20.1533 11.1878 18.9214 12.6872C15.0396 17.412 14.624 19.0127 13.8378 20.2785C13.1319 21.415 11.9844 22.4371 11.1957 23.7029C10.6428 24.5905 10.0827 26.1013 8.96962 28.1853C8.36726 29.3132 7.60647 29.9416 4.76752 32.6653C3.06514 33.9384 2.48819 34.3469 1.99418 34.5096C1.74532 34.5915 1.50018 34.6722 1 35" stroke="#742209" stroke-width="2" stroke-linecap="round"/>
<path d="M2 1C2.57999 1.57999 4.24 2.91 5.2475 3.78875C6.42711 4.81761 8.07499 7.155 11.985 11.36C13.5478 13.0407 16.23 15.48 18.37 18.035C19.1716 18.992 19.995 19.995 20.9125 21.41C22.4014 23.7062 23.58 24.745 24.495 25.8688C26.6545 28.521 28.735 31.23 30.62 33.37C30.915 33.665 31.08 33.83 31.2888 33.915C31.4975 34 31.745 34 32 34" stroke="#742209" stroke-width="2" stroke-linecap="round"/>
</svg>
