<svg width="352" height="358" viewBox="0 0 352 358" fill="none" xmlns="http://www.w3.org/2000/svg">
<path d="M182.234 3.5586L180.972 56.4656C180.972 56.4656 187.152 59.2111 194.106 60.2605C199.756 61.1192 205.799 60.6846 207.908 60.5892C212.689 60.3771 222.685 58.8613 222.823 58.8613C222.961 58.8613 223.258 52.0134 222.473 49.7343C221.636 47.3386 219.611 3.59039 219.484 2.35013C219.325 0.685856 214.502 1.67169 211.364 1.7459C209.954 1.7777 203.382 0.87665 196.661 1.10986C189.94 1.34307 186.58 0.664653 184.057 1.05687C183.379 1.15228 181.979 2.65755 181.979 2.65755L182.223 3.5586H182.234Z" fill="white"/>
<path d="M184.142 329.407L184.481 349.081C184.481 349.081 189.93 350.841 193.174 351.361C196.418 351.88 217.958 350.788 220.682 349.622C223.406 348.456 223.799 348.435 223.756 347.067C223.703 345.7 223.756 325.994 223.756 325.994C223.756 325.994 224.095 325.506 221.519 326.598C218.933 327.69 216.474 328.93 214.894 329.152C213.315 329.375 210.696 329.958 208.544 330.244C206.393 330.531 201.559 330.902 199.11 330.849C196.661 330.796 192.4 329.99 190.354 329.725C188.308 329.46 183.824 328.241 183.824 328.241L184.142 329.439V329.407Z" fill="#FFA599"/>
<path d="M123.963 352.081C123.963 352.081 142.206 357.265 146.913 356.915C151.62 356.555 161.075 356.353 163.227 355.717C165.379 355.081 180.771 351.7 181.937 350.883C183.103 350.067 184.078 349.251 184.036 348.382C183.994 347.512 183.824 327.849 183.824 327.849L183.527 288.584C183.527 288.584 183.421 287.673 182.054 288.277C180.686 288.881 174.888 290.969 172.513 291.033C170.139 291.097 161.34 291.902 158.563 292.125C155.786 292.348 148.694 292.104 145.397 291.817C142.09 291.531 135.698 291.097 133.281 290.832C130.864 290.567 123.497 288.489 123.497 288.489L123.974 352.092L123.963 352.081Z" fill="#CCD4DC"/>
<path d="M181.237 78.7797L184.142 328.209L195.251 330.531L203.753 331.039L211.332 329.545L223.427 326.29L223.364 262.009L223.173 208.074L223.554 146.644L223.766 113.846L223.13 87.7371L223.343 77.4122C223.343 77.4122 212.053 80.2107 209.551 80.4227C208.184 80.5287 199.852 81.9068 192.527 81.2814C186.527 80.7619 181.237 78.8009 181.237 78.8009V78.7797Z" fill="#FFE197"/>
<path d="M68.162 100.458L67.6213 349.05C67.6213 349.05 69.1796 351.17 71.7343 352.039C74.289 352.908 81.2111 354.784 94.3663 354.095C107.522 353.406 122.129 351.943 123.041 351.625C123.952 351.307 124.239 349.399 124.239 349.399L123.952 327.541L123.55 271.422L123.295 221.08L122.595 163.721L121.811 108.758L122.097 100.076C122.097 100.076 120.528 100.076 117.73 100.648C114.931 101.221 108.772 102.281 105.497 102.482C102.211 102.684 101.225 101.878 96.2002 101.952C91.1756 102.026 84.5185 101.666 81.0945 101.804C77.66 101.952 68.1514 100.426 68.1514 100.426L68.162 100.458Z" fill="#FFA599"/>
<path d="M122.14 128.443L123.348 230.738L123.486 288.468C123.486 288.468 123.539 288.786 124.959 289.178C126.38 289.57 129.475 290.397 131.489 290.641C133.503 290.885 145.97 291.733 147.305 291.786C148.641 291.839 154.143 291.595 155.881 291.595C157.62 291.595 167.287 291.372 169.418 291.033C171.549 290.694 176.965 289.835 179.298 289.104C181.63 288.372 183.538 287.662 183.538 287.662L181.746 126.015C181.746 126.015 181.545 125.316 179.382 126.238C177.22 127.16 174.718 128.188 173.361 128.676C172.004 129.164 167.701 129.874 165.39 130.203C163.079 130.531 160.566 130.637 158.733 130.584C156.899 130.531 153.273 130.478 151.598 130.319C149.924 130.16 143.468 129.662 143.309 129.662C143.15 129.662 122.352 127.012 122.352 127.012L122.161 128.453H122.14V128.443Z" fill="#E9DFCE"/>
<path d="M119.977 59.7412L121.027 77.9104L121.599 109.521L122.341 127.34L127.27 128.443L144.634 132.174L153.03 131.899L168.602 130.044L182.022 125.931L181.555 108.535L181.1 65.7941L181.227 57.1547L163.482 57.7589L135.125 58.5752L119.977 59.031V59.7412Z" fill="white"/>
<path d="M67.4516 39.0914L68.1831 53.7625L68.1513 99.7792C68.1513 99.7792 72.0628 101.125 74.0345 101.475C76.0062 101.825 97.08 102.896 103.059 102.217C109.037 101.539 121.419 99.2491 121.588 99.2491C121.758 99.2491 121.97 92.963 121.588 90.3447C121.207 87.7264 119.415 53.084 119.415 53.084C119.415 53.084 119.203 39.897 117.783 38.5614C116.362 37.2257 111.444 37.8193 107.458 37.8935C103.472 37.9677 68.2042 37.9253 68.2042 37.9253L67.4304 39.0808" fill="white"/>
<path d="M142.673 323.184C142.673 323.184 149.139 325.464 155.298 325.464C161.457 325.464 167.117 322.962 168.167 322.527" stroke="#4C241E" stroke-width="2" stroke-miterlimit="10" stroke-linecap="round"/>
<path d="M184.301 347.608C184.672 351.053 193.82 351.329 203.424 351.265C213.007 351.201 223.618 348.403 223.618 348.403L223.353 331.76L223.427 326.29C223.427 326.29 216.399 329.364 208.11 330.308C198.771 331.368 187.916 330.212 185.244 328.209C181.863 325.686 184.099 345.753 184.301 347.618V347.608Z" fill="#FFA599"/>
<path d="M184.534 79.4262L184.142 327.329C184.142 327.329 189.983 330.287 199.958 330.923C204.474 331.209 212.541 331.008 218.106 327.584C219.834 326.513 223.427 327.52 223.438 326.259C223.459 322.326 223.364 305.81 223.364 305.81L223.83 250.582L223.576 200.007L223.724 143.252L223.555 88.3413C223.555 88.3413 224.964 76.5959 222.876 77.1577C221.858 77.4333 215.413 79.4263 208.661 80.3273C201.908 81.2284 194.371 81.1011 193.068 81.1753C190.513 81.3237 184.545 79.3945 184.545 79.3945V79.4156L184.534 79.4262Z" fill="#FFE197"/>
<path d="M142.556 337.559C142.556 337.559 149.022 339.838 155.181 339.838C161.34 339.838 167.001 337.336 168.05 336.901" stroke="#4C241E" stroke-width="2" stroke-miterlimit="10" stroke-linecap="round"/>
<path d="M1.60156 55.7448L3.95484 206.855L6.05371 343.845C6.05371 343.845 7.41057 345.689 9.09605 346.664C10.7815 347.64 19.1241 350.608 21.4456 351.159C23.7671 351.71 31.2829 352.993 36.1591 352.993C41.0353 352.993 52.5263 352.198 57.1269 351.297C61.7275 350.396 67.632 349.05 67.632 349.05L67.4624 313.315L67.844 230.324V154.827L68.2044 93.1856L68.4165 54.4515C68.4165 54.4515 69.1266 53.6565 66.2539 54.0911C63.3812 54.5257 36.0425 56.3596 36.0425 56.3596L11.9689 55.9038L1.60156 55.7448Z" fill="#DEC9EE"/>
<path d="M223.883 90.7158C223.883 90.7158 224 98.5707 224.01 99.6201C224.021 100.67 223.798 120.259 223.798 120.259L223.756 141.958V162.004L223.618 186.852L223.565 190.212C223.565 190.212 228.229 190.36 229.438 190.053C230.646 189.745 242.031 187.53 244.501 186.724C246.971 185.919 250.162 184.89 250.723 184.572C251.285 184.254 260.327 179.293 261.589 178.191C262.85 177.088 266.921 174.756 268.681 172.986C270.44 171.205 270.705 172.732 270.218 169.912C269.719 167.103 266.91 151.022 266.91 151.022L254.953 76.7761C254.953 76.7761 254.19 76.4793 252.706 77.1896C251.211 77.8998 224.53 89.6239 224.042 89.9101C223.554 90.1963 223.893 90.7158 223.893 90.7158H223.883Z" fill="white"/>
<path d="M22.5799 91.1822C22.5799 91.1822 21.2866 91.744 21.2972 93.1856C21.3078 94.6273 21.2972 223.667 21.2972 223.667C21.2972 223.667 20.3644 225.437 25.3148 225.957C30.2652 226.476 46.6218 226.752 47.4486 226.243C48.2755 225.734 48.4132 223.921 48.339 221.939C48.2648 219.946 48.3496 154.075 48.3496 154.075L48.6783 128.146L49.0599 93.1856C49.0599 93.1856 49.1023 91.0655 47.279 91.0125C45.4557 90.9595 22.5587 91.2033 22.5587 91.2033H22.5693L22.5799 91.1822Z" fill="white"/>
<path d="M224 190.392L231.844 203.685L268.925 275.016L283.023 301.814L301.457 336.615C301.457 336.615 306.768 347.968 307.977 348.339C309.185 348.71 314.401 348.975 318.026 347.831C321.651 346.686 329.527 343.686 332.686 341.672C335.845 339.658 341.972 335.269 343.87 333.647C345.778 332.025 349.668 328.453 349.668 328.124C349.668 327.796 350.241 323.227 349.891 321.213C349.552 319.199 348.195 305.969 347.824 304.92C347.442 303.881 345.81 292.835 345.333 290.641C344.856 288.447 343.393 281.153 342.969 279.722C342.556 278.281 340.213 267.5 339.609 265.815C339.004 264.129 337.117 257.599 336.195 256.147C335.273 254.695 326.888 236.133 326.888 236.133L315.1 211.127L298.818 175.816L283.871 142.658L273.854 119.814L261.038 90.1964C261.038 90.1964 255.769 76.6701 255.335 76.7337C254.9 76.7973 260.836 115.351 260.836 115.351L270.271 171.82C270.271 171.82 266.603 174.661 264.748 175.954C262.893 177.248 256.13 182.187 253.405 183.385C250.681 184.583 243.865 187.085 240.971 187.806C238.077 188.526 226.003 190.106 225.378 190.265C224.911 190.392 223.957 190.413 223.957 190.413V190.392H224Z" fill="#96AFD7"/>
<path d="M181.226 57.462L181.491 78.1966C181.491 78.1966 187.788 81.3131 194.244 81.3343C200.7 81.3555 215 79.4156 219.261 78.1966C223.512 76.9775 223.342 76.5853 223.342 76.5853V57.8012C223.342 57.8012 223.342 57.8966 221.561 58.5327C219.78 59.1687 216.272 60.0909 213.017 60.2499C209.763 60.4089 205.671 60.5573 203.201 60.4301C200.731 60.3029 192.972 59.9213 190.449 59.4337C187.926 58.9461 185.732 57.8012 183.993 57.4832C182.255 57.1651 181.205 56.8365 181.205 56.8365V57.4832H181.216L181.226 57.462Z" fill="#FFA599"/>
<path d="M18.1807 10.3005L1.60156 54.4728L3.58385 55.4798L37.7174 56.349L68.1937 53.7625L67.4518 39.0914L64.9925 21.4204L62.9784 9.25109L61.0596 8.19104L37.3464 8.99665L18.361 9.8023L18.1807 10.3005Z" fill="white"/>
<path d="M1.34715 55.1512L5.83113 344.237C5.83113 344.237 15.9652 351.965 32.502 352.855C33.8801 352.929 41.629 353.332 49.3143 352.452C58.452 351.413 67.6426 349.039 67.6426 349.039C67.6426 349.039 70.282 353.82 83.5751 354.191C96.8681 354.562 119.436 352.526 121.864 351.657C124.292 350.788 137.998 357.159 151.153 356.576C164.298 356.003 180.442 352.516 182.721 350.343C185.001 348.17 184.502 348.583 184.502 348.583C184.502 348.583 191.435 351.647 196.195 351.647C199.502 351.647 208.131 351.742 214.162 350.788C216.813 350.364 218.583 350.216 220.099 349.781C224.222 348.583 223.438 347.512 223.438 347.512L223.586 190.191L231.356 203.219L276.779 289.941L307.616 348.159C307.616 348.159 311.284 349.792 317.899 347.841C320.74 346.993 325.955 345.435 330.725 342.785C337.064 339.276 343.043 334.4 345.799 331.983C350.622 327.743 349.849 329.015 350.071 325.972C350.294 322.93 347.209 300.764 345.874 294.107C344.538 287.45 339.163 261.596 336.577 256.741C333.99 251.886 313.987 208.434 312.238 204.883C310.489 201.332 289.998 155.347 289.161 153.683C288.323 152.018 270.833 112.903 270.833 112.903L255.441 76.9775C255.441 76.9775 255.027 75.8857 250.331 78.2814C245.635 80.6771 226.205 88.8501 225.092 89.3589C223.978 89.8677 223.555 90.1539 223.555 90.1539C223.555 90.1539 223.417 61.4054 223.343 56.614C223.268 51.8437 222.229 35.5402 221.869 32.1375C221.509 28.7347 219.707 3.60099 219.569 2.73175C219.431 1.86251 219.865 1.36428 212.498 1.20527C205.131 1.04627 185.806 1.01444 185.806 1.01444C185.806 1.01444 182.488 0.770643 182.488 2.28651C182.488 3.80238 182.319 9.34644 182.319 9.34644L181.269 45.1867L180.972 57.3878L153.74 58.2782L119.733 58.7129L118.779 41.2963C118.779 41.2963 118.758 37.9147 116.309 37.8829C113.861 37.8511 84.9956 37.7451 84.9956 37.7451L67.4199 38.2752L63.4447 10.6291C63.4447 10.6291 63.2752 8.3606 61.558 8.3606C59.8407 8.3606 29.1416 9.51605 29.1416 9.51605L18.4563 9.44184L1.33654 55.0769H1.32593L1.34715 55.1512Z" stroke="#4C241E" stroke-width="2" stroke-miterlimit="10"/>
<path d="M68.1937 54.0804C68.1937 54.0804 67.6637 54.2924 65.8086 54.3666C63.9536 54.4408 42.3499 56.0309 39.6892 56.2853C37.0284 56.5397 13.7073 55.9461 9.42473 55.8295C5.14213 55.7129 1.60156 55.2677 1.60156 55.2677" stroke="#4C241E" stroke-width="2" stroke-miterlimit="10"/>
<path d="M67.4835 38.5614C67.4835 38.5614 68.5012 54.3455 68.4482 55.6918C68.3952 57.038 68.2891 75.8433 68.2361 76.8822C68.1831 77.921 68.1832 121.5 68.1832 121.5L67.4517 349.41" stroke="#4C241E" stroke-width="2" stroke-miterlimit="10"/>
<path d="M119.744 59.0309C119.744 59.0309 120.899 75.5994 120.793 76.5217C120.687 77.4439 121.207 86.0833 121.207 87.7158C121.207 88.4578 121.323 92.9101 121.461 97.6803C121.461 97.8181 121.726 98.1997 121.726 98.3375C121.885 103.871 121.8 109.426 121.822 110.316C121.864 112.002 122.352 143.824 122.352 145.181C122.352 146.538 123.242 213.565 123.242 213.565L123.942 351.774" stroke="#4C241E" stroke-width="2" stroke-miterlimit="10"/>
<path d="M121.599 99.705C121.599 99.705 111.942 101.21 105.295 102.026C98.6595 102.832 79.6211 102.132 76.7165 101.92C73.812 101.708 68.5542 100.002 68.5542 100.002" stroke="#4C241E" stroke-width="2" stroke-miterlimit="10"/>
<path d="M84.6035 132.938C84.6035 132.938 100.822 131.496 103.547 132.068C106.271 132.641 106.684 132.524 106.684 132.524" stroke="#4C241E" stroke-width="2" stroke-linecap="round" stroke-linejoin="bevel"/>
<path d="M84.6035 153.163C84.6035 153.163 100.822 151.721 103.547 152.294C106.271 152.866 106.684 152.75 106.684 152.75" stroke="#4C241E" stroke-width="2" stroke-linecap="round" stroke-linejoin="bevel"/>
<path d="M84.6035 173.315C84.6035 173.315 100.822 171.873 103.547 172.446C106.271 173.018 106.684 172.901 106.684 172.901" stroke="#4C241E" stroke-width="2" stroke-linecap="round" stroke-linejoin="bevel"/>
<path d="M84.6035 193.445C84.6035 193.445 100.822 192.003 103.547 192.576C106.271 193.148 106.684 193.031 106.684 193.031" stroke="#4C241E" stroke-width="2" stroke-linecap="round" stroke-linejoin="bevel"/>
<path d="M21.3077 92.2423V224.399C21.3077 224.399 20.7353 225.607 28.0921 226.264C29.5867 226.402 31.7916 226.635 34.0177 226.646C47.2365 226.72 48.1482 226.084 48.1482 226.084C48.1482 226.084 47.7348 205.233 48.1482 189.364C48.5616 173.506 49.1977 93.5568 49.1977 93.5568C49.1977 93.5568 49.7489 90.896 46.3779 90.949C43.0069 91.002 22.2936 90.843 21.8271 91.3306C21.3607 91.8182 21.2971 92.2529 21.2971 92.2529L21.3077 92.2423Z" stroke="#4C241E" stroke-width="2" stroke-miterlimit="10"/>
<path d="M21.9968 329.386C21.9968 329.386 26.9896 331.273 34.569 331.124C42.1377 330.976 47.4592 330.255 47.4592 330.255" stroke="#4C241E" stroke-width="2" stroke-miterlimit="10" stroke-linecap="round"/>
<path d="M223.353 57.4621C223.353 57.4621 222.749 59.243 213.24 59.7518C203.732 60.2606 194.912 60.4302 189.463 59.0416C184.015 57.6529 181.015 56.349 181.015 56.349L184.036 349.071" stroke="#4C241E" stroke-width="2" stroke-miterlimit="10"/>
<path d="M183.008 288.277C183.008 288.277 179.372 289.284 173.775 290.514C168.178 291.733 157.694 292.061 144.549 291.616C131.404 291.171 123.963 288.606 123.963 288.606" stroke="#4C241E" stroke-width="2" stroke-miterlimit="10"/>
<path d="M122.108 126.673C122.108 126.673 137.489 131.655 143.987 131.877C150.485 132.1 166.534 130.574 170.414 129.27C174.294 127.966 181.714 125.687 181.714 125.687" stroke="#4C241E" stroke-width="2" stroke-miterlimit="10"/>
<path d="M181.227 78.398C181.227 78.398 190.173 81.5888 197.997 81.504C205.82 81.4298 221.286 77.9528 221.911 77.7408C222.537 77.5288 223.342 77.3698 223.342 77.3698" stroke="#4C241E" stroke-width="2" stroke-miterlimit="10"/>
<path d="M184.142 328.198C184.142 328.198 195.94 331.697 204.272 330.817C212.604 329.937 221.413 327.054 222.113 326.619C222.812 326.184 223.343 326.248 223.343 326.248" stroke="#4C241E" stroke-width="2" stroke-miterlimit="10"/>
<path d="M223.554 90.1964L223.872 99.0265L223.544 189.841C223.544 189.841 225.399 190.35 228.399 189.841C231.399 189.332 238.331 188.749 240.536 187.954C242.741 187.159 251.444 185.092 256.755 181.509C262.076 177.937 267.737 173.866 268.988 172.711C270.239 171.555 270.461 171.364 270.461 171.364L266.613 149.389L261.122 116.984L255.112 77.1896" stroke="#4C241E" stroke-width="2" stroke-miterlimit="10"/>
<path d="M270.462 171.364L280.702 195.353C280.702 195.353 299.793 234.84 301.638 237.935C303.482 241.03 327.492 287.736 327.492 287.736L349.69 328.484" stroke="#4C241E" stroke-width="2" stroke-miterlimit="10"/>
<path d="M254.752 211.741C254.752 211.741 254.561 212.547 255.801 215.388C257.041 218.218 267.716 239.207 269.836 243.32C271.956 247.433 273.992 252.479 276.303 252.14C278.613 251.801 281.931 249.967 282.917 249.193C283.903 248.419 284.751 248.303 284.486 246.182C284.221 244.062 283.426 243.013 282.366 240.617C281.306 238.221 271.161 217.551 269.985 215.409C268.808 213.268 265.585 208.222 264.875 207.247C264.165 206.272 264.112 206.017 263.041 206.441C261.971 206.865 254.996 210.713 254.858 211.052C254.72 211.392 254.752 211.763 254.752 211.763V211.741Z" fill="white"/>
<path d="M256.607 209.844C256.607 209.844 262.691 205.932 264.154 206.261C265.617 206.59 273.917 222.777 275.168 225.49C276.419 228.204 283.564 242.112 283.871 244.932C284.179 247.751 285.228 248.303 281.348 249.935C277.468 251.568 276.419 253.953 273.589 249.935C270.758 245.917 256.066 216.575 255.547 215.059C255.027 213.544 253.861 211.901 254.709 211.042C255.557 210.183 256.596 209.844 256.596 209.844H256.607Z" stroke="#4C241E" stroke-width="2" stroke-miterlimit="10"/>
<path d="M152.445 146.472C153.341 146.388 154.013 146.402 154.461 146.514C154.937 146.626 155.497 146.878 156.141 147.27C156.421 147.466 156.673 147.62 156.897 147.732C157.037 147.788 157.345 148.054 157.821 148.53C158.297 148.978 158.591 149.314 158.703 149.538C158.843 149.79 158.983 150.014 159.123 150.21C159.263 150.406 159.347 150.812 159.375 151.428C159.403 152.044 159.459 152.464 159.543 152.688C159.711 152.94 159.697 153.36 159.501 153.948C159.445 154.284 159.417 154.578 159.417 154.83C159.417 155.082 159.333 155.376 159.165 155.712C159.025 156.02 158.955 156.23 158.955 156.342C158.955 156.426 158.885 156.566 158.745 156.762C158.521 157.098 158.353 157.378 158.241 157.602C158.073 157.882 157.793 158.218 157.401 158.61C157.009 159.002 156.715 159.254 156.519 159.366C155.623 159.814 154.951 160.08 154.503 160.164C154.279 160.192 154.069 160.262 153.873 160.374C153.593 160.514 152.851 160.5 151.647 160.332C151.003 160.22 150.569 160.136 150.345 160.08C150.121 159.996 149.645 159.758 148.917 159.366C148.273 159.002 147.657 158.428 147.069 157.644C146.705 157.168 146.453 156.678 146.313 156.174C146.229 155.95 146.075 155.502 145.851 154.83C145.683 154.298 145.669 153.822 145.809 153.402C145.865 153.094 145.921 152.674 145.977 152.142C146.033 151.694 146.131 151.218 146.271 150.714C146.439 150.21 146.579 149.916 146.691 149.832C146.803 149.72 146.859 149.636 146.859 149.58C146.859 149.496 147.111 149.132 147.615 148.488C147.783 148.264 148.077 148.04 148.497 147.816C148.945 147.564 149.197 147.424 149.253 147.396C149.841 147.06 150.289 146.906 150.597 146.934C150.961 147.018 151.367 146.92 151.815 146.64C151.927 146.556 152.137 146.5 152.445 146.472ZM155.343 149.832C154.951 149.636 154.503 149.51 153.999 149.454C152.963 149.454 152.305 149.552 152.025 149.748C151.885 149.86 151.759 149.916 151.647 149.916C151.535 149.916 151.339 149.972 151.059 150.084C150.835 150.168 150.597 150.266 150.345 150.378C149.729 150.63 149.267 151.12 148.959 151.848C148.791 152.268 148.679 152.912 148.623 153.78C148.595 154.508 148.595 154.97 148.623 155.166C148.679 155.334 148.819 155.6 149.043 155.964C149.603 156.916 150.219 157.42 150.891 157.476C151.143 157.532 151.395 157.63 151.647 157.77C151.983 157.91 152.249 157.868 152.445 157.644C152.557 157.588 152.781 157.532 153.117 157.476C153.453 157.448 153.663 157.406 153.747 157.35C153.831 157.294 153.971 157.21 154.167 157.098C154.307 157.042 154.587 156.79 155.007 156.342C155.455 155.894 155.777 155.572 155.973 155.376C156.141 155.152 156.295 154.886 156.435 154.578C156.603 154.298 156.687 153.71 156.687 152.814V151.386L156.351 150.756C156.211 150.448 156.085 150.266 155.973 150.21C155.889 150.126 155.679 150 155.343 149.832ZM155.133 162.768C155.385 162.712 155.665 162.698 155.973 162.726C156.337 162.754 157.429 162.768 159.249 162.768C159.977 162.768 160.481 162.824 160.761 162.936C161.209 163.188 161.503 163.538 161.643 163.986C161.783 164.602 161.601 165.078 161.097 165.414C160.873 165.582 160.579 165.666 160.215 165.666C159.263 165.61 158.731 165.652 158.619 165.792C158.479 166.044 158.521 166.66 158.745 167.64C158.829 167.976 158.871 168.326 158.871 168.69C158.871 169.11 158.955 169.558 159.123 170.034C159.151 170.23 159.207 170.58 159.291 171.084C159.375 171.588 159.459 171.952 159.543 172.176C159.851 172.736 159.823 173.268 159.459 173.772C159.263 174.024 159.081 174.178 158.913 174.234C158.773 174.29 158.591 174.29 158.367 174.234C158.171 174.206 157.975 174.15 157.779 174.066C157.611 173.982 157.457 173.87 157.317 173.73C157.205 173.618 157.121 173.478 157.065 173.31C156.981 173.114 156.897 172.96 156.813 172.848C156.757 172.736 156.715 172.386 156.687 171.798C156.603 171.21 156.519 170.804 156.435 170.58C156.407 170.328 156.351 169.88 156.267 169.236C156.183 168.508 156.113 168.046 156.057 167.85C156.001 167.682 155.945 167.318 155.889 166.758C155.833 166.254 155.777 165.946 155.721 165.834C155.693 165.722 155.595 165.61 155.427 165.498C155.119 165.358 154.713 165.344 154.209 165.456C153.705 165.568 153.439 165.736 153.411 165.96C153.075 167.556 152.921 168.956 152.949 170.16C152.977 170.916 153.047 171.462 153.159 171.798C153.495 172.778 153.369 173.52 152.781 174.024C152.613 174.136 152.375 174.192 152.067 174.192C151.759 174.192 151.451 174.038 151.143 173.73C150.863 173.422 150.709 173.184 150.681 173.016C150.625 172.82 150.541 172.666 150.429 172.554C150.261 172.33 150.233 170.944 150.345 168.396C150.373 166.94 150.345 166.184 150.261 166.128C150.205 166.044 149.477 166.016 148.077 166.044L146.019 166.128L145.431 165.918C144.927 165.694 144.507 165.358 144.171 164.91C143.863 164.434 143.877 164.014 144.213 163.65C144.549 163.286 144.913 163.16 145.305 163.272C145.697 163.384 146.635 163.426 148.119 163.398C149.603 163.342 150.653 163.244 151.269 163.104C151.521 163.076 152.151 163.02 153.159 162.936C154.195 162.908 154.853 162.852 155.133 162.768ZM148.74 184.16C149.216 184.104 149.846 184.118 150.63 184.202C151.442 184.258 151.96 184.342 152.184 184.454C152.352 184.566 152.478 184.622 152.562 184.622C152.646 184.622 152.884 184.748 153.276 185C153.528 185.168 153.808 185.406 154.116 185.714C154.452 186.022 154.746 186.33 154.998 186.638C155.25 186.946 155.418 187.17 155.502 187.31C155.53 187.422 155.628 187.548 155.796 187.688C155.908 187.884 155.964 188.01 155.964 188.066C155.992 188.206 156.034 188.374 156.09 188.57C156.202 188.794 156.286 189.144 156.342 189.62C156.342 190.04 156.356 190.446 156.384 190.838C156.44 191.202 156.384 191.65 156.216 192.182C156.048 192.714 155.964 193.036 155.964 193.148C155.964 193.26 155.908 193.484 155.796 193.82C155.628 194.1 155.53 194.352 155.502 194.576C155.474 194.8 155.404 194.954 155.292 195.038C155.208 195.094 155.166 195.192 155.166 195.332C155.11 195.584 154.886 195.906 154.494 196.298C154.102 196.662 153.724 196.956 153.36 197.18C152.996 197.32 152.324 197.544 151.344 197.852C150.784 197.992 150.098 197.922 149.286 197.642C148.838 197.446 148.474 197.292 148.194 197.18C147.942 197.068 147.48 196.774 146.808 196.298C146.192 195.85 145.562 195.108 144.918 194.072C144.89 194.016 144.764 193.82 144.54 193.484C144.428 193.344 144.358 193.162 144.33 192.938C144.274 192.742 144.176 192.518 144.036 192.266C143.896 192.014 143.84 191.496 143.868 190.712C143.952 189.536 144.176 188.584 144.54 187.856C144.652 187.632 144.778 187.352 144.918 187.016C145.002 186.848 145.114 186.666 145.254 186.47C145.422 186.274 145.59 186.078 145.758 185.882C145.954 185.658 146.15 185.462 146.346 185.294C146.542 185.098 146.724 184.958 146.892 184.874C147.06 184.762 147.2 184.678 147.312 184.622C147.536 184.594 147.732 184.524 147.9 184.412C148.124 184.3 148.404 184.216 148.74 184.16ZM151.806 187.1C151.47 186.904 151.176 186.792 150.924 186.764C150.308 186.736 149.776 186.862 149.328 187.142C149.16 187.282 149.034 187.352 148.95 187.352C148.866 187.352 148.558 187.632 148.026 188.192C147.522 188.724 147.214 189.088 147.102 189.284C146.99 189.536 146.892 189.9 146.808 190.376C146.752 190.852 146.738 191.188 146.766 191.384C146.906 192.112 147.032 192.574 147.144 192.77C147.256 192.882 147.326 193.008 147.354 193.148C147.41 193.26 147.508 193.414 147.648 193.61C147.816 193.806 147.998 194.016 148.194 194.24C148.418 194.436 148.6 194.562 148.74 194.618C148.992 194.758 149.384 194.856 149.916 194.912L150.798 194.954L151.302 194.66C152.254 194.044 152.758 193.554 152.814 193.19C152.87 193.05 152.954 192.91 153.066 192.77C153.234 192.546 153.43 191.902 153.654 190.838C153.766 190.306 153.78 189.844 153.696 189.452C153.444 188.416 152.814 187.632 151.806 187.1ZM160.416 184.286C160.612 184.146 160.906 184.104 161.298 184.16C161.718 184.188 162.096 184.342 162.432 184.622C162.768 184.874 162.894 185.364 162.81 186.092C162.782 186.456 162.768 187.968 162.768 190.628C162.74 193.372 162.684 194.954 162.6 195.374C162.46 196.578 162.39 197.852 162.39 199.196C162.39 199.644 162.432 199.952 162.516 200.12C162.572 200.344 162.6 200.68 162.6 201.128C162.6 201.548 162.642 202.01 162.726 202.514C162.838 203.018 162.894 203.466 162.894 203.858C162.894 204.25 162.922 204.516 162.978 204.656C163.202 204.992 163.174 205.412 162.894 205.916C162.586 206.364 162.18 206.574 161.676 206.546C161.116 206.462 160.668 206.14 160.332 205.58C160.164 205.328 160.066 204.992 160.038 204.572C160.01 204.208 159.94 203.858 159.828 203.522C159.828 203.494 159.8 203.438 159.744 203.354C159.716 203.242 159.688 203.158 159.66 203.102C159.66 203.018 159.66 202.962 159.66 202.934L159.534 202.64L157.854 202.598C154.942 202.514 153.01 202.598 152.058 202.85C151.638 202.962 150.826 203.046 149.622 203.102C148.446 203.13 147.606 203.186 147.102 203.27C146.626 203.354 146.276 203.368 146.052 203.312C145.688 203.284 145.156 203.284 144.456 203.312C144.26 203.312 143.994 203.256 143.658 203.144C143.378 203.004 143.126 202.78 142.902 202.472C142.678 202.192 142.566 201.884 142.566 201.548C142.566 201.184 142.678 200.918 142.902 200.75L143.238 200.456L144.036 200.54C144.512 200.54 145.254 200.526 146.262 200.498C147.298 200.47 148.278 200.428 149.202 200.372C150.154 200.288 150.756 200.204 151.008 200.12C151.232 200.092 151.918 200.064 153.066 200.036C154.186 200.008 154.872 199.952 155.124 199.868C155.404 199.756 155.712 199.742 156.048 199.826C156.328 199.854 156.762 199.868 157.35 199.868C157.826 199.84 158.316 199.826 158.82 199.826C159.184 199.826 159.422 199.77 159.534 199.658C159.674 199.546 159.744 199.364 159.744 199.112C159.66 196.312 159.688 194.422 159.828 193.442C159.94 192.854 159.968 192.392 159.912 192.056C159.884 191.608 159.912 191.202 159.996 190.838C160.052 190.39 160.08 189.228 160.08 187.352L160.164 184.58L160.416 184.286ZM156.306 222.142C156.558 221.89 156.866 221.792 157.23 221.848C157.594 221.876 157.902 222.016 158.154 222.268C158.518 222.66 158.7 223.164 158.7 223.78C158.7 223.892 158.672 224.662 158.616 226.09V228.064L158.784 228.274C158.98 228.414 159.176 228.47 159.372 228.442C159.568 228.386 160.086 228.344 160.926 228.316C162.858 228.288 163.936 228.652 164.16 229.408C164.328 230.108 164.104 230.64 163.488 231.004L163.068 231.256H161.766C160.478 231.256 159.652 231.186 159.288 231.046C159.176 231.018 159.078 231.074 158.994 231.214C158.91 231.326 158.896 231.942 158.952 233.062C159.036 235.078 159.148 236.352 159.288 236.884C159.428 237.472 159.372 237.934 159.12 238.27C158.84 238.634 158.518 238.816 158.154 238.816C158.014 238.816 157.846 238.788 157.65 238.732C157.482 238.676 157.314 238.606 157.146 238.522C156.978 238.41 156.824 238.298 156.684 238.186C156.572 238.046 156.474 237.92 156.39 237.808C156.334 237.696 156.306 237.36 156.306 236.8C156.334 236.24 156.278 235.876 156.138 235.708C155.886 235.372 155.844 234.952 156.012 234.448C156.152 234.112 156.18 233.804 156.096 233.524C156.012 233.244 155.984 232.88 156.012 232.432C156.04 231.956 156.054 231.55 156.054 231.214C155.998 228.078 155.97 225.908 155.97 224.704L155.928 222.478L156.306 222.142ZM146.352 222.646C146.576 222.534 146.856 222.534 147.192 222.646C147.836 222.898 148.242 223.206 148.41 223.57C148.522 223.738 148.536 223.976 148.452 224.284C148.368 224.564 148.27 224.858 148.158 225.166C148.018 225.418 147.948 225.572 147.948 225.628C147.948 225.74 147.864 225.95 147.696 226.258C147.556 226.538 147.486 226.72 147.486 226.804C147.486 226.916 147.43 227.098 147.318 227.35C147.178 227.63 147.094 227.938 147.066 228.274C146.926 228.89 147.038 229.408 147.402 229.828C147.542 230.024 147.668 230.192 147.78 230.332C147.892 230.472 148.326 230.934 149.082 231.718C149.838 232.474 150.384 232.978 150.72 233.23C151.112 233.594 151.476 233.888 151.812 234.112C152.708 234.7 153.24 235.134 153.408 235.414C153.464 235.554 153.492 235.778 153.492 236.086C153.492 236.366 153.366 236.618 153.114 236.842C152.582 237.346 152.106 237.458 151.686 237.178C151.602 237.094 151.448 236.996 151.224 236.884C150.804 236.716 149.992 236.002 148.788 234.742C148.536 234.49 148.312 234.322 148.116 234.238C147.92 234.154 147.822 234.07 147.822 233.986C147.822 233.93 147.654 233.72 147.318 233.356C147.01 232.992 146.674 232.642 146.31 232.306C145.974 231.97 145.764 231.802 145.68 231.802C145.568 231.858 145.414 232.208 145.218 232.852C144.77 234.028 144.532 234.84 144.504 235.288C144.42 235.848 144.238 236.31 143.958 236.674C143.706 237.038 143.412 237.22 143.076 237.22C142.488 237.192 142.04 236.912 141.732 236.38C141.536 236.184 141.438 235.904 141.438 235.54C141.438 235.176 141.494 234.882 141.606 234.658C141.746 234.462 141.816 234.308 141.816 234.196C141.816 234 142.012 233.384 142.404 232.348C142.572 232.068 142.684 231.788 142.74 231.508C142.824 231.228 142.894 231.018 142.95 230.878C143.314 230.122 143.496 229.688 143.496 229.576C143.496 229.548 143.58 229.38 143.748 229.072C144.112 228.288 144.322 227.728 144.378 227.392C144.462 227.168 144.7 226.664 145.092 225.88C145.176 225.712 145.246 225.418 145.302 224.998C145.498 223.682 145.848 222.898 146.352 222.646ZM147.102 249.792C147.214 249.68 147.41 249.638 147.69 249.666C147.97 249.694 148.194 249.764 148.362 249.876C148.53 249.988 148.656 250.044 148.74 250.044C148.796 250.044 148.908 250.156 149.076 250.38C149.244 250.604 149.328 250.786 149.328 250.926C149.328 251.094 149.314 251.584 149.286 252.396C149.202 253.208 149.202 253.698 149.286 253.866L149.454 254.034H150.966L152.562 253.992L153.024 254.244C153.332 254.468 153.542 254.65 153.654 254.79C153.766 255.098 153.766 255.448 153.654 255.84C153.57 256.232 153.402 256.526 153.15 256.722C153.038 256.834 152.87 256.904 152.646 256.932C152.422 256.932 151.75 256.946 150.63 256.974C148.95 256.974 147.354 256.974 145.842 256.974H143.322L142.902 256.764C142.594 256.624 142.356 256.456 142.188 256.26C141.852 255.868 141.684 255.49 141.684 255.126C141.684 254.734 141.922 254.426 142.398 254.202C142.622 254.09 142.888 254.076 143.196 254.16C143.448 254.216 143.952 254.272 144.708 254.328C145.464 254.356 145.912 254.342 146.052 254.286C146.248 254.258 146.374 254.104 146.43 253.824C146.514 253.516 146.57 252.914 146.598 252.018C146.626 251.15 146.668 250.59 146.724 250.338C146.78 250.058 146.906 249.876 147.102 249.792ZM156.678 253.362C156.958 253.25 157.308 253.292 157.728 253.488C158.288 253.712 158.666 254.034 158.862 254.454C159.03 254.706 159.072 255.07 158.988 255.546C158.904 256.022 158.904 256.372 158.988 256.596C159.072 256.82 159.114 257.254 159.114 257.898C159.114 258.514 159.142 258.892 159.198 259.032C159.254 259.144 159.436 259.2 159.744 259.2C160.08 259.2 160.416 259.228 160.752 259.284C161.116 259.34 161.396 259.34 161.592 259.284C161.816 259.2 162.138 259.228 162.558 259.368C162.978 259.48 163.3 259.634 163.524 259.83C163.86 260.082 164.028 260.418 164.028 260.838C164.028 261.258 163.874 261.58 163.566 261.804C163.398 261.944 162.922 261.986 162.138 261.93C161.27 261.902 160.626 261.888 160.206 261.888C159.646 261.832 159.338 261.874 159.282 262.014C159.17 262.182 159.184 263.204 159.324 265.08C159.408 265.836 159.394 266.354 159.282 266.634C159.198 266.886 159.044 267.124 158.82 267.348C158.596 267.544 158.414 267.642 158.274 267.642C157.602 267.642 157.098 267.166 156.762 266.214C156.622 265.766 156.524 264.926 156.468 263.694C156.44 262.378 156.384 261.538 156.3 261.174C156.244 260.782 156.244 260.432 156.3 260.124C156.356 259.816 156.356 259.606 156.3 259.494C156.272 259.382 156.244 258.542 156.216 256.974C156.216 255.378 156.202 254.482 156.174 254.286C156.174 254.202 156.188 254.09 156.216 253.95C156.272 253.81 156.342 253.698 156.426 253.614C156.538 253.502 156.622 253.418 156.678 253.362ZM146.052 258.36C146.248 258.248 146.71 258.206 147.438 258.234C148.194 258.234 148.656 258.29 148.824 258.402C149.02 258.542 149.146 258.612 149.202 258.612C149.314 258.612 149.496 258.682 149.748 258.822C150 258.934 150.182 258.99 150.294 258.99C150.406 258.99 150.714 259.172 151.218 259.536C151.75 259.9 152.156 260.236 152.436 260.544C152.94 261.076 153.192 261.454 153.192 261.678C153.192 261.762 153.248 261.902 153.36 262.098C153.472 262.266 153.528 262.686 153.528 263.358C153.556 263.946 153.542 264.338 153.486 264.534C153.43 264.73 153.234 265.178 152.898 265.878C152.366 266.83 151.848 267.488 151.344 267.852C150.728 268.272 150.28 268.524 150 268.608C149.748 268.692 149.23 268.734 148.446 268.734C147.102 268.762 146.164 268.636 145.632 268.356C145.436 268.244 145.254 268.16 145.086 268.104C144.806 268.048 144.456 267.852 144.036 267.516C143.644 267.152 143.364 266.844 143.196 266.592C143.14 266.396 143.07 266.27 142.986 266.214C142.93 266.13 142.86 265.976 142.776 265.752C142.692 265.5 142.622 265.318 142.566 265.206C142.37 265.01 142.272 264.548 142.272 263.82C142.272 262.784 142.51 261.79 142.986 260.838C143.126 260.586 143.196 260.432 143.196 260.376C143.196 260.292 143.294 260.11 143.49 259.83C143.714 259.522 143.882 259.312 143.994 259.2C144.358 258.92 144.792 258.724 145.296 258.612C145.576 258.556 145.828 258.472 146.052 258.36ZM149.496 261.132C149.16 260.992 148.754 260.894 148.278 260.838C147.802 260.838 147.438 260.866 147.186 260.922C146.682 260.978 146.206 261.272 145.758 261.804C145.338 262.336 145.086 262.896 145.002 263.484C144.946 264.324 145.072 264.94 145.38 265.332C145.632 265.668 146.08 265.906 146.724 266.046C147.536 266.27 148.222 266.256 148.782 266.004C149.846 265.444 150.434 264.856 150.546 264.24C150.574 264.016 150.63 263.82 150.714 263.652C150.91 263.148 150.882 262.63 150.63 262.098C150.462 261.79 150.084 261.468 149.496 261.132ZM152.814 269.49C153.01 269.378 153.5 269.336 154.284 269.364C155.096 269.364 155.614 269.42 155.838 269.532C156.09 269.616 156.37 269.672 156.678 269.7C157.378 269.812 158.218 270.316 159.198 271.212C159.674 271.688 159.94 272.052 159.996 272.304C160.08 272.528 160.136 272.668 160.164 272.724C160.22 272.78 160.304 273.004 160.416 273.396C160.5 273.816 160.57 274.096 160.626 274.236C160.71 274.376 160.71 274.544 160.626 274.74C160.57 274.908 160.514 275.258 160.458 275.79C160.402 276.294 160.318 276.616 160.206 276.756C160.094 276.896 160.038 277.008 160.038 277.092C160.038 277.12 159.982 277.232 159.87 277.428C159.786 277.624 159.688 277.806 159.576 277.974C159.492 278.17 159.422 278.31 159.366 278.394C159.338 278.422 159.128 278.674 158.736 279.15C158.484 279.486 158.19 279.794 157.854 280.074C157.518 280.354 157.322 280.494 157.266 280.494C157.21 280.494 157.112 280.564 156.972 280.704C156.832 280.844 156.398 280.928 155.67 280.956C154.466 281.068 153.696 281.026 153.36 280.83C152.324 280.242 151.666 279.85 151.386 279.654C151.134 279.486 150.882 279.248 150.63 278.94C149.958 278.1 149.622 277.582 149.622 277.386C149.622 277.33 149.566 277.232 149.454 277.092C149.342 276.98 149.244 276.756 149.16 276.42C149.132 276.308 149.076 276.14 148.992 275.916C148.936 275.692 148.908 275.538 148.908 275.454C148.796 275.118 148.768 274.768 148.824 274.404C148.908 274.04 148.936 273.788 148.908 273.648C148.852 273.452 148.908 273.116 149.076 272.64C149.244 272.164 149.44 271.772 149.664 271.464C150.084 270.764 150.518 270.316 150.966 270.12C151.19 270.064 151.33 269.994 151.386 269.91C151.47 269.854 151.694 269.784 152.058 269.7C152.394 269.616 152.646 269.546 152.814 269.49ZM157.35 272.976C157.126 272.724 156.874 272.5 156.594 272.304C156.314 272.108 155.894 272.01 155.334 272.01C154.438 271.954 153.71 272.038 153.15 272.262C152.086 272.738 151.54 273.578 151.512 274.782C151.512 275.482 151.75 276.154 152.226 276.798C152.59 277.386 153.066 277.736 153.654 277.848C153.878 277.876 154.074 277.932 154.242 278.016C154.382 278.072 154.606 278.128 154.914 278.184C155.082 278.212 155.208 278.198 155.292 278.142C155.404 278.114 155.586 277.988 155.838 277.764C156.314 277.372 156.65 277.05 156.846 276.798C157.042 276.518 157.252 276.112 157.476 275.58C157.588 275.272 157.644 274.824 157.644 274.236L157.686 273.354L157.35 272.976Z" fill="#242424"/>
</svg>
