<svg width="179" height="163" viewBox="0 0 179 163" fill="none" xmlns="http://www.w3.org/2000/svg">
<mask id="mask0_420_8316" style="mask-type:luminance" maskUnits="userSpaceOnUse" x="0" y="0" width="179" height="163">
<path d="M179 0H0V162.219H179V0Z" fill="white"/>
</mask>
<g mask="url(#mask0_420_8316)">
<path d="M20.9579 41.3565C12.2876 45.0297 5.63105 51.9007 2.8435 60.888C-3.44947 81.2493 5.71497 106.943 23.2793 119.044C28.7332 122.801 35.1194 125.505 41.7387 125.487C48.358 125.459 55.173 122.354 58.5386 116.658C62.8085 109.423 57.0003 101.722 49.486 107.111C43.4355 111.455 35.9399 110.299 29.4231 106.654C13.4343 97.7322 4.10209 58.0539 27.9594 53.3644C36.1636 51.7516 40.4055 61.233 46.8756 59.993C55.2197 58.3895 47.2019 48.0597 43.9762 45.5612C37.301 40.3776 29.1061 37.907 20.9579 41.3565Z" fill="#D5E59E" stroke="#4C241E" stroke-width="2" stroke-miterlimit="10"/>
<path d="M32.5184 52.4694C32.4811 52.8236 32.4438 53.1873 32.4065 53.5415C37.9257 55.0891 41.6828 60.9905 46.8663 59.993C55.2104 58.3894 47.1927 48.0597 43.9669 45.5611C40.8438 43.1278 37.3756 41.3098 33.7397 40.4055C33.2083 44.433 32.8727 48.4885 32.5091 52.4694H32.5184Z" fill="#A6B25F"/>
<path d="M49.486 107.111C43.4354 111.455 35.9398 110.299 29.4231 106.654C28.2018 105.974 27.0177 105.106 25.8897 104.1C25.582 106.645 25.265 109.19 24.9481 111.726C24.6311 114.318 24.3141 116.919 23.9878 119.51C29.2739 123.006 35.399 125.496 41.7293 125.477C48.3486 125.449 55.1636 122.345 58.5292 116.648C62.7991 109.414 56.9909 101.713 49.4766 107.102L49.486 107.111Z" fill="#A6B25F"/>
<path d="M20.9579 41.3565C12.2876 45.0297 5.63105 51.9007 2.8435 60.888C-3.44947 81.2493 5.71497 106.943 23.2793 119.044C28.7332 122.801 35.1194 125.505 41.7387 125.487C48.358 125.459 55.173 122.354 58.5386 116.658C62.8085 109.423 57.0003 101.722 49.486 107.111C43.4355 111.455 35.9399 110.299 29.4231 106.654C13.4343 97.7322 4.10209 58.0539 27.9594 53.3644C36.1636 51.7516 40.4055 61.233 46.8756 59.993C55.2197 58.3895 47.2019 48.0597 43.9762 45.5612C37.301 40.3776 29.1061 37.907 20.9579 41.3565Z" stroke="#4C241E" stroke-width="2" stroke-miterlimit="10"/>
<path d="M36.4619 18.4407C36.4619 18.4407 53.0008 143.573 54.278 147.805C55.5553 152.038 80.9975 161.37 106.449 161.37C131.901 161.37 157.352 152.047 158.62 147.805C159.897 143.573 176.436 18.4407 176.436 18.4407H36.4619Z" fill="#D5E59E" stroke="#4C241E" stroke-width="2" stroke-miterlimit="10"/>
<path d="M43.594 71.9542C43.7711 73.2873 43.9483 74.6298 44.1347 75.9723C63.7968 106.859 86.7218 135.359 112.705 161.174C113.46 161.128 114.206 161.081 114.961 161.025C87.7567 134.147 63.89 104.351 43.594 71.9448V71.9542Z" fill="white"/>
<path d="M75.534 157.343C76.5409 157.594 77.5851 157.855 78.6386 158.089C68.8402 148.178 59.6385 137.699 51.0894 126.689C51.2478 127.845 51.4063 128.954 51.5555 130.036C59.0698 139.545 67.0782 148.654 75.534 157.343Z" fill="white"/>
<path d="M47.9197 103.876C60.9066 124.209 75.9631 143.228 92.763 160.54C93.6393 160.643 94.525 160.736 95.4013 160.82C77.231 142.323 61.0837 121.813 47.3604 99.811C47.5468 101.182 47.724 102.533 47.9197 103.876Z" fill="white"/>
<path d="M41.5989 18.4407H39.6504C68.1319 69.6235 105.657 115.306 150.202 153.194C150.808 152.942 151.386 152.691 151.945 152.439C107.512 114.784 70.0617 69.3532 41.5989 18.4314V18.4407Z" fill="white"/>
<path d="M171.141 58.1936C159.235 45.7195 148.123 32.4064 137.998 18.4407H135.891C146.528 33.1989 158.238 47.2392 170.852 60.3472C170.945 59.6293 171.048 58.9021 171.141 58.1936Z" fill="white"/>
<path d="M56.04 18.4407H54.0449C82.3866 64.2442 118.336 105.302 159.963 139.508C160.056 138.883 160.149 138.231 160.252 137.541C119.361 103.811 84.0088 63.4424 56.0307 18.4407H56.04Z" fill="white"/>
<path d="M152.793 18.4407H150.705C157.66 28.2857 164.96 37.8696 172.595 47.1832C172.698 46.4094 172.8 45.6263 172.903 44.8711C165.91 36.2847 159.198 27.4559 152.784 18.4407H152.793Z" fill="white"/>
<path d="M79.7015 18.4407H77.6318C102.692 54.3246 131.276 87.4303 163.104 117.413C163.198 116.732 163.291 116.042 163.384 115.343C132.273 85.92 104.286 53.5135 79.6922 18.4314L79.7015 18.4407Z" fill="white"/>
<path d="M36.4619 18.4407C36.4619 18.4407 53.0008 143.573 54.278 147.805C55.5553 152.038 80.9975 161.37 106.449 161.37C131.901 161.37 157.352 152.047 158.62 147.805C159.897 143.573 176.436 18.4407 176.436 18.4407H36.4619Z" stroke="#4C241E" stroke-width="2" stroke-miterlimit="10"/>
<path d="M106.44 36.0237C77.6134 36.0237 34.7373 31.3343 34.7373 18.4407C34.7373 5.54713 77.6134 0.848389 106.44 0.848389C135.266 0.848389 178.142 5.5378 178.142 18.4314C178.142 31.325 135.257 36.0144 106.44 36.0144V36.0237Z" fill="#4E5E23" stroke="#4C241E" stroke-width="2" stroke-miterlimit="10"/>
<path d="M51.7329 28.8357C63.9832 32.6208 83.9156 35.082 106.44 35.082C128.964 35.082 148.896 32.6115 161.147 28.8357C148.896 25.0506 128.964 22.5894 106.44 22.5894C83.9156 22.5894 63.9832 25.0599 51.7329 28.8357Z" fill="#4C241E"/>
</g>
</svg>
