<svg width="585" height="155" viewBox="0 0 585 155" fill="none" xmlns="http://www.w3.org/2000/svg">
<path d="M180.558 98.6951C180.558 98.6951 169.589 118.59 171.427 118.59C173.265 118.59 313.927 119.705 313.927 119.705H347.979C347.979 119.705 345.173 98.8222 341.301 97.4829C337.43 96.1435 319.246 97.0527 319.246 97.0527L217.083 98.4116L180.549 98.6853L180.558 98.6951Z" fill="#F2D099"/>
<path d="M177.489 109.371C177.489 109.371 181.614 102.831 189.23 102.694C196.846 102.557 245.473 102.694 245.473 102.694L340.138 101.227C340.138 101.227 342.865 112.05 344.166 117.388C345.466 122.725 347.9 117.788 346.62 113.115C345.329 108.442 342.24 97.4829 342.24 97.4829L234.925 98.1477L180.49 98.9494C180.49 98.9494 175.201 107.768 175.074 109.498C174.947 111.228 177.528 109.361 177.528 109.361H177.508L177.489 109.371Z" fill="#FFFFFE"/>
<path d="M473.077 85.4775C472.696 85.4189 477.721 96.7497 477.721 96.7497L509.455 96.036C509.455 96.036 510.1 94.1589 509.455 92.0277C508.809 89.8867 502.494 78.1257 502.494 78.1257H477.73C477.73 78.1257 474.895 85.7317 473.087 85.4677H473.077V85.4775Z" stroke="#AA3EFF" stroke-miterlimit="10"/>
<path d="M471.014 78.1356L473.077 85.4776C473.077 85.4776 477.858 79.2012 477.721 78.1356C477.584 77.0699 502.484 78.1356 502.484 78.1356L500.676 74.5281H472.041C472.041 74.5281 470.32 75.6817 471.014 78.1356Z" fill="#FFEBD6"/>
<path d="M97.5377 11.4902C98.0559 11.8715 117.951 11.1383 117.951 11.1383C117.951 11.1383 122.115 8.93859 116.983 7.72632C111.762 7.97073 98.4078 8.57686 98.4078 8.57686C98.4078 8.57686 95.602 10.0824 97.5377 11.4902Z" fill="#4C3F2A"/>
<path d="M126.593 8.44001C125.742 8.58666 121.812 15.5181 121.812 15.919V19.6535C121.812 19.6535 123.552 20.1814 123.621 18.5194C123.689 16.8575 128.196 10.3073 128.196 10.3073C128.196 10.3073 129.682 7.90231 126.583 8.43023L126.593 8.44001Z" fill="#45361F"/>
<path d="M132.332 7.11036C132.332 7.11036 130.65 9.1145 133.045 9.1145H152.197C152.197 9.1145 155.238 8.31282 151.816 6.65084C147.299 5.98605 132.332 7.12015 132.332 7.12015V7.11036Z" fill="#654E41"/>
<path d="M157.428 9.66193L153.175 18.5193C153.175 18.5193 152.716 22.9187 155.296 21.3251C157.037 18.5193 160.204 10.4342 160.204 10.4342C160.204 10.4342 161.886 9.55439 166.461 9.66193C171.036 9.77925 182.709 9.965 182.709 9.965C182.709 9.965 184.195 11.2359 185.095 9.09489C185.994 6.95386 179.288 6.68994 179.288 6.68994H160.713C160.713 6.68994 158.053 8.34212 157.418 9.66193H157.428Z" fill="#705649"/>
<path d="M188.301 9.10473C188.301 9.10473 185.241 15.7722 185.173 17.3169C185.105 18.8616 185.173 21.2665 185.173 21.2665C185.173 21.2665 186.356 23.0165 187.813 20.8168C189.269 18.6171 188.966 15.0976 188.966 14.8532C188.966 14.6088 190.658 11.0404 190.658 11.0404C190.658 11.0404 190.511 7.99021 188.282 9.08516H188.292L188.301 9.10473Z" fill="#81745F"/>
<path d="M222.978 8.87006C222.695 9.43709 221.825 10.2094 220.994 15.7233C220.163 21.2372 220.798 22.4787 221.717 22.2832C222.636 22.0877 223.359 20.6799 223.839 16.3783C224.318 12.0767 224.806 9.17313 224.806 9.17313C224.806 9.17313 223.594 7.66759 222.968 8.88964H222.978V8.87006Z" fill="#6B513F"/>
<path d="M253.803 10.3071V22.3027L256.697 22.4982L256.443 8.93842C256.443 8.93842 253.803 8.6451 253.803 10.3071Z" fill="#474125"/>
<path d="M290.503 8.91886V20.758C290.503 20.758 291.344 22.8991 292.83 21.8237C294.316 20.7483 293.544 8.90907 293.544 8.90907C293.544 8.90907 290.503 8.01942 290.503 8.90907V8.91886Z" fill="#8B866C"/>
<path d="M325.62 8.33248C324.3 8.68443 325.62 19.7513 325.62 19.7513C325.62 19.7513 327.302 22.7526 328.661 21.687C329.433 19.8099 328.661 8.86038 328.661 8.86038C328.661 8.86038 328.661 7.53082 325.62 8.33248Z" fill="#413019"/>
<path d="M359.212 11.7638C359.133 12.1158 360.698 21.4815 360.698 22.4885C360.698 23.4954 363.435 24.4242 363.66 23.0946C363.885 21.765 363.66 15.7819 363.66 15.7819L362.105 11.3728C362.105 11.3728 359.935 8.41051 359.212 11.7834V11.7638Z" fill="#5C4A32"/>
<path d="M464.171 14.1785C464.454 14.8727 466.976 20.2497 467.367 23.4074C467.749 26.5652 470.173 22.6058 470.222 22.4005C470.271 22.1952 469.293 13.5333 466.292 11.6758C463.291 9.81828 464.18 14.1687 464.18 14.1687H464.171V14.1785Z" fill="#4D422C"/>
<path d="M430.54 13.3673C430.599 13.5628 431.791 21.0809 431.948 24.6297C432.094 28.1981 434.607 25.6562 434.607 25.6562C434.607 25.6562 434.861 18.5782 433.766 15.3715C432.671 12.1649 431.381 11.2361 431.381 11.2361C431.381 11.2361 429.699 10.4246 430.54 13.3673Z" fill="#72604D"/>
<path d="M395.257 11.236C395.257 11.236 397.642 18.9105 397.251 22.6451C398.933 25.05 400.605 23.7497 400.605 23.7497L400.018 15.3617C400.018 15.3617 398.796 9.81845 396.85 10.1508C394.905 10.4832 395.237 11.2262 395.237 11.2262H395.247L395.257 11.236Z" fill="#493C22"/>
<path d="M491.896 8.88963C492.336 10.5418 510.725 32.4604 510.725 32.4604L533.299 62.1218C533.299 62.1218 559.422 96.7302 559.549 96.7595C559.676 96.7888 576.383 118.561 576.833 118.766C577.283 118.971 579.932 119.431 577.351 115.696C574.77 111.962 555.56 87.9705 555.56 87.9705L524.95 47.3986L499.404 13.8658L494.184 7.35473C494.184 7.35473 490.733 4.46094 491.886 8.88963H491.896Z" fill="#4E2F23"/>
<path d="M468.325 12.4188H488.963C488.963 12.4188 491.085 10.5417 486.382 9.61298C481.67 8.68423 470.212 9.00685 470.212 9.00685C470.212 9.00685 466.781 10.6102 468.325 12.4188Z" fill="#483123"/>
<path d="M436.269 11.236C436.269 11.236 435.174 13.3575 437.295 13.5628C439.417 13.7681 439.749 12.8295 439.749 12.8295C439.749 12.8295 451.285 12.7611 451.549 12.7611C451.813 12.7611 454.717 13.6605 454.189 11.2458C453.661 8.83101 436.904 9.662 436.259 11.2458H436.269V11.236Z" fill="#4F2E20"/>
<path d="M194.509 8.40081C194.509 8.40081 192.828 10.8547 195.35 10.5907C197.872 10.3267 210.572 10.6102 210.572 10.6102H216.115C216.115 10.6102 216.311 9.08515 212.312 8.40081C208.304 7.71646 201.128 6.80726 194.509 8.40081Z" fill="#5A3D30"/>
<path d="M226.889 9.05585C226.889 9.05585 225.334 11.4511 226.889 11.4511C228.443 11.4511 235.785 11.6564 235.99 11.4511C236.196 11.2458 248.309 11.715 248.054 9.98461C247.8 8.2542 227.583 7.39386 226.898 9.05585H226.889Z" fill="#5D3C2E"/>
<path d="M260.05 8.91895C260.05 8.91895 258.183 10.8547 260.05 10.9915C261.917 11.1284 268.242 10.5223 268.242 10.5223L283.718 10.6592C283.718 10.6592 287.267 8.6843 282.301 8.41056C277.334 8.13683 260.05 8.92874 260.05 8.92874V8.91895Z" fill="#665A42"/>
<path d="M363.768 10.1607C363.572 10.2487 363.494 13.3869 365.175 12.9274C366.857 12.4679 385.432 11.7249 386.527 12.4581C387.622 13.1913 390.78 12.4581 387.944 10.7179C385.109 8.97773 370.474 9.11459 370.474 9.11459C370.474 9.11459 365.038 9.60341 363.787 10.1607H363.777H363.768Z" fill="#664337"/>
<path d="M299.771 7.36448C299.458 7.60889 296.135 9.36862 297.288 10.4049C298.442 11.4412 300.329 10.6102 301.961 9.5348C303.594 8.4594 316.381 9.11442 316.381 9.11442L318.679 9.59345C318.679 9.59345 323.196 9.88673 319.353 6.88538C314.26 6.24992 300.935 6.45527 299.781 7.35469H299.771V7.36448Z" fill="#3F2C1B"/>
<path d="M331.31 8.70394C331.212 8.6355 329.824 11.3729 331.31 11.3729C332.796 11.3729 344.176 10.6396 344.176 10.6396C344.176 10.6396 350.335 10.0042 351.078 11.7444C351.821 13.4846 354.206 11.0796 354.206 11.0796C354.206 11.0796 353.268 8.04892 345.847 8.08802C338.427 8.12713 331.3 8.70394 331.3 8.70394H331.31Z" fill="#4C3827"/>
<path d="M402.951 10.7765C402.716 11.2262 402.951 13.7778 404.105 13.5529C405.258 13.3281 407.301 11.9301 409.325 12.1745C411.349 12.4189 420.089 12.5362 420.089 12.5362C420.089 12.5362 426.277 14.4915 423.618 10.7862C421.878 10.5125 419.874 10.2779 412.326 10.1508C404.779 10.0237 402.941 10.7862 402.941 10.7862H402.951V10.7765Z" fill="#6C5741"/>
<path d="M3.8217 139.902C3.8217 139.902 46.9061 143.911 56.1936 144.712C65.4811 145.514 116.817 151.126 116.817 151.126L25.2319 152.455H11.0366C11.0366 152.455 2.58988 151.39 3.8217 139.902Z" fill="#EF7C7B"/>
<path d="M582.601 128.425C582.719 127.839 582.601 142.249 582.601 142.249C582.601 142.249 582.406 153.071 564.994 152.465C547.592 151.859 491.388 152.485 491.388 152.485C491.388 152.485 581.438 134.027 582.601 128.415V128.425Z" fill="#E7837B"/>
<path d="M1.3677 116.928L2.9221 147.118C2.9221 147.118 1.36766 151.654 11.0463 152.465C20.7248 153.277 151.767 153.13 151.767 153.13H391.562L572.864 152.485C572.864 152.485 583.501 147.381 583.706 130.556C583.902 113.731 583.706 117.925 583.706 117.925L551.2 74.5281L496.442 2.3199L345.906 1.11743H88.563L16.5895 95.8894L1.3677 116.928ZM1.3677 116.928H1.35791" stroke="#AA3EFF" stroke-miterlimit="10"/>
<path d="M5.9528 112.93C5.9528 112.93 11.1734 120.135 12.9136 117.935C14.6538 115.735 43.4842 76.8548 43.4842 76.8548L63.6137 44.7981C63.6137 44.7981 60.6026 37.9449 59.009 40.0566C57.4155 42.1683 4.71118 112.353 4.71118 112.353L5.97231 112.939H5.96258L5.9528 112.93Z" fill="#D9A482"/>
<path d="M452.781 26.5359C452.781 26.5359 446.133 29.7523 452.194 30.0163C458.256 30.2802 470.848 28.5498 470.848 28.5498L494.888 28.0219C494.888 28.0219 500.499 28.5498 500.695 29.4297C500.89 30.3095 503.921 27.8753 501.536 26.5457C499.15 25.2161 485.023 25.2258 485.023 25.2258L452.771 26.5457H452.781V26.5359Z" fill="#504731"/>
<path d="M443.621 33.6922L448.401 45.0523C448.401 45.0523 451.109 46.1179 450.523 43.5174C449.936 40.9169 447.111 33.9659 447.111 33.9659L446.074 32.695C446.074 32.695 443.621 31.0917 443.621 33.702V33.6922Z" fill="#5A4F39"/>
<path d="M415.181 29.2733C415.181 29.2733 412.669 32.343 418.984 31.5512C425.3 30.7593 434.147 31.0233 435.106 31.688C436.064 32.3528 441.294 31.688 441.294 31.688C441.294 31.688 443.494 28.0806 437.999 28.0806H423.364C423.364 28.0806 416.589 28.149 415.172 29.283L415.181 29.2733Z" fill="#534730"/>
<path d="M409.628 32.92C409.609 33.1839 412.336 43.6055 412.336 43.6055C412.336 43.6055 415.308 46.343 414.683 42.0707C414.047 37.7984 413.148 32.6071 411.926 32.1965C410.704 31.7859 409.804 31.1798 409.628 32.9103V32.92Z" fill="#675B44"/>
<path d="M384.581 27.9535C384.581 27.9535 409.54 27.5526 409.863 28.6475C410.186 29.7425 410.42 31.9227 409.531 31.7369C408.641 31.5512 403.127 30.6224 400.194 30.8961C397.261 31.1698 384.347 31.0526 384.347 31.0526C384.347 31.0526 380.866 29.8012 384.581 27.9535Z" fill="#463B25"/>
<path d="M439.388 50.4195C439.388 50.4195 448.353 47.555 461.316 48.2785C474.27 49.0019 505.173 48.1514 505.173 48.1514H514.46C514.46 48.1514 522.389 48.9433 525.938 55.7476C525.938 55.7476 526.906 60.2252 522.976 57.8202C520.913 54.0856 520.913 52.8147 518.136 51.9446C515.36 51.0745 493.304 50.615 493.304 50.615L445.967 51.622C445.967 51.622 440.747 52.5507 439.388 50.4195Z" fill="#4A3625"/>
<path d="M89.6677 121.347L277.735 119.705H467.925L578.466 118.883C578.466 118.883 587.568 122.139 573.891 122.403C560.213 122.667 447.111 122.403 447.111 122.403L363.67 124.544C363.67 124.544 253.226 124.808 246.011 124.544C238.796 124.28 179.16 124.515 175.045 124.671C170.929 124.827 121.822 124.671 121.822 124.671L109.269 124.73C109.269 124.73 77.0171 125.082 89.6579 121.337H89.6775L89.6677 121.347Z" stroke="#AA3EFF" stroke-miterlimit="10"/>
<path d="M100.05 12.6438C100.05 12.6438 89.7947 18.7052 90.2835 19.7317C90.7724 20.7582 89.3157 21.8825 98.2121 21.6674C107.109 21.4524 120.844 21.6674 120.844 21.6674L124.52 9.65225L118.039 9.08521L100.627 9.65225L100.04 12.634L100.05 12.6438Z" stroke="#AA3EFF" stroke-miterlimit="10"/>
<path d="M433.453 56.3637C433.453 56.3637 438.488 70.5296 438.674 70.5296C438.86 70.5296 442.614 72.6706 440.355 66.2573C438.097 59.844 435.193 52.9028 435.193 52.9028C435.193 52.9028 432.231 51.104 433.453 56.3735V56.3637Z" fill="#46301A"/>
<path d="M443.621 50.7521C443.621 50.7521 434.822 50.3512 435.985 56.2268C437.159 62.1024 442.311 73.8634 442.311 73.8634H459.722C459.722 73.8634 463.721 74.7823 465.266 74.5281C466.81 74.274 470.203 71.5855 470.203 71.5855L500.998 71.8494L535.049 70.8523C535.049 70.8523 537.728 71.3704 531.823 63.5591C525.918 55.7478 523.562 53.3428 523.562 53.3428C523.562 53.3428 505.71 46.3332 443.601 50.7423H443.611L443.621 50.7521Z" fill="#F1CD9A"/>
<path d="M445.811 52.5997C445.811 52.5997 443.943 54.9656 445.097 54.9656C446.251 54.9656 455.675 53.9293 461.414 53.7729C467.152 53.6164 505.398 53.7729 505.398 53.7729H522.232C522.232 53.7729 518.293 49.9405 505.27 49.8819C492.248 49.8232 447.111 50.1458 447.111 50.1458L445.801 52.5802L445.811 52.5997Z" fill="#FFFFE6"/>
<path d="M514.245 99.9856C514.323 100.25 519.026 108.667 519.026 108.667C519.026 108.667 516.318 100.514 522.897 100.514C529.477 100.514 544.307 99.4479 544.307 99.4479C544.307 99.4479 545.334 97.7077 543.466 97.5708C541.599 97.434 521.861 97.5708 521.861 97.5708C521.861 97.5708 513.668 98.0401 514.245 99.9758H514.255L514.245 99.9856Z" stroke="#AA3EFF" stroke-miterlimit="10"/>
<path d="M474.964 99.2426C474.964 99.2426 477.73 105.588 478.063 105.861C478.395 106.135 478.317 100.719 485.151 100.65C491.984 100.582 505.407 100.914 505.407 100.914C505.407 100.914 508.301 98.0597 504.889 97.5122C501.477 96.9647 478.698 97.8446 478.698 97.8446L474.964 99.2524V99.2426Z" fill="#FFEAD7"/>
<path d="M439.388 102.586C439.798 104.786 442.125 109.293 442.125 109.293C442.125 109.293 443.044 108.188 444.716 107.386C446.387 106.585 445.801 102.576 445.801 102.576L459.155 101.589L467.954 102.068C467.954 102.068 469.596 103.769 470.076 103.671C470.555 103.574 474.24 106.585 474.24 106.585L473.048 99.3796H439.388L437.774 99.9858L439.388 102.586Z" fill="#FAE7CF"/>
<path d="M134.17 28.0806C132.429 31.2286 130.044 37.0944 130.044 37.0944C130.044 37.0944 128.949 40.7019 130.044 40.9658C131.139 41.2298 136.174 31.4827 136.174 31.4827V28.0708H134.17V28.0806Z" fill="#352810"/>
<path d="M169.58 28.0805C169.58 29.6448 164.105 40.2325 164.105 40.2325C164.105 40.2325 164.428 44.3093 165.786 42.9015C167.145 41.4937 172.874 28.4129 172.874 28.4129C172.874 28.4129 172.747 27.0051 172.034 26.4088C171.32 25.8124 171.066 24.0038 164.418 23.603C157.77 23.2021 141.786 23.603 141.786 23.603C141.786 23.603 138.618 26.2034 141.404 26.7509C144.181 27.2984 162.942 26.6825 163.137 26.6825C163.333 26.6825 168.553 26.9464 168.553 26.9464C168.553 26.9464 169.58 27.2104 169.58 28.0805Z" fill="#877F6B"/>
<path d="M180.95 23.5445C180.177 23.6813 174.497 24.6101 174.947 26.3503C175.397 28.0905 181.781 26.5556 187.138 26.3503C192.495 26.145 200.229 27.5527 200.493 27.5527C200.757 27.5527 202.106 28.8237 202.106 28.8237C202.106 28.8237 199.339 38.776 198.43 41.0441C197.521 43.3122 200.043 42.6474 200.043 42.6474L204.423 32.5582C204.423 32.5582 205.39 25.4117 201.128 24.5416C196.866 23.6715 180.94 23.5347 180.94 23.5347H180.95V23.5445Z" fill="#B2A18A"/>
<path d="M351.967 26.5359C351.967 26.5359 348.096 26.2524 347.842 28.0806C347.588 29.9088 349.905 30.7104 353.522 30.0456C357.129 29.3808 370.806 29.8305 370.806 29.8305C370.806 29.8305 376.741 31.2579 377.64 35.931C378.54 40.6041 378.412 43.9476 380.602 43.6836C382.792 43.4197 381.121 38.1209 381.121 38.1209L379.312 32.216L378.54 28.1001C378.54 28.1001 372.478 26.6337 365.899 26.5555C359.319 26.4773 351.967 26.5555 351.967 26.5555V26.5359Z" fill="#473923"/>
<path d="M315.726 25.9102C315.726 25.9102 310.564 29.9185 313.272 30.5931C315.981 31.2676 318.689 29.8305 318.689 29.8305H333.783L341.135 30.7593C341.135 30.7593 343.716 30.5149 343.589 35.0902C343.462 39.6655 344.743 45.5509 344.743 45.5509C344.743 45.5509 346.942 46.6654 347.069 42.3052C347.196 37.9449 346.043 33.1154 345.515 31.9911C344.987 30.8668 344.488 27.9046 344.488 27.9046C344.488 27.9046 340.109 25.656 336.745 25.92C333.382 26.1839 315.717 25.92 315.717 25.92H315.726V25.9102Z" fill="#584A36"/>
<path d="M283.924 26.7803C283.924 26.7803 277.54 26.6434 277.667 29.1852C277.794 31.7271 284.501 30.9841 284.501 30.9841L304.425 31.0818C304.425 31.0818 305.911 31.3165 305.979 37.3289C306.048 43.3414 306.752 46.0788 306.752 46.0788C306.752 46.0788 309.518 48.0829 309.46 40.9364C309.401 33.7899 308.56 31.9227 308.56 31.9227L307.407 30.9157L306.693 28.0512C306.693 28.0512 294.375 26.5163 283.924 26.7803Z" fill="#2B210E"/>
<path d="M243.704 27.4158L269.826 26.751C269.826 26.751 272.251 26.4088 272.534 28.5205C272.818 30.6322 274.656 30.8278 274.656 30.8278V44.4462C274.656 44.4462 270.687 47.4475 270.403 41.3471C270.12 35.2466 270.99 29.723 270.99 29.723L248.045 30.0163H245.356C245.356 30.0163 241.387 31.2188 243.714 27.4158H243.704Z" fill="#403523"/>
<path d="M207.688 28.0805C207.688 28.0805 210.396 25.2747 214.776 25.2747H231.865C231.865 25.2747 240.312 25.744 241.094 30.1531C241.876 34.5622 239.803 39.4993 239.803 39.4993L238.963 45.1794C238.963 45.1794 234.768 47.4474 236.196 40.4378C237.623 33.4281 237.936 31.8248 237.936 31.8248C237.936 31.8248 240.057 29.283 230.447 28.9604C220.837 28.628 209.096 28.8919 209.096 28.8919C209.096 28.8919 207.287 29.762 207.678 28.0903L207.688 28.0805Z" fill="#423C2F"/>
<path d="M88.6315 23.1046C88.6315 23.1046 86.3047 24.8056 87.9862 25.2749C89.6678 25.7442 105.144 25.2749 105.144 25.2749H125.909C125.909 25.2749 127.981 25.0696 128.558 26.6827C129.135 28.2958 131.765 26.6827 131.765 26.6827C131.765 26.6827 132.244 23.1437 127.463 23.1046C122.683 23.0753 88.6412 23.1046 88.6412 23.1046H88.6315Z" fill="#372A17"/>
<path d="M52.1267 97.483H69.9294L72.2562 98.7442C72.2562 98.7442 74.6123 98.6268 73.4489 96.7791C72.2855 94.9314 64.699 95.3224 64.699 95.3224L51.3934 95.6157C51.3934 95.6157 50.1225 97.092 52.1364 97.483H52.1267Z" fill="#342715"/>
<path d="M76.3426 98.7442C76.1471 98.8615 67.495 110.691 66.2827 114.758C65.0704 118.825 68.893 116.615 68.893 116.615L78.425 100.934C78.425 100.934 78.9627 97.2093 76.3524 98.7442H76.3426Z" fill="#7F7060"/>
<path d="M82.5797 96.6227C82.5797 96.6227 88.7192 95.9285 98.1045 95.821C107.49 95.7134 121.03 95.821 121.03 95.821C121.03 95.821 127.121 96.2218 123.152 99.1254C116.914 99.4187 83.5866 99.5751 83.5866 99.5751C83.5866 99.5751 77.496 99.0179 82.5699 96.6129H82.5797V96.6227Z" fill="#3C372A"/>
<path d="M124.511 99.5752C124.511 99.5752 118.713 108.589 118.195 110.847C117.677 113.106 118.528 116.107 118.528 116.107C118.528 116.107 119.73 117.407 120.033 116.107C120.336 114.807 123.709 104.933 125.117 103.984C126.525 103.036 127.141 100.729 127.141 100.729C127.141 100.729 126.828 97.4244 124.52 99.5849H124.511V99.5752Z" fill="#AEA291"/>
<path d="M131.198 95.3713L163.655 95.782C163.655 95.782 170.186 95.7331 167.576 99.3895C160.126 99.5948 130.572 99.3895 130.572 99.3895C130.572 99.3895 128.93 96.1339 131.207 95.3811L131.198 95.3713Z" fill="#3F3826"/>
<path d="M68.3651 49.4223C68.3651 49.4223 67.3386 47.0173 88.8759 47.4182C110.413 47.819 132.86 47.3791 132.86 47.3791C132.86 47.3791 140.212 47.3791 139.312 45.5313C138.413 43.6836 127.835 44.0845 127.835 44.0845L77.9166 44.0453C77.9166 44.0453 68.5019 43.3805 67.0746 46.7436C65.6472 50.1067 68.3651 49.4419 68.3651 49.4419H68.3748L68.3651 49.4223Z" stroke="#004FFF" stroke-miterlimit="10"/>
<path d="M49.5359 72.0058C49.5359 72.0058 48.2454 75.7403 50.1811 75.4764C52.1169 75.2124 54.2481 72.0058 54.2481 72.0058H81.1819L112.965 72.6217C112.965 72.6217 118.752 71.5072 114.754 70.1092C111.195 68.8676 75.5214 68.9458 75.5214 68.9458L60.1823 68.9653C60.1823 68.9653 52.3613 66.1302 49.5261 72.0058H49.5359Z" stroke="#004FFF" stroke-miterlimit="10"/>
<path d="M124.022 71.5561C123.582 72.348 114.666 89.9943 114.48 90.2583C114.294 90.5223 113.131 95.0682 116.162 93.6018C119.192 92.1353 125.254 76.2292 125.254 76.2292L125.635 72.2209C125.635 72.2209 124.599 70.5003 124.022 71.5561Z" stroke="#004FFF" stroke-miterlimit="10"/>
<path d="M130.308 71.732C130.308 71.732 127.287 71.8885 127.571 73.5504C127.854 75.2124 133.759 75.2418 133.759 75.2418L144.318 74.7921L150.917 74.4499C150.917 74.4499 151.611 71.3312 149.577 70.9109C147.544 70.4905 130.308 71.732 130.308 71.732ZM130.308 71.732H130.298" stroke="#004FFF" stroke-miterlimit="10"/>
<path d="M159.96 75.232L154.485 85.6047C154.485 85.6047 153.713 91.754 154.026 92.6827C154.338 93.6115 156.655 93.6115 156.949 91.754C157.242 89.8965 158.669 82.6131 159.96 81.5377C161.25 80.4623 162.218 78.3311 162.218 78.3311C162.218 78.3311 163.313 74.4205 159.96 75.2418V75.232Z" stroke="#004FFF" stroke-miterlimit="10"/>
<path d="M196.914 74.5084L193.62 86.1325C193.62 86.1325 192.398 89.3391 192.847 91.2162C193.297 93.0932 194.49 92.2231 194.822 92.0178C195.155 91.8125 198.84 78.458 198.84 78.458L199.681 75.7207C199.681 75.7207 199.75 72.4456 196.914 74.5182V74.5084Z" stroke="#004FFF" stroke-miterlimit="10"/>
<path d="M233.312 78.7025L232.539 90.1702C232.539 90.1702 232.207 93.0836 232.921 93.3769C233.634 93.6701 235.247 93.8266 235.58 91.6758C235.912 89.525 236.401 78.4581 236.401 78.4581C236.401 78.4581 234.465 76.2584 233.302 78.7025H233.312Z" stroke="#004FFF" stroke-miterlimit="10"/>
<path d="M168.964 73.3452C168.964 73.3452 166.529 73.8732 166.05 75.4863C165.571 77.0994 170.547 76.9429 170.547 76.9429L180.558 75.2418L190.618 76.2977C190.618 76.2977 196.23 76.7474 194.539 73.8438C192.847 70.9403 168.964 73.3647 168.964 73.3647H168.973L168.964 73.3452Z" stroke="#004FFF" stroke-miterlimit="10"/>
<path d="M204.608 73.8241C204.608 73.8241 201.998 76.6984 204.608 76.7668C207.219 76.8352 230.77 76.9037 230.897 76.7668C231.024 76.6299 234.534 76.5908 232.021 73.8241C227.309 72.69 204.608 73.8241 204.608 73.8241Z" stroke="#004FFF" stroke-miterlimit="10"/>
<path d="M243.626 72.045C243.626 72.045 241.074 72.3383 241.015 74.8508C240.957 77.3633 245.434 74.8508 245.434 74.8508L266.395 74.8802C266.395 74.8802 269.23 76.6496 269.65 80.9512C270.071 85.2528 270.032 89.0363 270.032 89.0363C270.032 89.0363 270.032 90.5712 272.094 90.1019C274.157 89.6327 273.991 88.0685 273.835 86.7291C273.678 85.3897 272.613 77.8521 272.613 77.8521C272.613 77.8521 271.127 71.869 265.065 71.4095C259.004 70.95 243.626 72.045 243.626 72.045ZM243.626 72.045H243.616" stroke="#004FFF" stroke-miterlimit="10"/>
<path d="M278.264 72.4458C278.264 72.4458 275.751 75.5156 278.264 75.5156H299.801L310.829 75.1734C310.829 75.1734 313.214 72.3089 306.762 71.9668C300.309 71.6246 278.254 72.4361 278.254 72.4361H278.264V72.4458Z" stroke="#004FFF" stroke-miterlimit="10"/>
<path d="M311.542 78.3996C311.542 78.3996 311.161 80.4722 312.187 85.1453C313.214 89.8184 312.774 93.3574 312.774 93.3574H316.773C316.773 93.3574 316.186 88.4106 315.287 84.4805C314.387 80.5504 314.123 78.4093 314.123 78.4093C314.123 78.4093 312.197 75.0658 311.542 78.4093H311.552L311.542 78.3996Z" stroke="#004FFF" stroke-miterlimit="10"/>
<path d="M352.505 96.1241C352.505 96.1241 346.571 98.3531 351.351 99.3797C356.132 100.406 377.542 99.3797 377.542 99.3797H380.25C380.25 99.3797 383.213 96.9258 377.669 96.1241C372.126 95.3225 352.525 96.1241 352.525 96.1241H352.515H352.505Z" stroke="#004FFF" stroke-miterlimit="10"/>
<path d="M388.355 103.085C388.355 103.085 392.735 113.888 392.999 115.618C393.253 117.358 395.237 114.953 395.237 114.953C395.237 114.953 394.944 111.082 392.871 107.064C390.799 103.046 388.619 99.487 388.355 103.085Z" stroke="#004FFF" stroke-miterlimit="10"/>
<path d="M435.888 101.609C435.888 101.609 436.856 105.333 438.664 107.875C440.473 110.417 441.05 116.43 441.079 116.83C441.108 117.231 443.621 116.83 443.621 116.83C443.621 116.83 443.181 112.343 442.663 110.818C442.144 109.293 438.987 101.931 438.987 101.931C438.987 101.931 437.755 100.289 435.888 101.618V101.609Z" stroke="#004FFF" stroke-miterlimit="10"/>
<path d="M443.621 96.0263C443.054 96.0263 439.867 96.2903 440.15 97.6688C440.434 99.0472 439.182 100.338 447.893 100.406C456.604 100.465 469.792 99.7413 469.792 99.7413C469.792 99.7413 473.37 96.4369 468.208 95.6939C463.046 94.9509 443.621 96.0361 443.621 96.0361V96.0263Z" stroke="#004FFF" stroke-miterlimit="10"/>
<path d="M472.529 101.306C472.529 101.208 472.852 96.3294 475.394 99.6045C477.936 102.88 480.39 110.192 480.39 110.192C480.39 110.192 482.941 112.861 481.514 115.139C480.096 117.417 477.232 111.727 477.232 111.727L472.51 101.315H472.52L472.529 101.306Z" stroke="#004FFF" stroke-miterlimit="10"/>
<path d="M511.967 102.009C511.967 102.009 512.114 98.3531 515.018 99.9466C516.904 103.31 520.825 112.578 520.825 112.715V114.22C520.825 114.22 517.628 116.821 515.937 111.062C514.245 105.304 511.967 102 511.967 102V102.009Z" stroke="#004FFF" stroke-miterlimit="10"/>
<path d="M519.613 96.349C519.759 96.1535 519.231 93.641 528.313 93.641C537.396 93.641 551.337 93.2402 551.581 93.3966C551.826 93.553 555.257 95.4789 554.436 97.3364C553.615 99.1939 520.825 97.6493 520.825 97.6493C520.825 97.6493 518.517 97.7372 519.622 96.349H519.613Z" stroke="#004FFF" stroke-miterlimit="10"/>
<path d="M1.13306 118.825L2.55058 146.335C2.57013 146.638 2.5506 148.339 2.5115 148.652C2.36485 149.659 2.48218 151.654 10.7139 152.338C20.3827 153.14 151.435 153.003 151.435 153.003H391.229L571.036 152.367C572.131 152.367 573.206 152.015 574.106 151.37C577.068 149.2 583.227 143.187 583.374 130.429C583.462 122.305 583.941 118.971 583.452 117.925C583.227 117.436 582.905 117.182 582.905 117.182L550.877 74.4008L497.733 4.3142C496.716 2.97484 495.171 2.18295 493.519 2.17317L345.583 1H90.8702C89.2082 1 87.644 1.79189 86.6273 3.14102L16.2766 95.7818L2.23773 115.198C1.47517 116.244 1.10371 117.544 1.17214 118.854L1.14278 118.834L1.13306 118.825Z" fill="#F7C2B9" stroke="#4C241E" stroke-width="2" stroke-miterlimit="10"/>
<path d="M445.38 105.734L441.46 108.52L443.278 115.55L442.829 117.71L575.015 116.889L556.88 99.2525L526.798 98.353C526.798 98.353 507.881 94.4132 507.929 89.7205C507.978 85.0279 494.291 95.6939 494.291 95.6939C494.291 95.6939 472.138 102.039 469.332 101.491C466.527 100.944 445.439 101.491 445.439 101.491L445.371 105.754L445.38 105.734Z" fill="#FAC0B2"/>
<path d="M92.4051 9.67173C92.7766 8.89939 93.5392 8.41059 94.3799 8.40081L161.094 7.57957C161.094 7.57957 213.495 9.71081 248.084 9.95522C260.158 10.0334 271.234 9.17309 275.536 8.89936C291.383 7.88262 308.179 7.42314 309.763 7.38403H310.007L344.713 10.405C344.713 10.405 361.216 11.3631 361.186 12.194C361.157 13.025 380.896 11.4803 380.896 11.4803C380.896 11.4803 397.828 9.90635 398.307 9.96501C398.718 10.0139 401.641 10.4538 402.443 10.5809C402.58 10.6005 402.697 10.6103 402.834 10.6005C405.073 10.5125 425.339 9.75972 429.572 12.546C430.12 12.9077 430.794 12.9664 431.42 12.7806C433.717 12.1158 437.608 11.3141 438.654 11.1088C438.83 11.0795 439.006 11.06 439.202 11.0697L460.358 12.2331H460.641L467.495 11.6857C467.612 11.6857 467.729 11.6563 467.847 11.627L474.221 10.0432C474.416 9.99435 474.612 9.9748 474.817 9.98458L492.561 10.5418C493.206 10.5614 493.803 10.8742 494.223 11.3728L517.569 40.2619L545.432 77.1188L575.513 115.1C576.706 116.615 575.689 118.893 573.803 118.913L388.365 121.083L69.46 122.413C69.2547 122.413 69.0397 122.393 68.8344 122.325C66.1556 121.435 50.2886 121.689 35.6436 122.022C19.5615 122.383 4.37883 123.165 11.1343 115.188C22.2989 102 92.3563 9.66194 92.3563 9.66194H92.3758L92.4051 9.67173Z" fill="#FFEED5"/>
<path d="M519.045 96.2022C519.084 95.9187 518.879 93.5235 527.971 93.5235C537.063 93.5235 550.212 93.2106 551.18 93.2791C551.64 93.3084 554.915 95.3516 554.094 97.2189C553.272 99.0862 520.453 97.6784 520.453 97.6784C520.453 97.6784 518.889 97.3167 519.036 96.2022H519.045Z" fill="#7B6E5D"/>
<path d="M99.6981 12.5264C99.6981 12.5264 89.9706 19.0667 89.9315 19.6142C89.9022 20.0542 88.9637 21.765 97.8602 21.5499C104.84 21.3837 115.526 21.5988 119.798 21.7064C120.903 21.7357 121.881 21.0024 122.223 19.9075L125.341 9.74012L117.696 8.97754L100.285 9.54458L99.6981 12.5264Z" fill="#EFD4A3"/>
<path d="M472.735 84.1382C472.354 84.0796 478.327 96.8866 478.327 96.8866L508.898 95.4397C508.898 95.4397 509.758 92.8196 509.113 90.6786C508.467 88.5376 502.328 77.5978 502.328 77.5978L480.996 76.7864C480.996 76.7864 474.543 84.3924 472.735 84.1284V84.1382Z" fill="#F7C2B5"/>
<path d="M179.053 97.8936C179.053 97.8936 169.912 116.127 169.824 117.935C169.736 119.744 197.296 119.431 202.712 119.587C208.128 119.744 350.442 119.587 350.442 119.587C350.442 119.587 346.375 97.4048 342.611 96.1925C338.848 94.9803 292.234 95.557 292.234 95.557L223.711 96.6325C223.711 96.6325 181.028 94.599 179.053 97.9034V97.8936Z" fill="#645A4A"/>
<path d="M180.207 98.5584C180.207 98.5584 171.418 113.927 170.87 117.29C170.812 117.691 171.017 118.072 171.212 118.072C171.516 118.072 175.407 119.157 182.182 118.893C207.238 117.896 285.84 117.417 325.004 117.935C334.429 118.062 341.605 118.395 345.134 118.365C346.747 118.356 347.519 117.964 347.519 117.964C347.519 117.964 344.841 98.705 340.969 97.3657C337.098 96.0263 318.914 96.9355 318.914 96.9355L216.751 98.2944L180.216 98.5682H180.207V98.5584Z" fill="#F2D099"/>
<path d="M181.986 102.625C183.687 101.697 186.503 101.286 188.937 101.247C194.588 101.149 244.076 99.7511 269.308 99.5946C278.048 99.5457 339.405 99.7706 339.405 99.7706C339.991 99.7706 340.5 100.132 340.705 100.699C341.634 103.378 344.322 111.747 345.574 116.068C345.828 116.948 346.757 116.693 346.933 115.716C347.109 114.65 346.874 113.878 346.659 112.793C346.287 110.984 345.789 108.002 345.046 105.343C344.303 102.694 343.462 100.572 342.719 99.096C342.211 98.0988 341.145 97.0137 340.06 96.9648L334.839 96.6813L329.423 96.5542L316.773 96.9453L234.358 97.7274L180.568 98.5486C180.451 98.5486 180.314 98.4997 180.216 98.5486C180.109 98.6072 180.041 98.8028 179.982 98.9298C179.63 99.6533 178.584 101.423 177.616 103.222C176.736 104.874 175.827 106.536 175.182 107.748C174.879 108.325 174.585 108.853 174.507 109.039C174.39 109.332 179.043 104.248 181.996 102.635V102.616L181.986 102.625Z" fill="#FFFFFE"/>
<path d="M470.672 78.0084L472.735 85.3504C472.735 85.3504 477.515 79.074 477.379 78.0084C477.242 76.9427 502.142 78.0084 502.142 78.0084L500.333 74.4009H471.699C471.699 74.4009 469.978 75.5545 470.672 78.0084Z" fill="#FFEBD6"/>
<path d="M97.1859 11.363C97.7041 11.7443 117.599 11.0111 117.599 11.0111C117.599 11.0111 121.764 8.81139 116.631 7.59912C111.41 7.84353 98.056 8.44966 98.056 8.44966C98.056 8.44966 95.2502 9.9552 97.1859 11.363Z" fill="#4C3F2A"/>
<path d="M126.241 8.31282C125.391 8.45946 121.46 15.3909 121.46 15.7918V19.5263C121.46 19.5263 123.201 20.0542 123.269 18.3922C123.338 16.7303 127.844 10.1801 127.844 10.1801C127.844 10.1801 129.33 7.77511 126.231 8.30303L126.241 8.31282Z" fill="#45361F"/>
<path d="M131.99 6.97335C131.99 6.97335 130.308 8.97749 132.703 8.97749H151.855C151.855 8.97749 154.896 8.17587 151.474 6.51389C146.957 5.84909 131.99 6.98313 131.99 6.98313V6.97335Z" fill="#654E41"/>
<path d="M157.076 9.54474L152.823 18.4021C152.823 18.4021 152.363 22.8015 154.944 21.2079C156.685 18.4021 159.852 10.3171 159.852 10.3171C159.852 10.3171 161.534 9.4372 166.109 9.54474C170.684 9.66206 182.357 9.84781 182.357 9.84781C182.357 9.84781 183.843 11.1187 184.743 8.9777C185.642 6.83668 178.936 6.57275 178.936 6.57275H160.361C160.361 6.57275 157.701 8.22494 157.066 9.54474H157.076Z" fill="#705649"/>
<path d="M187.949 8.97772C187.949 8.97772 184.889 15.6452 184.821 17.1899C184.753 18.7345 184.821 21.1395 184.821 21.1395C184.821 21.1395 186.004 22.8895 187.461 20.6898C188.917 18.4902 188.614 14.9706 188.614 14.7262C188.614 14.4818 190.306 10.9135 190.306 10.9135C190.306 10.9135 190.159 7.86325 187.93 8.9582H187.94L187.949 8.97772Z" fill="#81745F"/>
<path d="M222.636 8.7331C222.352 9.30013 221.482 10.0725 220.651 15.5863C219.82 21.1002 220.456 22.3418 221.375 22.1463C222.294 21.9508 223.017 20.5429 223.496 16.2413C223.985 11.93 224.464 9.03617 224.464 9.03617C224.464 9.03617 223.252 7.53063 222.626 8.75267H222.636V8.7331Z" fill="#6B513F"/>
<path d="M253.461 10.1802V22.1757L256.355 22.3713L256.1 8.81146C256.1 8.81146 253.461 8.51819 253.461 10.1802Z" fill="#474125"/>
<path d="M290.161 8.78208V20.6213C290.161 20.6213 291.002 22.7623 292.488 21.6869C293.974 20.6115 293.202 8.77235 293.202 8.77235C293.202 8.77235 290.161 7.8827 290.161 8.77235V8.78208Z" fill="#8B866C"/>
<path d="M325.278 8.21505C323.958 8.567 325.278 19.6338 325.278 19.6338C325.278 19.6338 326.96 22.6351 328.318 21.5695C329.091 19.6925 328.318 8.74295 328.318 8.74295C328.318 8.74295 328.318 7.41339 325.278 8.21505Z" fill="#413019"/>
<path d="M358.869 11.6467C358.791 11.9986 360.355 21.3643 360.355 22.3713C360.355 23.3783 363.093 24.307 363.318 22.9774C363.542 21.6478 363.318 15.6647 363.318 15.6647L361.763 11.2556C361.763 11.2556 359.593 8.29332 358.869 11.6662V11.6467Z" fill="#5C4A32"/>
<path d="M463.828 14.0613C464.112 14.7555 466.634 20.1325 467.025 23.2902C467.416 26.448 469.831 22.4885 469.88 22.2832C469.929 22.0779 468.951 13.4161 465.95 11.5586C462.948 9.70109 463.838 14.0516 463.838 14.0516H463.828V14.0613Z" fill="#4D422C"/>
<path d="M430.188 13.2401C430.247 13.4356 431.439 20.9537 431.596 24.5025C431.743 28.0709 434.255 25.529 434.255 25.529C434.255 25.529 434.509 18.451 433.414 15.2443C432.319 12.0377 431.029 11.1089 431.029 11.1089C431.029 11.1089 429.347 10.2974 430.188 13.2401Z" fill="#72604D"/>
<path d="M394.905 11.1088C394.905 11.1088 397.29 18.7833 396.899 22.5179C398.581 24.9228 400.253 23.6226 400.253 23.6226L399.666 15.2345C399.666 15.2345 398.444 9.69125 396.498 10.0237C394.553 10.356 394.885 11.099 394.885 11.099H394.895L394.905 11.1088Z" fill="#493C22"/>
<path d="M491.554 8.76243C491.994 10.4146 510.384 32.3332 510.384 32.3332L532.957 61.9947C532.957 61.9947 559.08 96.603 559.207 96.6323C559.334 96.6617 576.042 118.434 576.491 118.639C576.941 118.844 579.59 119.304 577.01 115.569C574.429 111.835 555.218 87.8433 555.218 87.8433L524.608 47.2715L499.063 13.7386L493.842 7.22753C493.842 7.22753 490.391 4.33374 491.545 8.76243H491.554Z" fill="#4E2F23"/>
<path d="M467.984 12.2918H488.621C488.621 12.2918 490.743 10.4148 486.04 9.48603C481.338 8.55728 469.87 8.8799 469.87 8.8799C469.87 8.8799 466.439 10.4832 467.984 12.2918Z" fill="#483123"/>
<path d="M435.927 11.1088C435.927 11.1088 434.832 13.2303 436.953 13.4356C439.075 13.6409 439.407 12.7023 439.407 12.7023C439.407 12.7023 450.943 12.6339 451.207 12.6339C451.471 12.6339 454.375 13.5333 453.847 11.1186C453.329 8.70382 436.562 9.53481 435.917 11.1186H435.927V11.1088Z" fill="#4F2E20"/>
<path d="M194.177 8.26385C194.177 8.26385 192.495 10.7177 195.018 10.4537C197.54 10.1898 210.24 10.4733 210.24 10.4733H215.783C215.783 10.4733 215.978 8.94819 211.98 8.26385C207.971 7.5795 200.796 6.6703 194.177 8.26385Z" fill="#5A3D30"/>
<path d="M226.537 8.92865C226.537 8.92865 224.982 11.3239 226.537 11.3239C228.091 11.3239 235.433 11.5292 235.638 11.3239C235.844 11.1186 247.957 11.5878 247.702 9.85741C247.448 8.127 227.231 7.26667 226.546 8.92865H226.537Z" fill="#5D3C2E"/>
<path d="M259.698 8.78218C259.698 8.78218 257.831 10.7179 259.698 10.8548C261.565 10.9916 267.891 10.3855 267.891 10.3855L283.367 10.5224C283.367 10.5224 286.915 8.54759 281.949 8.27385C276.983 8.00011 259.698 8.79196 259.698 8.79196V8.78218Z" fill="#665A42"/>
<path d="M363.425 10.0335C363.23 10.1215 363.152 13.2597 364.833 12.8002C366.515 12.3407 385.09 11.5977 386.185 12.3309C387.28 13.0641 390.437 12.3309 387.602 10.5907C384.767 8.85054 370.132 8.98739 370.132 8.98739C370.132 8.98739 364.696 9.47622 363.445 10.0335H363.435H363.425Z" fill="#664337"/>
<path d="M299.429 7.22772C299.117 7.47213 295.793 9.23186 296.946 10.2682C298.1 11.3044 299.987 10.4734 301.619 9.39804C303.252 8.32264 316.039 8.97766 316.039 8.97766L318.337 9.4567C318.337 9.4567 322.853 9.75003 319.011 6.74869C313.918 6.11322 300.593 6.31851 299.439 7.21793H299.429V7.22772Z" fill="#3F2C1B"/>
<path d="M330.958 8.56697C330.86 8.49854 329.472 11.2359 330.958 11.2359C332.444 11.2359 343.824 10.5027 343.824 10.5027C343.824 10.5027 349.983 9.86722 350.726 11.6074C351.469 13.3476 353.854 10.9426 353.854 10.9426C353.854 10.9426 352.916 7.91195 345.495 7.95106C338.075 7.99016 330.948 8.56697 330.948 8.56697H330.958Z" fill="#4C3827"/>
<path d="M402.599 10.6495C402.364 11.0992 402.599 13.6508 403.753 13.426C404.906 13.2011 406.95 11.8031 408.973 12.0475C410.997 12.2919 419.737 12.4092 419.737 12.4092C419.737 12.4092 425.925 14.3645 423.266 10.6593C421.526 10.3856 419.522 10.1509 411.975 10.0238C404.427 9.89672 402.589 10.6593 402.589 10.6593H402.599V10.6495Z" fill="#6C5741"/>
<path d="M3.1958 139.697C3.1958 139.697 46.505 143.784 55.7926 144.585C65.0899 145.387 116.474 151.957 116.474 151.957L28.3992 151.742L11.0071 151.38L7.87865 150.999L5.7865 150.51C5.56164 150.49 5.32702 150.432 5.12171 150.324L4.27118 149.933C4.0561 149.786 3.69439 149.62 3.55752 149.405C3.37177 149.112 3.48907 148.672 3.47929 148.3V145.563C3.47929 144.243 3.25447 142.259 3.20559 139.776V139.688H3.1958V139.697Z" fill="#EF7C7B"/>
<path d="M582.113 135.65C581.399 139.658 579.14 144.087 579.14 144.087C579.14 144.087 578.007 146.081 576.433 147.919C575.005 149.581 573.206 151.097 571.838 151.282C569.833 151.546 567.35 151.478 564.525 151.38C561.152 151.263 556.547 151.449 551.122 151.507C547.553 151.537 543.535 151.527 539.488 151.458C533.319 151.36 526.661 151.576 520.531 151.527C514.402 151.478 508.976 151.644 504.254 151.654C496.481 151.683 491.173 151.605 491.173 151.605C491.173 151.605 580.744 133.968 582.396 128.318C582.396 128.318 582.65 132.629 582.122 135.65H582.113Z" fill="#E7837B"/>
<path d="M5.38574 112.509C5.38574 112.509 9.0812 119.02 10.8214 116.821C12.239 115.032 31.1367 88.6452 38.7622 79.2013C40.522 77.0211 63.2716 44.6712 63.2716 44.6712C63.2716 44.6712 59.8107 39.9981 59.4783 40.3989C57.9239 42.2369 5.63017 111.072 5.40531 112.509H5.39553H5.38574Z" fill="#CF8F80"/>
<path d="M452.429 26.3991C452.429 26.3991 445.781 29.6155 451.843 29.8795C457.904 30.1435 470.496 28.413 470.496 28.413L494.536 27.8851C494.536 27.8851 500.148 28.4131 500.343 29.2929C500.539 30.1728 503.569 27.7385 501.184 26.4089C498.798 25.0793 484.672 25.0891 484.672 25.0891L452.419 26.4089H452.429V26.3991Z" fill="#504731"/>
<path d="M443.279 33.5555L448.059 44.9156C448.059 44.9156 450.767 45.9812 450.181 43.3807C449.594 40.7802 446.769 33.8292 446.769 33.8292L445.732 32.5583C445.732 32.5583 443.279 30.955 443.279 33.5653V33.5555Z" fill="#5A4F39"/>
<path d="M414.829 29.1561C414.829 29.1561 412.317 32.2259 418.632 31.434C424.948 30.6421 433.795 30.9061 434.753 31.5709C435.712 32.2356 440.942 31.5709 440.942 31.5709C440.942 31.5709 443.142 27.9634 437.647 27.9634H423.012C423.012 27.9634 416.237 28.0319 414.819 29.1659L414.829 29.1561Z" fill="#534730"/>
<path d="M409.286 32.7928C409.266 33.0567 411.994 43.4784 411.994 43.4784C411.994 43.4784 414.966 46.2158 414.34 41.9435C413.715 37.6712 412.806 32.4799 411.584 32.0693C410.361 31.6587 409.462 31.0526 409.286 32.7831V32.7928Z" fill="#675B44"/>
<path d="M384.239 27.8363C384.239 27.8363 409.198 27.4354 409.521 28.5304C409.843 29.6253 410.078 31.8055 409.188 31.6197C408.299 31.434 402.785 30.5052 399.852 30.7789C396.919 31.0526 384.004 30.9354 384.004 30.9354C384.004 30.9354 380.524 29.684 384.239 27.8363Z" fill="#463B25"/>
<path d="M89.3156 121.22L277.383 119.578H467.573L578.114 118.756C578.114 118.756 587.216 122.012 573.539 122.276C559.861 122.54 446.759 122.276 446.759 122.276L363.318 124.417C363.318 124.417 252.874 124.681 245.659 124.417C238.444 124.153 178.808 124.388 174.693 124.544C170.577 124.7 121.47 124.544 121.47 124.544L108.917 124.603C108.917 124.603 76.6651 124.955 89.3059 121.21H89.3254L89.3156 121.22Z" fill="#FEE3D1"/>
<path d="M443.278 50.6346C443.278 50.6346 434.48 50.2338 435.643 56.1094C436.816 61.985 441.968 73.7459 441.968 73.7459H459.38C459.38 73.7459 463.379 74.6649 464.923 74.4107C466.468 74.1565 469.86 71.468 469.86 71.468L500.656 71.732L534.707 70.7348C534.707 70.7348 537.386 71.253 531.481 63.4417C525.576 55.6304 523.22 53.2254 523.22 53.2254C523.22 53.2254 505.368 46.2157 443.259 50.6249H443.269L443.278 50.6346Z" fill="#F1CD9A"/>
<path d="M445.459 52.463C445.459 52.463 443.591 54.8289 444.745 54.8289C445.899 54.8289 455.323 53.7926 461.062 53.6361C466.8 53.4797 505.046 53.6361 505.046 53.6361H521.88C521.88 53.6361 517.941 49.8038 504.918 49.7452C491.896 49.6865 446.759 50.0091 446.759 50.0091L445.449 52.4434L445.459 52.463Z" fill="#FFFFE6"/>
<path d="M513.893 99.8489C513.971 100.113 518.674 108.53 518.674 108.53C518.674 108.53 515.966 100.377 522.545 100.377C529.125 100.377 543.955 99.3112 543.955 99.3112C543.955 99.3112 544.982 97.571 543.115 97.4341C541.247 97.2973 521.509 97.4341 521.509 97.4341C521.509 97.4341 513.316 97.9033 513.893 99.8391H513.903L513.893 99.8489Z" fill="#FFE4D3"/>
<path d="M474.612 99.1157C474.612 99.1157 477.378 105.461 477.711 105.734C478.043 106.008 477.965 100.592 484.799 100.523C491.632 100.455 505.055 100.787 505.055 100.787C505.055 100.787 507.949 97.9327 504.537 97.3853C501.116 96.8378 478.346 97.7177 478.346 97.7177L474.612 99.1255V99.1157Z" fill="#FFEAD7"/>
<path d="M439.045 102.449C439.456 104.649 441.783 109.156 441.783 109.156C441.783 109.156 442.702 108.051 444.374 107.25C446.045 106.448 445.459 102.44 445.459 102.44L458.813 101.452L467.612 101.931C467.612 101.931 469.254 103.632 469.733 103.535C470.213 103.437 473.898 106.448 473.898 106.448L472.705 99.2427H439.045L437.432 99.8488L439.045 102.449Z" fill="#FAE7CF"/>
<path d="M133.759 28.0709C132.048 31.1798 129.77 36.8012 129.692 36.9576C129.653 37.0945 128.617 40.5651 129.692 40.8291C130.767 41.093 135.812 31.3851 135.822 31.2482C135.88 30.6421 135.822 28.1882 135.822 28.1882C135.822 28.0514 135.724 27.9536 135.597 27.9536H133.964C133.886 27.9536 133.808 27.9927 133.769 28.0807H133.759V28.0709Z" fill="#352810"/>
<path d="M169.228 27.9438C169.228 29.2147 165.64 36.3808 164.271 39.079C163.89 39.8416 163.773 40.7116 163.968 41.5329C164.193 42.5496 164.643 43.5859 165.425 42.7745C166.559 41.6013 170.782 32.1867 172.122 29.1951C172.474 28.4032 172.483 27.4647 172.043 26.7119C171.946 26.5457 171.828 26.3991 171.691 26.272C170.978 25.6658 170.724 23.867 164.076 23.4662C158.396 23.124 145.911 23.3684 142.382 23.4466C141.698 23.4564 141.052 23.7594 140.612 24.2971C139.918 25.1086 139.302 26.272 141.062 26.6142C143.829 27.1421 162.599 26.5457 162.795 26.5457C162.991 26.5457 168.211 26.8097 168.211 26.8097C168.211 26.8097 169.238 27.0737 169.238 27.9438H169.228Z" fill="#877F6B"/>
<path d="M180.607 23.4075C179.835 23.5444 174.155 24.4731 174.605 26.2133C175.054 27.9535 181.438 26.4186 186.796 26.2133C192.153 26.008 199.886 27.4158 200.15 27.4158C200.414 27.4158 201.763 28.6867 201.763 28.6867C201.763 28.6867 198.997 38.6391 198.087 40.9072C197.178 43.1753 199.701 42.5105 199.701 42.5105L204.08 32.4213C204.08 32.4213 205.048 25.2748 200.786 24.4047C196.523 23.5346 180.598 23.3977 180.598 23.3977H180.607V23.4075Z" fill="#B2A18A"/>
<path d="M351.625 26.3992C351.625 26.3992 347.754 26.1157 347.499 27.9439C347.245 29.772 349.562 30.5737 353.18 29.9089C356.787 29.2441 370.464 29.6938 370.464 29.6938C370.464 29.6938 376.398 31.1212 377.298 35.7943C378.197 40.4674 378.07 43.8109 380.26 43.5469C382.45 43.2829 380.778 37.9841 380.778 37.9841L378.97 32.0792L378.197 27.9634C378.197 27.9634 372.136 26.497 365.556 26.4188C358.977 26.3405 351.625 26.4188 351.625 26.4188V26.3992Z" fill="#473923"/>
<path d="M315.375 25.7735C315.375 25.7735 310.213 29.7818 312.921 30.4564C315.629 31.131 318.337 29.6938 318.337 29.6938H333.431L340.783 30.6226C340.783 30.6226 343.364 30.3782 343.237 34.9535C343.11 39.5288 344.391 45.4142 344.391 45.4142C344.391 45.4142 346.59 46.5287 346.718 42.1684C346.845 37.8082 345.691 32.9787 345.163 31.8544C344.635 30.7301 344.137 27.7679 344.137 27.7679C344.137 27.7679 339.757 25.5193 336.394 25.7833C333.031 26.0472 315.365 25.7833 315.365 25.7833H315.375V25.7735Z" fill="#584A36"/>
<path d="M283.582 26.6436C283.582 26.6436 277.198 26.5067 277.325 29.0486C277.452 31.5904 284.159 30.8474 284.159 30.8474L304.083 30.9452C304.083 30.9452 305.569 31.1798 305.637 37.1922C305.706 43.2047 306.41 45.9421 306.41 45.9421C306.41 45.9421 309.176 47.9462 309.118 40.7997C309.059 33.6532 308.218 31.7859 308.218 31.7859L307.065 30.7789L306.351 27.9145C306.351 27.9145 294.033 26.3796 283.582 26.6436Z" fill="#2B210E"/>
<path d="M243.362 27.279L269.484 26.6142C269.484 26.6142 271.909 26.2721 272.192 28.3838C272.476 30.4955 274.314 30.691 274.314 30.691V44.3094C274.314 44.3094 270.345 47.3108 270.061 41.2103C269.778 35.1001 270.648 29.5862 270.648 29.5862L247.703 29.8795H245.014C245.014 29.8795 241.045 31.082 243.372 27.279H243.362Z" fill="#403523"/>
<path d="M207.346 27.9437C207.346 27.9437 210.054 25.1379 214.434 25.1379H231.523C231.523 25.1379 239.969 25.6072 240.751 30.0163C241.534 34.4255 239.461 39.3625 239.461 39.3625L238.62 45.0426C238.62 45.0426 234.426 47.3107 235.853 40.3011C237.271 33.2817 237.594 31.6881 237.594 31.6881C237.594 31.6881 239.715 29.1462 230.105 28.8236C220.495 28.4912 208.753 28.7552 208.753 28.7552C208.753 28.7552 206.945 29.6253 207.336 27.9535L207.346 27.9437Z" fill="#423C2F"/>
<path d="M88.5824 22.9676C88.3771 22.9676 88.1914 23.0361 88.0252 23.1729C87.4679 23.6422 86.3241 24.7665 87.6439 25.138C89.3255 25.6073 104.801 25.138 104.801 25.138L125.615 24.9229C125.615 24.9229 127.795 24.6883 128.216 26.5458C128.343 27.1226 128.763 27.2888 129.252 27.279C130.865 27.2497 131.657 25.0891 130.445 23.9941C129.809 23.4173 128.783 22.9774 127.111 22.9676C122.604 22.9383 91.9553 22.9676 88.5824 22.9676Z" fill="#372A17"/>
<path d="M51.7844 97.3656H69.5871L71.9139 98.6267C71.9139 98.6267 74.27 98.5094 73.1066 96.6617C71.9433 94.8139 64.3568 95.205 64.3568 95.205L51.0512 95.4983C51.0512 95.4983 49.7802 96.9745 51.7941 97.3656H51.7844Z" fill="#342715"/>
<path d="M76.0003 98.6073C75.8047 98.7246 67.1527 110.554 65.9404 114.621C64.7281 118.688 68.5507 116.478 68.5507 116.478L78.0826 100.797C78.0826 100.797 78.6203 97.0724 76.01 98.6073H76.0003Z" fill="#7F7060"/>
<path d="M82.2376 96.4955C82.2376 96.4955 88.3772 95.8014 97.7625 95.6938C107.148 95.5961 120.688 95.6938 120.688 95.6938C120.688 95.6938 126.779 96.0947 122.81 98.9983C116.572 99.2915 83.2446 99.448 83.2446 99.448C83.2446 99.448 77.1539 98.8907 82.2279 96.4857H82.2376V96.4955Z" fill="#3C372A"/>
<path d="M124.168 99.448C124.168 99.448 118.371 108.462 117.853 110.72C117.335 112.978 118.185 115.98 118.185 115.98C118.185 115.98 119.388 117.28 119.691 115.98C119.994 114.68 123.367 104.805 124.775 103.857C126.182 102.909 126.798 100.602 126.798 100.602C126.798 100.602 126.485 97.2972 124.178 99.4577H124.168V99.448Z" fill="#AEA291"/>
<path d="M130.855 95.2441L163.313 95.6548C163.313 95.6548 169.843 95.6059 167.233 99.2623C159.784 99.4676 130.23 99.2623 130.23 99.2623C130.23 99.2623 128.587 96.0067 130.865 95.2539L130.855 95.2441Z" fill="#3F3826"/>
<path d="M68.013 49.2954C68.013 49.2954 66.9865 46.8904 88.5238 47.2912C110.061 47.692 132.508 47.2521 132.508 47.2521C132.508 47.2521 139.859 47.2521 138.96 45.4044C138.061 43.5567 127.483 43.9575 127.483 43.9575L77.5645 43.9184C77.5645 43.9184 68.1499 43.2536 66.7225 46.6166C65.2952 49.9797 68.013 49.3149 68.013 49.3149H68.0228L68.013 49.2954Z" fill="#312B1A"/>
<path d="M49.1838 71.869C49.1838 71.869 47.8934 75.6036 49.8291 75.3396C51.7648 75.0757 53.896 71.869 53.896 71.869H80.8299L112.613 72.4849C112.613 72.4849 118.4 71.3704 114.402 69.9724C110.843 68.7308 75.1694 68.809 75.1694 68.809L59.8303 68.8286C59.8303 68.8286 52.0092 65.9934 49.174 71.869H49.1838Z" fill="#554735"/>
<path d="M123.67 71.4192C123.23 72.211 114.314 89.8574 114.128 90.1213C113.942 90.3853 112.779 94.9313 115.81 93.4648C118.84 91.9984 124.902 76.0923 124.902 76.0923L125.283 72.0839C125.283 72.0839 124.247 70.3633 123.67 71.4192Z" fill="#3D3626"/>
<path d="M129.966 71.5951C129.966 71.5951 126.945 71.7516 127.228 73.4135C127.512 75.0755 133.417 75.1048 133.417 75.1048L143.975 74.6551L150.574 74.3129C150.574 74.3129 151.269 71.1943 149.235 70.7739C147.202 70.3535 129.966 71.5951 129.966 71.5951Z" fill="#5B5440"/>
<path d="M159.549 75.3297L154.553 84.6466C154.27 85.1941 154.074 85.7806 154.006 86.3965C153.81 88.1563 153.419 91.8322 153.674 92.5459C153.996 93.4747 156.303 93.4747 156.597 91.6171C156.89 89.7596 158.317 82.4762 159.608 81.4008C160.898 80.3254 161.866 78.1942 161.866 78.1942C161.866 78.1942 162.785 72.8074 159.901 74.8898C159.813 74.9484 159.559 75.3395 159.559 75.3395L159.549 75.3297Z" fill="#160901"/>
<path d="M196.562 74.3913L193.268 86.0153C193.268 86.0153 192.046 89.222 192.495 91.099C192.945 92.9761 194.138 92.106 194.47 91.9007C194.803 91.6954 198.488 78.3409 198.488 78.3409L199.329 75.6035C199.329 75.6035 199.397 72.3284 196.562 74.401V74.3913Z" fill="#463926"/>
<path d="M232.969 78.5756L232.197 90.0432C232.197 90.0432 231.865 92.9566 232.578 93.2499C233.292 93.5432 234.905 93.6996 235.238 91.5488C235.57 89.398 236.059 78.3312 236.059 78.3312C236.059 78.3312 234.123 76.1315 232.96 78.5756H232.969Z" fill="#574B34"/>
<path d="M168.621 73.2082C168.621 73.2082 166.187 73.7362 165.708 75.3493C165.229 76.9624 170.205 76.8059 170.205 76.8059L180.226 75.1049L190.286 76.1607C190.286 76.1607 195.897 76.6104 194.206 73.7069C192.515 70.8033 168.631 73.2278 168.631 73.2278L168.621 73.2082Z" fill="#534937"/>
<path d="M204.256 73.7069C204.256 73.7069 201.646 76.5812 204.256 76.6496C206.867 76.718 230.418 76.7865 230.545 76.6496C230.672 76.5127 234.182 76.4736 231.669 73.7069C226.957 72.5728 204.256 73.7069 204.256 73.7069Z" fill="#463725"/>
<path d="M243.284 71.908C243.284 71.908 240.732 72.2013 240.673 74.7138C240.615 77.2263 245.092 74.7138 245.092 74.7138L266.053 74.7431C266.053 74.7431 268.888 76.5127 269.308 80.8143C269.719 85.1256 269.689 88.8993 269.689 88.8993C269.689 88.8993 269.689 90.4342 271.752 89.9649C273.815 89.4957 273.649 87.9314 273.492 86.5921C273.336 85.2527 272.27 77.7151 272.27 77.7151C272.27 77.7151 270.784 71.732 264.723 71.2725C258.662 70.8131 243.284 71.908 243.284 71.908Z" fill="#493D29"/>
<path d="M277.912 72.3186C277.912 72.3186 275.399 75.3884 277.912 75.3884H299.449L310.477 75.0462C310.477 75.0462 312.862 72.1817 306.41 71.8396C299.957 71.4974 277.902 72.3089 277.902 72.3089H277.912V72.3186Z" fill="#362B17"/>
<path d="M311.19 78.2626C311.19 78.2626 310.809 80.3352 311.835 85.0083C312.647 88.6843 312.539 91.666 312.461 92.761C312.441 93.0054 312.627 93.2204 312.872 93.2204H315.951C316.196 93.2204 316.401 92.9956 316.362 92.7414C316.196 91.4118 315.668 87.5404 314.934 84.3338C314.133 80.8436 313.84 78.771 313.781 78.3409C313.781 78.2822 313.761 78.2431 313.722 78.1747C313.429 77.6956 311.777 75.2125 311.19 78.2431V78.2626Z" fill="#322811"/>
<path d="M352.153 95.9969C352.153 95.9969 346.219 98.2259 350.999 99.2525C355.78 100.279 377.19 99.2525 377.19 99.2525H379.898C379.898 99.2525 382.861 96.7986 377.317 95.9969C371.774 95.1953 352.173 95.9969 352.173 95.9969H352.163H352.153Z" fill="#534D37"/>
<path d="M388.013 102.968C388.013 102.968 392.392 113.77 392.656 115.501C392.911 117.241 394.895 114.836 394.895 114.836C394.895 114.836 394.602 110.965 392.529 106.947C390.466 102.928 388.277 99.3698 388.013 102.968Z" fill="#786A59"/>
<path d="M435.545 101.482C435.545 101.482 436.513 105.206 438.322 107.748C440.131 110.29 440.707 116.303 440.737 116.703C440.766 117.104 443.279 116.703 443.279 116.703C443.279 116.703 442.839 112.216 442.32 110.691C441.802 109.166 438.645 101.804 438.645 101.804C438.645 101.804 437.413 100.162 435.545 101.491V101.482Z" fill="#473622"/>
<path d="M443.279 95.9088C442.712 95.9088 439.525 96.1729 439.808 97.5513C440.092 98.9298 438.84 100.22 447.551 100.289C455.137 100.347 466.116 99.7999 468.824 99.6532C469.284 99.6337 469.685 99.4088 469.968 99.0373C470.731 98.0499 471.669 96.1142 467.876 95.5765C462.714 94.8433 443.288 95.9186 443.288 95.9186H443.279V95.9088Z" fill="#564A3C"/>
<path d="M472.363 101.57C472.246 101.306 472.197 101.003 472.236 100.719C472.383 99.5654 472.989 96.8085 475.062 99.4774C477.32 102.371 479.49 108.433 479.969 109.791C480.028 109.977 480.126 110.134 480.243 110.271C480.8 110.945 482.364 113.106 481.191 115.002C479.774 117.28 476.909 111.59 476.909 111.59L472.373 101.55H472.363V101.57Z" fill="#39301D"/>
<path d="M512.006 102.488C511.713 102 511.645 101.403 511.811 100.846C512.065 100.005 512.613 99.0863 514.02 99.6044C514.196 99.6631 514.568 99.8488 514.724 100.093C516.67 103.046 519.544 110.466 520.228 112.226C520.316 112.46 520.375 112.705 520.404 112.949L520.483 113.673C520.483 113.937 520.346 114.181 520.121 114.308C519.241 114.787 516.943 115.501 515.594 110.916C514.333 106.604 512.74 103.662 512.016 102.459L512.006 102.488Z" fill="#582A22"/>
<path d="M179.366 51.935C177.743 55.1025 174.693 63.2658 174.693 63.2658C174.693 63.2658 174.468 68.8775 176.394 66.2672C178.32 63.6569 183.354 52.4434 183.354 52.4434C183.354 52.4434 184 49.403 181.223 50.1948C180.901 50.2828 179.952 50.8107 179.375 51.9448L179.366 51.935Z" fill="#53462E"/>
<path d="M145.823 49.354C145.383 50.3806 138.94 63.256 138.94 63.256C138.94 63.256 138.334 66.4627 139.899 66.2574C141.463 66.0521 146.693 54.4378 146.693 54.4378L147.935 50.2144C147.935 50.2144 147.974 49.9798 147.866 49.8722C147.407 49.4518 146.204 48.4253 145.813 49.354H145.823Z" fill="#9C8E79"/>
<path d="M154.954 46.6558C154.025 46.8415 150.975 47.4965 151.63 48.9923C151.992 49.8135 157.613 49.6669 163.411 49.7744C169.208 49.882 175.592 50.185 175.592 50.185C176.521 50.185 177.401 49.7157 177.86 48.875C178.232 48.1809 178.261 47.4378 176.795 47.3401C174.086 47.1543 156.049 46.4602 154.954 46.6655V46.6558Z" fill="#544A36"/>
<path d="M193.62 46.2061C193.62 46.2061 185.593 47.6334 187.03 48.9825C188.468 50.3316 215.773 50.185 215.773 50.185C215.773 50.185 215.45 48.9923 214.15 48.044C213.104 47.2619 211.325 46.6948 209.281 46.6069C204.735 46.4211 193.62 46.2061 193.62 46.2061Z" fill="#4E422E"/>
<path d="M217.826 52.3357C217.826 52.3357 218.569 54.2421 216.926 56.7351C215.284 59.228 213.055 64.8494 213.055 64.8494C213.055 64.8494 212.38 67.0687 214.512 66.267C216.643 65.4654 220.27 55.4446 220.27 55.4446C220.27 55.4446 222.548 52.5312 220.27 51.0452C217.992 49.5592 217.836 52.3454 217.836 52.3454H217.826V52.3357Z" fill="#7D6E58"/>
<path d="M253.861 53.4795L251.544 62.6106C251.496 62.8159 251.417 63.0115 251.31 63.1972C250.801 64.038 249.345 66.7754 251.466 66.9416C253.979 67.1567 256.364 55.4348 256.364 55.4348C256.364 55.4348 257.029 51.4656 255.211 51.9642C254.526 52.15 254.047 52.7756 253.861 53.4698V53.4795Z" fill="#362711"/>
<path d="M228.306 47.4573C227.72 47.7017 224.532 48.4643 225.363 49.7645C225.979 50.7422 238.806 50.4097 245.884 50.4488C248.318 50.4586 250.205 50.7324 250.596 50.6835C252.121 50.4782 254.683 48.7673 249.883 47.4671C245.082 46.1668 228.306 47.4671 228.306 47.4671H228.316L228.306 47.4573Z" fill="#544D3C"/>
<path d="M259.561 50.0677C258.593 53.5676 269.279 49.4126 275.037 49.9699C280.796 50.5271 289.936 50.664 289.839 55.0243C289.741 59.3845 289.506 66.4431 289.506 66.4431C289.506 66.4431 291.149 67.45 292.312 66.0422C293.27 64.8886 293.436 55.6793 293.466 52.4629C293.466 51.671 293.114 50.9378 292.478 50.4783C290.982 49.3931 287.59 47.6334 280.942 47.2032C271.127 46.558 260.529 46.558 259.561 50.0579V50.0677Z" fill="#493E2E"/>
<path d="M399.647 96.6227C399.158 96.6911 390.946 96.7889 390.946 98.3433C390.946 99.8978 404.007 99.2818 404.398 99.2427C404.789 99.2036 429.963 99.2427 429.963 99.2427C429.963 99.2427 433.708 96.0752 426.268 95.6255C418.818 95.1758 399.666 96.6129 399.666 96.6129H399.657L399.647 96.6227Z" fill="#554E3F"/>
<path d="M423.159 80.873C423.159 80.873 426.737 91.2848 427.411 92.194C428.086 93.1032 430.413 93.0934 430.413 92.194C430.413 91.2946 426.248 79.8758 426.248 79.8758C426.248 79.8758 423.54 77.4709 423.149 80.873H423.159Z" fill="#2F200D"/>
<path d="M391.65 76.7668C391.963 76.8255 421.389 76.7668 421.389 76.7668C421.389 76.7668 424.615 72.8954 413.461 73.2278C402.306 73.5602 390.955 74.0294 390.955 74.0294C390.955 74.0294 390.183 76.4931 391.669 76.7668H391.659H391.65Z" fill="#372817"/>
<path d="M397.643 58.8664L401.768 67.147C401.768 67.147 405.571 68.4179 404.535 64.742C403.499 61.0661 401.172 56.9307 401.172 56.9307C401.172 56.9307 397.701 54.6528 397.633 58.8664H397.643Z" fill="#3F3320"/>
<path d="M408.357 49.1682C408.103 49.442 402.296 49.5104 402.883 51.6515C403.469 53.7925 407.556 53.6556 407.556 53.6556C407.556 53.6556 408.172 51.9838 410.195 51.8861C412.219 51.7883 422.514 51.8567 422.514 51.8567C422.514 51.8567 423.667 53.6263 424.508 53.6556C425.349 53.6849 428.731 53.3525 428.829 53.3525C428.927 53.3525 432.632 49.8526 422.993 49.3443C413.353 48.8359 408.357 49.1682 408.357 49.1682Z" fill="#574F3D"/>
<path d="M369.76 53.4893C369.799 53.0787 372.83 49.4418 380.817 49.4125C388.805 49.3832 395.169 48.4838 399.001 52.6192C397.877 54.8189 397.359 54.6527 393.067 53.8608C388.775 53.0591 381.296 51.2309 374.238 53.6653C373.886 54.9948 369.457 56.6666 369.76 53.4893Z" fill="#3A3426"/>
<path d="M362.144 55.8942L362.985 64.6441C362.985 64.6441 362.731 68.2809 364.598 68.5155C366.466 68.7502 366.241 63.2754 365.791 58.4556C365.341 53.6359 361.744 51.6904 362.154 55.8845H362.144V55.8942Z" fill="#68583F"/>
<path d="M348.213 78.8003C348.213 78.8003 348.243 78.6733 348.301 78.4973C348.614 77.5001 349.729 74.5672 350.921 77.6663C352.339 81.3422 354.597 90.62 354.597 90.62C354.597 90.62 353.375 94.8336 351.401 90.62C349.435 86.4064 348.204 78.8003 348.204 78.8003H348.213Z" fill="#463625"/>
<path d="M385.95 79.0545L389.499 90.8351C389.499 90.8351 389.821 92.6339 390.955 92.5068C392.089 92.3797 393.048 91.099 392.598 89.437C392.148 87.775 388.863 77.6761 388.863 77.6761C388.863 77.6761 386.224 76.5713 385.969 79.0545H385.96H385.95Z" fill="#403318"/>
<path d="M357.11 72.8564C357.11 72.8564 350.462 74.7042 355.956 76.288C361.451 77.8717 363.249 76.288 363.249 76.288C363.249 76.288 375.049 75.3983 376.985 75.3983C378.921 75.3983 382.519 75.9458 382.519 75.9458C382.519 75.9458 387.172 76.8648 386.791 74.9388C386.41 73.0031 363.64 69.7965 357.12 72.8662H357.11V72.8564Z" fill="#615845"/>
<path d="M319.197 73.1985C318.816 73.1496 311.904 77.0993 317.33 77.0015C322.756 76.9038 331.711 76.2879 331.711 76.2879H344.86C344.86 76.2879 349.308 72.8955 344.479 72.5631C339.649 72.2307 319.187 73.2083 319.187 73.2083H319.197V73.1985Z" fill="#615442"/>
<path d="M324.085 56.3147C324.085 56.4027 325.376 68.9556 325.376 68.9556C325.376 68.9556 328.338 71.8494 328.729 67.3718C329.12 62.8942 328.729 56.3342 328.729 56.3342C328.729 56.3342 324.212 52.9125 324.085 56.3342H324.095L324.085 56.3147Z" fill="#3D311D"/>
<path d="M296.232 51.319C296.594 50.5368 298.618 46.9196 308.355 47.2422C318.092 47.5746 326.011 49.2464 326.5 50.5857C326.989 51.9251 323.831 52.9223 320.546 52.5899C317.261 52.2575 298.363 52.6485 298.363 52.6485C298.363 52.6485 295.323 53.2547 296.242 51.319H296.232Z" fill="#6D604D"/>
<path d="M332.346 52.3063C333.246 51.7393 339.903 46.7729 347.48 47.9754C355.057 49.1779 361.636 49.5787 361.636 49.5787C361.636 49.5787 364.217 52.8538 361.147 53.1862C358.078 53.5186 349.181 51.6317 344.479 52.3063C339.776 52.9809 336.804 53.587 336.804 53.587C336.804 53.587 329.032 54.3691 332.356 52.3063H332.346Z" fill="#554D37"/>
<path d="M8.73897 118.082C8.73897 118.082 16.2277 106.683 18.6718 104.287C21.1159 101.892 36.8558 79.8856 36.8558 79.8856L63.1737 44.0846L66.7812 40.5358L77.0952 26.1254L89.345 10.5614C89.345 10.5614 90.9386 10.5126 91.5936 11.4902C92.2486 12.4678 87.9861 17.4049 87.9861 17.4049L71.2099 37.7006L61.7464 50.7618L41.7342 77.813L11.0169 118.639C11.0169 118.639 10.528 120.242 10.7333 120.545C10.9386 120.849 29.5039 120.545 29.5039 120.545L153.224 119.783L244.32 119.284L439.827 118.756C439.827 118.756 577.087 117.876 577.547 117.974C578.094 118.101 578.73 118.532 578.73 119.245C578.73 120.164 577.821 121.269 573.216 121.191C563.146 121.025 516.66 121.904 516.66 121.904L337.068 122.716L146.869 123.654L11.6817 123.126C11.6817 123.126 6.69572 123.293 8.73897 118.101H8.74876L8.73897 118.082Z" fill="#592821"/>
<path d="M439.045 50.2925C439.045 50.2925 448.01 47.4281 460.974 48.1515C473.927 48.875 504.831 48.0244 504.831 48.0244H514.118C514.118 48.0244 522.047 48.8163 525.596 55.6207C525.596 55.6207 526.563 60.0982 522.633 57.6932C520.57 53.9587 520.57 52.6877 517.794 51.8176C515.017 50.9475 492.962 50.4881 492.962 50.4881L445.625 51.495C445.625 51.495 440.404 52.4238 439.045 50.2925Z" fill="#4A3625"/>
<path d="M433.111 56.2365C433.111 56.2365 438.146 70.4024 438.332 70.4024C438.517 70.4024 442.272 72.5434 440.013 66.1301C437.755 59.7168 434.851 52.7756 434.851 52.7756C434.851 52.7756 431.889 50.9768 433.111 56.2463V56.2365Z" fill="#46301A"/>
<path d="M468.58 69.9136C468.58 69.9136 464.62 76.2779 472.187 75.8673C479.754 75.4567 500.196 75.8673 500.196 75.8673C500.196 75.8673 501.35 72.4554 500.196 71.3898C499.043 70.3242 468.58 69.9136 468.58 69.9136Z" fill="#8C7050"/>
<path d="M508.888 71.4878C508.888 71.4878 503.511 72.7 506.199 74.4011C508.888 76.1022 517.501 74.45 517.501 74.45L529.594 75.1637C529.594 75.1637 534.707 75.9262 534.707 73.3257C534.707 70.7252 508.878 71.4878 508.878 71.4878H508.888Z" fill="#2E1800"/>
<path d="M439.045 74.4009C438.185 74.4889 431.566 74.0979 432.114 76.6984C432.661 79.2989 444.364 76.6984 444.364 76.6984L455.215 76.6006L459.175 78.0182C459.175 78.0182 461.687 77.5294 461.296 76.2194C460.905 74.9093 460.485 73.697 450.249 73.7557C440.013 73.8046 439.036 74.4205 439.036 74.4205H439.045V74.4009Z" fill="#43351D"/>
<path d="M468.589 80.873C468.687 82.0853 472.177 89.6718 473.165 91.8128C473.331 92.1745 473.673 92.4189 474.054 92.4482C475.276 92.546 477.808 92.4971 477.173 90.0921C476.489 87.521 473.38 80.6481 472.275 78.2529C472.031 77.725 471.434 77.4611 470.897 77.6664C469.87 78.0476 468.423 78.9275 468.589 80.8828H468.58L468.589 80.873Z" fill="#644D38"/>
<path d="M501.682 79.8757L508.34 91.7638C508.721 92.4579 509.689 92.5361 510.139 91.8908C510.53 91.3336 510.755 90.5515 510.256 89.5446C509.298 87.6088 505.358 79.729 504.4 77.8227C504.254 77.5294 503.99 77.3241 503.677 77.2459C502.738 77.0308 500.9 76.9526 501.682 79.8757Z" fill="#5F3E2D"/>
<path d="M481.641 94.6968H481.573C481.094 94.8337 475.638 96.3588 477.271 98.1185C478.972 99.9662 506.131 98.7638 506.512 98.7638C506.835 98.7638 509.533 98.4607 510.315 98.3629C510.442 98.3531 510.54 98.2359 510.55 98.099C510.589 97.3169 510.55 94.8532 508.761 94.687C506.678 94.4915 482.648 94.687 481.631 94.687L481.641 94.6968Z" fill="#744B3E"/>
</svg>
