<svg width="175" height="205" viewBox="0 0 175 205" fill="none" xmlns="http://www.w3.org/2000/svg">
<path d="M96.2062 62.9328H82.0739V86.5736C82.0739 86.5736 81.9076 95.1228 82.0739 106.577C82.2403 118.032 82.584 169.277 82.584 169.277L82.7503 182.179C82.7503 182.179 83.094 193.667 83.094 195.962C83.094 198.257 82.7503 200.026 82.7503 200.026C82.7503 200.026 102.371 198.612 109.884 198.961C117.396 199.311 134.794 198.08 134.794 198.08C134.794 198.08 148.96 198.606 151.006 198.435C153.052 198.263 172.678 198.08 172.678 198.08L173.87 197.37V61.1199H143.321C143.321 61.1199 133.935 62.5337 130.692 62.0014C127.448 61.4692 124.887 62.0014 124.887 62.0014H120.823L114.608 62.0901L111.403 62.9328H96.184H96.2007H96.2062Z" fill="#FFE197" stroke="#4C241E" stroke-width="2" stroke-miterlimit="10"/>
<path d="M96.4332 57.7488C96.4332 57.7488 113.371 57.9263 113.665 57.7488C113.959 57.5714 113.715 65.3445 113.715 65.3445L112.523 66.9301C112.523 66.9301 97.1539 67.1186 96.6827 66.409C96.6827 65.6993 96.4221 57.7488 96.4221 57.7488H96.4277H96.4332Z" fill="#F9E4C5" stroke="#4C241E" stroke-width="1.5" stroke-miterlimit="10"/>
<path d="M152.358 193.145H165.437C165.437 193.145 166.141 194.21 166.053 195.352C165.969 196.499 165.753 203.746 165.753 203.746L152.142 203.524L152.353 193.14L152.358 193.145Z" fill="#F9E4C5" stroke="#4C241E" stroke-width="1.5" stroke-miterlimit="10"/>
<path d="M12.1046 5.17132H1.05893V23.6427C1.05893 23.6427 0.926333 30.3258 1.05893 39.2763C1.19154 48.2269 1.46336 88.2791 1.46336 88.2791L1.59593 98.3634C1.59593 98.3634 1.86115 107.341 1.86115 109.137C1.86115 110.934 1.59593 112.313 1.59593 112.313C1.59593 112.313 16.9312 111.206 22.8055 111.484C28.6797 111.763 42.278 110.795 42.278 110.795C42.278 110.795 53.3501 111.212 54.948 111.073C56.5458 110.934 71.8878 110.795 71.8878 110.795L72.8227 110.238V3.74585H48.9478C48.9478 3.74585 41.6083 4.85308 39.0757 4.43538C36.543 4.01769 34.5407 4.43538 34.5407 4.43538H31.3649L26.5117 4.50168L24.0122 5.15142H12.1178H12.1245L12.1046 5.17132Z" fill="#D2AAD0" stroke="#4C241E" stroke-width="2" stroke-miterlimit="10"/>
<path d="M15.2903 0.752476C15.2903 0.752476 28.5306 0.891707 28.7626 0.752476C28.9947 0.613245 28.8023 6.69301 28.8023 6.69301L27.8675 7.9262C27.8675 7.9262 15.8539 8.07206 15.4892 7.51513C15.4892 6.95821 15.2903 0.74585 15.2903 0.74585V0.752476Z" fill="#F7CC9C" stroke="#4C241E" stroke-width="1.5" stroke-miterlimit="10"/>
<path d="M41.0021 106.575H51.2256C51.2256 106.575 51.7759 107.404 51.7096 108.305C51.6433 109.2 51.4776 114.869 51.4776 114.869L40.843 114.697L41.0088 106.582L41.0021 106.575Z" fill="#F7CC9C" stroke="#4C241E" stroke-width="1.5" stroke-miterlimit="10"/>
</svg>
