<svg width="774" height="653" viewBox="0 0 774 653" fill="none" xmlns="http://www.w3.org/2000/svg">
<g clip-path="url(#clip0_420_8338)">
<path d="M244.69 635.68C244.6 635.84 244.51 636.12 244.76 636.24C248.7 637.99 288.45 648.56 350.79 650.55C383.15 651.58 412.3 652.24 433.58 650.11C444.01 649.07 460.43 647.14 474.21 643.26C489.92 638.84 502.37 632.38 501.55 630.76C500.87 629.01 499.96 627.71 499.23 626.45C498.36 624.95 497.54 623.73 496.92 622.8C496.64 622.38 496.41 622.02 496.23 621.73C496.11 621.52 495.85 621.42 495.63 621.51C490.7 623.25 439.67 640.43 382.92 639.32C323.17 638.16 275.72 633.48 254.96 624.47C254.96 624.47 251.89 622.62 250.22 623.64C249.95 623.8 245.44 634.42 244.68 635.69L244.69 635.68Z" fill="#EFC5B3"/>
<path d="M397.7 652.51C383.1 652.51 367.13 652.07 350.77 651.55C286.9 649.52 247.69 638.63 244.36 637.16C244 636.99 243.76 636.71 243.66 636.37C243.55 635.99 243.61 635.57 243.83 635.18C244.17 634.59 245.51 631.58 246.69 628.92C249.3 623.02 249.32 623.01 249.71 622.78C251.75 621.54 254.85 623.23 255.42 623.57C274.83 631.97 318.92 637.07 382.94 638.32C440.97 639.49 493.11 621.34 495.3 620.57C495.96 620.32 496.74 620.6 497.1 621.25C497.26 621.52 497.48 621.86 497.75 622.26L497.94 622.55C498.55 623.46 499.3 624.59 500.09 625.97C500.26 626.26 500.44 626.56 500.62 626.86C501.23 627.86 501.91 628.99 502.46 630.39C502.63 630.76 502.62 631.18 502.44 631.6C501.19 634.45 487.87 640.48 474.48 644.25C459.06 648.59 439.96 650.5 433.68 651.13C423.35 652.16 411.1 652.54 397.69 652.54L397.7 652.51ZM245.87 635.59C252.06 637.74 290.18 647.61 350.83 649.54C382.15 650.53 412.04 651.25 433.49 649.1C439.72 648.48 458.7 646.58 473.95 642.28C488.52 638.18 499.29 632.65 500.54 630.9C500.07 629.75 499.49 628.79 498.93 627.87C498.74 627.55 498.55 627.25 498.38 626.94C497.62 625.62 496.88 624.52 496.3 623.63L496.11 623.34C495.92 623.05 495.75 622.8 495.61 622.57C490.17 624.45 439.34 641.42 382.93 640.3C318.59 639.05 274.21 633.88 254.59 625.36L254.47 625.3C253.69 624.83 251.89 624.05 250.95 624.38C250.57 625.12 249.45 627.65 248.54 629.71C247.31 632.49 246.4 634.54 245.89 635.58L245.87 635.59ZM496 622.44C496 622.44 495.98 622.44 495.97 622.44H496ZM495.38 622.24C495.38 622.24 495.38 622.25 495.38 622.26C495.38 622.26 495.38 622.25 495.38 622.24Z" fill="#4C241E"/>
<mask id="mask0_420_8338" style="mask-type:luminance" maskUnits="userSpaceOnUse" x="1" y="3" width="772" height="455">
<path d="M772.24 3.69995H1.70996V457.63H772.24V3.69995Z" fill="white"/>
</mask>
<g mask="url(#mask0_420_8338)">
<path d="M771.18 28.2999L771.22 23.7399L771.15 18.1399L771.35 8.15992C771.35 7.91992 771.29 7.67992 771.21 7.45992L770.99 6.47992C770.96 6.38992 770.51 5.52992 770.45 5.45992L770 4.89992C769.62 4.41992 769.08 4.10992 768.48 4.01992L767.14 3.81992L9.95999 3.66992L9.15999 3.70992C8.88999 3.70992 8.64999 3.73992 8.36999 3.78992C7.91999 3.90992 6.09999 4.47992 5.62999 4.99992L5.05999 5.39992C4.70999 5.67992 4.41999 6.02992 4.17999 6.39992L3.68999 7.28992C3.23999 8.03992 2.93999 8.86992 2.78999 9.74992L2.51999 11.5099C2.44999 11.9599 2.54999 38.2199 2.54999 38.2199C257.62 6.74993 515.17 3.48992 771.16 28.3099H771.18V28.2999Z" fill="#DCFEFF"/>
<path d="M770.87 60.2398L771.18 34.4398V28.2998C515.19 3.47983 257.64 6.73983 2.57983 38.2098V44.0198C259.09 24.9898 515.66 30.5398 770.87 60.2298V60.2398Z" fill="#DCFEFF"/>
<path d="M2.64984 111.74L2.58984 146.72C140.62 162.86 274.6 199.71 398.76 255.36C517.19 214.34 641.89 194.89 769.03 198.34L769.78 126.12C512.95 98.4198 257.01 78.6398 2.64984 111.74Z" fill="#CBF7F7"/>
<path d="M770.75 68.6899L770.87 60.2499C515.66 30.5599 259.09 24.9499 2.58984 43.9899L2.60984 85.3699C257.26 50.8999 514.52 45.1599 770.75 68.6899Z" fill="#CBF7F7"/>
<path d="M769.78 126.14L770.74 68.6899C514.5 45.1699 257.25 50.5099 2.59985 84.9899L2.64985 112.29C257.01 79.1899 512.95 98.4299 769.78 126.14Z" fill="#DCFEFF"/>
<path d="M117.23 202.68C135.57 211.66 152.38 223.67 172.54 228.76C196.9 234.92 222.81 230.22 248.11 229.2C295.08 227.3 342.56 238.83 382.07 261.33C387.61 259.29 393.17 257.3 398.76 255.36C274.61 199.71 140.62 162.56 2.58979 146.42L2.52979 186.12C41.6998 180.05 82.3998 185.63 117.22 202.69L117.23 202.68Z" fill="#9DCB80"/>
<path d="M248.12 229.2C222.82 230.23 196.89 234.92 172.55 228.76C152.39 223.66 135.57 211.65 117.24 202.68C82.4199 185.64 41.7199 179.73 2.54991 185.8L2.40991 253.89C118.35 226.98 243.17 233.63 355 271.67C363.97 268.08 373 264.64 382.09 261.31C342.58 238.81 295.1 227.29 248.13 229.18L248.12 229.2Z" fill="#8CBB74"/>
<path d="M2.48993 205.67C12.3599 205.53 22.8699 210.15 28.1199 217.54C32.7299 215.38 38.4399 215.15 43.2399 216.95C48.0499 218.74 51.8499 222.52 53.3099 226.93C58.7099 222.79 67.7099 225.79 70.1699 231.73C78.7799 224.01 92.9799 221.65 104.18 226.11C115.37 230.56 122.79 241.51 121.96 252.34L2.42993 263.3L2.48993 205.68V205.67Z" fill="#325677"/>
<path d="M398.76 255.37C384.02 260.48 369.42 265.92 354.98 271.69C378.61 279.72 401.63 289.16 423.83 299.94C428.33 302.13 432.8 304.36 437.23 306.66C547.3 286.48 655.76 276.75 768.19 277.64L769.03 198.36C641.89 194.91 517.19 214.36 398.76 255.38V255.36V255.37Z" fill="#5A8B74"/>
<path d="M197.59 89.4599H50.24C58.16 81.5899 70.04 79.4599 79.93 84.2599C80.55 80.1299 83.15 76.2799 86.63 74.2899C90.11 72.3099 94.48 72.1399 98.09 73.8399C100.98 65.6499 109.46 60.0899 117.7 60.9699C125.95 61.8399 133.21 69.0699 134.49 77.6899C137.76 74.6699 142.49 73.9799 146.57 75.5799C150.65 77.1599 153.77 81.2399 154.4 85.7699C167.23 78.8799 185.64 80.9699 197.58 89.4599V89.4399L197.59 89.4599Z" fill="white"/>
<path d="M731.5 61.7299H576.35C584.69 53.8599 597.21 51.7299 607.62 56.5299C608.28 52.3999 611.01 48.5499 614.68 46.5599C618.34 44.5799 622.94 44.4099 626.75 46.1099C629.79 37.9199 638.72 32.3599 647.4 33.2399C656.08 34.1099 663.73 41.3399 665.08 49.9599C668.53 46.9399 673.5 46.2499 677.79 47.8499C682.09 49.4299 685.37 53.5099 686.03 58.0399C699.54 51.1499 718.92 53.2399 731.49 61.7299V61.7099L731.5 61.7299Z" fill="white"/>
<path d="M598.02 115.43H510.48L526.88 111.43C527.56 108.74 529.22 106.13 531.61 104.97C534.01 103.81 536.89 103.81 539.27 105C542.1 98.24 548.93 94.12 555.92 94.73C562.91 95.33 569.26 100.98 571.01 108.14C573.01 105.61 576.93 104.59 579.93 105.46C582.94 106.32 585.35 109.15 585.85 112.39L598.01 115.46V115.43H598.02Z" fill="white"/>
<path d="M264.59 335.92C215.56 323.74 164.76 317.1 113.83 316.12C142.12 320.23 170.14 327.01 197.19 335.02C214.83 340.24 232.29 345.97 249.71 351.82C305.54 335.04 362.43 321.07 420.03 309.91C367.43 314.03 315.35 322.71 264.59 335.93V335.92Z" fill="#6A9F67"/>
<path d="M420.03 309.91C425.77 308.81 431.49 307.71 437.24 306.66C432.81 304.36 428.34 302.12 423.84 299.94C401.65 289.16 378.63 279.74 354.99 271.69C243.15 233.65 118.33 226.8 2.38989 253.71L2.55989 317.45C39.2599 310.06 76.3399 310.65 113.83 316.12C164.76 317.1 215.55 323.74 264.59 335.92C315.35 322.7 367.43 314.02 420.03 309.9V309.91Z" fill="#8EC26F"/>
<path d="M2.48994 287.73C59.5599 263.67 121.83 249.29 184.91 247.02C123.15 243.43 61.3399 250.1 2.43994 266.91L2.48994 287.73Z" fill="#AAD780"/>
<path d="M420.22 311.55C419.67 308.78 417.26 306.37 414.23 305.54C411.19 304.71 407.66 305.51 405.45 307.53C406.77 305.32 408.11 302.96 407.9 300.47C407.69 297.98 405.19 295.48 402.41 295.95C400.88 296.21 399.7 297.26 398.72 298.32C396.3 300.97 394.51 304.06 393.52 307.34C394.53 305.53 392.46 303.29 390.18 303.18C387.91 303.07 385.86 304.45 384.51 306.07C381.47 309.73 381.08 314.95 383.53 318.94C395.35 315.85 407.99 312.96 420.22 311.55Z" fill="#446B71"/>
<path d="M536.77 397.93C620.32 393.14 697.66 369.66 767.61 329.01L768.19 277.62C655.77 276.74 547.31 286.45 437.23 306.64C381.17 316.91 325.74 329.89 271.27 345.49C351.75 384.7 445.04 403.19 536.77 397.93Z" fill="#AAD780"/>
<path d="M536.77 397.93C445.05 403.18 351.76 384.7 271.27 345.49C264.07 347.55 256.88 349.66 249.7 351.81C297.44 367.85 344.83 384.79 394.59 394.62C521.8 419.74 652.81 397.09 767.39 341.83L767.6 329.01C697.66 369.65 620.31 393.15 536.75 397.94H536.77V397.93Z" fill="#6A9F67"/>
<path d="M618.07 298.1C613.69 298.54 609.13 299.1 605.48 301.28C601.82 303.47 599.4 307.76 601.1 311.36C602.86 315.07 608.05 316.62 610.3 320.11C612.92 324.19 610.45 329.63 606.24 332.5C602.03 335.36 596.58 336.28 591.36 337.12C579.39 339.03 567.42 340.95 555.45 342.85C550.97 343.57 546.35 344.33 542.57 346.58C538.79 348.83 536.1 353 537.32 356.87C538.82 361.65 545.09 363.7 550.58 364.76C583.41 371.04 617.49 366.64 650.71 362.22C680.72 358.22 711.62 353.96 737.6 340.09C746.49 335.34 757.03 326.93 754.97 316.73C753.11 307.51 740.85 301.56 731.4 299.43C723.83 297.73 716.11 299.12 708.44 299.13C694.82 299.16 681.21 296.9 667.58 296.46C651.06 295.95 634.5 296.48 618.07 298.11V298.09V298.1Z" fill="#D2F4A1"/>
<path d="M675.19 304.25C673.91 290.34 670.22 276.48 663.27 264.38C659.82 264.06 653.96 264.27 650.51 263.95C653.69 275.71 655 287.93 654.38 300.08C660.38 304.02 668.05 305.53 675.18 304.26L675.19 304.25Z" fill="#635A3E"/>
<path d="M654.38 300.09C654.17 304.14 653.76 308.18 653.13 312.18C655.59 315.54 659.68 318.04 663.92 318.48C668.17 318.92 672.58 317.49 675.71 314.7C675.69 311.23 675.51 307.75 675.18 304.25C668.05 305.53 660.38 304.02 654.38 300.07V300.09Z" fill="#7E7656"/>
<path d="M707.96 269.82C701.01 273.53 692.08 273.42 684.94 270.08C682.37 275.46 677.4 279.72 671.56 281.55C665.72 283.38 659.31 281.88 653.95 279C648.6 283.97 640.84 286.4 633.48 285.42C626.13 284.45 619.77 279.98 616.01 273.81C621.76 270.48 626.12 265.17 628.9 259.26C622.86 264.94 614.48 268.53 606.06 268.08C597.63 267.63 589.37 262.77 585.95 255.33C582.53 247.9 583.18 236.36 590.06 231.62C586.02 226.66 584.1 220.16 584.81 213.9C585.38 208.93 587.61 204.16 591.03 200.41C585.92 202.77 581.62 206.83 579.26 211.81C575.86 218.98 576.56 227.81 581.05 234.41C572.9 241.93 570.53 254.65 575.43 264.44C580.34 274.23 592.15 280.34 603.32 278.87C608.03 287.4 616.81 293.72 626.64 295.64C636.45 297.57 647.11 295.07 654.9 289.01C661.56 290.41 670.51 291.62 677.14 290.16C683.79 288.69 690.06 283.46 690.21 276.89C697.96 280.31 707.81 278.67 713.92 272.93C718.83 268.31 721.06 261.28 719.99 254.75C718.29 261.05 713.88 266.66 707.95 269.82H707.96Z" fill="#6A9F67"/>
<path d="M718.4 223.22C721.94 216.22 725.17 208.54 723.92 200.85C722.67 193.15 715.2 185.92 707.28 187.44C708.16 176.93 701.51 166.22 691.47 162.03C681.44 157.83 668.77 160.45 661.41 168.25C659.36 163.15 653.99 159.47 648.32 159.29C642.65 159.11 636.27 160.92 633.87 165.87C626.67 161.52 616.56 162.3 610.16 167.69C603.76 173.08 601.62 182.64 605.14 190.1C600.66 189.04 596.17 194.37 598.16 198.38C595.69 198.7 593.27 199.41 591.02 200.45C587.6 204.2 585.37 208.97 584.8 213.94C584.08 220.21 586.01 226.71 590.05 231.66C583.18 236.39 582.52 247.93 585.94 255.37C589.36 262.8 597.63 267.67 606.05 268.12C614.48 268.57 622.84 264.98 628.89 259.3C626.11 265.19 621.76 270.52 616 273.85C619.76 280.02 626.1 284.48 633.47 285.46C640.82 286.43 648.59 284 653.94 279.04C659.3 281.93 665.71 283.42 671.55 281.59C677.39 279.76 682.36 275.5 684.93 270.12C692.07 273.47 701 273.57 707.95 269.86C713.87 266.7 718.28 261.09 719.99 254.79C719.73 253.23 719.28 251.68 718.64 250.23C726.57 244.92 725.6 229.46 718.38 223.26L718.4 223.24V223.22Z" fill="#8FC36F"/>
<path d="M681.23 200.97C680.08 198.98 678.11 197.12 675.67 195.94C673.23 194.76 670.41 194.29 667.88 194.49C666.19 194.62 664.64 195.06 663.36 195.66C662.35 192.92 660.42 190.24 657.7 188.26C654.5 185.92 650.42 184.69 646.69 184.62C642.93 184.52 639.51 185.58 637.24 187.15C640.13 187.29 643.1 187.73 645.96 188.6C648.82 189.46 651.54 190.73 653.83 192.4C656.11 194.07 658.04 196.19 659.54 198.51C661.04 200.82 662.1 203.32 662.79 205.81C664.12 203.54 664.64 200.37 663.82 197.12C663.79 197 663.75 196.88 663.72 196.76C667.09 196.96 670.61 197.67 673.67 199.16C677.37 200.95 680.37 203.86 682.49 206.82C682.78 205.08 682.42 202.95 681.25 200.95V200.97L681.23 200.95V200.97Z" fill="#6A9F67"/>
<path d="M605.11 200.96C602.35 200.69 599.2 201.34 596.69 202.99C594.18 204.65 592.6 207.14 592.11 209.56C591.6 211.98 592.19 214.33 593.36 215.88C593.65 214.02 594.27 212.17 595.28 210.48C596.29 208.79 597.69 207.27 599.35 206.15C601.03 205.05 603.07 204.3 605.2 203.91C607.32 203.53 609.52 203.51 611.61 203.79C610.26 202.35 607.88 201.2 605.1 200.96H605.11Z" fill="#6A9F67"/>
<path d="M275.94 432.51C358.99 445.28 443.25 451.96 527.55 452.51C610.06 453.04 696.66 446.5 766.91 409.08V341.84C652.33 397.1 516.48 421.2 389.28 396.07C339.51 386.24 292.12 369.3 244.39 353.26C226.97 347.41 209.51 341.68 191.87 336.46C128.97 317.85 66.95 304.5 2.56998 317.45L2.47998 404.56C4.24998 404.39 185.08 418.54 275.94 432.5V432.51Z" fill="#CAF1A0"/>
<path d="M532.87 451.06C448.58 450.51 364.32 443.83 281.26 431.06C188.62 416.82 94.95 395.43 2.47998 404.56L2.64998 457.04L57.76 456.87L121.13 457.09L347.28 457.11L431.31 456.98L582.92 457.15L631.61 456.48L694.87 455.59L766.34 454.69L766.91 409.05C696.66 446.47 615.37 451.58 532.86 451.05L532.87 451.06Z" fill="#AAD780"/>
<path d="M566.82 428.45C566.82 434.34 560.22 434.25 552.09 434.25C543.96 434.25 537.35 434.34 537.35 428.45C537.35 422.56 543.95 417.79 552.09 417.79C560.23 417.79 566.82 422.56 566.82 428.45Z" fill="#C7CBE0"/>
<path d="M137.45 372.38C140.32 370.45 143.64 369.38 146.99 369.26C144.6 363.71 138.26 359.74 130.77 359.74C121.24 359.74 113.53 366.18 113.53 374.12C113.53 382.06 120.75 381.93 129.83 381.94C131.46 378.02 134.14 374.63 137.46 372.39V372.37L137.45 372.38Z" fill="#C7CBE0"/>
<path d="M137.45 372.38C134.13 374.62 131.45 378 129.82 381.93H130.76C140.29 381.93 148 382.06 148 374.11C148 372.41 147.62 370.78 146.97 369.26C143.62 369.39 140.3 370.44 137.43 372.38H137.45Z" fill="#B2B7CE"/>
<path d="M161.18 381.7C161.18 387.69 155.35 387.6 148.17 387.6C140.99 387.6 135.16 387.7 135.16 381.7C135.16 375.7 140.99 370.85 148.17 370.85C155.35 370.85 161.18 375.7 161.18 381.7Z" fill="#E2E4F3"/>
</g>
<path d="M17.05 18.33V461.59L9 463.5L2 464L1 1H772V459L758.46 471V18.33H17.05Z" fill="#FFE8CE" stroke="#4C241E" stroke-width="2" stroke-linecap="round"/>
<path d="M63.6899 134.97C64.1699 134.83 64.5699 135.04 64.8899 135.6C65.0099 135.78 65.0799 136.2 65.0999 136.86C65.1199 137.54 65.1499 137.92 65.1899 138C65.2299 138.1 65.2399 138.37 65.2199 138.81C65.2199 139.11 65.2099 140.05 65.1899 141.63C65.1899 143.21 65.1999 144.19 65.2199 144.57C65.2199 144.83 65.1999 145.24 65.1599 145.8C65.1199 146.34 65.0899 146.64 65.0699 146.7C65.0099 146.8 64.8999 146.89 64.7399 146.97C64.5799 147.05 64.3899 147.05 64.1699 146.97C63.9299 146.89 63.7499 146.79 63.6299 146.67C63.5099 146.53 63.4199 146.35 63.3599 146.13C63.2999 145.89 63.2499 145.55 63.2099 145.11C63.1899 144.55 63.2099 144.16 63.2999 143.94C63.3599 143.7 63.3899 143.42 63.3899 143.1V139.68C63.3899 137.74 63.3599 136.66 63.2999 136.44C63.1399 135.98 63.1799 135.58 63.4199 135.24C63.5199 135.06 63.6099 134.97 63.6899 134.97ZM60.6599 135.54C60.6599 135.54 60.8399 135.52 61.0799 135.54C61.2799 135.54 61.4799 135.62 61.6799 135.78C61.8799 135.94 62.0099 136.1 62.0699 136.26C62.1699 136.74 62.2199 138.53 62.2199 141.63C62.2199 142.95 62.2299 144.02 62.2499 144.84C62.2699 145.36 62.2299 145.71 62.1299 145.89C61.9499 146.23 61.7199 146.4 61.4399 146.4C60.9599 146.36 60.6099 146.14 60.3899 145.74C60.3299 145.6 60.2899 145.31 60.2699 144.87C60.2699 144.41 60.2899 144.02 60.3299 143.7C60.4499 143.16 60.3999 142.83 60.1799 142.71C60.0799 142.67 59.7699 142.64 59.2499 142.62C58.6699 142.58 58.2399 142.52 57.9599 142.44C57.6199 142.36 57.3999 142.32 57.2999 142.32C57.1999 142.32 57.0799 142.29 56.9399 142.23C56.8199 142.15 56.7199 142.11 56.6399 142.11C56.4599 142.11 56.1699 142.33 55.7699 142.77C55.4899 143.13 55.1699 143.48 54.8099 143.82C54.4699 144.16 54.1599 144.44 53.8799 144.66C53.6199 144.88 53.4099 145.01 53.2499 145.05C52.9899 145.11 52.7299 144.97 52.4699 144.63C52.2499 144.37 52.1999 144.13 52.3199 143.91C52.4399 143.69 52.7999 143.33 53.3999 142.83C54.0799 142.27 54.5899 141.68 54.9299 141.06C55.0499 140.82 55.2699 140.43 55.5899 139.89C55.7099 139.65 55.7699 139.52 55.7699 139.5C55.7699 139.46 55.8199 139.25 55.9199 138.87C56.0599 138.51 56.1299 138.2 56.1299 137.94C56.1099 137.74 56.0899 137.63 56.0699 137.61C56.0499 137.57 55.9899 137.53 55.8899 137.49C55.7699 137.47 55.5999 137.49 55.3799 137.58C55.1599 137.62 55.0099 137.62 54.9299 137.58C54.8099 137.52 54.2599 137.48 53.2799 137.46C52.2599 137.4 51.6699 137.33 51.5099 137.25C51.1299 137.03 50.9399 136.77 50.9399 136.47C50.9399 136.15 51.0399 135.95 51.2399 135.87C51.3799 135.83 51.7999 135.83 52.4999 135.87C53.2199 135.89 53.6599 135.93 53.8199 135.99C53.9799 136.05 54.1499 136.07 54.3299 136.05C54.4899 136.01 54.7799 135.99 55.1999 135.99C55.6199 135.99 56.0299 135.96 56.4299 135.9C56.8699 135.88 57.1899 135.93 57.3899 136.05C57.5299 136.13 57.6699 136.26 57.8099 136.44C57.9699 136.6 58.0499 136.73 58.0499 136.83C58.0499 136.91 58.0099 137.04 57.9299 137.22C57.8699 137.4 57.8399 137.58 57.8399 137.76C57.8399 137.92 57.8899 138.04 57.9899 138.12C58.1099 138.22 58.3999 138.26 58.8599 138.24C59.7199 138.22 60.2399 138.1 60.4199 137.88C60.5199 137.8 60.5299 137.52 60.4499 137.04C60.3499 136.14 60.4199 135.64 60.6599 135.54ZM60.3899 140.28C60.3899 140.04 60.3599 139.88 60.2999 139.8C60.2399 139.72 59.8099 139.68 59.0099 139.68H57.7499L57.5999 139.83C57.4999 139.93 57.4099 140.09 57.3299 140.31L57.2099 140.58L57.3299 140.73C57.4299 140.83 57.5499 140.9 57.6899 140.94C57.9699 141.04 58.4099 141.1 59.0099 141.12C59.6099 141.12 59.9899 141.08 60.1499 141C60.2299 140.96 60.2899 140.88 60.3299 140.76C60.3899 140.66 60.4099 140.5 60.3899 140.28ZM76.1299 131.91C76.2699 131.83 76.3999 131.79 76.5199 131.79C76.8599 131.79 77.1999 131.99 77.5399 132.39L77.7799 132.66V134.1C77.7999 135.04 77.8499 135.53 77.9299 135.57C77.9899 135.63 78.3699 135.66 79.0699 135.66C79.7299 135.66 80.1199 135.71 80.2399 135.81C80.3799 135.89 80.4899 135.93 80.5699 135.93C80.6499 135.93 80.7599 135.99 80.8999 136.11C81.0599 136.23 81.1599 136.34 81.1999 136.44C81.2199 136.6 81.2199 136.79 81.1999 137.01C81.1999 137.23 81.1599 137.38 81.0799 137.46C80.8399 137.68 80.3899 137.77 79.7299 137.73C78.8699 137.67 78.3799 137.64 78.2599 137.64C78.1599 137.64 78.0799 137.68 78.0199 137.76C77.9399 137.84 77.9099 138.06 77.9299 138.42C77.9299 138.76 77.9599 139.11 78.0199 139.47C78.1399 140.63 78.1599 141.32 78.0799 141.54C77.9799 141.78 77.7599 141.9 77.4199 141.9C76.6999 141.9 76.2799 141.59 76.1599 140.97C76.1399 140.73 76.1299 140.53 76.1299 140.37C76.1299 140.21 76.0899 140.04 76.0099 139.86C75.9699 139.68 75.9099 138.24 75.8299 135.54C75.7899 134.38 75.7399 133.62 75.6799 133.26C75.6199 132.9 75.5899 132.66 75.5899 132.54C75.6499 132.3 75.8299 132.09 76.1299 131.91ZM69.7099 132.33C69.7699 132.29 69.8899 132.27 70.0699 132.27C70.2699 132.27 70.4299 132.29 70.5499 132.33C70.7099 132.41 70.8699 132.55 71.0299 132.75C71.2099 132.95 71.3099 133.1 71.3299 133.2C71.3499 133.38 71.2499 133.74 71.0299 134.28C70.7899 134.78 70.6399 135.19 70.5799 135.51C70.5599 135.63 70.5999 135.77 70.6999 135.93C70.7799 136.09 70.9399 136.32 71.1799 136.62C71.4399 136.92 71.6099 137.08 71.6899 137.1C71.9299 137.26 72.1899 137.48 72.4699 137.76C72.6499 137.92 72.7999 138.03 72.9199 138.09C73.0599 138.13 73.1799 138.19 73.2799 138.27C73.4399 138.37 73.6499 138.55 73.9099 138.81C74.1899 139.07 74.3599 139.24 74.4199 139.32C74.5399 139.58 74.4399 139.85 74.1199 140.13C73.7999 140.39 73.4699 140.46 73.1299 140.34C72.9699 140.28 72.8399 140.22 72.7399 140.16C72.6399 140.08 72.5599 140.04 72.4999 140.04C72.4599 140.04 72.3199 139.93 72.0799 139.71C71.8999 139.53 71.6799 139.36 71.4199 139.2C71.2399 139.08 70.9499 138.84 70.5499 138.48C70.1899 138.1 69.9399 137.89 69.7999 137.85C69.6999 137.79 69.5999 137.8 69.4999 137.88C69.4199 137.96 69.3399 138.08 69.2599 138.24C68.7799 139.22 68.4799 139.92 68.3599 140.34C68.2399 140.78 68.0799 141.12 67.8799 141.36C67.7599 141.48 67.5799 141.54 67.3399 141.54C67.1199 141.54 66.8999 141.46 66.6799 141.3C66.4999 141.18 66.3699 141.08 66.2899 141C66.2299 140.92 66.1799 140.84 66.1399 140.76C66.1199 140.66 66.1099 140.52 66.1099 140.34C66.1099 140.08 66.1599 139.85 66.2599 139.65C66.3599 139.43 66.4099 139.29 66.4099 139.23C66.4099 139.17 66.4799 139.05 66.6199 138.87C66.7399 138.67 66.7999 138.56 66.7999 138.54C66.7999 138.5 66.8399 138.43 66.9199 138.33C66.9999 138.21 67.0399 138.13 67.0399 138.09C67.0399 138.03 67.1299 137.86 67.3099 137.58C67.4899 137.32 67.6099 137.1 67.6699 136.92C67.8699 136.36 68.0499 135.98 68.2099 135.78C68.3499 135.62 68.4899 135.4 68.6299 135.12C68.7699 134.82 68.8899 134.53 68.9899 134.25C69.0899 133.97 69.1599 133.72 69.1999 133.5C69.2199 133.28 69.2899 133.05 69.4099 132.81C69.5299 132.55 69.6299 132.39 69.7099 132.33ZM67.9099 143.61C68.0099 143.57 68.1899 143.55 68.4499 143.55C68.7099 143.55 68.8799 143.57 68.9599 143.61C69.2999 143.79 69.5199 144.04 69.6199 144.36C69.6399 144.54 69.6499 144.76 69.6499 145.02C69.6499 145.34 69.6899 145.6 69.7699 145.8C69.8299 146.04 69.8599 146.38 69.8599 146.82C69.8599 147.52 69.8999 147.94 69.9799 148.08C70.0799 148.2 70.3499 148.23 70.7899 148.17C71.1499 148.15 71.8599 148.14 72.9199 148.14C74.0199 148.12 74.6899 148.08 74.9299 148.02C75.2699 147.94 75.6399 147.94 76.0399 148.02C76.3399 148.08 76.6399 148.05 76.9399 147.93C77.2599 147.87 77.6399 147.84 78.0799 147.84C78.5199 147.84 78.7999 147.9 78.9799 148.02C79.5599 148.44 79.6799 148.9 79.3399 149.4C79.1799 149.6 78.9999 149.73 78.7999 149.79C78.5999 149.85 78.2299 149.87 77.6899 149.85C77.1099 149.85 76.6599 149.88 76.3399 149.94C76.0199 149.98 75.2399 150.02 73.9999 150.06C72.7399 150.08 71.9999 150.12 71.7799 150.18C71.5599 150.22 71.3099 150.2 71.0299 150.12C70.7299 150.08 70.4599 150.07 70.2199 150.09C69.9399 150.11 69.6399 150.11 69.3199 150.09C68.9799 150.07 68.7299 149.99 68.5699 149.85C68.2099 149.57 67.9999 149.18 67.9399 148.68C67.9199 148.34 67.8799 148.11 67.8199 147.99C67.7999 147.85 67.7999 147.7 67.8199 147.54C67.8799 147.42 67.8899 147.09 67.8499 146.55C67.8299 145.99 67.7999 145.53 67.7599 145.17C67.5999 144.27 67.6499 143.75 67.9099 143.61ZM92.1599 135.36C92.3599 135.18 92.5499 135.09 92.7299 135.09C93.0299 135.09 93.3199 135.25 93.5999 135.57C93.7199 135.69 93.7799 135.89 93.7799 136.17C93.7999 136.43 93.8099 137.77 93.8099 140.19C93.8099 142.37 93.8399 143.61 93.8999 143.91C93.9799 144.19 94.0199 144.63 94.0199 145.23L94.0799 146.19L93.8999 146.43C93.6799 146.73 93.4599 146.88 93.2399 146.88C93.1199 146.88 92.9699 146.84 92.7899 146.76C92.6299 146.66 92.4799 146.55 92.3399 146.43C92.2199 146.29 92.1499 146.17 92.1299 146.07C92.1299 145.97 92.1199 143.83 92.0999 139.65C92.0999 137.71 92.0699 136.64 92.0099 136.44C91.8899 135.94 91.9399 135.58 92.1599 135.36ZM82.4699 135.96C82.6899 135.92 83.1599 135.95 83.8799 136.05C84.0999 136.07 84.2999 136.07 84.4799 136.05C84.6599 136.03 84.8199 136.04 84.9599 136.08C85.0799 136.14 85.4099 136.17 85.9499 136.17C86.4899 136.17 86.8399 136.14 86.9999 136.08C87.1199 136.04 87.3499 136.03 87.6899 136.05C88.0499 136.05 88.3199 136.09 88.4999 136.17C88.9999 136.35 89.2499 136.6 89.2499 136.92C89.2499 137.1 89.1899 137.43 89.0699 137.91C88.9499 138.37 88.8399 138.7 88.7399 138.9C88.6799 139 88.5599 139.27 88.3799 139.71C88.2599 140.11 88.1099 140.45 87.9299 140.73C87.7899 140.97 87.7199 141.11 87.7199 141.15C87.7199 141.19 87.6699 141.27 87.5699 141.39C87.4899 141.47 87.4099 141.59 87.3299 141.75C87.1699 142.05 86.9199 142.4 86.5799 142.8L86.4899 142.89C86.4899 142.89 86.3999 142.99 86.3399 143.07C86.2999 143.15 86.2599 143.23 86.2199 143.31C85.7199 143.93 85.3599 144.34 85.1399 144.54C84.9399 144.74 84.7399 144.84 84.5399 144.84C84.3399 144.84 84.1499 144.78 83.9699 144.66C83.7899 144.54 83.6799 144.4 83.6399 144.24C83.5199 143.96 83.5199 143.74 83.6399 143.58C83.6599 143.5 83.9399 143.19 84.4799 142.65C85.0599 142.07 85.3799 141.72 85.4399 141.6C85.4999 141.46 85.6099 141.27 85.7699 141.03C85.9299 140.85 86.0899 140.6 86.2499 140.28C86.4299 139.94 86.5899 139.6 86.7299 139.26C86.8699 138.92 86.9599 138.66 86.9999 138.48C87.0599 137.96 86.9799 137.67 86.7599 137.61C86.6399 137.59 85.9999 137.58 84.8399 137.58C83.6799 137.58 83.0399 137.56 82.8599 137.52C82.6999 137.48 82.5399 137.38 82.3799 137.22C82.1999 137.06 82.1099 136.87 82.1099 136.65C82.1099 136.27 82.2299 136.04 82.4699 135.96Z" fill="black"/>
<path d="M758.46 455.81L595.06 456.44L338.54 456.4L302.11 456.74L16.1599 457.16H17.0599" fill="#FFE8CE"/>
<path d="M758.46 455.81L595.06 456.44L338.54 456.4L302.11 456.74L16.1599 457.16H17.0599" stroke="#4C241E" stroke-width="2" stroke-linecap="round"/>
<path d="M1.99001 458.01C2.17001 460.27 1.61001 487.34 1.72001 490.12C1.76001 491.1 2.56001 491.87 3.53001 491.84L65.23 490.06H348.7C349.22 490.06 349.62 490.48 349.61 491.01L348.21 593.22C348.21 593.71 347.84 594.11 347.36 594.15L343.59 594.41C343.5 594.41 343.43 594.41 343.34 594.39C336.02 592.84 255.03 610.7 250.16 623.82C249.26 625.85 289.11 636.19 324.41 638.45C359.72 640.71 433.59 640.71 462.24 634.97C482.38 630.93 491.79 626.49 495.6 624.2C496.75 623.51 496.78 621.85 495.67 621.12C488.69 616.44 464.18 602.22 414.24 594.01C411.97 593.64 409.79 593.3 407.69 592.98C407.24 592.91 406.91 592.53 406.91 592.06L405.76 491.01C405.76 490.48 406.17 490.06 406.67 490.06H492.42L492.44 490.04C492.44 490.04 735.51 487.75 768.89 487.71C769.36 487.71 769.78 487.4 769.92 486.95C771.96 480.62 771.64 474.86 771.86 470.11C772.02 463.75 771.99 457.93 772 456.61" fill="#FFE8CE"/>
<path d="M1.99001 458.01C2.17001 460.27 1.61001 487.34 1.72001 490.12C1.76001 491.1 2.56001 491.87 3.53001 491.84L65.23 490.06H348.7C349.22 490.06 349.62 490.48 349.61 491.01L348.21 593.22C348.21 593.71 347.84 594.11 347.36 594.15L343.59 594.41C343.5 594.41 343.43 594.41 343.34 594.39C336.02 592.84 255.03 610.7 250.16 623.82C249.26 625.85 289.11 636.19 324.41 638.45C359.72 640.71 433.59 640.71 462.24 634.97C482.38 630.93 491.79 626.49 495.6 624.2C496.75 623.51 496.78 621.85 495.67 621.12C488.69 616.44 464.18 602.22 414.24 594.01C411.97 593.64 409.79 593.3 407.69 592.98C407.24 592.91 406.91 592.53 406.91 592.06L405.76 491.01C405.76 490.48 406.17 490.06 406.67 490.06H492.42L492.44 490.04C492.44 490.04 735.51 487.75 768.89 487.71C769.36 487.71 769.78 487.4 769.92 486.95C771.96 480.62 771.64 474.86 771.86 470.11C772.02 463.75 771.99 457.93 772 456.61" stroke="#4C241E" stroke-width="2" stroke-linecap="round"/>
<path d="M40.0001 466.11C37.4501 465.71 34.8401 466.92 33.5301 469.23C32.6701 470.75 32.3801 472.69 34.2701 474.74C37.8101 478.62 41.4401 476.55 42.4601 475.75C42.6301 475.61 43.4701 474.72 43.5901 474.53C44.1501 473.65 45.4001 470.92 43.5601 468.2C42.6601 466.87 41.3001 466.3 40.0001 466.09V466.11Z" fill="#2B1100"/>
<path d="M58.45 466.22C57.59 466.33 56.77 466.73 56.11 467.32C54.59 468.68 53.23 470.75 54.82 473.8C56.25 476.57 60.14 476.69 62.27 475.75C64.09 474.94 64.6 472.57 64.44 470.54C64.26 468.23 63.06 465.62 58.45 466.22Z" fill="#775843"/>
<path d="M73.8901 473.56C75.9701 475.97 79.6901 476.78 82.2301 474.59C84.7701 472.4 84.4401 467.45 79.6001 466.13C74.7601 464.81 71.2801 470.54 73.8801 473.55L73.8901 473.56Z" fill="#694E39"/>
<path d="M34.7399 470.88C35.2099 468.26 36.9099 467.08 39.9999 468.05C43.8399 469.24 42.9599 473.92 40.2099 475.05C38.3399 475.82 34.1399 474.25 34.7499 470.88H34.7399Z" fill="#FFEDD8"/>
<path d="M60.06 467.87C59.82 467.83 57.33 467.53 56.43 468.79C55.41 470.23 55.44 472.14 55.96 473.37C56.53 474.7 61.13 475.74 62.3 473.81C63.4 472 63.66 468.49 60.04 467.86V467.88L60.06 467.87Z" fill="#F6D5BF"/>
<path d="M79.8899 468.08C78.1299 467.45 76.2899 467.53 75.2199 469.11C74.7099 469.85 74.8999 472.15 75.7199 472.95C77.5799 474.79 80.6399 474.48 81.6599 472.38C82.0499 471.6 82.0499 470.27 81.4499 469.27C81.1199 468.72 80.5399 468.32 79.8999 468.09L79.8899 468.08Z" fill="#FEF5DF"/>
<mask id="mask1_420_8338" style="mask-type:luminance" maskUnits="userSpaceOnUse" x="46" y="63" width="51" height="63">
<path d="M97 63H46V126H97V63Z" fill="white"/>
</mask>
<g mask="url(#mask1_420_8338)">
<path d="M47.26 83.6698C46.91 72.9498 44.3 63.3198 52.14 63.6498C52.76 63.6698 86.2 65.0698 86.33 65.0798C89.32 65.2098 92.89 64.8798 94.67 67.8998C95.99 70.1398 95.26 72.2898 95.26 74.6998C95.28 80.3498 95.79 83.7898 96.12 108.73C96.18 113.43 97.85 122.27 92.43 124.91C90.38 125.9 87.25 124.97 84.95 124.87C41.24 123.04 48.92 133.94 47.26 83.6698Z" fill="#494949"/>
<path d="M87.84 92.7799C87.82 92.6299 83.55 93.3999 82.97 92.2099C82.81 91.8799 83.31 88.4199 83.06 88.3799C84.56 88.4999 86.08 88.6199 87.58 88.4499C87.97 89.6599 87.5 90.3099 87.83 92.7699L87.84 92.7799Z" fill="#EE9C35"/>
<path d="M78.6501 92.9198C78.6301 92.7698 74.3601 93.5398 73.7801 92.3498C73.6201 92.0198 74.1201 88.5598 73.8701 88.5198C75.3701 88.6298 76.8901 88.7598 78.3901 88.5898C78.7801 89.7998 78.3101 90.4498 78.6401 92.9098L78.6501 92.9198Z" fill="#BFD351"/>
<path d="M69.4601 93.0599C69.4401 92.9099 65.1701 93.6799 64.5901 92.4899C64.4301 92.1599 64.9301 88.6999 64.6801 88.6599C66.1801 88.7799 67.7001 88.8999 69.2001 88.7399C69.5901 89.9499 69.1201 90.5999 69.4501 93.0599H69.4601Z" fill="#D7D7D7"/>
<path d="M60.2699 93.2098C60.2499 93.0598 55.9799 93.8298 55.3999 92.6398C55.2399 92.3098 55.74 88.8498 55.49 88.8098C56.99 88.9298 58.5099 89.0498 60.0099 88.8798C60.3999 90.0898 59.9299 90.7398 60.2599 93.1998L60.2699 93.2098Z" fill="#D7D7D7"/>
<path d="M86.94 113.66C86.95 113.15 82.43 116.74 82.1 112.77C82.01 111.69 83.28 99.6398 83.04 99.5698C84.55 99.6298 86.07 99.7298 87.64 98.8298C87.78 103.18 87.16 104.68 86.95 113.66H86.94Z" fill="#F34B43"/>
<path d="M78.6301 103.87C78.6101 103.72 74.3401 104.49 73.7601 103.3C73.6001 102.97 74.1001 99.51 73.8501 99.47C75.3501 99.59 76.8701 99.71 78.3701 99.55C78.7601 100.76 78.2901 101.41 78.6201 103.87H78.6301Z" fill="#D7D7D7"/>
<path d="M69.4401 104.01C69.4201 103.86 65.1501 104.63 64.5701 103.44C64.4101 103.11 64.9101 99.6499 64.6601 99.6099C66.1601 99.7199 67.6801 99.8499 69.1801 99.6799C69.5701 100.89 69.1001 101.54 69.4301 104L69.4401 104.01Z" fill="#D7D7D7"/>
<path d="M60.2599 104.16C60.2399 104.01 55.9699 104.78 55.3899 103.59C55.2299 103.26 55.7299 99.7998 55.4799 99.7598C56.9799 99.8798 58.4999 99.9998 59.9999 99.8398C60.3899 101.05 59.9199 101.7 60.2499 104.16H60.2599Z" fill="#D7D7D7"/>
<path d="M78.6201 114.83C78.6001 114.68 74.33 115.45 73.75 114.26C73.59 113.93 74.09 110.47 73.84 110.43C75.34 110.55 76.86 110.67 78.36 110.5C78.56 111.12 78.57 111.17 78.52 111.82C78.44 112.82 78.47 113.83 78.6 114.82L78.6201 114.83Z" fill="#D7D7D7"/>
<path d="M69.4301 114.97C69.4101 114.82 65.1401 115.59 64.5601 114.4C64.4001 114.07 64.9001 110.61 64.6501 110.57C66.1501 110.69 67.6701 110.81 69.1701 110.65C69.5601 111.86 69.0901 112.51 69.4201 114.97H69.4301Z" fill="#D7D7D7"/>
<path d="M60.2402 115.11C60.2202 114.96 55.9502 115.73 55.3702 114.54C55.2102 114.21 55.7102 110.75 55.4602 110.71C56.9602 110.83 58.4802 110.95 59.9802 110.78C60.3702 111.99 59.9002 112.64 60.2302 115.11H60.2402Z" fill="#D7D7D7"/>
<path d="M87.81 82.7299C86.88 83.1699 79.9 81.5399 55.17 81.1799C53.96 81.1699 53 80.0899 53.04 78.7899L53.23 72.8899C53.27 71.6199 54.26 70.6099 55.45 70.6199C66.09 70.7699 76.73 71.2799 87.38 72.1499C88.53 72.2499 89.39 73.3099 89.35 74.5399C89.28 76.6399 90.01 81.6799 87.81 82.7199V82.7299Z" fill="#CEEFFA"/>
<path d="M96.88 111.35C96.65 107.58 96.7301 97.1999 96.0801 80.9699C95.6501 70.2599 96.7101 70.1099 95.2201 67.5699C93.48 64.6099 90.28 64.5299 87.45 64.4699C87.08 64.4599 86.7201 64.4599 86.3601 64.4399C86.18 64.4299 52.78 63.0299 52.17 63.0099C50.17 62.9199 48.72 63.4299 47.69 64.5399C44.53 67.9599 46.75 71.8999 46.95 102.24C47.08 122.73 47.1 125.37 61.37 125.37C92.68 125.37 86.59 126 90.03 126C97 126 97.31 118.24 96.88 111.35ZM84.9701 124.23C47.7201 122.67 48.39 130.34 48.21 102.23C48.02 72.6599 45.9 68.3499 48.61 65.4099C49.37 64.5799 50.51 64.2199 52.1 64.2899C52.72 64.3199 86.16 65.7099 86.2901 65.7199C86.6501 65.7299 87.0201 65.7499 87.4001 65.7499C90.0201 65.8099 92.72 65.8699 94.1 68.2199C95.38 70.3899 94.34 70.0399 94.7901 81.0199C95.46 97.8199 95.34 107.23 95.6 111.42C96.62 128.12 90.0301 124.43 84.9701 124.22V124.23Z" fill="black"/>
<path d="M87.56 88.1399C86.3 88.2799 84.72 88.1799 83.27 88.0699H83.1C82.84 88.0299 82.66 88.3399 82.82 88.5699C83.2 91.6099 80.56 93.6399 87.14 93.1199C87.39 93.0999 87.58 93.0799 87.74 93.0799C87.78 93.0799 87.81 93.0999 87.85 93.0999H87.86C88.03 93.0999 88.18 92.9599 88.18 92.7799C88.18 92.7299 88.17 92.6799 88.15 92.6399C87.88 90.4999 88.37 88.0499 87.56 88.1299V88.1399ZM87.09 92.4799C81.7 92.8999 83.51 92.0299 83.46 88.7299C84.77 88.8299 86.19 88.8999 87.36 88.7999C87.57 89.7099 87.26 90.4799 87.48 92.4499C87.37 92.4499 87.24 92.4699 87.09 92.4799Z" fill="black"/>
<path d="M78.7 88.4998C78.66 88.3598 78.52 88.2598 78.36 88.2798C77.1 88.4198 75.53 88.3298 74.08 88.2098H73.9C73.75 88.1698 73.58 88.3098 73.56 88.4798C73.56 88.5698 73.57 88.6498 73.62 88.7098C74 91.7098 71.33 93.7798 77.94 93.2598C78.19 93.2398 78.38 93.2298 78.54 93.2298C78.78 93.3098 79.08 93.0698 78.95 92.7898C78.64 90.3898 79.1 89.7598 78.7 88.4998ZM74.27 88.8698C75.58 88.9698 77 89.0498 78.17 88.9398C78.38 89.8598 78.07 90.5998 78.29 92.5898C72.53 92.9498 74.33 92.5898 74.27 88.8698Z" fill="black"/>
<path d="M69.1701 88.4198C67.9101 88.5598 66.3301 88.4699 64.8701 88.3499L64.7101 88.3298C64.4501 88.2998 64.2701 88.6198 64.4301 88.8398C64.5001 89.4498 64.1101 92.2098 64.3101 92.6198C64.9401 93.9198 68.4301 93.3599 69.3601 93.3499C69.3901 93.3599 69.4401 93.3698 69.4701 93.3698C69.6401 93.3698 69.7901 93.2298 69.7901 93.0498C69.7901 92.9998 69.7901 92.9498 69.7601 92.9098C69.4901 90.7698 69.9901 88.3398 69.1701 88.4098V88.4198ZM65.0701 89.0098C66.3801 89.1098 67.8001 89.1798 68.9701 89.0798C69.1801 89.9998 68.8701 90.7398 69.0901 92.7298C63.3301 93.1198 65.1201 92.6798 65.0701 89.0098Z" fill="black"/>
<path d="M55.69 88.4998H55.52C55.25 88.4598 55.08 88.7798 55.24 88.9998C55.3 89.5198 54.93 92.3998 55.12 92.7798C55.74 94.0698 59.07 93.5197 60.17 93.5097C60.39 93.5797 60.61 93.4198 60.61 93.2098C60.61 93.1598 60.6 93.1198 60.58 93.0698C59.82 87.1498 62.39 89.0198 55.7 88.4998H55.69ZM55.69 92.5298C55.62 92.2198 55.89 89.9498 55.87 89.1598C57.18 89.2598 58.6 89.3398 59.77 89.2298C59.98 90.1398 59.67 90.9098 59.89 92.8798C59.13 92.9198 56.05 93.2498 55.68 92.5298H55.69Z" fill="black"/>
<path d="M87.79 98.55C87.7 98.5 87.58 98.5 87.48 98.55C86.36 99.2 85.26 99.2899 84.34 99.2899C83.97 99.2899 83.6 99.2799 83.23 99.2599H83.06C82.9 99.2599 82.76 99.36 82.73 99.52C82.72 99.59 82.73 99.6399 82.75 99.6999C82.8 100.21 82.5 103.69 82.25 106.49C81.94 110.09 81.75 112.31 81.79 112.8C81.94 114.61 82.92 114.99 83.72 114.99C84.63 114.99 85.65 114.5 86.33 114.18C86.5 114.1 86.7 114 86.81 113.96C86.84 113.97 86.89 113.98 86.93 113.98C87.12 113.98 87.25 113.85 87.25 113.67C87.36 109.15 87.56 106.56 87.73 104.48C87.89 102.45 88.01 100.99 87.94 98.82C87.94 98.71 87.88 98.6 87.78 98.55H87.79ZM87.1 104.43C86.94 106.47 86.73 109 86.62 113.35C86.48 113.4 86.31 113.48 86.05 113.61C85.43 113.91 84.48 114.36 83.71 114.36C83.21 114.36 82.53 114.19 82.41 112.76C82.37 112.29 82.62 109.38 82.87 106.56C83.23 102.44 83.38 100.68 83.37 99.91C83.69 99.92 84.01 99.9299 84.33 99.9299C85.21 99.9299 86.24 99.86 87.32 99.35C87.35 101.22 87.25 102.59 87.1 104.43Z" fill="black"/>
<path d="M78.69 99.4498C78.65 99.2998 78.51 99.2098 78.35 99.2298C77.09 99.3698 75.5 99.2798 74.05 99.1598H73.89C73.73 99.1298 73.57 99.2598 73.55 99.4298C73.55 99.5198 73.56 99.5998 73.61 99.6598C73.98 102.58 71.29 104.73 77.93 104.21C78.18 104.19 78.37 104.17 78.53 104.17C78.57 104.18 78.61 104.18 78.64 104.19C78.84 104.19 79.04 103.96 78.93 103.73C78.78 102.58 79.08 100.7 78.68 99.4398L78.69 99.4498ZM74.25 99.8198C75.56 99.9198 76.98 99.9998 78.15 99.8898C78.36 100.81 78.05 101.55 78.27 103.54C72.37 103.9 74.3 103.44 74.25 99.8198Z" fill="black"/>
<path d="M64.8599 99.3098H64.6899C64.5199 99.2698 64.3699 99.4098 64.3499 99.5798C64.3399 99.6598 64.3599 99.7398 64.4099 99.8098C64.7799 102.8 62.1299 104.88 68.7299 104.35C68.9799 104.33 69.1699 104.31 69.3299 104.31C69.5699 104.4 69.8699 104.14 69.7399 103.87C68.9799 97.9398 71.5599 99.8098 64.8599 99.2998V99.3098ZM65.0599 99.9698C66.3699 100.07 67.7899 100.15 68.9599 100.04C69.1699 100.96 68.8599 101.7 69.0799 103.69C63.3299 104.05 65.1099 103.69 65.0599 99.9698Z" fill="black"/>
<path d="M60.3099 99.7399C60.2699 99.5899 60.1299 99.4999 59.9699 99.5199C58.7099 99.6599 57.1399 99.5699 55.6899 99.4499H55.5099C55.3499 99.4199 55.1899 99.5499 55.1699 99.7199C55.1699 99.8099 55.1799 99.8899 55.2299 99.9499C55.5499 102.45 53.4399 104.59 57.7399 104.59C58.3999 104.59 59.0699 104.54 59.5499 104.5C59.7999 104.48 59.9899 104.46 60.1499 104.46C60.1799 104.48 60.2199 104.48 60.2599 104.48C60.4399 104.46 60.5799 104.34 60.5799 104.16C60.5799 104.11 60.5799 104.06 60.5499 104.02C60.2399 101.62 60.6999 100.99 60.2999 99.7299L60.3099 99.7399ZM59.4999 103.86C59.0299 103.9 58.3799 103.95 57.7399 103.95C54.6399 103.95 55.9199 103.27 55.8699 100.11C57.1799 100.21 58.5999 100.29 59.7699 100.18C59.9799 101.1 59.6699 101.84 59.8899 103.83C59.7799 103.83 59.6499 103.84 59.4999 103.86Z" fill="black"/>
<path d="M78.3401 110.18C77.0801 110.32 75.5001 110.22 74.0501 110.11H73.8801C73.7001 110.07 73.5601 110.21 73.5401 110.38C73.5401 110.47 73.5601 110.54 73.6001 110.61C73.6601 111.12 73.2901 114.01 73.4801 114.39C74.1001 115.68 77.4301 115.13 78.5301 115.12C78.7801 115.2 79.0701 114.95 78.9401 114.68C78.8301 113.77 79.2301 110.07 78.3501 110.17L78.3401 110.18ZM74.0501 114.15C74.0101 113.98 74.0801 113.11 74.1301 112.47C74.1901 111.67 74.2401 111.13 74.2301 110.78C75.5401 110.88 76.9701 110.96 78.1401 110.85C78.3601 111.58 78.0201 112.34 78.2501 114.5C77.7601 114.53 74.4201 114.89 74.0401 114.15H74.0501Z" fill="black"/>
<path d="M69.1501 110.33C67.8901 110.47 66.3201 110.37 64.8701 110.26H64.6901C64.5301 110.23 64.3701 110.36 64.3501 110.53C64.3401 110.62 64.3601 110.7 64.4101 110.76C64.4701 111.27 64.1001 114.16 64.2901 114.54C64.9201 115.84 68.4101 115.28 69.3401 115.27C69.5601 115.36 69.8801 115.12 69.7501 114.83C69.4801 112.69 69.9601 110.21 69.1601 110.32L69.1501 110.33ZM65.0401 110.92C66.3501 111.02 67.7701 111.09 68.9401 110.99C69.1501 111.9 68.8401 112.67 69.0601 114.64C63.3001 115.03 65.1001 114.62 65.0401 110.92Z" fill="black"/>
<path d="M60.29 110.69C60.25 110.54 60.11 110.45 59.95 110.47C58.69 110.61 57.11 110.51 55.65 110.4H55.49C55.34 110.37 55.17 110.5 55.15 110.67C55.15 110.75 55.16 110.83 55.21 110.89C55.58 113.78 52.87 115.96 59.53 115.44C59.78 115.42 59.97 115.4 60.13 115.4C60.35 115.47 60.57 115.33 60.57 115.1C60.57 115.05 60.56 115 60.54 114.96C60.23 112.56 60.69 111.93 60.29 110.68V110.69ZM55.85 111.06C57.16 111.16 58.58 111.23 59.75 111.13C59.96 112.05 59.65 112.79 59.87 114.78C54.14 115.13 55.9 114.72 55.85 111.06Z" fill="black"/>
<path d="M89.99 74.57C90.04 72.99 88.92 71.64 87.44 71.52C76.85 70.66 66.09 70.14 55.43 69.99C53.9 69.99 52.66 71.26 52.61 72.88L52.42 78.78C52.37 80.39 53.57 81.81 55.18 81.83C80.58 82.19 86.86 83.9 88.1 83.32C90.73 82.08 89.93 76.97 90.01 74.58L89.99 74.57ZM87.57 82.14C87.57 82.14 86.42 82.14 84.28 81.95C57.18 79.49 53.58 82.05 53.68 78.82C54.13 75.14 53.02 71.27 55.45 71.27C59.94 71.41 70.28 71.41 87.33 72.8C88.95 72.94 88.69 74.77 88.74 76.14C88.81 78.28 88.92 81.51 87.56 82.15L87.57 82.14Z" fill="black"/>
</g>
</g>
<defs>
<clipPath id="clip0_420_8338">
<rect width="773.01" height="652.51" fill="white"/>
</clipPath>
</defs>
</svg>
