<svg width="132" height="126" viewBox="0 0 132 126" fill="none" xmlns="http://www.w3.org/2000/svg">
<g clip-path="url(#clip0_420_8420)">
<path d="M39.1489 6.13255C38.4275 6.10956 3.83084 10.8492 2.18499 14.1933C1.85035 14.8763 1.64287 16.0149 1.53469 17.3999L1.50433 17.391C1.06563 22.7712 2.03542 31.8213 2.03542 31.8213C2.03542 31.8213 8.51995 41.6952 16.359 50.5977C24.1981 59.5002 35.5722 71.6726 41.161 87.8145C44.6518 97.9108 52.9161 106.677 63.9575 112.648C70.5765 116.232 78.188 118.799 86.3707 120.053C108.181 123.398 122.9 119.344 127.479 114.169C132.058 108.993 139.527 9.26352 39.1485 6.12255L39.1489 6.13255Z" fill="#A7CDC2"/>
<path d="M86.3709 120.053C108.182 123.398 122.9 119.344 127.479 114.168C129.198 112.223 131.326 96.9222 127.99 78.4042C127.995 78.5441 129.325 103.081 122.677 107.804C116.02 112.537 113.767 86.6229 103.39 83.4095C93.0121 80.1961 87.8657 107.078 84.092 108.65C80.3183 110.223 47.2229 71.7359 44.649 61.8054C43.058 55.6707 38.8455 65.5555 36.4498 77.1934C38.2664 80.5377 39.8899 84.0693 41.1919 87.8332C46.7806 103.975 64.5606 116.718 86.3709 120.053Z" fill="#DFEECF"/>
<path d="M53.2237 80.9877C50.8726 70.3283 43.1751 51.3233 35.6169 40.0386C28.0588 28.7539 1.51398 17.3806 1.51398 17.3806C1.12574 22.2385 1.87032 30.0862 2.01571 31.5617C2.03207 31.7312 2.08729 31.8693 2.17248 32.0062C3.12692 33.4414 9.17765 42.421 16.3687 50.5873C24.2078 59.4898 35.5819 71.6622 41.1706 87.8041C46.7594 103.946 64.669 116.143 86.3497 120.024C96.2533 121.804 104.06 121.301 110.333 120.726C110.333 120.726 59.8522 110.98 53.2333 80.9773L53.2237 80.9877Z" fill="#94BAA3"/>
<path d="M76.9951 22.6659C76.0718 22.0601 54.2912 7.77622 40.1249 7.60692C39.8548 7.60704 39.6224 7.8159 39.6026 8.08683C39.5827 8.35776 39.7808 8.57049 40.0414 8.58073C52.6657 8.72779 72.2016 20.7942 75.8309 23.1099L73.5965 24.6347L40.0418 31.2767C30.8848 24.8553 4.42701 16.0705 3.30205 15.6924C3.05884 15.6114 2.77392 15.7522 2.67336 16.0062C2.58205 16.2397 2.67099 16.4766 2.87534 16.589C2.8957 16.5982 2.91607 16.6075 2.94642 16.6164C3.21998 16.7062 30.7116 25.8424 39.6258 32.1929C39.7288 32.2691 39.8598 32.2942 39.989 32.2693L73.8416 25.5661C73.9111 25.5535 73.97 25.5213 74.0288 25.4891L76.9759 23.4872C77.1124 23.3921 77.1967 23.2388 77.2107 23.0782C77.2147 22.9179 77.1391 22.7706 77.0158 22.6852L76.9951 22.6659Z" fill="#DFEECF"/>
<path d="M89.0819 20.2212C89.1117 19.9499 88.9133 19.7272 88.6531 19.7269L82.311 19.5244C78.5744 15.6818 66.5065 11.1608 65.989 10.97C65.7454 10.8791 65.4601 11.0099 65.3496 11.2642C65.2483 11.4982 65.338 11.755 65.542 11.8574C65.5619 11.8567 65.5727 11.8763 65.593 11.8855C65.7148 11.931 78.2595 16.6242 81.7014 20.3479C81.7848 20.4348 81.8969 20.4906 82.0169 20.4861L88.5491 20.6915C88.8097 20.7018 89.052 20.4925 89.0819 20.2212Z" fill="#DFEECF"/>
<path d="M32.4231 54.9388C31.0065 51.3194 26.3962 45.528 21.7619 40.4281L18.2867 46.4926C30.6346 58.7485 34.5045 60.2746 32.4127 54.9292L32.4231 54.9388Z" fill="#E2D1E5" stroke="#4C241E" stroke-miterlimit="10"/>
<path d="M8.90784 32.0238C7.88605 33.8634 8.24017 36.1017 9.59471 37.5319C12.6585 40.7794 15.3865 43.6092 17.83 46.0593L21.3422 39.9134C17.8284 36.1424 14.4955 32.9251 12.7424 31.5398C10.783 29.9921 9.61047 30.7466 8.90746 32.0138L8.90784 32.0238Z" fill="#E2D1E5" stroke="#4C241E" stroke-miterlimit="10"/>
<path d="M39.1489 6.13255C38.4275 6.10956 3.83084 10.8492 2.18499 14.1933C1.85035 14.8763 1.64287 16.0149 1.53469 17.3999L1.50433 17.391C1.06563 22.7712 2.03542 31.8213 2.03542 31.8213C2.03542 31.8213 8.51995 41.6952 16.359 50.5977C24.1981 59.5002 35.5722 71.6726 41.161 87.8145C44.6518 97.9108 52.9161 106.677 63.9575 112.648C70.5765 116.232 78.188 118.799 86.3707 120.053C108.181 123.398 122.9 119.344 127.479 114.169C132.058 108.993 139.527 9.26352 39.1485 6.12255L39.1489 6.13255Z" stroke="#4C241E" stroke-width="1.5" stroke-miterlimit="10"/>
<path d="M73.0718 14.3772C73.8366 12.087 72.1511 9.03797 70.2586 7.13755C70.2586 7.13755 62.8025 -1.15889 53.0473 4.49061L54.4446 8.66119C54.311 8.83631 54.1775 9.01144 54.0543 9.19618C59.295 11.2513 64.3861 13.8523 68.3621 16.0749C68.3621 16.0749 72.0007 17.5696 73.0722 14.3872L73.0718 14.3772Z" fill="#704199"/>
<path d="M67.156 15.3994C67.7894 15.746 67.9938 13.4567 67.8868 12.7402C67.4889 10.1333 66.0675 6.65409 61.785 4.53306C57.5026 2.41204 53.0195 3.48078 50.8182 6.42533C50.3611 7.04289 50.5735 7.90553 51.3035 8.15836C56.9713 10.1274 62.6605 12.9362 67.166 15.3991L67.156 15.3994Z" fill="#4C241E"/>
</g>
<defs>
<clipPath id="clip0_420_8420">
<rect width="126.99" height="121.04" fill="white" transform="translate(0 4.7584) rotate(-2.14741)"/>
</clipPath>
</defs>
</svg>
