<?xml version="1.0" encoding="UTF-8"?>
<svg id="Layer_1" xmlns="http://www.w3.org/2000/svg" version="1.1" viewBox="0 0 69 43">
  <!-- Generator: Adobe Illustrator 30.1.0, SVG Export Plug-In . SVG Version: 2.1.1 Build 136)  -->
  <defs>
    <style>
      .st0 {
        fill: #ff5552;
        stroke: #231f20;
        stroke-linecap: round;
        stroke-linejoin: round;
      }

      .st1 {
        fill: #231f20;
      }
    </style>
  </defs>
  <path class="st0" d="M26.67,13.31v11.03s.3,6.25-5.42,6.25H7.42s-6.31.29-6.92,5.66v6.25h68v-6.25c-.61-5.37-6.92-5.66-6.92-5.66h-13.85c-5.72,0-5.42-6.25-5.42-6.25v-11.03h-15.65.02Z"/>
  <path class="st0" d="M46.09,11.97c0,6.33-5.19,11.47-11.58,11.47s-11.58-5.14-11.58-11.47S28.11.5,34.51.5s11.58,5.14,11.58,11.47Z"/>
  <path class="st1" d="M38.28,11.97c0,2.06-1.69,3.73-3.77,3.73s-3.77-1.67-3.77-3.73,1.69-3.73,3.77-3.73,3.77,1.67,3.77,3.73Z"/>
</svg>