<svg width="213" height="125" viewBox="0 0 213 125" fill="none" xmlns="http://www.w3.org/2000/svg">
<path d="M1.83716 1.26489L1.26465 123.321C16.8328 123.699 211.726 122.337 211.726 122.337L211.434 1.81152L1.8472 1.26489H1.83716Z" fill="#BF7249" stroke="#4C241E" stroke-width="2.53" stroke-linecap="round" stroke-linejoin="round"/>
<path d="M191.628 102.182L192.1 21.5198L23.0499 21.8477L21.8145 102.112L191.628 102.182Z" fill="#FFE6D0" stroke="#4C241E" stroke-width="2.53" stroke-linecap="round" stroke-linejoin="round"/>
<path d="M190.111 101.913L210.832 121.294" stroke="#4C241E" stroke-width="2.53" stroke-linecap="round" stroke-linejoin="round"/>
<path d="M1.66699 123.371C8.46675 115.241 21.5339 101.555 21.5339 101.555" stroke="#4C241E" stroke-width="2.53" stroke-linecap="round" stroke-linejoin="round"/>
<path d="M191.777 21.6688L211.303 1.97046" stroke="#4C241E" stroke-width="2.53" stroke-linecap="round" stroke-linejoin="round"/>
<path d="M2.7002 3.72974L23.3907 22.4342" stroke="#4C241E" stroke-width="2.53" stroke-linecap="round" stroke-linejoin="round"/>
<path d="M139.248 37.5408L140.464 88.2178C143.407 88.3868 180.579 87.9495 180.579 87.9495L180.348 37.7892L139.238 37.5408H139.248Z" fill="#F2915C" stroke="#4C241E" stroke-width="2.53" stroke-linecap="round" stroke-linejoin="round"/>
<path d="M86.4678 37.5408L86.8997 88.2178C89.8425 88.3868 127.015 87.9495 127.015 87.9495L127.106 38.147L86.4678 37.5408Z" fill="#6890A9" stroke="#4C241E" stroke-width="2.53" stroke-linecap="round" stroke-linejoin="round"/>
<path d="M155.59 45.7204C152.286 46.9031 149.694 49.8747 150.086 54.4664C150.98 64.8224 167.944 63.5205 167.613 53.4526C167.382 46.2869 160.642 43.9116 155.59 45.7204Z" fill="#FFE6D0" stroke="#4C241E" stroke-width="2.53" stroke-linecap="round" stroke-linejoin="round"/>
<path d="M140.434 72.5148C142.372 68.6785 146.581 65.4981 150.036 67.9331C153.491 70.368 155.439 74.4429 157.689 78.0903C159.939 81.7378 165.433 87.6811 169.571 88.2178L140.072 88.3669L140.434 72.5148Z" fill="#FFC550" stroke="#4C241E" stroke-width="2.53" stroke-linecap="round" stroke-linejoin="round"/>
<path d="M62.834 73.6382C59.4592 73.5587 51.3538 72.3263 51.7153 67.516C52.1372 62.0497 63.1956 63.2125 67.0324 60.4595C73.7919 55.5995 73.0688 46.287 72.5666 38.038L37.1416 37.5808C36.6394 39.817 40.7976 44.0012 42.9671 44.4385C46.6331 45.164 52.3079 43.4545 55.1906 45.9491C61.2772 51.2265 49.7066 52.3099 47.8786 52.6676C43.0575 53.6118 40.4762 55.6592 37.9551 60.2111C33.4253 68.3806 33.8873 78.7963 34.279 87.8007L74.7562 87.2441C76.4536 78.6472 68.7097 73.7574 62.844 73.6282L62.834 73.6382Z" fill="#FFC550" stroke="#4C241E" stroke-width="2.53" stroke-linecap="round" stroke-linejoin="round"/>
</svg>
