<svg width="185" height="179" viewBox="0 0 185 179" fill="none" xmlns="http://www.w3.org/2000/svg">
<path d="M3.80166 1.42993L1.42969 176.559C13.7218 176.95 182.324 177.43 182.324 177.43L183.43 1.90025L3.80166 1.42993Z" fill="#8F4F50" stroke="#4C241E" stroke-width="2.86" stroke-linecap="round" stroke-linejoin="round"/>
<path d="M163.63 158.537L163.419 20.3228L22.0943 20.713C22.0943 20.713 21.4009 150.051 21.0391 158.527H163.63V158.537Z" fill="#FFE6D0" stroke="#4C241E" stroke-width="2.86" stroke-linecap="round" stroke-linejoin="round"/>
<path d="M162.424 158.257L181.621 176.349" stroke="#4C241E" stroke-width="2.86" stroke-linecap="round" stroke-linejoin="round"/>
<path d="M1.85156 175.879L20.8074 157.947" stroke="#4C241E" stroke-width="2.86" stroke-linecap="round" stroke-linejoin="round"/>
<path d="M165.449 19.8624L183.33 2.0603" stroke="#4C241E" stroke-width="2.86" stroke-linecap="round" stroke-linejoin="round"/>
<path d="M4.48535 3.96167L21.1898 19.7224" stroke="#4C241E" stroke-width="2.86" stroke-linecap="round" stroke-linejoin="round"/>
<path d="M153.548 153.374C144.593 138.594 132.442 126.555 120.22 115.698C115.978 111.935 111.385 108.723 107.445 104.52C95.5754 91.8516 88.8413 69.8466 73.2525 66.3843C65.6139 70.367 67.1417 79.6233 66.9206 88.1992C66.5487 102.779 64.3576 117.299 60.6086 131.389C58.5281 139.194 56.0355 147.79 59.6136 155.035C69.9961 157.036 144.613 157.867 161.881 157.867C159.76 156.656 155.679 154.574 153.558 153.364L153.548 153.374Z" fill="#A95C40" stroke="#4C241E" stroke-width="2.86" stroke-linecap="round" stroke-linejoin="round"/>
<path d="M102.089 115.448C94.1084 107.142 88.5804 96.4947 82.2986 83.2857C78.0471 74.3396 72.1172 76.1609 70.6297 65.9939C64.7801 65.9639 61.7448 89.7501 59.2321 96.1345C55.2319 106.311 51.2116 100.357 45.8143 109.544C40.8693 117.959 34.1654 124.634 28.5972 132.459C23.019 140.285 21.1796 147.6 21.843 157.887L122.874 157.246C116.351 145.248 111.124 124.844 102.099 115.448H102.089Z" fill="#E5B17F" stroke="#4C241E" stroke-width="2.86" stroke-linecap="round" stroke-linejoin="round"/>
<path d="M127.367 77.2416C127.789 77.0215 128.211 76.7913 128.633 76.5312C147.82 64.7831 125.115 37.6346 110.24 55.747C100.34 67.8052 112.914 84.7067 127.367 77.2516V77.2416Z" fill="#EA6161" stroke="#4C241E" stroke-width="2.86" stroke-linecap="round" stroke-linejoin="round"/>
</svg>
