<svg width="162" height="126" viewBox="0 0 162 126" fill="none" xmlns="http://www.w3.org/2000/svg">
<path d="M1.53052 1.1001L1.09961 124.033C12.8562 124.414 160.1 123.042 160.1 123.042L159.879 1.65064L1.53052 1.1001Z" fill="#BF7249" stroke="#4C241E" stroke-width="2.2" stroke-linecap="round" stroke-linejoin="round"/>
<path d="M144.915 102.742L145.276 21.5005L17.557 21.8308L16.625 102.672L144.915 102.742Z" fill="#FFE6D0" stroke="#4C241E" stroke-width="2.2" stroke-linecap="round" stroke-linejoin="round"/>
<path d="M143.772 102.462L159.428 121.992" stroke="#4C241E" stroke-width="2.2" stroke-linecap="round" stroke-linejoin="round"/>
<path d="M1.40039 124.084C6.54203 115.895 16.4045 102.112 16.4045 102.112" stroke="#4C241E" stroke-width="2.2" stroke-linecap="round" stroke-linejoin="round"/>
<path d="M145.035 21.6507L159.778 1.81079" stroke="#4C241E" stroke-width="2.2" stroke-linecap="round" stroke-linejoin="round"/>
<path d="M2.18164 3.58252L17.817 22.4214" stroke="#4C241E" stroke-width="2.2" stroke-linecap="round" stroke-linejoin="round"/>
<path d="M36.2492 37.1362L36.1289 87.5569C39.0656 87.727 76.1596 87.2866 76.1596 87.2866L75.1172 36.886L36.2592 37.1262L36.2492 37.1362Z" fill="#EA6161" stroke="#4C241E" stroke-width="2.53" stroke-linecap="round" stroke-linejoin="round"/>
<path d="M89.4795 36.5256L90.6923 87.5268C93.629 87.697 130.693 87.2565 130.693 87.2565L130.462 36.7759L89.4795 36.5256Z" fill="#F2915C" stroke="#4C241E" stroke-width="2.52" stroke-linecap="round" stroke-linejoin="round"/>
<path d="M37.3721 87.1566C42.3934 80.62 42.3433 70.8802 44.5383 63.2025C46.0117 58.0674 50.1711 48.4077 56.1746 51.3006C60.735 53.5028 66.3777 77.8372 75.9695 69.6189L75.6388 87.1566H37.3721Z" fill="#FFC550" stroke="#4C241E" stroke-width="2.53" stroke-linecap="round" stroke-linejoin="round"/>
<path d="M105.767 44.764C102.469 45.9552 99.8833 48.9482 100.284 53.5628C101.176 63.9933 118.085 62.6819 117.764 52.5418C117.533 45.3345 110.818 42.9421 105.777 44.764H105.767Z" fill="#FFE6D0" stroke="#4C241E" stroke-width="2.52" stroke-linecap="round" stroke-linejoin="round"/>
<path d="M90.6421 71.7511C92.5764 67.8872 96.776 64.684 100.224 67.1364C103.672 69.5889 105.616 73.693 107.861 77.3667C110.106 81.0404 115.589 87.0264 119.718 87.5669L90.2812 87.7171L90.6421 71.7511Z" fill="#FFC550" stroke="#4C241E" stroke-width="2.53" stroke-linecap="round" stroke-linejoin="round"/>
</svg>
