<svg width="28" height="27" viewBox="0 0 28 27" fill="none" xmlns="http://www.w3.org/2000/svg">
<path d="M26.6228 7.84904L10.6485 23.4764L4.08203 16.2773L20.0642 0.650024C20.0642 0.650024 25.6284 2.14446 26.6307 7.84904H26.6228Z" fill="#FF8950" stroke="#3A3530" stroke-width="1.3" stroke-linecap="round" stroke-linejoin="round"/>
<path d="M4.09043 16.2614L0.704573 24.9709C0.515154 25.3164 0.854529 25.7181 1.22547 25.5815L10.6648 23.4925C10.6648 23.4925 9.6467 17.7799 4.09832 16.2614H4.09043Z" fill="#F9BFA2" stroke="#3A3530" stroke-width="1.3" stroke-linecap="round" stroke-linejoin="round"/>
<path d="M1.99104 21.6927L0.704573 24.9709C0.515154 25.3164 0.854529 25.7181 1.22547 25.5815L4.7376 24.8182C4.7376 24.8182 4.40612 22.456 1.99893 21.6927H1.99104Z" fill="#FF8950" stroke="#3A3530" stroke-width="1.3" stroke-linecap="round" stroke-linejoin="round"/>
<path d="M7.12109 17.1933L22.7165 2.75513" stroke="#3A3530" stroke-width="1.3" stroke-linecap="round" stroke-linejoin="round"/>
<path d="M10.4512 19.7965L26.0466 5.35828" stroke="#3A3530" stroke-width="1.3" stroke-linecap="round" stroke-linejoin="round"/>
</svg>
