<?xml version="1.0" encoding="UTF-8"?>
<svg id="Layer_1" xmlns="http://www.w3.org/2000/svg" version="1.1" viewBox="0 0 150 210">
  <!-- Generator: Adobe Illustrator 30.1.0, SVG Export Plug-In . SVG Version: 2.1.1 Build 136)  -->
  <defs>
    <style>
      .st0 {
        stroke-width: 1.17px;
      }

      .st0, .st1, .st2, .st3, .st4, .st5, .st6, .st7, .st8, .st9, .st10, .st11 {
        stroke: #4c241e;
      }

      .st0, .st1, .st2, .st3, .st4, .st5, .st12, .st7, .st8, .st9, .st10, .st11 {
        stroke-miterlimit: 10;
      }

      .st0, .st10, .st11 {
        fill: #cccbcb;
      }

      .st1 {
        stroke-width: 1.08px;
      }

      .st1, .st13 {
        fill: none;
      }

      .st2 {
        stroke-width: 1.31px;
      }

      .st2, .st4, .st6, .st8 {
        fill: #ffd899;
      }

      .st3 {
        stroke-width: .63px;
      }

      .st3, .st14 {
        fill: #4c241e;
      }

      .st15, .st12 {
        fill: #fff;
      }

      .st4, .st7, .st9 {
        stroke-width: 1.46px;
      }

      .st5 {
        fill: #f6f3eb;
        stroke-width: .46px;
      }

      .st16 {
        fill: #430000;
      }

      .st6 {
        stroke-linejoin: round;
        stroke-width: 1.6px;
      }

      .st6, .st13 {
        stroke-linecap: round;
      }

      .st12 {
        stroke-width: 3.13px;
      }

      .st12, .st13 {
        stroke: #ed1600;
      }

      .st17, .st7 {
        fill: #dd9e59;
      }

      .st8 {
        stroke-width: 1.38px;
      }

      .st9 {
        fill: #4957a6;
      }

      .st18 {
        fill: #ffe6c2;
      }

      .st10 {
        stroke-width: .62px;
      }

      .st13 {
        stroke-linejoin: bevel;
        stroke-width: 5.82px;
      }

      .st11 {
        stroke-width: .58px;
      }

      .st19 {
        fill: #989898;
      }
    </style>
  </defs>
  <g id="_체크비버" data-name="체크비버">
    <g>
      <path class="st7" d="M136.73,148.13c3.93,30.89-.37,56.27-45.29,56.27-37.87,0-50.24-24.22-45.29-56.27,4.72-30.61,20.28-56.27,45.29-56.27s41.38,25.51,45.29,56.27Z"/>
      <path class="st4" d="M134.68,61.67c-2.14-5.11-5.35-9.74-9.41-13.64-1.71-1.65-1.94-4.36-.36-6.13.44-.49.83-1.01,1.17-1.57,1.56-2.53,1.98-5.56,1.18-8.34-.4-1.4-1.05-2.7-1.96-3.82-.97-1.18-2.26-2.24-3.75-2.69-.82-.25-1.73-.33-2.58-.09-.71.21-1.36.57-1.91,1.08-1.09,1.01-1.77,2.36-2.32,3.7-.72,1.75-1.3,3.55-1.77,5.38-.23.89-.42,1.79-.58,2.69h0c-.1.58-.71.9-1.26.68-4.35-1.77-9.09-2.93-14.12-3.35-8.63-.72-16.96.84-24.28,4.13-.6.27-1.28-.18-1.27-.83,0-.37,0-.75,0-1.12-.03-1.87-.17-3.73-.47-5.56-.22-1.41-.58-2.84-1.41-4.01-.42-.59-.97-1.06-1.62-1.37-.78-.38-1.68-.45-2.55-.34-1.57.2-3.08,1.02-4.31,2.02-1.16.95-2.11,2.12-2.82,3.42-1.43,2.6-1.74,5.64-.8,8.37.29.84.69,1.64,1.18,2.37,1.53,2.27,1.37,5.28-.54,7.25-3.2,3.32-5.86,7.12-7.83,11.27-1.14,2.39-2.83,4.47-4.86,6.19-4.57,3.88-7.5,8.62-8.13,13.9-1.35,11.37,8.35,22.07,23.45,27.82.99.38,1.92.88,2.78,1.5,6.54,4.7,14.59,7.79,23.53,8.53,13.88,1.16,26.97-3.56,36.36-11.92,1.97-1.76,4.2-3.21,6.56-4.41,8.73-4.41,14.58-10.99,15.5-18.73.81-6.85-2.39-13.46-8.37-18.89-1.07-.97-1.92-2.15-2.48-3.48Z"/>
      <path class="st18" d="M106.41,93.42l-3.43-.79c-.52-.12-.84-.63-.72-1.15l.71-3.05c.29-1.24,1.53-2.02,2.78-1.73l.78.18c1.25.29,2.03,1.53,1.74,2.77l-.71,3.05c-.12.51-.63.83-1.15.72Z"/>
      <path class="st3" d="M112.29,65.97c-.07-.51-.24-1.01-.53-1.44-.68-1.02-1.67-1.78-2.81-2.14-.22-.11-.45-.21-.69-.27-.2-.04-.39-.09-.59-.1-.03,0-.06,0-.09,0-.19-.02-.38-.02-.57,0-.1,0-.19.02-.29.04-.14.03-.28.07-.42.12-.03,0-.05.03-.08.04-.08.02-.17.04-.25.07-.23.09-.44.21-.63.35-.15.11-.28.24-.4.38,0,0-.01,0-.01.01-.02.02-.03.04-.04.06-.03.04-.07.07-.09.11,0,0,0,.02-.01.02-.28.39-.45.87-.46,1.35-.01.68.19,1.3.4,1.93.3.88.64,1.75,1.19,2.51.59.82,1.49,1.41,2.51,1.51,1,.09,2.08-.29,2.79-1,.4-.4.72-.88.9-1.42.24-.69.26-1.4.17-2.13Z"/>
      <path class="st3" d="M81.98,65.46c0-.24,0-.48-.03-.72,0-.07-.02-.14-.03-.22-.01-.19-.03-.37-.08-.55-.13-.51-.36-.96-.71-1.38-.15-.18-.33-.32-.52-.44s-.42-.24-.65-.33c-.19-.07-.4-.12-.6-.15-.72-.14-1.49,0-2.15.3-.37.17-.71.4-1.02.66,0,0,0,0,0,0-.04.03-.09.06-.14.09-.43.32-.82.69-1.2,1.06-.41.4-.83.8-1.18,1.26-.19.25-.35.51-.49.79-.13.26-.2.54-.26.83-.08.42-.05.9.1,1.32.03.2.07.39.16.57.06.14.15.26.24.37,0,0,0,0,0,0,.32.67.9,1.16,1.56,1.49.06.06.13.11.22.15.33.15.69.26,1.05.3.3.04.59.04.89.02.57-.03,1.14-.14,1.66-.36.85-.35,1.59-.91,2.14-1.64.45-.6.72-1.28.88-2,.02-.09.02-.18.04-.28,0-.03.02-.07.02-.1.03-.15.05-.3.07-.45,0-.02,0-.03.01-.05.03-.19.04-.38.04-.58Z"/>
      <ellipse id="_오른반사광" data-name="오른반사광" class="st15" cx="78.85" cy="64.44" rx="1.47" ry="1.55" transform="translate(8.52 138.08) rotate(-85.57)"/>
      <ellipse id="_왼반사광" data-name="왼반사광" class="st15" cx="106.99" cy="64.47" rx="1.47" ry="1.55" transform="translate(34.44 166.16) rotate(-85.57)"/>
      <ellipse class="st16" cx="65.03" cy="37.68" rx="3.58" ry="5.52" transform="translate(-8.02 20.01) rotate(-16.49)"/>
      <ellipse class="st16" cx="119.41" cy="37.68" rx="5.53" ry="3.58" transform="translate(20.07 113.9) rotate(-55.01)"/>
      <ellipse class="st18" cx="57.49" cy="84.18" rx="16.17" ry="17" transform="translate(-30.89 134.99) rotate(-85.57)"/>
      <ellipse class="st18" cx="131.34" cy="81.19" rx="13.28" ry="13.57" transform="translate(41.22 206.57) rotate(-86.02)"/>
      <path id="_주둥이" data-name="주둥이" class="st17" d="M112.48,91.47c-1.59,9.2-11.34,15.96-21.77,15.09-10.44-.87-17.61-9.03-16.02-18.23s11.34-15.96,21.77-15.09c10.44.87,17.61,9.03,16.02,18.23Z"/>
      <path class="st14" d="M106.88,87.17c-.03-.09-.21-.18-.34-.19-.14-.02-.29,0-.44.05-.34.12-.54.35-.54.59,0,.08,0,.17,0,.25,0,.07-.02.15-.02.22,0-.05,0-.09.01-.14-.03.28-.11.56-.23.84-.14.28-.31.57-.53.84-.23.27-.49.53-.79.77-.27.21-.56.4-.88.58-.3.15-.61.29-.93.4-.33.1-.66.18-1,.24-.39.05-.78.08-1.16.07-.37-.02-.73-.07-1.07-.15-.33-.09-.63-.21-.9-.35-.22-.14-.42-.29-.59-.47-.04-.05-.09-.1-.12-.16-.02-.03-.05-.05-.08-.07.11-.28.2-.55.26-.82.18-.81.19-1.6.05-2.35-.08-.41-.2-.82-.34-1.21-.13-.36-.28-.71-.49-1.04-.09-.15-.19-.29-.29-.44,3.78-1.51,6.38-4.26,6.1-6.72-.34-2.92-4.6-4.32-9.52-3.13-4.92,1.19-8.64,4.52-8.31,7.43.34,2.92,4.6,4.32,9.52,3.13.3-.07.59-.15.87-.24,0,.01,0,.03,0,.04.16.33.3.66.45.99.07.17.14.34.21.51.02.04.03.09.05.13,0,0,0,0,0,0,0,0,0,0,0,.01.03.09.05.18.08.26.1.35.17.71.21,1.08.02.18.03.36.03.54,0,.09,0,.19,0,.28,0,.02-.01.15,0,.07.01-.08,0,.01,0,.03,0,.03,0,.05,0,.08-.04.32-.1.64-.2.96-.05.16-.11.32-.17.48-.01.03-.03.07-.04.1,0,0-.02.04-.02.05-.03.07-.06.13-.1.2-.16.32-.35.63-.58.94-.05.07-.11.14-.16.21-.03.03-.05.06-.08.1.11-.15,0,0-.03.03-.13.15-.26.29-.41.44-.14.14-.29.28-.45.42-.03.03-.07.06-.1.09-.01,0-.02.02-.03.03-.08.06-.15.12-.23.18-.17.13-.35.25-.54.36-.08.05-.17.1-.26.15-.04.03-.09.05-.13.07,0,0-.01,0-.02,0-.39.2-.79.38-1.21.53-.04.01-.08.03-.12.04,0,0,0,0-.02,0-.11.03-.21.07-.32.1-.21.06-.43.11-.64.16-.1.02-.2.04-.3.06-.02,0-.1.02-.12.02-.02,0-.03,0-.04,0-.21.03-.42.05-.63.06-.1,0-.19,0-.29,0-.05,0-.1,0-.15,0-.02,0-.06,0-.09,0-.17-.01-.34-.02-.5-.05-.09-.01-.17-.03-.26-.04-.05,0-.09-.02-.14-.03-.02,0-.04-.01-.06-.01.01,0,.02,0,.03,0-.16-.04-.31-.1-.45-.16-.07-.03-.13-.06-.19-.09-.03-.02-.07-.04-.1-.06-.12-.08-.23-.17-.33-.26-.02-.02-.04-.04-.06-.06,0,0-.02-.02-.04-.04-.01-.01-.02-.03-.03-.03-.02-.03-.04-.05-.06-.08-.08-.11-.14-.22-.2-.33-.03-.05-.05-.11-.07-.16,0,0,0,0,0,0,0-.03-.02-.05-.02-.08-.03-.12-.05-.25-.06-.38,0-.06,0-.12,0-.18,0-.01,0-.02,0-.03,0-.02,0-.05,0-.07.02-.13.05-.26.09-.38.02-.06.04-.12.07-.18,0,0,0,0,0,0,.02-.04.04-.08.06-.11.07-.13.15-.25.25-.38,0,0,0-.01.02-.02.02-.02.04-.05.07-.07.06-.06.12-.13.18-.19.25-.24.22-.56-.08-.67-.31-.11-.73,0-1.01.24-1.25,1.15-1.42,2.59-.74,3.58.34.5.88.92,1.61,1.15.79.25,1.73.33,2.71.22,1-.11,2.01-.37,2.97-.77.96-.4,1.81-.93,2.56-1.53.69-.56,1.25-1.19,1.68-1.85.35.28.77.51,1.26.66.85.26,1.86.37,2.92.25.53-.06,1.07-.17,1.59-.34.6-.19,1.14-.43,1.67-.73.95-.53,1.71-1.23,2.24-1.96.3-.41.51-.84.63-1.26.13-.46.12-.9-.02-1.31Z"/>
    </g>
    <path class="st14" d="M131.04,53.72c-3.57-3.68-19.54-.6-26.55,3.64-1.66,1-2.99,2.1-4.04,3.26-2.42,1.68-3.9,3.07-7.49,2.93s-4.96-1.64-7.24-3.5c-.96-1.23-2.2-2.43-3.78-3.56-6.66-4.77-22.35-9.07-26.19-5.67-3.75,3.31.21,17.9,8.56,24.39,9.26,7.2,18.53,4.62,21.72.24,1.23-1.69,2.19-3.98,2.41-6.51.87-.76,2.4-1.76,4.38-1.68s3.42,1.18,4.23,2.01c.02,2.54.8,4.89,1.9,6.67,2.84,4.62,11.88,7.9,21.68,1.44,8.83-5.83,13.91-20.07,10.43-23.66ZM80.84,76.05c-4.99,2.05-14.21-.94-17.76-6.67-3.52-5.68-5.04-11.79-2.91-14.04,2.65-2.8,17.67.23,22.56,5.71,4.89,5.48,3.09,12.95-1.89,15ZM122.29,71.67c-3.98,5.44-13.41,7.71-18.22,5.28-4.81-2.43-6.03-10.02-.72-15.1,5.3-5.08,20.52-6.95,22.94-3.95,1.95,2.41-.05,8.39-3.99,13.78Z"/>
    <path class="st8" d="M58.7,106.85c-.45-1.51-.13-3.17.91-4.31.23-.25.45-.5.68-.76,10.21-11.66,12.29-21.83,7.2-26.9-5.09-5.07-15.43-3.11-25.64,8.55-7.01,8.01-11.16,16.9-11.43,23.34,0,.15-.02.3-.05.45-.58,3.58-.37,7.5.76,11.34,3.06,10.33,11.72,16.1,19.33,12.87,7.61-3.22,11.3-14.21,8.24-24.55,0,0,0-.02,0-.03Z"/>
    <g>
      <path class="st9" d="M135.02,177.46l-60.87,17.8c-.76.22-1.56-.21-1.78-.97l-22.2-75.38c-.22-.76.21-1.56.97-1.78l60.87-17.8c.76-.22,1.56.21,1.78.97l22.2,75.38c.22.76-.21,1.56-.97,1.78Z"/>
      <polygon class="st5" points="129.31 173.19 76.53 188.63 56.25 119.78 109.03 104.35 129.31 173.19"/>
      <g>
        <polygon class="st19" points="80.46 129.61 79.73 129.82 79.67 129.62 80.4 129.4 80.46 129.61"/>
        <polygon class="st19" points="80.46 129.61 80.4 129.4 80.4 129.4 80.46 129.61"/>
        <path class="st19" d="M107.12,121.81l-.06-.21h0s.06.21.06.21ZM105.72,122.22l-.06-.21h0s.06.21.06.21ZM105.72,122.22l-1.4.41-.06-.21,1.4-.41.06.21ZM104.32,122.63l-.06-.21h0s.06.21.06.21ZM102.91,123.04l-.06-.21h0s.06.21.06.21ZM102.91,123.04l-1.4.41-.06-.21,1.4-.41.06.21ZM101.51,123.45l-.06-.21h0s.06.21.06.21ZM100.11,123.86l-.06-.21h0s.06.21.06.21ZM100.11,123.86l-1.4.41-.06-.21,1.4-.41.06.21ZM98.7,124.27l-.06-.21h0s.06.21.06.21ZM97.3,124.68l-.06-.21h0s.06.21.06.21ZM97.3,124.68l-1.4.41-.06-.21,1.4-.41.06.21ZM95.89,125.09l-.06-.21h0s.06.21.06.21ZM94.49,125.5l-.06-.21h0s.06.21.06.21ZM94.49,125.51l-1.4.41-.06-.21,1.4-.41.06.21ZM93.09,125.92l-.06-.21h0s.06.21.06.21ZM91.69,126.33l-.06-.21h0s.06.21.06.21ZM91.68,126.33l-1.4.41-.06-.21,1.4-.41.06.21ZM90.28,126.74l-.06-.21h0s.06.21.06.21ZM88.88,127.15l-.06-.21h0s.06.21.06.21ZM88.88,127.15l-1.4.41-.06-.21,1.4-.41.06.21ZM87.47,127.56l-.06-.21h0s.06.21.06.21ZM86.07,127.97l-.06-.21h0s.06.21.06.21ZM86.07,127.97l-1.4.41-.06-.21,1.4-.41.06.21ZM84.67,128.38l-.06-.21h0s.06.21.06.21ZM83.27,128.79l-.06-.21h0s.06.21.06.21ZM83.26,128.79l-1.4.41-.06-.21,1.4-.41.06.21Z"/>
        <polygon class="st19" points="107.85 121.6 107.12 121.81 107.06 121.6 107.79 121.39 107.85 121.6"/>
      </g>
      <g>
        <polygon class="st19" points="85.25 145.88 84.52 146.1 84.46 145.89 85.19 145.68 85.25 145.88"/>
        <polygon class="st19" points="85.25 145.88 85.19 145.68 85.19 145.68 85.25 145.88"/>
        <path class="st19" d="M111.92,138.08l-.06-.21h0s.06.21.06.21ZM110.51,138.49l-.06-.21h0s.06.21.06.21ZM110.51,138.5l-1.4.41-.06-.21,1.4-.41.06.21ZM109.11,138.91l-.06-.21h0s.06.21.06.21ZM107.71,139.32l-.06-.21h0s.06.21.06.21ZM107.71,139.32l-1.4.41-.06-.21,1.4-.41.06.21ZM106.3,139.73l-.06-.21h0s.06.21.06.21ZM104.9,140.14l-.06-.21h0s.06.21.06.21ZM104.9,140.14l-1.4.41-.06-.21,1.4-.41.06.21ZM103.49,140.55l-.06-.21h0s.06.21.06.21ZM102.09,140.96l-.06-.21h0s.06.21.06.21ZM102.09,140.96l-1.4.41-.06-.21,1.4-.41.06.21ZM100.69,141.37l-.06-.21h0s.06.21.06.21ZM99.29,141.78l-.06-.21h0s.06.21.06.21ZM99.28,141.78l-1.4.41-.06-.21,1.4-.41.06.21ZM97.88,142.19l-.06-.21h0s.06.21.06.21ZM96.48,142.6l-.06-.21h0s.06.21.06.21ZM96.48,142.6l-1.4.41-.06-.21,1.4-.41.06.21ZM95.07,143.01l-.06-.21h0s.06.21.06.21ZM93.67,143.42l-.06-.21h0s.06.21.06.21ZM93.67,143.42l-1.4.41-.06-.21,1.4-.41.06.21ZM92.27,143.83l-.06-.21h0s.06.21.06.21ZM90.87,144.24l-.06-.21h0s.06.21.06.21ZM90.86,144.24l-1.4.41-.06-.21,1.4-.41.06.21ZM89.46,144.65l-.06-.21h0s.06.21.06.21ZM88.06,145.06l-.06-.21h0s.06.21.06.21ZM88.06,145.06l-1.4.41-.06-.21,1.4-.41.06.21Z"/>
        <polygon class="st19" points="112.64 137.87 111.92 138.08 111.85 137.88 112.58 137.67 112.64 137.87"/>
      </g>
      <g>
        <polygon class="st19" points="89.73 161.1 89 161.31 88.94 161.1 89.67 160.89 89.73 161.1"/>
        <polygon class="st19" points="89.73 161.1 89.67 160.89 89.67 160.89 89.73 161.1"/>
        <path class="st19" d="M116.4,153.3l-.06-.21h0s.06.21.06.21ZM115,153.71l-.06-.21h0s.06.21.06.21ZM114.99,153.71l-1.4.41-.06-.21,1.4-.41.06.21ZM113.59,154.12l-.06-.21h0s.06.21.06.21ZM112.19,154.53l-.06-.21h0s.06.21.06.21ZM112.19,154.53l-1.4.41-.06-.21,1.4-.41.06.21ZM110.78,154.94l-.06-.21h0s.06.21.06.21ZM109.38,155.35l-.06-.21h0s.06.21.06.21ZM109.38,155.35l-1.4.41-.06-.21,1.4-.41.06.21ZM107.98,155.76l-.06-.21h0s.06.21.06.21ZM106.57,156.17l-.06-.21h0s.06.21.06.21ZM106.57,156.17l-1.4.41-.06-.21,1.4-.41.06.21ZM105.17,156.58l-.06-.21h0s.06.21.06.21ZM103.77,156.99l-.06-.21h0s.06.21.06.21ZM103.77,156.99l-1.4.41-.06-.21,1.4-.41.06.21ZM102.36,157.4l-.06-.21h0s.06.21.06.21ZM100.96,157.81l-.06-.21h0s.06.21.06.21ZM100.96,157.81l-1.4.41-.06-.21,1.4-.41.06.21ZM99.55,158.23l-.06-.21h0s.06.21.06.21ZM98.15,158.64l-.06-.21h0s.06.21.06.21ZM98.15,158.64l-1.4.41-.06-.21,1.4-.41.06.21ZM96.75,159.05l-.06-.21h0s.06.21.06.21ZM95.35,159.46l-.06-.21h0s.06.21.06.21ZM95.34,159.46l-1.4.41-.06-.21,1.4-.41.06.21ZM93.94,159.87l-.06-.21h0s.06.21.06.21ZM92.54,160.28l-.06-.21h0s.06.21.06.21ZM92.54,160.28l-1.4.41-.06-.21,1.4-.41.06.21Z"/>
        <polygon class="st19" points="117.12 153.09 116.4 153.3 116.34 153.09 117.06 152.88 117.12 153.09"/>
      </g>
      <g>
        <polygon class="st19" points="94.21 176.31 93.49 176.53 93.43 176.32 94.15 176.11 94.21 176.31"/>
        <polygon class="st19" points="94.21 176.31 94.15 176.11 94.15 176.11 94.21 176.31"/>
        <path class="st19" d="M120.88,168.51l-.06-.21h0s.06.21.06.21ZM119.48,168.92l-.06-.21h0s.06.21.06.21ZM119.47,168.92l-1.4.41-.06-.21,1.4-.41.06.21ZM118.07,169.33l-.06-.21h0s.06.21.06.21ZM116.67,169.74l-.06-.21h0s.06.21.06.21ZM116.67,169.75l-1.4.41-.06-.21,1.4-.41.06.21ZM115.26,170.16l-.06-.21h0s.06.21.06.21ZM113.86,170.57l-.06-.21h0s.06.21.06.21ZM113.86,170.57l-1.4.41-.06-.21,1.4-.41.06.21ZM112.46,170.98l-.06-.21h0s.06.21.06.21ZM111.06,171.39l-.06-.21h0s.06.21.06.21ZM111.05,171.39l-1.4.41-.06-.21,1.4-.41.06.21ZM109.65,171.8l-.06-.21h0s.06.21.06.21ZM108.25,172.21l-.06-.21h0s.06.21.06.21ZM108.25,172.21l-1.4.41-.06-.21,1.4-.41.06.21ZM106.84,172.62l-.06-.21h0s.06.21.06.21ZM105.44,173.03l-.06-.21h0s.06.21.06.21ZM105.44,173.03l-1.4.41-.06-.21,1.4-.41.06.21ZM104.04,173.44l-.06-.21h0s.06.21.06.21ZM102.63,173.85l-.06-.21h0s.06.21.06.21ZM102.63,173.85l-1.4.41-.06-.21,1.4-.41.06.21ZM101.23,174.26l-.06-.21h0s.06.21.06.21ZM99.83,174.67l-.06-.21h0s.06.21.06.21ZM99.83,174.67l-1.4.41-.06-.21,1.4-.41.06.21ZM98.42,175.08l-.06-.21h0s.06.21.06.21ZM97.02,175.49l-.06-.21h0s.06.21.06.21ZM97.02,175.49l-1.4.41-.06-.21,1.4-.41.06.21Z"/>
        <polygon class="st19" points="121.6 168.3 120.88 168.51 120.82 168.31 121.54 168.1 121.6 168.3"/>
      </g>
      <polygon class="st11" points="75.38 131.1 67.71 133.34 65.45 125.69 73.13 123.45 75.38 131.1"/>
      <polygon class="st11" points="80.14 147.27 72.47 149.51 70.22 141.86 77.89 139.62 80.14 147.27"/>
      <polygon class="st11" points="84.62 162.48 76.95 164.72 74.7 157.08 82.37 154.83 84.62 162.48"/>
      <polygon class="st11" points="89.11 177.69 81.43 179.94 79.18 172.29 86.85 170.05 89.11 177.69"/>
      <path class="st1" d="M68.45,128.1c1.47.81,3.96,2.18,3.96,2.18,0,0,2.64-5.45,4.63-7.92"/>
      <path class="st1" d="M73.26,144.45c1.47.81,3.96,2.18,3.96,2.18,0,0,2.64-5.45,4.63-7.92"/>
      <path class="st1" d="M77.72,159.6c1.47.81,3.96,2.18,3.96,2.18,0,0,2.64-5.45,4.63-7.92"/>
      <path class="st1" d="M82.18,174.73c1.47.81,3.96,2.18,3.96,2.18,0,0,2.64-5.45,4.63-7.92"/>
      <path class="st10" d="M59.51,121.2"/>
      <path class="st0" d="M92.27,102.74l-5.14,1.5c-1.08-3.11-4.44-4.86-7.65-3.92s-5.08,4.22-4.3,7.42l-5.14,1.5c-2.74.8-4.32,3.69-3.52,6.42l.22.75c.23.77,1.05,1.22,1.83.99l29.37-8.59c.78-.23,1.22-1.05,1-1.82l-.22-.75c-.8-2.73-3.7-4.31-6.44-3.51ZM77.64,107.05c-.38-1.85.72-3.71,2.57-4.25s3.79.43,4.47,2.2l-7.04,2.06Z"/>
    </g>
    <g>
      <rect class="st12" x="3.26" y="11.87" width="42.95" height="42.8" rx="3.98" ry="3.98"/>
      <path class="st13" d="M10.03,23.8c4.27,4.3,10.52,10.58,14.15,14.24,1.59,1.6,4.19,1.56,5.74-.09,6.35-6.78,22.13-23.17,33.06-30.8"/>
    </g>
    <g>
      <path class="st2" d="M143.84,124.14c-5.29-12.24-14.12-19.88-19.71-17.05-5.59,2.82-5.83,15.03-.54,27.27,0,0,0,.01,0,.02.48,1.12-.02,2.43-1.09,2.84-.09.04-.19.07-.28.11-11.12,4.34-18.26,13.48-15.94,20.42,2.32,6.94,13.21,9.05,24.34,4.71,8.59-3.35,14.8-9.57,16.12-15.42.01-.05.02-.09.04-.14,1.8-5.3.84-14.03-2.94-22.77Z"/>
      <path class="st6" d="M122.99,137.04s6.68-2.55,12.16-.51"/>
    </g>
  </g>
</svg>