<?xml version="1.0" encoding="UTF-8"?>
<svg id="Layer_1" xmlns="http://www.w3.org/2000/svg" version="1.1" viewBox="0 0 210 199.96">
  <!-- Generator: Adobe Illustrator 29.6.1, SVG Export Plug-In . SVG Version: 2.1.1 Build 9)  -->
  <defs>
    <style>
      .st0 {
        fill: #f3f1ff;
      }

      .st0, .st1, .st2, .st3, .st4, .st5, .st6, .st7 {
        stroke: #4c241e;
        stroke-miterlimit: 10;
      }

      .st1 {
        fill: #ff8b5e;
      }

      .st2 {
        fill: #fff;
      }

      .st3 {
        fill: #d1c3fd;
      }

      .st4 {
        fill: none;
      }

      .st5 {
        fill: #f56233;
      }

      .st6 {
        fill: #454072;
      }

      .st7 {
        fill: #e6e1fd;
      }
    </style>
  </defs>
  <g id="_창고">
    <g>
      <rect class="st7" x="118.05" y="45.65" width="89.67" height="119.33"/>
      <path class="st2" d="M159.87,164.99h-85.98v-92.53l41.36-26.37c1-.63,2.27-.63,3.26,0l41.36,26.37v92.53Z"/>
      <g>
        <path class="st3" d="M207.71,45.65h-89.67l41.69,26.45c.85.54,1.83.82,2.83.82h45.14v-27.27h0Z"/>
        <line class="st4" x1="131.38" y1="45.65" x2="174.37" y2="72.93"/>
        <line class="st4" x1="143.79" y1="45.65" x2="186.78" y2="72.93"/>
        <line class="st4" x1="156.2" y1="45.65" x2="199.19" y2="72.93"/>
        <line class="st4" x1="168.61" y1="45.65" x2="207.71" y2="70.46"/>
        <line class="st4" x1="181.02" y1="45.65" x2="207.71" y2="62.59"/>
        <line class="st4" x1="193.43" y1="45.65" x2="207.71" y2="54.72"/>
      </g>
      <rect class="st3" x="84.31" y="95.33" width="68.56" height="69.66"/>
      <rect class="st6" x="98.1" y="95.33" width="40.99" height="69.66"/>
      <g>
        <line class="st4" x1="86.08" y1="70.43" x2="96.26" y2="63.96"/>
        <line class="st4" x1="97.57" y1="62.91" x2="100.99" y2="60.73"/>
      </g>
      <g>
        <path class="st0" d="M150.32,138.63h0c-.33,0-.6-.28-.6-.63v-7.21c0-.35.27-.63.6-.63h0c.33,0,.6.28.6.63v7.21c0,.35-.27.63-.6.63Z"/>
        <path class="st0" d="M86.86,138.63h0c-.33,0-.6-.28-.6-.63v-7.21c0-.35.27-.63.6-.63h0c.33,0,.6.28.6.63v7.21c0,.35-.27.63-.6.63Z"/>
      </g>
    </g>
    <rect class="st3" y="164.03" width="210" height="44.53"/>
    <g>
      <g>
        <rect class="st5" x="165.93" y="138.45" width="29.26" height="30.59"/>
        <rect class="st1" x="156.14" y="138.45" width="29.26" height="30.59"/>
        <rect class="st2" x="165.93" y="138.45" width="11.76" height="4.24"/>
        <rect class="st2" x="186.78" y="164.32" width="6.94" height="3.3"/>
      </g>
      <g>
        <rect class="st5" x="204.99" y="138.45" width="2.73" height="30.59"/>
        <rect class="st1" x="195.19" y="138.45" width="12.52" height="30.59"/>
        <rect class="st2" x="204.99" y="138.45" width="2.73" height="4.24"/>
      </g>
      <g>
        <rect class="st5" x="177.13" y="117.91" width="19.66" height="20.55"/>
        <rect class="st1" x="183.71" y="117.91" width="19.66" height="20.55"/>
        <rect class="st2" x="188.88" y="117.9" width="7.9" height="2.85"/>
        <rect class="st2" x="178.12" y="135.29" width="4.66" height="2.21"/>
      </g>
    </g>
    <g>
      <ellipse class="st1" cx="72.49" cy="27.62" rx="11.82" ry="12.35"/>
      <path class="st2" d="M117.49,19.18h-16.43c1.43-2.7,3.03-5.44,5.54-7.07.96-.63,2.2-1.07,3.2-.51.68.38,1.08,1.15,1.23,1.94s.06,1.6-.02,2.4c.42-.55.89-1.09,1.52-1.36.62-.27,1.43-.18,1.85.36.35.45.37,1.09.29,1.66.65-.94,2.48-2.2,3.76-1.77.75.26.93,1.43.92,2.53,0,1.01-.84,1.82-1.85,1.82h-.01Z"/>
      <path class="st2" d="M69.89,33.9h-25.79s2.17-5.03,5.28-5.03,2.12,3.51,2.12,3.51c0,0,3.11-8.91,9.21-8.65,6.1.26,3.8,8.07,3.8,8.07,0,0,2.2-3.26,4.54-2.98,2,.24,2.35,2.2,2.33,3.62,0,.82-.67,1.47-1.49,1.47h0Z"/>
    </g>
    <g>
      <g>
        <rect class="st5" x="52.68" y="147.28" width="19.66" height="20.55"/>
        <rect class="st1" x="59.26" y="147.28" width="19.66" height="20.55"/>
        <rect class="st2" x="64.44" y="147.27" width="7.9" height="2.85"/>
        <rect class="st2" x="53.68" y="164.66" width="4.66" height="2.21"/>
      </g>
      <g>
        <rect class="st5" x="52.68" y="126.73" width="19.66" height="20.55"/>
        <rect class="st1" x="59.26" y="126.73" width="19.66" height="20.55"/>
        <rect class="st2" x="64.44" y="126.72" width="7.9" height="2.85"/>
        <rect class="st2" x="53.68" y="144.11" width="4.66" height="2.21"/>
      </g>
    </g>
  </g>
</svg>