<?xml version="1.0" encoding="UTF-8"?>
<svg xmlns="http://www.w3.org/2000/svg" version="1.1" viewBox="0 0 184 160">
  <!-- Generator: Adobe Illustrator 30.1.0, SVG Export Plug-In . SVG Version: 2.1.1 Build 136)  -->
  <defs>
    <style>
      .st0 {
        fill: #558efa;
        stroke-width: .57px;
      }

      .st0, .st1, .st2, .st3, .st4, .st5, .st6, .st7, .st8, .st9, .st10, .st11, .st12, .st13, .st14 {
        stroke-miterlimit: 10;
      }

      .st0, .st3 {
        stroke: #000;
      }

      .st1, .st2, .st4, .st5, .st7, .st8, .st10, .st11, .st12, .st13 {
        stroke: #302d24;
      }

      .st1, .st4, .st5, .st7, .st8, .st11, .st12 {
        stroke-width: .77px;
      }

      .st1, .st15 {
        fill: #752c3c;
      }

      .st2 {
        stroke-width: 1.76px;
      }

      .st2, .st10 {
        fill: #5681a0;
      }

      .st3 {
        fill: #a586e2;
        stroke-width: .88px;
      }

      .st4 {
        fill: #ff6643;
      }

      .st5 {
        fill: #d63b5d;
      }

      .st16 {
        fill: #ddb14a;
      }

      .st17 {
        fill: #fff;
      }

      .st6 {
        fill: #e8e8ea;
        stroke-width: .59px;
      }

      .st6, .st14 {
        stroke: #192638;
      }

      .st7, .st13, .st18 {
        fill: #ffdcdc;
      }

      .st8, .st19 {
        fill: #ffc35a;
      }

      .st20 {
        fill: #cd8d00;
      }

      .st9 {
        fill: #ffc7d1;
        stroke: #561f18;
        stroke-width: .6px;
      }

      .st10, .st13, .st14 {
        stroke-width: 1.17px;
      }

      .st21 {
        fill: #e1f7ff;
      }

      .st22 {
        isolation: isolate;
      }

      .st23 {
        fill: #676a9d;
      }

      .st24 {
        mix-blend-mode: multiply;
        opacity: .15;
      }

      .st25 {
        fill: #bedcf1;
      }

      .st26 {
        fill: #ffc1dd;
      }

      .st11 {
        fill: #ffd469;
      }

      .st12 {
        fill: #ffcf6e;
      }

      .st27, .st14 {
        fill: #8d9bc1;
      }

      .st28 {
        fill: #ffd7ff;
      }

      .st29 {
        fill: #192638;
      }

      .st30 {
        fill: #9a6d92;
      }

      .st31 {
        fill: #805379;
        font-family: Montserrat-Medium, Montserrat;
        font-size: 3.89px;
        font-weight: 500;
      }

      .st32 {
        fill: #c29dc6;
      }
    </style>
  </defs>
  <g class="st22">
    <g id="Layer_1">
      <g>
        <g>
          <polygon class="st27" points="155.97 115.54 145.36 101.77 140.55 11.79 150.4 11.27 155.97 115.54"/>
          <polygon class="st27" points="77.58 119.7 78.87 119.63 86.64 104.23 81.86 14.91 72.01 15.43 77.58 119.7"/>
          <polygon class="st23" points="150.4 11.27 73.28 15.36 71.95 14.15 151.57 9.92 150.4 11.27"/>
          <polygon class="st26" points="73.3 15.36 82.23 21.23 140.89 18.11 150.4 11.27 73.3 15.36"/>
          <polygon class="st32" points="150.4 11.27 73.3 15.36 73.75 15.75 149.94 11.7 150.4 11.27"/>
          <rect class="st17" x="84.42" y="19.61" width="58.74" height="83.77" transform="translate(-3.1 6.12) rotate(-3.04)"/>
          <rect class="st28" x="83.3" y="19.64" width="58.74" height="41.71" transform="translate(-1.99 6.03) rotate(-3.04)"/>
          <polygon class="st17" points="123.61 14.78 101.47 15.95 105 17.53 120.27 16.72 123.61 14.78"/>
          <rect class="st23" x="153.15" y="9.88" width="1.24" height="105.7" transform="translate(310.65 117.23) rotate(176.96)"/>
          <g>
            <path class="st14" d="M159.16,1.03l-8.04.43-79.63,4.22-8.04.43c-.35.02-.61.31-.59.66l.42,7.84,5.61,104.92c.02.35.31.61.66.59l7.41-.39c.35-.02.61-.31.59-.66l-5.57-104.3c-.02-.35.25-.64.59-.66l78.37-4.16c.35-.02.64.25.66.59l5.57,104.3c.02.35.31.61.66.59l7.41-.39c.35-.02.61-.31.59-.66L159.82,1.62c-.02-.35-.31-.61-.66-.59h0Z"/>
            <g>
              <rect class="st25" x="106.13" y="5.66" width="13.33" height="5.09" rx="2.29" ry="2.29" transform="translate(-.28 5.99) rotate(-3.04)"/>
              <g>
                <text class="st31" transform="translate(110.99 9.88) rotate(-3.04) skewX(.02)"><tspan x="0" y="0">5</tspan></text>
                <polygon class="st23" points="114.26 6.85 113.78 7.8 114.85 7.74 114.26 6.85"/>
                <polygon class="st17" points="114.4 9.31 114.88 8.36 113.81 8.42 114.4 9.31"/>
              </g>
            </g>
            <g>
              <g>
                <rect class="st6" x="154.9" y="54.71" width="6.63" height="14.45" transform="translate(-3.06 8.47) rotate(-3.04)"/>
                <path class="st30" d="M159.75,58.42c.24,1.16-.7,2.21-1.89,2.09-.74-.07-1.37-.64-1.52-1.36-.24-1.16.7-2.21,1.89-2.09.74.07,1.37.64,1.52,1.36Z"/>
                <path class="st30" d="M160.07,64.32c.24,1.16-.7,2.21-1.89,2.09-.74-.07-1.37-.64-1.52-1.36-.24-1.16.7-2.21,1.89-2.09.74.07,1.37.64,1.52,1.36Z"/>
              </g>
              <polygon class="st29" points="157.99 57.76 157.12 59.47 159.04 59.37 157.99 57.76"/>
              <polygon class="st29" points="158.42 65.78 159.29 64.07 157.37 64.17 158.42 65.78"/>
            </g>
          </g>
          <path class="st9" d="M86.45,105.35l-6.81,12.82c-.34.64.15,1.41.88,1.37l73.67-3.91c.75-.04,1.15-.91.69-1.5l-9.23-11.97c-.19-.24-.48-.38-.79-.36l-57.63,3.06c-.33.02-.62.21-.78.5Z"/>
        </g>
        <g>
          <g>
            <path class="st0" d="M157.48,95.35l13.04.9c.31.02.58-.21.61-.53s-.21-.58-.53-.6l-13.04-.9c-.31-.02-.58.21-.61.53s.21.58.53.6Z"/>
            <path class="st0" d="M159.31,107.39l13.04.9c.31.02.58-.21.61-.53s-.21-.58-.53-.6l-13.04-.9c-.31-.02-.58.21-.61.53s.21.58.53.6Z"/>
            <path class="st0" d="M168.85,101.23l13.04.9c.31.02.58-.21.61-.53s-.21-.58-.53-.6l-13.04-.9c-.31-.02-.58.21-.61.53s.21.58.53.6Z"/>
            <path class="st0" d="M159.21,100.57l5.67.39c.31.02.58-.21.61-.53s-.21-.58-.53-.6l-5.67-.39c-.31-.02-.58.21-.61.53s.21.58.53.6Z"/>
            <path class="st0" d="M157.22,112.92l5.67.39c.31.02.58-.21.61-.53s-.21-.58-.53-.6l-5.67-.39c-.31-.02-.58.21-.61.53s.21.58.53.6Z"/>
          </g>
          <g>
            <rect class="st5" x="70.19" y="93.84" width="63.51" height="51.61" rx="1.44" ry="1.44" transform="translate(8.44 -6.71) rotate(3.93)"/>
            <g>
              <g>
                <polygon class="st4" points="117.67 143.93 117.67 143.93 117.61 144.74 117.61 144.74 117.67 143.93"/>
                <path class="st4" d="M119.68,95l-53.56-3.68-2.31-.16c-1.02-.07-1.91.7-1.98,1.72l-3.31,47.8c-.07,1.01.7,1.9,1.72,1.97l55.38,3.8c1.02.07,1.91-.7,1.98-1.72l.06-.81,3.28-47.47c.05-.75-.52-1.4-1.27-1.46Z"/>
              </g>
              <g>
                <rect class="st17" x="78.19" y="114.2" width="12.42" height="8.72" transform="translate(8.32 -5.51) rotate(3.93)"/>
                <polygon class="st17" points="107.97 120.18 94.01 110.82 92.85 127.55 107.97 120.18"/>
              </g>
            </g>
            <path class="st8" d="M7.48,129.22c-.12,1.75-3.69,2.93-4.4,2.88s-1.17-1.51-1.05-3.25.79-3.13,1.49-3.08,4.08,1.7,3.96,3.45Z"/>
            <g>
              <path class="st7" d="M132.55,147.62l-82.44-5.66c-1.19-.08-2.23.82-2.32,2.01h0c-.08,1.19.83,2.23,2.02,2.31l82.44,5.66c1.19.08,2.23-.82,2.32-2.01h0c.08-1.19-.83-2.23-2.02-2.31Z"/>
              <path class="st7" d="M123.6,147l-73.49-5.05c-1.19-.08-2.23.82-2.32,2.01h0c-.08,1.19.83,2.23,2.02,2.31l73.49,5.05c1.19.08,2.23-.82,2.32-2.01h0c.08-1.19-.83-2.23-2.02-2.31Z"/>
              <path class="st13" d="M57.48,99.37l-16.84-1.16c-1.58-.11-3.09.69-3.88,2.06l-9.45,14.27c-.49.85-1.26,1.49-2.18,1.83l-17.25,6.26c-1.54.56-2.6,1.97-2.72,3.6l-.88,12.77c-.16,2.28,1.57,4.25,3.85,4.4l6.78.47c1.35.09,2.56-.76,2.98-2.05,1.29-4,5.18-6.77,9.58-6.46s7.87,3.57,8.6,7.71c.23,1.33,1.32,2.34,2.67,2.43l15.48,1.06c2.28.16,4.26-1.56,4.42-3.84l2.7-38.97c.16-2.28-1.57-4.25-3.85-4.4Z"/>
              <path class="st17" d="M27.59,115.01c-.09.12-.18.23-.28.33,0,0,0,0,0,0l5.82.4c.27.02.53-.12.66-.36l6.72-12.5c.24-.44-.06-.98-.56-1.01l-3.49-.24-8.58,12.95c-.08.13-.16.26-.25.38-.01.02-.02.03-.03.05Z"/>
              <rect class="st7" x="2.53" y="135.86" width="10.19" height="8.44" rx="1.24" ry="1.24" transform="translate(9.62 -.19) rotate(3.93)"/>
              <rect class="st7" x="1.48" y="140.09" width="12.74" height="4.22" rx="1.27" ry="1.27" transform="translate(9.76 -.2) rotate(3.93)"/>
            </g>
            <g>
              <ellipse class="st2" cx="26.78" cy="144.65" rx="8" ry="7.98"/>
              <ellipse class="st21" cx="26.78" cy="144.65" rx="4.34" ry="4.33"/>
            </g>
            <path class="st3" d="M87.52,62.36c.5.03.94-.34.97-.85l.03-.48c.03-.5-.35-.94-.85-.97l-.3-.02.41-5.88c.03-.5-.35-.94-.85-.97l-.48-.03c-.5-.03-.94.34-.97.85l-.41,5.88-14.86-1.02.41-5.88c.03-.5-.35-.94-.85-.97l-.48-.03c-.5-.03-.94.34-.97.85l-.41,5.88-.3-.02c-.5-.03-.94.34-.97.85l-.03.48c-.03.5.35.94.85.97l.3.02-.58,8.44-.3-.02c-.5-.03-.94.34-.97.85l-.03.48c-.03.5.35.94.85.97l.3.02-.58,8.44-.3-.02c-.5-.03-.94.34-.97.85l-.03.48c-.03.5.35.94.85.97l.3.02-.58,8.44-.3-.02c-.5-.03-.94.34-.97.85l-.03.48c-.03.5.35.94.85.97l.3.02-.58,8.44-.3-.02c-.5-.03-.94.34-.97.85l-.03.48c-.03.5.35.94.85.97l.3.02-.58,8.44-.3-.02c-.5-.03-.94.34-.97.85l-.03.48c-.03.5.35.94.85.97l.3.02-.58,8.44-.3-.02c-.5-.03-.94.34-.97.85l-.03.48c-.03.5.35.94.85.97l.3.02-.58,8.44-.3-.02c-.5-.03-.94.34-.97.85l-.03.48c-.03.5.35.94.85.97l.3.02-.41,5.88c-.03.5.35.94.85.97l.48.03c.5.03.94-.34.97-.85l.41-5.88,14.86,1.02-.41,5.88c-.03.5.35.94.85.97l.48.03c.5.03.94-.34.97-.85l.41-5.88.3.02c.5.03.94-.34.97-.85l.03-.48c.03-.5-.35-.94-.85-.97l-.3-.02.58-8.44.3.02c.5.03.94-.34.97-.85l.03-.48c.03-.5-.35-.94-.85-.97l-.3-.02.58-8.44.3.02c.5.03.94-.34.97-.85l.03-.48c.03-.5-.35-.94-.85-.97l-.3-.02.58-8.44.3.02c.5.03.94-.34.97-.85l.03-.48c.03-.5-.35-.94-.85-.97l-.3-.02.58-8.44.3.02c.5.03.94-.34.97-.85l.03-.48c.03-.5-.35-.94-.85-.97l-.3-.02.58-8.44.3.02c.5.03.94-.34.97-.85l.03-.48c.03-.5-.35-.94-.85-.97l-.3-.02.58-8.44.3.02c.5.03.94-.34.97-.85l.03-.48c.03-.5-.35-.94-.85-.97l-.3-.02.58-8.44.3.02ZM79.89,135.02l-14.86-1.02.58-8.44,14.86,1.02-.58,8.44ZM80.63,124.29l-14.86-1.02.58-8.44,14.86,1.02-.58,8.44ZM81.37,113.55l-14.86-1.02.58-8.44,14.86,1.02-.58,8.44ZM82.11,102.82l-14.86-1.02.58-8.44,14.86,1.02-.58,8.44ZM82.86,92.09l-14.86-1.02.58-8.44,14.86,1.02-.58,8.44ZM83.6,81.35l-14.86-1.02.58-8.44,14.86,1.02-.58,8.44ZM84.34,70.62l-14.86-1.02.58-8.44,14.86,1.02-.58,8.44Z"/>
            <g>
              <ellipse class="st10" cx="105.32" cy="150.09" rx="8" ry="7.98"/>
              <ellipse class="st21" cx="105.32" cy="150.09" rx="4.34" ry="4.33"/>
            </g>
            <path class="st18" d="M54.04,143.97l-15.46-1.06c-.82-.06-1.45-.74-1.44-1.56.02-1.94-.65-4.69-4.18-6.42-.48-.24-.68-.83-.65-1.36l1.08-15.58c.01-.19.06-.39.15-.56l7.78-16.15c.27-.57.87-.91,1.5-.87l14.16.97c.85.06,1.49.79,1.44,1.64l-2.73,39.51c-.06.85-.8,1.49-1.65,1.43Z"/>
            <path class="st17" d="M36.91,114.52l5.71-11.65c.24-.48.75-.77,1.29-.73l11.29.78c.74.05,1.3.68,1.25,1.41l-.8,11.64c-.05.73-.69,1.28-1.43,1.23l-16.17-1.11c-.95-.07-1.56-.72-1.13-1.56Z"/>
            <path class="st19" d="M13.17,134.02l-3.09-.21c-.68-.05-1.19-.64-1.15-1.31h0c.05-.68.64-1.19,1.32-1.14l3.09.21c.68.05,1.19.64,1.15,1.31h0c-.05.68-.64,1.19-1.32,1.14Z"/>
            <g>
              <rect class="st15" x="121.59" y="97" width="10.51" height="49.23" rx="1.16" ry="1.16" transform="translate(8.63 -8.41) rotate(3.93)"/>
              <path class="st24" d="M132.23,97.31l-7.36-.51c-.64-.04-1.21.3-1.49.84l5.8.4c.86.06,1.51.81,1.45,1.66l-3.18,46c-.02.22-.08.43-.18.61l1.57.11c.86.06,1.61-.59,1.67-1.45l3.18-46c.06-.86-.59-1.6-1.45-1.66Z"/>
            </g>
            <rect class="st11" x="126.62" y="123.61" width="17.53" height="23.1" transform="translate(9.58 -8.96) rotate(3.93)"/>
            <rect class="st12" x="144.13" y="124.33" width="3.4" height="23.1" transform="translate(282.01 281.42) rotate(-176.07)"/>
            <polygon class="st16" points="133.98 124.01 133.81 126.41 133.93 126.41 134.25 125.5 134.46 126.45 134.91 126.48 135.1 125.95 135.28 126.51 135.73 126.54 135.93 125.62 136.2 126.57 136.31 126.58 136.47 124.19 133.98 124.01"/>
            <g>
              <rect class="st12" x="125.1" y="111.13" width="15.08" height="12.25" transform="translate(8.35 -8.81) rotate(3.93)"/>
              <rect class="st12" x="140.15" y="111.74" width="2.93" height="12.25" transform="translate(274.83 245.17) rotate(-176.07)"/>
              <polygon class="st20" points="131.95 111.58 131.81 113.63 131.91 113.64 132.18 112.86 132.36 113.67 132.76 113.7 132.91 113.24 133.07 113.72 133.46 113.75 133.63 112.96 133.86 113.77 133.95 113.78 134.1 111.72 131.95 111.58"/>
            </g>
            <rect class="st1" x="119.54" y="146.59" width="33.74" height="1.29" rx=".55" ry=".55" transform="translate(10.41 -9) rotate(3.93)"/>
          </g>
        </g>
      </g>
    </g>
  </g>
</svg>