<?xml version="1.0" encoding="UTF-8"?>
<svg id="Layer_1" xmlns="http://www.w3.org/2000/svg" version="1.1" viewBox="0 0 170 168">
  <!-- Generator: Adobe Illustrator 30.1.0, SVG Export Plug-In . SVG Version: 2.1.1 Build 136)  -->
  <defs>
    <style>
      .st0 {
        stroke: #ffb03e;
      }

      .st0, .st1 {
        fill: #ee444d;
        stroke-width: 1.42px;
      }

      .st0, .st1, .st2 {
        stroke-linecap: round;
        stroke-linejoin: round;
      }

      .st3 {
        stroke-width: 1.18px;
      }

      .st3, .st4, .st5, .st6, .st7, .st8, .st9, .st10, .st11, .st12, .st13, .st14, .st15, .st16 {
        stroke-miterlimit: 10;
      }

      .st3, .st6, .st10, .st13, .st15, .st16 {
        stroke: #4c241e;
      }

      .st3, .st13, .st17 {
        fill: #00adb5;
      }

      .st4 {
        fill: #fcd05d;
      }

      .st4, .st5, .st8, .st11, .st2 {
        stroke: #561f18;
        stroke-width: .88px;
      }

      .st18 {
        fill: #a56ba0;
      }

      .st5, .st2 {
        fill: none;
      }

      .st19 {
        fill: #222831;
      }

      .st1 {
        stroke: #ffd899;
      }

      .st6 {
        fill: #a13300;
        stroke-width: .81px;
      }

      .st7, .st10, .st14 {
        stroke-width: .59px;
      }

      .st7, .st20 {
        fill: #d4d4d4;
      }

      .st7, .st14 {
        stroke: #636466;
      }

      .st21, .st15 {
        fill: #fff;
      }

      .st22 {
        fill: #a74ca2;
      }

      .st8 {
        fill: #ffa861;
      }

      .st23 {
        fill: #ff6643;
      }

      .st9 {
        fill: #546e7a;
        stroke: #231f20;
        stroke-width: .75px;
      }

      .st10 {
        fill: #393e46;
      }

      .st11 {
        fill: #fcd15d;
      }

      .st12 {
        fill: #ffd899;
        stroke: #331104;
        stroke-width: .79px;
      }

      .st13 {
        stroke-width: 1px;
      }

      .st14 {
        fill: #eee;
      }

      .st24 {
        fill: #0c203b;
      }

      .st15 {
        stroke-width: 1.59px;
      }

      .st16 {
        fill: #999;
        stroke-width: 1.31px;
      }
    </style>
  </defs>
  <g>
    <polygon class="st12" points="150.93 165.98 150.9 89.9 100.34 46.89 49.81 89.95 49.84 165.98 150.93 165.98"/>
    <polygon class="st23" points="49.82 91.62 99.58 56.67 149.87 90.73 99.83 47.59 49.82 91.62"/>
    <g>
      <path class="st21" d="M75.55,86.32h9.65c7.34,0,13.3,5.96,13.3,13.3v31.24c0,1.08-.87,1.95-1.95,1.95h-32.35c-1.08,0-1.95-.87-1.95-1.95v-31.24c0-7.34,5.96-13.3,13.3-13.3Z"/>
      <path class="st24" d="M76.45,89h7.86c5.98,0,10.84,4.86,10.84,10.84v28.63c0,.91-.74,1.66-1.66,1.66h-26.23c-.91,0-1.66-.74-1.66-1.66v-28.63c0-5.98,4.86-10.84,10.84-10.84Z"/>
      <path class="st21" d="M78.98,87.95c0,11.24-.09,22.47-.27,33.71-.05,3.16-.11,6.33-.17,9.49-.01.53.82.53.83,0,.23-11.23.37-22.47.42-33.71.01-3.16.02-6.33.02-9.49,0-.53-.83-.53-.83,0h0Z"/>
      <path class="st21" d="M96.32,101.09c-4.04.17-8.09.2-12.14.26-4.97.07-9.94.12-14.91.18-1.77.02-3.53.04-5.3.07-.53.01-.53.84,0,.83,3.8-.08,7.6-.1,11.4-.15,5.04-.06,10.08-.12,15.12-.21,1.94-.04,3.89-.07,5.83-.15.53-.02.53-.85,0-.83h0Z"/>
      <path class="st21" d="M96.33,114.94c-4.04.17-8.09.2-12.14.26-4.97.07-9.94.12-14.91.18-1.77.02-3.53.04-5.3.07-.53.01-.53.84,0,.83,3.8-.08,7.6-.1,11.4-.15,5.04-.06,10.08-.12,15.12-.21,1.94-.04,3.89-.07,5.83-.15.53-.02.53-.85,0-.83h0Z"/>
    </g>
    <path class="st15" d="M137.55,160.63h-22.95c-1.33.01-2.41-1.07-2.41-2.4v-32.94c-.01-5.45,6.2-9.86,13.87-9.87h0c7.67,0,13.89,4.41,13.89,9.85v32.94c.01,1.33-1.07,2.41-2.4,2.41Z"/>
    <line class="st1" x1="107.34" y1="117.78" x2="111.85" y2="117.78"/>
    <polygon class="st6" points="100.33 38.24 32.33 95.41 39.22 100.97 100.33 49.47 161.48 100.91 168.37 95.34 100.33 38.24"/>
    <line class="st0" x1="135.39" y1="111.9" x2="141.44" y2="111.9"/>
    <line class="st0" x1="100.39" y1="128.16" x2="104.91" y2="128.16"/>
    <line class="st0" x1="100.39" y1="128.16" x2="104.91" y2="128.16"/>
    <line class="st0" x1="64.85" y1="144.95" x2="69.36" y2="144.95"/>
    <line class="st0" x1="127.33" y1="102.11" x2="131.97" y2="102.11"/>
    <line class="st0" x1="89.76" y1="153.45" x2="94.27" y2="153.45"/>
  </g>
  <g>
    <path class="st9" d="M62.51,37.24c.12.58.28,1.16.47,1.72,1.43-.12,1.59-.11,3.02-.22-.18-1.37.14-1.29.06-2.77-.13-2.38.32-4.75.83-7.07.95-4.34,2.17-8.7,4.51-12.48l-6.75.16c-2.43,7.24-3.68,13.17-2.14,20.65Z"/>
    <path class="st19" d="M64.77,34.7c.37-2.48,2.7-13,3.88-14.79h-3.58c-2.41,6.45-2.23,11.94-1.55,14.94.42-.05.83-.1,1.25-.15Z"/>
    <g>
      <path class="st16" d="M16.44,70.78l-10.64-10.04c-5.41-5.11-5.57-13.3-.37-17.58.51-.42,1.03-.83,1.56-1.22l24.78-18.39c1.41-1.04,2.9-1.94,4.46-2.69,2.84-1.37,5.89-2.27,9.05-2.72.03,0,.06-.01.09-.01,1.96-.29,3.73-1.37,4.95-2.93.91-1.17,1.58-2.51,2.2-3.85.11-.24.22-.48.33-.72.13-.28.26-.56.38-.84l4.25,1.67.4,1.63,1.23,5.04-.72,1.5-23.33,48.9s-.05.09-.07.13c-3.25,6.76-12.56,7.77-18.56,2.11Z"/>
      <path class="st20" d="M58.73,13.89c-.42.43-.84.87-1.26,1.31-2.24,2.38-4.4,4.84-7.08,6.68-1.31.9-2.78,1.65-4.36,1.8-1.28.12-2.57-.15-3.83-.47-1.73-.44-3.44-.95-5.12-1.56,2.84-1.37,5.89-2.27,9.05-2.72.03,0,.06-.01.09-.01,1.96-.29,3.73-1.37,4.95-2.93.91-1.17,1.58-2.51,2.2-3.85l-1.36-1.01-3.49-3.59c-.85-.88-.97-1.98-.61-2.9,2.5.49,4.98,1.12,7.44,1.75,2.57.66,5.21,1.35,7.36,2.91.17.12.35.28.37.48.04.29-.23.51-.47.69-1.4,1.01-2.66,2.18-3.88,3.42Z"/>
      <path class="st17" d="M79.13,29.37l-3.32-1.78-1.3-.7-7.17-3.84-.75-.4-2.33-1.25-1.67,1.54h0s-.89.82-.89.82c-.16.15-.34.26-.53.34h0c-.87.4-1.94.12-2.48-.73l-.28-3.75-.31-4.15-1.45-1.08-4.11-3.06-1.36-1.01-3.49-3.59c-.85-.88-.97-1.98-.61-2.9.51-1.32,1.99-2.26,3.64-1.62l11.69,4.58,16.72,13.93,1.12.93,3.21,2.68-4.3,5.03Z"/>
      <path class="st3" d="M79.13,29.37l-3.32-1.78-1.3-.7-7.17-3.84-.75-.4-2.33-1.25-1.67,1.54h0s-.89.82-.89.82c-.16.15-.34.26-.53.34h0c-.87.4-1.94.12-2.48-.73l-.28-3.75-.31-4.15-1.45-1.08-4.11-3.06-1.36-1.01-3.49-3.59c-.85-.88-.97-1.98-.61-2.9.51-1.32,1.99-2.26,3.64-1.62l11.69,4.58,16.72,13.93,1.12.93,3.21,2.68-4.3,5.03Z"/>
    </g>
  </g>
  <g>
    <g>
      <g>
        <g>
          <polygon class="st7" points="125.54 62.44 123.28 60.53 131.15 51.24 133.42 53.14 125.54 62.44"/>
          <polygon class="st7" points="122.61 59.96 120.34 58.06 128.22 48.77 130.48 50.67 122.61 59.96"/>
          <polygon class="st7" points="119.67 57.49 117.41 55.59 125.28 46.3 127.54 48.2 119.67 57.49"/>
          <polygon class="st7" points="116.73 55.02 114.47 53.12 122.34 43.83 124.61 45.73 116.73 55.02"/>
          <polygon class="st7" points="113.8 52.55 111.53 50.65 119.41 41.36 121.67 43.26 113.8 52.55"/>
        </g>
        <g>
          <polygon class="st14" points="127.34 64.69 124.38 62.19 132.62 52.47 135.58 54.96 127.34 64.69"/>
          <polygon class="st14" points="123.5 61.45 120.54 58.96 128.77 49.24 131.73 51.73 123.5 61.45"/>
          <polygon class="st14" points="119.65 58.22 116.69 55.73 124.93 46 127.89 48.5 119.65 58.22"/>
          <polygon class="st14" points="115.81 54.98 112.85 52.49 121.09 42.77 124.05 45.26 115.81 54.98"/>
          <polygon class="st14" points="111.97 51.75 109.01 49.26 117.25 39.54 120.21 42.03 111.97 51.75"/>
        </g>
      </g>
      <g>
        <polygon class="st20" points="144.17 78.11 141.91 76.21 149.78 66.92 152.04 68.82 144.17 78.11"/>
        <polygon class="st20" points="141.23 75.64 138.97 73.74 146.84 64.45 149.11 66.35 141.23 75.64"/>
        <polygon class="st20" points="138.3 73.17 136.03 71.27 143.91 61.97 146.17 63.88 138.3 73.17"/>
        <polygon class="st20" points="135.36 70.7 133.1 68.79 140.97 59.5 143.23 61.41 135.36 70.7"/>
        <polygon class="st20" points="132.42 68.23 130.16 66.32 138.04 57.03 140.3 58.94 132.42 68.23"/>
      </g>
      <g>
        <polygon class="st14" points="145.96 80.36 143 77.87 151.24 68.15 154.2 70.64 145.96 80.36"/>
        <polygon class="st14" points="142.12 77.13 139.16 74.64 147.4 64.91 150.36 67.41 142.12 77.13"/>
        <polygon class="st14" points="138.28 73.89 135.32 71.4 143.56 61.68 146.52 64.17 138.28 73.89"/>
        <polygon class="st14" points="134.44 70.66 131.48 68.17 139.72 58.45 142.68 60.94 134.44 70.66"/>
        <polygon class="st14" points="130.59 67.43 127.63 64.94 135.87 55.21 138.83 57.7 130.59 67.43"/>
      </g>
    </g>
    <g>
      <path class="st13" d="M154.09,75.1l-40.98-34.49,2.75-3.25c3.5-4.13,9.71-4.66,13.86-1.16l25.95,21.84c4.15,3.49,4.67,9.67,1.17,13.81l-2.75,3.25Z"/>
      <path class="st13" d="M165.58,52.66c-.9,1.06-2.49,1.19-3.55.3l-21.56-18.15c-2.68-2.25-6.7-1.91-8.96.76l-5.02,5.92c-.9,1.06-2.49,1.19-3.55.3s-1.2-2.48-.3-3.54l5.02-5.92c3.61-4.26,9.71-5.21,14.39-2.52.59.33,1.15.72,1.68,1.17l21.56,18.15c1.06.9,1.19,2.49.3,3.54Z"/>
    </g>
    <path class="st10" d="M163.94,48.85c-.46.55-1.11.86-1.78.91-.67.06-1.35-.14-1.91-.6l-18.21-15.33c-1.07-.9-1.23-2.48-.38-3.58.59.33,1.15.72,1.68,1.17l20.64,17.37s-.02.04-.04.06Z"/>
  </g>
  <g>
    <path class="st2" d="M32.65,112.3c-.17-2.47-.36-4.99-1.32-7.27s-2.85-4.32-5.28-4.8c-2.92-.57-5.9,1.26-7.55,3.73-1.66,2.47-2.28,5.47-2.86,8.38"/>
    <path class="st11" d="M30.49,112.84l4.85-1.2-.91-3.64c-.27-1.07-1.35-1.72-2.43-1.46l-.96.24c-1.07.27-1.73,1.35-1.46,2.42l.91,3.64Z"/>
    <path class="st8" d="M30.38,121.16l8.96-2.22-1.94-7.79c-.31-1.23-1.56-1.98-2.8-1.68l-4.48,1.11c-1.24.31-1.99,1.55-1.68,2.79l1.94,7.79Z"/>
    <path class="st4" d="M33.77,115.68h0c6.26-1.55,12.6,2.25,14.15,8.49l7.81,31.36-22.68,5.61-7.81-31.36c-1.55-6.24,2.26-12.55,8.52-14.1Z"/>
    <polygon class="st18" points="28.7 143.65 51.36 138.04 48.91 128.2 26.25 133.81 28.7 143.65"/>
    <polygon class="st22" points="30.09 149.21 52.75 143.6 52.01 140.64 29.35 146.25 30.09 149.21"/>
    <path class="st5" d="M33.77,115.68h0c6.26-1.55,12.6,2.25,14.15,8.49l7.81,31.36-22.68,5.61-7.81-31.36c-1.55-6.24,2.26-12.55,8.52-14.1Z"/>
  </g>
</svg>