<?xml version="1.0" encoding="UTF-8"?>
<svg id="Layer_1" xmlns="http://www.w3.org/2000/svg" version="1.1" viewBox="0 0 210 180">
  <!-- Generator: Adobe Illustrator 30.1.0, SVG Export Plug-In . SVG Version: 2.1.1 Build 136)  -->
  <defs>
    <style>
      .st0, .st1, .st2, .st3, .st4, .st5, .st6, .st7, .st8, .st9, .st10, .st11, .st12 {
        stroke: #4c241e;
      }

      .st0, .st2, .st3, .st5, .st6, .st7, .st10, .st11 {
        stroke-width: 1.17px;
      }

      .st0, .st2, .st5, .st6, .st13, .st9, .st10, .st11, .st14 {
        stroke-linecap: round;
        stroke-linejoin: round;
      }

      .st0, .st9 {
        fill: #683b11;
      }

      .st1 {
        fill: #ffe799;
      }

      .st1, .st3, .st4, .st7, .st8, .st12 {
        stroke-miterlimit: 10;
      }

      .st1, .st4, .st14 {
        stroke-width: 1.19px;
      }

      .st2 {
        fill: #f6d9a1;
      }

      .st3, .st15 {
        fill: #dd9e59;
      }

      .st4 {
        fill: #ffd899;
      }

      .st5 {
        fill: #925f36;
      }

      .st6, .st13 {
        fill: #b17f49;
      }

      .st7, .st11 {
        fill: none;
      }

      .st16 {
        fill: #fff;
      }

      .st8 {
        stroke-width: .31px;
      }

      .st8, .st17, .st12 {
        fill: #4c241e;
      }

      .st18 {
        fill: #430000;
      }

      .st13 {
        stroke-width: 1.1px;
      }

      .st13, .st14 {
        stroke: #422918;
      }

      .st9 {
        stroke-width: 1.17px;
      }

      .st10 {
        fill: #c99d66;
      }

      .st19 {
        fill: #ffe6c2;
      }

      .st12 {
        stroke-width: .34px;
      }

      .st14 {
        fill: #d8a877;
      }
    </style>
  </defs>
  <g>
    <polygon class="st6" points="120.79 132.04 86.39 141.03 86.39 103.11 120.79 94.12 120.79 132.04"/>
    <polygon class="st10" points="87.36 77.34 52.97 86.34 86.39 103.11 120.79 94.12 87.36 77.34"/>
    <polygon class="st0" points="52.97 124.26 86.39 141.03 86.39 103.11 52.97 86.34 52.97 124.26"/>
    <line class="st11" x1="71.49" y1="81.67" x2="103.59" y2="98.79"/>
  </g>
  <g>
    <polygon class="st6" points="69.31 140.43 34.92 149.42 34.92 111.5 69.31 102.5 69.31 140.43"/>
    <polygon class="st10" points="35.89 85.73 1.5 94.72 34.92 111.5 69.31 102.5 35.89 85.73"/>
    <polygon class="st5" points="1.5 132.65 34.92 149.42 34.92 111.5 1.5 94.72 1.5 132.65"/>
    <line class="st11" x1="20.02" y1="90.05" x2="52.12" y2="107.17"/>
  </g>
  <g>
    <polygon class="st6" points="123.25 89.21 73.48 98.2 73.48 63.92 123.25 54.93 123.25 89.21"/>
    <polygon class="st6" points="89.83 38.16 40.06 47.15 73.48 63.92 123.25 54.93 89.83 38.16"/>
    <polygon class="st2" points="102.39 44.48 52.62 53.47 59.21 56.75 108.97 47.76 102.39 44.48"/>
    <polygon class="st6" points="40.06 81.43 73.48 98.2 73.48 63.92 40.06 47.15 40.06 81.43"/>
    <polygon class="st2" points="59.15 68.51 59.15 56.73 52.65 53.47 52.65 65.41 59.15 68.51"/>
  </g>
  <g>
    <polygon class="st6" points="186.37 171.1 155.75 179.1 155.76 145.34 186.38 137.34 186.37 171.1"/>
    <polygon class="st17" points="145.13 116.2 114.51 124.21 155.18 145.34 186.38 137.33 145.13 116.2"/>
    <polygon class="st9" points="145.13 116.2 145.13 140.12 155.18 145.34 186.38 137.33 145.13 116.2"/>
    <polygon class="st10" points="145.13 116.2 114.51 124.21 105.96 112.27 137.15 104.27 145.13 116.2"/>
    <polygon class="st10" points="145.13 116.2 152.35 103.08 193.02 124.21 186.38 137.33 145.13 116.2"/>
  </g>
  <path class="st17" d="M171.75,90.09c13.18-10.74,28.63-12.77,34.49-4.54,5.87,8.23-.07,23.6-13.25,34.34-2.81,2.29-5.72,4.18-8.62,5.66-4.23,9.07-10.92,16.25-17.61,18-9.65,2.53-15.64-7.19-13.39-21.69.92-5.93,3.09-11.75,5.98-16.73,2.64-5.25,6.88-10.55,12.4-15.04Z"/>
  <path class="st1" d="M125.21,112.74c1.24.48,2.62.38,3.73-.34.3-.19.6-.38.92-.56,5.66-3.28,11.83-3.26,13.79.03,1.95,3.29-1.05,8.62-6.71,11.9-4.07,2.36-8.41,3.01-11.25,1.96-.16-.06-.31-.11-.47-.15-1.26-.31-2.57-.82-3.84-1.55-4.61-2.65-7.02-7.1-5.38-9.94,1.39-2.42,5.27-2.89,9.23-1.34Z"/>
  <path class="st3" d="M129.67,126.48c1.76-1.46,4.04-2.5,6.58-2.86,6.07-.85,11.34,2.53,11.76,7.57.42,5.03-4.16,9.8-10.23,10.66-1.29.18-2.55.17-3.73,0-2.6,2.31-5.55,3.48-7.88,2.95-1.09-.15-2.31-.52-3.5-1.12-3.01-1.52-4.7-3.89-3.79-5.31.57-.89,2.04-1.19,3.8-.91.29-1.79,1.01-3.73,2.16-5.64,1.33-2.22,3.04-4.04,4.83-5.32Z"/>
  <polygon class="st5" points="114.51 154.94 155.18 179.1 155.18 145.34 114.51 124.21 114.51 154.94"/>
  <polygon class="st14" points="195.47 147.87 164.85 155.88 155.9 145.56 186.52 137.55 195.47 147.87"/>
  <g>
    <polygon class="st6" points="94.75 57.08 59.97 64.48 61.73 26.6 96.5 19.2 94.75 57.08"/>
    <polygon class="st10" points="63.9 .9 29.12 8.3 61.73 26.6 96.5 19.2 63.9 .9"/>
    <polygon class="st5" points="27.36 46.19 59.97 64.48 61.73 26.6 29.12 8.3 27.36 46.19"/>
    <line class="st11" x1="47.84" y1="4.49" x2="79.11" y2="23.07"/>
  </g>
  <polygon class="st13" points="102.35 122.31 143.02 146.46 155.18 145.34 114.51 124.21 102.35 122.31"/>
  <g>
    <path class="st3" d="M147.82,96.22c12.13-1.4,24.33,8.01,27.25,21.01,2.92,13-4.55,24.68-16.69,26.08-3.95.46-7.9-.24-11.54-1.82-3.49,1.24-6.86,1.24-8.99-.18-1.07-.58-2.19-1.45-3.18-2.55-2.51-2.76-3.33-5.9-1.82-7.01.54-.4,1.32-.48,2.2-.29-1.8-2.73-3.16-5.82-3.91-9.15-2.92-13,4.55-24.68,16.69-26.08Z"/>
    <path class="st7" d="M165.59,130.46s-10.32-17.26-28.44,2.09c0,0-7.39-4.28-4.39,3.69"/>
  </g>
  <path class="st1" d="M146.6,117.67c1.2-.38,2.15-1.31,2.59-2.48l.56-1.51c2.52-6.79,7.81-11.14,11.8-9.7,4,1.44,5.19,8.11,2.67,14.91-1.86,5.02-5.24,8.7-8.48,9.7-1.35.69-2.92,1.21-4.63,1.5-5.81.98-11.01-1.12-11.63-4.71-.53-3.09,2.54-6.27,7.12-7.72Z"/>
  <g>
    <path class="st4" d="M124.15,86.82c.91-2.28,2.24-4.4,3.91-6.26.68-.77.74-1.9.15-2.74l-1.39-1.93c-.11-.15-.18-.32-.22-.5-.31-1.61-.06-3.36.89-4.7.44-.63,1.05-1.21,1.78-1.51.4-.16.85-.24,1.27-.16.36.07.69.22.98.45.57.45.94,1.09,1.26,1.73.41.84.75,1.7,1.03,2.59.14.43.26.87.37,1.31.04.18.08.37.12.55,2.24-1.22,4.73-2.11,7.41-2.58,4.51-.8,8.92-.31,12.8,1.18-.05-.42-.08-.85-.1-1.27-.04-.93-.02-1.86.07-2.78.07-.71.21-1.44.58-2.06.19-.31.45-.57.76-.76.37-.22.82-.3,1.25-.28.78.03,1.55.37,2.19.81.6.42,1.1.96,1.5,1.57.78,1.22,1.02,2.72.64,4.12-.34,1.25-1.17,2.37-2.26,3.07,2.62,1.79,4.8,4.11,6.35,6.85.63,1.12,1.46,2.13,2.51,2.88,2.45,1.73,4.09,3.99,4.56,6.63.96,5.41-3.22,10.98-10.13,14.54-.9.47-1.76,1.02-2.56,1.66-3.01,2.4-6.71,4.13-10.86,4.87-6.2,1.09-12.21-.24-16.92-3.26-2.14-1.37-4.4-2.55-6.64-3.74-3.44-1.82-5.78-4.49-6.35-7.73-.55-3.11.6-6.27,2.98-9.07l2.1-3.46Z"/>
    <path class="st12" d="M146.78,90.44c.15-.47.06-1.02-.21-1.5-.22-.4-.54-.76-.94-1.05-.1-.1-.21-.2-.33-.28-.1-.06-.2-.13-.31-.18-.02,0-.03-.01-.05-.02-.1-.05-.21-.1-.31-.13-.05-.02-.11-.04-.17-.05-.08-.02-.17-.03-.25-.04-.02,0-.03,0-.05,0-.05,0-.1-.02-.15-.03-.14-.01-.28,0-.42,0-.1.01-.2.04-.29.08,0,0,0,0-.01,0-.01,0-.02.01-.03.02-.02.01-.05.02-.07.03,0,0,0,0-.01,0-.23.11-.41.28-.5.49-.13.3-.13.62-.13.95,0,.46.04.92.21,1.39.18.5.57.97,1.12,1.24.54.27,1.21.35,1.73.2.3-.08.56-.23.76-.42.21-.2.34-.44.43-.71Z"/>
    <polygon class="st19" points="138.22 102.34 140.78 101.49 139.78 98.47 137.21 99.32 138.22 102.34"/>
    <path class="st8" d="M129.15,88.76c0-.06.02-.11.04-.16.27-.67.78-1.2,1.43-1.48.1-.07.21-.13.33-.16.1-.03.19-.06.29-.08.01,0,.03,0,.04,0,.09-.02.19-.03.28-.03.05,0,.1,0,.14,0,.07,0,.14.02.21.04.01,0,.03.01.04.02.04,0,.09.01.13.02.12.03.23.08.33.14.08.05.15.11.22.17,0,0,0,0,0,0,0,0,.02.02.02.03.02.02.04.03.05.05,0,0,0,0,0,.01.16.18.26.41.29.65.04.33-.03.65-.11.97-.11.45-.24.89-.47,1.3-.26.43-.67.77-1.17.86-.49.09-1.04-.05-1.43-.37-.22-.18-.39-.4-.51-.66-.19-.41-.21-.86-.16-1.33Z"/>
    <ellipse id="_왼반사광" data-name="왼반사광" class="st16" cx="131.92" cy="88.15" rx=".77" ry=".73" transform="translate(-12.59 22.65) rotate(-9.37)"/>
    <ellipse class="st18" cx="157.21" cy="73.26" rx="2.74" ry="1.78" transform="translate(54.91 213.33) rotate(-78.84)"/>
    <ellipse class="st18" cx="130.31" cy="74.96" rx="1.78" ry="2.74" transform="translate(-19.33 60.61) rotate(-24.43)"/>
    <ellipse class="st19" cx="153.14" cy="98.1" rx="9.94" ry="9.45" transform="translate(-13.93 26.25) rotate(-9.37)"/>
    <ellipse class="st19" cx="126.57" cy="97.28" rx="6.74" ry="6.6" transform="translate(-12.89 19.6) rotate(-8.43)"/>
    <path id="_주둥이" data-name="주둥이" class="st15" d="M128.38,100.69c1.21,4.48,6.34,7.38,11.47,6.47,5.13-.91,8.3-5.27,7.09-9.75-1.21-4.48-6.34-7.38-11.47-6.47-5.13.91-8.3,5.27-7.09,9.75Z"/>
    <path class="st17" d="M131.06,100.32s.05-.12.1-.15c.05-.03.11-.05.18-.06.15-.01.27.06.31.17.02.04.03.08.05.12.02.03.03.06.05.1,0-.02-.02-.04-.03-.06.06.12.14.24.24.34.1.11.22.2.36.29.14.08.28.15.44.21.19.06.38.1.59.12.05,0,.1,0,.14,0,.19,0,.38-.04.56-.08.16-.05.31-.11.45-.18.14-.08.27-.17.38-.27.11-.1.2-.21.28-.33.06-.1.11-.21.14-.32,0-.03.01-.06.02-.1,0-.02.01-.03.02-.05-.09-.11-.18-.22-.25-.33-.22-.34-.36-.7-.45-1.07-.07-.3-.1-.61-.1-.92,0-.07,0-.18.01-.24,0-.09.02-.18.03-.27-1.72,0-3.22-.77-3.56-1.95-.4-1.4.97-2.83,3.07-3.2s4.12.46,4.53,1.86-.97,2.83-3.07,3.2c-.13.02-.25.04-.38.05,0,0,0,.01,0,.02,0,.18,0,.36,0,.54,0,.09,0,.18.01.27,0,.02,0,.05,0,.07,0,0,0,0,0,0,0,0,0,0,0,0,0,.05.01.09.02.14.03.18.06.36.12.54.03.08.06.17.09.25.02.04.04.09.05.13,0,0,.03.06.01.03-.02-.03,0,0,0,.01,0,.01.01.02.02.04.07.14.16.27.25.4.05.06.1.13.15.19.01.01.02.03.03.04,0,0,.01.01.02.02.02.02.05.05.07.07.12.11.25.22.39.32.03.02.07.05.1.07.02.01.03.02.05.03-.07-.05,0,0,.01,0,.08.04.15.09.23.13.08.04.16.08.25.11.02,0,.04.01.06.02,0,0,.01,0,.02,0,.04.01.08.03.12.04.09.03.18.05.27.07.04,0,.08.02.13.02.02,0,.04,0,.06,0,0,0,0,0,0,0,.18.02.37.03.56.02.02,0,.04,0,.05,0,0,0,0,0,0,0,.05,0,.09,0,.14-.02.09-.01.18-.03.27-.05.04,0,.08-.02.12-.03,0,0,.04-.01.05-.01,0,0,.01,0,.02,0,.09-.03.17-.06.25-.09.04-.02.07-.03.11-.05.02,0,.04-.02.06-.03,0,0,.02-.01.03-.02.06-.04.12-.07.18-.11.03-.02.06-.05.09-.07.02-.01.03-.03.05-.04,0,0,.01-.01.02-.02,0,0,0,0,0,0,.05-.05.1-.1.14-.16.02-.03.04-.05.06-.08,0-.02.02-.03.03-.05.03-.06.06-.12.08-.18,0-.01,0-.03.01-.04,0,0,0-.01,0-.02,0,0,0-.02,0-.02,0-.02,0-.03,0-.05.01-.06.02-.13.02-.19,0-.03,0-.06,0-.09,0,0,0,0,0,0,0-.01,0-.03,0-.04-.01-.06-.03-.12-.05-.18,0-.03-.02-.06-.03-.08,0,0,0,0,0-.01,0-.01-.01-.02-.02-.03-.03-.05-.07-.11-.11-.16-.02-.02-.04-.05-.06-.07,0,0,0,0,0,0-.01-.01-.03-.03-.04-.04-.05-.05-.1-.09-.16-.13,0,0,0,0,0,0-.01,0-.03-.01-.04-.02-.03-.02-.07-.04-.1-.05-.14-.06-.19-.22-.09-.32.1-.11.28-.14.43-.08.69.3,1.01.92.94,1.51-.04.29-.17.59-.4.83-.26.26-.6.47-.99.61-.4.14-.84.2-1.27.2-.44,0-.86-.09-1.26-.23-.37-.13-.69-.31-.98-.53-.08.19-.2.38-.36.54-.28.28-.64.52-1.07.66-.21.07-.44.12-.67.14-.26.02-.51.01-.77-.02-.46-.07-.88-.25-1.21-.48-.19-.13-.35-.29-.47-.46-.13-.18-.21-.39-.23-.6Z"/>
    <ellipse id="_오른반사광" data-name="오른반사광" class="st16" cx="143.59" cy="88.35" rx=".91" ry=".82"/>
  </g>
</svg>