<?xml version="1.0" encoding="UTF-8"?>
<svg id="Layer_1" xmlns="http://www.w3.org/2000/svg" version="1.1" viewBox="0 0 245.96 173.52">
  <!-- Generator: Adobe Illustrator 29.6.1, SVG Export Plug-In . SVG Version: 2.1.1 Build 9)  -->
  <defs>
    <style>
      .st0 {
        fill: #0a1b2c;
      }

      .st0, .st1, .st2, .st3, .st4, .st5, .st6, .st7, .st8, .st9, .st10, .st11 {
        stroke-miterlimit: 10;
      }

      .st0, .st1, .st3, .st4, .st12, .st13, .st11 {
        stroke-width: 1.17px;
      }

      .st0, .st1, .st3, .st4, .st5, .st6, .st7, .st8, .st13, .st9, .st10, .st11 {
        stroke: #4c241e;
      }

      .st1 {
        fill: #d87012;
      }

      .st2 {
        stroke: #331104;
      }

      .st2, .st14, .st15 {
        stroke-width: 1.42px;
      }

      .st2, .st6 {
        fill: #ffd899;
      }

      .st3 {
        fill: #f26c5a;
      }

      .st4, .st16, .st5 {
        fill: #fff;
      }

      .st12, .st14 {
        stroke: #ffb03e;
      }

      .st12, .st14, .st7, .st13, .st15 {
        fill: none;
      }

      .st12, .st14, .st13, .st15 {
        stroke-linecap: round;
        stroke-linejoin: round;
      }

      .st17 {
        fill: #ff6643;
      }

      .st5, .st10 {
        stroke-width: 1.2px;
      }

      .st18 {
        fill: #430000;
      }

      .st6, .st7, .st8, .st9 {
        stroke-width: 1.3px;
      }

      .st8, .st19 {
        fill: #dd9e59;
      }

      .st9 {
        fill: #ffe799;
      }

      .st20 {
        fill: #0c203b;
      }

      .st10 {
        fill: #a13300;
      }

      .st21 {
        fill: #4c241e;
      }

      .st22 {
        fill: #ffe6c2;
      }

      .st11 {
        fill: #e2ef95;
      }

      .st15 {
        stroke: #ffd899;
      }
    </style>
  </defs>
  <polygon class="st2" points="140.88 114.19 140.85 48.37 93.85 11.14 46.87 48.4 46.9 114.19 140.88 114.19"/>
  <polygon class="st17" points="48.29 49.85 94.56 19.61 141.32 49.08 94.8 11.75 48.29 49.85"/>
  <g>
    <path class="st16" d="M71.79,45.25h9.84c6.59,0,11.94,5.35,11.94,11.94v26.56c0,.96-.79,1.75-1.75,1.75h-30.2c-.96,0-1.75-.79-1.75-1.75v-26.56c0-6.59,5.35-11.94,11.94-11.94h-.01Z"/>
    <path class="st20" d="M72.7,47.59h8.02c5.36,0,9.72,4.35,9.72,9.72v24.38c0,.81-.67,1.48-1.48,1.48h-24.49c-.81,0-1.48-.67-1.48-1.48v-24.38c0-5.36,4.35-9.72,9.72-9.72h-.01Z"/>
    <path class="st16" d="M75.25,47.59c0,12.15-.13,24.31-.41,36.47-.05,2.26,3.46,2.26,3.51,0,.27-12.15.41-24.31.41-36.47,0-2.26-3.51-2.26-3.51,0h0Z"/>
    <path class="st16" d="M91.54,57.52c-10.01.39-20.05.27-30.08.45-1.14.02-1.14,1.8,0,1.77,10.03-.18,20.07-.06,30.08-.45,1.14-.05,1.14-1.82,0-1.77h0Z"/>
    <path class="st16" d="M91.54,69.5c-10.01.39-20.05.27-30.08.45-1.14.02-1.14,1.8,0,1.77,10.03-.18,20.07-.06,30.08-.45,1.14-.05,1.14-1.82,0-1.77h0Z"/>
  </g>
  <path class="st5" d="M132.11,113.83h-25.81v-30.58c-.01-4.72,5.76-8.53,12.9-8.54h0c7.13,0,12.91,3.82,12.92,8.53v30.59Z"/>
  <line class="st15" x1="101.78" y1="72.49" x2="105.98" y2="72.49"/>
  <g>
    <rect class="st1" x="153.85" y="125" width="58.24" height="26.87"/>
    <g>
      <path class="st21" d="M164.49,75.83c-6.9-8.85-16.01-12.34-20.35-7.77-4.35,4.55-2.28,15.41,4.62,24.26,1.47,1.88,3.05,3.52,4.64,4.89,1.66,6.51,4.99,12.12,8.85,14.21,5.57,3,10.14-2.5,10.21-12.29.02-4-.71-8.11-1.96-11.75-1.07-3.8-3.11-7.85-6-11.55Z"/>
      <path class="st9" d="M196.09,98.85c-.31-.73-.7-1.46-1.16-2.18-2.7-4.19-6.89-6.31-9.36-4.75-2.47,1.56-2.27,6.21.43,10.39,1.99,3.09,4.81,5.06,7.13,5.25,1.01.27,2.14.39,3.32.32,4.04-.2,7.22-2.38,7.1-4.87-.12-2.48-3.45-4.33-7.45-4.15h-.01Z"/>
      <path class="st9" d="M194.24,105.49c-1.34-1.11-3.08-1.9-5-2.18-4.62-.65-8.63,1.93-8.96,5.76-.32,3.83,3.17,7.46,7.78,8.12.99.14,1.94.13,2.85,0,1.97,1.76,4.22,2.65,5.99,2.25.83-.11,1.76-.4,2.67-.85,2.29-1.15,3.58-2.97,2.89-4.04-.43-.68-1.55-.91-2.89-.7-.22-1.36-.78-2.83-1.65-4.3-1.02-1.68-2.31-3.08-3.68-4.05Z"/>
      <g>
        <path class="st8" d="M182.22,89.25c-9.23-1.06-18.52,6.09-20.74,15.99-2.23,9.9,3.47,18.78,12.7,19.84,3,.34,6.01-.18,8.78-1.38,2.66.94,5.22.94,6.84-.14.82-.44,1.66-1.11,2.42-1.94,1.92-2.1,2.54-4.5,1.38-5.34-.41-.3-1-.37-1.67-.22,1.37-2.08,2.4-4.43,2.98-6.96,2.23-9.9-3.47-18.78-12.7-19.84Z"/>
        <path class="st7" d="M168.69,115.3s7.85-13.13,21.65,1.59c0,0,5.62-3.26,3.34,2.81"/>
      </g>
      <path class="st9" d="M181.49,105.16c-.17-.86-.41-1.75-.74-2.64-1.92-5.17-5.95-8.47-8.98-7.37-3.05,1.1-3.95,6.18-2.04,11.35,1.42,3.82,3.99,6.62,6.46,7.39,1.03.52,2.23.92,3.52,1.14,4.42.75,8.38-.85,8.85-3.58.47-2.71-2.7-5.5-7.08-6.28h.01Z"/>
      <g>
        <path class="st6" d="M200.8,78.57c-.62-2.17-1.73-4.2-3.22-5.95-.72-.85-.73-2.1,0-2.95.07-.08.14-.17.2-.26.64-.9.86-2.03.63-3.11-.12-.54-.33-1.06-.65-1.52-.34-.48-.8-.92-1.35-1.15-.3-.12-.64-.19-.97-.12-.28.06-.52.17-.74.34-.63.5-.95,1.3-1.24,1.96-.2.45-.37.91-.51,1.38-.09.32-.19.63-.26.95-.03.14-.07.28-.09.42-1.71-.93-3.6-1.61-5.64-1.96-3.43-.61-6.79-.23-9.74.9.03-.32.07-.64.08-.96.03-.71.01-1.42-.06-2.11-.06-.54-.16-1.1-.44-1.56-.14-.23-.34-.43-.58-.58-.29-.17-.62-.23-.95-.22-.6.02-1.18.28-1.66.62-.45.32-.84.73-1.14,1.2-.6.93-.78,2.07-.49,3.13.13.48.36.93.65,1.33.48.65.29,1.56-.32,2.08-1.78,1.52-3.22,3.42-4.15,5.59-2.52,1.38-4.24,3.38-4.66,5.79-.79,4.4,2.89,8.92,8.79,11.59,2.42,2.21,9.08,4.09,12.66,4.72,7.79.14,9.3-2.13,11.95-4.14,1.05-.8,2.11-1.58,3.2-2.33,2.3-1.6,2.84-2.27,3.62-3.82.3-.59.5-1.24.57-1.91.25-2.5-.84-4.5-3.19-6.71l-.28-.64Z"/>
        <path class="st21" d="M182.87,79.46c-.14-.37-.1-.82.11-1.22.16-.33.41-.64.72-.89.08-.09.16-.16.26-.24.08-.05.16-.12.25-.16.01,0,.02,0,.04-.01.08-.05.16-.09.26-.12.05-.01.1-.03.13-.04.07-.02.14-.03.2-.05h.05s.08-.02.13-.03l.35-.02c.08,0,.17.03.24.04h0s.02,0,.02.01c.02,0,.04,0,.06.02h0c.2.07.35.2.43.38.12.23.14.49.15.76.02.38,0,.74-.1,1.13-.12.41-.42.82-.87,1.05-.43.25-.99.34-1.43.25-.25-.06-.47-.16-.65-.3-.18-.15-.3-.34-.38-.56h.01Z"/>
        <path class="st22" d="M188.93,87.36l-1.26-.42c-.19-.07-.29-.27-.23-.45l.38-1.13c.16-.45.65-.71,1.11-.55l.29.1c.47.16.71.64.55,1.11l-.38,1.13c-.07.19-.27.29-.45.23h0Z"/>
        <path class="st21" d="M196.99,78.92c.07-.41-.02-.85-.24-1.21-.17-.29-.42-.53-.71-.71-.07-.07-.16-.13-.25-.17-.08-.04-.15-.07-.23-.09h-.04c-.07-.03-.15-.05-.22-.06l-.12-.02c-.06,0-.12,0-.18,0-.01,0-.02,0-.04,0-.04,0-.07-.01-.11,0-.1,0-.19.04-.29.08-.06.03-.13.07-.2.12h0s-.01.01-.03.02c-.01.01-.03.02-.05.04h0c-.15.12-.26.3-.31.49-.08.27-.06.54-.02.81.03.38.08.75.24,1.11.16.39.45.71.86.84.39.13.86.09,1.21-.12.2-.12.37-.28.49-.47.13-.2.21-.42.25-.65h0Z"/>
        <ellipse id="_왼반사광" class="st16" cx="194.86" cy="77.91" rx=".55" ry=".59" transform="translate(86.26 257.48) rotate(-80.63)"/>
        <ellipse class="st18" cx="174.82" cy="66.11" rx="1.35" ry="2.09" transform="translate(-9.49 35.09) rotate(-11.16)"/>
        <ellipse class="st18" cx="195.42" cy="67.39" rx="2.09" ry="1.35" transform="translate(53.24 217.44) rotate(-65.57)"/>
        <ellipse class="st22" cx="178.04" cy="85.31" rx="7.2" ry="7.56" transform="translate(64.89 247.09) rotate(-80.63)"/>
        <ellipse class="st22" cx="197.86" cy="85.31" rx="5.03" ry="5.14" transform="translate(84.47 268.52) rotate(-81.57)"/>
        <path id="_주둥이" class="st19" d="M198.18,88.71c-.92,3.41-4.83,5.61-8.73,4.93s-6.31-4.01-5.39-7.42c.92-3.41,4.83-5.61,8.73-4.93s6.31,4.01,5.39,7.42Z"/>
        <path class="st21" d="M194.72,87.87s-.03-.09-.08-.12c-.04-.02-.09-.04-.13-.04-.11,0-.21.04-.23.13-.01.03-.02.06-.03.09-.01.02-.02.04-.03.08,0-.01.01-.03.02-.04-.04.09-.11.18-.19.27-.08.08-.17.16-.27.22-.1.07-.22.11-.33.16-.11.03-.22.06-.33.08-.11.01-.22.01-.32,0-.11,0-.22-.03-.32-.06-.12-.03-.23-.09-.34-.14-.11-.06-.2-.13-.29-.2-.08-.08-.16-.17-.21-.25-.04-.08-.08-.17-.11-.24,0-.02,0-.04-.01-.08,0-.01,0-.02-.01-.03.07-.08.13-.17.19-.25.17-.25.28-.53.34-.81.03-.16.06-.31.07-.47,0-.14.02-.29,0-.43,0-.07-.01-.13-.02-.19,1.31,0,2.45-.59,2.7-1.48.31-1.06-.74-2.16-2.34-2.44s-3.14.35-3.44,1.42.74,2.16,2.34,2.44c.1.02.19.03.29.04h0v.69h0s0,.07-.01.1c-.02.13-.04.28-.09.41-.02.07-.04.13-.07.19-.01.03-.02.07-.04.1,0,0-.02.04-.01.02.01-.02,0,0,0,0,0,0,0,.02-.01.02-.06.11-.12.21-.19.31-.03.04-.08.1-.11.14,0,0-.02.02-.02.03h-.01s-.03.04-.06.07c-.09.09-.19.17-.3.24-.02.02-.06.03-.08.06-.01,0-.02.01-.03.02.06-.03,0,0-.01,0-.06.03-.12.07-.18.1-.07.03-.12.06-.19.08-.01,0-.03,0-.04.01h-.01s-.07.02-.09.03c-.07.02-.13.03-.21.06-.03,0-.07.01-.1.02h-.04c-.14.01-.29.02-.42.01h-.04s-.07,0-.11-.01c-.07,0-.14-.02-.21-.03-.03,0-.07-.01-.1-.02h-.04c-.07-.02-.13-.04-.19-.07-.03-.01-.06-.02-.09-.03-.01,0-.03-.01-.04-.02,0,0-.02,0-.02-.01-.04-.03-.1-.06-.14-.09-.02-.02-.04-.03-.07-.06-.01,0-.02-.02-.03-.03h-.01s-.08-.09-.11-.13c-.01-.02-.03-.04-.04-.06,0-.01-.01-.02-.02-.03-.02-.04-.04-.09-.06-.13v-.06h0v-.04s-.01-.1-.01-.14v-.07h0v-.03s.02-.1.03-.14c0-.02.01-.04.02-.07h0s0-.01.01-.02c.02-.04.04-.08.08-.12.01-.02.03-.03.04-.06h0s.02-.02.03-.03c.03-.03.08-.07.12-.1h0s.02-.01.03-.02c.02-.01.06-.02.08-.04.1-.04.14-.17.07-.24s-.21-.11-.32-.06c-.52.22-.78.7-.71,1.15.03.22.13.44.31.63.2.2.45.35.75.47.31.1.63.16.97.16s.65-.07.95-.18c.28-.1.53-.24.74-.41.07.14.16.29.28.41.21.21.49.4.82.5.17.06.33.09.51.11.2.02.39.01.59-.02.34-.06.66-.19.92-.37.14-.1.27-.22.35-.35.1-.14.17-.3.18-.45h-.09Z"/>
        <ellipse id="_오른반사광" class="st16" cx="185.18" cy="77.91" rx=".69" ry=".62"/>
      </g>
    </g>
    <g>
      <path class="st0" d="M209.73,110.64c.26,1.48-.73,2.89-2.22,3.15h0c-1.49.26-2.9-.73-3.17-2.21l-2.15-12.16c-.26-1.48.73-2.89,2.22-3.15h0c1.49-.26,2.9.73,3.17,2.21,0,0,2.15,12.16,2.15,12.16Z"/>
      <path class="st3" d="M233.98,119.73c0-2.4-.75-5.64-5.36-5.64h-7.28l-11.73-53.88c-.91-4.97-3.73-8.31-8.34-8.31h-51.79c-4.61,0-8.34,3.72-8.34,8.31v53.88h-.09v37.78h24.66c.22-2.95,1.05-5.74,2.36-8.23,3.57-6.77,10.69-11.39,18.9-11.39s15.33,4.62,18.9,11.39c1.31,2.49,2.14,5.27,2.36,8.23h25.79c4.61,0,5.36-.65,5.36-3.05l-5.39-29.09h-.01ZM148.39,63.09c0-3.17,2.58-5.75,5.77-5.75h43.79c3.18,0,4.88,2.69,5.77,5.75l8.38,38.49c0,3.17-2.58,5.75-5.77,5.75h-52.17c-3.19,0-5.77-2.57-5.77-5.75,0,0,0-38.49,0-38.49Z"/>
      <path class="st0" d="M226.36,100.54c.25,1.18-.51,2.34-1.69,2.59h0c-1.18.25-2.35-.5-2.59-1.68l-2.06-9.68c-.25-1.18.51-2.34,1.69-2.59h0c1.18-.25,2.35.5,2.6,1.68l2.05,9.68h0Z"/>
      <path class="st13" d="M222,96.49l-4.01,1.45s-2.91.36-2.91,2.91,1.82,7.99,1.82,7.99"/>
      <path class="st0" d="M219.45,109.2c0,1.2-.98,2.18-2.19,2.18s-2.19-.98-2.19-2.18.98-2.18,2.19-2.18,2.19.98,2.19,2.18Z"/>
      <path class="st4" d="M231.15,129.43c.36,3.57-.65,6.59-2.26,6.75-1.6.16-3.19-2.61-3.55-6.18s.65-6.59,2.25-6.75c1.6-.16,3.19,2.61,3.55,6.18h0Z"/>
      <ellipse class="st0" cx="187.38" cy="153.51" rx="19.13" ry="19.07"/>
      <ellipse class="st4" cx="187.38" cy="153.51" rx="9.66" ry="9.62"/>
      <path class="st1" d="M170.62,127.36c0,1.2-.98,2.18-2.19,2.18h-10.57c-1.21,0-2.19-.98-2.19-2.18h0c0-1.2.98-2.18,2.19-2.18h10.57c1.21,0,2.19.98,2.19,2.18h0Z"/>
      <ellipse class="st0" cx="65.29" cy="153.51" rx="19.13" ry="19.07"/>
      <ellipse class="st4" cx="65.29" cy="153.51" rx="9.66" ry="9.62"/>
      <path class="st0" d="M243.13,141.98c0-.74-.23-1.74-1.65-1.74h-20.38c-.77,0-1.36.7-1.21,1.46l1.72,9.17c.11.58.62,1,1.21,1h20.32c1.42,0,1.65-.2,1.65-.94l-1.66-8.96h0Z"/>
    </g>
    <path class="st3" d="M65.14,134.54c9.98,0,18.17,7.62,19.05,17.34h56.71v-37.68H20.18c-4.23,0-7.65,8.43-7.65,18.84s3.43,18.84,7.65,18.84h25.91c.88-9.72,9.07-17.34,19.05-17.34Z"/>
    <path class="st0" d="M9.29,141.98c0-.74.23-1.74,1.65-1.74h21.87l-2.19,11.64H9.28c-1.42,0-1.65-.2-1.65-.94l1.66-8.96Z"/>
    <path class="st11" d="M233.11,129.23c.6,5.98-1.09,11.04-3.78,11.31-2.68.27-5.34-4.37-5.94-10.34-.6-5.98,1.09-11.04,3.78-11.31,2.68-.27,5.34,4.37,5.94,10.34Z"/>
  </g>
  <line class="st14" x1="127.85" y1="67.4" x2="133.48" y2="67.4"/>
  <line class="st14" x1="95.32" y1="81.47" x2="99.51" y2="81.47"/>
  <line class="st14" x1="95.32" y1="81.47" x2="99.51" y2="81.47"/>
  <line class="st12" x1="69.09" y1="99.22" x2="72.54" y2="99.22"/>
  <line class="st14" x1="120.37" y1="58.93" x2="124.67" y2="58.93"/>
  <line class="st12" x1="88.14" y1="105.27" x2="91.59" y2="105.27"/>
  <polygon class="st10" points="93.84 3.65 30.62 53.13 37.03 57.94 93.84 13.38 150.69 57.89 157.1 53.07 93.84 3.65"/>
</svg>