<?xml version="1.0" encoding="UTF-8"?>
<svg id="Layer_1" xmlns="http://www.w3.org/2000/svg" version="1.1" viewBox="0 0 174 158">
  <!-- Generator: Adobe Illustrator 30.1.0, SVG Export Plug-In . SVG Version: 2.1.1 Build 136)  -->
  <defs>
    <style>
      .st0 {
        fill: #fde597;
      }

      .st0, .st1, .st2, .st3 {
        stroke: #4b241e;
      }

      .st0, .st1, .st3, .st4, .st5 {
        stroke-miterlimit: 10;
      }

      .st0, .st2 {
        stroke-width: .85px;
      }

      .st6 {
        fill: #51211c;
      }

      .st7 {
        fill: #fde4c0;
      }

      .st8, .st9, .st4 {
        fill: #fff;
      }

      .st10, .st1 {
        fill: #db9c59;
      }

      .st1 {
        stroke-width: .82px;
      }

      .st2 {
        fill: #fdd697;
      }

      .st2, .st9 {
        stroke-linecap: round;
        stroke-linejoin: round;
      }

      .st11, .st3 {
        fill: #4b241e;
      }

      .st3 {
        stroke-width: .28px;
      }

      .st9, .st4 {
        stroke: #51211c;
        stroke-width: .99px;
      }

      .st12 {
        fill: #400;
      }

      .st5 {
        fill: #d1c3fd;
        stroke: #4c241e;
        stroke-width: 1.17px;
      }
    </style>
  </defs>
  <path class="st5" d="M135.78,96.77c-3.5,33.2-32.92,60.12-65.71,60.12s-56.53-26.92-53.03-60.12c3.5-33.2,32.92-60.12,65.71-60.12s56.53,26.92,53.03,60.12Z"/>
  <g>
    <path class="st4" d="M53.38,24.18c-5.99-4.48-13.98-13.44-16.48-5.97-2.5,7.46-3.07,19.17.72,18.41,3.33-.66,2.11-3.04,6.66-3.54,3.88-.42,7.1,2.54,10.6.06s1.8-6.49-1.5-8.96Z"/>
    <path class="st4" d="M84.34,29.65c6.4-12.05-4.33-29.19-17.64-28.53-18.67.93-24.63,26.87-21.64,40.8,3,13.93,16.78,26.22,27.13,27.46,6.81.81-3.72-6.6-1.33-16.85,2.44-10.46,8.99-14.43,13.48-22.89Z"/>
    <ellipse class="st6" cx="67.44" cy="7.14" rx="1.77" ry="2.55" transform="translate(23.5 58.8) rotate(-55.66)"/>
    <ellipse class="st6" cx="58.91" cy="6.34" rx="2.17" ry="1.37" transform="translate(6.71 34.38) rotate(-34.39)"/>
    <path class="st4" d="M60.78,10.96c2.01.29,4.35-1.48,4.8.34s-3.55,7.98-6.86,7.07,0-8.32.46-8.78,0,1.14,1.6,1.37Z"/>
    <path class="st9" d="M73.48,23.61c-5.01-4.18-10.18-8.15-12.1-2.41-2.5,7.46-3.72,17.53,1.33,15.87,4-1.31,5.66,1.05,8.16-1.94,2.5-2.99,4.99,3.48,8.49,1"/>
  </g>
  <g>
    <path class="st4" d="M156.28,28.5c5.71-5.22,11.49-15.43,14.48-8.96,3,6.47,3.5,16.42.5,17.42s-4.57-2.93-5.01.39c-.59,4.38-2.48,9.57-4.97,7.08s-2,4.48-6.99,4.48-3.99-14.93,2-20.4Z"/>
    <path class="st4" d="M139.23,21.86c-5.37.27-9.38,3.63-12.12,8.33-.43-.65-.91-1.22-1.42-1.69-5.71-5.22-11.49-15.43-14.48-8.96-3,6.47-3.5,16.42-.5,17.42,3,1,4.38-2.82,5.16.83,1.24,5.84,2.61,12.22,5.1,9.73.77-.77,1.2-.49,1.58.26-.03,1.6.03,3.15.2,4.61.91,8.17,4.1,12.67,2,19.24-3.5,10.95-12.74,5.37-14.98,11.45-1,2.71,33.97,12.69,46.61-17.75,11.98-28.86-3.83-44.12-17.14-43.46Z"/>
    <ellipse class="st6" cx="139.17" cy="28.03" rx="2.55" ry="1.77" transform="translate(8.45 83.39) rotate(-34.34)"/>
    <ellipse class="st6" cx="147.7" cy="27.23" rx="1.37" ry="2.17" transform="translate(41.81 133.74) rotate(-55.61)"/>
    <path class="st4" d="M145.55,31.65c-1.71.41-3.08,12.94.42,13.35s1.66-13.85-.42-13.35Z"/>
    <path class="st9" d="M130.64,47.07c-.29,3.7-1.36,6.47-3.23,6.42-4.33-.11-4.66-5.64-4.66-5.64"/>
  </g>
  <g>
    <path class="st4" d="M14.21,109.74s0,7.63-5.83,10.28c-5.83,2.65-9.15,12.27-6.99,15.76s3.33-2.65,5.83-2.65,3.33,3.48,7.16,1.66c3.83-1.82,3-.83,6.66-1.82,3.66-1-6.82-23.22-6.82-23.22Z"/>
    <path class="st4" d="M66.64,148.39c-1.29-3.87-19.18,3.69-14.48-20.24.32-1.63.5-3.37.54-5.19.27-.2.59-.41.96-.62,4.65-2.65-1.43-12.85-4.22-17.07-.91-1.37-1.76-2.78-2.56-4.22-.16-.28-.26-.47-.26-.45-2.33-4.11-10.29-10.86-19.57-8.47-16.72,4.3-14.33,24.07-9.67,38.34,5,15.3,25.3,22.56,31.96,22.89,10.87.54,18.6-1.11,17.31-4.98Z"/>
    <ellipse class="st6" cx="31.39" cy="99.04" rx="1.77" ry="2.55" transform="translate(-72.36 104.63) rotate(-75.5)"/>
    <ellipse class="st6" cx="23.1" cy="101.19" rx="2.16" ry="1.37" transform="translate(-72.6 60.99) rotate(-54.35)"/>
    <path class="st4" d="M21.03,107.09c1.46-1.9,3.95.24,7.82-.83,4.83-1.33,5.16-4.31,7.82-3.98s.17,6.8-6.49,8.29c-6.66,1.49-10.82-1.33-9.15-3.48Z"/>
    <path class="st9" d="M47.02,105.29s.64,4.79-5.19,7.44c-5.83,2.65-9.15,12.27-6.99,15.76,2.16,3.48,3.33-2.65,5.83-2.65s3.33,3.48,7.16,1.66c3.83-1.82,2.33-3.15,5.83-5.14"/>
  </g>
  <g>
    <path class="st4" d="M156.69,114.66c6.62,2.27,8.99,9.62,6.66,13.27-2.33,3.65-4.66-3.98-7.66-1.66-3,2.32-6.66-.33-9.65-2.65-4.49-3.48-5.99,3.32-7.32-2.32-1.18-5.01,3-20.57,7.99-23.22s.33,13.27,9.99,16.59Z"/>
    <path class="st4" d="M135.72,87.13c-23.93,1.86-20.07,30.03-10.69,42.97,8.66,11.94-4.21,14.77-4.63,18.48-.44,3.98,19.34,1.96,24-10.31,4.66-12.27,1.02-17.29,10.35-22.27,9.32-4.98,6.6-30.86-19.03-28.87Z"/>
    <ellipse class="st6" cx="143.91" cy="102.95" rx="2.55" ry="1.77" transform="translate(-32.7 92.05) rotate(-32.05)"/>
    <ellipse class="st8" cx="153.91" cy="103.2" rx="1.45" ry="2.08" transform="translate(-20.74 165.14) rotate(-53.37)"/>
    <path class="st4" d="M150.03,106.37c-3.99,0-4.82,6.05-1.49,6.05s5.48-6.05,1.49-6.05Z"/>
    <path class="st9" d="M129.06,98.41c4.99,2.65.33,13.27,9.99,16.59,6.62,2.27,8.99,9.62,6.66,13.27-2.33,3.65-4.66-3.98-7.66-1.66-3,2.32-6.66-.33-9.65-2.65-4.49-3.48-5.99,3.32-7.32-2.32-.36-1.54-.22-4.09.3-6.95"/>
  </g>
  <g>
    <path class="st0" d="M108,96.32c-4.58.33-7.13,2.93-5.72,5.82,3.21.22,6.34,1.34,9.11,3.27-.07,1.78.38,3.59,1.35,4.91,1.77,2.41,4.58,2.29,6.29-.27,1.59-2.39,1.65-6.07.22-8.51-.06-.18-.14-.36-.23-.55-1.47-2.91-6.41-5-11.02-4.67Z"/>
    <path class="st11" d="M70.08,77.63c-11.41-9.34-24.35-11.15-28.92-4.05-4.57,7.11.98,20.44,12.38,29.78,2.43,1.99,4.93,3.64,7.41,4.93,3.88,7.87,9.74,14.1,15.38,15.64,8.14,2.22,12.76-6.17,10.31-18.74-1-5.14-3.03-10.19-5.64-14.51-2.41-4.56-6.15-9.16-10.92-13.07Z"/>
    <path class="st1" d="M78.01,147.61c4.18-3.42-4.17-9.86-.55-13.88.73-.8,2.87-2.09,3.08-2.27,7.68-6.29,3.04-12.27-2.32-15.7-2.92-1.87-4.61-5.19-4.46-8.64.3-6.72,3.5-16.41,18.1-15.36,23.21,1.68,20.79,36.05,4.74,42.79-16.05,6.75-17.1,13.55-13.93,18.31,1.83,2.74-8.19-2.38-4.66-5.26Z"/>
    <path class="st0" d="M86.34,110.49c.44.94.97,1.89,1.6,2.82,3.67,5.4,9.23,8.07,12.42,5.95,3.19-2.12,2.79-8.21-.88-13.62-2.72-3.99-6.46-6.49-9.52-6.66-1.33-.31-2.82-.44-4.37-.32-5.29.38-9.39,3.34-9.15,6.61.24,3.24,4.66,5.57,9.91,5.22Z"/>
    <g>
      <path class="st2" d="M111.24,72.73c-1.33-1.81-2.99-3.4-4.9-4.69l-.05-1c.51-.44.93-.98,1.22-1.58.56-1.18.59-2.55.09-3.75-.25-.61-.61-1.16-1.08-1.63-.49-.49-1.13-.91-1.81-1.06-.38-.08-.79-.08-1.15.06-.31.12-.58.31-.79.55-.43.49-.67,1.12-.84,1.73-.23.81-.39,1.63-.5,2.46-.05.4-.09.81-.12,1.22-.01.17-.02.34-.02.51-2.18-.73-4.53-1.13-6.98-1.13-4.12,0-7.96,1.13-11.17,3.06-.03-.38-.06-.76-.11-1.14-.11-.83-.28-1.65-.5-2.46-.17-.62-.41-1.24-.84-1.73-.22-.25-.49-.43-.79-.55-.37-.14-.78-.14-1.15-.06-.69.15-1.32.57-1.81,1.06-.47.46-.83,1.02-1.08,1.63-.5,1.21-.48,2.57.09,3.75.42.89,1.14,1.64,2,2.13l.08.65c-1.76,1.83-3.14,3.97-4.02,6.32-.54,1.44-1.43,2.71-2.44,3.86-1.57,1.79-2.46,3.84-2.46,6.01,0,5.28,6.88,8.3,12.65,11.7,0,0,0,0,0,0,3.29,2.08,7.27,3.3,11.56,3.3,6.04,0,11.46-2.41,15.2-6.24,1.11-1.14,2.38-2.12,3.7-3.02,3.3-2.25,5.31-5.23,5.31-8.51,0-2.47-1.15-4.78-3.13-6.72-1.49-1.47-2.89-3.05-4.12-4.74Z"/>
      <path class="st7" d="M100.44,86.88h.36c.57,0,1.04.46,1.04,1.04v1.4c0,.24-.19.43-.43.43h-1.58c-.24,0-.43-.19-.43-.43v-1.4c0-.57.46-1.04,1.04-1.04Z" transform="translate(13.67 -13.49) rotate(8.23)"/>
      <path class="st3" d="M104.42,73.72c.44-.13.93-.07,1.35.12.34.16.63.4.86.69.08.08.16.16.22.25.05.08.1.15.13.23,0,.01,0,.03.01.04.04.08.07.16.09.24.01.04.02.08.03.13.01.06.01.13.01.19,0,.01,0,.03,0,.04,0,.04,0,.08,0,.12,0,.11-.02.21-.05.32-.02.08-.06.15-.1.23,0,0,0,0,0,0,0,0-.01.02-.02.03-.01.02-.02.04-.03.06,0,0,0,0,0,0-.12.18-.3.32-.5.4-.28.11-.58.12-.88.12-.42,0-.84,0-1.24-.12-.44-.12-.82-.41-1.02-.83-.19-.41-.19-.92,0-1.32.11-.23.26-.43.46-.59.2-.16.44-.27.69-.35Z"/>
      <path class="st3" d="M88.43,77.56c-.02.11-.03.21-.04.32,0,.03,0,.07,0,.1,0,.08-.01.17,0,.25.01.19.06.37.14.55.07.14.17.28.3.38.07.06.14.11.22.16.08.05.17.08.25.11.31.12.66.12.97.03.17-.05.35-.12.5-.21,0,0,0,0,0,0,.02-.01.05-.02.07-.03.21-.11.41-.24.61-.38.21-.15.43-.29.62-.47.1-.09.19-.2.28-.31.08-.11.13-.22.18-.35.07-.18.09-.39.06-.59,0-.09,0-.18-.03-.26-.02-.06-.04-.12-.08-.18,0,0,0,0,0,0-.09-.32-.31-.58-.57-.78-.02-.03-.05-.06-.09-.08-.13-.09-.28-.17-.44-.21-.16-.05-.32-.07-.48-.09-.3-.03-.61,0-.9.1-.31.1-.6.27-.84.5-.24.23-.42.51-.54.82-.02.04-.02.08-.04.12,0,.01-.01.03-.02.04-.02.06-.05.13-.06.19,0,0,0,.01,0,.02-.03.08-.05.17-.06.25Z"/>
      <ellipse id="_오른반사광" data-name="오른반사광" class="st8" cx="91.06" cy="76.7" rx=".69" ry=".66"/>
      <ellipse id="_왼반사광" data-name="왼반사광" class="st8" cx="104.57" cy="74.64" rx=".69" ry=".66"/>
      <ellipse class="st12" cx="80.65" cy="66.5" rx="1.6" ry="2.47" transform="translate(-18.64 33.81) rotate(-21.28)"/>
      <ellipse class="st12" cx="103.85" cy="64.31" rx="2.47" ry="1.6" transform="translate(-3.98 121.69) rotate(-59.79)"/>
      <ellipse class="st7" cx="83.26" cy="87.76" rx="8.96" ry="8.52"/>
      <ellipse class="st7" cx="111.87" cy="83.46" rx="6.08" ry="5.95"/>
      <path id="_주둥이" data-name="주둥이" class="st10" d="M107.31,85.89c-.37,4.16-4.46,7.54-9.15,7.54s-8.19-3.38-7.83-7.54,4.46-7.54,9.15-7.54,8.19,3.38,7.83,7.54Z"/>
      <path class="st11" d="M104.87,85.04s-.06-.09-.11-.1c-.05-.02-.11-.03-.17-.02-.14.01-.23.08-.25.17,0,.03-.01.06-.02.09,0,.03-.02.05-.03.08,0-.02.01-.03.02-.05-.03.1-.09.2-.16.29-.08.09-.17.18-.27.27-.11.08-.23.15-.36.22-.12.05-.24.1-.37.14-.12.03-.25.05-.38.07-.13,0-.26,0-.39,0-.15-.02-.29-.04-.43-.08-.14-.04-.26-.09-.38-.15-.11-.06-.21-.13-.3-.21-.07-.07-.13-.15-.17-.23-.01-.02-.02-.05-.03-.07,0-.01-.02-.02-.02-.03.06-.09.12-.19.17-.28.14-.29.21-.58.23-.88,0-.16,0-.32-.02-.48-.02-.15-.04-.29-.09-.43-.02-.06-.04-.13-.07-.19,1.53-.23,2.73-1.02,2.85-1.97.14-1.12-1.31-2.04-3.23-2.04s-3.59.91-3.72,2.04c-.14,1.12,1.31,2.04,3.23,2.04.12,0,.23,0,.34-.01,0,0,0,0,0,.02.03.14.05.27.08.41.01.07.02.14.03.21,0,.02,0,.04,0,.05,0,0,0,0,0,0,0,0,0,0,0,0,0,.04,0,.07,0,.11,0,.14,0,.28-.02.43,0,.07-.02.14-.04.2,0,.04-.02.07-.03.11,0,0-.02.05,0,.03.01-.03,0,0,0,.01,0,.01,0,.02-.01.03-.04.12-.1.23-.16.34-.03.06-.07.11-.11.16,0,.01-.02.02-.02.03,0,0,0,.01-.01.02-.02.02-.03.04-.05.07-.09.1-.19.2-.3.3-.03.02-.05.04-.08.06-.01,0-.03.02-.04.03.06-.05,0,0-.01,0-.06.04-.12.09-.19.13-.07.04-.13.08-.2.12-.02,0-.03.02-.05.02,0,0-.01,0-.02,0-.03.02-.07.03-.1.05-.07.03-.15.06-.23.09-.04.01-.07.02-.11.03-.02,0-.04.01-.06.02,0,0,0,0,0,0-.16.04-.33.07-.49.09-.02,0-.03,0-.05,0,0,0,0,0,0,0-.04,0-.29.01-.38,0-.04,0-.08,0-.11,0,0,0-.04,0-.05,0,0,0-.01,0-.02,0-.08,0-.16-.02-.24-.04-.04,0-.07-.01-.11-.02-.02,0-.04,0-.06-.01,0,0-.02,0-.03-.01-.06-.02-.12-.04-.18-.06-.03-.01-.06-.03-.09-.04-.02,0-.03-.02-.05-.02,0,0-.01,0-.02-.01,0,0,0,0,0,0-.05-.03-.1-.06-.15-.1-.02-.02-.04-.03-.06-.05-.01-.01-.02-.02-.03-.03-.04-.04-.07-.08-.1-.13,0,0-.01-.02-.02-.03,0,0,0-.01,0-.02,0,0,0-.01,0-.02,0-.01-.01-.02-.02-.03-.02-.05-.03-.09-.04-.14,0-.02,0-.05-.01-.07,0,0,0,0,0,0,0-.01,0-.02,0-.03,0-.05,0-.1.01-.15,0-.02,0-.05.02-.07,0,0,0,0,0-.01,0,0,0-.02,0-.03.02-.05.04-.09.07-.14.01-.02.03-.04.04-.06,0,0,0,0,0,0,.01-.01.02-.02.03-.04.04-.04.08-.08.12-.12,0,0,0,0,0,0,.01,0,.02-.01.03-.02.03-.02.05-.04.08-.05.11-.07.13-.19.03-.26-.11-.07-.27-.07-.39,0-.56.32-.75.84-.59,1.28.08.22.24.43.49.58.27.17.61.28.98.33.38.05.77.04,1.16-.02.39-.06.75-.18,1.08-.34.3-.15.57-.33.78-.54.1.14.24.26.4.36.29.18.65.31,1.05.36.2.02.41.03.62.02.24-.02.46-.06.68-.12.4-.11.74-.31,1-.53.15-.13.26-.27.35-.41.09-.16.13-.33.11-.49Z"/>
      <path class="st11" d="M102.25,86.43c-.4-.05-.76-.18-1.05-.36-.17-.1-.3-.23-.4-.36-.22.21-.48.39-.78.54-.33.16-.69.28-1.08.34-.39.06-.78.07-1.16.02-.09-.01-.18-.04-.27-.06.32,2.67,1.52,8.39,5.59-.13-.07.01-.15.02-.22.03-.21.02-.41,0-.62-.02Z"/>
    </g>
  </g>
</svg>