<?xml version="1.0" encoding="UTF-8"?>
<svg id="Layer_1" xmlns="http://www.w3.org/2000/svg" version="1.1" viewBox="0 0 230.89 211.43">
  <!-- Generator: Adobe Illustrator 29.6.1, SVG Export Plug-In . SVG Version: 2.1.1 Build 9)  -->
  <defs>
    <style>
      .st0, .st1, .st2, .st3, .st4, .st5, .st6, .st7, .st8 {
        stroke-miterlimit: 10;
      }

      .st0, .st2, .st3, .st4, .st5, .st9, .st7 {
        stroke: #4c241e;
      }

      .st0, .st10 {
        fill: #4c241e;
      }

      .st0, .st8 {
        stroke-width: .39px;
      }

      .st1 {
        fill: #00933b;
      }

      .st1, .st2, .st6 {
        stroke-width: 1.46px;
      }

      .st1, .st6, .st8 {
        stroke: #561f18;
      }

      .st2 {
        fill: #ffd899;
      }

      .st3 {
        stroke-width: 1.13px;
      }

      .st3, .st5, .st11 {
        fill: #dd9e59;
      }

      .st12 {
        fill: #fff;
      }

      .st13, .st8 {
        fill: #36bf4f;
      }

      .st14 {
        fill: #430000;
      }

      .st4 {
        fill: #ffe799;
        stroke-width: 1.17px;
      }

      .st5 {
        stroke-width: 1.35px;
      }

      .st9 {
        fill: #d1997d;
        stroke-linecap: round;
        stroke-linejoin: round;
        stroke-width: .85px;
      }

      .st6 {
        fill: #fcd05d;
      }

      .st15 {
        fill: #ffe6c2;
      }

      .st7 {
        fill: #ff8b5e;
        stroke-width: .88px;
      }
    </style>
  </defs>
  <g>
    <path class="st9" d="M231.48,150.27l-70.55-24.33h-27.47c9.89,4.51,66.19,30.17,98.02,44.71v-20.38Z"/>
    <path class="st9" d="M231.48,170.65c-31.83-14.54-88.13-40.2-98.02-44.71h-26.42l124.44,74.5v-29.79h0Z"/>
    <polygon class="st9" points="231.48 125.94 160.93 125.94 231.48 150.27 231.48 125.94"/>
    <polygon class="st9" points="107.03 125.94 -28.7 125.94 -28.7 139.89 -15.17 126.25 -28.7 139.89 -28.7 168.98 2.01 126.91 -28.7 168.98 -28.7 212.8 -19.37 212.8 16.32 126.72 -19.37 212.8 25.09 212.8 25.09 126.4 25.09 212.8 73.07 212.8 36.23 126.16 73.07 212.8 120.6 212.8 46.27 126.16 120.6 212.8 160.84 212.8 62.75 126.09 160.84 212.8 199.92 212.8 83.55 126.09 199.92 212.8 231.48 212.8 231.48 200.44 107.03 125.94"/>
  </g>
  <g>
    <path class="st10" d="M75.88,75.38c-11.36-20.24-28.74-30.13-38.82-22.09s-9.05,30.96,2.31,51.2c2.42,4.31,5.12,8.15,7.96,11.45,1.47,13.86,6.57,26.4,13.76,31.82,10.38,7.82,21.18-2.1,24.13-22.16,1.21-8.21.91-16.84-.57-24.72-1.08-8.12-4.02-17.05-8.77-25.51h0Z"/>
    <path class="st3" d="M121.4,164.88c2.99-3.61,4.78-7.6,5.01-10.65.19-1.61.12-3.31-.26-5.01-1.53-6.82-7.42-11.11-13.15-9.57-5.74,1.54-9.14,8.31-7.61,15.13.59,2.63,1.83,4.89,3.46,6.58-1.34,2.81-1.86,5.46-1.42,7.36.1,1.43,1.03,3.21,2.55,4.62,2.18,2.01,4.72,2.5,5.68,1.08.66-.97.4-2.59-.53-4.17,2.07-1.13,4.27-2.98,6.27-5.38h0Z"/>
    <path class="st5" d="M109.05,104.78c-14.57-3.92-31.21,5.36-37.16,20.72-5.31,13.7-.31,27.61,11.17,33.24.1.08.2.16.3.24.59,6.65,2.95,12.15,6.49,14.47,1.54,1.23,3.51,2.3,5.7,3.03,5.54,1.83,10.43.74,10.92-2.44.31-2-1.19-4.34-3.72-6.26,1.46-2.47,2.65-5.52,3.45-8.97,8.07-3.45,15.04-10.27,18.46-19.11,5.95-15.36-1.04-30.99-15.62-34.91h.01Z"/>
    <path class="st4" d="M128.99,110.8c-4.63-4.26-9.63-4.36-11.21-.25,2.79,3.4,4.6,7.59,5.27,12.16-1.85,1.61-3.25,3.75-3.66,5.95-.77,4.03,2,6.72,6.17,6.02,3.9-.66,7.65-4.04,8.75-7.76.12-.23.23-.48.33-.74,1.54-4.2-.99-11.08-5.65-15.37h0Z"/>
    <path class="st2" d="M133.99,77.37c-2.05-3.36-4.89-6.25-8.28-8.46-.31-.2-.32-.65-.03-.87.84-.64,1.53-1.48,1.98-2.42.77-1.62.81-3.49.12-5.15-.35-.83-.84-1.6-1.48-2.23-.68-.67-1.54-1.25-2.49-1.45-.52-.11-1.08-.12-1.58.08-.42.16-.79.42-1.09.76-.59.67-.91,1.53-1.15,2.38-.31,1.11-.54,2.23-.69,3.37-.07.55-.13,1.11-.16,1.67h0c-.02.36-.37.59-.7.48-2.8-.86-5.79-1.33-8.9-1.33-5.35,0-10.34,1.38-14.59,3.77-.34.19-.76-.02-.8-.4-.02-.25-.05-.5-.09-.75-.15-1.14-.38-2.27-.69-3.37-.24-.85-.56-1.71-1.15-2.38-.3-.34-.67-.59-1.09-.76-.5-.19-1.06-.19-1.58-.08-.95.2-1.81.78-2.49,1.45-.64.64-1.13,1.4-1.48,2.23-.69,1.66-.65,3.53.12,5.15.59,1.23,1.58,2.27,2.77,2.93.31.17.38.58.13.84-2.6,2.68-4.59,5.87-5.79,9.37-.51,1.5-1.4,2.84-2.5,3.98-2.52,2.6-3.98,5.65-3.98,8.91,0,6.63,6,12.38,14.81,15.3,1.59.53,3.14,1.17,4.63,1.94,4.07,2.11,8.77,3.32,13.77,3.32,8.72,0,16.5-3.66,21.64-9.39.89-.99,1.93-1.83,3.07-2.52,5.25-3.15,8.51-7.57,8.51-12.45,0-4.03-2.23-7.74-5.95-10.69-1.13-.89-2.05-2.02-2.8-3.25l-.02.02Z"/>
    <path class="st15" d="M119.03,99.05l-2.14-.31c-.32-.05-.54-.34-.5-.67l.28-1.9c.11-.78.84-1.31,1.61-1.2l.49.07c.78.11,1.32.83,1.21,1.61l-.28,1.9c-.05.32-.35.54-.67.5h0Z"/>
    <path class="st0" d="M127.02,79.11c-.09-.62-.44-1.2-.92-1.6-.39-.33-.86-.56-1.35-.68-.14-.06-.28-.11-.43-.13-.12-.02-.24-.03-.37-.03h-.06c-.12,0-.23,0-.35.02-.06,0-.12.02-.17.04-.09.02-.17.06-.25.09-.02,0-.03.02-.05.03-.05.02-.1.03-.15.06-.13.06-.26.15-.37.25-.09.07-.16.16-.23.25h0s0,.03-.02.04c-.02.03-.04.05-.05.07v.02c-.15.25-.23.55-.21.85.03.41.18.78.34,1.16.23.52.48,1.04.86,1.48.4.47.98.79,1.61.79s1.26-.28,1.66-.75c.23-.27.39-.57.48-.91.09-.35.09-.7.04-1.05h0Z"/>
    <path class="st0" d="M107.09,81.5c0-.15-.03-.29-.06-.44,0-.04-.02-.09-.03-.13-.02-.11-.04-.22-.08-.33-.09-.25-.21-.47-.38-.67-.14-.17-.33-.31-.53-.41-.11-.05-.23-.1-.35-.14-.12-.03-.25-.05-.37-.06-.45-.05-.91.07-1.3.29-.22.12-.42.28-.59.46h0s-.05.04-.08.06c-.25.22-.47.46-.68.71-.23.27-.47.53-.66.83-.1.16-.19.33-.26.51-.07.17-.1.34-.12.52-.03.26,0,.55.13.8.03.12.06.24.13.34.05.08.1.15.16.22h0c.23.39.61.67,1.03.83.04.03.09.06.14.08.21.07.44.12.66.13.23,0,.45,0,.67-.05.41-.07.81-.22,1.16-.45.38-.25.7-.57.94-.95.24-.39.38-.82.44-1.27v-.23c0-.09.02-.18.02-.28v-.39.02Z"/>
    <ellipse id="_오른반사광" class="st12" cx="105.12" cy="81.04" rx=".95" ry=".91"/>
    <ellipse id="_왼반사광" class="st12" cx="123.66" cy="78.21" rx=".95" ry=".91"/>
    <ellipse class="st14" cx="90.85" cy="67.05" rx="2.2" ry="3.39" transform="translate(-18.14 37.54) rotate(-21.28)"/>
    <ellipse class="st14" cx="122.67" cy="64.03" rx="3.39" ry="2.2" transform="translate(5.61 137.82) rotate(-59.79)"/>
    <ellipse class="st15" cx="94.42" cy="96.2" rx="12.29" ry="11.68"/>
    <ellipse class="st15" cx="133.66" cy="90.3" rx="8.33" ry="8.16"/>
    <path id="_주둥이" class="st11" d="M127.41,93.63c-.5,5.71-6.12,10.34-12.56,10.34s-11.24-4.63-10.74-10.34,6.12-10.34,12.56-10.34,11.24,4.63,10.74,10.34Z"/>
    <path class="st10" d="M124.06,93.77c0-.06-.08-.14-.15-.17-.07-.03-.14-.04-.23-.03-.19.02-.32.13-.34.27,0,.05-.02.1-.03.15,0,.04-.03.09-.04.13,0-.03,0-.05.02-.08-.05.16-.13.32-.22.47-.1.15-.23.29-.37.43-.15.13-.31.24-.49.35-.16.09-.33.16-.51.22-.17.05-.34.09-.52.11-.18,0-.36,0-.53,0-.2-.02-.4-.07-.59-.13-.19-.07-.36-.15-.52-.24-.15-.1-.29-.21-.41-.34-.1-.11-.18-.23-.24-.36-.02-.04-.03-.07-.04-.11,0-.02-.02-.04-.03-.05.09-.15.17-.3.23-.45.19-.45.29-.93.31-1.4,0-.26,0-.51-.02-.77-.02-.23-.05-.47-.12-.69-.03-.1-.06-.2-.09-.3,2.09-.36,3.75-1.62,3.91-3.13.19-1.79-1.79-3.24-4.42-3.24s-4.92,1.45-5.11,3.24,1.79,3.24,4.42,3.24c.16,0,.31,0,.47-.02v.02c.04.22.07.44.11.66.02.11.03.22.04.34v.08h0v.17c0,.22,0,.45-.03.68,0,.11-.03.22-.05.33,0,.06-.02.11-.04.17,0,0-.03.08,0,.04,0-.04,0,0,0,.02s0,.03,0,.05c-.06.18-.13.37-.22.55-.04.09-.09.18-.14.26,0,.02-.02.04-.03.06,0,0,0,.02-.02.03-.02.03-.05.07-.07.1-.12.17-.26.32-.41.48-.03.03-.07.07-.11.1-.02.02-.03.03-.05.05.08-.07,0,0-.02,0-.08.07-.17.14-.26.2s-.18.13-.28.19c-.02,0-.04.02-.06.04,0,0,0,0-.02,0-.05.02-.09.05-.14.07-.1.05-.21.1-.32.14-.05.02-.1.04-.15.05-.03,0-.05.02-.08.03h0c-.22.06-.45.11-.68.14h-.07c-.06,0-.11,0-.17,0h-.58c-.11,0-.22-.03-.32-.06-.05,0-.1-.02-.15-.04-.03,0-.05,0-.08-.02,0,0-.03,0-.05-.02-.08-.03-.17-.06-.25-.1-.04-.02-.08-.04-.13-.06-.02,0-.04-.02-.07-.04,0,0-.02,0-.03-.02h0c-.07-.05-.14-.1-.21-.16-.03-.03-.06-.06-.09-.08,0-.02-.03-.03-.04-.05-.05-.07-.1-.13-.13-.2,0-.02-.02-.03-.02-.05,0,0,0-.02,0-.03,0,0,0-.02,0-.02,0-.02,0-.04-.02-.06-.03-.07-.05-.15-.06-.23,0-.04,0-.07-.02-.11h0v-.05c0-.08,0-.16.02-.23,0-.04,0-.07.02-.11v-.02s0-.03,0-.04c.03-.07.06-.15.09-.22.02-.03.04-.06.06-.1h0s.03-.04.04-.06c.05-.07.11-.13.17-.19h0s.03-.02.04-.04c.04-.03.08-.06.11-.09.15-.11.18-.31.04-.41-.15-.11-.37-.11-.54,0-.77.51-1.03,1.34-.81,2.03.11.35.33.68.67.92.37.26.83.45,1.34.52.52.08,1.06.07,1.59-.03.54-.1,1.03-.29,1.48-.55.42-.24.78-.53,1.07-.86.14.22.33.41.56.58.4.28.9.49,1.45.57.28.04.56.06.85.03.33-.03.63-.09.93-.19.54-.18,1.01-.49,1.37-.85.2-.2.36-.43.47-.66.12-.25.17-.52.15-.78h.02Z"/>
    <path class="st3" d="M89.45,146.84s17.17-4.8,16.76,11.96"/>
  </g>
  <g id="_빗자루">
    <path class="st7" d="M60.6,64.69s-.05-.04-.08-.06c-.11-.09-.23-.17-.35-.24h-.02c-.12-.07-.24-.12-.37-.17-.03-.01-.05-.02-.08-.03-.13-.05-.27-.09-.4-.12h0c-.14-.03-.28-.05-.42-.06h-.05c-.29-.02-.59,0-.87.06h-.03c-.52.12-1.02.36-1.44.75-.51.47-.83,1.08-.95,1.71h0c-.09.47-.07.95.05,1.41,0,.01,0,.03.01.04l.09.27s.02.06.04.09c.03.08.07.15.11.22.02.03.03.07.05.1.04.07.09.14.13.21.02.03.04.06.06.09.07.09.14.19.23.28l81.73,88.36.94-.86,2.23-2.05,1.45-1.33L60.92,64.98c-.1-.11-.21-.2-.32-.29Z"/>
    <path class="st1" d="M173.44,162.74l-27.84,25.57c-1.32,1.21-3.4,1.01-4.46-.43l-10.74-14.6c-.9-1.23-.74-2.93.38-3.97l24.81-22.86c1.12-1.04,2.85-1.06,4.01-.06l13.77,11.9c1.35,1.17,1.38,3.25.07,4.46h0Z"/>
    <g>
      <path class="st8" d="M79.24,85.86l-3.54,3.25c-.59.55-1.52.51-2.07-.08l-.21-.22c-.55-.59-.51-1.51.08-2.06l3.54-3.25c.59-.55,1.52-.51,2.07.08l.21.22c.55.59.51,1.51-.08,2.06Z"/>
      <path class="st8" d="M84.31,91.34l-3.54,3.25c-.59.55-1.52.51-2.07-.08l-.21-.22c-.55-.59-.51-1.51.08-2.06l3.54-3.25c.59-.55,1.52-.51,2.07.08l.21.22c.55.59.51,1.51-.08,2.06Z"/>
      <path class="st8" d="M89.38,96.83l-3.54,3.25c-.59.55-1.52.51-2.07-.08l-.21-.22c-.55-.59-.51-1.51.08-2.06l3.54-3.25c.59-.55,1.52-.51,2.07.08l.21.22c.55.59.51,1.51-.08,2.06Z"/>
      <path class="st8" d="M94.45,102.31l-3.54,3.25c-.59.55-1.52.51-2.07-.08l-.21-.22c-.55-.59-.51-1.51.08-2.06l3.54-3.25c.59-.55,1.52-.51,2.07.08l.21.22c.55.59.51,1.51-.08,2.06Z"/>
    </g>
    <path class="st6" d="M147.05,144.24l-6.02,5.53c-.27.25-.7.23-.95-.04l-4.16-4.5c-.63-.68-1.69-.72-2.37-.1l-2.97,2.73c-.68.63-.72,1.68-.1,2.36l4.16,4.5c.25.27.24.7-.04.95l-5.35,4.91c-2.85,2.62-3.2,6.95-.9,9.97.24.31.7.35.99.08l27.75-25.49c.29-.27.29-.73,0-.99-2.84-2.53-7.19-2.54-10.04.08h0Z"/>
    <g>
      <polygon class="st13" points="144.15 187.69 146.87 185.2 132.47 169.63 144.15 187.69"/>
      <polygon class="st13" points="148.52 183.67 151.24 181.18 136.07 166.32 148.52 183.67"/>
      <polygon class="st13" points="152.9 179.65 155.62 177.16 140.45 162.3 152.9 179.65"/>
      <polygon class="st13" points="157.28 175.63 160 173.14 144.83 158.28 157.28 175.63"/>
      <polygon class="st13" points="161.66 171.61 164.38 169.11 148.43 154.96 161.66 171.61"/>
      <polygon class="st13" points="166.03 167.59 168.75 165.09 152.43 151.3 166.03 167.59"/>
      <polygon class="st13" points="170.41 163.57 173.13 161.07 156.03 147.99 170.41 163.57"/>
    </g>
  </g>
  <path class="st4" d="M102.66,126.06c-.56-1.31-1.26-2.63-2.09-3.93-4.84-7.54-12.36-11.4-16.81-8.61s-4.13,11.16.71,18.7c3.58,5.58,8.62,9.13,12.81,9.49,1.81.48,3.85.7,5.99.6,7.27-.33,13-4.24,12.8-8.73-.21-4.46-6.19-7.81-13.4-7.53h-.01Z"/>
</svg>