<?xml version="1.0" encoding="UTF-8"?>
<svg id="Layer_2" data-name="Layer 2" xmlns="http://www.w3.org/2000/svg" viewBox="0 0 54.53 46">
  <defs>
    <style>
      .cls-1 {
        fill: #5b6072;
      }

      .cls-2 {
        fill: #d7deed;
      }

      .cls-3 {
        fill: #707487;
      }
    </style>
  </defs>
  <g id="_1" data-name="1">
    <g>
      <path class="cls-1" d="M45.52,12.5c1.42,0,2.53,1.1,2.53,2.5s-1.11,2.5-2.53,2.5-2.53-1.1-2.53-2.5,1.11-2.5,2.53-2.5Z"/>
      <path class="cls-3" d="M27.21,15c6.27,0,11.43,5,11.43,11.3s-5.06,11.3-11.43,11.3-11.43-5-11.43-11.3,5.16-11.3,11.43-11.3Z"/>
      <path class="cls-2" d="M53.11,12.3v27.7c0,2.6-2.12,4.8-4.86,4.8H6.07c-2.63,0-4.86-2.1-4.86-4.8V12.3c0-2.6,2.12-4.8,4.86-4.8h9.1v-2.8c0-1.9,1.52-3.4,3.44-3.4h17.1c1.92,0,3.44,1.5,3.44,3.4v2.8h9.1c2.73,0,4.86,2.1,4.86,4.8ZM48.05,15c0-1.4-1.11-2.5-2.53-2.5s-2.53,1.1-2.53,2.5,1.11,2.5,2.53,2.5,2.53-1.1,2.53-2.5ZM38.54,26.3c0-6.2-5.06-11.3-11.43-11.3s-11.43,5-11.43,11.3,5.06,11.3,11.43,11.3,11.43-5.1,11.43-11.3Z"/>
      <path d="M27.21,38.8c-6.98,0-12.64-5.6-12.64-12.5s5.66-12.5,12.64-12.5,12.64,5.6,12.64,12.5-5.66,12.5-12.64,12.5ZM27.21,16.3c-5.56,0-10.12,4.5-10.12,10s4.55,10,10.12,10,10.12-4.5,10.12-10-4.55-10-10.12-10Z"/>
      <path d="M45.52,18.8c-2.12,0-3.84-1.7-3.84-3.8s1.72-3.8,3.84-3.8,3.84,1.7,3.84,3.8-1.72,3.8-3.84,3.8ZM45.52,13.8c-.71,0-1.31.6-1.31,1.3s.61,1.3,1.31,1.3,1.32-.6,1.32-1.3-.61-1.3-1.32-1.3Z"/>
      <path d="M48.35,46H6.07c-3.34,0-6.07-2.7-6.07-6V12.3c0-3.3,2.73-6,6.07-6h7.89v-1.6c0-2.6,2.12-4.7,4.75-4.7h17.1c2.63,0,4.75,2.1,4.75,4.7v1.6h7.89c3.34,0,6.07,2.7,6.07,6v27.7c-.1,3.3-2.83,6-6.17,6ZM6.07,8.8c-1.92,0-3.54,1.6-3.54,3.5v27.7c0,1.9,1.62,3.5,3.54,3.5h42.28c1.92,0,3.54-1.6,3.54-3.5V12.3c0-1.9-1.62-3.5-3.54-3.5h-9.1c-.71,0-1.32-.6-1.32-1.3v-2.8c0-1.2-1.01-2.2-2.23-2.2h-17.1c-1.21,0-2.23,1-2.23,2.2v2.8c0,.7-.61,1.3-1.31,1.3H6.07Z"/>
    </g>
  </g>
</svg>