<?xml version="1.0" encoding="UTF-8"?>
<svg id="Layer_2" data-name="Layer 2" xmlns="http://www.w3.org/2000/svg" viewBox="0 0 56.35 48.69">
  <g id="_1" data-name="1">
    <path d="M56.33,11.14c-.19-2.7-1.5-5.41-3.61-7.51-4.43-4.42-11.11-4.84-14.97-1.06-.09.09-.15.19-.2.3L11.85,28.08c-1.22,1.2-1.83,2.69-1.84,4.39s.59,3.2,1.8,4.41c1.21,1.2,2.72,1.81,4.44,1.82,1.62,0,3.24-.59,4.46-1.78l25.99-25.4c.51-.5.51-1.3,0-1.8s-1.31-.5-1.82,0l-25.99,25.4c-.71.7-1.62,1.09-2.63,1.09-1.01,0-1.92-.41-2.63-1.11-.71-.7-1.11-1.6-1.1-2.6,0-1,.41-1.9,1.12-2.6L39.66,4.38c.06-.06.09-.13.14-.2,2.97-2.56,7.85-2.08,11.19,1.24,1.61,1.61,2.62,3.71,2.81,5.91.19,2.1-.52,4-1.84,5.29l-9.14,8.97c-.09.09-.14.19-.2.29l-16.76,16.25c-2.54,2.59-6.08,3.98-9.73,3.96-3.64-.01-7.08-1.43-9.7-4.04-2.62-2.51-4.02-6.02-4.01-9.61.01-3.6,1.44-6.99,4.08-9.59L27.02,2.93c.51-.5.51-1.3,0-1.8-.5-.5-1.31-.5-1.82,0L4.8,21.15C1.75,24.14.02,28.23,0,32.53c-.02,4.3,1.69,8.41,4.71,11.42,3.02,3.01,7.16,4.73,11.51,4.74,4.35.02,8.4-1.67,11.55-4.76l16.85-16.44c.15-.14.24-.31.3-.49l8.74-8.57c1.93-1.89,2.85-4.49,2.66-7.29Z"/>
  </g>
</svg>