<?xml version="1.0" encoding="UTF-8"?>
<svg id="Layer_2" data-name="Layer 2" xmlns="http://www.w3.org/2000/svg" viewBox="0 0 57.05 56.3">
  <defs>
    <style>
      .cls-1 {
        fill: #fcd884;
      }

      .cls-2 {
        fill: #80af52;
      }

      .cls-3 {
        fill: #bee8f7;
      }

      .cls-4 {
        fill: #70993f;
      }
    </style>
  </defs>
  <g id="_1" data-name="1">
    <g>
      <path class="cls-1" d="M15.27,11.3c2.79,0,5.06,2.24,5.06,5s-2.26,5-5.06,5-5.06-2.24-5.06-5,2.26-5,5.06-5Z"/>
      <path class="cls-3" d="M55.74,1.3v40l-13.96-12.5-11.33,11.3-6.98-6.9L1.31,55.1V1.3h54.42ZM20.33,16.3c0-2.8-2.23-5-5.06-5s-5.06,2.2-5.06,5,2.23,5,5.06,5,5.06-2.2,5.06-5Z"/>
      <polygon class="cls-4" points="55.74 41.3 55.74 55.1 44.92 55.1 44.92 54.4 30.45 40.1 41.78 28.8 55.74 41.3"/>
      <polygon class="cls-2" points="44.92 54.4 44.92 55.1 1.31 55.1 23.47 33.2 30.45 40.1 44.92 54.4"/>
      <path d="M55.74,56.3H1.31c-.71,0-1.31-.6-1.31-1.3V1.3C0,.6.61,0,1.31,0h54.42c.71,0,1.32.6,1.32,1.3v53.8c-.1.6-.71,1.2-1.32,1.2ZM2.63,53.8h51.79V2.6H2.63v51.2Z"/>
      <path d="M1.31,56.3c-.3,0-.61-.1-.91-.4-.51-.5-.51-1.3,0-1.8l22.15-21.9c.51-.5,1.31-.5,1.82,0l21.55,21.3c.51.5.51,1.3,0,1.8-.51.5-1.31.5-1.82,0l-20.64-20.4L2.23,55.9c-.3.3-.61.4-.91.4Z"/>
      <path d="M55.64,42.6c-.3,0-.61-.1-.81-.3l-13.05-11.8-10.52,10.4c-.51.5-1.32.5-1.82,0-.51-.5-.51-1.3,0-1.8l11.43-11.3c.51-.5,1.21-.5,1.72,0l13.96,12.5c.51.5.51,1.3.1,1.8-.3.3-.61.5-1.01.5Z"/>
      <path d="M15.27,22.6c-3.44,0-6.37-2.8-6.37-6.3s2.83-6.3,6.37-6.3,6.37,2.8,6.37,6.3-2.93,6.3-6.37,6.3ZM15.27,12.6c-2.12,0-3.84,1.7-3.84,3.8s1.72,3.8,3.84,3.8,3.84-1.7,3.84-3.8-1.82-3.8-3.84-3.8Z"/>
    </g>
  </g>
</svg>