<svg width="114" height="70" viewBox="0 0 114 70" fill="none" xmlns="http://www.w3.org/2000/svg">
<g clip-path="url(#clip0_1139_7102)">
<path d="M110.761 30.9197C110.07 30.6951 109.426 30.4705 108.796 29.909C107.645 28.8421 107.047 28.3368 106.433 27.8502C105.865 27.3822 105.297 26.9143 104.207 25.9036C103.102 24.8929 102.549 24.3502 101.997 23.8448C101.429 23.302 100.876 22.778 99.7403 21.7298C98.6198 20.7004 98.0365 20.1764 97.4686 19.671C96.9007 19.1657 96.3328 18.6603 95.2123 17.6309L90.7149 13.4945C89.6404 12.5026 89.1185 11.9598 88.612 11.417C88.0748 10.8368 87.5069 10.2379 86.3403 9.17101C85.1737 8.08545 84.5291 7.59882 83.9304 7.11219C83.3472 6.64428 82.7792 6.21379 81.7048 5.22182C81.0908 4.66032 80.7071 3.79936 80.3387 2.97583C79.7401 1.62823 78.4814 -1.17925 75.6264 0.617538C72.7714 2.39561 73.8612 5.27797 74.3831 6.66299C74.7055 7.52395 75.0278 8.40363 75.0431 9.33946C75.0585 10.9491 75.4115 12.1469 75.6725 13.0079C75.9078 13.819 75.8362 14.4491 75.4576 14.8983C75.079 15.3475 74.5366 15.4286 73.8305 15.1416C73.0784 14.8047 72.0654 14.3555 70.6839 14.3555C69.1797 14.3555 68.4429 14.3929 67.6908 14.4491C66.9847 14.4865 66.2633 14.5427 64.8511 14.5427C63.439 14.5427 62.6408 14.5427 61.9041 14.5614C61.1826 14.5614 60.4612 14.5801 59.003 14.5801C57.5448 14.5801 56.9615 14.4865 56.2401 14.4117C55.488 14.3181 54.7052 14.2058 53.1702 14.2058C51.7274 14.2058 51.006 14.1871 50.2846 14.1683C49.5478 14.1496 48.811 14.1309 47.3375 14.1309C45.8639 14.1309 45.1272 14.1309 44.3904 14.1496C43.669 14.1496 42.9475 14.1683 41.4894 14.1683H35.6412C34.1677 14.1683 33.0932 14.7111 32.3104 15.1229C31.5122 15.5346 31.3127 15.6282 31.0057 15.3662C30.5145 15.4972 29.9926 15.5721 29.4401 15.6095C28.9182 15.7592 28.381 15.8341 27.8284 15.8154H27.1223C26.1092 15.8154 25.1576 15.5721 24.252 15.1416C19.1867 14.9544 14.1674 13.8502 9.10211 13.7566C7.22949 13.7191 5.15732 13.6817 3.28469 14.056C2.53257 14.655 1.7344 15.1978 0.920882 15.6844C0.951581 16.4705 0.982279 17.2753 0.982279 18.8475C0.982279 20.4758 0.936231 21.2994 0.890183 22.1229C0.844135 23.0026 0.798086 23.8822 0.798086 25.6416C0.798086 27.401 0.859484 28.3181 0.905532 29.179C0.95158 30.0213 1.01298 30.8074 1.01298 32.4357C1.01298 34.0641 0.96693 34.8502 0.905532 35.6924C0.844135 36.5534 0.798086 37.4705 0.798086 39.2298C0.798086 40.9892 0.859484 41.9063 0.905532 42.7673C0.95158 43.6095 1.01298 44.3956 1.01298 46.024C1.01298 46.9785 0.767388 47.671 0.506448 48.4197C0.0306165 49.7673 -0.675456 51.8074 1.28927 54.1469C3.23864 56.4678 4.86568 55.794 6.03223 55.2887C6.66156 55.0266 7.24484 54.7833 8.05835 54.7833C9.54725 54.7833 10.2994 54.7084 11.0361 54.6523C11.7422 54.5961 12.4176 54.54 13.7837 54.54C15.1498 54.54 15.7945 54.6336 16.4852 54.7272C17.2373 54.8207 18.0048 54.933 19.509 54.933C21.0132 54.933 21.7654 54.8582 22.5021 54.7833C23.2082 54.7084 23.8682 54.6523 25.2343 54.6523C26.6925 54.6523 27.4139 54.6336 28.1507 54.5961C28.8568 54.5774 29.5629 54.54 30.975 54.54C32.3872 54.54 33.1086 54.54 33.8146 54.5587C34.5361 54.5587 35.2575 54.5774 36.7003 54.5774C38.0511 54.5774 38.7111 54.6523 39.4172 54.7459C40.154 54.8395 40.9214 54.933 42.441 54.933C43.9606 54.933 44.7281 54.8395 45.4648 54.7459C46.1556 54.6523 46.8156 54.5774 48.1663 54.5774C49.5171 54.5774 50.2539 54.6336 50.9446 54.671C51.6813 54.7272 52.4181 54.7646 53.8917 54.7646C55.3652 54.7646 56.102 54.7084 56.8387 54.671C57.5295 54.6336 58.2355 54.5774 59.617 54.5774C60.9984 54.5774 61.7813 54.5774 62.518 54.54C63.2241 54.54 63.9302 54.5026 65.3577 54.5026C66.7852 54.5026 67.4605 54.54 68.1513 54.5774C68.888 54.6149 69.6248 54.671 71.0983 54.671C72.4337 54.671 73.4008 54.2592 74.1068 53.9598C75.0431 53.5667 75.0431 53.5667 75.5957 54.278C76.0153 54.802 76.0971 55.4758 75.8413 56.2994C75.5497 57.2352 75.1659 58.5079 75.1813 60.3047C75.1813 61.3528 74.9357 62.2512 74.6901 63.1122C74.2143 64.778 73.4775 67.3234 76.1483 69.3448C76.793 69.8314 77.3916 70.0748 77.9595 70.0748C78.1744 70.0748 78.3893 70.0373 78.6042 69.9812C79.7861 69.6068 80.354 68.3341 80.8452 67.2298C81.2136 66.4063 81.5973 65.5453 82.196 65.0026C83.2704 64.0293 83.823 63.5614 84.3909 63.1122C84.9742 62.6256 85.5575 62.1389 86.6933 61.1282C87.7524 60.1737 88.305 59.7245 88.873 59.294C89.4716 58.8261 90.0856 58.3582 91.2214 57.3101C92.4033 56.2432 92.9405 55.6068 93.4624 54.9892C93.9383 54.4277 94.3987 53.9036 95.4271 52.9678C96.4863 51.9945 97.0542 51.5641 97.6068 51.1149C98.2054 50.6469 98.804 50.1603 99.9552 49.1309C100.999 48.1764 101.552 47.7646 102.119 47.3528C102.733 46.9036 103.363 46.4357 104.514 45.3689C105.588 44.3956 106.126 43.6095 106.555 42.9731C107.047 42.2432 107.323 41.8502 108.459 41.2512C109.18 40.8769 109.856 40.671 110.454 40.4838C111.943 40.0346 114 39.417 113.954 35.5801C113.923 32.0427 111.912 31.3876 110.7 30.9945L110.761 30.9197Z" fill="#231815"/>
<path d="M107.86 31.3875C105.604 29.31 105.527 29.4597 103.271 27.3822C101.03 25.3046 101.045 25.2672 98.8043 23.2084C96.548 21.1308 96.5326 21.1683 94.2762 19.1094C92.772 17.7244 91.2729 16.3456 89.7789 14.9731C87.5225 12.8955 87.6453 12.7084 85.4043 10.6308C83.1479 8.55329 83.0251 8.75917 80.7688 6.70035C78.5124 4.62281 78.8194 0.692327 76.3021 2.26452C73.7848 3.83671 76.517 5.83939 76.563 9.30195C76.5937 12.7645 78.5431 13.8126 76.517 16.2271C74.4295 18.7164 73.5852 16.2271 70.6689 16.2271C67.7525 16.2271 67.7525 16.3955 64.8361 16.3955C61.9197 16.3955 61.9197 16.433 59.0033 16.433C56.0869 16.433 56.0869 16.0586 53.1705 16.0586C50.2542 16.0586 50.2542 15.9838 47.3378 15.9838C44.4214 15.9838 44.4214 16.0399 41.505 16.0399C38.5886 16.0399 38.5886 16.0399 35.6569 16.0399C33.4773 16.0399 32.4028 17.5934 31.1134 17.3688C30.5302 17.5185 29.9315 17.5747 29.3022 17.4811C21.781 16.3581 13.8761 16.0399 6.13997 15.6656C5.5567 15.8902 4.92737 16.0212 4.23665 16.0774C3.73012 16.5078 3.17754 16.9009 2.53286 17.1629C2.53286 17.6308 2.54821 18.1362 2.54821 18.81C2.54821 22.1977 2.36402 22.1977 2.36402 25.6041C2.36402 29.0105 2.57891 28.9918 2.57891 32.3982C2.57891 35.8046 2.36402 35.7859 2.36402 39.1923C2.36402 42.5987 2.57891 42.5987 2.57891 45.9864C2.57891 49.3741 0.399297 50.4036 2.39472 52.7618C4.45154 55.195 5.24971 52.8741 8.1047 52.8741C10.9597 52.8741 10.975 52.6308 13.83 52.6308C16.685 52.6308 16.7004 53.0052 19.5553 53.0052C22.4103 53.0052 22.4257 52.7244 25.2807 52.7244C28.1357 52.7244 28.151 52.6121 31.006 52.6121C33.861 52.6121 33.8763 52.6683 36.7467 52.6683C39.617 52.6683 39.617 53.0239 42.4874 53.0239C45.3577 53.0239 45.3577 52.6495 48.228 52.6495C51.0984 52.6495 51.0984 52.8367 53.9534 52.8367C56.8083 52.8367 56.8237 52.6495 59.694 52.6495C62.5644 52.6495 62.5644 52.5934 65.4347 52.5934C68.3051 52.5934 68.305 52.7618 71.1754 52.7618C74.0457 52.7618 74.7978 50.4223 76.7933 52.949C78.8961 55.6442 76.7626 56.5052 76.7933 60.2298C76.824 63.9544 74.4448 65.7512 77.0389 67.7164C79.372 69.4945 79.1571 65.4517 81.352 63.449C83.547 61.4463 83.6391 61.5586 85.8341 59.556C88.0444 57.5533 88.1518 57.7405 90.3621 55.7378C92.5725 53.7351 92.3729 53.3982 94.5679 51.3955C96.7782 49.3929 96.8856 49.58 99.0959 47.5586C101.306 45.556 101.46 45.7993 103.67 43.7966C105.88 41.7939 105.389 40.7832 107.922 39.4544C110.731 37.9945 112.511 38.8929 112.481 35.5239C112.45 32.08 110.117 33.4651 107.876 31.3875H107.86Z" fill="#96AFD7"/>
</g>
<defs>
<clipPath id="clip0_1139_7102">
<rect width="114" height="70" fill="white"/>
</clipPath>
</defs>
</svg>
