<svg width="1033" height="1386" viewBox="0 0 1033 1386" fill="none" xmlns="http://www.w3.org/2000/svg">
<mask id="path-1-inside-1_736_27812" fill="white">
<path d="M70.5966 87.3625C66.1798 92.2654 72.6723 95.0131 72.6723 101.963C72.6723 108.914 69.6312 108.914 69.6312 115.837C69.6312 122.76 70.838 122.787 70.838 129.71C70.838 136.634 73.0585 136.66 73.0585 143.584C73.0585 150.507 70.9104 150.534 70.9104 157.457C70.9104 164.38 71.9724 164.407 71.9724 171.331C71.9724 178.254 72.9619 178.281 72.9619 185.204C72.9619 192.127 71.5138 192.154 71.5138 199.078C71.5138 206.001 72.9619 206.028 72.9619 212.951C72.9619 219.874 71.1759 219.901 71.1759 226.851C71.1759 233.802 73.2515 233.802 73.2515 240.725C73.2515 247.648 71.1518 247.675 71.1518 254.598C71.1518 261.522 73.2033 261.549 73.2033 268.472C73.2033 275.395 71.4414 275.422 71.4414 282.345C71.4414 289.269 70.5242 289.296 70.5242 296.219C70.5242 303.142 72.5275 303.169 72.5275 310.092C72.5275 317.016 69.5105 317.043 69.5105 323.966C69.5105 330.889 71.8276 330.916 71.8276 337.866C71.8276 344.816 72.6723 344.816 72.6723 351.74C72.6723 358.663 72.2861 358.69 72.2861 365.613C72.2861 372.536 69.4864 372.563 69.4864 379.487C69.4864 386.41 72.4309 386.437 72.4309 393.36C72.4309 400.283 70.8863 400.31 70.8863 407.234C70.8863 414.157 72.4068 414.184 72.4068 421.107C72.4068 428.03 72.8895 428.057 72.8895 435.007C72.8895 441.958 71.5379 441.958 71.5379 448.881C71.5379 455.804 69.4381 455.831 69.4381 462.754C69.4381 469.678 69.3175 469.705 69.3175 476.628C69.3175 483.551 70.7173 483.578 70.7173 490.501C70.7173 497.425 73.2033 497.451 73.2033 504.375C73.2033 511.298 71.9724 511.325 71.9724 518.275C71.9724 525.225 70.0415 525.225 70.0415 532.176C70.0415 539.126 73.3481 539.126 73.3481 546.049C73.3481 552.972 71.5379 552.999 71.5379 559.923C71.5379 566.846 69.052 566.873 69.052 573.796C69.052 580.719 72.0689 580.746 72.0689 587.696C72.0689 594.647 72.4792 594.647 72.4792 601.597C72.4792 608.547 71.2724 608.547 71.2724 615.47C71.2724 622.394 72.3103 622.42 72.3103 629.344C72.3103 636.267 71.6827 636.294 71.6827 643.217C71.6827 650.14 71.731 650.167 71.731 657.118C71.731 664.068 70.8863 664.068 70.8863 671.018C70.8863 677.968 73.2998 677.968 73.2998 684.891C73.2998 691.815 72.4068 691.842 72.4068 698.792C72.4068 705.742 73.2033 705.742 73.2033 712.692C73.2033 719.642 72.4309 719.643 72.4309 726.593C72.4309 733.543 69.1485 733.543 69.1485 740.466C69.1485 747.389 70.669 747.416 70.669 754.367C70.669 761.317 71.731 761.317 71.731 768.267C71.731 775.217 70.5242 775.217 70.5242 782.14C70.5242 789.064 72.0689 789.091 72.0689 796.014C72.0689 802.937 69.1726 802.964 69.1726 809.887C69.1726 816.811 70.9828 816.838 70.9828 823.761C70.9828 830.684 71.8517 830.711 71.8517 837.661C71.8517 844.612 70.0898 844.611 70.0898 851.535C70.0898 858.458 69.0278 858.485 69.0278 865.408C69.0278 872.331 72.4551 872.358 72.4551 879.282C72.4551 886.205 70.8621 886.232 70.8621 893.155C70.8621 900.078 70.4277 900.105 70.4277 907.056C70.4277 914.006 69.0278 914.006 69.0278 920.929C69.0278 927.852 69.3416 927.879 69.3416 934.802C69.3416 941.726 72.8171 941.753 72.8171 948.703C72.8171 955.653 70.1622 955.653 70.1622 962.603C70.1622 969.553 71.2 969.554 71.2 976.477C71.2 983.4 70.1863 983.427 70.1863 990.377C70.1863 997.327 72.2137 997.327 72.2137 1004.28C72.2137 1011.23 72.6964 1011.23 72.6964 1018.18C72.6964 1025.13 73.0585 1025.13 73.0585 1032.08C73.0585 1039.03 70.9104 1039.03 70.9104 1045.98C70.9104 1052.93 73.2757 1052.93 73.2757 1059.88C73.2757 1066.83 73.3481 1066.83 73.3481 1073.78C73.3481 1080.73 71.9 1080.73 71.9 1087.68C71.9 1094.63 69.8726 1094.63 69.8726 1101.58C69.8726 1108.53 69.414 1108.53 69.414 1115.48C69.414 1122.43 71.3448 1122.43 71.3448 1129.38C71.3448 1136.33 70.2587 1136.33 70.2587 1143.28C70.2587 1150.23 71.2966 1150.23 71.2966 1157.16C71.2966 1164.08 72.6964 1164.11 72.6964 1171.06C72.6964 1178.01 70.8863 1178.01 70.8863 1184.96C70.8863 1191.91 72.8895 1191.91 72.8895 1198.86C72.8895 1205.81 70.476 1205.81 70.476 1212.76C70.476 1219.71 70.838 1219.71 70.838 1226.66C70.838 1233.61 71.5862 1233.61 71.5862 1240.56C71.5862 1247.51 73.155 1247.51 73.155 1254.46C73.155 1261.41 71.2724 1261.41 71.2724 1268.36C71.2724 1275.31 72.7688 1275.31 72.7688 1282.26C72.7688 1289.21 72.5758 1289.21 72.5758 1296.19C72.5758 1303.16 67.1935 1304.7 71.5862 1309.63C75.9789 1314.56 77.3787 1308.12 83.6057 1308.12C89.8326 1308.12 89.8326 1309.04 96.0596 1309.04C102.287 1309.04 102.287 1308.52 108.514 1308.52C114.74 1308.52 114.74 1307.99 120.967 1307.99C127.194 1307.99 127.194 1309.52 133.421 1309.52C139.648 1309.52 139.648 1308.93 145.875 1308.93C152.102 1308.93 152.102 1307.99 158.329 1307.99C164.556 1307.99 164.556 1310.03 170.783 1310.03C177.01 1310.03 177.01 1309.98 183.237 1309.98C189.464 1309.98 189.464 1309.2 195.691 1309.2C201.918 1309.2 201.918 1310.11 208.145 1310.11C214.372 1310.11 214.372 1308.66 220.599 1308.66C226.826 1308.66 226.826 1312.19 233.053 1312.19C239.28 1312.19 239.28 1308.07 245.507 1308.07C251.734 1308.07 251.734 1310.22 257.961 1310.22C264.188 1310.22 264.188 1307.77 270.415 1307.77C276.642 1307.77 276.642 1311.11 282.868 1311.11C289.095 1311.11 289.095 1307.88 295.322 1307.88C301.549 1307.88 301.549 1310.95 307.776 1310.95C314.003 1310.95 314.003 1309.39 320.23 1309.39C326.457 1309.39 326.457 1311.11 332.684 1311.11C338.911 1311.11 338.911 1309.49 345.138 1309.49C351.365 1309.49 351.365 1309.44 357.592 1309.44C363.819 1309.44 363.819 1309.33 370.046 1309.33C376.273 1309.33 376.273 1307.88 382.5 1307.88C388.727 1307.88 388.727 1307.77 394.954 1307.77C401.181 1307.77 401.181 1309.71 407.408 1309.71C413.635 1309.71 413.635 1308.47 419.862 1308.47C426.089 1308.47 426.089 1311.84 432.316 1311.84C438.543 1311.84 438.543 1309.68 444.77 1309.68C450.996 1309.68 450.996 1308.93 457.223 1308.93C463.45 1308.93 463.45 1310.84 469.677 1310.84C475.904 1310.84 475.904 1311.3 482.131 1311.3C488.358 1311.3 488.358 1310.17 494.585 1310.17C500.812 1310.17 500.812 1311.19 507.039 1311.19C513.266 1311.19 513.266 1311.7 519.493 1311.7C525.72 1311.7 525.72 1311.16 531.947 1311.16C538.174 1311.16 538.174 1311.27 544.401 1311.27C550.628 1311.27 550.628 1312.43 556.855 1312.43C563.082 1312.43 563.082 1309.9 569.309 1309.9C575.536 1309.9 575.536 1311 581.763 1311C587.99 1311 587.99 1309.63 594.217 1309.63C600.444 1309.63 600.444 1309.95 606.671 1309.95C612.897 1309.95 612.897 1308.52 619.124 1308.52C625.351 1308.52 625.351 1309.36 631.578 1309.36C637.805 1309.36 637.805 1308.58 644.032 1308.58C650.259 1308.58 650.259 1309.84 656.486 1309.84C662.713 1309.84 662.713 1309.28 668.94 1309.28C675.167 1309.28 675.167 1311.16 681.394 1311.16C687.621 1311.16 687.621 1309.6 693.848 1309.6C700.075 1309.6 700.075 1312.24 706.302 1312.24C712.529 1312.24 712.529 1308.23 718.756 1308.23C724.983 1308.23 724.983 1311.7 731.21 1311.7C737.437 1311.7 737.437 1309.31 743.664 1309.31C749.891 1309.31 749.891 1311.19 756.118 1311.19C762.345 1311.19 762.345 1307.99 768.572 1307.99C774.798 1307.99 774.798 1307.85 781.025 1307.85C787.252 1307.85 787.252 1311.16 793.479 1311.16C799.706 1311.16 799.706 1308.82 805.957 1308.82C812.208 1308.82 812.184 1310.33 818.411 1310.33C824.638 1310.33 824.638 1310.41 830.865 1310.41C837.092 1310.41 837.092 1309.44 843.319 1309.44C849.546 1309.44 849.546 1311.86 855.773 1311.86C862 1311.86 862 1309.01 868.227 1309.01C874.454 1309.01 874.454 1309.49 880.705 1309.49C886.956 1309.49 886.932 1308.17 893.183 1308.17C899.434 1308.17 899.41 1310.52 905.661 1310.52C911.912 1310.52 911.888 1310.36 918.139 1310.36C924.39 1310.36 924.366 1309.57 930.617 1309.57C936.868 1309.57 936.844 1308.69 943.095 1308.69C949.347 1308.69 949.347 1310.44 955.574 1310.44C961.801 1310.44 962.814 1314.05 967.231 1309.14C971.648 1304.24 970.175 1303.14 970.175 1296.19C970.175 1289.24 966.628 1289.24 966.628 1282.31C966.628 1275.39 967.786 1275.36 967.786 1268.44C967.786 1261.52 965.928 1261.49 965.928 1254.57C965.928 1247.64 968.389 1247.62 968.389 1240.69C968.389 1233.77 966.676 1233.74 966.676 1226.82C966.676 1219.9 969.693 1219.87 969.693 1212.95C969.693 1206.02 966.797 1206 966.797 1199.07C966.797 1192.15 968.631 1192.12 968.631 1185.2C968.631 1178.28 966.724 1178.25 966.724 1171.3C966.724 1164.35 968.124 1164.35 968.124 1157.42C968.124 1150.5 968.389 1150.47 968.389 1143.55C968.389 1136.63 968.727 1136.6 968.727 1129.68C968.727 1122.75 969.693 1122.73 969.693 1115.8C969.693 1108.88 968.1 1108.85 968.1 1101.93C968.1 1095.01 966.603 1094.98 966.603 1088.06C966.603 1081.13 967.665 1081.11 967.665 1074.18C967.665 1067.26 966.941 1067.23 966.941 1060.28C966.941 1053.33 969.138 1053.33 969.138 1046.41C969.138 1039.49 966.072 1039.46 966.072 1032.54C966.072 1025.61 966.845 1025.59 966.845 1018.66C966.845 1011.74 968.1 1011.71 968.1 1004.79C968.1 997.866 967.231 997.839 967.231 990.916C967.231 983.993 969.089 983.966 969.089 977.042C969.089 970.119 967.593 970.092 967.593 963.142C967.593 956.192 968.92 956.192 968.92 949.242C968.92 942.291 965.855 942.291 965.855 935.368C965.855 928.445 966.266 928.418 966.266 921.495C966.266 914.545 968.317 914.545 968.317 907.621C968.317 900.698 968.751 900.671 968.751 893.748C968.751 886.824 967.762 886.798 967.762 879.847C967.762 872.897 968.92 872.897 968.92 865.947C968.92 858.997 966.821 858.997 966.821 852.073C966.821 845.15 966.41 845.123 966.41 838.2C966.41 831.277 969.186 831.25 969.186 824.327C969.186 817.403 967.376 817.376 967.376 810.426C967.376 803.476 966.169 803.476 966.169 796.526C966.169 789.576 967.014 789.576 967.014 782.652C967.014 775.729 967.496 775.702 967.496 768.779C967.496 761.856 969.017 761.829 969.017 754.905C969.017 747.982 967.979 747.955 967.979 741.005C967.979 734.055 968.172 734.055 968.172 727.105C968.172 720.154 968.631 720.154 968.631 713.231C968.631 706.308 969.717 706.281 969.717 699.331C969.717 692.38 968.92 692.38 968.92 685.43C968.92 678.48 966.41 678.48 966.41 671.53C966.41 664.58 965.928 664.58 965.928 657.656C965.928 650.733 968.365 650.706 968.365 643.756C968.365 636.806 966.29 636.806 966.29 629.856C966.29 622.905 965.928 622.905 965.928 615.982C965.928 609.059 969.258 609.032 969.258 602.109C969.258 595.185 966.241 595.158 966.241 588.235C966.241 581.312 966.603 581.285 966.603 574.362C966.603 567.438 969.017 567.411 969.017 560.461C969.017 553.511 967.738 553.511 967.738 546.588C967.738 539.665 968.655 539.638 968.655 532.714C968.655 525.791 967.81 525.764 967.81 518.841C967.81 511.918 969.379 511.891 969.379 504.967C969.379 498.044 966.603 498.017 966.603 491.067C966.603 484.117 969.813 484.117 969.813 477.194C969.813 470.27 966.314 470.243 966.314 463.32C966.314 456.397 967.593 456.37 967.593 449.42C967.593 442.469 968.438 442.469 968.438 435.519C968.438 428.569 969.596 428.569 969.596 421.646C969.596 414.723 967.834 414.696 967.834 407.745C967.834 400.795 968.389 400.795 968.389 393.845C968.389 386.895 969.114 386.895 969.114 379.945C969.114 372.994 967.569 372.994 967.569 366.044C967.569 359.094 965.928 359.094 965.928 352.144C965.928 345.194 970.007 345.194 970.007 338.243C970.007 331.293 970.079 331.293 970.079 324.343C970.079 317.393 970.151 317.393 970.151 310.442C970.151 303.492 968.027 303.492 968.027 296.542C968.027 289.592 967.11 289.592 967.11 282.642C967.11 275.691 967.81 275.691 967.81 268.741C967.81 261.791 969.162 261.791 969.162 254.841C969.162 247.891 966.676 247.891 966.676 240.967C966.676 234.044 968.341 234.017 968.341 227.067C968.341 220.117 965.879 220.117 965.879 213.167C965.879 206.216 967.183 206.216 967.183 199.266C967.183 192.316 966.966 192.316 966.966 185.366C966.966 178.416 967.014 178.416 967.014 171.465C967.014 164.515 966.338 164.515 966.338 157.565C966.338 150.615 968.776 150.615 968.776 143.665C968.776 136.714 967.665 136.714 967.665 129.764C967.665 122.814 966.603 122.814 966.603 115.864C966.603 108.914 967.81 108.914 967.81 101.936C967.81 94.9592 972.855 92.4 968.438 87.4972C964.045 82.5674 961.728 88.6286 955.501 88.6286C949.274 88.6286 949.274 86.7968 943.047 86.7968C936.82 86.7968 936.82 89.1943 930.593 89.1943C924.366 89.1943 924.366 90.3527 918.139 90.3527C911.912 90.3527 911.912 87.4164 905.685 87.4164C899.458 87.4164 899.458 89.9756 893.231 89.9756C887.004 89.9756 887.004 87.6858 880.778 87.6858C874.551 87.6858 874.551 86.6082 868.324 86.6082C862.097 86.6082 862.097 85.6923 855.87 85.6923C849.643 85.6923 849.643 86.8776 843.416 86.8776C837.189 86.8776 837.189 87.0123 830.962 87.0123C824.735 87.0123 824.735 85.6115 818.508 85.6115C812.281 85.6115 812.281 88.8172 806.054 88.8172C799.827 88.8172 799.827 89.76 793.6 89.76C787.373 89.76 787.373 89.5445 781.146 89.5445C774.919 89.5445 774.919 89.1943 768.692 89.1943C762.465 89.1943 762.465 89.6523 756.238 89.6523C750.011 89.6523 750.011 89.1135 743.784 89.1135C737.557 89.1135 737.557 89.7062 731.33 89.7062C725.103 89.7062 725.103 87.6049 718.877 87.6049C712.65 87.6049 712.65 89.8678 706.423 89.8678C700.196 89.8678 700.196 90.0294 693.969 90.0294C687.742 90.0294 687.742 86.689 681.515 86.689C675.288 86.689 675.288 87.8205 669.061 87.8205C662.834 87.8205 662.834 88.898 656.607 88.898C650.38 88.898 650.38 89.8139 644.153 89.8139C637.926 89.8139 637.926 87.7127 631.699 87.7127C625.472 87.7127 625.472 88.3054 619.245 88.3054C613.018 88.3054 613.018 86.716 606.791 86.716C600.564 86.716 600.564 88.1976 594.337 88.1976C588.11 88.1976 588.11 89.6792 581.883 89.6792C575.656 89.6792 575.656 87.6858 569.429 87.6858C563.202 87.6858 563.202 89.2482 556.975 89.2482C550.749 89.2482 550.749 86.9045 544.522 86.9045C538.295 86.9045 538.295 88.467 532.068 88.467C525.841 88.467 525.841 90.0564 519.614 90.0564C513.387 90.0564 513.387 88.3592 507.16 88.3592C500.933 88.3592 500.933 86.689 494.706 86.689C488.479 86.689 488.479 88.8172 482.252 88.8172C476.025 88.8172 476.025 87.147 469.798 87.147C463.571 87.147 463.571 89.0866 457.344 89.0866C451.117 89.0866 451.117 87.5511 444.89 87.5511C438.663 87.5511 438.663 86.1503 432.436 86.1503C426.209 86.1503 426.209 87.8205 419.982 87.8205C413.755 87.8205 413.755 87.3086 407.528 87.3086C401.301 87.3086 401.301 90.1911 395.074 90.1911C388.848 90.1911 388.848 85.6115 382.621 85.6115C376.394 85.6115 376.394 86.2311 370.167 86.2311C363.94 86.2311 363.94 89.7062 357.713 89.7062C351.486 89.7062 351.486 90.0564 345.259 90.0564C339.032 90.0564 339.032 86.258 332.805 86.258C326.578 86.258 326.578 89.1405 320.351 89.1405C314.124 89.1405 314.124 89.76 307.897 89.76C301.67 89.76 301.67 86.3927 295.443 86.3927C289.216 86.3927 289.216 85.6384 282.989 85.6384C276.762 85.6384 276.762 88.1437 270.535 88.1437C264.308 88.1437 264.308 86.2041 258.081 86.2041C251.854 86.2041 251.854 87.8743 245.627 87.8743C239.4 87.8743 239.4 86.3388 233.149 86.3388C226.898 86.3388 226.922 87.6049 220.695 87.6049C214.468 87.6049 214.468 87.147 208.241 87.147C202.015 87.147 202.015 88.2515 195.788 88.2515C189.561 88.2515 189.561 86.8776 183.334 86.8776C177.107 86.8776 177.107 89.1405 170.88 89.1405C164.653 89.1405 164.653 88.6017 158.402 88.6017C152.151 88.6017 152.175 86.6352 145.924 86.6352C139.672 86.6352 139.697 86.7968 133.446 86.7968C127.194 86.7968 127.219 88.7903 120.967 88.7903C114.716 88.7903 114.74 87.6049 108.514 87.6049C102.287 87.6049 102.287 86.6352 96.0355 86.6352C89.7844 86.6352 89.4948 90.2988 83.4126 88.6825C76.5823 86.8776 74.8445 82.4058 70.4277 87.3356L70.5966 87.3625ZM147.251 1232.02C145.248 1236.19 144.91 1240.64 142.858 1242.44C139.769 1245.22 135.473 1242.87 132.552 1243.49C128.522 1244.33 124.274 1244.89 120.147 1242.98C115.802 1240.96 110.3 1238.97 108.61 1234.93C107.138 1231.43 108.538 1226.31 108.779 1221.89C108.996 1217.85 108.876 1213.32 110.372 1209.44C112.23 1204.62 119.881 1199.04 123.236 1197.51C130.139 1194.28 135.183 1198.86 138.755 1200.74C141.579 1202.25 145.2 1202.74 147.082 1206C148.772 1208.93 148.796 1214.67 149.399 1219.55C149.978 1224.12 148.989 1228.41 147.251 1232.04V1232.02ZM147.251 1100.31C145.248 1104.49 144.91 1108.93 142.858 1110.74C139.769 1113.51 135.473 1111.17 132.552 1111.79C128.522 1112.63 124.274 1113.19 120.147 1111.28C115.802 1109.26 110.3 1107.26 108.61 1103.22C107.138 1099.72 108.538 1094.6 108.779 1090.19C108.996 1086.14 108.876 1081.62 110.372 1077.74C112.23 1072.92 119.881 1067.34 123.236 1065.81C130.139 1062.57 135.183 1067.15 138.755 1069.04C141.579 1070.55 145.2 1071.03 147.082 1074.29C148.772 1077.23 148.796 1082.97 149.399 1087.84C149.978 1092.42 148.989 1096.7 147.251 1100.34V1100.31ZM147.251 968.611C145.248 972.786 144.91 977.231 142.858 979.036C139.769 981.811 135.473 979.467 132.552 980.087C128.522 980.922 124.274 981.487 120.147 979.575C115.802 977.554 110.3 975.561 108.61 971.52C107.138 968.018 108.538 962.9 108.779 958.482C108.996 954.441 108.876 949.915 110.372 946.036C112.23 941.214 119.881 935.638 123.236 934.102C130.139 930.869 135.183 935.449 138.755 937.335C141.579 938.843 145.2 939.328 147.082 942.588C148.772 945.524 148.796 951.262 149.399 956.138C149.978 960.718 148.989 965.001 147.251 968.638V968.611ZM147.251 836.934C145.248 841.109 144.91 845.554 142.858 847.359C139.769 850.134 135.473 847.79 132.552 848.41C128.522 849.245 124.274 849.811 120.147 847.898C115.802 845.878 110.3 843.884 108.61 839.843C107.138 836.341 108.538 831.223 108.779 826.805C108.996 822.764 108.876 818.238 110.372 814.359C112.23 809.537 119.881 803.961 123.236 802.425C130.139 799.193 135.183 803.772 138.755 805.658C141.579 807.167 145.2 807.651 147.082 810.911C148.772 813.847 148.796 819.585 149.399 824.461C149.978 829.041 148.989 833.324 147.251 836.961V836.934ZM147.251 705.23C145.248 709.406 144.91 713.851 142.858 715.656C139.769 718.43 135.473 716.087 132.552 716.706C128.522 717.541 124.274 718.107 120.147 716.194C115.802 714.174 110.3 712.18 108.61 708.14C107.138 704.638 108.538 699.519 108.779 695.101C108.996 691.06 108.876 686.535 110.372 682.656C112.23 677.834 119.881 672.257 123.236 670.722C130.139 667.489 135.183 672.069 138.755 673.954C141.579 675.463 145.2 675.948 147.082 679.207C148.772 682.144 148.796 687.882 149.399 692.758C149.978 697.337 148.989 701.62 147.251 705.257V705.23ZM147.251 573.527C145.248 577.702 144.91 582.147 142.858 583.952C139.769 586.727 135.473 584.383 132.552 585.003C128.522 585.838 124.274 586.403 120.147 584.491C115.802 582.47 110.3 580.477 108.61 576.436C107.138 572.934 108.538 567.816 108.779 563.398C108.996 559.357 108.876 554.831 110.372 550.952C112.23 546.13 119.881 540.554 123.236 539.018C130.139 535.785 135.183 540.365 138.755 542.251C141.579 543.759 145.2 544.244 147.082 547.504C148.772 550.44 148.796 556.178 149.399 561.054C149.978 565.634 148.989 569.917 147.251 573.554V573.527ZM147.251 441.823C145.248 445.998 144.91 450.443 142.858 452.248C139.769 455.023 135.473 452.679 132.552 453.299C128.522 454.134 124.274 454.7 120.147 452.787C115.802 450.767 110.3 448.773 108.61 444.732C107.138 441.23 108.538 436.112 108.779 431.694C108.996 427.653 108.876 423.127 110.372 419.248C112.23 414.426 119.881 408.85 123.236 407.314C130.139 404.082 135.183 408.661 138.755 410.547C141.579 412.056 145.2 412.54 147.082 415.8C148.772 418.736 148.796 424.474 149.399 429.35C149.978 433.93 148.989 438.213 147.251 441.85V441.823ZM147.251 310.119C145.248 314.295 144.91 318.74 142.858 320.545C139.769 323.319 135.473 320.976 132.552 321.595C128.522 322.43 124.274 322.996 120.147 321.083C115.802 319.063 110.3 317.069 108.61 313.029C107.138 309.527 108.538 304.408 108.779 299.99C108.996 295.949 108.876 291.424 110.372 287.545C112.23 282.722 119.881 277.146 123.236 275.611C130.139 272.378 135.183 276.958 138.755 278.843C141.579 280.352 145.2 280.837 147.082 284.096C148.772 287.033 148.796 292.771 149.399 297.647C149.978 302.226 148.989 306.509 147.251 310.146V310.119ZM147.251 178.416C145.248 182.591 144.91 187.036 142.858 188.841C139.769 191.616 135.473 189.272 132.552 189.891C128.522 190.727 124.274 191.292 120.147 189.38C115.802 187.359 110.3 185.366 108.61 181.325C107.138 177.823 108.538 172.705 108.779 168.287C108.996 164.246 108.876 159.72 110.372 155.841C112.23 151.019 119.881 145.442 123.236 143.907C130.139 140.674 135.183 145.254 138.755 147.14C141.579 148.648 145.2 149.133 147.082 152.393C148.772 155.329 148.796 161.067 149.399 165.943C149.978 170.522 148.989 174.806 147.251 178.442V178.416Z"/>
</mask>
<path d="M70.5966 87.3625C66.1798 92.2654 72.6723 95.0131 72.6723 101.963C72.6723 108.914 69.6312 108.914 69.6312 115.837C69.6312 122.76 70.838 122.787 70.838 129.71C70.838 136.634 73.0585 136.66 73.0585 143.584C73.0585 150.507 70.9104 150.534 70.9104 157.457C70.9104 164.38 71.9724 164.407 71.9724 171.331C71.9724 178.254 72.9619 178.281 72.9619 185.204C72.9619 192.127 71.5138 192.154 71.5138 199.078C71.5138 206.001 72.9619 206.028 72.9619 212.951C72.9619 219.874 71.1759 219.901 71.1759 226.851C71.1759 233.802 73.2515 233.802 73.2515 240.725C73.2515 247.648 71.1518 247.675 71.1518 254.598C71.1518 261.522 73.2033 261.549 73.2033 268.472C73.2033 275.395 71.4414 275.422 71.4414 282.345C71.4414 289.269 70.5242 289.296 70.5242 296.219C70.5242 303.142 72.5275 303.169 72.5275 310.092C72.5275 317.016 69.5105 317.043 69.5105 323.966C69.5105 330.889 71.8276 330.916 71.8276 337.866C71.8276 344.816 72.6723 344.816 72.6723 351.74C72.6723 358.663 72.2861 358.69 72.2861 365.613C72.2861 372.536 69.4864 372.563 69.4864 379.487C69.4864 386.41 72.4309 386.437 72.4309 393.36C72.4309 400.283 70.8863 400.31 70.8863 407.234C70.8863 414.157 72.4068 414.184 72.4068 421.107C72.4068 428.03 72.8895 428.057 72.8895 435.007C72.8895 441.958 71.5379 441.958 71.5379 448.881C71.5379 455.804 69.4381 455.831 69.4381 462.754C69.4381 469.678 69.3175 469.705 69.3175 476.628C69.3175 483.551 70.7173 483.578 70.7173 490.501C70.7173 497.425 73.2033 497.451 73.2033 504.375C73.2033 511.298 71.9724 511.325 71.9724 518.275C71.9724 525.225 70.0415 525.225 70.0415 532.176C70.0415 539.126 73.3481 539.126 73.3481 546.049C73.3481 552.972 71.5379 552.999 71.5379 559.923C71.5379 566.846 69.052 566.873 69.052 573.796C69.052 580.719 72.0689 580.746 72.0689 587.696C72.0689 594.647 72.4792 594.647 72.4792 601.597C72.4792 608.547 71.2724 608.547 71.2724 615.47C71.2724 622.394 72.3103 622.42 72.3103 629.344C72.3103 636.267 71.6827 636.294 71.6827 643.217C71.6827 650.14 71.731 650.167 71.731 657.118C71.731 664.068 70.8863 664.068 70.8863 671.018C70.8863 677.968 73.2998 677.968 73.2998 684.891C73.2998 691.815 72.4068 691.842 72.4068 698.792C72.4068 705.742 73.2033 705.742 73.2033 712.692C73.2033 719.642 72.4309 719.643 72.4309 726.593C72.4309 733.543 69.1485 733.543 69.1485 740.466C69.1485 747.389 70.669 747.416 70.669 754.367C70.669 761.317 71.731 761.317 71.731 768.267C71.731 775.217 70.5242 775.217 70.5242 782.14C70.5242 789.064 72.0689 789.091 72.0689 796.014C72.0689 802.937 69.1726 802.964 69.1726 809.887C69.1726 816.811 70.9828 816.838 70.9828 823.761C70.9828 830.684 71.8517 830.711 71.8517 837.661C71.8517 844.612 70.0898 844.611 70.0898 851.535C70.0898 858.458 69.0278 858.485 69.0278 865.408C69.0278 872.331 72.4551 872.358 72.4551 879.282C72.4551 886.205 70.8621 886.232 70.8621 893.155C70.8621 900.078 70.4277 900.105 70.4277 907.056C70.4277 914.006 69.0278 914.006 69.0278 920.929C69.0278 927.852 69.3416 927.879 69.3416 934.802C69.3416 941.726 72.8171 941.753 72.8171 948.703C72.8171 955.653 70.1622 955.653 70.1622 962.603C70.1622 969.553 71.2 969.554 71.2 976.477C71.2 983.4 70.1863 983.427 70.1863 990.377C70.1863 997.327 72.2137 997.327 72.2137 1004.28C72.2137 1011.23 72.6964 1011.23 72.6964 1018.18C72.6964 1025.13 73.0585 1025.13 73.0585 1032.08C73.0585 1039.03 70.9104 1039.03 70.9104 1045.98C70.9104 1052.93 73.2757 1052.93 73.2757 1059.88C73.2757 1066.83 73.3481 1066.83 73.3481 1073.78C73.3481 1080.73 71.9 1080.73 71.9 1087.68C71.9 1094.63 69.8726 1094.63 69.8726 1101.58C69.8726 1108.53 69.414 1108.53 69.414 1115.48C69.414 1122.43 71.3448 1122.43 71.3448 1129.38C71.3448 1136.33 70.2587 1136.33 70.2587 1143.28C70.2587 1150.23 71.2966 1150.23 71.2966 1157.16C71.2966 1164.08 72.6964 1164.11 72.6964 1171.06C72.6964 1178.01 70.8863 1178.01 70.8863 1184.96C70.8863 1191.91 72.8895 1191.91 72.8895 1198.86C72.8895 1205.81 70.476 1205.81 70.476 1212.76C70.476 1219.71 70.838 1219.71 70.838 1226.66C70.838 1233.61 71.5862 1233.61 71.5862 1240.56C71.5862 1247.51 73.155 1247.51 73.155 1254.46C73.155 1261.41 71.2724 1261.41 71.2724 1268.36C71.2724 1275.31 72.7688 1275.31 72.7688 1282.26C72.7688 1289.21 72.5758 1289.21 72.5758 1296.19C72.5758 1303.16 67.1935 1304.7 71.5862 1309.63C75.9789 1314.56 77.3787 1308.12 83.6057 1308.12C89.8326 1308.12 89.8326 1309.04 96.0596 1309.04C102.287 1309.04 102.287 1308.52 108.514 1308.52C114.74 1308.52 114.74 1307.99 120.967 1307.99C127.194 1307.99 127.194 1309.52 133.421 1309.52C139.648 1309.52 139.648 1308.93 145.875 1308.93C152.102 1308.93 152.102 1307.99 158.329 1307.99C164.556 1307.99 164.556 1310.03 170.783 1310.03C177.01 1310.03 177.01 1309.98 183.237 1309.98C189.464 1309.98 189.464 1309.2 195.691 1309.2C201.918 1309.2 201.918 1310.11 208.145 1310.11C214.372 1310.11 214.372 1308.66 220.599 1308.66C226.826 1308.66 226.826 1312.19 233.053 1312.19C239.28 1312.19 239.28 1308.07 245.507 1308.07C251.734 1308.07 251.734 1310.22 257.961 1310.22C264.188 1310.22 264.188 1307.77 270.415 1307.77C276.642 1307.77 276.642 1311.11 282.868 1311.11C289.095 1311.11 289.095 1307.88 295.322 1307.88C301.549 1307.88 301.549 1310.95 307.776 1310.95C314.003 1310.95 314.003 1309.39 320.23 1309.39C326.457 1309.39 326.457 1311.11 332.684 1311.11C338.911 1311.11 338.911 1309.49 345.138 1309.49C351.365 1309.49 351.365 1309.44 357.592 1309.44C363.819 1309.44 363.819 1309.33 370.046 1309.33C376.273 1309.33 376.273 1307.88 382.5 1307.88C388.727 1307.88 388.727 1307.77 394.954 1307.77C401.181 1307.77 401.181 1309.71 407.408 1309.71C413.635 1309.71 413.635 1308.47 419.862 1308.47C426.089 1308.47 426.089 1311.84 432.316 1311.84C438.543 1311.84 438.543 1309.68 444.77 1309.68C450.996 1309.68 450.996 1308.93 457.223 1308.93C463.45 1308.93 463.45 1310.84 469.677 1310.84C475.904 1310.84 475.904 1311.3 482.131 1311.3C488.358 1311.3 488.358 1310.17 494.585 1310.17C500.812 1310.17 500.812 1311.19 507.039 1311.19C513.266 1311.19 513.266 1311.7 519.493 1311.7C525.72 1311.7 525.72 1311.16 531.947 1311.16C538.174 1311.16 538.174 1311.27 544.401 1311.27C550.628 1311.27 550.628 1312.43 556.855 1312.43C563.082 1312.43 563.082 1309.9 569.309 1309.9C575.536 1309.9 575.536 1311 581.763 1311C587.99 1311 587.99 1309.63 594.217 1309.63C600.444 1309.63 600.444 1309.95 606.671 1309.95C612.897 1309.95 612.897 1308.52 619.124 1308.52C625.351 1308.52 625.351 1309.36 631.578 1309.36C637.805 1309.36 637.805 1308.58 644.032 1308.58C650.259 1308.58 650.259 1309.84 656.486 1309.84C662.713 1309.84 662.713 1309.28 668.94 1309.28C675.167 1309.28 675.167 1311.16 681.394 1311.16C687.621 1311.16 687.621 1309.6 693.848 1309.6C700.075 1309.6 700.075 1312.24 706.302 1312.24C712.529 1312.24 712.529 1308.23 718.756 1308.23C724.983 1308.23 724.983 1311.7 731.21 1311.7C737.437 1311.7 737.437 1309.31 743.664 1309.31C749.891 1309.31 749.891 1311.19 756.118 1311.19C762.345 1311.19 762.345 1307.99 768.572 1307.99C774.798 1307.99 774.798 1307.85 781.025 1307.85C787.252 1307.85 787.252 1311.16 793.479 1311.16C799.706 1311.16 799.706 1308.82 805.957 1308.82C812.208 1308.82 812.184 1310.33 818.411 1310.33C824.638 1310.33 824.638 1310.41 830.865 1310.41C837.092 1310.41 837.092 1309.44 843.319 1309.44C849.546 1309.44 849.546 1311.86 855.773 1311.86C862 1311.86 862 1309.01 868.227 1309.01C874.454 1309.01 874.454 1309.49 880.705 1309.49C886.956 1309.49 886.932 1308.17 893.183 1308.17C899.434 1308.17 899.41 1310.52 905.661 1310.52C911.912 1310.52 911.888 1310.36 918.139 1310.36C924.39 1310.36 924.366 1309.57 930.617 1309.57C936.868 1309.57 936.844 1308.69 943.095 1308.69C949.347 1308.69 949.347 1310.44 955.574 1310.44C961.801 1310.44 962.814 1314.05 967.231 1309.14C971.648 1304.24 970.175 1303.14 970.175 1296.19C970.175 1289.24 966.628 1289.24 966.628 1282.31C966.628 1275.39 967.786 1275.36 967.786 1268.44C967.786 1261.52 965.928 1261.49 965.928 1254.57C965.928 1247.64 968.389 1247.62 968.389 1240.69C968.389 1233.77 966.676 1233.74 966.676 1226.82C966.676 1219.9 969.693 1219.87 969.693 1212.95C969.693 1206.02 966.797 1206 966.797 1199.07C966.797 1192.15 968.631 1192.12 968.631 1185.2C968.631 1178.28 966.724 1178.25 966.724 1171.3C966.724 1164.35 968.124 1164.35 968.124 1157.42C968.124 1150.5 968.389 1150.47 968.389 1143.55C968.389 1136.63 968.727 1136.6 968.727 1129.68C968.727 1122.75 969.693 1122.73 969.693 1115.8C969.693 1108.88 968.1 1108.85 968.1 1101.93C968.1 1095.01 966.603 1094.98 966.603 1088.06C966.603 1081.13 967.665 1081.11 967.665 1074.18C967.665 1067.26 966.941 1067.23 966.941 1060.28C966.941 1053.33 969.138 1053.33 969.138 1046.41C969.138 1039.49 966.072 1039.46 966.072 1032.54C966.072 1025.61 966.845 1025.59 966.845 1018.66C966.845 1011.74 968.1 1011.71 968.1 1004.79C968.1 997.866 967.231 997.839 967.231 990.916C967.231 983.993 969.089 983.966 969.089 977.042C969.089 970.119 967.593 970.092 967.593 963.142C967.593 956.192 968.92 956.192 968.92 949.242C968.92 942.291 965.855 942.291 965.855 935.368C965.855 928.445 966.266 928.418 966.266 921.495C966.266 914.545 968.317 914.545 968.317 907.621C968.317 900.698 968.751 900.671 968.751 893.748C968.751 886.824 967.762 886.798 967.762 879.847C967.762 872.897 968.92 872.897 968.92 865.947C968.92 858.997 966.821 858.997 966.821 852.073C966.821 845.15 966.41 845.123 966.41 838.2C966.41 831.277 969.186 831.25 969.186 824.327C969.186 817.403 967.376 817.376 967.376 810.426C967.376 803.476 966.169 803.476 966.169 796.526C966.169 789.576 967.014 789.576 967.014 782.652C967.014 775.729 967.496 775.702 967.496 768.779C967.496 761.856 969.017 761.829 969.017 754.905C969.017 747.982 967.979 747.955 967.979 741.005C967.979 734.055 968.172 734.055 968.172 727.105C968.172 720.154 968.631 720.154 968.631 713.231C968.631 706.308 969.717 706.281 969.717 699.331C969.717 692.38 968.92 692.38 968.92 685.43C968.92 678.48 966.41 678.48 966.41 671.53C966.41 664.58 965.928 664.58 965.928 657.656C965.928 650.733 968.365 650.706 968.365 643.756C968.365 636.806 966.29 636.806 966.29 629.856C966.29 622.905 965.928 622.905 965.928 615.982C965.928 609.059 969.258 609.032 969.258 602.109C969.258 595.185 966.241 595.158 966.241 588.235C966.241 581.312 966.603 581.285 966.603 574.362C966.603 567.438 969.017 567.411 969.017 560.461C969.017 553.511 967.738 553.511 967.738 546.588C967.738 539.665 968.655 539.638 968.655 532.714C968.655 525.791 967.81 525.764 967.81 518.841C967.81 511.918 969.379 511.891 969.379 504.967C969.379 498.044 966.603 498.017 966.603 491.067C966.603 484.117 969.813 484.117 969.813 477.194C969.813 470.27 966.314 470.243 966.314 463.32C966.314 456.397 967.593 456.37 967.593 449.42C967.593 442.469 968.438 442.469 968.438 435.519C968.438 428.569 969.596 428.569 969.596 421.646C969.596 414.723 967.834 414.696 967.834 407.745C967.834 400.795 968.389 400.795 968.389 393.845C968.389 386.895 969.114 386.895 969.114 379.945C969.114 372.994 967.569 372.994 967.569 366.044C967.569 359.094 965.928 359.094 965.928 352.144C965.928 345.194 970.007 345.194 970.007 338.243C970.007 331.293 970.079 331.293 970.079 324.343C970.079 317.393 970.151 317.393 970.151 310.442C970.151 303.492 968.027 303.492 968.027 296.542C968.027 289.592 967.11 289.592 967.11 282.642C967.11 275.691 967.81 275.691 967.81 268.741C967.81 261.791 969.162 261.791 969.162 254.841C969.162 247.891 966.676 247.891 966.676 240.967C966.676 234.044 968.341 234.017 968.341 227.067C968.341 220.117 965.879 220.117 965.879 213.167C965.879 206.216 967.183 206.216 967.183 199.266C967.183 192.316 966.966 192.316 966.966 185.366C966.966 178.416 967.014 178.416 967.014 171.465C967.014 164.515 966.338 164.515 966.338 157.565C966.338 150.615 968.776 150.615 968.776 143.665C968.776 136.714 967.665 136.714 967.665 129.764C967.665 122.814 966.603 122.814 966.603 115.864C966.603 108.914 967.81 108.914 967.81 101.936C967.81 94.9592 972.855 92.4 968.438 87.4972C964.045 82.5674 961.728 88.6286 955.501 88.6286C949.274 88.6286 949.274 86.7968 943.047 86.7968C936.82 86.7968 936.82 89.1943 930.593 89.1943C924.366 89.1943 924.366 90.3527 918.139 90.3527C911.912 90.3527 911.912 87.4164 905.685 87.4164C899.458 87.4164 899.458 89.9756 893.231 89.9756C887.004 89.9756 887.004 87.6858 880.778 87.6858C874.551 87.6858 874.551 86.6082 868.324 86.6082C862.097 86.6082 862.097 85.6923 855.87 85.6923C849.643 85.6923 849.643 86.8776 843.416 86.8776C837.189 86.8776 837.189 87.0123 830.962 87.0123C824.735 87.0123 824.735 85.6115 818.508 85.6115C812.281 85.6115 812.281 88.8172 806.054 88.8172C799.827 88.8172 799.827 89.76 793.6 89.76C787.373 89.76 787.373 89.5445 781.146 89.5445C774.919 89.5445 774.919 89.1943 768.692 89.1943C762.465 89.1943 762.465 89.6523 756.238 89.6523C750.011 89.6523 750.011 89.1135 743.784 89.1135C737.557 89.1135 737.557 89.7062 731.33 89.7062C725.103 89.7062 725.103 87.6049 718.877 87.6049C712.65 87.6049 712.65 89.8678 706.423 89.8678C700.196 89.8678 700.196 90.0294 693.969 90.0294C687.742 90.0294 687.742 86.689 681.515 86.689C675.288 86.689 675.288 87.8205 669.061 87.8205C662.834 87.8205 662.834 88.898 656.607 88.898C650.38 88.898 650.38 89.8139 644.153 89.8139C637.926 89.8139 637.926 87.7127 631.699 87.7127C625.472 87.7127 625.472 88.3054 619.245 88.3054C613.018 88.3054 613.018 86.716 606.791 86.716C600.564 86.716 600.564 88.1976 594.337 88.1976C588.11 88.1976 588.11 89.6792 581.883 89.6792C575.656 89.6792 575.656 87.6858 569.429 87.6858C563.202 87.6858 563.202 89.2482 556.975 89.2482C550.749 89.2482 550.749 86.9045 544.522 86.9045C538.295 86.9045 538.295 88.467 532.068 88.467C525.841 88.467 525.841 90.0564 519.614 90.0564C513.387 90.0564 513.387 88.3592 507.16 88.3592C500.933 88.3592 500.933 86.689 494.706 86.689C488.479 86.689 488.479 88.8172 482.252 88.8172C476.025 88.8172 476.025 87.147 469.798 87.147C463.571 87.147 463.571 89.0866 457.344 89.0866C451.117 89.0866 451.117 87.5511 444.89 87.5511C438.663 87.5511 438.663 86.1503 432.436 86.1503C426.209 86.1503 426.209 87.8205 419.982 87.8205C413.755 87.8205 413.755 87.3086 407.528 87.3086C401.301 87.3086 401.301 90.1911 395.074 90.1911C388.848 90.1911 388.848 85.6115 382.621 85.6115C376.394 85.6115 376.394 86.2311 370.167 86.2311C363.94 86.2311 363.94 89.7062 357.713 89.7062C351.486 89.7062 351.486 90.0564 345.259 90.0564C339.032 90.0564 339.032 86.258 332.805 86.258C326.578 86.258 326.578 89.1405 320.351 89.1405C314.124 89.1405 314.124 89.76 307.897 89.76C301.67 89.76 301.67 86.3927 295.443 86.3927C289.216 86.3927 289.216 85.6384 282.989 85.6384C276.762 85.6384 276.762 88.1437 270.535 88.1437C264.308 88.1437 264.308 86.2041 258.081 86.2041C251.854 86.2041 251.854 87.8743 245.627 87.8743C239.4 87.8743 239.4 86.3388 233.149 86.3388C226.898 86.3388 226.922 87.6049 220.695 87.6049C214.468 87.6049 214.468 87.147 208.241 87.147C202.015 87.147 202.015 88.2515 195.788 88.2515C189.561 88.2515 189.561 86.8776 183.334 86.8776C177.107 86.8776 177.107 89.1405 170.88 89.1405C164.653 89.1405 164.653 88.6017 158.402 88.6017C152.151 88.6017 152.175 86.6352 145.924 86.6352C139.672 86.6352 139.697 86.7968 133.446 86.7968C127.194 86.7968 127.219 88.7903 120.967 88.7903C114.716 88.7903 114.74 87.6049 108.514 87.6049C102.287 87.6049 102.287 86.6352 96.0355 86.6352C89.7844 86.6352 89.4948 90.2988 83.4126 88.6825C76.5823 86.8776 74.8445 82.4058 70.4277 87.3356L70.5966 87.3625ZM147.251 1232.02C145.248 1236.19 144.91 1240.64 142.858 1242.44C139.769 1245.22 135.473 1242.87 132.552 1243.49C128.522 1244.33 124.274 1244.89 120.147 1242.98C115.802 1240.96 110.3 1238.97 108.61 1234.93C107.138 1231.43 108.538 1226.31 108.779 1221.89C108.996 1217.85 108.876 1213.32 110.372 1209.44C112.23 1204.62 119.881 1199.04 123.236 1197.51C130.139 1194.28 135.183 1198.86 138.755 1200.74C141.579 1202.25 145.2 1202.74 147.082 1206C148.772 1208.93 148.796 1214.67 149.399 1219.55C149.978 1224.12 148.989 1228.41 147.251 1232.04V1232.02ZM147.251 1100.31C145.248 1104.49 144.91 1108.93 142.858 1110.74C139.769 1113.51 135.473 1111.17 132.552 1111.79C128.522 1112.63 124.274 1113.19 120.147 1111.28C115.802 1109.26 110.3 1107.26 108.61 1103.22C107.138 1099.72 108.538 1094.6 108.779 1090.19C108.996 1086.14 108.876 1081.62 110.372 1077.74C112.23 1072.92 119.881 1067.34 123.236 1065.81C130.139 1062.57 135.183 1067.15 138.755 1069.04C141.579 1070.55 145.2 1071.03 147.082 1074.29C148.772 1077.23 148.796 1082.97 149.399 1087.84C149.978 1092.42 148.989 1096.7 147.251 1100.34V1100.31ZM147.251 968.611C145.248 972.786 144.91 977.231 142.858 979.036C139.769 981.811 135.473 979.467 132.552 980.087C128.522 980.922 124.274 981.487 120.147 979.575C115.802 977.554 110.3 975.561 108.61 971.52C107.138 968.018 108.538 962.9 108.779 958.482C108.996 954.441 108.876 949.915 110.372 946.036C112.23 941.214 119.881 935.638 123.236 934.102C130.139 930.869 135.183 935.449 138.755 937.335C141.579 938.843 145.2 939.328 147.082 942.588C148.772 945.524 148.796 951.262 149.399 956.138C149.978 960.718 148.989 965.001 147.251 968.638V968.611ZM147.251 836.934C145.248 841.109 144.91 845.554 142.858 847.359C139.769 850.134 135.473 847.79 132.552 848.41C128.522 849.245 124.274 849.811 120.147 847.898C115.802 845.878 110.3 843.884 108.61 839.843C107.138 836.341 108.538 831.223 108.779 826.805C108.996 822.764 108.876 818.238 110.372 814.359C112.23 809.537 119.881 803.961 123.236 802.425C130.139 799.193 135.183 803.772 138.755 805.658C141.579 807.167 145.2 807.651 147.082 810.911C148.772 813.847 148.796 819.585 149.399 824.461C149.978 829.041 148.989 833.324 147.251 836.961V836.934ZM147.251 705.23C145.248 709.406 144.91 713.851 142.858 715.656C139.769 718.43 135.473 716.087 132.552 716.706C128.522 717.541 124.274 718.107 120.147 716.194C115.802 714.174 110.3 712.18 108.61 708.14C107.138 704.638 108.538 699.519 108.779 695.101C108.996 691.06 108.876 686.535 110.372 682.656C112.23 677.834 119.881 672.257 123.236 670.722C130.139 667.489 135.183 672.069 138.755 673.954C141.579 675.463 145.2 675.948 147.082 679.207C148.772 682.144 148.796 687.882 149.399 692.758C149.978 697.337 148.989 701.62 147.251 705.257V705.23ZM147.251 573.527C145.248 577.702 144.91 582.147 142.858 583.952C139.769 586.727 135.473 584.383 132.552 585.003C128.522 585.838 124.274 586.403 120.147 584.491C115.802 582.47 110.3 580.477 108.61 576.436C107.138 572.934 108.538 567.816 108.779 563.398C108.996 559.357 108.876 554.831 110.372 550.952C112.23 546.13 119.881 540.554 123.236 539.018C130.139 535.785 135.183 540.365 138.755 542.251C141.579 543.759 145.2 544.244 147.082 547.504C148.772 550.44 148.796 556.178 149.399 561.054C149.978 565.634 148.989 569.917 147.251 573.554V573.527ZM147.251 441.823C145.248 445.998 144.91 450.443 142.858 452.248C139.769 455.023 135.473 452.679 132.552 453.299C128.522 454.134 124.274 454.7 120.147 452.787C115.802 450.767 110.3 448.773 108.61 444.732C107.138 441.23 108.538 436.112 108.779 431.694C108.996 427.653 108.876 423.127 110.372 419.248C112.23 414.426 119.881 408.85 123.236 407.314C130.139 404.082 135.183 408.661 138.755 410.547C141.579 412.056 145.2 412.54 147.082 415.8C148.772 418.736 148.796 424.474 149.399 429.35C149.978 433.93 148.989 438.213 147.251 441.85V441.823ZM147.251 310.119C145.248 314.295 144.91 318.74 142.858 320.545C139.769 323.319 135.473 320.976 132.552 321.595C128.522 322.43 124.274 322.996 120.147 321.083C115.802 319.063 110.3 317.069 108.61 313.029C107.138 309.527 108.538 304.408 108.779 299.99C108.996 295.949 108.876 291.424 110.372 287.545C112.23 282.722 119.881 277.146 123.236 275.611C130.139 272.378 135.183 276.958 138.755 278.843C141.579 280.352 145.2 280.837 147.082 284.096C148.772 287.033 148.796 292.771 149.399 297.647C149.978 302.226 148.989 306.509 147.251 310.146V310.119ZM147.251 178.416C145.248 182.591 144.91 187.036 142.858 188.841C139.769 191.616 135.473 189.272 132.552 189.891C128.522 190.727 124.274 191.292 120.147 189.38C115.802 187.359 110.3 185.366 108.61 181.325C107.138 177.823 108.538 172.705 108.779 168.287C108.996 164.246 108.876 159.72 110.372 155.841C112.23 151.019 119.881 145.442 123.236 143.907C130.139 140.674 135.183 145.254 138.755 147.14C141.579 148.648 145.2 149.133 147.082 152.393C148.772 155.329 148.796 161.067 149.399 165.943C149.978 170.522 148.989 174.806 147.251 178.442V178.416Z" fill="white" stroke="black" stroke-width="4" mask="url(#path-1-inside-1_736_27812)"/>
<path d="M42.6279 1153.03C47.7376 1157.47 52.9803 1161.92 58.5342 1165.81L58.5352 1165.81C61.5096 1167.89 64.2832 1170.3 67.0332 1172.8C69.4262 1174.98 71.8191 1177.24 74.2764 1179.37L75.334 1180.28C77.1214 1181.89 79.2975 1183.49 81.6377 1185.24C84.0026 1187 86.5635 1188.93 89.1748 1191.21H89.1758C91.2389 1193 93.5422 1194.7 95.8984 1196.44C98.2656 1198.19 100.699 1200 103.08 1202.06L103.081 1202.06C105.179 1203.87 107.245 1205.88 109.393 1207.96C111.265 1209.77 113.195 1211.64 115.233 1213.44L116.114 1214.21C118.302 1216.1 120.584 1217.94 122.881 1219.78C124.894 1221.4 126.919 1223.03 128.921 1224.72L129.777 1225.45C131.923 1227.29 133.867 1229.51 135.88 1231.8C137.875 1234.07 139.935 1236.41 142.254 1238.41H142.255C144.576 1240.4 147.186 1241.95 149.705 1243.45C152.249 1244.96 154.701 1246.42 156.857 1248.27C159.126 1250.21 161.338 1252.21 163.538 1254.2C165.735 1256.19 167.923 1258.17 170.131 1260.07C172.393 1262.01 174.474 1264.17 176.554 1266.34C178.622 1268.5 180.695 1270.67 182.898 1272.56C185.244 1274.58 187.462 1276.66 189.626 1278.7C191.784 1280.73 193.895 1282.73 196.002 1284.55L196.003 1284.55C198.563 1286.76 201.307 1288.41 203.846 1289.92C206.414 1291.44 208.731 1292.78 210.603 1294.41V1294.41C213.615 1297.03 215.961 1299.77 217.879 1302.16C219.752 1304.49 221.317 1306.63 222.645 1307.85V1307.86C223.17 1308.34 224.677 1309.63 226.563 1311.26C228.466 1312.9 230.788 1314.92 232.984 1316.91C235.186 1318.91 237.238 1320.85 238.614 1322.36C239.157 1322.95 239.567 1323.45 239.838 1323.84C236.86 1324.49 228.469 1326.4 226.503 1326.96L225.767 1327.17L225.777 1327.93C225.786 1328.56 226.059 1329.35 226.342 1330.1C226.661 1330.94 227.023 1331.81 227.428 1332.91C228.118 1334.8 228.806 1337.08 229.022 1339.62C227.403 1339.63 225.076 1339.73 223.027 1339.93C221.74 1340.05 220.517 1340.21 219.632 1340.41C219.206 1340.5 218.774 1340.63 218.446 1340.8C218.292 1340.89 218.047 1341.04 217.872 1341.3C217.648 1341.64 217.593 1342.08 217.801 1342.49L217.804 1342.5C218.942 1344.69 220.072 1346.39 221.027 1347.72C222.018 1349.1 222.718 1349.96 223.144 1350.67C223.348 1351.01 223.417 1351.2 223.434 1351.31C223.442 1351.36 223.437 1351.36 223.425 1351.37C223.382 1351.43 223.248 1351.57 222.878 1351.77C222.518 1351.97 222.008 1352.18 221.303 1352.43L221.302 1352.43C218.79 1353.33 216.738 1353.6 215.143 1353.74C214.392 1353.81 213.593 1353.85 213.03 1353.91C212.454 1353.96 211.831 1354.06 211.323 1354.32L210.737 1354.63L210.792 1355.29C210.934 1357.01 211.672 1359.82 212.355 1362.26C212.699 1363.48 213.049 1364.68 213.308 1365.59C213.538 1366.41 213.683 1366.97 213.739 1367.24C213.718 1367.28 213.673 1367.34 213.58 1367.41C213.381 1367.57 213.039 1367.74 212.529 1367.9C211.514 1368.22 210.098 1368.42 208.543 1368.54C207.003 1368.65 205.394 1368.68 204.019 1368.7C202.682 1368.71 201.49 1368.71 200.891 1368.76L199.979 1368.84L199.977 1369.75C199.964 1373.41 200.633 1375.2 201.181 1376.88C201.571 1378.09 201.911 1379.26 201.89 1381.23C198.903 1378.63 195.277 1375.7 190.474 1371.61H190.475C186.396 1368.13 181.783 1364.2 176.761 1359.97V1359.97L176.756 1359.96L175.104 1358.6C173.435 1357.23 171.718 1355.85 169.971 1354.44C167.638 1352.56 165.249 1350.64 162.83 1348.62C160.623 1346.77 158.421 1344.82 156.165 1342.82C153.912 1340.82 151.608 1338.79 149.218 1336.8L149.215 1336.79L148.804 1336.45C146.762 1334.7 144.886 1332.63 142.942 1330.47C140.887 1328.2 138.759 1325.84 136.354 1323.84L136.352 1323.84C134.051 1321.93 131.715 1320.06 129.382 1318.19C127.046 1316.32 124.712 1314.44 122.402 1312.52V1312.52L121.521 1311.8C119.453 1310.14 117.311 1308.6 115.198 1307.08C112.775 1305.33 110.39 1303.61 108.142 1301.72L108.138 1301.72L104.646 1298.81C101.172 1295.91 97.7497 1293.03 94.3594 1290.19L94.3574 1290.19L93.4844 1289.46C91.4602 1287.73 89.5147 1285.92 87.5811 1284.12C85.3784 1282.07 83.1871 1280.02 80.9443 1278.13H80.9453C78.4921 1276.05 75.8916 1274.32 73.4043 1272.68C71.0565 1271.13 68.819 1269.66 66.8135 1268.01L66.416 1267.68C64.0008 1265.61 61.8875 1263.28 59.8379 1260.99C57.8052 1258.71 55.8155 1256.45 53.7051 1254.62L53.7031 1254.62L52.6699 1253.74C50.2644 1251.74 47.9169 1250.04 45.7871 1248.51C43.3434 1246.74 41.2219 1245.22 39.5527 1243.69C37.7654 1241.92 36.0224 1239.94 34.1299 1237.9C32.251 1235.88 30.2512 1233.83 28.0234 1232.02C23.9005 1228.66 19.5723 1225.29 15.4463 1221.97H15.4453C13.2369 1220.18 11.0185 1218.7 8.94434 1217.26C7.23703 1216.08 5.62264 1214.92 4.12109 1213.61C4.77852 1213.28 5.32581 1213.12 5.80371 1213.05C6.53667 1212.94 7.18525 1213.03 7.96094 1213.18C8.71696 1213.32 9.64063 1213.54 10.7188 1213.56C11.8238 1213.57 13.0747 1213.39 14.6006 1212.8L15.3877 1212.5L15.2197 1211.67C15.0847 1211 14.7389 1209.76 14.3574 1208.34C13.9681 1206.89 13.5253 1205.2 13.1719 1203.56C12.816 1201.91 12.5627 1200.36 12.5312 1199.18C12.5154 1198.59 12.5582 1198.15 12.6387 1197.86C12.6622 1197.78 12.6855 1197.72 12.7041 1197.68C12.9755 1197.66 13.429 1197.63 14.0518 1197.59C14.8767 1197.54 15.9332 1197.49 17.0332 1197.42C19.2011 1197.28 21.7059 1197.08 23.1572 1196.7L23.8379 1196.52L23.9004 1195.82C23.9342 1195.44 23.8636 1195.07 23.7705 1194.75C23.6754 1194.42 23.5362 1194.07 23.3838 1193.72C23.2309 1193.36 23.0498 1192.97 22.8633 1192.57C22.6742 1192.16 22.474 1191.72 22.2734 1191.25C21.5247 1189.49 20.7688 1187.27 20.6396 1184.5L20.6221 1183.94C20.6106 1183.16 20.6543 1182.58 20.7393 1182.15C20.825 1181.72 20.9409 1181.51 21.0234 1181.41C21.1077 1181.31 21.3009 1181.14 22.1641 1181.31C23.0217 1181.47 24.1504 1181.9 25.6943 1182.47C27.2013 1183.04 29.0232 1183.71 31.1553 1184.3V1184.3C31.3734 1184.36 31.65 1184.37 31.9248 1184.24C32.1843 1184.12 32.3399 1183.93 32.4258 1183.79C32.5793 1183.53 32.6168 1183.25 32.6318 1183.09C32.6661 1182.73 32.6352 1182.26 32.5801 1181.78C32.4665 1180.79 32.2135 1179.44 31.9072 1178.02C31.3987 1175.65 30.7217 1172.98 30.2246 1171.22C32.2739 1170.69 34.1642 1170.7 35.7598 1170.83C36.7224 1170.91 37.4504 1171.02 38.21 1171.09C38.562 1171.13 38.9076 1171.15 39.2236 1171.15C39.5314 1171.14 39.8763 1171.12 40.1992 1171L40.917 1170.76L40.8701 1170C40.834 1169.41 40.9276 1168.04 41.1104 1166.18C41.2895 1164.36 41.5434 1162.17 41.7998 1160.03C42.0555 1157.89 42.3144 1155.8 42.501 1154.18C42.5483 1153.76 42.5907 1153.38 42.6279 1153.03ZM31.6934 1182.38H31.6914C31.6897 1182.38 31.6882 1182.37 31.6865 1182.37C31.6887 1182.37 31.6912 1182.38 31.6934 1182.38Z" fill="#FE3B43" stroke="black" stroke-width="2"/>
<path d="M73 1193L72 1221.5L71 1250" stroke="black" stroke-width="2" stroke-linecap="round"/>
<path d="M229.153 98.4841C229.141 95.3823 229.249 92.2967 229.36 89.2341C229.472 86.1782 229.588 83.1413 229.588 80.1697C229.588 76.8793 229.491 73.6784 229.4 70.6169C229.31 67.5499 229.226 64.6265 229.25 61.8611C229.319 54.7938 229.452 49.1831 229.63 44.7751C233.821 43.5633 236.018 43.3641 238.233 43.3884C240.598 43.4144 243.208 43.7121 248.134 43.3718V43.3728C253.036 43.035 255.486 42.7838 257.927 42.5339C260.355 42.2854 262.776 42.0376 267.636 41.7019C272.53 41.3638 275.128 40.7525 277.439 40.4675C279.607 40.2005 281.78 40.1685 285.966 40.8445C285.808 45.4376 285.816 51.2685 285.658 58.4617L285.657 58.4675C285.609 61.4047 285.633 64.4954 285.657 67.6814C285.681 70.8712 285.705 74.1601 285.657 77.5144C285.61 80.5746 285.359 83.7008 285.105 86.8894C284.852 90.0664 284.597 93.3036 284.548 96.533V96.5339C284.499 99.8094 284.614 103.067 284.729 106.249C284.843 109.44 284.957 112.552 284.909 115.579V115.58C284.813 122.474 284.692 128.936 284.596 134.594C284.427 143.551 283.542 150.263 283.343 153.516L283.342 153.524C283.298 154.348 282.618 159.067 281.73 163.547C281.289 165.777 280.805 167.899 280.337 169.413C280.1 170.18 279.884 170.733 279.705 171.058C279.701 171.065 279.697 171.071 279.693 171.077C275.51 170.928 273.355 171.034 271.206 171.175C269.042 171.316 266.907 171.488 262.625 171.462C258.323 171.435 256.177 171.335 254.024 171.234C251.857 171.133 249.682 171.031 245.344 171.004C240.935 170.976 238.601 171.526 236.473 171.801C234.539 172.05 232.619 172.103 229.004 171.29C229.222 167.258 229.83 160.856 229.853 153.527L229.852 153.526C229.864 150.749 229.724 147.792 229.583 144.729C229.441 141.656 229.298 138.466 229.298 135.178C229.298 132.268 229.43 129.28 229.56 126.21C229.689 123.148 229.817 120.008 229.805 116.83C229.793 113.757 229.628 110.668 229.469 107.609C229.309 104.541 229.153 101.502 229.153 98.488V98.4841Z" fill="white" stroke="black" stroke-width="2"/>
<path d="M280.326 7.49194C281.485 7.58271 282.861 7.93938 284.655 8.75366C284.582 13.4136 284.944 18.1263 285.323 22.783C285.723 27.6854 286.14 32.5215 286.116 37.2644C286.08 38.2957 286.098 39.3294 286.116 40.3416C286.13 41.0983 286.143 41.8445 286.135 42.5916C277.346 44.0934 277.164 43.3657 267.546 44.03C262.678 44.3662 260.24 44.494 257.8 44.6218C255.353 44.7499 252.903 44.8783 248.021 45.2156C243.105 45.5551 240.617 46.007 238.209 46.323C236.005 46.6122 233.798 46.7963 229.647 46.6951C229.697 46.0655 229.766 45.4273 229.841 44.782C229.952 43.8158 230.074 42.8211 230.138 41.8718C230.653 36.938 230.043 31.2734 229.901 25.9558C229.764 20.7561 229.737 15.4686 230.085 10.8386C234.089 9.76566 236.203 9.79112 238.342 10.0437C240.67 10.3186 243.221 10.9021 248.027 10.7371C252.714 10.5757 255.055 10.5352 257.401 10.4949C259.755 10.4544 262.114 10.4136 266.828 10.2517C271.7 10.0975 274.477 8.69393 276.818 7.96558C277.982 7.60347 279.058 7.3926 280.326 7.49194Z" fill="#F5C005" stroke="black" stroke-width="2"/>
<path d="M829.274 22.1035C832.261 24.6992 835.887 27.6358 840.69 31.7246V31.7256C844.769 35.2001 849.382 39.1347 854.404 43.3662L854.409 43.3711C856.588 45.1817 858.863 47.0122 861.193 48.8896C863.525 50.7683 865.914 52.6952 868.332 54.709V54.71C870.54 56.5579 872.744 58.5143 875 60.5137C877.253 62.5096 879.557 64.546 881.947 66.5371L881.95 66.54C884.153 68.3575 886.149 70.5637 888.223 72.8574C890.278 75.131 892.406 77.4883 894.811 79.4941L894.813 79.4971C897.113 81.4021 899.449 83.2726 901.782 85.1436C904.118 87.0163 906.453 88.89 908.762 90.8096L908.763 90.8105C911.098 92.7487 913.553 94.5127 915.967 96.2529C918.39 98 920.774 99.724 923.022 101.609L923.027 101.613C927.708 105.491 932.285 109.363 936.806 113.141L936.808 113.142C939.148 115.088 941.373 117.151 943.583 119.21C945.785 121.262 947.977 123.313 950.22 125.204V125.205C952.673 127.283 955.273 129.01 957.761 130.653C960.264 132.307 962.641 133.869 964.746 135.653V135.654C967.163 137.72 969.276 140.05 971.326 142.346C973.359 144.621 975.349 146.886 977.46 148.715L977.461 148.716C980.225 151.105 982.944 153.074 985.378 154.828C987.825 156.592 989.95 158.114 991.62 159.65C993.405 161.418 995.145 163.395 997.035 165.43C998.679 167.199 1000.41 168.989 1002.32 170.621L1003.14 171.311C1007.26 174.673 1011.59 178.038 1015.71 181.357V181.358C1017.92 183.153 1020.15 184.636 1022.22 186.074C1023.93 187.257 1025.54 188.418 1027.04 189.725C1026.39 190.049 1025.84 190.212 1025.36 190.283C1024.63 190.392 1023.98 190.305 1023.2 190.156C1022.45 190.012 1021.52 189.797 1020.45 189.778C1019.34 189.76 1018.09 189.943 1016.56 190.532L1015.78 190.837L1015.95 191.664C1016.08 192.331 1016.43 193.573 1016.81 194.992C1017.2 196.44 1017.64 198.13 1017.99 199.771C1018.35 201.423 1018.6 202.973 1018.63 204.152C1018.65 204.746 1018.61 205.183 1018.53 205.47C1018.5 205.554 1018.48 205.611 1018.46 205.65C1018.19 205.677 1017.74 205.708 1017.11 205.743C1016.29 205.79 1015.23 205.844 1014.13 205.913C1011.96 206.05 1009.46 206.254 1008.01 206.634L1007.33 206.812L1007.26 207.513C1007.23 207.89 1007.3 208.261 1007.39 208.585C1007.49 208.916 1007.63 209.266 1007.78 209.618C1007.93 209.972 1008.12 210.362 1008.3 210.766C1008.49 211.175 1008.69 211.612 1008.89 212.082C1009.64 213.839 1010.4 216.062 1010.53 218.828L1010.54 219.389C1010.55 220.17 1010.51 220.752 1010.42 221.18C1010.34 221.611 1010.22 221.823 1010.14 221.923C1010.06 222.025 1009.86 222.193 1009 222.025C1008.14 221.858 1007.01 221.434 1005.47 220.857C1003.96 220.295 1002.14 219.622 1000.01 219.03H1000.01C999.792 218.969 999.515 218.963 999.24 219.09C998.981 219.21 998.825 219.402 998.739 219.546C998.586 219.803 998.548 220.084 998.533 220.242C998.499 220.604 998.53 221.069 998.585 221.55C998.699 222.541 998.952 223.892 999.258 225.318C999.766 227.686 1000.44 230.352 1000.94 232.112C998.89 232.641 997.001 232.63 995.405 232.5C994.443 232.422 993.715 232.315 992.955 232.241C992.603 232.207 992.257 232.181 991.94 232.185C991.633 232.188 991.289 232.217 990.966 232.329L990.248 232.578L990.295 233.336C990.331 233.919 990.237 235.296 990.055 237.152C989.876 238.972 989.622 241.159 989.365 243.302C989.11 245.439 988.851 247.537 988.664 249.158C988.617 249.57 988.573 249.953 988.536 250.3C983.427 245.867 978.185 241.412 972.631 237.52L972.63 237.519L972.074 237.126C969.309 235.141 966.71 232.877 964.132 230.531C961.739 228.354 959.346 226.09 956.889 223.959L955.831 223.055C954.044 221.448 951.868 219.84 949.527 218.094C947.162 216.33 944.601 214.404 941.989 212.128V212.127C939.926 210.331 937.623 208.637 935.267 206.893C932.899 205.14 930.466 203.328 928.085 201.269L928.084 201.268L927.298 200.58C925.468 198.956 923.651 197.193 921.772 195.374C919.633 193.302 917.417 191.161 915.051 189.119L915.05 189.118C912.863 187.233 910.581 185.397 908.284 183.551C905.983 181.701 903.666 179.838 901.388 177.884H901.389C899.243 176.038 897.298 173.825 895.285 171.534C893.29 169.264 891.229 166.92 888.91 164.927V164.926L888.472 164.558C886.263 162.741 883.822 161.29 881.46 159.886C878.916 158.373 876.464 156.913 874.308 155.065H874.307C872.038 153.123 869.827 151.125 867.627 149.134C865.43 147.146 863.242 145.163 861.034 143.268C858.772 141.324 856.691 139.163 854.611 136.993C852.802 135.106 850.988 133.207 849.087 131.492L848.267 130.769L847.393 130.009C845.367 128.231 843.433 126.416 841.539 124.633C839.381 122.6 837.27 120.604 835.163 118.782L835.161 118.781L834.68 118.374C832.259 116.369 829.699 114.825 827.319 113.415C824.912 111.989 822.725 110.718 820.919 109.226L820.562 108.924C817.551 106.3 815.204 103.565 813.286 101.177C811.528 98.9883 810.043 96.9687 808.77 95.7148L808.518 95.4746C807.99 94.9843 806.484 93.7016 804.602 92.0771C802.699 90.4352 800.377 88.4164 798.181 86.4248C795.979 84.4278 793.927 82.4783 792.551 80.9727C792.008 80.3785 791.597 79.8822 791.326 79.4971C794.303 78.8448 802.696 76.9354 804.662 76.375L805.398 76.165L805.388 75.3984C805.379 74.7675 805.106 73.9829 804.823 73.2354C804.505 72.392 804.142 71.5254 803.737 70.4189C803.047 68.5316 802.358 66.2574 802.142 63.71C803.761 63.7029 806.088 63.5992 808.138 63.4072C809.424 63.2867 810.647 63.128 811.532 62.9268C811.958 62.8298 812.391 62.705 812.719 62.5293C812.873 62.4468 813.117 62.2953 813.292 62.0332C813.516 61.6968 813.572 61.2516 813.364 60.8438L813.361 60.8369L812.935 60.0361C811.943 58.2224 810.973 56.7803 810.138 55.6162C809.147 54.236 808.446 53.3766 808.021 52.667C807.817 52.3271 807.748 52.1317 807.731 52.0273C807.723 51.9725 807.728 51.9778 807.74 51.96C807.783 51.899 807.917 51.7594 808.287 51.5586C808.647 51.3629 809.157 51.1475 809.861 50.8984H809.863C812.375 50.0069 814.427 49.7288 816.022 49.5918C816.773 49.5274 817.572 49.4847 818.135 49.4277C818.711 49.3694 819.334 49.2761 819.842 49.0088L820.427 48.7012L820.372 48.042C820.23 46.3244 819.493 43.5105 818.81 41.0752C818.466 39.8526 818.116 38.6541 817.857 37.7412C817.627 36.9266 817.48 36.3691 817.424 36.0918C817.445 36.0545 817.49 35.9988 817.585 35.9238C817.784 35.766 818.125 35.5932 818.635 35.4316C819.65 35.1101 821.066 34.9133 822.621 34.7969C824.161 34.6815 825.771 34.649 827.146 34.6348C828.483 34.6209 829.675 34.6247 830.274 34.5732L831.186 34.4951L831.188 33.5811C831.201 29.9282 830.532 28.1335 829.984 26.4492C829.594 25.2483 829.253 24.0777 829.274 22.1035ZM999.472 220.957H999.474C999.475 220.957 999.476 220.958 999.478 220.958C999.476 220.957 999.474 220.958 999.472 220.957ZM965.396 179.971L965.36 208.517L967.36 208.519L967.396 179.973L967.432 151.428L966.432 151.426L965.432 151.425L965.396 179.971Z" fill="#FE3B43" stroke="black" stroke-width="2"/>
<path d="M817.5 90.5H896.5" stroke="black" stroke-width="2"/>
<path d="M136 1308H208" stroke="black" stroke-width="2" stroke-linecap="round"/>
</svg>
